<?xml version="1.0" encoding="UTF-8" standalone="no"?>
<svg
   xmlns:dc="http://purl.org/dc/elements/1.1/"
   xmlns:cc="http://web.resource.org/cc/"
   xmlns:rdf="http://www.w3.org/1999/02/22-rdf-syntax-ns#"
   xmlns:svg="http://www.w3.org/2000/svg"
   xmlns="http://www.w3.org/2000/svg"
   xmlns:sodipodi="http://sodipodi.sourceforge.net/DTD/sodipodi-0.dtd"
   xmlns:inkscape="http://www.inkscape.org/namespaces/inkscape"
   version="1.1"
   id="Layer_1"
   width="342"
   height="342"
   viewBox="0 0 342 342"
   overflow="visible"
   enable-background="new 0 0 342 342"
   xml:space="preserve"
   sodipodi:version="0.32"
   inkscape:version="0.45.1"
   sodipodi:docname="Pitch_class_space_w_star.svg"
   sodipodi:docbase="/home/Bill/Desktop"
   inkscape:output_extension="org.inkscape.output.svg.inkscape"><metadata
   id="metadata80"><rdf:RDF><cc:Work
       rdf:about=""><dc:format>image/svg+xml</dc:format><dc:type
         rdf:resource="http://purl.org/dc/dcmitype/StillImage" /></cc:Work></rdf:RDF></metadata><defs
   id="defs78">





































	</defs><sodipodi:namedview
   inkscape:window-height="919"
   inkscape:window-width="955"
   inkscape:pageshadow="2"
   inkscape:pageopacity="0.0"
   guidetolerance="10.0"
   gridtolerance="10.0"
   objecttolerance="10.0"
   borderopacity="1.0"
   bordercolor="#666666"
   pagecolor="#ffffff"
   id="base"
   inkscape:zoom="1.4142136"
   inkscape:cx="167.32343"
   inkscape:cy="157.48176"
   inkscape:window-x="13"
   inkscape:window-y="42"
   inkscape:current-layer="layer2" />

<rect
   fill="none"
   width="342"
   height="342"
   id="rect75" />
<g
   inkscape:groupmode="layer"
   id="layer3"
   inkscape:label="wt bg"
   sodipodi:insensitive="true"><rect
     style="opacity:1;color:#000000;fill:#ffffff;fill-opacity:1;fill-rule:nonzero;stroke:none;stroke-width:2;stroke-linecap:butt;stroke-linejoin:miter;marker:none;marker-start:none;marker-mid:none;marker-end:none;stroke-miterlimit:4;stroke-dasharray:none;stroke-dashoffset:0;stroke-opacity:1;visibility:visible;display:inline;overflow:visible;enable-background:accumulate"
     id="rect2271"
     width="341.89728"
     height="341.89236"
     x="0.098311"
     y="0.10674059" /></g><g
   inkscape:groupmode="layer"
   id="layer1"
   inkscape:label="star"><g
     style="display:inline;opacity:1;color:#000000;fill:none;fill-opacity:1;fill-rule:nonzero;stroke:#999999;stroke-width:2.67075276;stroke-linecap:round;stroke-linejoin:miter;marker:none;marker-start:none;marker-mid:none;marker-end:none;stroke-miterlimit:4;stroke-dasharray:none;stroke-dashoffset:0;stroke-opacity:1;visibility:visible;display:inline;overflow:visible;enable-background:accumulate"
     inkscape:label="star"
     id="g3307"
     transform="matrix(0.7488525,0,0,0.7488525,-53.015511,-54.363457)"><path
       sodipodi:nodetypes="ccccccccccccc"
       id="path3954"
       d="M 302.30859,132.99934 L 216.71419,446.54279 "
       style="stroke:#ff9999" /><path
       sodipodi:nodetypes="ccccccccccccc"
       id="path3954"
       d="M 216.71419,446.54279 L 448.96763,216.5346 "
       style="stroke:#ff9900" /><path
       sodipodi:nodetypes="ccccccccccccc"
       id="path3954"
       d="M 448.96763,216.5346 L 131.21479,300.407 "
       style="stroke:#cccc00" /><path
       sodipodi:nodetypes="ccccccccccccc"
       id="path3954"
       d="M 131.21479,300.407 L 448.97578,383.60547 "
       style="stroke:#66cc00" /><path
       sodipodi:nodetypes="ccccccccccccc"
       id="path3954"
       d="M 448.97578,383.60547 L 217.64336,155.407 "
       style="stroke:#00cc00" /><path
       sodipodi:nodetypes="ccccccccccccc"
       id="path3954"
       d="M 217.64336,155.407 L 301.36898,468.89077 "
       style="stroke:#00cccc" /><path
       sodipodi:nodetypes="ccccccccccccc"
       id="path3954"
       d="M 301.36898,468.89077 L 387.00893,155.39063 "
       style="stroke:#9999ff" /><path
       sodipodi:nodetypes="ccccccccccccc"
       id="path3954"
       d="M 387.00893,155.39063 L 154.72464,385.39897 "
       style="stroke:#999999" /><path
       sodipodi:nodetypes="ccccccccccccc"
       id="path3954"
       d="M 154.72464,385.39897 L 467.07529,301.97398 "
       style="stroke:#666666" /><path
       sodipodi:nodetypes="ccccccccccccc"
       id="path3954"
       d="M 467.07529,301.97398 L 149.71865,218.09526 "
       style="stroke:#cc00ff" /><path
       sodipodi:nodetypes="ccccccccccccc"
       id="path3954"
       d="M 149.71865,218.09526 L 386.981,444.69947 "
       style="stroke:#ff00cc" /><path
       sodipodi:nodetypes="ccccccccccccc"
       id="path3954"
       d="M 386.981,444.69947 L 302.30859,132.99934 "
       style="stroke:#ff3333" /></g></g><g
   inkscape:groupmode="layer"
   id="layer2"
   inkscape:label="circle"><path
     d="M 174.38017,9.9312427 C 175.81117,9.8882427 177.26817,9.8442427 179.38317,10.576243 C 178.83717,11.812243 178.74017,12.133243 178.56617,13.358243 C 178.20817,12.918243 177.87717,12.477243 177.20417,12.126243 C 176.53117,11.775243 175.49017,11.568243 174.43117,11.601243 C 172.36517,11.663243 170.59117,12.618243 169.59617,13.894243 C 168.52517,15.278243 168.06017,17.466243 168.12117,19.506243 C 168.19217,21.889243 169.00417,24.172243 170.37017,25.536243 C 171.71017,26.874243 173.58217,27.427243 175.46417,27.371243 C 178.08617,27.292243 179.22317,26.303243 179.84317,25.780243 C 179.53217,26.930243 179.43917,27.304243 179.29017,28.554243 C 178.55417,28.735243 177.18517,29.068243 175.03917,29.133243 C 174.00617,29.164243 170.32417,29.275243 167.70417,26.782243 C 165.82017,24.956243 165.05317,22.408243 164.98017,19.971243 C 164.78917,13.668243 167.99617,10.124243 174.38017,9.9312427 z "
     id="path7" /><g
     id="g3377"
     transform="matrix(0.9974801,7.0946755e-2,-7.0946755e-2,0.9974801,10.445656,-11.179826)"><path
       id="path9"
       d="M 221.2465,15.954699 C 222.6145,16.373699 224.0085,16.802699 225.7765,18.176699 C 224.8615,19.170699 224.6675,19.443699 224.1055,20.546699 C 223.9095,20.014699 223.7365,19.490699 223.2115,18.941699 C 222.6885,18.392699 221.7705,17.860699 220.7565,17.550699 C 218.7795,16.943699 216.7935,17.276699 215.4405,18.163699 C 213.9795,19.128699 212.8355,21.050699 212.2355,23.000699 C 211.5365,25.280699 211.5695,27.702699 212.4235,29.434699 C 213.2615,31.132699 214.8555,32.259699 216.6535,32.811699 C 219.1615,33.581699 220.5555,33.012699 221.3115,32.717699 C 220.6485,33.705699 220.4375,34.029699 219.8955,35.165699 C 219.1385,35.100699 217.7355,34.974699 215.6835,34.343699 C 214.6965,34.040699 211.1735,32.959699 209.4965,29.755699 C 208.3005,27.420699 208.3955,24.760699 209.1115,22.430699 C 210.9645,16.400699 215.1405,14.079699 221.2465,15.954699 z " /><path
       id="path11"
       d="M 238.6745,22.665699 L 237.1375,26.175699 L 238.8145,26.078699 L 238.1045,27.660699 L 236.4325,27.760699 L 234.3445,32.597699 L 235.9835,32.512699 L 235.2695,34.135699 L 233.6095,34.225699 L 232.1275,37.658699 L 231.4535,37.362699 L 232.7975,34.278699 L 228.5445,34.499699 L 226.8995,38.301699 L 226.2545,38.031699 L 227.7755,34.543699 L 226.0975,34.626699 L 226.8065,33.015699 L 228.5115,32.916699 L 230.6075,28.082699 L 228.9175,28.173699 L 229.6215,26.573699 L 231.3035,26.479699 L 232.8185,23.004699 L 233.4805,23.295699 L 232.1165,26.426699 L 236.3315,26.244699 L 238.0245,22.350699 L 238.6745,22.665699 z M 235.6325,27.831699 L 231.3795,28.053699 L 229.2845,32.872699 L 233.5105,32.653699 L 235.6325,27.831699 z " /><path
       id="path13"
       d="M 250.0255,33.644699 C 252.3305,31.932699 252.8235,31.328699 253.4535,30.588699 C 253.7745,30.830699 254.0715,31.058699 254.4185,31.253699 C 254.7635,31.449699 255.1365,31.598699 255.5085,31.747699 C 253.6935,32.700699 253.3355,32.955699 251.3645,34.399699 L 242.4385,41.107699 L 240.9945,42.210699 C 239.6005,43.280699 239.3485,43.564699 238.9615,44.196699 C 238.6285,43.978699 238.2845,43.724699 237.9395,43.528699 C 237.5935,43.333699 237.2215,43.184699 236.8385,42.999699 C 238.3795,42.317699 240.1135,41.074699 241.0875,40.375699 L 250.0255,33.644699 z " /><path
       id="path15"
       d="M 255.3815,41.424699 C 258.9775,36.405699 259.1755,35.861699 259.6985,34.277699 C 259.9525,34.559699 261.0835,35.573699 261.8775,36.148699 C 263.2315,37.126699 264.4015,37.678699 265.9915,38.827699 C 268.1165,40.364699 271.0285,42.894699 270.0245,47.041699 C 269.5925,48.724699 268.5425,50.449699 267.8125,51.458699 C 266.2445,53.627699 264.0645,55.419699 261.4165,55.826699 C 258.2495,56.316699 255.4195,54.532699 253.5725,53.196699 C 252.2625,52.249699 251.3155,51.433699 250.4785,50.828699 C 249.5765,50.176699 249.0795,49.914699 248.5265,49.548699 C 248.8895,49.451699 249.4855,49.261699 251.4815,46.682699 C 252.4565,45.424699 252.9685,44.716699 253.5025,44.022699 L 255.3815,41.424699 z M 253.4885,48.656699 C 252.9345,49.466699 252.4605,50.169699 254.6285,51.737699 C 255.2955,52.218699 257.1395,53.421699 258.8695,53.560699 C 262.0225,53.812699 264.2375,51.065699 265.2475,49.669699 C 266.3955,48.080699 267.6555,45.885699 266.9505,43.379699 C 266.3705,41.422699 264.8055,40.193699 264.1395,39.712699 C 263.1525,38.998699 261.9695,38.372699 261.3425,38.017699 C 260.5845,38.974699 258.9995,41.032699 257.8505,42.621699 L 253.4885,48.656699 z " /><path
       id="path17"
       d="M 277.0115,51.332699 L 270.1555,58.770699 C 272.1825,58.408699 273.6185,58.614699 274.4655,59.388699 C 274.9945,59.872699 275.2545,60.443699 275.2485,61.102699 C 275.2405,61.761699 274.9675,62.386699 274.4265,62.978699 C 273.5365,63.951699 272.3345,64.439699 270.8195,64.443699 C 269.3015,64.446699 267.7935,63.966699 266.2925,63.002699 L 265.7845,62.677699 L 276.5215,50.917699 L 277.0115,51.332699 z M 266.8255,62.439699 L 267.2185,62.641699 C 268.3195,63.227699 269.3745,63.490699 270.3865,63.431699 C 271.3995,63.371699 272.2205,62.996699 272.8545,62.304699 C 273.2375,61.886699 273.4575,61.439699 273.5115,60.964699 C 273.5665,60.489699 273.4415,60.112699 273.1345,59.833699 C 272.5055,59.257699 271.2495,59.205699 269.3695,59.677699 L 266.8255,62.439699 z " /></g><path
     d="M 301.25574,89.977368 C 306.66674,87.001368 307.07974,86.596368 308.23474,85.393368 C 308.34174,85.757368 308.92474,87.160368 309.39274,88.021368 C 310.19174,89.487368 311.00874,90.490368 311.94774,92.212368 C 313.20174,94.516368 314.73674,98.056368 312.04174,101.36337 C 310.92574,102.69537 309.23374,103.79837 308.14074,104.39237 C 305.78974,105.67237 303.04974,106.34937 300.48574,105.57337 C 297.41774,104.64937 295.63474,101.81837 294.54574,99.816369 C 293.77274,98.396368 293.27074,97.251368 292.77674,96.343368 C 292.24374,95.365368 291.90774,94.915368 291.56674,94.346368 C 291.93674,94.416368 292.55674,94.501368 295.46974,93.035368 C 296.89174,92.321368 297.65974,91.903368 298.44074,91.509368 L 301.25574,89.977368 z M 296.42874,95.683368 C 295.57974,96.176368 294.84874,96.604368 296.12674,98.955368 C 296.52074,99.677369 297.66474,101.55837 299.16574,102.43037 C 301.90074,104.01937 305.08574,102.49637 306.59874,101.67237 C 308.32174,100.73437 310.40574,99.298368 310.84874,96.733368 C 311.16974,94.718368 310.28874,92.934368 309.89674,92.212368 C 309.31374,91.142368 308.51774,90.066368 308.10574,89.477368 C 307.00974,90.013368 304.69074,91.185368 302.96774,92.123368 L 296.42874,95.683368 z "
     id="path19" /><g
     id="g3384"
     transform="matrix(0.9999197,-1.2670778e-2,1.2670778e-2,0.9999197,-3.7995038,1.6221078)"><path
       id="path21"
       d="M 322.5405,140.5667 C 328.6425,139.6147 329.1685,139.3747 330.6645,138.6377 C 330.6415,139.0157 330.7115,140.5337 330.8565,141.5027 C 331.1075,143.1537 331.5335,144.3757 331.8285,146.3147 C 332.2215,148.9087 332.4565,152.7597 328.7945,154.9507 C 327.2925,155.8207 325.3245,156.2797 324.0935,156.4667 C 321.4465,156.8677 318.6405,156.5707 316.4935,154.9657 C 313.9265,153.0497 313.2165,149.7797 312.8745,147.5267 C 312.6325,145.9287 312.5505,144.6807 312.3955,143.6597 C 312.2285,142.5587 312.0675,142.0207 311.9415,141.3697 C 312.2655,141.5617 312.8185,141.8527 316.0585,141.4697 C 317.6375,141.2837 318.5015,141.1527 319.3705,141.0487 L 322.5405,140.5667 z M 316.0545,144.2837 C 315.0885,144.4567 314.2545,144.6097 314.6555,147.2567 C 314.7795,148.0687 315.2145,150.2267 316.3265,151.5597 C 318.3555,153.9857 321.8685,153.6417 323.5725,153.3827 C 325.5105,153.0897 327.9605,152.4497 329.2525,150.1907 C 330.2425,148.4057 330.0235,146.4287 329.8995,145.6157 C 329.7155,144.4107 329.3345,143.1287 329.1475,142.4327 C 327.9345,142.5627 325.3565,142.8727 323.4175,143.1677 L 316.0545,144.2837 z " /><path
       id="path23"
       d="M 333.9665,169.8827 L 330.1385,169.9737 L 330.9345,171.4437 L 329.2015,171.4697 L 328.4045,170.0107 L 323.1405,170.1567 L 323.9115,171.6037 L 322.1405,171.6447 L 321.3555,170.1877 L 317.6185,170.2987 L 317.6015,169.5567 L 320.9655,169.4677 L 318.9625,165.7077 L 314.8225,165.8277 L 314.7945,165.1347 L 318.5975,165.0347 L 317.8125,163.5457 L 319.5725,163.5067 L 320.3835,165.0087 L 325.6485,164.8577 L 324.8505,163.3697 L 326.5965,163.3297 L 327.3945,164.8177 L 331.1845,164.7177 L 331.2015,165.4307 L 327.7855,165.5217 L 329.7355,169.2667 L 333.9775,169.1697 L 333.9665,169.8827 z M 327.9995,169.3067 L 325.9975,165.5467 L 320.7465,165.6917 L 322.7355,169.4267 L 327.9995,169.3067 z " /><path
       id="path25"
       d="M 328.8295,184.8207 C 331.3545,186.1847 332.1105,186.3767 333.0485,186.6347 C 332.9645,187.0267 332.8835,187.3927 332.8535,187.7877 C 332.8235,188.1837 332.8445,188.5847 332.8675,188.9847 C 331.2345,187.7427 330.8525,187.5267 328.7115,186.3517 L 318.8575,181.0977 L 317.2485,180.2557 C 315.6895,179.4437 315.3255,179.3357 314.5885,179.2527 C 314.6465,178.8577 314.7315,178.4387 314.7625,178.0427 C 314.7935,177.6467 314.7715,177.2457 314.7775,176.8207 C 316.0485,177.9287 317.9065,178.9757 318.9515,179.5617 L 328.8295,184.8207 z " /><path
       id="path27"
       d="M 326.4015,193.2527 C 329.7535,193.7807 330.4835,193.9087 332.2765,193.6547 C 332.1285,194.1947 331.8525,195.1697 331.3715,197.9347 C 331.0265,199.9197 330.7145,202.1787 330.4665,204.0727 C 329.8185,203.9327 329.3065,203.7897 328.7035,203.6857 C 328.2605,203.6087 327.8635,203.5667 327.3845,203.5377 C 328.5015,202.8447 328.8185,202.4147 329.3485,199.3597 C 329.5265,198.3407 329.6045,197.7367 329.7345,196.6827 C 328.6995,196.4497 327.6325,196.2367 326.7715,196.0867 L 323.9255,195.5917 C 323.6645,196.6227 323.4765,197.3977 323.2325,198.8077 C 323.1605,199.2257 322.9455,200.4527 323.0065,201.1887 C 323.0415,201.7597 323.2095,202.0317 323.4375,202.4197 C 322.8305,202.2067 322.4205,202.0807 321.6375,201.9457 C 320.9585,201.8267 320.5575,201.8117 319.9915,201.8207 C 320.5265,201.2147 320.7065,200.9497 320.9655,200.0807 C 321.3405,198.6937 321.5505,197.4927 321.8885,195.2377 L 317.1895,194.4217 C 315.0435,194.0747 314.8205,194.2787 314.3075,197.2297 C 314.2525,197.5417 314.1445,198.1687 314.1085,198.9977 C 313.9765,200.9917 314.3415,201.6737 314.7675,202.4747 C 313.3695,201.6947 313.0175,201.5517 311.6925,201.1327 C 311.8735,200.2497 312.2945,198.6017 312.8295,195.5207 C 313.2835,192.9107 313.4825,191.7617 313.5805,190.2727 C 314.0665,190.5727 314.4095,190.7657 314.9915,190.9747 C 316.3825,191.4857 318.1795,191.8257 319.8245,192.1097 L 326.4015,193.2527 z " /><path
       id="path29"
       d="M 325.7845,210.9247 L 316.0445,208.2007 C 317.2905,209.8397 317.7625,211.2127 317.4565,212.3157 C 317.2675,213.0047 316.8765,213.4977 316.2865,213.7897 C 315.6955,214.0827 315.0155,214.1237 314.2415,213.9107 C 312.9705,213.5597 311.9885,212.7117 311.2965,211.3617 C 310.6055,210.0127 310.3475,208.4517 310.5235,206.6757 L 310.5825,206.0747 L 325.9335,210.2907 L 325.7845,210.9247 z M 311.2655,206.9007 L 311.2635,207.3417 C 311.2425,208.5837 311.4905,209.6427 312.0045,210.5147 C 312.5185,211.3867 313.2285,211.9477 314.1335,212.1977 C 314.6795,212.3477 315.1775,212.3407 315.6255,212.1747 C 316.0735,212.0077 316.3515,211.7277 316.4615,211.3287 C 316.6885,210.5087 316.1615,209.3697 314.8855,207.9127 L 311.2655,206.9007 z " /></g><path
     d="M 308.88531,241.83671 C 311.8965,243.39925 312.54875,243.75227 314.32879,244.07866 C 314.01715,244.54473 313.44794,245.38095 312.11545,247.85171 C 311.15832,249.62616 310.14774,251.66911 309.31218,253.38606 C 308.7415,253.04819 308.29962,252.74954 307.76316,252.45995 C 307.36668,252.24676 307.00432,252.08086 306.55857,251.90198 C 307.83746,251.59856 308.27393,251.29048 309.74501,248.56105 C 310.23571,247.65122 310.50112,247.10176 310.9576,246.14365 C 310.04974,245.59357 309.10569,245.05461 308.33674,244.63925 L 305.79351,243.26876 C 305.22141,244.16544 304.79692,244.83882 304.11822,246.09884 C 303.91704,246.47122 303.32584,247.56824 303.15007,248.28671 C 303.00334,248.83913 303.07594,249.1501 303.16869,249.59183 C 302.65838,249.19663 302.31109,248.94816 301.61171,248.57205 C 301.00477,248.24429 300.62941,248.10257 300.089,247.93174 C 300.78914,247.52597 301.04369,247.33271 301.56564,246.58983 C 302.36212,245.39306 302.94024,244.31923 303.975,242.28928 L 299.77618,240.02582 C 297.85091,239.01828 297.57524,239.14007 296.15341,241.77599 C 296.00166,242.05685 295.70097,242.61633 295.40446,243.39023 C 294.64734,245.23901 294.77751,246.00273 294.92873,246.89613 C 293.85056,245.71221 293.56174,245.46679 292.43652,244.65017 C 292.88898,243.86904 293.81014,242.43887 295.29339,239.68733 C 296.55121,237.3534 297.10433,236.32786 297.66839,234.94711 C 298.03477,235.38465 298.29851,235.67736 298.78563,236.05947 C 299.94226,236.98582 301.5393,237.87474 303.00879,238.66811 L 308.88531,241.83671 z "
     id="path31" /><path
     d="M 254.54531,299.34825 C 257.78531,304.32125 258.29631,304.71525 259.13531,305.27625 C 258.52231,305.64525 256.16231,307.02525 254.58631,308.05025 C 253.18831,308.96125 251.58831,310.10025 249.96731,311.25225 C 249.73831,310.70525 249.60831,310.40925 249.33331,309.98725 C 249.04331,309.54425 248.70931,309.12925 248.31631,308.72025 C 248.79431,308.82125 249.22531,308.94925 250.02931,308.67925 C 250.64931,308.46525 251.55031,308.00425 252.46131,307.41025 C 252.88431,307.13525 253.26931,306.85225 253.69031,306.57825 C 254.20831,306.20925 254.71131,305.81625 255.20831,305.46125 C 254.33431,303.97525 254.10331,303.62025 253.40831,302.55425 L 252.03331,300.44625 C 250.96131,301.08225 250.40631,301.44225 249.97131,301.69625 C 249.49031,301.97725 248.89131,302.36925 248.18731,302.88925 C 246.71231,303.97825 246.79731,304.30025 246.57231,304.82725 C 246.32131,304.29625 246.14131,303.87525 245.80831,303.36325 C 245.46031,302.83125 245.07631,302.38525 244.70431,301.96425 C 245.32331,301.94125 245.72631,301.93025 246.97531,301.27525 C 247.66331,300.92125 248.57431,300.32825 248.92831,300.09725 C 249.35031,299.82325 249.90531,299.46125 250.91931,298.73625 C 248.43931,294.88125 247.49831,293.43825 246.37831,292.30125 C 245.99931,291.91425 245.79531,291.79525 245.42231,291.56325 C 246.02131,291.26825 246.60531,290.95225 247.16031,290.58925 C 247.73631,290.21325 248.30731,289.77725 248.84131,289.33525 C 249.18531,290.97925 250.17531,292.54725 251.86631,295.23925 L 254.54531,299.34825 z "
     id="path33" /><g
     id="g3391"
     transform="matrix(0.9993321,-3.654227e-2,3.654227e-2,0.9993321,-5.3038216,4.7774403)"><path
       id="path37"
       d="M 197.8505,324.0887 C 198.7305,329.9597 199.0305,330.5297 199.5605,331.3897 C 198.8485,331.4697 196.1295,331.7427 194.2695,332.0207 C 192.6185,332.2687 190.6905,332.6377 188.7375,333.0107 C 188.7555,332.4177 188.7605,332.0957 188.6865,331.5987 C 188.6075,331.0737 188.4765,330.5577 188.2905,330.0227 C 188.6825,330.3117 189.0205,330.6107 189.8645,330.6977 C 190.5165,330.7607 191.5285,330.7167 192.6025,330.5557 C 193.1005,330.4807 193.5695,330.3837 194.0675,330.3097 C 194.6915,330.1887 195.3125,330.0417 195.9115,329.9257 C 195.7355,328.2107 195.6735,327.7907 195.4835,326.5337 L 195.1115,324.0437 C 193.8715,324.1757 193.2155,324.2737 192.7145,324.3207 C 192.1605,324.3777 191.4525,324.4837 190.5965,324.6667 C 188.8035,325.0417 188.7455,325.3717 188.3215,325.7577 C 188.3145,325.1687 188.3265,324.7117 188.2355,324.1087 C 188.1415,323.4797 187.9765,322.9157 187.8155,322.3767 C 188.3865,322.6127 188.7585,322.7727 190.1675,322.6947 C 190.9395,322.6597 192.0145,322.4987 192.4335,322.4347 C 192.9315,322.3607 193.5865,322.2627 194.8105,322.0267 C 194.1585,317.4877 193.9035,315.7847 193.3565,314.2847 C 193.1725,313.7777 193.0375,313.5837 192.7945,313.2187 C 193.4615,313.1977 194.1245,313.1527 194.7795,313.0547 C 195.4615,312.9527 196.1605,312.7937 196.8305,312.6137 C 196.4595,314.2507 196.7075,316.0897 197.1265,319.2417 L 197.8505,324.0887 z " /><path
       id="path39"
       d="M 175.4235,334.0337 L 175.2525,330.2077 L 173.8045,331.0357 L 173.7415,329.3037 L 175.1795,328.4767 L 174.9215,323.2167 L 173.4955,324.0177 L 173.4185,322.2467 L 174.8535,321.4327 L 174.6625,317.6987 L 175.4015,317.6657 L 175.5635,321.0257 L 179.2805,318.9447 L 179.0735,314.8097 L 179.7645,314.7667 L 179.9445,318.5657 L 181.4105,317.7507 L 181.4885,319.5087 L 180.0085,320.3517 L 180.2725,325.6107 L 181.7385,324.7817 L 181.8145,326.5267 L 180.3495,327.3557 L 180.5295,331.1427 L 179.8195,331.1737 L 179.6555,327.7617 L 175.9505,329.7907 L 176.1535,334.0287 L 175.4235,334.0337 z M 175.8715,328.0577 L 179.5895,325.9757 L 179.3295,320.7297 L 175.6395,322.7957 L 175.8715,328.0577 z " /><path
       id="path41"
       d="M 160.3735,329.2167 C 159.0625,331.7707 158.8885,332.5297 158.6485,333.4727 C 158.2545,333.3977 157.8875,333.3247 157.4905,333.3017 C 157.0945,333.2797 156.6945,333.3097 156.2945,333.3407 C 157.5025,331.6837 157.7105,331.2967 158.8405,329.1297 L 163.8835,319.1687 L 164.6915,317.5407 C 165.4695,315.9657 165.5695,315.5997 165.6375,314.8597 C 166.0335,314.9087 166.4525,314.9847 166.8505,315.0067 C 167.2465,315.0287 167.6465,314.9987 168.0725,314.9957 C 166.9915,316.2887 165.9825,318.1697 165.4195,319.2257 L 160.3735,329.2167 z " /><path
       id="path43"
       d="M 143.0675,331.6397 C 140.3195,331.1997 138.8455,330.3467 137.8655,329.7607 C 138.7755,328.4307 138.9175,328.0507 139.2185,326.8377 C 139.4965,327.4457 139.7395,327.9407 140.4725,328.5667 C 141.4675,329.3967 142.6075,329.8207 143.4445,329.9547 C 148.1025,330.6977 150.8895,327.3597 151.5085,323.4867 C 151.9815,320.5297 151.4045,318.4247 150.5325,317.1587 C 149.6225,315.8057 147.9245,314.6767 146.0135,314.3707 C 145.1505,314.2327 144.2865,314.2567 143.4125,314.3577 C 143.2235,315.3737 143.1035,315.9457 142.9505,316.9137 C 142.4985,319.7397 142.5825,319.8877 143.1235,320.6987 C 142.4825,320.5157 141.8135,320.3287 141.1335,320.2197 C 140.4275,320.1067 139.6825,320.0697 138.9375,320.0307 C 139.5085,319.4777 139.6605,319.2067 139.8455,318.3787 C 140.0235,317.6017 140.1545,316.9507 140.3665,315.6167 C 140.6175,314.0467 140.5885,313.5577 140.5085,312.5527 C 141.1215,312.5717 141.5445,312.6117 142.9735,312.5727 C 144.3755,312.5277 146.3325,312.7057 147.1705,312.8407 C 152.4565,313.6847 155.5825,317.8077 154.6495,323.6437 C 153.8135,328.8737 150.1325,332.7677 143.0675,331.6397 z " /><path
       id="path45"
       d="M 130.6595,325.8427 L 133.4015,316.1107 C 131.7535,317.3577 130.3755,317.8277 129.2665,317.5187 C 128.5755,317.3277 128.0825,316.9347 127.7885,316.3437 C 127.4955,315.7517 127.4565,315.0697 127.6705,314.2957 C 128.0245,313.0247 128.8775,312.0437 130.2315,311.3547 C 131.5855,310.6657 133.1535,310.4117 134.9335,310.5917 L 135.5375,310.6517 L 131.2935,325.9927 L 130.6595,325.8427 z M 134.7085,311.3347 L 134.2655,311.3327 C 133.0185,311.3077 131.9555,311.5517 131.0775,312.0637 C 130.2015,312.5767 129.6375,313.2857 129.3855,314.1897 C 129.2345,314.7387 129.2405,315.2367 129.4075,315.6857 C 129.5735,316.1327 129.8575,316.4137 130.2575,316.5247 C 131.0805,316.7537 132.2255,316.2297 133.6915,314.9557 L 134.7085,311.3347 z " /></g><path
     d="M 89.839908,310.21591 C 87.468908,308.76091 86.432908,307.40891 85.750908,306.49291 C 87.100908,305.61091 87.375908,305.31391 88.116908,304.30791 C 88.141908,304.97591 88.178908,305.52591 88.614908,306.38491 C 89.216908,307.53091 90.108908,308.35991 90.830908,308.80291 C 94.851908,311.27091 98.702908,309.25091 100.75491,305.90791 C 102.32091,303.35591 102.59391,301.19091 102.27291,299.68691 C 101.94891,298.08891 100.81191,296.39591 99.162908,295.38291 C 98.417908,294.92491 97.611908,294.61791 96.764908,294.37791 C 96.201908,295.24391 95.872908,295.72791 95.360908,296.56391 C 93.863908,299.00191 93.884908,299.16991 94.075908,300.12691 C 93.552908,299.71191 93.006908,299.28391 92.419908,298.92391 C 91.809908,298.54891 91.136908,298.22991 90.462908,297.90791 C 91.200908,297.61591 91.443908,297.42291 91.933908,296.72691 C 92.393908,296.07791 92.763908,295.52691 93.470908,294.37491 C 94.302908,293.01991 94.460908,292.55791 94.770908,291.59791 C 95.332908,291.84791 95.707908,292.04791 97.042908,292.55691 C 98.354908,293.05191 100.09591,293.96491 100.81791,294.40891 C 105.38091,297.20991 106.69291,302.21391 103.60191,307.24991 C 100.82691,311.76791 95.937908,313.95891 89.839908,310.21591 z "
     id="path47" /><g
     id="g3398"
     transform="matrix(0.999443,-3.337411e-2,3.337411e-2,0.999443,-4.0985378,6.0127171)"><path
       id="path49"
       d="M 42.6865,271.7197 C 40.9375,269.5557 40.4115,267.9367 40.0765,266.8457 C 41.6415,266.4657 42.0015,266.2767 43.0365,265.5767 C 42.8375,266.2157 42.6865,266.7447 42.8115,267.7007 C 42.9955,268.9817 43.5595,270.0597 44.0925,270.7197 C 47.0585,274.3877 51.3635,273.7707 54.4135,271.3057 C 56.7425,269.4227 57.7215,267.4727 57.9205,265.9487 C 58.1495,264.3337 57.6425,262.3587 56.4255,260.8537 C 55.8765,260.1727 55.2195,259.6147 54.5005,259.1047 C 53.6815,259.7337 53.2105,260.0797 52.4475,260.6967 C 50.2205,262.4947 50.1855,262.6607 50.0455,263.6267 C 49.6905,263.0617 49.3195,262.4747 48.8865,261.9387 C 48.4375,261.3817 47.9085,260.8547 47.3795,260.3287 C 48.1745,260.2997 48.4685,260.1987 49.1605,259.7067 C 49.8105,259.2487 50.3445,258.8527 51.3955,258.0037 C 52.6305,257.0037 52.9355,256.6217 53.5475,255.8197 C 53.9925,256.2437 54.2795,256.5557 55.3685,257.4817 C 56.4405,258.3857 57.7765,259.8287 58.3095,260.4877 C 61.6745,264.6517 61.2415,269.8057 56.6445,273.5207 C 52.5255,276.8527 47.1845,277.2847 42.6865,271.7197 z " /><path
       id="path51"
       d="M 30.9415,254.8367 L 34.1945,252.8157 L 32.7555,251.9427 L 34.2375,251.0407 L 35.6715,251.9057 L 40.1285,249.0967 L 38.7285,248.2397 L 40.2355,247.3057 L 41.6575,248.1747 L 44.8225,246.1827 L 45.2075,246.8047 L 42.3545,248.5877 L 45.9815,250.8037 L 49.4865,248.6007 L 49.8665,249.1867 L 46.6395,251.2027 L 48.0705,252.0857 L 46.5745,253.0137 L 45.1135,252.1297 L 40.6505,254.9287 L 42.0955,255.8087 L 40.6105,256.7297 L 39.1695,255.8537 L 35.9535,257.8617 L 35.5745,257.2517 L 38.4705,255.4407 L 34.8965,253.2117 L 31.2985,255.4627 L 30.9415,254.8367 z M 36.3705,252.2967 L 39.9975,254.5127 L 44.4515,251.7277 L 40.8475,249.5227 L 36.3705,252.2967 z " /><path
       id="path53"
       d="M 27.7905,239.3507 C 24.9215,239.4557 24.1735,239.6737 23.2345,239.9267 C 23.1075,239.5457 22.9915,239.1897 22.8175,238.8327 C 22.6435,238.4757 22.4215,238.1417 22.1985,237.8077 C 24.2345,238.0517 24.6735,238.0427 27.1145,237.9697 L 38.2705,237.5007 L 40.0865,237.4097 C 41.8405,237.3187 42.2085,237.2267 42.8865,236.9257 C 43.0375,237.2937 43.1765,237.6987 43.3515,238.0557 C 43.5255,238.4127 43.7475,238.7467 43.9575,239.1167 C 42.3015,238.8057 40.1675,238.8457 38.9695,238.8707 L 27.7905,239.3507 z " /><path
       id="path55"
       d="M 23.3325,229.2977 C 20.6175,229.3697 19.9175,229.4597 18.9405,229.6517 C 18.7585,228.9287 18.5755,228.2057 18.3185,227.5087 C 18.0695,226.8377 17.7375,226.1687 17.4235,225.5507 C 19.2395,224.4267 20.0185,223.8567 22.1095,222.1787 L 28.0175,217.4497 C 28.8325,216.7527 30.1635,215.6937 30.9805,214.9977 C 32.4505,213.7747 32.6465,213.3907 32.8975,212.8467 C 33.0455,213.5547 33.2285,214.2797 33.4775,214.9497 C 33.7255,215.6217 34.0395,216.2387 34.3775,216.8477 C 34.1935,216.8877 33.9515,216.9207 33.7285,217.0037 C 33.2565,217.1787 32.5195,217.7047 31.6755,218.3277 L 29.5155,219.9737 C 29.8125,221.0787 30.1585,222.1667 30.5535,223.2357 C 30.9765,224.3787 31.4745,225.4947 31.9815,226.6347 L 34.3235,226.4747 C 36.7565,226.2527 36.9485,226.2377 37.2975,226.1087 C 37.4465,226.0537 37.5205,226.0267 37.7605,225.9097 C 37.8975,226.5097 38.0345,227.1087 38.2555,227.7047 C 38.4665,228.2767 38.7615,228.8457 39.0475,229.3897 C 37.1235,228.9997 36.4855,228.9537 32.6135,229.0297 L 23.3325,229.2977 z M 23.8875,224.2327 C 22.5765,225.1977 22.0445,225.5917 20.5935,226.5527 C 20.2735,226.7557 19.9775,226.9497 19.6825,227.1447 L 29.6885,226.7757 C 29.4085,225.8637 29.1175,224.9247 28.7775,224.0057 C 28.4465,223.1097 28.0565,222.2087 27.6745,221.3327 L 23.8875,224.2327 z " /><path
       id="path57"
       d="M 16.3625,212.3947 L 26.1925,209.9767 C 24.2915,209.1627 23.2005,208.1987 22.9225,207.0847 C 22.7475,206.3897 22.8465,205.7697 23.2175,205.2227 C 23.5885,204.6757 24.1645,204.3057 24.9445,204.1107 C 26.2275,203.7917 27.5035,204.0487 28.7715,204.8827 C 30.0405,205.7167 31.0345,206.9527 31.7545,208.5877 L 31.9995,209.1397 L 16.5465,213.0187 L 16.3625,212.3947 z M 30.9975,208.7597 L 30.7805,208.3727 C 30.1855,207.2757 29.4485,206.4717 28.5675,205.9617 C 27.6885,205.4517 26.7915,205.3117 25.8785,205.5397 C 25.3245,205.6777 24.8935,205.9307 24.5835,206.2977 C 24.2745,206.6637 24.1715,207.0477 24.2715,207.4497 C 24.4775,208.2787 25.5005,209.0167 27.3355,209.6607 L 30.9975,208.7597 z " /></g><path
     d="M 14.35382,173.51568 C 11.80482,172.57968 11.11982,172.40368 10.14382,172.22168 C 10.24082,171.48168 10.33782,170.74168 10.35682,169.99968 C 10.37482,169.28368 10.31182,168.53968 10.24982,167.85068 C 12.35382,167.47568 13.28582,167.23468 15.84982,166.44868 L 23.08782,164.23768 C 24.10382,163.88968 25.73282,163.39968 26.74682,163.05268 C 28.56282,162.46068 28.88982,162.17668 29.32382,161.76268 C 29.19982,162.47668 29.10182,163.21568 29.08582,163.93068 C 29.06782,164.64568 29.13082,165.33668 29.22082,166.02868 C 29.03482,165.99768 28.79782,165.93868 28.56082,165.93268 C 28.05682,165.92068 27.17682,166.13768 26.16482,166.40568 L 23.54882,167.13768 C 23.41482,168.27368 23.33482,169.41168 23.30682,170.55168 C 23.27782,171.76968 23.32782,172.99068 23.37682,174.23768 L 25.61382,174.95468 C 27.95582,175.64768 28.13982,175.70468 28.50982,175.71368 C 28.66882,175.71768 28.74682,175.72068 29.01282,175.69868 C 28.91882,176.30668 28.82482,176.91368 28.81082,177.55068 C 28.79482,178.15868 28.85982,178.79768 28.92382,179.40768 C 27.27982,178.33568 26.70282,178.05568 23.07782,176.69568 L 14.35382,173.51568 z M 16.74182,169.01368 C 15.16882,169.42668 14.52782,169.59668 12.82382,169.95268 C 12.44982,170.02368 12.10382,170.09468 11.75782,170.16668 L 21.19382,173.52168 C 21.26882,172.56868 21.34582,171.58968 21.36982,170.60968 C 21.39182,169.65668 21.36382,168.67368 21.33482,167.71968 L 16.74182,169.01368 z "
     id="path59" /><g
     id="g3405"
     transform="matrix(0.9996285,-2.7254577e-2,2.7254577e-2,0.9996285,-3.5983262,5.9955225)"><path
       id="path61"
       d="M 21.4205,117.8067 C 19.3275,116.0747 18.7405,115.6817 17.8815,115.1837 C 18.2195,114.5197 18.5585,113.8537 18.8215,113.1597 C 19.0755,112.4917 19.2655,111.7707 19.4365,111.0977 C 21.5425,111.4467 22.5035,111.5287 25.1825,111.6407 L 32.7445,111.9667 C 33.8165,111.9777 35.5155,112.0567 36.5895,112.0687 C 38.5005,112.1157 38.9015,111.9557 39.4475,111.7107 C 39.0935,112.3427 38.7565,113.0067 38.5025,113.6757 C 38.2475,114.3437 38.0755,115.0157 37.9315,115.6977 C 37.7665,115.6077 37.5635,115.4727 37.3395,115.3877 C 36.8685,115.2087 35.9675,115.1197 34.9225,115.0347 L 32.2125,114.8537 C 31.7075,115.8807 31.2535,116.9267 30.8485,117.9917 C 30.4145,119.1307 30.0555,120.2987 29.6875,121.4907 L 31.5565,122.9107 C 33.5345,124.3437 33.6885,124.4597 34.0355,124.5917 C 34.1845,124.6487 34.2595,124.6767 34.5155,124.7457 C 34.2245,125.2867 33.9335,125.8287 33.7065,126.4227 C 33.4905,126.9917 33.3375,127.6147 33.1955,128.2137 C 32.0025,126.6537 31.5515,126.1977 28.5875,123.7097 L 21.4205,117.8067 z M 25.1705,114.3567 C 23.5505,114.2217 22.8895,114.1687 21.1625,113.9367 C 20.7875,113.8797 20.4375,113.8307 20.0865,113.7827 L 27.8665,120.0887 C 28.2555,119.2157 28.6535,118.3177 29.0025,117.4017 C 29.3415,116.5097 29.6405,115.5747 29.9315,114.6647 L 25.1705,114.3567 z " /><path
       id="path63"
       d="M 27.7475,92.801699 L 31.1395,94.584699 L 31.1625,92.903699 L 32.6895,93.724699 L 32.6695,95.399699 L 37.3465,97.826699 L 37.3775,96.184699 L 38.9455,97.011699 L 38.9175,98.674699 L 42.2365,100.3977 L 41.8925,101.0477 L 38.9125,99.488699 L 38.8265,103.7527 L 42.5035,105.6637 L 42.1905,106.2847 L 38.8195,104.5197 L 38.7815,106.2007 L 37.2245,105.3797 L 37.2485,103.6687 L 32.5745,101.2377 L 32.5425,102.9307 L 30.9985,102.1157 L 31.0245,100.4277 L 27.6665,98.669699 L 28.0025,98.030699 L 31.0305,99.613699 L 31.1525,95.390699 L 27.3955,93.408699 L 27.7475,92.801699 z M 32.6845,96.201699 L 32.6005,100.4667 L 37.2605,102.8977 L 37.3445,98.662699 L 32.6845,96.201699 z " /><path
       id="path65"
       d="M 39.4975,82.270699 C 37.9525,79.850699 37.3845,79.315699 36.6905,78.634699 C 36.9545,78.333699 37.2025,78.052699 37.4225,77.720699 C 37.6415,77.389699 37.8165,77.029699 37.9915,76.667699 C 38.8135,78.545699 39.0435,78.920699 40.3435,80.988699 L 46.4045,90.367699 L 47.4015,91.886699 C 48.3705,93.352699 48.6355,93.623699 49.2395,94.054699 C 48.9985,94.371699 48.7195,94.695699 48.5005,95.026699 C 48.2815,95.358699 48.1065,95.718699 47.8955,96.087699 C 47.3245,94.502699 46.2075,92.683699 45.5805,91.664699 L 39.4975,82.270699 z " /><path
       id="path67"
       d="M 47.3955,77.385699 C 43.8875,74.516699 42.4525,73.342699 40.7825,72.830699 C 41.2785,72.348699 41.6565,71.971699 42.2105,71.294699 C 43.0655,70.247699 43.7795,69.290699 45.3325,67.309699 C 46.1505,66.266699 47.2785,64.930699 49.2695,64.674699 C 50.7785,64.504699 51.8455,65.207699 52.4605,65.710699 C 53.1785,66.298699 53.8235,67.099699 53.9955,68.438699 C 54.1835,70.133699 53.4215,71.358699 52.7055,72.483699 C 53.6265,71.525699 55.1085,69.964699 57.0835,69.936699 C 58.3665,69.958699 59.3395,70.651699 59.7715,71.004699 C 61.0835,72.078699 63.4345,75.064699 59.9785,79.288699 C 58.8705,80.642699 58.2865,81.189699 57.1775,82.544699 C 56.7245,83.098699 56.2415,83.730699 55.3975,84.888699 C 55.2815,84.109699 53.3035,82.216699 50.2675,79.733699 L 47.3955,77.385699 z M 49.1235,75.272699 C 49.9815,74.434699 50.6195,73.654699 50.9045,73.306699 C 51.2565,72.875699 51.8185,71.897699 51.9835,71.108699 C 52.2925,69.476699 51.3155,68.576699 50.7625,68.123699 C 48.7935,66.512699 47.2245,67.592699 45.8155,69.314699 C 45.2955,69.950699 44.9135,70.460699 44.3535,71.268699 C 44.9595,71.867699 45.9035,72.639699 46.9695,73.512699 L 49.1235,75.272699 z M 54.6215,79.770699 C 55.5855,80.559699 55.9945,80.894699 57.0625,80.090699 C 57.3425,79.873699 57.7495,79.419699 58.0005,79.111699 C 59.6615,77.081699 59.7195,74.834699 57.9555,73.391699 C 55.2675,71.193699 53.2535,73.447699 52.2965,74.617699 C 51.9935,74.986699 51.5445,75.577699 50.7435,76.599699 L 54.6215,79.770699 z " /><path
       id="path69"
       d="M 56.4755,59.193699 L 63.5705,66.397699 C 63.3035,64.351699 63.5795,62.923699 64.3935,62.115699 C 64.9015,61.610699 65.4855,61.377699 66.1455,61.415699 C 66.8035,61.455699 67.4165,61.758699 67.9805,62.327699 C 68.9105,63.264699 69.3395,64.489699 69.2705,66.005699 C 69.1995,67.520699 68.6465,69.005699 67.6105,70.458699 L 67.2605,70.951699 L 56.0405,59.662699 L 56.4755,59.193699 z M 67.0725,69.897699 L 67.2935,69.513699 C 67.9335,68.443699 68.2475,67.400699 68.2365,66.384699 C 68.2255,65.369699 67.8885,64.529699 67.2285,63.863699 C 66.8285,63.459699 66.3905,63.218699 65.9185,63.141699 C 65.4455,63.064699 65.0645,63.170699 64.7705,63.462699 C 64.1635,64.063699 64.0505,65.317699 64.4325,67.219699 L 67.0725,69.897699 z " /></g><path
     d="M 91.006303,40.319021 C 88.822977,36.346837 87.930588,34.721432 86.571629,33.622701 C 87.213588,33.361175 87.702945,33.152685 88.46984,32.731828 C 89.65534,32.080479 90.674555,31.459085 92.855192,30.200097 C 94.002929,29.539422 95.549335,28.719862 97.490419,29.225495 C 98.953119,29.631044 99.682109,30.682656 100.06391,31.380165 C 100.51106,32.192297 100.8102,33.177445 100.4696,34.483111 C 100.01179,36.126012 98.846629,36.977419 97.761329,37.75393 C 98.974489,37.208876 100.93269,36.315713 102.77414,37.025986 C 103.95686,37.525776 104.60041,38.532376 104.86789,39.019513 C 105.68416,40.506001 106.75049,44.154149 101.9671,46.783563 C 100.43331,47.625278 99.687049,47.914325 98.154319,48.756966 C 97.527339,49.101634 96.842589,49.507586 95.626686,50.266381 C 95.810503,49.501296 94.681411,47.006578 92.794074,43.569618 L 91.006303,40.319021 z M 93.397464,39.003851 C 94.506624,38.546451 95.389213,38.061164 95.783738,37.844428 C 96.271873,37.576875 97.158199,36.877775 97.606499,36.20804 C 98.500889,34.809578 97.933749,33.610027 97.588089,32.983117 C 96.363646,30.752887 94.505669,31.169674 92.555268,32.241738 C 91.834678,32.637223 91.29084,32.966913 90.469392,33.507975 C 90.807107,34.289848 91.394953,35.358586 92.058916,36.566242 L 93.397464,39.003851 z M 96.817848,45.228421 C 97.418309,46.319315 97.673179,46.784296 98.963749,46.438221 C 99.305789,46.342544 99.851779,46.070848 100.20007,45.880482 C 102.49862,44.616057 103.3916,42.554 102.29409,40.556296 C 100.62356,37.514858 97.911229,38.85303 96.586804,39.580497 C 96.169197,39.810917 95.531678,40.190427 94.40517,40.839556 L 96.817848,45.228421 z "
     id="path71" /><circle
     style="fill:none;stroke:#006b33;stroke-width:2;stroke-miterlimit:4;stroke-dasharray:none;opacity:1"
     sodipodi:ry="134.99899"
     sodipodi:rx="134.99899"
     sodipodi:cy="171.00101"
     sodipodi:cx="171"
     id="circle73"
     r="134.99899"
     cy="171.00101"
     cx="171"
     transform="translate(0,-1.0070801e-3)" /></g></svg>