<?xml version="1.0" encoding="UTF-8" standalone="no"?>
<!-- Created with Inkscape (http://www.inkscape.org/) -->

<svg
   width="208.46249mm"
   height="232.22339mm"
   viewBox="0 0 208.46249 232.22339"
   version="1.1"
   id="svg5"
   inkscape:export-filename="C:\Users\mukai\Desktop\InkscapePortable\Data\settings\bitmap.png"
   inkscape:export-xdpi="96"
   inkscape:export-ydpi="96"
   inkscape:version="1.1.1 (3bf5ae0d25, 2021-09-20)"
   sodipodi:docname="logo.svg"
   xmlns:inkscape="http://www.inkscape.org/namespaces/inkscape"
   xmlns:sodipodi="http://sodipodi.sourceforge.net/DTD/sodipodi-0.dtd"
   xmlns="http://www.w3.org/2000/svg"
   xmlns:svg="http://www.w3.org/2000/svg">
  <sodipodi:namedview
     id="namedview7"
     pagecolor="#ffffff"
     bordercolor="#666666"
     borderopacity="1.0"
     inkscape:pageshadow="2"
     inkscape:pageopacity="0.0"
     inkscape:pagecheckerboard="0"
     inkscape:document-units="mm"
     showgrid="false"
     inkscape:zoom="1.1325123"
     inkscape:cx="342.15964"
     inkscape:cy="626.48327"
     inkscape:window-width="1366"
     inkscape:window-height="705"
     inkscape:window-x="-8"
     inkscape:window-y="-8"
     inkscape:window-maximized="1"
     inkscape:current-layer="layer1" />
  <defs
     id="defs2" />
  <g
     inkscape:label="Layer 1"
     inkscape:groupmode="layer"
     id="layer1"
     transform="translate(-0.76875356,-32.388309)">
    <g
       id="g34713"
       transform="translate(1.024597e-5)">
      <path
         style="mix-blend-mode:difference;fill:none;fill-opacity:1;stroke:#000000;stroke-width:0.5;stroke-miterlimit:4;stroke-dasharray:none;stroke-opacity:1"
         d="m 104.83172,242.25184 0.1231,-0.11309 17.01294,-20.66832 7.21912,9.28894 17.36627,-31.35016 6.76477,5.1493 7.97636,-29.88614 14.18582,3.23093 -11.76262,-30.13855 11.70706,0.39249 c -24.55959,-31.33657 -51.1734,-64.448282 -70.2509,-65.168339 -0.0579,-0.0022 -0.12069,-0.0057 -0.17337,-0.0057"
         id="path397"
         sodipodi:nodetypes="ccccccccccsc" />
      <path
         style="mix-blend-mode:difference;fill:none;fill-opacity:1;stroke:#000000;stroke-width:0.5;stroke-miterlimit:4;stroke-dasharray:none;stroke-opacity:1"
         d="m 130.92855,95.110622 4.31633,4.366807 c 5.54681,-6.123892 10.89509,-12.164416 16.43233,-17.164335 1.22734,10.781668 1.65973,21.736096 1.74899,36.629696 l 6.13991,6.85384 c 5.78913,-18.43613 2.71464,-37.352076 -1e-5,-55.973072 -12.69285,4.149541 -22.22531,12.953695 -28.63755,25.287064 z"
         id="path945"
         sodipodi:nodetypes="ccccccc" />
      <path
         style="mix-blend-mode:difference;fill:none;fill-opacity:1;stroke:#000000;stroke-width:0.5;stroke-miterlimit:4;stroke-dasharray:none;stroke-opacity:1"
         d="m 104.83393,134.97316 0.13205,-0.12354 19.9803,-23.0795 16.10418,22.76799 c -16.05453,-2.51254 -25.95149,0.2721 -36.11751,2.86293"
         id="path2936"
         sodipodi:nodetypes="ccccc" />
      <path
         style="fill:none;fill-opacity:1;stroke:#000000;stroke-width:0.5;stroke-linecap:butt;stroke-linejoin:miter;stroke-miterlimit:4;stroke-dasharray:none;stroke-opacity:1"
         d="m 133.65,139.14736 -8.78149,2.92716 -2.85577,9.20985 8.85288,-3.56971 z"
         id="path5215" />
      <path
         style="fill:none;fill-opacity:1;stroke:#000000;stroke-width:0.5;stroke-linecap:butt;stroke-linejoin:miter;stroke-miterlimit:4;stroke-dasharray:none;stroke-opacity:1"
         d="m 112.30312,140.57523 c 0.24558,-4.51907 29.26891,-7.25279 29.62861,-0.21417 0.47746,16.82166 -5.94506,18.77605 -13.35073,18.70528 -12.6741,0.29167 -15.68407,-8.02378 -16.27788,-18.49111 z"
         id="path5509"
         sodipodi:nodetypes="cccc" />
      <path
         style="fill:none;fill-opacity:1;stroke:#000000;stroke-width:0.5;stroke-linecap:butt;stroke-linejoin:miter;stroke-miterlimit:4;stroke-dasharray:none;stroke-opacity:1"
         d="m 104.94783,142.17807 2.21491,0.4676 c 4.38962,9.6211 5.79798,19.37313 21.13269,19.20505 10.29686,-0.004 16.25141,-2.78045 17.20602,-18.91947 l 6.56826,12.24411 -10.59592,23.68018 -17.43318,-5.11589 -8.16777,28.44881 -10.97347,4.79803"
         id="path7277"
         sodipodi:nodetypes="ccccccccc" />
      <path
         style="fill:none;fill-opacity:1;stroke:#000000;stroke-width:0.5;stroke-linecap:butt;stroke-linejoin:miter;stroke-miterlimit:4;stroke-dasharray:none;stroke-opacity:1"
         d="m 104.98887,199.18887 c 1.51024,-0.0745 3.9373,-3.13652 4.49419,-3.71147 0.99595,-0.38455 2.57098,1.27144 3.10565,0.39267 l 2.356,-6.1399 c 0.39578,-1.06553 -3.53931,-2.40847 -9.98168,-3.25257"
         id="path8168"
         sodipodi:nodetypes="ccccc" />
      <path
         style="fill:none;fill-opacity:1;stroke:#000000;stroke-width:0.5;stroke-linecap:butt;stroke-linejoin:miter;stroke-miterlimit:4;stroke-dasharray:none;stroke-opacity:1"
         d="m 104.84411,233.574 0.0928,-0.074 21.64514,-33.38196 2.57019,19.7762 14.13606,-28.05793 8.42452,4.21225 -10.20938,-12.92235 -9.20986,20.20456 -2.4988,-21.41827 -8.71009,21.41828 -15.91597,16.5615 -0.34774,0.34531"
         id="path12995"
         sodipodi:nodetypes="cccccccccccc" />
      <path
         style="mix-blend-mode:difference;fill:none;fill-opacity:1;stroke:#000000;stroke-width:0.5;stroke-miterlimit:4;stroke-dasharray:none;stroke-opacity:1"
         d="m 105.16828,242.24978 -0.12851,-0.11388 -17.00755,-20.66549 -7.21912,9.28894 -17.36627,-31.35016 -6.76477,5.1493 -7.97636,-29.88614 -14.18582,3.23093 11.76262,-30.13855 -11.70706,0.39249 c 24.541239,-31.3131 51.134131,-64.398716 70.20863,-65.166649 0.0722,-0.0029 0.14933,-0.0073 0.2162,-0.0073"
         id="path397-4"
         sodipodi:nodetypes="ccccccccccsc" />
      <path
         style="mix-blend-mode:difference;fill:none;fill-opacity:1;stroke:#000000;stroke-width:0.5;stroke-miterlimit:4;stroke-dasharray:none;stroke-opacity:1"
         d="m 79.07145,95.110615 -4.31633,4.36681 C 69.20831,93.353535 63.86003,87.313005 58.32279,82.313085 57.09545,93.094755 56.66306,104.04918 56.5738,118.94279 l -6.13991,6.85384 c -5.78913,-18.43613 -2.71464,-37.352085 1e-5,-55.973075 12.69285,4.14954 22.22531,12.95369 28.63755,25.28706 z"
         id="path945-6"
         sodipodi:nodetypes="ccccccc" />
      <path
         style="mix-blend-mode:difference;fill:none;fill-opacity:1;stroke:#000000;stroke-width:0.5;stroke-miterlimit:4;stroke-dasharray:none;stroke-opacity:1"
         d="m 105.16899,134.97608 -0.11615,-0.10472 C 98.14063,127.02344 91.720094,119.47053 85.05372,111.77012 l -16.10418,22.76799 c 16.05453,-2.51254 25.95149,0.2721 36.11751,2.86293"
         id="path2936-8"
         sodipodi:nodetypes="ccccc" />
      <path
         style="fill:none;fill-opacity:1;stroke:#000000;stroke-width:0.5;stroke-linecap:butt;stroke-linejoin:miter;stroke-miterlimit:4;stroke-dasharray:none;stroke-opacity:1"
         d="m 76.35,139.14736 8.78149,2.92716 2.85577,9.20985 -8.85288,-3.56971 z"
         id="path5215-9" />
      <path
         style="fill:none;fill-opacity:1;stroke:#000000;stroke-width:0.5;stroke-linecap:butt;stroke-linejoin:miter;stroke-miterlimit:4;stroke-dasharray:none;stroke-opacity:1"
         d="m 97.69688,140.57523 c -0.24558,-4.51907 -29.26891,-7.25279 -29.62861,-0.21417 -0.47746,16.82166 5.94506,18.77605 13.35073,18.70528 12.6741,0.29167 15.68407,-8.02378 16.27788,-18.49111 z"
         id="path5509-8"
         sodipodi:nodetypes="cccc" />
      <path
         style="fill:none;fill-opacity:1;stroke:#000000;stroke-width:0.5;stroke-linecap:butt;stroke-linejoin:miter;stroke-miterlimit:4;stroke-dasharray:none;stroke-opacity:1"
         d="m 105.05217,142.17807 -2.21491,0.4676 c -4.38962,9.6211 -5.79798,19.37313 -21.13269,19.20505 -10.29686,-0.004 -16.25141,-2.78045 -17.20602,-18.91947 l -6.56826,12.24411 10.59592,23.68018 17.43318,-5.11589 8.16777,28.44881 10.97347,4.79803"
         id="path7277-8"
         sodipodi:nodetypes="ccccccccc" />
      <path
         style="fill:none;fill-opacity:1;stroke:#000000;stroke-width:0.5;stroke-linecap:butt;stroke-linejoin:miter;stroke-miterlimit:4;stroke-dasharray:none;stroke-opacity:1"
         d="m 105.01113,199.18887 c -1.51024,-0.0745 -3.9373,-3.13652 -4.49419,-3.71147 -0.99595,-0.38455 -2.57098,1.27144 -3.10565,0.39267 l -2.356,-6.1399 c -0.39578,-1.06553 3.53931,-2.40847 9.98168,-3.25257"
         id="path8168-3"
         sodipodi:nodetypes="ccccc" />
      <path
         style="fill:none;fill-opacity:1;stroke:#000000;stroke-width:0.5;stroke-linecap:butt;stroke-linejoin:miter;stroke-miterlimit:4;stroke-dasharray:none;stroke-opacity:1"
         d="m 105.15949,233.5745 -0.0991,-0.0788 -21.64236,-33.37766 -2.57019,19.7762 -14.13606,-28.05793 -8.42452,4.21225 10.20938,-12.92235 9.20986,20.20456 2.4988,-21.41827 8.71009,21.41828 15.91916,16.56483 0.34042,0.33165"
         id="path12995-1"
         sodipodi:nodetypes="cccccccccccc" />
    </g>
    <circle
       style="fill:#000000;fill-opacity:0;stroke:#000000;stroke-width:0.499999;stroke-miterlimit:4;stroke-dasharray:none;stroke-opacity:1"
       id="path34743"
       cx="105"
       cy="148.5"
       r="103.98125" />
  </g>
</svg>
