  0
SECTION
  2
HEADER
  9
$ACADVER
  1
AC1006
  9
$EXTMIN
 10
0.000000
 20
0.000000
 30
0.000000
  9
$EXTMAX
 10
788.000000
 20
788.000000
 30
0.000000
  0
ENDSEC
  0
SECTION
  2
ENTITIES
  0
POLYLINE
  8
0
 66
1
 70
1
  0
VERTEX
  8
0
 10
370.000000
 20
787.377615
 42
0.026404
  0
VERTEX
  8
0
 10
325.511154
 20
781.798639
 42
0.027271
  0
VERTEX
  8
0
 10
282.344243
 20
771.596919
 42
0.027498
  0
VERTEX
  8
0
 10
240.885244
 20
756.857431
 42
0.027898
  0
VERTEX
  8
0
 10
201.500000
 20
737.718067
 42
0.021936
  0
VERTEX
  8
0
 10
176.339012
 20
722.222632
 42
0.017681
  0
VERTEX
  8
0
 10
150.699688
 20
703.480750
 42
0.017733
  0
VERTEX
  8
0
 10
126.544532
 20
683.050814
 42
0.022584
  0
VERTEX
  8
0
 10
105.856205
 20
662.475400
 42
0.037632
  0
VERTEX
  8
0
 10
66.286157
 20
612.297243
 42
0.040972
  0
VERTEX
  8
0
 10
35.932951
 20
558.111722
 42
0.040778
  0
VERTEX
  8
0
 10
14.710702
 20
499.465713
 42
0.036614
  0
VERTEX
  8
0
 10
2.340156
 20
436.000000
 42
0.021026
  0
VERTEX
  8
0
 10
0.958931
 20
418.158085
 42
0.008777
  0
VERTEX
  8
0
 10
0.532690
 20
394.025837
 42
0.008780
  0
VERTEX
  8
0
 10
0.954029
 20
369.883496
 42
0.020923
  0
VERTEX
  8
0
 10
2.331083
 20
352.000000
 42
0.046273
  0
VERTEX
  8
0
 10
18.959428
 20
274.430494
 42
0.049998
  0
VERTEX
  8
0
 10
49.313071
 20
203.344811
 42
0.050323
  0
VERTEX
  8
0
 10
92.963569
 20
140.090492
 42
0.048021
  0
VERTEX
  8
0
 10
149.000000
 20
85.728599
 42
0.035266
  0
VERTEX
  8
0
 10
194.024993
 20
54.676162
 42
0.035465
  0
VERTEX
  8
0
 10
242.884877
 20
30.324995
 42
0.035000
  0
VERTEX
  8
0
 10
295.318664
 20
12.862486
 42
0.032480
  0
VERTEX
  8
0
 10
351.000000
 20
2.351294
 42
0.021660
  0
VERTEX
  8
0
 10
369.155189
 20
0.926298
 42
0.008754
  0
VERTEX
  8
0
 10
394.000000
 20
0.491267
 42
0.008754
  0
VERTEX
  8
0
 10
418.844811
 20
0.926298
 42
0.021660
  0
VERTEX
  8
0
 10
437.000000
 20
2.351294
 42
0.026434
  0
VERTEX
  8
0
 10
484.440081
 20
10.714540
 42
0.030194
  0
VERTEX
  8
0
 10
528.621915
 20
23.789501
 42
0.030525
  0
VERTEX
  8
0
 10
570.487967
 20
41.942206
 42
0.028196
  0
VERTEX
  8
0
 10
611.000000
 20
65.490578
 42
0.050551
  0
VERTEX
  8
0
 10
672.508455
 20
115.630840
 42
0.050622
  0
VERTEX
  8
0
 10
722.672475
 20
177.071849
 42
0.050617
  0
VERTEX
  8
0
 10
759.471042
 20
247.344658
 42
0.050525
  0
VERTEX
  8
0
 10
781.427390
 20
323.620634
 42
0.009046
  0
VERTEX
  8
0
 10
784.393542
 20
341.859047
 42
0.014625
  0
VERTEX
  8
0
 10
786.180036
 20
357.478525
 42
0.013908
  0
VERTEX
  8
0
 10
787.103925
 20
373.721097
 42
0.007252
  0
VERTEX
  8
0
 10
787.398054
 20
394.000000
 42
0.007023
  0
VERTEX
  8
0
 10
787.121420
 20
413.693371
 42
0.013099
  0
VERTEX
  8
0
 10
786.255780
 20
429.622736
 42
0.013968
  0
VERTEX
  8
0
 10
784.605408
 20
444.785191
 42
0.009391
  0
VERTEX
  8
0
 10
781.913165
 20
462.000000
 42
0.062319
  0
VERTEX
  8
0
 10
753.205748
 20
555.333928
 42
0.062035
  0
VERTEX
  8
0
 10
702.355442
 20
638.874895
 42
0.062077
  0
VERTEX
  8
0
 10
632.602885
 20
707.343440
 42
0.062557
  0
VERTEX
  8
0
 10
548.350766
 20
756.387769
 42
0.018500
  0
VERTEX
  8
0
 10
522.120454
 20
766.417470
 42
0.017594
  0
VERTEX
  8
0
 10
494.780843
 20
774.666413
 42
0.017412
  0
VERTEX
  8
0
 10
466.637602
 20
781.049352
 42
0.017194
  0
VERTEX
  8
0
 10
438.000000
 20
785.489550
 42
0.018524
  0
VERTEX
  8
0
 10
425.132666
 20
786.552160
 42
0.004398
  0
VERTEX
  8
0
 10
403.630819
 20
787.338511
 42
0.004270
  0
VERTEX
  8
0
 10
382.178869
 20
787.750858
 42
0.020662
  0
SEQEND
  0
POLYLINE
  8
0
 66
1
 70
1
  0
VERTEX
  8
0
 10
199.055794
 20
686.399199
 42
-0.042299
  0
VERTEX
  8
0
 10
225.182009
 20
673.111415
 42
-0.041602
  0
VERTEX
  8
0
 10
248.855102
 20
655.551643
 42
-0.040585
  0
VERTEX
  8
0
 10
269.805771
 20
633.872271
 42
-0.036412
  0
VERTEX
  8
0
 10
287.828713
 20
608.324867
 42
-0.002236
  0
VERTEX
  8
0
 10
290.194247
 20
604.352698
 42
-0.003296
  0
VERTEX
  8
0
 10
292.232703
 20
600.841980
 42
-0.001538
  0
VERTEX
  8
0
 10
293.938514
 20
597.837646
 42
-0.061963
  0
VERTEX
  8
0
 10
294.225044
 20
597.139693
 42
-0.248298
  0
VERTEX
  8
0
 10
293.922040
 20
595.790846
 42
-0.002890
  0
VERTEX
  8
0
 10
287.745604
 20
588.655734
 42
-0.003175
  0
VERTEX
  8
0
 10
281.519925
 20
581.637601
 42
-0.212832
  0
VERTEX
  8
0
 10
280.089880
 20
581.000000
 42
-0.203276
  0
VERTEX
  8
0
 10
279.576144
 20
581.217863
 42
-0.001184
  0
VERTEX
  8
0
 10
275.898513
 20
585.039062
 42
-0.004691
  0
VERTEX
  8
0
 10
271.724786
 20
589.478971
 42
-0.002936
  0
VERTEX
  8
0
 10
266.919075
 20
594.750000
 42
0.004031
  0
VERTEX
  8
0
 10
260.930137
 20
601.289994
 42
0.001835
  0
VERTEX
  8
0
 10
252.999979
 20
609.748438
 42
0.001816
  0
VERTEX
  8
0
 10
244.575563
 20
618.603578
 42
0.002496
  0
VERTEX
  8
0
 10
236.932415
 20
626.500000
 42
-0.004248
  0
VERTEX
  8
0
 10
225.685671
 20
638.201209
 42
-0.022888
  0
VERTEX
  8
0
 10
219.924209
 20
644.886215
 42
-0.023204
  0
VERTEX
  8
0
 10
214.831415
 20
652.032506
 42
-0.004444
  0
VERTEX
  8
0
 10
206.315065
 20
665.500000
 42
-0.000184
  0
VERTEX
  8
0
 10
196.479526
 20
681.377076
 42
-0.003877
  0
VERTEX
  8
0
 10
193.584448
 20
686.136398
 42
-0.006001
  0
VERTEX
  8
0
 10
192.093590
 20
688.699994
 42
-0.574401
  0
VERTEX
  8
0
 10
192.268575
 20
689.000000
 42
-0.090759
  0
VERTEX
  8
0
 10
192.553063
 20
688.947931
 42
-0.000972
  0
VERTEX
  8
0
 10
194.421797
 20
688.236015
 42
-0.003039
  0
VERTEX
  8
0
 10
196.574655
 20
687.396019
 42
-0.001967
  0
SEQEND
  0
POLYLINE
  8
0
 66
1
 70
1
  0
VERTEX
  8
0
 10
594.904866
 20
686.822240
 42
-0.012352
  0
VERTEX
  8
0
 10
594.042777
 20
685.302860
 42
-0.000438
  0
VERTEX
  8
0
 10
590.572088
 20
679.534852
 42
-0.000810
  0
VERTEX
  8
0
 10
586.453808
 20
672.729105
 42
-0.000567
  0
VERTEX
  8
0
 10
581.791645
 20
665.072240
 42
-0.005082
  0
VERTEX
  8
0
 10
573.905203
 20
652.443457
 42
-0.025301
  0
VERTEX
  8
0
 10
569.055384
 20
645.635477
 42
-0.023076
  0
VERTEX
  8
0
 10
563.362328
 20
639.088109
 42
-0.003763
  0
VERTEX
  8
0
 10
551.655233
 20
627.000000
 42
0.002605
  0
VERTEX
  8
0
 10
543.785401
 20
618.911598
 42
0.001933
  0
VERTEX
  8
0
 10
535.170678
 20
609.895313
 42
0.001953
  0
VERTEX
  8
0
 10
527.105421
 20
601.321681
 42
0.004409
  0
VERTEX
  8
0
 10
521.079170
 20
594.750000
 42
-0.002779
  0
VERTEX
  8
0
 10
516.277084
 20
589.478897
 42
-0.004451
  0
VERTEX
  8
0
 10
512.113229
 20
585.039062
 42
-0.001068
  0
VERTEX
  8
0
 10
508.439375
 20
581.207358
 42
-0.203827
  0
VERTEX
  8
0
 10
507.951846
 20
581.000000
 42
-0.196286
  0
VERTEX
  8
0
 10
507.480465
 20
581.192466
 42
-0.003026
  0
VERTEX
  8
0
 10
505.356540
 20
583.299218
 42
-0.007569
  0
VERTEX
  8
0
 10
502.913782
 20
585.827128
 42
-0.004874
  0
VERTEX
  8
0
 10
500.155845
 20
588.827124
 42
0.000000
  0
VERTEX
  8
0
 10
493.099798
 20
596.654248
 42
0.000000
  0
VERTEX
  8
0
 10
499.632939
 20
607.530978
 42
-0.031610
  0
VERTEX
  8
0
 10
515.679019
 20
630.780430
 42
-0.035945
  0
VERTEX
  8
0
 10
533.907902
 20
650.778225
 42
-0.036906
  0
VERTEX
  8
0
 10
554.349009
 20
667.512031
 42
-0.037101
  0
VERTEX
  8
0
 10
576.993435
 20
681.025922
 42
-0.011339
  0
VERTEX
  8
0
 10
581.538539
 20
683.172375
 42
-0.004856
  0
VERTEX
  8
0
 10
587.701323
 20
685.842252
 42
-0.002686
  0
VERTEX
  8
0
 10
593.850594
 20
688.396808
 42
-0.054709
  0
VERTEX
  8
0
 10
595.785184
 20
688.951122
 42
-0.572779
  0
VERTEX
  8
0
 10
595.847777
 20
688.876840
 42
-0.012997
  0
VERTEX
  8
0
 10
595.644229
 20
688.345925
 42
-0.016134
  0
VERTEX
  8
0
 10
595.331791
 20
687.654413
 42
-0.008692
  0
SEQEND
  0
POLYLINE
  8
0
 66
1
 70
1
  0
VERTEX
  8
0
 10
202.510197
 20
663.983645
 42
0.000000
  0
VERTEX
  8
0
 10
216.236176
 20
641.967289
 42
0.000000
  0
VERTEX
  8
0
 10
214.602655
 20
622.233645
 42
0.004314
  0
VERTEX
  8
0
 10
213.137821
 20
602.464470
 42
0.004262
  0
VERTEX
  8
0
 10
212.007629
 20
582.591696
 42
0.003837
  0
VERTEX
  8
0
 10
211.125997
 20
560.895559
 42
0.002413
  0
VERTEX
  8
0
 10
210.412656
 20
535.528702
 42
0.000000
  0
VERTEX
  8
0
 10
209.714550
 20
505.557404
 42
0.000000
  0
VERTEX
  8
0
 10
199.142872
 20
493.786127
 42
-0.005021
  0
VERTEX
  8
0
 10
194.138253
 20
488.324954
 42
-0.019045
  0
VERTEX
  8
0
 10
190.849728
 20
485.066105
 42
-0.024905
  0
VERTEX
  8
0
 10
188.612228
 20
483.208177
 42
-0.453719
  0
VERTEX
  8
0
 10
187.808062
 20
483.378491
 42
-0.064656
  0
VERTEX
  8
0
 10
186.704786
 20
486.132161
 42
-0.003349
  0
VERTEX
  8
0
 10
184.378911
 20
495.425278
 42
-0.005945
  0
VERTEX
  8
0
 10
182.152884
 20
505.077801
 42
-0.010898
  0
VERTEX
  8
0
 10
180.604894
 20
513.000000
 42
-0.011375
  0
VERTEX
  8
0
 10
178.649097
 20
526.080324
 42
-0.013735
  0
VERTEX
  8
0
 10
177.431483
 20
538.439244
 42
-0.011982
  0
VERTEX
  8
0
 10
176.790410
 20
552.135444
 42
-0.005970
  0
VERTEX
  8
0
 10
176.601663
 20
569.500000
 42
-0.008157
  0
VERTEX
  8
0
 10
176.956715
 20
589.919988
 42
-0.011609
  0
VERTEX
  8
0
 10
177.989003
 20
608.037039
 42
-0.009748
  0
VERTEX
  8
0
 10
180.013055
 20
628.285358
 42
-0.003871
  0
VERTEX
  8
0
 10
183.548159
 20
656.000000
 42
-0.000762
  0
VERTEX
  8
0
 10
185.840652
 20
672.735648
 42
-0.005761
  0
VERTEX
  8
0
 10
187.026621
 20
680.626447
 42
-0.004298
  0
VERTEX
  8
0
 10
187.867418
 20
685.545300
 42
-0.363019
  0
VERTEX
  8
0
 10
188.411161
 20
686.000000
 42
-0.255484
  0
VERTEX
  8
0
 10
188.643287
 20
685.873109
 42
-0.000169
  0
VERTEX
  8
0
 10
192.706638
 20
679.532696
 42
-0.001884
  0
VERTEX
  8
0
 10
197.220516
 20
672.425207
 42
-0.001143
  0
SEQEND
  0
POLYLINE
  8
0
 66
1
 70
1
  0
VERTEX
  8
0
 10
604.463424
 20
656.000000
 42
-0.009299
  0
VERTEX
  8
0
 10
609.522364
 20
611.907471
 42
-0.017705
  0
VERTEX
  8
0
 10
611.670689
 20
576.282474
 42
-0.021265
  0
VERTEX
  8
0
 10
611.126854
 20
545.560864
 42
-0.025237
  0
VERTEX
  8
0
 10
607.921590
 20
516.721379
 42
-0.009626
  0
VERTEX
  8
0
 10
606.162857
 20
507.078396
 42
-0.007036
  0
VERTEX
  8
0
 10
603.853960
 20
496.440342
 42
-0.004480
  0
VERTEX
  8
0
 10
601.492941
 20
486.655147
 42
-0.066218
  0
VERTEX
  8
0
 10
600.191938
 20
483.378491
 42
-0.453569
  0
VERTEX
  8
0
 10
599.388313
 20
483.208082
 42
-0.025035
  0
VERTEX
  8
0
 10
597.157617
 20
485.059453
 42
-0.019097
  0
VERTEX
  8
0
 10
593.878539
 20
488.309733
 42
-0.005034
  0
VERTEX
  8
0
 10
588.888797
 20
493.757425
 42
0.000000
  0
VERTEX
  8
0
 10
578.348787
 20
505.500000
 42
0.000000
  0
VERTEX
  8
0
 10
577.154169
 20
547.500000
 42
0.002529
  0
VERTEX
  8
0
 10
576.287435
 20
573.367377
 42
0.004103
  0
VERTEX
  8
0
 10
575.259251
 20
595.340264
 42
0.004671
  0
VERTEX
  8
0
 10
573.995254
 20
614.968667
 42
0.005391
  0
VERTEX
  8
0
 10
572.413975
 20
633.652756
 42
0.000000
  0
VERTEX
  8
0
 10
571.730877
 20
640.805513
 42
0.000000
  0
VERTEX
  8
0
 10
585.552180
 20
663.567806
 42
-0.002333
  0
VERTEX
  8
0
 10
592.784755
 20
675.354805
 42
-0.013947
  0
VERTEX
  8
0
 10
596.751960
 20
681.371620
 42
-0.023955
  0
VERTEX
  8
0
 10
599.223986
 20
684.565253
 42
-0.562860
  0
VERTEX
  8
0
 10
600.147999
 20
684.415050
 42
-0.057340
  0
VERTEX
  8
0
 10
600.551433
 20
682.956031
 42
-0.001124
  0
VERTEX
  8
0
 10
601.735142
 20
675.278171
 42
-0.002679
  0
VERTEX
  8
0
 10
603.050398
 20
666.293777
 42
-0.001792
  0
SEQEND
  0
POLYLINE
  8
0
 66
1
 70
1
  0
VERTEX
  8
0
 10
412.041913
 20
637.940547
 42
-0.038929
  0
VERTEX
  8
0
 10
424.769490
 20
633.356045
 42
-0.021411
  0
VERTEX
  8
0
 10
439.564062
 20
625.908384
 42
-0.019887
  0
VERTEX
  8
0
 10
455.186177
 20
616.352891
 42
-0.018141
  0
VERTEX
  8
0
 10
470.500000
 20
605.304218
 42
-0.014779
  0
VERTEX
  8
0
 10
484.571039
 20
593.671156
 42
-0.007254
  0
VERTEX
  8
0
 10
501.817377
 20
578.084341
 42
-0.007219
  0
VERTEX
  8
0
 10
518.414436
 20
562.187815
 42
-0.016728
  0
VERTEX
  8
0
 10
530.283400
 20
549.676664
 42
0.000000
  0
VERTEX
  8
0
 10
536.336003
 20
542.853328
 42
0.000000
  0
VERTEX
  8
0
 10
514.993027
 20
521.493022
 42
0.000000
  0
VERTEX
  8
0
 10
493.650051
 20
500.132715
 42
0.000000
  0
VERTEX
  8
0
 10
482.205439
 20
516.316357
 42
0.000627
  0
VERTEX
  8
0
 10
477.766649
 20
522.576504
 42
0.000966
  0
VERTEX
  8
0
 10
473.909727
 20
527.979450
 42
0.000299
  0
VERTEX
  8
0
 10
470.551650
 20
532.658501
 42
0.029143
  0
VERTEX
  8
0
 10
470.035878
 20
533.294535
 42
0.443152
  0
VERTEX
  8
0
 10
469.456072
 20
533.292723
 42
0.000351
  0
VERTEX
  8
0
 10
458.574290
 20
521.198589
 42
0.002940
  0
VERTEX
  8
0
 10
446.381277
 20
507.466456
 42
0.001757
  0
VERTEX
  8
0
 10
432.035720
 20
491.001117
 42
-0.001796
  0
VERTEX
  8
0
 10
417.662368
 20
474.506509
 42
-0.002959
  0
VERTEX
  8
0
 10
405.378090
 20
460.677066
 42
-0.000383
  0
VERTEX
  8
0
 10
394.400817
 20
448.484167
 42
-0.295234
  0
VERTEX
  8
0
 10
393.630255
 20
448.276793
 42
-0.134525
  0
VERTEX
  8
0
 10
392.863044
 20
448.778032
 42
-0.000217
  0
VERTEX
  8
0
 10
382.054556
 20
460.997357
 42
-0.001672
  0
VERTEX
  8
0
 10
369.958289
 20
474.777070
 42
-0.001030
  0
VERTEX
  8
0
 10
355.810785
 20
491.070211
 42
0.001431
  0
VERTEX
  8
0
 10
341.684610
 20
507.312448
 42
0.002371
  0
VERTEX
  8
0
 10
329.660859
 20
520.926874
 42
0.000236
  0
VERTEX
  8
0
 10
318.877270
 20
533.009528
 42
0.329223
  0
VERTEX
  8
0
 10
318.310785
 20
533.127657
 42
0.125265
  0
VERTEX
  8
0
 10
317.790880
 20
532.707453
 42
0.000860
  0
VERTEX
  8
0
 10
314.339009
 20
528.072240
 42
0.003281
  0
VERTEX
  8
0
 10
310.422501
 20
522.721155
 42
0.002084
  0
VERTEX
  8
0
 10
305.928393
 20
516.440592
 42
0.000000
  0
VERTEX
  8
0
 10
294.356787
 20
500.125871
 42
0.000000
  0
VERTEX
  8
0
 10
273.008259
 20
521.491734
 42
0.000000
  0
VERTEX
  8
0
 10
251.659732
 20
542.857596
 42
0.000000
  0
VERTEX
  8
0
 10
258.724062
 20
550.678798
 42
-0.013975
  0
VERTEX
  8
0
 10
271.252646
 20
563.793551
 42
-0.007866
  0
VERTEX
  8
0
 10
287.143090
 20
579.035560
 42
-0.007866
  0
VERTEX
  8
0
 10
303.505141
 20
593.770124
 42
-0.013975
  0
VERTEX
  8
0
 10
317.500000
 20
605.307168
 42
-0.020339
  0
VERTEX
  8
0
 10
335.372760
 20
618.088544
 42
-0.025254
  0
VERTEX
  8
0
 10
353.010471
 20
628.414240
 42
-0.027949
  0
VERTEX
  8
0
 10
369.576697
 20
635.877098
 42
-0.047891
  0
VERTEX
  8
0
 10
384.163913
 20
639.940404
 42
-0.038942
  0
VERTEX
  8
0
 10
390.212223
 20
640.535733
 42
-0.022975
  0
VERTEX
  8
0
 10
397.472954
 20
640.349294
 42
-0.022328
  0
VERTEX
  8
0
 10
405.037427
 20
639.465849
 42
-0.026758
  0
SEQEND
  0
POLYLINE
  8
0
 66
1
 70
1
  0
VERTEX
  8
0
 10
270.912729
 20
518.587342
 42
0.000000
  0
VERTEX
  8
0
 10
292.308013
 20
497.174684
 42
0.000000
  0
VERTEX
  8
0
 10
274.197666
 20
471.587342
 42
0.002531
  0
VERTEX
  8
0
 10
267.326227
 20
461.774027
 42
0.004345
  0
VERTEX
  8
0
 10
261.711640
 20
453.516282
 42
0.000930
  0
VERTEX
  8
0
 10
256.941524
 20
446.338865
 42
0.597904
  0
VERTEX
  8
0
 10
257.123597
 20
446.000000
 42
0.027316
  0
VERTEX
  8
0
 10
257.874311
 20
446.041043
 42
0.000681
  0
VERTEX
  8
0
 10
261.283549
 20
446.419641
 42
0.001465
  0
VERTEX
  8
0
 10
265.283089
 20
446.881175
 42
0.000997
  0
VERTEX
  8
0
 10
269.829937
 20
447.428565
 42
-0.003780
  0
VERTEX
  8
0
 10
274.901458
 20
448.010509
 42
-0.002831
  0
VERTEX
  8
0
 10
280.495357
 20
448.577570
 42
-0.002862
  0
VERTEX
  8
0
 10
285.768344
 20
449.051517
 42
-0.006545
  0
VERTEX
  8
0
 10
289.750000
 20
449.334004
 42
0.000000
  0
VERTEX
  8
0
 10
298.000000
 20
449.810879
 42
0.000000
  0
VERTEX
  8
0
 10
298.000000
 20
446.089749
 42
0.000000
  0
VERTEX
  8
0
 10
298.000000
 20
442.368619
 42
0.000000
  0
VERTEX
  8
0
 10
286.588491
 20
441.179107
 42
0.016728
  0
VERTEX
  8
0
 10
276.536283
 20
439.790038
 42
0.032257
  0
VERTEX
  8
0
 10
268.637997
 20
437.896833
 42
0.040635
  0
VERTEX
  8
0
 10
262.510051
 20
435.442317
 42
0.068233
  0
VERTEX
  8
0
 10
257.936799
 20
432.323937
 42
0.000000
  0
VERTEX
  8
0
 10
254.000000
 20
428.767275
 42
0.000000
  0
VERTEX
  8
0
 10
254.013137
 20
414.633638
 42
0.018175
  0
VERTEX
  8
0
 10
254.467869
 20
402.440180
 42
0.027273
  0
VERTEX
  8
0
 10
255.828588
 20
391.880589
 42
0.030915
  0
VERTEX
  8
0
 10
258.130267
 20
382.655013
 42
0.038990
  0
VERTEX
  8
0
 10
261.427723
 20
374.500000
 42
0.000000
  0
VERTEX
  8
0
 10
264.914968
 20
367.500000
 42
0.000000
  0
VERTEX
  8
0
 10
261.401598
 20
364.000000
 42
0.000000
  0
VERTEX
  8
0
 10
257.888229
 20
360.500000
 42
0.000000
  0
VERTEX
  8
0
 10
255.839111
 20
362.990457
 42
-0.077479
  0
VERTEX
  8
0
 10
250.836172
 20
371.454549
 42
-0.027273
  0
VERTEX
  8
0
 10
246.323802
 20
384.861825
 42
-0.027337
  0
VERTEX
  8
0
 10
243.085873
 20
399.656472
 42
-0.039890
  0
VERTEX
  8
0
 10
242.005895
 20
412.950000
 42
0.015715
  0
VERTEX
  8
0
 10
241.947278
 20
414.739056
 42
0.048228
  0
VERTEX
  8
0
 10
241.753648
 20
415.934639
 42
0.135041
  0
VERTEX
  8
0
 10
241.451907
 20
416.455104
 42
0.417440
  0
VERTEX
  8
0
 10
241.086273
 20
416.450000
 42
0.064845
  0
VERTEX
  8
0
 10
240.490049
 20
415.643209
 42
0.000563
  0
VERTEX
  8
0
 10
236.770201
 20
408.926845
 42
0.001957
  0
VERTEX
  8
0
 10
232.532019
 20
401.182773
 42
0.001260
  0
VERTEX
  8
0
 10
227.676367
 20
392.173302
 42
0.000000
  0
VERTEX
  8
0
 10
215.180188
 20
368.846605
 42
0.000000
  0
VERTEX
  8
0
 10
219.247944
 20
359.673302
 42
0.000549
  0
VERTEX
  8
0
 10
221.386520
 20
354.864799
 42
0.000160
  0
VERTEX
  8
0
 10
224.689466
 20
347.466533
 42
0.000161
  0
VERTEX
  8
0
 10
228.413929
 20
339.138471
 42
0.000172
  0
VERTEX
  8
0
 10
232.060109
 20
331.000000
 42
0.000000
  0
VERTEX
  8
0
 10
240.804518
 20
311.500000
 42
0.000000
  0
VERTEX
  8
0
 10
236.652259
 20
310.398609
 42
-0.000021
  0
VERTEX
  8
0
 10
233.920570
 20
309.674146
 42
-0.000001
  0
VERTEX
  8
0
 10
226.375976
 20
307.673622
 42
-0.000002
  0
VERTEX
  8
0
 10
217.378072
 20
305.287806
 42
-0.000002
  0
VERTEX
  8
0
 10
207.500000
 20
302.668690
 42
-0.005042
  0
VERTEX
  8
0
 10
187.499610
 20
297.581070
 42
-0.002062
  0
VERTEX
  8
0
 10
160.232818
 20
291.056064
 42
-0.000146
  0
VERTEX
  8
0
 10
130.315401
 20
284.036290
 42
-0.259494
  0
VERTEX
  8
0
 10
129.357366
 20
284.309301
 42
-0.296392
  0
VERTEX
  8
0
 10
129.313723
 20
284.514957
 42
-0.000023
  0
VERTEX
  8
0
 10
135.661155
 20
301.015929
 42
-0.000722
  0
VERTEX
  8
0
 10
142.708455
 20
319.255156
 42
-0.000434
  0
VERTEX
  8
0
 10
151.121019
 20
340.878981
 42
0.000558
  0
VERTEX
  8
0
 10
159.527572
 20
362.503245
 42
0.000929
  0
VERTEX
  8
0
 10
166.556176
 20
380.743476
 42
0.000036
  0
VERTEX
  8
0
 10
172.868863
 20
397.220524
 42
0.337447
  0
VERTEX
  8
0
 10
172.800560
 20
397.453574
 42
0.166264
  0
VERTEX
  8
0
 10
172.529633
 20
397.538954
 42
0.000185
  0
VERTEX
  8
0
 10
166.419539
 20
397.388647
 42
0.001688
  0
VERTEX
  8
0
 10
159.573032
 20
397.194555
 42
0.001034
  0
VERTEX
  8
0
 10
151.500000
 20
396.921700
 42
-0.001242
  0
VERTEX
  8
0
 10
143.429049
 20
396.652286
 42
-0.002034
  0
VERTEX
  8
0
 10
136.589386
 20
396.468828
 42
-0.000228
  0
VERTEX
  8
0
 10
130.491665
 20
396.332872
 42
-0.204159
  0
VERTEX
  8
0
 10
130.229824
 20
396.437742
 42
-0.381224
  0
VERTEX
  8
0
 10
130.196568
 20
397.004265
 42
-0.000049
  0
VERTEX
  8
0
 10
154.035255
 20
427.100444
 42
-0.001274
  0
VERTEX
  8
0
 10
175.510906
 20
454.066439
 42
-0.003475
  0
VERTEX
  8
0
 10
190.885671
 20
473.000000
 42
-0.003553
  0
VERTEX
  8
0
 10
208.586272
 20
494.182286
 42
-0.002847
  0
VERTEX
  8
0
 10
227.936908
 20
516.745875
 42
-0.000323
  0
VERTEX
  8
0
 10
247.558407
 20
539.333967
 42
-0.216036
  0
VERTEX
  8
0
 10
249.008722
 20
539.998038
 42
-0.196758
  0
VERTEX
  8
0
 10
249.360176
 20
539.855746
 42
-0.000190
  0
VERTEX
  8
0
 10
255.652872
 20
533.709455
 42
-0.001831
  0
VERTEX
  8
0
 10
262.673013
 20
526.796967
 42
-0.001118
  0
SEQEND
  0
POLYLINE
  8
0
 66
1
 70
1
  0
VERTEX
  8
0
 10
552.356697
 20
525.526455
 42
-0.002655
  0
VERTEX
  8
0
 10
564.271467
 20
511.907606
 42
-0.002419
  0
VERTEX
  8
0
 10
576.419450
 20
497.734536
 42
-0.002337
  0
VERTEX
  8
0
 10
588.848462
 20
482.951337
 42
-0.002093
  0
VERTEX
  8
0
 10
601.607304
 20
467.500000
 42
-0.002870
  0
VERTEX
  8
0
 10
617.047276
 20
448.419177
 42
-0.001387
  0
VERTEX
  8
0
 10
636.601208
 20
423.829106
 42
-0.000056
  0
VERTEX
  8
0
 10
657.815813
 20
396.992022
 42
-0.380917
  0
VERTEX
  8
0
 10
657.783831
 20
396.451397
 42
-0.203985
  0
VERTEX
  8
0
 10
657.509111
 20
396.341236
 42
-0.000251
  0
VERTEX
  8
0
 10
651.414625
 20
396.472839
 42
-0.002135
  0
VERTEX
  8
0
 10
644.571887
 20
396.653272
 42
-0.001305
  0
VERTEX
  8
0
 10
636.500000
 20
396.921700
 42
0.001034
  0
VERTEX
  8
0
 10
628.426968
 20
397.194555
 42
0.001688
  0
VERTEX
  8
0
 10
621.580461
 20
397.388647
 42
0.000185
  0
VERTEX
  8
0
 10
615.470367
 20
397.538954
 42
0.166264
  0
VERTEX
  8
0
 10
615.199440
 20
397.453574
 42
0.337447
  0
VERTEX
  8
0
 10
615.131137
 20
397.220524
 42
0.000036
  0
VERTEX
  8
0
 10
621.443824
 20
380.743476
 42
0.000929
  0
VERTEX
  8
0
 10
628.472428
 20
362.503245
 42
0.000558
  0
VERTEX
  8
0
 10
636.878981
 20
340.878981
 42
-0.000371
  0
VERTEX
  8
0
 10
645.293845
 20
319.257368
 42
-0.000617
  0
VERTEX
  8
0
 10
652.348142
 20
301.025225
 42
-0.000017
  0
VERTEX
  8
0
 10
658.711514
 20
284.516693
 42
-0.296582
  0
VERTEX
  8
0
 10
658.674283
 20
284.340949
 42
-0.261594
  0
VERTEX
  8
0
 10
657.203963
 20
283.928201
 42
-0.000131
  0
VERTEX
  8
0
 10
608.674334
 20
295.717237
 42
-0.001415
  0
VERTEX
  8
0
 10
565.559747
 20
306.332162
 42
-0.014457
  0
VERTEX
  8
0
 10
547.843261
 20
311.295366
 42
-0.438897
  0
VERTEX
  8
0
 10
547.686815
 20
311.626325
 42
-0.001021
  0
VERTEX
  8
0
 10
549.949426
 20
317.168014
 42
-0.005022
  0
VERTEX
  8
0
 10
552.627723
 20
323.507799
 42
-0.002995
  0
VERTEX
  8
0
 10
555.935412
 20
331.000000
 42
0.000180
  0
VERTEX
  8
0
 10
559.583306
 20
339.138472
 42
0.000168
  0
VERTEX
  8
0
 10
563.309218
 20
347.466533
 42
0.000167
  0
VERTEX
  8
0
 10
566.613198
 20
354.864818
 42
0.000574
  0
VERTEX
  8
0
 10
568.752056
 20
359.673302
 42
0.000000
  0
VERTEX
  8
0
 10
572.819812
 20
368.846605
 42
0.000000
  0
VERTEX
  8
0
 10
560.323633
 20
392.173302
 42
0.001047
  0
VERTEX
  8
0
 10
555.478383
 20
401.172626
 42
0.001645
  0
VERTEX
  8
0
 10
551.273112
 20
408.883533
 42
0.000405
  0
VERTEX
  8
0
 10
547.566762
 20
415.613817
 42
0.064613
  0
VERTEX
  8
0
 10
547.061174
 20
416.302553
 42
0.593642
  0
VERTEX
  8
0
 10
546.728515
 20
416.213008
 42
0.014708
  0
VERTEX
  8
0
 10
546.323381
 20
414.283606
 42
0.016634
  0
VERTEX
  8
0
 10
545.936897
 20
411.623771
 42
0.008785
  0
VERTEX
  8
0
 10
545.625591
 20
408.302553
 42
-0.021956
  0
VERTEX
  8
0
 10
544.110760
 20
395.717848
 42
-0.025816
  0
VERTEX
  8
0
 10
541.545213
 20
383.987574
 42
-0.028185
  0
VERTEX
  8
0
 10
538.103102
 20
373.714250
 42
-0.046414
  0
VERTEX
  8
0
 10
533.937536
 20
365.562557
 42
0.000000
  0
VERTEX
  8
0
 10
530.868234
 20
360.722770
 42
0.000000
  0
VERTEX
  8
0
 10
527.125037
 20
364.377905
 42
0.000000
  0
VERTEX
  8
0
 10
523.381840
 20
368.033039
 42
0.000000
  0
VERTEX
  8
0
 10
526.720681
 20
374.766519
 42
0.039916
  0
VERTEX
  8
0
 10
529.926803
 20
382.781084
 42
0.030126
  0
VERTEX
  8
0
 10
532.186654
 20
391.995086
 42
0.026625
  0
VERTEX
  8
0
 10
533.535241
 20
402.553134
 42
0.018221
  0
VERTEX
  8
0
 10
533.986863
 20
414.633638
 42
0.000000
  0
VERTEX
  8
0
 10
534.000000
 20
428.767275
 42
0.000000
  0
VERTEX
  8
0
 10
530.063201
 20
432.323937
 42
0.068233
  0
VERTEX
  8
0
 10
525.489949
 20
435.442317
 42
0.040635
  0
VERTEX
  8
0
 10
519.362003
 20
437.896833
 42
0.032257
  0
VERTEX
  8
0
 10
511.463717
 20
439.790038
 42
0.016728
  0
VERTEX
  8
0
 10
501.411509
 20
441.179107
 42
0.000000
  0
VERTEX
  8
0
 10
490.000000
 20
442.368619
 42
0.000000
  0
VERTEX
  8
0
 10
490.000000
 20
446.089749
 42
0.000000
  0
VERTEX
  8
0
 10
490.000000
 20
449.810879
 42
0.000000
  0
VERTEX
  8
0
 10
498.250000
 20
449.334004
 42
-0.006545
  0
VERTEX
  8
0
 10
502.231656
 20
449.051517
 42
-0.002862
  0
VERTEX
  8
0
 10
507.504643
 20
448.577570
 42
-0.002831
  0
VERTEX
  8
0
 10
513.098542
 20
448.010509
 42
-0.003780
  0
VERTEX
  8
0
 10
518.170063
 20
447.428565
 42
0.000980
  0
VERTEX
  8
0
 10
522.715605
 20
446.881169
 42
0.001442
  0
VERTEX
  8
0
 10
526.711012
 20
446.419641
 42
0.000661
  0
VERTEX
  8
0
 10
530.118973
 20
446.040488
 42
0.027376
  0
VERTEX
  8
0
 10
530.857886
 20
446.000000
 42
0.597955
  0
VERTEX
  8
0
 10
531.036827
 20
446.333096
 42
0.000897
  0
VERTEX
  8
0
 10
526.262073
 20
453.516150
 42
0.004268
  0
VERTEX
  8
0
 10
520.649178
 20
461.773784
 42
0.002487
  0
VERTEX
  8
0
 10
513.783368
 20
471.586893
 42
0.000000
  0
VERTEX
  8
0
 10
495.691090
 20
497.173787
 42
0.000000
  0
VERTEX
  8
0
 10
517.086823
 20
518.586893
 42
-0.001177
  0
VERTEX
  8
0
 10
525.328740
 20
526.796775
 42
-0.001925
  0
VERTEX
  8
0
 10
532.355495
 20
533.709900
 42
-0.000211
  0
VERTEX
  8
0
 10
538.649182
 20
539.849100
 42
-0.195575
  0
VERTEX
  8
0
 10
539.020210
 20
540.000000
 42
-0.208993
  0
VERTEX
  8
0
 10
539.377889
 20
539.843667
 42
-0.000538
  0
VERTEX
  8
0
 10
543.159586
 20
535.748396
 42
-0.003165
  0
VERTEX
  8
0
 10
547.411118
 20
531.075364
 42
-0.001951
  0
SEQEND
  0
POLYLINE
  8
0
 66
1
 70
1
  0
VERTEX
  8
0
 10
320.220152
 20
449.010902
 42
-0.012139
  0
VERTEX
  8
0
 10
333.040297
 20
447.759308
 42
-0.010710
  0
VERTEX
  8
0
 10
346.334008
 20
445.845043
 42
-0.010078
  0
VERTEX
  8
0
 10
360.326434
 20
443.232463
 42
-0.008126
  0
VERTEX
  8
0
 10
375.250000
 20
439.879687
 42
0.000000
  0
VERTEX
  8
0
 10
392.000000
 20
435.829567
 42
0.000000
  0
VERTEX
  8
0
 10
392.000000
 20
427.026075
 42
0.000000
  0
VERTEX
  8
0
 10
392.000000
 20
418.222582
 42
0.000000
  0
VERTEX
  8
0
 10
388.579174
 20
417.580831
 42
0.100188
  0
VERTEX
  8
0
 10
386.394182
 20
416.695029
 42
0.107274
  0
VERTEX
  8
0
 10
384.787574
 20
415.045448
 42
0.037383
  0
VERTEX
  8
0
 10
383.003139
 20
411.648955
 42
0.002917
  0
VERTEX
  8
0
 10
378.981090
 20
402.219540
 42
-0.007663
  0
VERTEX
  8
0
 10
373.215088
 20
389.049345
 42
-0.014788
  0
VERTEX
  8
0
 10
368.131260
 20
378.725216
 42
-0.018310
  0
VERTEX
  8
0
 10
363.561521
 20
370.813073
 42
-0.041780
  0
VERTEX
  8
0
 10
359.425667
 20
365.303005
 42
0.000000
  0
VERTEX
  8
0
 10
355.149837
 20
360.500000
 42
0.000000
  0
VERTEX
  8
0
 10
351.864485
 20
363.729664
 42
0.000000
  0
VERTEX
  8
0
 10
348.579133
 20
366.959329
 42
0.000000
  0
VERTEX
  8
0
 10
350.790414
 20
369.729664
 42
0.042475
  0
VERTEX
  8
0
 10
355.861695
 20
377.324401
 42
0.033911
  0
VERTEX
  8
0
 10
360.021528
 20
386.251853
 42
0.030974
  0
VERTEX
  8
0
 10
363.257708
 20
396.483952
 42
0.023697
  0
VERTEX
  8
0
 10
365.555459
 20
407.995843
 42
0.008316
  0
VERTEX
  8
0
 10
366.561681
 20
415.517198
 42
0.023739
  0
VERTEX
  8
0
 10
366.925042
 20
420.783172
 42
0.033920
  0
VERTEX
  8
0
 10
366.750125
 20
424.551043
 42
0.094579
  0
VERTEX
  8
0
 10
365.964094
 20
427.067090
 42
0.179350
  0
VERTEX
  8
0
 10
360.845479
 20
431.597130
 42
0.027107
  0
VERTEX
  8
0
 10
347.617146
 20
435.912641
 42
0.027448
  0
VERTEX
  8
0
 10
330.713064
 20
439.449634
 42
0.020387
  0
VERTEX
  8
0
 10
311.750000
 20
441.555763
 42
0.000000
  0
VERTEX
  8
0
 10
302.000000
 20
442.237838
 42
0.000000
  0
VERTEX
  8
0
 10
302.000000
 20
446.118919
 42
-0.087483
  0
VERTEX
  8
0
 10
302.457904
 20
448.716004
 42
-0.272549
  0
VERTEX
  8
0
 10
303.775429
 20
449.802481
 42
-0.056079
  0
VERTEX
  8
0
 10
306.887677
 20
449.943781
 42
-0.001593
  0
SEQEND
  0
POLYLINE
  8
0
 66
1
 70
1
  0
VERTEX
  8
0
 10
486.000000
 20
446.118919
 42
0.000000
  0
VERTEX
  8
0
 10
486.000000
 20
442.237838
 42
0.000000
  0
VERTEX
  8
0
 10
476.250000
 20
441.555763
 42
0.020387
  0
VERTEX
  8
0
 10
457.286936
 20
439.449634
 42
0.027448
  0
VERTEX
  8
0
 10
440.382854
 20
435.912641
 42
0.027107
  0
VERTEX
  8
0
 10
427.154521
 20
431.597130
 42
0.179350
  0
VERTEX
  8
0
 10
422.035906
 20
427.067090
 42
0.094579
  0
VERTEX
  8
0
 10
421.249875
 20
424.551043
 42
0.033920
  0
VERTEX
  8
0
 10
421.074958
 20
420.783172
 42
0.023739
  0
VERTEX
  8
0
 10
421.438319
 20
415.517198
 42
0.008316
  0
VERTEX
  8
0
 10
422.444541
 20
407.995843
 42
0.023697
  0
VERTEX
  8
0
 10
424.742292
 20
396.483952
 42
0.030974
  0
VERTEX
  8
0
 10
427.978472
 20
386.251853
 42
0.033911
  0
VERTEX
  8
0
 10
432.138305
 20
377.324401
 42
0.042475
  0
VERTEX
  8
0
 10
437.209586
 20
369.729664
 42
0.000000
  0
VERTEX
  8
0
 10
439.420867
 20
366.959329
 42
0.000000
  0
VERTEX
  8
0
 10
436.135515
 20
363.729664
 42
0.000000
  0
VERTEX
  8
0
 10
432.850163
 20
360.500000
 42
0.000000
  0
VERTEX
  8
0
 10
428.542096
 20
365.339640
 42
-0.043994
  0
VERTEX
  8
0
 10
424.416302
 20
370.887701
 42
-0.016384
  0
VERTEX
  8
0
 10
419.594834
 20
379.333492
 42
-0.013986
  0
VERTEX
  8
0
 10
414.272254
 20
390.130874
 42
-0.008390
  0
VERTEX
  8
0
 10
408.530642
 20
403.224855
 42
0.003255
  0
VERTEX
  8
0
 10
404.814774
 20
411.941360
 42
0.039321
  0
VERTEX
  8
0
 10
403.107205
 20
415.157541
 42
0.108576
  0
VERTEX
  8
0
 10
401.540173
 20
416.732135
 42
0.096815
  0
VERTEX
  8
0
 10
399.392496
 20
417.586146
 42
0.000000
  0
VERTEX
  8
0
 10
396.000000
 20
418.222582
 42
0.000000
  0
VERTEX
  8
0
 10
396.000000
 20
427.027521
 42
0.000000
  0
VERTEX
  8
0
 10
396.000000
 20
435.832460
 42
0.000000
  0
VERTEX
  8
0
 10
413.080967
 20
439.932921
 42
-0.009856
  0
VERTEX
  8
0
 10
431.716396
 20
444.019811
 42
-0.012910
  0
VERTEX
  8
0
 10
448.896119
 20
446.975173
 42
-0.013779
  0
VERTEX
  8
0
 10
465.214464
 20
448.892899
 42
-0.014743
  0
VERTEX
  8
0
 10
481.250000
 20
449.855271
 42
0.000000
  0
VERTEX
  8
0
 10
486.000000
 20
450.000000
 42
0.000000
  0
SEQEND
  0
POLYLINE
  8
0
 66
1
 70
1
  0
VERTEX
  8
0
 10
303.425979
 20
422.679928
 42
0.000000
  0
VERTEX
  8
0
 10
318.351957
 20
417.500000
 42
0.000000
  0
VERTEX
  8
0
 10
323.147257
 20
402.000000
 42
-0.002266
  0
VERTEX
  8
0
 10
324.969505
 20
396.013964
 42
-0.003600
  0
VERTEX
  8
0
 10
326.468937
 20
390.872630
 42
-0.000862
  0
VERTEX
  8
0
 10
327.738829
 20
386.369207
 42
-0.155943
  0
VERTEX
  8
0
 10
327.721279
 20
385.885550
 42
-0.411299
  0
VERTEX
  8
0
 10
327.395858
 20
385.730470
 42
-0.001553
  0
VERTEX
  8
0
 10
323.090374
 20
387.247714
 42
-0.006223
  0
VERTEX
  8
0
 10
318.124143
 20
389.085115
 42
-0.003727
  0
VERTEX
  8
0
 10
312.267228
 20
391.385550
 42
0.000000
  0
VERTEX
  8
0
 10
297.034455
 20
397.500000
 42
0.000000
  0
VERTEX
  8
0
 10
292.438213
 20
411.500000
 42
-0.000125
  0
VERTEX
  8
0
 10
290.648798
 20
416.955090
 42
-0.000183
  0
VERTEX
  8
0
 10
289.077672
 20
421.754687
 42
-0.000085
  0
VERTEX
  8
0
 10
287.741313
 20
425.844525
 42
-0.003376
  0
VERTEX
  8
0
 10
287.452371
 20
426.750000
 42
-0.385074
  0
VERTEX
  8
0
 10
287.780104
 20
427.458970
 42
-0.164493
  0
VERTEX
  8
0
 10
288.911914
 20
427.545808
 42
-0.020354
  0
VERTEX
  8
0
 10
292.031918
 20
426.614101
 42
-0.000785
  0
SEQEND
  0
POLYLINE
  8
0
 66
1
 70
1
  0
VERTEX
  8
0
 10
500.547629
 20
426.750000
 42
-0.003124
  0
VERTEX
  8
0
 10
500.259107
 20
425.844261
 42
-0.000079
  0
VERTEX
  8
0
 10
498.925593
 20
421.748952
 42
-0.000169
  0
VERTEX
  8
0
 10
497.358058
 20
416.943048
 42
-0.000115
  0
VERTEX
  8
0
 10
495.572901
 20
411.480473
 42
0.000000
  0
VERTEX
  8
0
 10
490.987774
 20
397.460947
 42
0.000000
  0
VERTEX
  8
0
 10
475.743887
 20
391.311520
 42
-0.004010
  0
VERTEX
  8
0
 10
469.882651
 20
389.001558
 42
-0.006708
  0
VERTEX
  8
0
 10
464.912891
 20
387.164992
 42
-0.001805
  0
VERTEX
  8
0
 10
460.621498
 20
385.661646
 42
-0.418289
  0
VERTEX
  8
0
 10
460.278721
 20
385.831046
 42
-0.149129
  0
VERTEX
  8
0
 10
460.266522
 20
386.352795
 42
-0.000958
  0
VERTEX
  8
0
 10
461.535398
 20
390.856620
 42
-0.003733
  0
VERTEX
  8
0
 10
463.039653
 20
396.010178
 42
-0.002360
  0
VERTEX
  8
0
 10
464.867502
 20
402.000000
 42
0.000000
  0
VERTEX
  8
0
 10
469.677561
 20
417.500000
 42
0.000000
  0
VERTEX
  8
0
 10
484.588780
 20
422.594530
 42
-0.000458
  0
VERTEX
  8
0
 10
496.670330
 20
426.709933
 42
-0.018168
  0
VERTEX
  8
0
 10
499.364892
 20
427.517139
 42
-0.191327
  0
VERTEX
  8
0
 10
500.284001
 20
427.403185
 42
-0.356974
  0
SEQEND
  0
POLYLINE
  8
0
 66
1
 70
1
  0
VERTEX
  8
0
 10
283.176111
 20
355.868057
 42
0.041429
  0
VERTEX
  8
0
 10
290.377208
 20
354.265902
 42
0.020202
  0
VERTEX
  8
0
 10
299.754723
 20
353.365593
 42
0.020038
  0
VERTEX
  8
0
 10
309.516194
 20
353.216765
 42
0.030100
  0
VERTEX
  8
0
 10
318.000434
 20
353.939736
 42
0.019410
  0
VERTEX
  8
0
 10
324.800134
 20
355.205231
 42
0.027023
  0
VERTEX
  8
0
 10
330.754574
 20
356.897186
 42
0.029087
  0
VERTEX
  8
0
 10
336.131831
 20
359.101521
 42
0.029502
  0
VERTEX
  8
0
 10
341.190558
 20
361.905894
 42
0.000000
  0
VERTEX
  8
0
 10
345.783461
 20
364.818627
 42
0.000000
  0
VERTEX
  8
0
 10
348.891730
 20
361.611706
 42
-0.008679
  0
VERTEX
  8
0
 10
350.082603
 20
360.339581
 42
-0.012530
  0
VERTEX
  8
0
 10
351.086946
 20
359.171113
 42
-0.008255
  0
VERTEX
  8
0
 10
351.876906
 20
358.170798
 42
-0.164440
  0
VERTEX
  8
0
 10
352.000000
 20
357.806638
 42
-0.227057
  0
VERTEX
  8
0
 10
351.834999
 20
357.462023
 42
-0.006698
  0
VERTEX
  8
0
 10
350.535285
 20
356.444292
 42
-0.012162
  0
VERTEX
  8
0
 10
348.924700
 20
355.278362
 42
-0.007940
  0
VERTEX
  8
0
 10
347.013735
 20
354.008814
 42
-0.060275
  0
VERTEX
  8
0
 10
336.782738
 20
349.065245
 42
-0.039432
  0
VERTEX
  8
0
 10
324.076835
 20
345.808878
 42
-0.036178
  0
VERTEX
  8
0
 10
309.746112
 20
344.374769
 42
-0.031198
  0
VERTEX
  8
0
 10
294.620773
 20
344.903773
 42
-0.016705
  0
VERTEX
  8
0
 10
285.015104
 20
346.166859
 42
-0.031040
  0
VERTEX
  8
0
 10
277.359969
 20
347.928695
 42
-0.036983
  0
VERTEX
  8
0
 10
270.976049
 20
350.347705
 42
-0.041770
  0
VERTEX
  8
0
 10
265.287217
 20
353.602109
 42
0.000000
  0
VERTEX
  8
0
 10
259.899511
 20
357.312764
 42
0.000000
  0
VERTEX
  8
0
 10
263.568075
 20
361.069715
 42
0.000000
  0
VERTEX
  8
0
 10
267.236639
 20
364.826666
 42
0.000000
  0
VERTEX
  8
0
 10
272.145470
 20
361.300022
 42
0.026324
  0
VERTEX
  8
0
 10
274.466909
 20
359.810902
 42
0.015034
  0
VERTEX
  8
0
 10
277.410613
 20
358.249642
 42
0.014986
  0
VERTEX
  8
0
 10
280.475096
 20
356.853047
 42
0.023982
  0
SEQEND
  0
POLYLINE
  8
0
 66
1
 70
1
  0
VERTEX
  8
0
 10
452.220591
 20
358.983956
 42
0.037127
  0
VERTEX
  8
0
 10
459.713508
 20
356.133913
 42
0.032259
  0
VERTEX
  8
0
 10
467.905165
 20
354.261203
 42
0.029580
  0
VERTEX
  8
0
 10
476.948076
 20
353.343747
 42
0.021906
  0
VERTEX
  8
0
 10
487.000000
 20
353.362232
 42
0.020079
  0
VERTEX
  8
0
 10
496.408881
 20
354.171475
 42
0.036545
  0
VERTEX
  8
0
 10
503.967556
 20
355.695882
 42
0.042867
  0
VERTEX
  8
0
 10
510.341100
 20
358.078511
 42
0.044920
  0
VERTEX
  8
0
 10
516.109600
 20
361.483272
 42
0.000000
  0
VERTEX
  8
0
 10
521.273501
 20
365.193165
 42
0.000000
  0
VERTEX
  8
0
 10
524.884762
 20
361.581905
 42
0.000000
  0
VERTEX
  8
0
 10
528.496023
 20
357.970644
 42
0.000000
  0
VERTEX
  8
0
 10
525.498011
 20
355.498438
 42
-0.039914
  0
VERTEX
  8
0
 10
521.429598
 20
352.656242
 42
-0.027754
  0
VERTEX
  8
0
 10
516.441482
 20
350.094102
 42
-0.026230
  0
VERTEX
  8
0
 10
510.853771
 20
347.948888
 42
-0.024918
  0
VERTEX
  8
0
 10
504.976365
 20
346.358334
 42
-0.038784
  0
VERTEX
  8
0
 10
495.687186
 20
345.078303
 42
-0.014470
  0
VERTEX
  8
0
 10
482.515166
 20
344.676841
 42
-0.014413
  0
VERTEX
  8
0
 10
469.379253
 20
345.035434
 42
-0.040314
  0
VERTEX
  8
0
 10
460.260109
 20
346.289842
 42
-0.028356
  0
VERTEX
  8
0
 10
454.436599
 20
347.926531
 42
-0.019508
  0
VERTEX
  8
0
 10
448.041616
 20
350.404614
 42
-0.019662
  0
VERTEX
  8
0
 10
442.153117
 20
353.234698
 42
-0.044221
  0
VERTEX
  8
0
 10
438.000000
 20
355.930359
 42
0.000000
  0
VERTEX
  8
0
 10
435.500000
 20
357.887119
 42
0.000000
  0
VERTEX
  8
0
 10
438.934528
 20
361.431552
 42
-0.011728
  0
VERTEX
  8
0
 10
440.944792
 20
363.411060
 42
-0.089088
  0
VERTEX
  8
0
 10
442.054987
 20
364.132930
 42
-0.191717
  0
VERTEX
  8
0
 10
442.955826
 20
364.150937
 42
-0.094458
  0
VERTEX
  8
0
 10
443.950109
 20
363.545150
 42
0.049823
  0
VERTEX
  8
0
 10
444.945614
 20
362.810123
 42
0.008111
  0
VERTEX
  8
0
 10
447.031748
 20
361.615081
 42
0.008870
  0
VERTEX
  8
0
 10
449.543573
 20
360.287357
 42
0.007708
  0
SEQEND
  0
POLYLINE
  8
0
 66
1
 70
1
  0
VERTEX
  8
0
 10
248.874368
 20
293.547762
 42
0.000000
  0
VERTEX
  8
0
 10
255.248736
 20
279.146246
 42
0.000000
  0
VERTEX
  8
0
 10
254.517716
 20
270.370440
 42
0.000000
  0
VERTEX
  8
0
 10
253.786695
 20
261.594634
 42
0.000000
  0
VERTEX
  8
0
 10
235.951429
 20
239.047317
 42
-0.003268
  0
VERTEX
  8
0
 10
228.684509
 20
229.982881
 42
-0.003710
  0
VERTEX
  8
0
 10
221.598310
 20
221.392333
 42
-0.003378
  0
VERTEX
  8
0
 10
215.476597
 20
214.181739
 42
-0.020552
  0
VERTEX
  8
0
 10
212.135015
 20
210.607434
 42
0.000000
  0
VERTEX
  8
0
 10
206.153866
 20
204.714868
 42
0.000000
  0
VERTEX
  8
0
 10
205.109384
 20
208.607434
 42
-0.000519
  0
VERTEX
  8
0
 10
196.010134
 20
242.659584
 42
-0.001123
  0
VERTEX
  8
0
 10
189.098901
 20
268.868295
 42
-0.000069
  0
VERTEX
  8
0
 10
183.257989
 20
291.234289
 42
-0.266211
  0
VERTEX
  8
0
 10
183.391003
 20
291.724337
 42
-0.129867
  0
VERTEX
  8
0
 10
183.881034
 20
292.009555
 42
-0.000025
  0
VERTEX
  8
0
 10
212.079689
 20
299.776487
 42
-0.000121
  0
VERTEX
  8
0
 10
239.295681
 20
307.264213
 42
-0.024952
  0
VERTEX
  8
0
 10
242.000000
 20
307.864248
 42
-0.333539
  0
VERTEX
  8
0
 10
242.283690
 20
307.718203
 42
-0.000961
  0
VERTEX
  8
0
 10
244.225596
 20
303.693856
 42
-0.004816
  0
VERTEX
  8
0
 10
246.394349
 20
299.063451
 42
-0.002924
  0
SEQEND
  0
POLYLINE
  8
0
 66
1
 70
1
  0
VERTEX
  8
0
 10
576.646201
 20
299.487774
 42
-0.000897
  0
VERTEX
  8
0
 10
587.234287
 20
296.643932
 42
-0.001460
  0
VERTEX
  8
0
 10
596.212806
 20
294.186966
 42
-0.000172
  0
VERTEX
  8
0
 10
604.210693
 20
291.970277
 42
-0.129385
  0
VERTEX
  8
0
 10
604.576345
 20
291.756988
 42
-0.266068
  0
VERTEX
  8
0
 10
604.722037
 20
291.220797
 42
-0.000086
  0
VERTEX
  8
0
 10
599.012498
 20
269.313222
 42
-0.001227
  0
VERTEX
  8
0
 10
592.149160
 20
243.259077
 42
-0.000531
  0
VERTEX
  8
0
 10
582.891192
 20
208.609570
 42
0.000000
  0
VERTEX
  8
0
 10
581.847284
 20
204.719139
 42
0.000000
  0
VERTEX
  8
0
 10
576.340501
 20
210.109570
 42
-0.021595
  0
VERTEX
  8
0
 10
573.193821
 20
213.467777
 42
-0.003064
  0
VERTEX
  8
0
 10
567.073107
 20
220.681977
 42
-0.003485
  0
VERTEX
  8
0
 10
559.938420
 20
229.318091
 42
-0.002963
  0
VERTEX
  8
0
 10
552.524854
 20
238.531202
 42
0.000000
  0
VERTEX
  8
0
 10
534.215990
 20
261.562405
 42
0.000000
  0
VERTEX
  8
0
 10
533.483627
 20
270.354325
 42
0.000000
  0
VERTEX
  8
0
 10
532.751264
 20
279.146246
 42
0.000000
  0
VERTEX
  8
0
 10
539.125632
 20
293.535499
 42
-0.003881
  0
VERTEX
  8
0
 10
542.646753
 20
301.320198
 42
-0.025231
  0
VERTEX
  8
0
 10
544.643460
 20
305.127673
 42
-0.054445
  0
VERTEX
  8
0
 10
546.082210
 20
307.051115
 42
-0.285963
  0
VERTEX
  8
0
 10
547.300827
 20
307.378857
 42
0.007795
  0
VERTEX
  8
0
 10
548.657166
 20
306.990683
 42
0.000115
  0
VERTEX
  8
0
 10
556.663872
 20
304.835669
 42
0.000314
  0
VERTEX
  8
0
 10
565.959824
 20
302.342219
 42
0.000208
  0
SEQEND
  0
POLYLINE
  8
0
 66
1
 70
1
  0
VERTEX
  8
0
 10
336.665707
 20
244.576641
 42
0.000000
  0
VERTEX
  8
0
 10
351.712894
 20
192.153283
 42
0.000000
  0
VERTEX
  8
0
 10
345.793373
 20
186.326641
 42
0.000000
  0
VERTEX
  8
0
 10
339.873852
 20
180.500000
 42
0.000000
  0
VERTEX
  8
0
 10
336.686926
 20
184.416499
 42
-0.071991
  0
VERTEX
  8
0
 10
331.872740
 20
192.460254
 42
-0.002498
  0
VERTEX
  8
0
 10
317.946649
 20
226.282906
 42
-0.004448
  0
VERTEX
  8
0
 10
304.998267
 20
259.015410
 42
-0.026880
  0
VERTEX
  8
0
 10
299.358159
 20
276.380435
 42
-0.004324
  0
VERTEX
  8
0
 10
298.079327
 20
281.354427
 42
-0.006919
  0
VERTEX
  8
0
 10
297.083126
 20
285.625086
 42
-0.002198
  0
VERTEX
  8
0
 10
296.294730
 20
289.307121
 42
-0.253196
  0
VERTEX
  8
0
 10
296.430835
 20
289.764168
 42
-0.122544
  0
VERTEX
  8
0
 10
297.562369
 20
290.444793
 42
-0.000963
  0
VERTEX
  8
0
 10
307.774289
 20
293.555975
 42
-0.001820
  0
VERTEX
  8
0
 10
317.587471
 20
296.486087
 42
-0.057783
  0
VERTEX
  8
0
 10
320.059260
 20
296.913145
 42
-0.338885
  0
VERTEX
  8
0
 10
321.156663
 20
296.165858
 42
-0.003058
  0
VERTEX
  8
0
 10
324.417778
 20
286.102133
 42
-0.005776
  0
VERTEX
  8
0
 10
328.952322
 20
271.216801
 42
-0.001158
  0
SEQEND
  0
POLYLINE
  8
0
 66
1
 70
1
  0
VERTEX
  8
0
 10
479.494365
 20
293.830425
 42
-0.003677
  0
VERTEX
  8
0
 10
483.771556
 20
292.564476
 42
-0.005402
  0
VERTEX
  8
0
 10
487.510564
 20
291.383569
 42
-0.002695
  0
VERTEX
  8
0
 10
490.659911
 20
290.332515
 42
-0.095364
  0
VERTEX
  8
0
 10
491.328830
 20
289.951594
 42
-0.261839
  0
VERTEX
  8
0
 10
491.565120
 20
289.305892
 42
-0.005617
  0
VERTEX
  8
0
 10
490.964808
 20
285.862604
 42
-0.011431
  0
VERTEX
  8
0
 10
490.104660
 20
281.760756
 42
-0.007276
  0
VERTEX
  8
0
 10
488.925717
 20
277.027604
 42
-0.027539
  0
VERTEX
  8
0
 10
483.414600
 20
260.041384
 42
-0.004131
  0
VERTEX
  8
0
 10
470.208278
 20
226.692471
 42
-0.002259
  0
VERTEX
  8
0
 10
455.986119
 20
192.077248
 42
-0.073561
  0
VERTEX
  8
0
 10
451.325704
 20
184.323831
 42
0.000000
  0
VERTEX
  8
0
 10
448.182147
 20
180.500000
 42
0.000000
  0
VERTEX
  8
0
 10
442.234627
 20
186.326641
 42
0.000000
  0
VERTEX
  8
0
 10
436.287106
 20
192.153283
 42
0.000000
  0
VERTEX
  8
0
 10
451.334293
 20
244.576641
 42
-0.001739
  0
VERTEX
  8
0
 10
457.179602
 20
264.677327
 42
-0.002878
  0
VERTEX
  8
0
 10
462.270871
 20
281.600638
 42
-0.000347
  0
VERTEX
  8
0
 10
466.887858
 20
296.596188
 42
-0.329011
  0
VERTEX
  8
0
 10
467.435105
 20
297.000000
 42
-0.062659
  0
VERTEX
  8
0
 10
468.184386
 20
296.905731
 42
-0.001677
  0
VERTEX
  8
0
 10
471.412133
 20
296.068937
 42
-0.003476
  0
VERTEX
  8
0
 10
475.200883
 20
295.044915
 42
-0.002371
  0
SEQEND
  0
POLYLINE
  8
0
 66
1
 70
1
  0
VERTEX
  8
0
 10
295.410058
 20
275.463077
 42
0.000000
  0
VERTEX
  8
0
 10
298.912935
 20
262.500000
 42
0.000000
  0
VERTEX
  8
0
 10
294.650026
 20
226.500000
 42
-0.000803
  0
VERTEX
  8
0
 10
291.894336
 20
203.544017
 42
-0.013455
  0
VERTEX
  8
0
 10
290.764935
 20
195.967909
 42
-0.088766
  0
VERTEX
  8
0
 10
289.849622
 20
193.475579
 42
-0.589590
  0
VERTEX
  8
0
 10
288.819003
 20
193.500000
 42
-0.012043
  0
VERTEX
  8
0
 10
287.743127
 20
195.684901
 42
-0.000344
  0
VERTEX
  8
0
 10
283.378607
 20
205.131917
 42
-0.000698
  0
VERTEX
  8
0
 10
278.266048
 20
216.258884
 42
-0.000480
  0
VERTEX
  8
0
 10
272.500535
 20
228.885251
 42
0.000000
  0
VERTEX
  8
0
 10
257.750180
 20
261.270502
 42
0.000000
  0
VERTEX
  8
0
 10
258.625090
 20
270.336016
 42
0.000000
  0
VERTEX
  8
0
 10
259.500000
 20
279.401529
 42
0.000000
  0
VERTEX
  8
0
 10
275.500000
 20
284.065073
 42
-0.001136
  0
VERTEX
  8
0
 10
281.649313
 20
285.842274
 42
-0.001869
  0
VERTEX
  8
0
 10
286.859805
 20
287.314277
 42
-0.000177
  0
VERTEX
  8
0
 10
291.522796
 20
288.611033
 42
-0.231451
  0
VERTEX
  8
0
 10
291.703590
 20
288.577385
 42
-0.165390
  0
VERTEX
  8
0
 10
291.813100
 20
288.418712
 42
-0.000208
  0
VERTEX
  8
0
 10
292.876346
 20
284.662674
 42
-0.001786
  0
VERTEX
  8
0
 10
294.052410
 20
280.443963
 42
-0.001095
  0
SEQEND
  0
POLYLINE
  8
0
 66
1
 70
1
  0
VERTEX
  8
0
 10
519.000000
 20
282.189904
 42
0.000000
  0
VERTEX
  8
0
 10
528.500000
 20
279.412466
 42
0.000000
  0
VERTEX
  8
0
 10
529.374910
 20
270.341484
 42
0.000000
  0
VERTEX
  8
0
 10
530.249820
 20
261.270502
 42
0.000000
  0
VERTEX
  8
0
 10
515.499465
 20
228.885251
 42
-0.000480
  0
VERTEX
  8
0
 10
509.733952
 20
216.258884
 42
-0.000698
  0
VERTEX
  8
0
 10
504.621393
 20
205.131917
 42
-0.000344
  0
VERTEX
  8
0
 10
500.256873
 20
195.684901
 42
-0.012043
  0
VERTEX
  8
0
 10
499.180997
 20
193.500000
 42
-0.589850
  0
VERTEX
  8
0
 10
498.151046
 20
193.475992
 42
-0.088683
  0
VERTEX
  8
0
 10
497.237072
 20
195.969354
 42
-0.013447
  0
VERTEX
  8
0
 10
496.110768
 20
203.546833
 42
-0.000803
  0
VERTEX
  8
0
 10
493.364993
 20
226.500000
 42
0.000000
  0
VERTEX
  8
0
 10
489.117103
 20
262.500000
 42
0.000000
  0
VERTEX
  8
0
 10
492.687106
 20
275.636566
 42
0.000000
  0
VERTEX
  8
0
 10
496.257109
 20
288.773133
 42
0.000000
  0
VERTEX
  8
0
 10
502.878554
 20
286.870237
 42
-0.000472
  0
VERTEX
  8
0
 10
506.082844
 20
285.946098
 42
-0.000205
  0
VERTEX
  8
0
 10
510.345575
 20
284.710445
 42
-0.000202
  0
VERTEX
  8
0
 10
514.878382
 20
283.392503
 42
-0.000269
  0
SEQEND
  0
POLYLINE
  8
0
 66
1
 70
1
  0
VERTEX
  8
0
 10
415.500000
 20
245.563954
 42
-0.015860
  0
VERTEX
  8
0
 10
422.424014
 20
243.552673
 42
-0.046152
  0
VERTEX
  8
0
 10
426.994523
 20
241.584338
 42
-0.077521
  0
VERTEX
  8
0
 10
429.581801
 20
239.602632
 42
-0.240457
  0
VERTEX
  8
0
 10
430.192940
 20
237.558263
 42
-0.038556
  0
VERTEX
  8
0
 10
429.902550
 20
236.460241
 42
-0.002389
  0
VERTEX
  8
0
 10
428.777039
 20
233.282501
 42
-0.003529
  0
VERTEX
  8
0
 10
427.389914
 20
229.508669
 42
-0.002608
  0
VERTEX
  8
0
 10
425.804041
 20
225.352394
 42
-0.003791
  0
VERTEX
  8
0
 10
423.147943
 20
218.650070
 42
-0.052658
  0
VERTEX
  8
0
 10
421.924286
 20
216.356547
 42
-0.176148
  0
VERTEX
  8
0
 10
420.738839
 20
215.498108
 42
-0.131305
  0
VERTEX
  8
0
 10
419.111100
 20
215.470573
 42
0.014790
  0
VERTEX
  8
0
 10
413.750480
 20
216.639096
 42
0.117976
  0
VERTEX
  8
0
 10
411.239586
 20
216.513903
 42
0.110460
  0
VERTEX
  8
0
 10
408.986219
 20
215.269055
 42
0.012268
  0
VERTEX
  8
0
 10
404.655427
 20
211.240351
 42
-0.007906
  0
VERTEX
  8
0
 10
402.134459
 20
208.853878
 42
-0.009064
  0
VERTEX
  8
0
 10
399.649872
 20
206.656825
 42
-0.008321
  0
VERTEX
  8
0
 10
397.482706
 20
204.870774
 42
-0.050262
  0
VERTEX
  8
0
 10
396.259031
 20
204.082621
 42
-0.147174
  0
VERTEX
  8
0
 10
393.826275
 20
203.641148
 42
-0.098813
  0
VERTEX
  8
0
 10
391.116375
 20
204.508365
 42
-0.056474
  0
VERTEX
  8
0
 10
387.734592
 20
206.920273
 42
-0.015777
  0
VERTEX
  8
0
 10
383.034160
 20
211.422963
 42
0.020256
  0
VERTEX
  8
0
 10
379.196454
 20
215.033883
 42
0.095712
  0
VERTEX
  8
0
 10
376.591790
 20
216.537729
 42
0.125087
  0
VERTEX
  8
0
 10
373.974389
 20
216.757811
 42
0.045527
  0
VERTEX
  8
0
 10
370.346131
 20
215.808200
 42
-0.019594
  0
VERTEX
  8
0
 10
369.041826
 20
215.393568
 42
-0.027617
  0
VERTEX
  8
0
 10
367.849676
 20
215.135242
 42
-0.026702
  0
VERTEX
  8
0
 10
366.884534
 20
215.033744
 42
-0.212303
  0
VERTEX
  8
0
 10
366.475795
 20
215.190872
 42
-0.097056
  0
VERTEX
  8
0
 10
366.142807
 20
215.686169
 42
-0.001438
  0
VERTEX
  8
0
 10
364.786079
 20
218.935745
 42
-0.003855
  0
VERTEX
  8
0
 10
363.247036
 20
222.734614
 42
-0.002529
  0
VERTEX
  8
0
 10
361.530278
 20
227.132672
 42
-0.010887
  0
VERTEX
  8
0
 10
358.428689
 20
235.754463
 42
-0.136005
  0
VERTEX
  8
0
 10
358.245873
 20
239.187666
 42
-0.225683
  0
VERTEX
  8
0
 10
359.965996
 20
241.399074
 42
-0.036292
  0
VERTEX
  8
0
 10
365.152616
 20
243.550691
 42
-0.030485
  0
VERTEX
  8
0
 10
378.177868
 20
247.011948
 42
-0.039725
  0
VERTEX
  8
0
 10
390.421740
 20
248.480527
 42
-0.040230
  0
VERTEX
  8
0
 10
402.618777
 20
247.986878
 42
-0.032540
  0
SEQEND
  0
POLYLINE
  8
0
 66
1
 70
1
  0
VERTEX
  8
0
 10
275.065906
 20
176.964070
 42
0.001013
  0
VERTEX
  8
0
 10
285.192016
 20
156.914502
 42
0.001608
  0
VERTEX
  8
0
 10
293.950194
 20
139.797005
 42
0.000330
  0
VERTEX
  8
0
 10
301.714667
 20
124.765685
 42
0.077136
  0
VERTEX
  8
0
 10
302.633237
 20
123.509620
 42
-0.064689
  0
VERTEX
  8
0
 10
305.336276
 20
119.999342
 42
-0.007513
  0
VERTEX
  8
0
 10
310.206810
 20
111.332266
 42
-0.002983
  0
VERTEX
  8
0
 10
315.214965
 20
101.965187
 42
-0.290216
  0
VERTEX
  8
0
 10
315.099569
 20
100.523887
 42
-0.004625
  0
VERTEX
  8
0
 10
314.568916
 20
99.831691
 42
-0.000247
  0
VERTEX
  8
0
 10
312.861495
 20
97.648875
 42
-0.000387
  0
VERTEX
  8
0
 10
310.827321
 20
95.055112
 42
-0.000282
  0
VERTEX
  8
0
 10
308.561877
 20
92.174411
 42
-0.004856
  0
VERTEX
  8
0
 10
305.094532
 20
87.857430
 42
-0.054404
  0
VERTEX
  8
0
 10
303.524471
 20
86.317525
 42
-0.217767
  0
VERTEX
  8
0
 10
302.491044
 20
86.066639
 42
-0.200619
  0
VERTEX
  8
0
 10
301.576725
 20
86.674411
 42
-0.020058
  0
VERTEX
  8
0
 10
300.679126
 20
88.144875
 42
-0.000084
  0
VERTEX
  8
0
 10
291.504068
 20
104.634046
 42
-0.000418
  0
VERTEX
  8
0
 10
281.106690
 20
123.364150
 42
-0.000263
  0
VERTEX
  8
0
 10
268.996463
 20
145.250000
 42
0.000999
  0
VERTEX
  8
0
 10
256.914223
 20
167.009579
 42
0.001652
  0
VERTEX
  8
0
 10
246.614294
 20
185.329688
 42
0.000126
  0
VERTEX
  8
0
 10
237.321735
 20
201.721294
 42
0.269990
  0
VERTEX
  8
0
 10
236.843219
 20
202.000000
 42
0.155696
  0
VERTEX
  8
0
 10
236.296001
 20
201.825367
 42
0.001480
  0
VERTEX
  8
0
 10
232.841513
 20
199.355077
 42
0.004765
  0
VERTEX
  8
0
 10
228.880683
 20
196.447251
 42
0.003045
  0
VERTEX
  8
0
 10
224.330379
 20
192.996007
 42
-0.006609
  0
VERTEX
  8
0
 10
219.783463
 20
189.598111
 42
-0.010852
  0
VERTEX
  8
0
 10
215.837143
 20
186.858423
 42
-0.004668
  0
VERTEX
  8
0
 10
212.474655
 20
184.675504
 42
-0.356093
  0
VERTEX
  8
0
 10
211.878466
 20
184.746007
 42
-0.110077
  0
VERTEX
  8
0
 10
211.513509
 20
185.341761
 42
-0.005518
  0
VERTEX
  8
0
 10
210.791369
 20
187.525814
 42
-0.008646
  0
VERTEX
  8
0
 10
210.001018
 20
190.164705
 42
-0.006131
  0
VERTEX
  8
0
 10
209.202142
 20
193.150380
 42
0.000000
  0
VERTEX
  8
0
 10
207.255337
 20
200.800760
 42
0.000000
  0
VERTEX
  8
0
 10
214.877669
 20
208.310364
 42
-0.015733
  0
VERTEX
  8
0
 10
219.464065
 20
212.553018
 42
-0.029268
  0
VERTEX
  8
0
 10
223.475303
 20
215.643733
 42
-0.024762
  0
VERTEX
  8
0
 10
228.245559
 20
218.558352
 42
-0.008244
  0
VERTEX
  8
0
 10
235.500000
 20
222.357844
 42
-0.000303
  0
VERTEX
  8
0
 10
240.499193
 20
224.868209
 42
-0.000495
  0
VERTEX
  8
0
 10
244.742511
 20
226.990535
 42
-0.000045
  0
VERTEX
  8
0
 10
248.546612
 20
228.888051
 42
-0.054457
  0
VERTEX
  8
0
 10
248.708548
 20
228.947860
 42
-0.349938
  0
VERTEX
  8
0
 10
248.834022
 20
228.890581
 42
-0.000013
  0
VERTEX
  8
0
 10
256.537048
 20
213.699130
 42
-0.000562
  0
VERTEX
  8
0
 10
265.024213
 20
196.913389
 42
-0.000337
  0
SEQEND
  0
POLYLINE
  8
0
 66
1
 70
1
  0
VERTEX
  8
0
 10
573.122331
 20
208.310601
 42
0.000000
  0
VERTEX
  8
0
 10
580.744663
 20
200.800760
 42
0.000000
  0
VERTEX
  8
0
 10
578.797858
 20
193.150380
 42
-0.005781
  0
VERTEX
  8
0
 10
578.002004
 20
190.167638
 42
-0.008226
  0
VERTEX
  8
0
 10
577.220851
 20
187.538034
 42
-0.005049
  0
VERTEX
  8
0
 10
576.509190
 20
185.356287
 42
-0.111083
  0
VERTEX
  8
0
 10
576.163136
 20
184.787610
 42
-0.356534
  0
VERTEX
  8
0
 10
575.596806
 20
184.720525
 42
-0.004151
  0
VERTEX
  8
0
 10
572.209846
 20
186.917186
 42
-0.010216
  0
VERTEX
  8
0
 10
568.246406
 20
189.652642
 42
-0.006218
  0
VERTEX
  8
0
 10
563.671139
 20
193.037610
 42
0.002868
  0
VERTEX
  8
0
 10
559.092237
 20
196.472967
 42
0.004502
  0
VERTEX
  8
0
 10
555.113614
 20
199.367298
 42
0.001334
  0
VERTEX
  8
0
 10
551.638347
 20
201.833944
 42
0.154867
  0
VERTEX
  8
0
 10
551.115082
 20
202.000000
 42
0.270116
  0
VERTEX
  8
0
 10
550.659585
 20
201.734559
 42
0.000114
  0
VERTEX
  8
0
 10
541.369134
 20
185.329688
 42
0.001572
  0
VERTEX
  8
0
 10
531.075526
 20
167.009640
 42
0.000951
  0
VERTEX
  8
0
 10
518.993354
 20
145.250000
 42
-0.000255
  0
VERTEX
  8
0
 10
506.880332
 20
123.363092
 42
-0.000404
  0
VERTEX
  8
0
 10
496.480232
 20
104.629588
 42
-0.000082
  0
VERTEX
  8
0
 10
487.304841
 20
88.139937
 42
-0.019299
  0
VERTEX
  8
0
 10
486.404078
 20
86.659237
 42
-0.210794
  0
VERTEX
  8
0
 10
485.473100
 20
86.062285
 42
-0.211164
  0
VERTEX
  8
0
 10
484.405515
 20
86.348056
 42
-0.051801
  0
VERTEX
  8
0
 10
482.760226
 20
87.979820
 42
-0.004583
  0
VERTEX
  8
0
 10
479.092277
 20
92.544988
 42
-0.004264
  0
VERTEX
  8
0
 10
476.757404
 20
95.558686
 42
-0.006521
  0
VERTEX
  8
0
 10
474.789606
 20
98.214996
 42
-0.002685
  0
VERTEX
  8
0
 10
473.154667
 20
100.509108
 42
-0.154668
  0
VERTEX
  8
0
 10
473.000000
 20
100.997144
 42
-0.125205
  0
VERTEX
  8
0
 10
473.134516
 20
101.525907
 42
-0.000775
  0
VERTEX
  8
0
 10
475.513634
 20
105.883156
 42
-0.003109
  0
VERTEX
  8
0
 10
478.276947
 20
110.851889
 42
-0.001969
  0
VERTEX
  8
0
 10
481.557053
 20
116.611392
 42
0.009081
  0
VERTEX
  8
0
 10
486.308995
 20
125.238354
 42
0.001645
  0
VERTEX
  8
0
 10
494.788162
 20
141.445090
 42
0.001772
  0
VERTEX
  8
0
 10
504.587414
 20
160.490664
 42
0.001604
  0
VERTEX
  8
0
 10
514.582839
 20
180.244234
 42
0.000000
  0
VERTEX
  8
0
 10
539.051572
 20
228.988468
 42
0.000000
  0
VERTEX
  8
0
 10
552.275786
 20
222.404456
 42
-0.007911
  0
VERTEX
  8
0
 10
559.717594
 20
218.551246
 42
-0.025230
  0
VERTEX
  8
0
 10
564.503933
 20
215.655822
 42
-0.030198
  0
VERTEX
  8
0
 10
568.501989
 20
212.585675
 42
-0.015682
  0
SEQEND
  0
POLYLINE
  8
0
 66
1
 70
1
  0
VERTEX
  8
0
 10
354.741455
 20
132.011347
 42
0.000000
  0
VERTEX
  8
0
 10
392.000000
 20
74.522693
 42
0.000000
  0
VERTEX
  8
0
 10
392.000000
 20
59.702330
 42
-0.004811
  0
VERTEX
  8
0
 10
391.945623
 20
54.051343
 42
-0.008412
  0
VERTEX
  8
0
 10
391.776823
 20
49.373379
 42
-0.003327
  0
VERTEX
  8
0
 10
391.546457
 20
45.509190
 42
-0.565338
  0
VERTEX
  8
0
 10
391.240249
 20
45.351518
 42
-0.081069
  0
VERTEX
  8
0
 10
390.705933
 20
45.815779
 42
-0.000108
  0
VERTEX
  8
0
 10
381.894039
 20
56.418042
 42
-0.000931
  0
VERTEX
  8
0
 10
372.042812
 20
68.321005
 42
-0.000573
  0
VERTEX
  8
0
 10
360.490249
 20
82.365421
 42
0.000792
  0
VERTEX
  8
0
 10
348.951523
 20
96.380522
 42
0.001304
  0
VERTEX
  8
0
 10
339.146911
 20
108.188121
 42
0.000096
  0
VERTEX
  8
0
 10
330.315297
 20
118.763567
 42
0.201035
  0
VERTEX
  8
0
 10
329.946044
 20
118.954886
 42
0.239204
  0
VERTEX
  8
0
 10
329.601671
 20
118.814004
 42
0.002893
  0
VERTEX
  8
0
 10
327.986363
 20
116.923650
 42
0.007858
  0
VERTEX
  8
0
 10
326.139384
 20
114.665630
 42
0.004965
  0
VERTEX
  8
0
 10
324.052688
 20
111.976689
 42
-0.003692
  0
VERTEX
  8
0
 10
321.988727
 20
109.303015
 42
-0.006236
  0
VERTEX
  8
0
 10
320.214584
 20
107.096761
 42
-0.001600
  0
VERTEX
  8
0
 10
318.661932
 20
105.226728
 42
-0.467393
  0
VERTEX
  8
0
 10
318.484681
 20
105.226689
 42
-0.041691
  0
VERTEX
  8
0
 10
318.322159
 20
105.457629
 42
-0.000101
  0
VERTEX
  8
0
 10
316.268710
 20
108.964743
 42
-0.000655
  0
VERTEX
  8
0
 10
313.959717
 20
112.922009
 42
-0.000407
  0
VERTEX
  8
0
 10
311.261972
 20
117.568182
 42
0.000000
  0
VERTEX
  8
0
 10
304.267869
 20
129.636363
 42
0.000000
  0
VERTEX
  8
0
 10
308.590594
 20
162.568182
 42
0.000015
  0
VERTEX
  8
0
 10
310.252242
 20
175.230101
 42
0.000025
  0
VERTEX
  8
0
 10
311.661199
 20
185.973153
 42
0.000002
  0
VERTEX
  8
0
 10
312.922785
 20
195.596581
 42
0.002637
  0
VERTEX
  8
0
 10
312.973507
 20
196.000000
 42
-0.655766
  0
VERTEX
  8
0
 10
313.098697
 20
196.037381
 42
-0.012310
  0
VERTEX
  8
0
 10
313.669492
 20
195.325000
 42
-0.013947
  0
VERTEX
  8
0
 10
314.400135
 20
194.308006
 42
-0.007228
  0
VERTEX
  8
0
 10
315.258301
 20
193.000000
 42
0.002061
  0
VERTEX
  8
0
 10
316.950449
 20
190.361810
 42
0.000026
  0
VERTEX
  8
0
 10
327.774128
 20
173.640833
 42
0.000076
  0
VERTEX
  8
0
 10
340.301164
 20
154.297103
 42
0.000050
  0
SEQEND
  0
POLYLINE
  8
0
 66
1
 70
1
  0
VERTEX
  8
0
 10
479.549427
 20
161.848724
 42
0.000000
  0
VERTEX
  8
0
 10
483.878368
 20
128.584602
 42
0.000000
  0
VERTEX
  8
0
 10
477.189184
 20
116.826574
 42
-0.003637
  0
VERTEX
  8
0
 10
474.579829
 20
112.316584
 42
-0.005837
  0
VERTEX
  8
0
 10
472.281540
 20
108.512398
 42
-0.001617
  0
VERTEX
  8
0
 10
470.244409
 20
105.251342
 42
-0.243221
  0
VERTEX
  8
0
 10
469.875634
 20
105.034272
 42
-0.230169
  0
VERTEX
  8
0
 10
469.491157
 20
105.195750
 42
-0.003532
  0
VERTEX
  8
0
 10
467.871433
 20
107.066318
 42
-0.008635
  0
VERTEX
  8
0
 10
466.014496
 20
109.319362
 42
-0.005506
  0
VERTEX
  8
0
 10
463.929590
 20
112.000000
 42
0.005032
  0
VERTEX
  8
0
 10
461.849681
 20
114.679457
 42
0.007970
  0
VERTEX
  8
0
 10
460.008431
 20
116.928218
 42
0.002950
  0
VERTEX
  8
0
 10
458.398463
 20
118.809163
 42
0.242632
  0
VERTEX
  8
0
 10
458.053956
 20
118.947124
 42
0.197642
  0
VERTEX
  8
0
 10
457.684777
 20
118.752375
 42
0.000097
  0
VERTEX
  8
0
 10
448.997100
 20
108.331174
 42
0.001309
  0
VERTEX
  8
0
 10
439.350729
 20
96.693589
 42
0.000795
  0
VERTEX
  8
0
 10
428.000000
 20
82.881970
 42
-0.000597
  0
VERTEX
  8
0
 10
416.601573
 20
69.001098
 42
-0.000945
  0
VERTEX
  8
0
 10
406.798437
 20
57.137720
 42
-0.000198
  0
VERTEX
  8
0
 10
398.150361
 20
46.720717
 42
-0.043891
  0
VERTEX
  8
0
 10
397.250000
 20
45.812401
 42
-0.544115
  0
VERTEX
  8
0
 10
396.623622
 20
46.002434
 42
-0.047383
  0
VERTEX
  8
0
 10
396.253276
 20
47.982334
 42
-0.019378
  0
VERTEX
  8
0
 10
396.048966
 20
51.948391
 42
-0.003182
  0
VERTEX
  8
0
 10
396.000185
 20
59.627555
 42
0.000000
  0
VERTEX
  8
0
 10
396.000370
 20
74.500000
 42
0.000000
  0
VERTEX
  8
0
 10
435.250185
 20
135.131731
 42
-0.000622
  0
VERTEX
  8
0
 10
450.326597
 20
158.357885
 42
-0.001039
  0
VERTEX
  8
0
 10
463.076188
 20
177.857332
 42
-0.000044
  0
VERTEX
  8
0
 10
474.604159
 20
195.405328
 42
-0.459818
  0
VERTEX
  8
0
 10
474.860243
 20
195.438155
 42
-0.176058
  0
VERTEX
  8
0
 10
475.033020
 20
195.112484
 42
-0.000130
  0
VERTEX
  8
0
 10
476.386292
 20
185.437070
 42
-0.001444
  0
VERTEX
  8
0
 10
477.863744
 20
174.625941
 42
-0.000880
  0
SEQEND
  0
POLYLINE
  8
0
 66
1
 70
1
  0
VERTEX
  8
0
 10
374.784764
 20
180.543087
 42
0.000000
  0
VERTEX
  8
0
 10
394.050961
 20
172.086174
 42
0.000000
  0
VERTEX
  8
0
 10
413.396696
 20
180.543087
 42
-0.001619
  0
VERTEX
  8
0
 10
420.878078
 20
183.784730
 42
-0.002545
  0
VERTEX
  8
0
 10
427.327799
 20
186.515782
 42
-0.000646
  0
VERTEX
  8
0
 10
432.974944
 20
188.864593
 42
-0.098534
  0
VERTEX
  8
0
 10
433.655376
 20
189.000000
 42
-0.173199
  0
VERTEX
  8
0
 10
434.216312
 20
188.799684
 42
-0.007003
  0
VERTEX
  8
0
 10
435.891038
 20
187.389094
 42
-0.011557
  0
VERTEX
  8
0
 10
437.842729
 20
185.617328
 42
-0.007856
  0
VERTEX
  8
0
 10
439.984134
 20
183.516065
 42
0.000000
  0
VERTEX
  8
0
 10
445.399949
 20
178.032130
 42
0.000000
  0
VERTEX
  8
0
 10
436.421888
 20
168.766065
 42
0.000599
  0
VERTEX
  8
0
 10
431.847721
 20
164.033835
 42
0.000200
  0
VERTEX
  8
0
 10
425.172956
 20
157.106289
 42
0.000199
  0
VERTEX
  8
0
 10
417.790520
 20
149.431997
 42
0.000228
  0
VERTEX
  8
0
 10
410.735141
 20
142.085133
 42
0.000000
  0
VERTEX
  8
0
 10
394.026454
 20
124.670266
 42
0.000000
  0
VERTEX
  8
0
 10
377.791393
 20
141.585133
 42
0.000285
  0
VERTEX
  8
0
 10
370.880809
 20
148.776877
 42
0.000239
  0
VERTEX
  8
0
 10
363.540737
 20
156.399593
 42
0.000241
  0
VERTEX
  8
0
 10
356.824563
 20
163.361023
 42
0.000661
  0
VERTEX
  8
0
 10
352.076691
 20
168.264545
 42
0.000000
  0
VERTEX
  8
0
 10
342.597050
 20
178.029091
 42
0.000000
  0
VERTEX
  8
0
 10
348.014365
 20
183.514545
 42
-0.008968
  0
VERTEX
  8
0
 10
350.165713
 20
185.616195
 42
-0.012961
  0
VERTEX
  8
0
 10
352.146855
 20
187.388648
 42
-0.008625
  0
VERTEX
  8
0
 10
353.845172
 20
188.780899
 42
-0.168940
  0
VERTEX
  8
0
 10
354.475123
 20
189.000000
 42
-0.098119
  0
VERTEX
  8
0
 10
355.245827
 20
188.847289
 42
-0.000835
  0
VERTEX
  8
0
 10
360.871501
 20
186.515782
 42
-0.002904
  0
VERTEX
  8
0
 10
367.324758
 20
183.784573
 42
-0.001863
  0
SEQEND
  0
ENDSEC
  0
EOF
