<?xml version="1.0" encoding="UTF-8"?>
<svg width="752pt" height="752pt" version="1.1" viewBox="0 0 752 752" xmlns="http://www.w3.org/2000/svg">
 <defs>
  <clipPath id="c">
   <path d="m147 190h458v422.79h-458z"/>
  </clipPath>
  <clipPath id="b">
   <path d="m162 299h428v313.79h-428z"/>
  </clipPath>
  <clipPath id="a">
   <path d="m139.21 139.21h473.58v473.58h-473.58z"/>
  </clipPath>
 </defs>
 <g clip-path="url(#c)">
  <path transform="matrix(4.6889 0 0 4.6889 139.21 139.21)" d="m47.21 53.45h6.5797c1.657 0 2.9999 1.657 2.9999 2.9999v17.26c0 1.657-1.3429 2.9999-2.9999 2.9999h-6.5797c-1.657 0-2.9999-1.657-2.9999-2.9999v-17.26c0-1.657 1.3429-2.9999 2.9999-2.9999z" fill="none" stroke="#000" stroke-miterlimit="10" stroke-width="3"/>
 </g>
 <path transform="matrix(4.6889 0 0 4.6889 139.21 139.21)" d="m54.86 53.45v-22s-3.2698-2.3301 0-7.0004l-4.4003-6.7396h0.089972l-4.4003 6.7396c3.2698 4.7202 0 7.2203 0 7.2203l8.33e-4 21.78" fill="none" stroke="#000" stroke-linejoin="round" stroke-width="2"/>
 <path transform="matrix(4.6889 0 0 4.6889 139.21 139.21)" d="m46.14 38.17h8.7199" fill="none" stroke="#000" stroke-linejoin="round" stroke-width="2"/>
 <path transform="matrix(4.6889 0 0 4.6889 139.21 139.21)" d="m46.14 32.08h8.7199" fill="none" stroke="#000" stroke-linejoin="round" stroke-width="2"/>
 <g clip-path="url(#b)">
  <path transform="matrix(4.6889 0 0 4.6889 139.21 139.21)" d="m48.37 76.71h4.2504c0.55233 0 0.9997 0.55233 0.9997 0.9997v4.6603c0 0.55233-0.44736 0.9997-0.9997 0.9997h-4.2504c-0.55233 0-0.9997-0.55233-0.9997-0.9997v-4.6603c0-0.55233 0.44736-0.9997 0.9997-0.9997z" fill="none" stroke="#000" stroke-miterlimit="10" stroke-width="3"/>
 </g>
 <g clip-path="url(#a)">
  <path transform="matrix(4.6889 0 0 4.6889 139.21 139.21)" d="m100.5 50.5c0 27.614-22.387 50.001-50.001 50.001-27.614 0-50-22.387-50-50.001 0-27.614 22.386-50 50-50 27.614 0 50.001 22.386 50.001 50" fill="none" stroke="#000" stroke-miterlimit="10"/>
 </g>
</svg>
