<?xml version="1.0" encoding="UTF-8"?>
<svg width="752pt" height="752pt" version="1.1" viewBox="0 0 752 752" xmlns="http://www.w3.org/2000/svg">
 <g>
  <path d="m376 169.99c-44.699-0.046876-88.188 14.523-123.84 41.488h-19.371c-3.8789 0-7.6016 1.5391-10.348 4.2852-2.7422 2.7461-4.2852 6.4648-4.2852 10.348v17.477c-30.113 35.906-47.078 81.008-48.094 127.86-1.0117 46.855 13.984 92.648 42.516 129.82 28.535 37.176 68.895 63.508 114.41 74.645 45.52 11.141 93.477 6.418 135.95-13.387 42.473-19.801 76.922-53.5 97.652-95.527 20.734-42.027 26.512-89.871 16.375-135.62-10.133-45.754-35.57-86.684-72.109-116.02-36.539-29.344-81.996-45.344-128.86-45.363zm0 402.54v0.003906c-52.125 0-102.11-20.707-138.97-57.566-36.859-36.855-57.566-86.848-57.566-138.97s20.707-102.11 57.566-138.97c36.855-36.859 86.844-57.566 138.97-57.566s102.12 20.707 138.97 57.566c36.859 36.855 57.566 86.844 57.566 138.97-0.0625 52.105-20.789 102.06-57.637 138.9-36.844 36.848-86.797 57.574-138.9 57.637z"/>
  <path d="m309.18 385.8c0 19.145-15.52 34.664-34.668 34.664-19.145 0-34.664-15.52-34.664-34.664 0-19.145 15.52-34.668 34.664-34.668 19.148 0 34.668 15.523 34.668 34.668"/>
  <path d="m511.35 385.8c0 19.145-15.52 34.664-34.668 34.664-19.145 0-34.664-15.52-34.664-34.664 0-19.145 15.52-34.668 34.664-34.668 19.148 0 34.668 15.523 34.668 34.668"/>
  <path d="m410.67 476.3c0 19.148-15.52 34.668-34.668 34.668-19.145 0-34.664-15.52-34.664-34.668 0-19.145 15.52-34.664 34.664-34.664 19.148 0 34.668 15.52 34.668 34.664"/>
  <path d="m488.62 263-0.66016-0.66016h-223.91l-0.71094 0.66406v-0.003906c-30.656 30.012-48.066 71.02-48.371 113.92-0.30469 42.898 16.523 84.148 46.754 114.59 30.23 30.445 71.355 47.566 114.26 47.566 42.902 0 84.031-17.121 114.26-47.566 30.227-30.441 47.055-71.691 46.754-114.59-0.30469-42.902-17.715-83.91-48.375-113.92zm-112.62 271.55c-41.582 0.054687-81.473-16.469-110.84-45.91-29.371-29.441-45.793-69.371-45.637-110.96 0.15625-41.582 16.879-81.391 46.465-110.61h220.03c29.586 29.219 46.309 69.027 46.465 110.61 0.15625 41.586-16.27 81.516-45.637 110.96-29.367 29.441-69.258 45.965-110.84 45.91z"/>
 </g>
</svg>
