<?xml version="1.0" encoding="UTF-8"?>
<svg width="752pt" height="752pt" version="1.1" viewBox="0 0 752 752" xmlns="http://www.w3.org/2000/svg">
 <g>
  <path d="m376 142.38c-61.957 0-121.38 24.613-165.19 68.426s-68.426 103.23-68.426 165.19c0 61.961 24.613 121.38 68.426 165.2 43.812 43.809 103.23 68.422 165.19 68.422 61.961 0 121.38-24.613 165.2-68.422 43.809-43.812 68.422-103.23 68.422-165.2-0.074219-61.934-24.711-121.31-68.508-165.11-43.793-43.793-103.17-68.43-165.11-68.508zm0 457.81c-59.441 0-116.45-23.613-158.49-65.645-42.035-42.035-65.652-99.043-65.656-158.48-0.003907-59.445 23.605-116.46 65.633-158.5 42.031-42.039 99.039-65.66 158.48-65.668 59.445-0.007813 116.46 23.598 158.5 65.625 42.039 42.023 65.664 99.031 65.68 158.47-0.078126 59.426-23.715 116.39-65.734 158.41-42.02 42.02-98.988 65.656-158.41 65.734z"/>
  <path d="m526.46 246v-16.812c0-4.5586-1.8086-8.9336-5.0352-12.156-3.2227-3.2227-7.5938-5.0352-12.156-5.0352h-20.27c-41.66-28.836-92.742-40.723-142.86-33.238s-95.492 33.773-126.91 73.527c-31.418 39.75-46.516 89.98-42.219 140.46 4.2969 50.488 27.66 97.441 65.344 131.31 37.684 33.871 86.855 52.117 137.51 51.027s98.996-21.438 135.19-56.898c36.188-35.465 57.512-83.383 59.629-134 2.1211-50.625-15.125-100.16-48.227-138.52zm-251.95 174.46c-9.1914 0-18.012-3.6523-24.512-10.152s-10.152-15.316-10.152-24.512c0-9.1953 3.6523-18.012 10.152-24.512 6.5-6.5039 15.32-10.156 24.512-10.156 9.1953 0 18.012 3.6523 24.516 10.156 6.5 6.5 10.152 15.316 10.152 24.512 0 9.1953-3.6523 18.012-10.152 24.512-6.5039 6.5-15.32 10.152-24.516 10.152zm101.49 90.504c-9.1914 0-18.012-3.6523-24.512-10.152-6.5-6.5039-10.152-15.32-10.152-24.516 0-9.1914 3.6523-18.012 10.152-24.512s15.32-10.152 24.512-10.152c9.1953 0 18.012 3.6523 24.516 10.152 6.5 6.5 10.152 15.32 10.152 24.512 0 9.1953-3.6523 18.012-10.152 24.516-6.5039 6.5-15.32 10.152-24.516 10.152zm100.68-90.504c-9.1914 0-18.012-3.6523-24.512-10.152s-10.152-15.316-10.152-24.512c0-9.1953 3.6523-18.012 10.152-24.512 6.5-6.5039 15.32-10.156 24.512-10.156 9.1953 0 18.012 3.6523 24.516 10.156 6.5 6.5 10.152 15.316 10.152 24.512 0 9.1953-3.6523 18.012-10.152 24.512-6.5039 6.5-15.32 10.152-24.516 10.152z"/>
 </g>
</svg>
