<?xml version="1.0" encoding="UTF-8"?>
<svg width="752pt" height="752pt" version="1.1" viewBox="0 0 752 752" xmlns="http://www.w3.org/2000/svg">
 <defs>
  <clipPath id="a">
   <path d="m152 148h460.79v433h-460.79z"/>
  </clipPath>
 </defs>
 <path d="m238.66 406.5c-4.1133-1.1875-8.332-1.9648-12.598-2.3203l-14.586 12.359c4.8125 0.28125 9.5781 1.1094 14.207 2.4648 9.5117 2.8711 18.523 7.1992 26.711 12.832l13.969-11.84c-8.457-5.9453-17.809-10.504-27.703-13.496z"/>
 <g clip-path="url(#a)">
  <path d="m612.79 148.68-73.121 62.086c-15.391-10.844-32.676-13.543-45.891-6.0625l-172.2 97.367c-0.23828 0.16797-0.45703 0.35938-0.66016 0.57031l-153.77 130.19-1.1367 0.89844c-11.84 10.844-16.008 28.414-11.84 49.68 8.0508 40.68 45.746 82.781 84.062 93.816 5.9609 1.7891 12.148 2.7305 18.375 2.793 9.8867 0.19922 19.516-3.1641 27.133-9.4727l153.82-130.09c0.25391-0.15234 0.49219-0.32422 0.71094-0.52344l124.32-153.91c9.4727-11.793 9.707-29.316 1.5156-46.27l48.684-41.293zm-334.11 414.1c-8.668 7.957-22.117 9.8984-37.887 5.3516-35.281-10.133-69.852-48.969-77.289-86.523-3.5039-17.809-0.33203-32.344 8.9492-40.871h0.003906c6.0781-5.3555 13.973-8.1836 22.066-7.9062 5.3281 0.0625 10.621 0.875 15.727 2.4141 10.238 3.2344 19.852 8.1992 28.414 14.68l-33.152 28.414v0.003906c-3.3711 2.8398-5.4688 6.9102-5.8242 11.309-0.35547 4.3945 1.0625 8.75 3.9336 12.094 2.875 3.3477 6.9648 5.4062 11.363 5.7227h1.043c3.9219 0.003906 7.7148-1.3906 10.703-3.9336l36.086-30.547v0.003907c3.2188 3.8086 6.2227 7.793 8.9961 11.934l-40.539 34.43c-3.3711 2.8398-5.4688 6.9102-5.8242 11.309-0.35547 4.3945 1.0625 8.75 3.9336 12.098 2.875 3.3438 6.9648 5.4023 11.363 5.7188h1.043c4.0469 0.10938 7.9883-1.2734 11.082-3.8828l16.434-13.875v-0.003906c1.1875 0.35938 2.4102 0.58203 3.6445 0.66406h1.043c3.8438-0.015624 7.5625-1.375 10.512-3.8359l3.5039-2.9375c2.75 16.531-0.51953 30.074-9.3281 38.172zm-69.996-80.98 34.098-28.938c6.2344 4.9453 12.004 10.445 17.238 16.434l-36.086 30.547c-4.8984 4.1641-12.227 3.6367-16.48-1.1836-2.0977-2.3789-3.1523-5.5039-2.918-8.668 0.23047-3.1602 1.7266-6.0977 4.1484-8.1445zm54.461 20.457h0.003907c-3.9844 3.2891-6.1797 8.2695-5.918 13.43 0.25781 5.1562 2.9453 9.8906 7.2422 12.758l-14.824 12.551c-2.4102 2.0156-5.5234 2.9922-8.6523 2.7109-3.1328-0.27734-6.0234-1.7891-8.0391-4.2031-4.1992-5.0195-3.5312-12.496 1.4922-16.691l40.02-33.957 1.4219 2.4141zm15.012-6.582h0.003906c3.8867 7.5 6.8281 15.453 8.7617 23.68l-5.4922 4.7344h-0.003907c-2.3867 2.0234-5.4766 3.0156-8.5938 2.7578-3.1172-0.25781-6.0039-1.7461-8.0273-4.1328-4.2109-4.9688-3.5977-12.41 1.375-16.621zm152.92-62.039-133.78 113.38c1.6484-8.918 1.5234-18.078-0.37891-26.945-8.0508-40.68-45.746-82.781-84.062-93.816-6.5156-2.0117-13.309-2.9844-20.125-2.8906l133.79-113.19c28.035-15.629 65.875 3.5508 88.891 30.734 27.23 32.113 33.672 70.188 15.723 92.73z"/>
 </g>
</svg>
