<?xml version="1.0" encoding="iso-8859-1"?>
<!-- Generator: Adobe Illustrator 16.0.0, SVG Export Plug-In . SVG Version: 6.00 Build 0)  -->
<!DOCTYPE svg PUBLIC "-//W3C//DTD SVG 1.1//EN" "http://www.w3.org/Graphics/SVG/1.1/DTD/svg11.dtd">
<svg version="1.1" id="Capa_1" xmlns="http://www.w3.org/2000/svg" xmlns:xlink="http://www.w3.org/1999/xlink" x="0px" y="0px"
	 width="612.006px" height="612.006px" viewBox="0 0 612.006 612.006" style="enable-background:new 0 0 612.006 612.006;"
	 xml:space="preserve">
<g id="arrows" transform="scale(0.5);">
    <path d="M67.079,299.982c1.255,0.245,2.526,0.342,3.78,0.342c4.367,0,8.636-1.434,12.139-4.122l81.826-62.942
        c8.717-6.729,10.346-19.243,3.666-27.943c-6.746-8.815-19.259-10.379-27.943-3.666l-40.343,31.055
        c30.664-85.834,113.044-146.495,207.09-146.495c102.535,0,190.635,69.557,214.243,169.143
        c2.526,10.705,13.149,17.401,23.968,14.794c10.688-2.525,17.304-13.263,14.778-23.967
        C532.422,128.542,428.388,46.374,307.294,46.374c-112.897,0-211.815,73.875-246.553,177.909L37.05,184.348
        c-5.605-9.483-17.841-12.53-27.275-6.974c-9.466,5.621-12.611,17.841-6.974,27.292l50.934,85.899
        C56.619,295.469,61.491,298.891,67.079,299.982z"/>
    <path d="M609.196,407.356l-50.934-85.899c-2.867-4.904-7.739-8.325-13.344-9.417c-5.605-1.092-11.405,0.325-15.919,3.779
        l-81.826,62.942c-8.717,6.713-10.347,19.21-3.666,27.943c6.696,8.749,19.227,10.33,27.943,3.649l40.425-31.104
        c-30.648,85.851-113.077,146.544-207.172,146.544c-102.519,0-190.618-69.557-214.243-169.143
        c-2.525-10.705-13.165-17.353-23.968-14.795c-10.688,2.525-17.32,13.264-14.794,23.968
        C79.56,483.464,183.61,565.632,304.704,565.632c112.849,0,211.816-73.842,246.602-177.812l23.642,39.854
        c3.715,6.289,10.363,9.776,17.125,9.776c3.471,0,6.974-0.896,10.167-2.786C611.689,429.043,614.851,416.807,609.196,407.356z"/>
</g>
</svg>
