<?xml version="1.0" encoding="UTF-8" standalone="no"?>
<!-- Created with Inkscape (http://www.inkscape.org/) -->

<svg
   width="158.75mm"
   height="158.75mm"
   viewBox="0 0 160 160"
   version="1.1"
   id="svg1"
   inkscape:version="1.3.2 (091e20e, 2023-11-25, custom)"
   sodipodi:docname="noteCircle.svg"
   xmlns:inkscape="http://www.inkscape.org/namespaces/inkscape"
   xmlns:sodipodi="http://sodipodi.sourceforge.net/DTD/sodipodi-0.dtd"
   xmlns="http://www.w3.org/2000/svg"
   xmlns:svg="http://www.w3.org/2000/svg">
  <sodipodi:namedview
     id="namedview1"
     pagecolor="#ffffff"
     bordercolor="#999999"
     borderopacity="1"
     inkscape:showpageshadow="0"
     inkscape:pageopacity="0"
     inkscape:pagecheckerboard="0"
     inkscape:deskcolor="#d1d1d1"
     inkscape:document-units="mm"
     inkscape:zoom="0.87833333"
     inkscape:cx="300"
     inkscape:cy="300"
     inkscape:window-width="1366"
     inkscape:window-height="705"
     inkscape:window-x="-8"
     inkscape:window-y="-8"
     inkscape:window-maximized="1"
     inkscape:current-layer="noteCircle" />
  <defs
     id="defs1" />
  <g
     inkscape:groupmode="layer"
     id="noteCircle"
     transform="translate(80, 80)"
     style="display:inline">
    <g
       id="noteCircle_base"
       style="display:inline">
      <circle
         id="circle1"
         cx="0"
         cy="0"
         r="80"
         style="fill:#818181;stroke:#000000;stroke-width:0.11;fill-opacity:1" />
      <g
         id="note_names">
        <g
           id="note1">
          <rect
             style="fill:#ffffff;fill-opacity:1;stroke:#ffffff;stroke-width:0.1;stroke-opacity:1"
             id="rect1"
             width="6.2831602"
             height="28.357565"
             x="-3.1415789"
             y="-52.963879" />
          <text
             xml:space="preserve"
             style="font-weight:bold;font-size:20px;line-height:10px;font-family:'Book Antiqua';text-align:center;text-anchor:middle;opacity:1;fill:#ffffff;fill-opacity:1;stroke-width:0.3"
             x="-0.11813112"
             y="-56.713943"
             id="text1"><tspan
               sodipodi:role="line"
               id="tspan3"
               style="font-style:normal;font-variant:normal;font-weight:bold;font-stretch:normal;font-size:20.1613px;font-family:'Book Antiqua';-inkscape-font-specification:'Book Antiqua, Bold';font-variant-ligatures:none;font-variant-caps:normal;font-variant-numeric:normal;font-variant-east-asian:normal;fill:#ffffff;fill-opacity:1;stroke-width:0.265;stroke-dasharray:none"
               x="-0.11813094"
               y="-56.713943">C</tspan></text>
        </g>
        <g
           id="note2"
           transform="rotate(30)">
          <rect
             style="fill:#000000;fill-opacity:1;stroke:#000000;stroke-width:0.1;stroke-opacity:1"
             id="rect2"
             width="6.2831602"
             height="28.357565"
             x="-3.1415789"
             y="-52.963879" />
          <text
             xml:space="preserve"
             style="font-weight:bold;font-size:8.5px;line-height:10px;font-family:'Book Antiqua';text-align:center;text-anchor:middle;opacity:1;fill:#000000;fill-opacity:1;stroke-width:0.3"
             x="0.46145588"
             y="-65.768173"
             id="text2"><tspan
               sodipodi:role="line"
               id="tspan31"
               x="0.46145588"
               y="-65.768173">C♯</tspan><tspan
               sodipodi:role="line"
               id="tspan30"
               x="0.46145588"
               y="-55.255032">D♭</tspan></text>
        </g>
        <g
           id="note3"
           transform="rotate(60)">
          <rect
             style="fill:#ffffff;fill-opacity:1;stroke:#ffffff;stroke-width:0.1;stroke-opacity:1"
             id="rect3"
             width="6.2831602"
             height="28.357565"
             x="-3.1415789"
             y="-52.963879" />
          <text
             xml:space="preserve"
             style="font-weight:bold;font-size:20px;line-height:10px;font-family:'Book Antiqua';text-align:center;text-anchor:middle;opacity:1;fill:#ffffff;fill-opacity:1;stroke-width:0.3"
             x="-0.11813112"
             y="-56.713943"
             id="text3"><tspan
               sodipodi:role="line"
               id="tspan33"
               style="font-style:normal;font-variant:normal;font-weight:bold;font-stretch:normal;font-size:20.1613px;font-family:'Book Antiqua';-inkscape-font-specification:'Book Antiqua, Bold';font-variant-ligatures:none;font-variant-caps:normal;font-variant-numeric:normal;font-variant-east-asian:normal;fill:#ffffff;fill-opacity:1;stroke-width:0.265;stroke-dasharray:none"
               x="-0.11813094"
               y="-56.713943">D</tspan></text>
        </g>
        <g
           id="note4"
           transform="rotate(90)">
          <rect
             style="fill:#000000;fill-opacity:1;stroke:#000000;stroke-width:0.1;stroke-opacity:1"
             id="rect4"
             width="6.2831602"
             height="28.357565"
             x="-3.1415789"
             y="-52.963879" />
          <text
             xml:space="preserve"
             style="font-weight:bold;font-size:8.5px;line-height:10px;font-family:'Book Antiqua';text-align:center;text-anchor:middle;opacity:1;fill:#000000;fill-opacity:1;stroke-width:0.3"
             x="0.46145588"
             y="-65.768173"
             id="text4"><tspan
               sodipodi:role="line"
               id="tspan34"
               x="0.46145588"
               y="-65.768173">D♯</tspan><tspan
               sodipodi:role="line"
               id="tspan35"
               x="0.46145588"
               y="-55.255032">E♭</tspan></text>
        </g>
        <g
           id="note5"
           transform="rotate(120)">
          <rect
             style="fill:#ffffff;fill-opacity:1;stroke:#ffffff;stroke-width:0.1;stroke-opacity:1"
             id="rect5"
             width="6.2831602"
             height="28.357565"
             x="-3.1415789"
             y="-52.963879" />
          <text
             xml:space="preserve"
             style="font-weight:bold;font-size:20px;line-height:10px;font-family:'Book Antiqua';text-align:center;text-anchor:middle;opacity:1;fill:#ffffff;fill-opacity:1;stroke-width:0.3"
             x="-0.11813112"
             y="-56.713943"
             id="text5"><tspan
               sodipodi:role="line"
               id="tspan37"
               style="font-style:normal;font-variant:normal;font-weight:bold;font-stretch:normal;font-size:20.1613px;font-family:'Book Antiqua';-inkscape-font-specification:'Book Antiqua, Bold';font-variant-ligatures:none;font-variant-caps:normal;font-variant-numeric:normal;font-variant-east-asian:normal;fill:#ffffff;fill-opacity:1;stroke-width:0.265;stroke-dasharray:none"
               x="-0.11813113"
               y="-56.713943">E</tspan></text>
        </g>
        <g
           id="note6"
           transform="rotate(150)">
          <rect
             style="fill:#ffffff;fill-opacity:1;stroke:#ffffff;stroke-width:0.1;stroke-opacity:1"
             id="rect6"
             width="6.2831602"
             height="28.357565"
             x="-3.1415789"
             y="-52.963879" />
          <text
             xml:space="preserve"
             style="font-weight:bold;font-size:20px;line-height:10px;font-family:'Book Antiqua';text-align:center;text-anchor:middle;opacity:1;fill:#ffffff;fill-opacity:1;stroke-width:0.3"
             x="-0.11813112"
             y="-56.713943"
             id="text6"><tspan
               sodipodi:role="line"
               id="tspan48"
               x="-0.11813112"
               y="-56.713943">F</tspan></text>
        </g>
        <g
           id="note7"
           transform="scale(-1)">
          <rect
             style="fill:#000000;fill-opacity:1;stroke:#000000;stroke-width:0.1;stroke-opacity:1"
             id="rect7"
             width="6.2831602"
             height="28.357565"
             x="-3.1415789"
             y="-52.963879" />
          <text
             xml:space="preserve"
             style="font-weight:bold;font-size:8.5px;line-height:10px;font-family:'Book Antiqua';text-align:center;text-anchor:middle;opacity:1;fill:#000000;fill-opacity:1;stroke-width:0.3"
             x="0.46145588"
             y="-65.768173"
             id="text7"><tspan
               sodipodi:role="line"
               id="tspan38"
               x="0.46145588"
               y="-65.768173">F♯</tspan><tspan
               sodipodi:role="line"
               id="tspan39"
               x="0.46145588"
               y="-55.255032">G♭</tspan></text>
        </g>
        <g
           id="note8"
           transform="rotate(-150)">
          <rect
             style="fill:#ffffff;fill-opacity:1;stroke:#ffffff;stroke-width:0.1;stroke-opacity:1"
             id="rect8"
             width="6.2831602"
             height="28.357565"
             x="-3.1415789"
             y="-52.963879" />
          <text
             xml:space="preserve"
             style="font-weight:bold;font-size:20px;line-height:10px;font-family:'Book Antiqua';text-align:center;text-anchor:middle;opacity:1;fill:#ffffff;fill-opacity:1;stroke-width:0.3"
             x="-0.11813112"
             y="-56.713943"
             id="text8"><tspan
               sodipodi:role="line"
               id="tspan41"
               style="font-style:normal;font-variant:normal;font-weight:bold;font-stretch:normal;font-size:20.1613px;font-family:'Book Antiqua';-inkscape-font-specification:'Book Antiqua, Bold';font-variant-ligatures:none;font-variant-caps:normal;font-variant-numeric:normal;font-variant-east-asian:normal;fill:#ffffff;fill-opacity:1;stroke-width:0.265;stroke-dasharray:none"
               x="-0.11813094"
               y="-56.713943">G</tspan></text>
        </g>
        <g
           id="note9"
           transform="rotate(-120)">
          <rect
             style="fill:#000000;fill-opacity:1;stroke:#000000;stroke-width:0.1;stroke-opacity:1"
             id="rect9"
             width="6.2831602"
             height="28.357565"
             x="-3.1415789"
             y="-52.963879" />
          <text
             xml:space="preserve"
             style="font-weight:bold;font-size:8.5px;line-height:10px;font-family:'Book Antiqua';text-align:center;text-anchor:middle;opacity:1;fill:#000000;fill-opacity:1;stroke-width:0.3"
             x="0.46145588"
             y="-65.768173"
             id="text9"><tspan
               sodipodi:role="line"
               id="tspan42"
               x="0.46145588"
               y="-65.768173">G♯</tspan><tspan
               sodipodi:role="line"
               id="tspan43"
               x="0.46145588"
               y="-55.255032">A♭</tspan></text>
        </g>
        <g
           id="note10"
           transform="rotate(-90)">
          <rect
             style="fill:#ffffff;fill-opacity:1;stroke:#ffffff;stroke-width:0.1;stroke-opacity:1"
             id="rect10"
             width="6.2831602"
             height="28.357565"
             x="-3.1415789"
             y="-52.963879" />
          <text
             xml:space="preserve"
             style="font-weight:bold;font-size:20px;line-height:10px;font-family:'Book Antiqua';text-align:center;text-anchor:middle;opacity:1;fill:#ffffff;fill-opacity:1;stroke-width:0.3"
             x="-0.11813112"
             y="-56.713943"
             id="text10"><tspan
               sodipodi:role="line"
               id="tspan44"
               style="font-style:normal;font-variant:normal;font-weight:bold;font-stretch:normal;font-size:20.1613px;font-family:'Book Antiqua';-inkscape-font-specification:'Book Antiqua, Bold';font-variant-ligatures:none;font-variant-caps:normal;font-variant-numeric:normal;font-variant-east-asian:normal;fill:#ffffff;fill-opacity:1;stroke-width:0.265;stroke-dasharray:none"
               x="-0.11813131"
               y="-56.713943">A</tspan></text>
        </g>
        <g
           id="note11"
           transform="rotate(-60)">
          <rect
             style="fill:#000000;fill-opacity:1;stroke:#000000;stroke-width:0.1;stroke-opacity:1"
             id="rect11"
             width="6.2831602"
             height="28.357565"
             x="-3.1415789"
             y="-52.963879" />
          <text
             xml:space="preserve"
             style="font-weight:bold;font-size:8.5px;line-height:10px;font-family:'Book Antiqua';text-align:center;text-anchor:middle;opacity:1;fill:#000000;fill-opacity:1;stroke-width:0.3"
             x="0.46145588"
             y="-65.768173"
             id="text11"><tspan
               sodipodi:role="line"
               id="tspan45"
               x="0.46145588"
               y="-65.768173">A♯</tspan><tspan
               sodipodi:role="line"
               id="tspan46"
               x="0.46145588"
               y="-55.255032">B♭</tspan></text>
        </g>
        <g
           id="note12"
           transform="rotate(-30)">
          <rect
             style="fill:#ffffff;fill-opacity:1;stroke:#ffffff;stroke-width:0.1;stroke-opacity:1"
             id="rect12"
             width="6.2831602"
             height="28.357565"
             x="-3.1415789"
             y="-52.963879" />
          <text
             xml:space="preserve"
             style="font-weight:bold;font-size:20px;line-height:10px;font-family:'Book Antiqua';text-align:center;text-anchor:middle;opacity:1;fill:#ffffff;fill-opacity:1;stroke-width:0.3"
             x="-0.11813112"
             y="-56.713943"
             id="text12"><tspan
               sodipodi:role="line"
               id="tspan47"
               style="font-style:normal;font-variant:normal;font-weight:bold;font-stretch:normal;font-size:20.1613px;font-family:'Book Antiqua';-inkscape-font-specification:'Book Antiqua, Bold';font-variant-ligatures:none;font-variant-caps:normal;font-variant-numeric:normal;font-variant-east-asian:normal;fill:#ffffff;fill-opacity:1;stroke-width:0.265;stroke-dasharray:none"
               x="-0.11813131"
               y="-56.713943">B</tspan></text>
        </g>
      </g>
    </g>
    <g
       id="allModes">
      <path
         id="doubleHarmonic"
         style="display:inline;fill:#818181;stroke:#000000;stroke-width:0.11;fill-opacity:1"
         d="M 0,-79.999768 A 80,80 0 0 0 -79.999768,0 80,80 0 0 0 0,79.999768 80,80 0 0 0 79.999768,0 80,80 0 0 0 0,-79.999768 Z m -8.6196289,8.116817 h 17.238741 v 17.239258 h -17.238741 z m 37.0959269,5.320606 14.929838,8.619629 -8.619629,14.929321 -14.929321,-8.619629 z m -56.953113,5.16e-4 8.619112,14.929322 -14.929321,8.619629 -8.619629,-14.929838 z m 25.3354047,13.598137 h 6.2828206 v 28.357442 h -6.2828206 z m -20.6199297,5.524727 14.1789792,24.558708 -5.4415282,3.14141 -14.17898,-24.558191 z m 47.52268,0 5.441529,3.141927 -14.17898,24.558191 -5.4415282,-3.14141 z m -46.641597,57.0213258 3.14141,5.4415282 -24.558191,14.17898 -3.141927,-5.441529 z m 45.760514,0 24.558708,14.1789792 -3.141927,5.441529 -24.558191,-14.17898 z m -37.904146,10.1564862 5.4415282,3.14141 -14.1789792,24.558708 -5.441529,-3.141927 z m 30.047778,0 14.17898,24.558191 L 23.76134,47.438965 9.5823608,22.880257 Z M 51.632507,19.856152 66.561829,28.475781 57.9422,43.405103 43.012878,34.78599 Z m -103.264498,10e-4 8.619629,14.929321 -14.929321,8.619629 -8.619629,-14.929321 z m 16.846001,23.155176 14.929321,8.619629 -8.619112,14.929321 -14.929838,-8.619112 z m 69.572497,0 8.619629,14.929321 -14.929838,8.619629 -8.619112,-14.929321 z" />
      <path
         id="harmonicMajor"
         style="display:inline;fill:#818181;stroke:#000000;stroke-width:0.11;fill-opacity:1"
         d="M 0,-79.999768 A 80,80 0 0 0 -79.999768,0 80,80 0 0 0 0,79.999768 80,80 0 0 0 79.999768,0 80,80 0 0 0 0,-79.999768 Z m -8.6196289,8.116817 h 17.238741 v 17.239258 h -17.238741 z m -19.8571861,5.321122 8.619112,14.929322 -14.929321,8.619629 -8.619629,-14.929838 z m 25.3354047,13.598137 h 6.2828206 v 28.357442 h -6.2828206 z m -20.6199297,5.524727 14.1789792,24.558708 -5.4415282,3.14141 -14.17898,-24.558191 z m 81.70354,4.032312 8.619629,14.929321 -14.929322,8.619629 -8.619629,-14.929321 z m -13.645162,14.203784 3.141927,5.441529 -24.558708,14.1789792 -3.14141,-5.4415282 z m -67.177295,38.7852298 3.14141,5.4415282 -24.558191,14.17898 -3.141927,-5.441529 z m 45.760514,0 24.558708,14.1789792 -3.141927,5.441529 -24.558191,-14.17898 z m -37.904146,10.1564862 5.4415282,3.14141 -14.1789792,24.558708 -5.441529,-3.141927 z m 30.047778,0 14.17898,24.558191 L 23.76134,47.438965 9.5823608,22.880257 Z M 51.632507,19.856152 66.561829,28.475781 57.9422,43.405103 43.012878,34.78599 Z m -103.264498,10e-4 8.619629,14.929321 -14.929321,8.619629 -8.619629,-14.929321 z m 16.846001,23.155176 14.929321,8.619629 -8.619112,14.929321 -14.929838,-8.619112 z m 69.572497,0 8.619629,14.929321 -14.929838,8.619629 -8.619112,-14.929321 z" />
      <path
         id="harmonicMinor"
         style="display:inline;fill:#818181;stroke:#000000;stroke-width:0.11;fill-opacity:1"
         d="M 0,-79.999768 A 80,80 0 0 0 -79.999768,0 80,80 0 0 0 0,79.999768 80,80 0 0 0 79.999768,0 80,80 0 0 0 0,-79.999768 Z m -8.6196289,8.116817 h 17.238741 v 17.239258 h -17.238741 z m -19.8571861,5.321122 8.619112,14.929322 -14.929321,8.619629 -8.619629,-14.929838 z m 25.3354047,13.598137 h 6.2828206 v 28.357442 h -6.2828206 z m -20.6199297,5.524727 14.1789792,24.558708 -5.4415282,3.14141 -14.17898,-24.558191 z m 81.70354,4.032312 8.619629,14.929321 -14.929322,8.619629 -8.619629,-14.929321 z m -13.645162,14.203784 3.141927,5.441529 -24.558708,14.1789792 -3.14141,-5.4415282 z M 54.643176,-8.6201457 H 71.882434 V 8.6191121 H 54.643176 Z M 24.60625,-3.1414103 H 52.963692 V 3.1414103 H 24.60625 Z m -47.486507,12.7237711 3.14141,5.4415282 -24.558191,14.17898 -3.141927,-5.441529 z m 7.856368,10.1564862 5.4415282,3.14141 -14.1789792,24.558708 -5.441529,-3.141927 z m 30.047778,0 14.17898,24.558191 L 23.76134,47.438965 9.5823608,22.880257 Z m -66.65588,0.118339 8.619629,14.929321 -14.929321,8.619629 -8.619629,-14.929321 z m 16.846001,23.155176 14.929321,8.619629 -8.619112,14.929321 -14.929838,-8.619112 z m 69.572497,0 8.619629,14.929321 -14.929838,8.619629 -8.619112,-14.929321 z" />
      <path
         id="melodicMinor"
         style="display:inline;fill:#818181;stroke:#000000;stroke-width:0.11;fill-opacity:1"
         d="M 0,-79.999768 A 80,80 0 0 0 -79.999768,0 80,80 0 0 0 0,79.999768 80,80 0 0 0 79.999768,0 80,80 0 0 0 0,-79.999768 Z m -8.6196289,8.116817 h 17.238741 v 17.239258 h -17.238741 z m -19.8571861,5.321122 8.619112,14.929322 -14.929321,8.619629 -8.619629,-14.929838 z m 25.3354047,13.598137 h 6.2828206 v 28.357442 h -6.2828206 z m -20.6199297,5.524727 14.1789792,24.558708 -5.4415282,3.14141 -14.17898,-24.558191 z m 81.70354,4.032312 8.619629,14.929321 -14.929322,8.619629 -8.619629,-14.929321 z m -13.645162,14.203784 3.141927,5.441529 -24.558708,14.1789792 -3.14141,-5.4415282 z M 54.643176,-8.6201457 H 71.882434 V 8.6191121 H 54.643176 Z m -126.52561,0.00103 h 17.239258 V 8.6201457 h -17.239258 z m 18.918742,5.4777018 h 28.357442 v 6.2828206 h -28.357442 z m 77.569942,0 H 52.963692 V 3.1414103 H 24.60625 Z m -39.630139,22.8802569 5.4415282,3.14141 -14.1789792,24.558708 -5.441529,-3.141927 z m 30.047778,0 14.17898,24.558191 L 23.76134,47.438965 9.5823608,22.880257 Z m -49.809879,23.273515 14.929321,8.619629 -8.619112,14.929321 -14.929838,-8.619112 z m 69.572497,0 8.619629,14.929321 -14.929838,8.619629 -8.619112,-14.929321 z" />
      <path
         id="major"
         style="display:inline;fill:#818181;stroke:#000000;stroke-width:0.11;fill-opacity:1"
         d="M 0,-79.999768 A 80,80 0 0 0 -79.999768,0 80,80 0 0 0 0,79.999768 80,80 0 0 0 79.999768,0 80,80 0 0 0 0,-79.999768 Z m -8.6196289,8.116817 h 17.238741 v 17.239258 h -17.238741 z m -19.8571861,5.321122 8.619112,14.929322 -14.929321,8.619629 -8.619629,-14.929838 z m 25.3354047,13.598137 h 6.2828206 v 28.357442 h -6.2828206 z m -20.6199297,5.524727 14.1789792,24.558708 -5.4415282,3.14141 -14.17898,-24.558191 z m 81.70354,4.032312 8.619629,14.929321 -14.929322,8.619629 -8.619629,-14.929321 z m -13.645162,14.203784 3.141927,5.441529 -24.558708,14.1789792 -3.14141,-5.4415282 z M -71.882434,-8.6191121 h 17.239258 V 8.6201457 h -17.239258 z m 18.918742,5.4777018 H -24.60625 V 3.1414103 H -52.963692 Z M 22.880257,9.5823608 47.438965,23.76134 44.297038,29.202869 19.738847,15.023889 Z m -37.904146,10.1564862 5.4415282,3.14141 -14.1789792,24.558708 -5.441529,-3.141927 z m 30.047778,0 14.17898,24.558191 L 23.76134,47.438965 9.5823608,22.880257 Z M 51.632507,19.856152 66.561829,28.475781 57.9422,43.405103 43.012878,34.78599 Z m -86.418497,23.15621 14.929321,8.619629 -8.619112,14.929321 -14.929838,-8.619112 z m 69.572497,0 8.619629,14.929321 -14.929838,8.619629 -8.619112,-14.929321 z" />
    </g>
    <g
       id="touch"
       style="display:inline;opacity:0">
      <rect
         style="fill:#000000;fill-opacity:0;stroke:#000000;stroke-width:0.1;stroke-opacity:1"
         id="touch12"
         width="8.5790949"
         height="17.296375"
         x="-8.6481867"
         y="-71.911697" />
      <rect
         style="fill:#000000;fill-opacity:0;stroke:#000000;stroke-width:0.1;stroke-opacity:1"
         id="touch00"
         width="8.5790939"
         height="17.296375"
         x="0.069094196"
         y="-71.911697" />
      <rect
         style="fill:#000000;fill-opacity:0;stroke:#000000;stroke-width:0.1;stroke-opacity:1"
         id="touch01"
         width="17.239002"
         height="17.239002"
         x="-8.6198006"
         y="-71.882935"
         transform="rotate(30)" />
      <rect
         style="fill:#000000;fill-opacity:0;stroke:#000000;stroke-width:0.1;stroke-opacity:1"
         id="touch02"
         width="17.239002"
         height="17.239002"
         x="-8.6200209"
         y="-71.882713"
         transform="rotate(60)" />
      <rect
         style="fill:#000000;fill-opacity:0;stroke:#000000;stroke-width:0.1;stroke-opacity:1"
         id="touch03"
         width="17.239002"
         height="17.239002"
         x="-8.6201019"
         y="-71.882416"
         transform="rotate(90)" />
      <rect
         style="fill:#000000;fill-opacity:0;stroke:#000000;stroke-width:0.1;stroke-opacity:1"
         id="touch04"
         width="17.239002"
         height="17.239002"
         x="-8.6200218"
         y="-71.882118"
         transform="rotate(120)" />
      <rect
         style="fill:#000000;fill-opacity:0;stroke:#000000;stroke-width:0.1;stroke-opacity:1"
         id="touch05"
         width="17.239002"
         height="17.239002"
         x="-8.6198015"
         y="-71.881897"
         transform="rotate(150)" />
      <rect
         style="fill:#000000;fill-opacity:0;stroke:#000000;stroke-width:0.1;stroke-opacity:1"
         id="touch06"
         width="17.239002"
         height="17.239002"
         x="-8.6195002"
         y="-71.881813"
         transform="scale(-1)" />
      <rect
         style="fill:#000000;fill-opacity:0;stroke:#000000;stroke-width:0.1;stroke-opacity:1"
         id="touch07"
         width="17.239002"
         height="17.239002"
         x="-8.6197996"
         y="-71.881897"
         transform="rotate(-150)" />
      <rect
         style="fill:#000000;fill-opacity:0;stroke:#000000;stroke-width:0.1;stroke-opacity:1"
         id="touch08"
         width="17.239002"
         height="17.239002"
         x="-8.6200199"
         y="-71.882118"
         transform="rotate(-120)" />
      <rect
         style="fill:#000000;fill-opacity:0;stroke:#000000;stroke-width:0.1;stroke-opacity:1"
         id="touch09"
         width="17.239002"
         height="17.239002"
         x="-8.620101"
         y="-71.882416"
         transform="rotate(-90)" />
      <rect
         style="fill:#000000;fill-opacity:0;stroke:#000000;stroke-width:0.1;stroke-opacity:1"
         id="touch10"
         width="17.239002"
         height="17.239002"
         x="-8.6200209"
         y="-71.882713"
         transform="rotate(-60)" />
      <rect
         style="fill:#000000;fill-opacity:0;stroke:#000000;stroke-width:0.1;stroke-opacity:1"
         id="touch11"
         width="17.239002"
         height="17.239002"
         x="-8.6198006"
         y="-71.882935"
         transform="rotate(-30)" />
    </g>
  </g>
  <text
     xml:space="preserve"
     style="font-weight:bold;font-size:7px;line-height:1;font-family:'Book Antiqua';text-align:center;text-anchor:middle;stroke-width:0.3"
     x="-0.044785149"
     y="-72.84034"
     id="text0"
     sodipodi:insensitive="true"
     transform="translate(79.375,79.375)"><tspan
       sodipodi:role="line"
       id="tspan2"
       x="-0.044785149"
       y="-72.84034">ROOT</tspan></text>
</svg>
