<?xml version="1.0" encoding="UTF-8" standalone="no"?>
<svg width="637.794px" height="765.353px" viewBox="0 0 637.794 765.353"
 xmlns="http://www.w3.org/2000/svg" xmlns:xlink="http://www.w3.org/1999/xlink" version="1.2" baseProfile="tiny">
<title>doubleharmonic (95)</title>
<desc>Generated by MuseScore 3.4.2</desc>
<polyline class="StaffLines" fill="none" stroke="#000000" stroke-width="1.13" stroke-linejoin="bevel" points="14.1732,47.6221 623.621,47.6221"/>
<polyline class="StaffLines" fill="none" stroke="#000000" stroke-width="1.13" stroke-linejoin="bevel" points="14.1732,61.7953 623.621,61.7953"/>
<polyline class="StaffLines" fill="none" stroke="#000000" stroke-width="1.13" stroke-linejoin="bevel" points="14.1732,75.9685 623.621,75.9685"/>
<polyline class="StaffLines" fill="none" stroke="#000000" stroke-width="1.13" stroke-linejoin="bevel" points="14.1732,90.1417 623.621,90.1417"/>
<polyline class="StaffLines" fill="none" stroke="#000000" stroke-width="1.13" stroke-linejoin="bevel" points="14.1732,104.315 623.621,104.315"/>
<polyline class="StaffLines" fill="none" stroke="#000000" stroke-width="1.13" stroke-linejoin="bevel" points="14.1732,182.268 623.621,182.268"/>
<polyline class="StaffLines" fill="none" stroke="#000000" stroke-width="1.13" stroke-linejoin="bevel" points="14.1732,196.441 623.621,196.441"/>
<polyline class="StaffLines" fill="none" stroke="#000000" stroke-width="1.13" stroke-linejoin="bevel" points="14.1732,210.614 623.621,210.614"/>
<polyline class="StaffLines" fill="none" stroke="#000000" stroke-width="1.13" stroke-linejoin="bevel" points="14.1732,224.787 623.621,224.787"/>
<polyline class="StaffLines" fill="none" stroke="#000000" stroke-width="1.13" stroke-linejoin="bevel" points="14.1732,238.961 623.621,238.961"/>
<polyline class="StaffLines" fill="none" stroke="#000000" stroke-width="1.13" stroke-linejoin="bevel" points="14.1732,316.913 623.621,316.913"/>
<polyline class="StaffLines" fill="none" stroke="#000000" stroke-width="1.13" stroke-linejoin="bevel" points="14.1732,331.087 623.621,331.087"/>
<polyline class="StaffLines" fill="none" stroke="#000000" stroke-width="1.13" stroke-linejoin="bevel" points="14.1732,345.26 623.621,345.26"/>
<polyline class="StaffLines" fill="none" stroke="#000000" stroke-width="1.13" stroke-linejoin="bevel" points="14.1732,359.433 623.621,359.433"/>
<polyline class="StaffLines" fill="none" stroke="#000000" stroke-width="1.13" stroke-linejoin="bevel" points="14.1732,373.606 623.621,373.606"/>
<polyline class="StaffLines" fill="none" stroke="#000000" stroke-width="1.13" stroke-linejoin="bevel" points="14.1732,451.559 623.621,451.559"/>
<polyline class="StaffLines" fill="none" stroke="#000000" stroke-width="1.13" stroke-linejoin="bevel" points="14.1732,476.362 623.621,476.362"/>
<polyline class="StaffLines" fill="none" stroke="#000000" stroke-width="1.13" stroke-linejoin="bevel" points="14.1732,501.165 623.621,501.165"/>
<polyline class="StaffLines" fill="none" stroke="#000000" stroke-width="1.13" stroke-linejoin="bevel" points="14.1732,525.969 623.621,525.969"/>
<polyline class="StaffLines" fill="none" stroke="#000000" stroke-width="1.13" stroke-linejoin="bevel" points="14.1732,603.921 623.621,603.921"/>
<polyline class="StaffLines" fill="none" stroke="#000000" stroke-width="1.13" stroke-linejoin="bevel" points="14.1732,628.724 623.621,628.724"/>
<polyline class="StaffLines" fill="none" stroke="#000000" stroke-width="1.13" stroke-linejoin="bevel" points="14.1732,653.528 623.621,653.528"/>
<polyline class="StaffLines" fill="none" stroke="#000000" stroke-width="1.13" stroke-linejoin="bevel" points="14.1732,678.331 623.621,678.331"/>
<polyline class="StaffLines" fill="none" stroke="#000000" stroke-width="1.13" stroke-linejoin="bevel" points="14.1732,703.134 623.621,703.134"/>
<polyline class="StaffLines" fill="none" stroke="#000000" stroke-width="1.13" stroke-linejoin="bevel" points="14.1732,727.937 623.621,727.937"/>
<path class="Accidental" transform="matrix(0.566929,0,0,0.566929,152.664,359.433)" d="M4.59375,-4.10938 L4.59375,3.60938 C4.59375,6.34896 4.72396,8.53125 4.98438,10.1563 C7.13021,8.33333 8.66146,6.96875 9.57813,6.0625 C10.6198,5.02083 11.6615,3.58594 12.7031,1.75781 C13.7448,-0.0703125 14.2656,-1.89583 14.2656,-3.71875 C14.2656,-5.54167 13.875,-7.10417 13.0938,-8.40625 C12.3125,-9.70833 11.2708,-10.3594 9.96875,-10.3594 C8.40625,-10.3594 7.10417,-9.77083 6.0625,-8.59375 C5.08333,-7.29167 4.59375,-5.79688 4.59375,-4.10938 M0.484375,13.7656 L-0.78125,-45.7031 C0.135417,-46.224 1.04948,-46.4844 1.96094,-46.4844 C2.8724,-46.4844 3.78125,-46.224 4.6875,-45.7031 L3.90625,-11.2344 C6.57292,-13.5156 9.63542,-14.6563 13.0938,-14.6563 C15.625,-14.6563 17.737,-13.6146 19.4297,-11.5313 C21.1224,-9.44792 21.9688,-7.06771 21.9688,-4.39063 C21.9688,-2.70313 21.4167,-0.911458 20.3125,0.984375 C19.2708,2.73438 18.1667,4.09896 17,5.07813 C16.3438,5.59896 14.6823,6.90104 12.0156,8.98438 C11.2344,9.56771 10.3073,10.25 9.23438,11.0313 C8.16146,11.8125 7.49479,12.3021 7.23438,12.5 C6.77604,12.7604 6.34896,13.2813 5.95313,14.0625 C5.50521,14.7188 4.98438,15.2708 4.39063,15.7188 C3.94271,16.1146 3.39323,16.3125 2.74219,16.3125 C2.09115,16.3125 1.56771,16.0833 1.17188,15.625 C0.713542,15.1667 0.484375,14.5469 0.484375,13.7656"/>
<path class="Accidental" transform="matrix(0.566929,0,0,0.566929,282.093,345.26)" d="M4.59375,-4.10938 L4.59375,3.60938 C4.59375,6.34896 4.72396,8.53125 4.98438,10.1563 C7.13021,8.33333 8.66146,6.96875 9.57813,6.0625 C10.6198,5.02083 11.6615,3.58594 12.7031,1.75781 C13.7448,-0.0703125 14.2656,-1.89583 14.2656,-3.71875 C14.2656,-5.54167 13.875,-7.10417 13.0938,-8.40625 C12.3125,-9.70833 11.2708,-10.3594 9.96875,-10.3594 C8.40625,-10.3594 7.10417,-9.77083 6.0625,-8.59375 C5.08333,-7.29167 4.59375,-5.79688 4.59375,-4.10938 M0.484375,13.7656 L-0.78125,-45.7031 C0.135417,-46.224 1.04948,-46.4844 1.96094,-46.4844 C2.8724,-46.4844 3.78125,-46.224 4.6875,-45.7031 L3.90625,-11.2344 C6.57292,-13.5156 9.63542,-14.6563 13.0938,-14.6563 C15.625,-14.6563 17.737,-13.6146 19.4297,-11.5313 C21.1224,-9.44792 21.9688,-7.06771 21.9688,-4.39063 C21.9688,-2.70313 21.4167,-0.911458 20.3125,0.984375 C19.2708,2.73438 18.1667,4.09896 17,5.07813 C16.3438,5.59896 14.6823,6.90104 12.0156,8.98438 C11.2344,9.56771 10.3073,10.25 9.23438,11.0313 C8.16146,11.8125 7.49479,12.3021 7.23438,12.5 C6.77604,12.7604 6.34896,13.2813 5.95313,14.0625 C5.50521,14.7188 4.98438,15.2708 4.39063,15.7188 C3.94271,16.1146 3.39323,16.3125 2.74219,16.3125 C2.09115,16.3125 1.56771,16.0833 1.17188,15.625 C0.713542,15.1667 0.484375,14.5469 0.484375,13.7656"/>
<path class="Accidental" transform="matrix(0.566929,0,0,0.566929,476.236,324)" d="M4.59375,-4.10938 L4.59375,3.60938 C4.59375,6.34896 4.72396,8.53125 4.98438,10.1563 C7.13021,8.33333 8.66146,6.96875 9.57813,6.0625 C10.6198,5.02083 11.6615,3.58594 12.7031,1.75781 C13.7448,-0.0703125 14.2656,-1.89583 14.2656,-3.71875 C14.2656,-5.54167 13.875,-7.10417 13.0938,-8.40625 C12.3125,-9.70833 11.2708,-10.3594 9.96875,-10.3594 C8.40625,-10.3594 7.10417,-9.77083 6.0625,-8.59375 C5.08333,-7.29167 4.59375,-5.79688 4.59375,-4.10938 M0.484375,13.7656 L-0.78125,-45.7031 C0.135417,-46.224 1.04948,-46.4844 1.96094,-46.4844 C2.8724,-46.4844 3.78125,-46.224 4.6875,-45.7031 L3.90625,-11.2344 C6.57292,-13.5156 9.63542,-14.6563 13.0938,-14.6563 C15.625,-14.6563 17.737,-13.6146 19.4297,-11.5313 C21.1224,-9.44792 21.9688,-7.06771 21.9688,-4.39063 C21.9688,-2.70313 21.4167,-0.911458 20.3125,0.984375 C19.2708,2.73438 18.1667,4.09896 17,5.07813 C16.3438,5.59896 14.6823,6.90104 12.0156,8.98438 C11.2344,9.56771 10.3073,10.25 9.23438,11.0313 C8.16146,11.8125 7.49479,12.3021 7.23438,12.5 C6.77604,12.7604 6.34896,13.2813 5.95313,14.0625 C5.50521,14.7188 4.98438,15.2708 4.39063,15.7188 C3.94271,16.1146 3.39323,16.3125 2.74219,16.3125 C2.09115,16.3125 1.56771,16.0833 1.17188,15.625 C0.713542,15.1667 0.484375,14.5469 0.484375,13.7656"/>
<path class="Accidental" transform="matrix(0.566929,0,0,0.566929,152.664,217.701)" d="M4.59375,-4.10938 L4.59375,3.60938 C4.59375,6.34896 4.72396,8.53125 4.98438,10.1563 C7.13021,8.33333 8.66146,6.96875 9.57813,6.0625 C10.6198,5.02083 11.6615,3.58594 12.7031,1.75781 C13.7448,-0.0703125 14.2656,-1.89583 14.2656,-3.71875 C14.2656,-5.54167 13.875,-7.10417 13.0938,-8.40625 C12.3125,-9.70833 11.2708,-10.3594 9.96875,-10.3594 C8.40625,-10.3594 7.10417,-9.77083 6.0625,-8.59375 C5.08333,-7.29167 4.59375,-5.79688 4.59375,-4.10938 M0.484375,13.7656 L-0.78125,-45.7031 C0.135417,-46.224 1.04948,-46.4844 1.96094,-46.4844 C2.8724,-46.4844 3.78125,-46.224 4.6875,-45.7031 L3.90625,-11.2344 C6.57292,-13.5156 9.63542,-14.6563 13.0938,-14.6563 C15.625,-14.6563 17.737,-13.6146 19.4297,-11.5313 C21.1224,-9.44792 21.9688,-7.06771 21.9688,-4.39063 C21.9688,-2.70313 21.4167,-0.911458 20.3125,0.984375 C19.2708,2.73438 18.1667,4.09896 17,5.07813 C16.3438,5.59896 14.6823,6.90104 12.0156,8.98438 C11.2344,9.56771 10.3073,10.25 9.23438,11.0313 C8.16146,11.8125 7.49479,12.3021 7.23438,12.5 C6.77604,12.7604 6.34896,13.2813 5.95313,14.0625 C5.50521,14.7188 4.98438,15.2708 4.39063,15.7188 C3.94271,16.1146 3.39323,16.3125 2.74219,16.3125 C2.09115,16.3125 1.56771,16.0833 1.17188,15.625 C0.713542,15.1667 0.484375,14.5469 0.484375,13.7656"/>
<path class="Accidental" transform="matrix(0.566929,0,0,0.566929,282.093,203.528)" d="M4.59375,-4.10938 L4.59375,3.60938 C4.59375,6.34896 4.72396,8.53125 4.98438,10.1563 C7.13021,8.33333 8.66146,6.96875 9.57813,6.0625 C10.6198,5.02083 11.6615,3.58594 12.7031,1.75781 C13.7448,-0.0703125 14.2656,-1.89583 14.2656,-3.71875 C14.2656,-5.54167 13.875,-7.10417 13.0938,-8.40625 C12.3125,-9.70833 11.2708,-10.3594 9.96875,-10.3594 C8.40625,-10.3594 7.10417,-9.77083 6.0625,-8.59375 C5.08333,-7.29167 4.59375,-5.79688 4.59375,-4.10938 M0.484375,13.7656 L-0.78125,-45.7031 C0.135417,-46.224 1.04948,-46.4844 1.96094,-46.4844 C2.8724,-46.4844 3.78125,-46.224 4.6875,-45.7031 L3.90625,-11.2344 C6.57292,-13.5156 9.63542,-14.6563 13.0938,-14.6563 C15.625,-14.6563 17.737,-13.6146 19.4297,-11.5313 C21.1224,-9.44792 21.9688,-7.06771 21.9688,-4.39063 C21.9688,-2.70313 21.4167,-0.911458 20.3125,0.984375 C19.2708,2.73438 18.1667,4.09896 17,5.07813 C16.3438,5.59896 14.6823,6.90104 12.0156,8.98438 C11.2344,9.56771 10.3073,10.25 9.23438,11.0313 C8.16146,11.8125 7.49479,12.3021 7.23438,12.5 C6.77604,12.7604 6.34896,13.2813 5.95313,14.0625 C5.50521,14.7188 4.98438,15.2708 4.39063,15.7188 C3.94271,16.1146 3.39323,16.3125 2.74219,16.3125 C2.09115,16.3125 1.56771,16.0833 1.17188,15.625 C0.713542,15.1667 0.484375,14.5469 0.484375,13.7656"/>
<path class="Accidental" transform="matrix(0.566929,0,0,0.566929,476.236,182.268)" d="M4.59375,-4.10938 L4.59375,3.60938 C4.59375,6.34896 4.72396,8.53125 4.98438,10.1563 C7.13021,8.33333 8.66146,6.96875 9.57813,6.0625 C10.6198,5.02083 11.6615,3.58594 12.7031,1.75781 C13.7448,-0.0703125 14.2656,-1.89583 14.2656,-3.71875 C14.2656,-5.54167 13.875,-7.10417 13.0938,-8.40625 C12.3125,-9.70833 11.2708,-10.3594 9.96875,-10.3594 C8.40625,-10.3594 7.10417,-9.77083 6.0625,-8.59375 C5.08333,-7.29167 4.59375,-5.79688 4.59375,-4.10938 M0.484375,13.7656 L-0.78125,-45.7031 C0.135417,-46.224 1.04948,-46.4844 1.96094,-46.4844 C2.8724,-46.4844 3.78125,-46.224 4.6875,-45.7031 L3.90625,-11.2344 C6.57292,-13.5156 9.63542,-14.6563 13.0938,-14.6563 C15.625,-14.6563 17.737,-13.6146 19.4297,-11.5313 C21.1224,-9.44792 21.9688,-7.06771 21.9688,-4.39063 C21.9688,-2.70313 21.4167,-0.911458 20.3125,0.984375 C19.2708,2.73438 18.1667,4.09896 17,5.07813 C16.3438,5.59896 14.6823,6.90104 12.0156,8.98438 C11.2344,9.56771 10.3073,10.25 9.23438,11.0313 C8.16146,11.8125 7.49479,12.3021 7.23438,12.5 C6.77604,12.7604 6.34896,13.2813 5.95313,14.0625 C5.50521,14.7188 4.98438,15.2708 4.39063,15.7188 C3.94271,16.1146 3.39323,16.3125 2.74219,16.3125 C2.09115,16.3125 1.56771,16.0833 1.17188,15.625 C0.713542,15.1667 0.484375,14.5469 0.484375,13.7656"/>
<path class="Accidental" transform="matrix(0.566929,0,0,0.566929,152.664,75.9685)" d="M4.59375,-4.10938 L4.59375,3.60938 C4.59375,6.34896 4.72396,8.53125 4.98438,10.1563 C7.13021,8.33333 8.66146,6.96875 9.57813,6.0625 C10.6198,5.02083 11.6615,3.58594 12.7031,1.75781 C13.7448,-0.0703125 14.2656,-1.89583 14.2656,-3.71875 C14.2656,-5.54167 13.875,-7.10417 13.0938,-8.40625 C12.3125,-9.70833 11.2708,-10.3594 9.96875,-10.3594 C8.40625,-10.3594 7.10417,-9.77083 6.0625,-8.59375 C5.08333,-7.29167 4.59375,-5.79688 4.59375,-4.10938 M0.484375,13.7656 L-0.78125,-45.7031 C0.135417,-46.224 1.04948,-46.4844 1.96094,-46.4844 C2.8724,-46.4844 3.78125,-46.224 4.6875,-45.7031 L3.90625,-11.2344 C6.57292,-13.5156 9.63542,-14.6563 13.0938,-14.6563 C15.625,-14.6563 17.737,-13.6146 19.4297,-11.5313 C21.1224,-9.44792 21.9688,-7.06771 21.9688,-4.39063 C21.9688,-2.70313 21.4167,-0.911458 20.3125,0.984375 C19.2708,2.73438 18.1667,4.09896 17,5.07813 C16.3438,5.59896 14.6823,6.90104 12.0156,8.98438 C11.2344,9.56771 10.3073,10.25 9.23438,11.0313 C8.16146,11.8125 7.49479,12.3021 7.23438,12.5 C6.77604,12.7604 6.34896,13.2813 5.95313,14.0625 C5.50521,14.7188 4.98438,15.2708 4.39063,15.7188 C3.94271,16.1146 3.39323,16.3125 2.74219,16.3125 C2.09115,16.3125 1.56771,16.0833 1.17188,15.625 C0.713542,15.1667 0.484375,14.5469 0.484375,13.7656"/>
<path class="Accidental" transform="matrix(0.566929,0,0,0.566929,282.093,61.7953)" d="M4.59375,-4.10938 L4.59375,3.60938 C4.59375,6.34896 4.72396,8.53125 4.98438,10.1563 C7.13021,8.33333 8.66146,6.96875 9.57813,6.0625 C10.6198,5.02083 11.6615,3.58594 12.7031,1.75781 C13.7448,-0.0703125 14.2656,-1.89583 14.2656,-3.71875 C14.2656,-5.54167 13.875,-7.10417 13.0938,-8.40625 C12.3125,-9.70833 11.2708,-10.3594 9.96875,-10.3594 C8.40625,-10.3594 7.10417,-9.77083 6.0625,-8.59375 C5.08333,-7.29167 4.59375,-5.79688 4.59375,-4.10938 M0.484375,13.7656 L-0.78125,-45.7031 C0.135417,-46.224 1.04948,-46.4844 1.96094,-46.4844 C2.8724,-46.4844 3.78125,-46.224 4.6875,-45.7031 L3.90625,-11.2344 C6.57292,-13.5156 9.63542,-14.6563 13.0938,-14.6563 C15.625,-14.6563 17.737,-13.6146 19.4297,-11.5313 C21.1224,-9.44792 21.9688,-7.06771 21.9688,-4.39063 C21.9688,-2.70313 21.4167,-0.911458 20.3125,0.984375 C19.2708,2.73438 18.1667,4.09896 17,5.07813 C16.3438,5.59896 14.6823,6.90104 12.0156,8.98438 C11.2344,9.56771 10.3073,10.25 9.23438,11.0313 C8.16146,11.8125 7.49479,12.3021 7.23438,12.5 C6.77604,12.7604 6.34896,13.2813 5.95313,14.0625 C5.50521,14.7188 4.98438,15.2708 4.39063,15.7188 C3.94271,16.1146 3.39323,16.3125 2.74219,16.3125 C2.09115,16.3125 1.56771,16.0833 1.17188,15.625 C0.713542,15.1667 0.484375,14.5469 0.484375,13.7656"/>
<path class="Accidental" transform="matrix(0.566929,0,0,0.566929,476.236,40.5354)" d="M4.59375,-4.10938 L4.59375,3.60938 C4.59375,6.34896 4.72396,8.53125 4.98438,10.1563 C7.13021,8.33333 8.66146,6.96875 9.57813,6.0625 C10.6198,5.02083 11.6615,3.58594 12.7031,1.75781 C13.7448,-0.0703125 14.2656,-1.89583 14.2656,-3.71875 C14.2656,-5.54167 13.875,-7.10417 13.0938,-8.40625 C12.3125,-9.70833 11.2708,-10.3594 9.96875,-10.3594 C8.40625,-10.3594 7.10417,-9.77083 6.0625,-8.59375 C5.08333,-7.29167 4.59375,-5.79688 4.59375,-4.10938 M0.484375,13.7656 L-0.78125,-45.7031 C0.135417,-46.224 1.04948,-46.4844 1.96094,-46.4844 C2.8724,-46.4844 3.78125,-46.224 4.6875,-45.7031 L3.90625,-11.2344 C6.57292,-13.5156 9.63542,-14.6563 13.0938,-14.6563 C15.625,-14.6563 17.737,-13.6146 19.4297,-11.5313 C21.1224,-9.44792 21.9688,-7.06771 21.9688,-4.39063 C21.9688,-2.70313 21.4167,-0.911458 20.3125,0.984375 C19.2708,2.73438 18.1667,4.09896 17,5.07813 C16.3438,5.59896 14.6823,6.90104 12.0156,8.98438 C11.2344,9.56771 10.3073,10.25 9.23438,11.0313 C8.16146,11.8125 7.49479,12.3021 7.23438,12.5 C6.77604,12.7604 6.34896,13.2813 5.95313,14.0625 C5.50521,14.7188 4.98438,15.2708 4.39063,15.7188 C3.94271,16.1146 3.39323,16.3125 2.74219,16.3125 C2.09115,16.3125 1.56771,16.0833 1.17188,15.625 C0.713542,15.1667 0.484375,14.5469 0.484375,13.7656"/>
<polyline class="LedgerLine" fill="none" stroke="#000000" stroke-width="2.27" stroke-linecap="square" stroke-linejoin="bevel" points="552.387,33.4488 579.551,33.4488"/>
<path class="Note" fill="#ffffff" fill-opacity="0.0" fill-rule="evenodd" d="M104.913,690.732 L123.622,690.732 L123.622,715.535 L104.913,715.535 L104.913,690.732 "/>
<path class="Note" d="M107.533,704.274 C107.533,702.618 107.674,701.155 107.955,699.884 C108.236,698.613 108.591,697.618 109.018,696.899 C109.445,696.181 109.958,695.597 110.557,695.149 C111.156,694.702 111.731,694.402 112.283,694.251 C112.835,694.1 113.419,694.024 114.033,694.024 C118.367,694.024 120.533,697.498 120.533,704.446 C120.533,707.717 119.976,710.215 118.861,711.939 C117.747,713.663 116.138,714.524 114.033,714.524 C111.908,714.524 110.294,713.652 109.19,711.907 C108.085,710.163 107.533,707.618 107.533,704.274 M118.002,704.228 C118.002,698.884 116.677,696.212 114.026,696.212 C111.374,696.212 110.049,698.91 110.049,704.306 C110.049,709.754 111.356,712.478 113.971,712.478 C115.356,712.478 116.374,711.806 117.026,710.462 C117.677,709.118 118.002,707.04 118.002,704.228"/>
<path class="Note" fill="#ffffff" fill-opacity="0.0" fill-rule="evenodd" d="M104.913,641.126 L123.622,641.126 L123.622,665.929 L104.913,665.929 L104.913,641.126 "/>
<path class="Note" d="M107.736,651.309 C107.861,646.715 110.044,644.418 114.283,644.418 C116.169,644.418 117.7,644.96 118.877,646.043 C120.054,647.127 120.643,648.528 120.643,650.246 C120.643,652.715 119.242,654.715 116.44,656.246 L113.643,657.746 C112.424,658.403 111.554,659.038 111.033,659.653 C110.513,660.267 110.184,660.996 110.049,661.84 L120.502,661.84 L120.502,664.278 L107.283,664.278 C107.398,662.09 107.838,660.405 108.604,659.223 C109.369,658.041 110.789,656.861 112.861,655.684 L115.424,654.231 C117.216,653.199 118.111,651.892 118.111,650.309 C118.111,649.246 117.739,648.358 116.994,647.645 C116.249,646.931 115.32,646.574 114.205,646.574 C111.716,646.574 110.377,648.153 110.19,651.309 L107.736,651.309 "/>
<path class="Note" fill="#ffffff" fill-opacity="0.0" fill-rule="evenodd" d="M169.627,690.732 L188.336,690.732 L188.336,715.535 L169.627,715.535 L169.627,690.732 "/>
<path class="Note" d="M178.295,699.743 L173.904,699.743 L173.904,697.978 C175.81,697.738 177.053,697.402 177.631,696.97 C178.209,696.538 178.711,695.556 179.138,694.024 L180.763,694.024 L180.763,713.884 L178.295,713.884 L178.295,699.743 "/>
<path class="Note" fill="#ffffff" fill-opacity="0.0" fill-rule="evenodd" d="M169.627,641.126 L188.336,641.126 L188.336,665.929 L169.627,665.929 L169.627,641.126 "/>
<path class="Note" d="M178.607,646.574 C177.191,646.574 176.217,646.962 175.685,647.739 C175.154,648.515 174.868,649.548 174.826,650.84 L172.357,650.84 C172.451,646.559 174.524,644.418 178.576,644.418 C180.461,644.418 181.941,644.905 183.013,645.879 C184.086,646.853 184.623,648.189 184.623,649.887 C184.623,651.897 183.701,653.267 181.857,653.996 C183.045,654.413 183.901,654.989 184.428,655.723 C184.954,656.457 185.217,657.46 185.217,658.731 C185.217,660.616 184.605,662.119 183.381,663.239 C182.157,664.358 180.529,664.918 178.498,664.918 C174.425,664.918 172.237,662.783 171.935,658.512 L174.404,658.512 C174.498,659.949 174.881,661.012 175.553,661.699 C176.224,662.387 177.232,662.731 178.576,662.731 C179.868,662.731 180.875,662.382 181.599,661.684 C182.323,660.986 182.685,660.012 182.685,658.762 C182.685,656.356 181.316,655.153 178.576,655.153 L177.545,655.184 L177.232,655.184 L177.232,653.074 C179.003,653.043 180.258,652.822 180.998,652.41 C181.737,651.999 182.107,651.184 182.107,649.965 C182.107,648.923 181.795,648.098 181.17,647.489 C180.545,646.879 179.691,646.574 178.607,646.574"/>
<path class="Note" fill="#ffffff" fill-opacity="0.0" fill-rule="evenodd" d="M234.342,690.732 L253.051,690.732 L253.051,715.535 L234.342,715.535 L234.342,690.732 "/>
<path class="Note" d="M243.322,696.181 C241.905,696.181 240.931,696.569 240.4,697.345 C239.869,698.121 239.582,699.155 239.54,700.446 L237.072,700.446 C237.165,696.165 239.238,694.024 243.29,694.024 C245.176,694.024 246.655,694.511 247.728,695.485 C248.801,696.459 249.337,697.795 249.337,699.493 C249.337,701.504 248.415,702.873 246.572,703.603 C247.759,704.019 248.616,704.595 249.142,705.329 C249.668,706.064 249.931,707.066 249.931,708.337 C249.931,710.222 249.319,711.725 248.095,712.845 C246.871,713.965 245.244,714.524 243.212,714.524 C239.139,714.524 236.952,712.389 236.65,708.118 L239.119,708.118 C239.212,709.556 239.595,710.618 240.267,711.306 C240.939,711.993 241.947,712.337 243.29,712.337 C244.582,712.337 245.59,711.988 246.314,711.29 C247.038,710.592 247.4,709.618 247.4,708.368 C247.4,705.962 246.03,704.759 243.29,704.759 L242.259,704.79 L241.947,704.79 L241.947,702.681 C243.718,702.649 244.973,702.428 245.712,702.017 C246.452,701.605 246.822,700.79 246.822,699.571 C246.822,698.53 246.509,697.704 245.884,697.095 C245.259,696.485 244.405,696.181 243.322,696.181"/>
<path class="Note" fill="#ffffff" fill-opacity="0.0" fill-rule="evenodd" d="M234.342,616.323 L253.051,616.323 L253.051,641.126 L234.342,641.126 L234.342,616.323 "/>
<path class="Note" d="M243.009,625.334 L238.619,625.334 L238.619,623.568 C240.525,623.329 241.767,622.993 242.345,622.56 C242.923,622.128 243.426,621.146 243.853,619.615 L245.478,619.615 L245.478,639.474 L243.009,639.474 L243.009,625.334 "/>
<path class="Note" fill="#ffffff" fill-opacity="0.0" fill-rule="evenodd" d="M299.056,690.732 L317.765,690.732 L317.765,715.535 L299.056,715.535 L299.056,690.732 "/>
<path class="Note" d="M309.63,709.118 L301.255,709.118 L301.255,706.524 L310.271,694.024 L312.099,694.024 L312.099,706.915 L315.036,706.915 L315.036,709.118 L312.099,709.118 L312.099,713.884 L309.63,713.884 L309.63,709.118 M309.63,706.915 L309.63,698.228 L303.411,706.915 L309.63,706.915 "/>
<path class="Note" fill="#ffffff" fill-opacity="0.0" fill-rule="evenodd" d="M299.056,616.323 L317.765,616.323 L317.765,641.126 L299.056,641.126 L299.056,616.323 "/>
<path class="Note" d="M301.88,626.506 C302.005,621.912 304.187,619.615 308.427,619.615 C310.312,619.615 311.843,620.157 313.021,621.24 C314.198,622.323 314.786,623.724 314.786,625.443 C314.786,627.912 313.385,629.912 310.583,631.443 L307.786,632.943 C306.567,633.599 305.698,634.235 305.177,634.849 C304.656,635.464 304.328,636.193 304.192,637.037 L314.646,637.037 L314.646,639.474 L301.427,639.474 C301.541,637.287 301.981,635.602 302.747,634.42 C303.513,633.237 304.932,632.058 307.005,630.881 L309.567,629.428 C311.359,628.396 312.255,627.089 312.255,625.506 C312.255,624.443 311.883,623.555 311.138,622.842 C310.393,622.128 309.463,621.771 308.349,621.771 C305.859,621.771 304.521,623.349 304.333,626.506 L301.88,626.506 "/>
<path class="Note" fill="#ffffff" fill-opacity="0.0" fill-rule="evenodd" d="M363.771,665.929 L382.479,665.929 L382.479,690.732 L363.771,690.732 L363.771,665.929 "/>
<path class="Note" d="M366.594,676.112 C366.719,671.518 368.902,669.221 373.141,669.221 C375.027,669.221 376.558,669.763 377.735,670.846 C378.912,671.93 379.501,673.331 379.501,675.049 C379.501,677.518 378.1,679.518 375.298,681.049 L372.501,682.549 C371.282,683.206 370.412,683.841 369.891,684.456 C369.37,685.07 369.042,685.799 368.907,686.643 L379.36,686.643 L379.36,689.081 L366.141,689.081 C366.256,686.893 366.696,685.208 367.462,684.026 C368.227,682.844 369.646,681.664 371.719,680.487 L374.282,679.034 C376.074,678.003 376.969,676.695 376.969,675.112 C376.969,674.049 376.597,673.161 375.852,672.448 C375.107,671.734 374.178,671.378 373.063,671.378 C370.574,671.378 369.235,672.956 369.048,676.112 L366.594,676.112 "/>
<path class="Note" fill="#ffffff" fill-opacity="0.0" fill-rule="evenodd" d="M363.771,591.52 L382.479,591.52 L382.479,616.323 L363.771,616.323 L363.771,591.52 "/>
<path class="Note" d="M366.391,605.062 C366.391,603.406 366.532,601.942 366.813,600.671 C367.094,599.4 367.449,598.406 367.876,597.687 C368.303,596.968 368.816,596.385 369.415,595.937 C370.014,595.489 370.589,595.189 371.141,595.038 C371.693,594.887 372.277,594.812 372.891,594.812 C377.225,594.812 379.391,598.286 379.391,605.234 C379.391,608.505 378.834,611.002 377.719,612.726 C376.605,614.45 374.995,615.312 372.891,615.312 C370.766,615.312 369.152,614.439 368.048,612.695 C366.943,610.95 366.391,608.406 366.391,605.062 M376.86,605.015 C376.86,599.671 375.534,596.999 372.883,596.999 C370.232,596.999 368.907,599.697 368.907,605.093 C368.907,610.541 370.214,613.265 372.829,613.265 C374.214,613.265 375.232,612.593 375.883,611.249 C376.534,609.906 376.86,607.828 376.86,605.015"/>
<path class="Note" fill="#ffffff" fill-opacity="0.0" fill-rule="evenodd" d="M428.485,665.929 L447.194,665.929 L447.194,690.732 L428.485,690.732 L428.485,665.929 "/>
<path class="Note" d="M437.465,671.378 C436.048,671.378 435.074,671.766 434.543,672.542 C434.012,673.318 433.726,674.352 433.684,675.643 L431.215,675.643 C431.309,671.362 433.382,669.221 437.434,669.221 C439.319,669.221 440.798,669.708 441.871,670.682 C442.944,671.656 443.481,672.992 443.481,674.69 C443.481,676.701 442.559,678.07 440.715,678.799 C441.903,679.216 442.759,679.792 443.285,680.526 C443.811,681.26 444.074,682.263 444.074,683.534 C444.074,685.419 443.463,686.922 442.239,688.042 C441.015,689.161 439.387,689.721 437.356,689.721 C433.283,689.721 431.095,687.586 430.793,683.315 L433.262,683.315 C433.356,684.753 433.739,685.815 434.41,686.503 C435.082,687.19 436.09,687.534 437.434,687.534 C438.726,687.534 439.733,687.185 440.457,686.487 C441.181,685.789 441.543,684.815 441.543,683.565 C441.543,681.159 440.173,679.956 437.434,679.956 L436.403,679.987 L436.09,679.987 L436.09,677.878 C437.861,677.846 439.116,677.625 439.856,677.214 C440.595,676.802 440.965,675.987 440.965,674.768 C440.965,673.727 440.653,672.901 440.028,672.292 C439.403,671.682 438.548,671.378 437.465,671.378"/>
<path class="Note" fill="#ffffff" fill-opacity="0.0" fill-rule="evenodd" d="M428.485,591.52 L447.194,591.52 L447.194,616.323 L428.485,616.323 L428.485,591.52 "/>
<path class="Note" d="M437.153,600.531 L432.762,600.531 L432.762,598.765 C434.668,598.525 435.91,598.189 436.489,597.757 C437.067,597.325 437.569,596.343 437.996,594.812 L439.621,594.812 L439.621,614.671 L437.153,614.671 L437.153,600.531 "/>
<path class="Note" fill="#ffffff" fill-opacity="0.0" fill-rule="evenodd" d="M493.2,665.929 L511.908,665.929 L511.908,690.732 L493.2,690.732 L493.2,665.929 "/>
<path class="Note" d="M503.773,684.315 L495.398,684.315 L495.398,681.721 L504.414,669.221 L506.242,669.221 L506.242,682.112 L509.18,682.112 L509.18,684.315 L506.242,684.315 L506.242,689.081 L503.773,689.081 L503.773,684.315 M503.773,682.112 L503.773,673.424 L497.555,682.112 L503.773,682.112 "/>
<path class="Note" fill="#ffffff" fill-opacity="0.0" fill-rule="evenodd" d="M493.2,591.52 L511.908,591.52 L511.908,616.323 L493.2,616.323 L493.2,591.52 "/>
<path class="Note" d="M496.023,601.703 C496.148,597.109 498.331,594.812 502.57,594.812 C504.456,594.812 505.987,595.354 507.164,596.437 C508.341,597.52 508.93,598.921 508.93,600.64 C508.93,603.109 507.529,605.109 504.726,606.64 L501.93,608.14 C500.711,608.796 499.841,609.432 499.32,610.046 C498.799,610.661 498.471,611.39 498.336,612.234 L508.789,612.234 L508.789,614.671 L495.57,614.671 C495.685,612.484 496.125,610.799 496.891,609.617 C497.656,608.434 499.075,607.255 501.148,606.078 L503.711,604.624 C505.502,603.593 506.398,602.286 506.398,600.703 C506.398,599.64 506.026,598.752 505.281,598.038 C504.536,597.325 503.607,596.968 502.492,596.968 C500.002,596.968 498.664,598.546 498.476,601.703 L496.023,601.703 "/>
<path class="Note" fill="#ffffff" fill-opacity="0.0" fill-rule="evenodd" d="M557.914,641.126 L576.623,641.126 L576.623,665.929 L557.914,665.929 L557.914,641.126 "/>
<path class="Note" d="M560.738,651.309 C560.863,646.715 563.045,644.418 567.285,644.418 C569.17,644.418 570.701,644.96 571.878,646.043 C573.056,647.127 573.644,648.528 573.644,650.246 C573.644,652.715 572.243,654.715 569.441,656.246 L566.644,657.746 C565.425,658.403 564.556,659.038 564.035,659.653 C563.514,660.267 563.186,660.996 563.05,661.84 L573.503,661.84 L573.503,664.278 L560.285,664.278 C560.399,662.09 560.839,660.405 561.605,659.223 C562.371,658.041 563.79,656.861 565.863,655.684 L568.425,654.231 C570.217,653.199 571.113,651.892 571.113,650.309 C571.113,649.246 570.74,648.358 569.996,647.645 C569.251,646.931 568.321,646.574 567.207,646.574 C564.717,646.574 563.378,648.153 563.191,651.309 L560.738,651.309 "/>
<path class="Note" fill="#ffffff" fill-opacity="0.0" fill-rule="evenodd" d="M557.914,591.52 L576.623,591.52 L576.623,616.323 L557.914,616.323 L557.914,591.52 "/>
<path class="Note" d="M572.66,594.812 L572.66,597.249 L564.394,597.249 L563.613,602.796 C564.717,601.994 565.941,601.593 567.285,601.593 C569.191,601.593 570.735,602.205 571.917,603.429 C573.1,604.653 573.691,606.244 573.691,608.203 C573.691,610.296 573.058,612.005 571.792,613.328 C570.527,614.65 568.894,615.312 566.894,615.312 C566.123,615.312 565.417,615.229 564.777,615.062 C564.136,614.895 563.605,614.695 563.183,614.46 C562.761,614.226 562.378,613.919 562.035,613.538 C561.691,613.158 561.431,612.822 561.253,612.531 C561.076,612.239 560.907,611.874 560.746,611.437 C560.584,610.999 560.485,610.697 560.449,610.531 C560.412,610.364 560.368,610.119 560.316,609.796 L562.769,609.796 C563.352,612.015 564.707,613.124 566.832,613.124 C568.175,613.124 569.235,612.716 570.011,611.898 C570.787,611.08 571.175,609.963 571.175,608.546 C571.175,607.067 570.782,605.903 569.996,605.054 C569.209,604.205 568.154,603.781 566.832,603.781 C566.071,603.781 565.42,603.916 564.878,604.187 C564.337,604.458 563.774,604.937 563.191,605.624 L560.925,605.624 L562.41,594.812 L572.66,594.812 "/>
<path class="Note" fill="#ffffff" fill-opacity="0.0" fill-rule="evenodd" d="M104.913,513.567 L123.622,513.567 L123.622,538.37 L104.913,538.37 L104.913,513.567 "/>
<path class="Note" d="M107.736,523.75 C107.861,519.156 110.044,516.859 114.283,516.859 C116.169,516.859 117.7,517.401 118.877,518.484 C120.054,519.567 120.643,520.969 120.643,522.687 C120.643,525.156 119.242,527.156 116.44,528.687 L113.643,530.187 C112.424,530.844 111.554,531.479 111.033,532.094 C110.513,532.708 110.184,533.437 110.049,534.281 L120.502,534.281 L120.502,536.719 L107.283,536.719 C107.398,534.531 107.838,532.846 108.604,531.664 C109.369,530.482 110.789,529.302 112.861,528.125 L115.424,526.672 C117.216,525.64 118.111,524.333 118.111,522.75 C118.111,521.687 117.739,520.799 116.994,520.086 C116.249,519.372 115.32,519.015 114.205,519.015 C111.716,519.015 110.377,520.594 110.19,523.75 L107.736,523.75 "/>
<path class="Note" fill="#ffffff" fill-opacity="0.0" fill-rule="evenodd" d="M104.913,463.961 L123.622,463.961 L123.622,488.764 L104.913,488.764 L104.913,463.961 "/>
<path class="Note" d="M107.533,477.503 C107.533,475.847 107.674,474.383 107.955,473.112 C108.236,471.841 108.591,470.847 109.018,470.128 C109.445,469.409 109.958,468.826 110.557,468.378 C111.156,467.93 111.731,467.63 112.283,467.479 C112.835,467.328 113.419,467.253 114.033,467.253 C118.367,467.253 120.533,470.727 120.533,477.675 C120.533,480.946 119.976,483.443 118.861,485.167 C117.747,486.891 116.138,487.753 114.033,487.753 C111.908,487.753 110.294,486.88 109.19,485.136 C108.085,483.391 107.533,480.847 107.533,477.503 M118.002,477.456 C118.002,472.112 116.677,469.44 114.026,469.44 C111.374,469.44 110.049,472.138 110.049,477.534 C110.049,482.982 111.356,485.706 113.971,485.706 C115.356,485.706 116.374,485.034 117.026,483.69 C117.677,482.347 118.002,480.268 118.002,477.456"/>
<path class="Note" fill="#ffffff" fill-opacity="0.0" fill-rule="evenodd" d="M169.627,513.567 L188.336,513.567 L188.336,538.37 L169.627,538.37 L169.627,513.567 "/>
<path class="Note" d="M178.607,519.015 C177.191,519.015 176.217,519.403 175.685,520.179 C175.154,520.955 174.868,521.989 174.826,523.281 L172.357,523.281 C172.451,519 174.524,516.859 178.576,516.859 C180.461,516.859 181.941,517.346 183.013,518.32 C184.086,519.294 184.623,520.63 184.623,522.328 C184.623,524.338 183.701,525.708 181.857,526.437 C183.045,526.854 183.901,527.429 184.428,528.164 C184.954,528.898 185.217,529.901 185.217,531.172 C185.217,533.057 184.605,534.56 183.381,535.679 C182.157,536.799 180.529,537.359 178.498,537.359 C174.425,537.359 172.237,535.224 171.935,530.953 L174.404,530.953 C174.498,532.39 174.881,533.453 175.553,534.14 C176.224,534.828 177.232,535.172 178.576,535.172 C179.868,535.172 180.875,534.823 181.599,534.125 C182.323,533.427 182.685,532.453 182.685,531.203 C182.685,528.797 181.316,527.594 178.576,527.594 L177.545,527.625 L177.232,527.625 L177.232,525.515 C179.003,525.484 180.258,525.263 180.998,524.851 C181.737,524.44 182.107,523.625 182.107,522.406 C182.107,521.364 181.795,520.539 181.17,519.929 C180.545,519.32 179.691,519.015 178.607,519.015"/>
<path class="Note" fill="#ffffff" fill-opacity="0.0" fill-rule="evenodd" d="M169.627,463.961 L188.336,463.961 L188.336,488.764 L169.627,488.764 L169.627,463.961 "/>
<path class="Note" d="M178.295,472.972 L173.904,472.972 L173.904,471.206 C175.81,470.966 177.053,470.63 177.631,470.198 C178.209,469.766 178.711,468.784 179.138,467.253 L180.763,467.253 L180.763,487.112 L178.295,487.112 L178.295,472.972 "/>
<path class="Note" fill="#ffffff" fill-opacity="0.0" fill-rule="evenodd" d="M234.342,513.567 L253.051,513.567 L253.051,538.37 L234.342,538.37 L234.342,513.567 "/>
<path class="Note" d="M249.087,516.859 L249.087,519.297 L240.822,519.297 L240.04,524.844 C241.145,524.041 242.369,523.64 243.712,523.64 C245.619,523.64 247.163,524.252 248.345,525.476 C249.527,526.7 250.119,528.291 250.119,530.25 C250.119,532.344 249.486,534.052 248.22,535.375 C246.954,536.698 245.322,537.359 243.322,537.359 C242.551,537.359 241.845,537.276 241.204,537.109 C240.564,536.942 240.033,536.742 239.611,536.508 C239.189,536.273 238.806,535.966 238.462,535.586 C238.119,535.205 237.858,534.87 237.681,534.578 C237.504,534.286 237.335,533.922 237.173,533.484 C237.012,533.047 236.913,532.745 236.876,532.578 C236.84,532.411 236.796,532.166 236.744,531.844 L239.197,531.844 C239.78,534.062 241.134,535.172 243.259,535.172 C244.603,535.172 245.663,534.763 246.439,533.945 C247.215,533.127 247.603,532.01 247.603,530.594 C247.603,529.114 247.21,527.95 246.423,527.101 C245.637,526.252 244.582,525.828 243.259,525.828 C242.499,525.828 241.848,525.963 241.306,526.234 C240.764,526.505 240.202,526.984 239.619,527.672 L237.353,527.672 L238.837,516.859 L249.087,516.859 "/>
<path class="Note" fill="#ffffff" fill-opacity="0.0" fill-rule="evenodd" d="M234.342,463.961 L253.051,463.961 L253.051,488.764 L234.342,488.764 L234.342,463.961 "/>
<path class="Note" d="M243.322,469.409 C241.905,469.409 240.931,469.797 240.4,470.573 C239.869,471.349 239.582,472.383 239.54,473.675 L237.072,473.675 C237.165,469.393 239.238,467.253 243.29,467.253 C245.176,467.253 246.655,467.74 247.728,468.714 C248.801,469.688 249.337,471.024 249.337,472.722 C249.337,474.732 248.415,476.102 246.572,476.831 C247.759,477.248 248.616,477.823 249.142,478.558 C249.668,479.292 249.931,480.295 249.931,481.565 C249.931,483.451 249.319,484.953 248.095,486.073 C246.871,487.193 245.244,487.753 243.212,487.753 C239.139,487.753 236.952,485.617 236.65,481.347 L239.119,481.347 C239.212,482.784 239.595,483.847 240.267,484.534 C240.939,485.222 241.947,485.565 243.29,485.565 C244.582,485.565 245.59,485.216 246.314,484.518 C247.038,483.821 247.4,482.847 247.4,481.597 C247.4,479.19 246.03,477.987 243.29,477.987 L242.259,478.018 L241.947,478.018 L241.947,475.909 C243.718,475.878 244.973,475.656 245.712,475.245 C246.452,474.834 246.822,474.018 246.822,472.8 C246.822,471.758 246.509,470.933 245.884,470.323 C245.259,469.714 244.405,469.409 243.322,469.409"/>
<path class="Note" fill="#ffffff" fill-opacity="0.0" fill-rule="evenodd" d="M299.056,513.567 L317.765,513.567 L317.765,538.37 L299.056,538.37 L299.056,513.567 "/>
<path class="Note" d="M301.677,527.672 C301.677,525.922 301.836,524.377 302.153,523.039 C302.471,521.7 302.867,520.651 303.341,519.89 C303.815,519.13 304.385,518.51 305.052,518.031 C305.718,517.552 306.346,517.237 306.935,517.086 C307.523,516.935 308.14,516.859 308.786,516.859 C310.297,516.859 311.552,517.317 312.552,518.234 C313.552,519.151 314.172,520.422 314.411,522.047 L311.958,522.047 C311.75,521.099 311.356,520.362 310.778,519.836 C310.2,519.31 309.479,519.047 308.614,519.047 C307.198,519.047 306.112,519.695 305.356,520.992 C304.601,522.289 304.213,524.151 304.192,526.578 C305.276,525.109 306.797,524.375 308.755,524.375 C310.536,524.375 311.994,524.963 313.13,526.14 C314.265,527.317 314.833,528.828 314.833,530.672 C314.833,532.609 314.224,534.208 313.005,535.469 C311.786,536.729 310.234,537.359 308.349,537.359 C303.901,537.359 301.677,534.13 301.677,527.672 M308.458,526.562 C307.239,526.562 306.247,526.948 305.481,527.719 C304.716,528.489 304.333,529.495 304.333,530.734 C304.333,531.995 304.716,533.049 305.481,533.898 C306.247,534.747 307.208,535.172 308.364,535.172 C309.51,535.172 310.455,534.768 311.2,533.961 C311.945,533.153 312.317,532.12 312.317,530.859 C312.317,529.536 311.971,528.489 311.278,527.719 C310.586,526.948 309.646,526.562 308.458,526.562"/>
<path class="Note" fill="#ffffff" fill-opacity="0.0" fill-rule="evenodd" d="M299.056,463.961 L317.765,463.961 L317.765,488.764 L299.056,488.764 L299.056,463.961 "/>
<path class="Note" d="M309.63,482.347 L301.255,482.347 L301.255,479.753 L310.271,467.253 L312.099,467.253 L312.099,480.143 L315.036,480.143 L315.036,482.347 L312.099,482.347 L312.099,487.112 L309.63,487.112 L309.63,482.347 M309.63,480.143 L309.63,471.456 L303.411,480.143 L309.63,480.143 "/>
<path class="Note" fill="#ffffff" fill-opacity="0.0" fill-rule="evenodd" d="M363.771,488.764 L382.479,488.764 L382.479,513.567 L363.771,513.567 L363.771,488.764 "/>
<path class="Note" d="M366.594,498.947 C366.719,494.353 368.902,492.056 373.141,492.056 C375.027,492.056 376.558,492.598 377.735,493.681 C378.912,494.764 379.501,496.165 379.501,497.884 C379.501,500.353 378.1,502.353 375.298,503.884 L372.501,505.384 C371.282,506.04 370.412,506.676 369.891,507.29 C369.37,507.905 369.042,508.634 368.907,509.478 L379.36,509.478 L379.36,511.915 L366.141,511.915 C366.256,509.728 366.696,508.043 367.462,506.861 C368.227,505.678 369.646,504.499 371.719,503.322 L374.282,501.868 C376.074,500.837 376.969,499.53 376.969,497.947 C376.969,496.884 376.597,495.996 375.852,495.283 C375.107,494.569 374.178,494.212 373.063,494.212 C370.574,494.212 369.235,495.79 369.048,498.947 L366.594,498.947 "/>
<path class="Note" fill="#ffffff" fill-opacity="0.0" fill-rule="evenodd" d="M363.771,439.157 L382.479,439.157 L382.479,463.961 L363.771,463.961 L363.771,439.157 "/>
<path class="Note" d="M366.391,452.7 C366.391,451.043 366.532,449.58 366.813,448.309 C367.094,447.038 367.449,446.043 367.876,445.325 C368.303,444.606 368.816,444.023 369.415,443.575 C370.014,443.127 370.589,442.827 371.141,442.676 C371.693,442.525 372.277,442.45 372.891,442.45 C377.225,442.45 379.391,445.924 379.391,452.872 C379.391,456.142 378.834,458.64 377.719,460.364 C376.605,462.088 374.995,462.95 372.891,462.95 C370.766,462.95 369.152,462.077 368.048,460.333 C366.943,458.588 366.391,456.043 366.391,452.7 M376.86,452.653 C376.86,447.309 375.534,444.637 372.883,444.637 C370.232,444.637 368.907,447.335 368.907,452.731 C368.907,458.179 370.214,460.903 372.829,460.903 C374.214,460.903 375.232,460.231 375.883,458.887 C376.534,457.543 376.86,455.465 376.86,452.653"/>
<path class="Note" fill="#ffffff" fill-opacity="0.0" fill-rule="evenodd" d="M428.485,488.764 L447.194,488.764 L447.194,513.567 L428.485,513.567 L428.485,488.764 "/>
<path class="Note" d="M437.465,494.212 C436.048,494.212 435.074,494.6 434.543,495.376 C434.012,496.152 433.726,497.186 433.684,498.478 L431.215,498.478 C431.309,494.197 433.382,492.056 437.434,492.056 C439.319,492.056 440.798,492.543 441.871,493.517 C442.944,494.491 443.481,495.827 443.481,497.525 C443.481,499.535 442.559,500.905 440.715,501.634 C441.903,502.051 442.759,502.626 443.285,503.361 C443.811,504.095 444.074,505.098 444.074,506.368 C444.074,508.254 443.463,509.757 442.239,510.876 C441.015,511.996 439.387,512.556 437.356,512.556 C433.283,512.556 431.095,510.421 430.793,506.15 L433.262,506.15 C433.356,507.587 433.739,508.65 434.41,509.337 C435.082,510.025 436.09,510.368 437.434,510.368 C438.726,510.368 439.733,510.02 440.457,509.322 C441.181,508.624 441.543,507.65 441.543,506.4 C441.543,503.993 440.173,502.79 437.434,502.79 L436.403,502.822 L436.09,502.822 L436.09,500.712 C437.861,500.681 439.116,500.46 439.856,500.048 C440.595,499.637 440.965,498.822 440.965,497.603 C440.965,496.561 440.653,495.736 440.028,495.126 C439.403,494.517 438.548,494.212 437.465,494.212"/>
<path class="Note" fill="#ffffff" fill-opacity="0.0" fill-rule="evenodd" d="M428.485,439.157 L447.194,439.157 L447.194,463.961 L428.485,463.961 L428.485,439.157 "/>
<path class="Note" d="M437.153,448.168 L432.762,448.168 L432.762,446.403 C434.668,446.163 435.91,445.827 436.489,445.395 C437.067,444.963 437.569,443.981 437.996,442.45 L439.621,442.45 L439.621,462.309 L437.153,462.309 L437.153,448.168 "/>
<path class="Note" fill="#ffffff" fill-opacity="0.0" fill-rule="evenodd" d="M493.2,488.764 L511.908,488.764 L511.908,513.567 L493.2,513.567 L493.2,488.764 "/>
<path class="Note" d="M503.773,507.15 L495.398,507.15 L495.398,504.556 L504.414,492.056 L506.242,492.056 L506.242,504.947 L509.18,504.947 L509.18,507.15 L506.242,507.15 L506.242,511.915 L503.773,511.915 L503.773,507.15 M503.773,504.947 L503.773,496.259 L497.555,504.947 L503.773,504.947 "/>
<path class="Note" fill="#ffffff" fill-opacity="0.0" fill-rule="evenodd" d="M493.2,439.157 L511.908,439.157 L511.908,463.961 L493.2,463.961 L493.2,439.157 "/>
<path class="Note" d="M496.023,449.34 C496.148,444.747 498.331,442.45 502.57,442.45 C504.456,442.45 505.987,442.991 507.164,444.075 C508.341,445.158 508.93,446.559 508.93,448.278 C508.93,450.747 507.529,452.747 504.726,454.278 L501.93,455.778 C500.711,456.434 499.841,457.069 499.32,457.684 C498.799,458.299 498.471,459.028 498.336,459.872 L508.789,459.872 L508.789,462.309 L495.57,462.309 C495.685,460.122 496.125,458.437 496.891,457.254 C497.656,456.072 499.075,454.892 501.148,453.715 L503.711,452.262 C505.502,451.231 506.398,449.924 506.398,448.34 C506.398,447.278 506.026,446.39 505.281,445.676 C504.536,444.963 503.607,444.606 502.492,444.606 C500.002,444.606 498.664,446.184 498.476,449.34 L496.023,449.34 "/>
<path class="Note" fill="#ffffff" fill-opacity="0.0" fill-rule="evenodd" d="M557.914,463.961 L576.623,463.961 L576.623,488.764 L557.914,488.764 L557.914,463.961 "/>
<path class="Note" d="M560.535,477.503 C560.535,475.847 560.675,474.383 560.957,473.112 C561.238,471.841 561.592,470.847 562.019,470.128 C562.446,469.409 562.959,468.826 563.558,468.378 C564.157,467.93 564.733,467.63 565.285,467.479 C565.837,467.328 566.42,467.253 567.035,467.253 C571.368,467.253 573.535,470.727 573.535,477.675 C573.535,480.946 572.977,483.443 571.863,485.167 C570.748,486.891 569.139,487.753 567.035,487.753 C564.91,487.753 563.295,486.88 562.191,485.136 C561.087,483.391 560.535,480.847 560.535,477.503 M571.003,477.456 C571.003,472.112 569.678,469.44 567.027,469.44 C564.376,469.44 563.05,472.138 563.05,477.534 C563.05,482.982 564.358,485.706 566.972,485.706 C568.358,485.706 569.376,485.034 570.027,483.69 C570.678,482.347 571.003,480.268 571.003,477.456"/>
<path class="Note" fill="#ffffff" fill-opacity="0.0" fill-rule="evenodd" d="M557.914,439.157 L576.623,439.157 L576.623,463.961 L557.914,463.961 L557.914,439.157 "/>
<path class="Note" d="M572.66,442.45 L572.66,444.887 L564.394,444.887 L563.613,450.434 C564.717,449.632 565.941,449.231 567.285,449.231 C569.191,449.231 570.735,449.843 571.917,451.067 C573.1,452.291 573.691,453.882 573.691,455.84 C573.691,457.934 573.058,459.642 571.792,460.965 C570.527,462.288 568.894,462.95 566.894,462.95 C566.123,462.95 565.417,462.866 564.777,462.7 C564.136,462.533 563.605,462.333 563.183,462.098 C562.761,461.864 562.378,461.556 562.035,461.176 C561.691,460.796 561.431,460.46 561.253,460.168 C561.076,459.877 560.907,459.512 560.746,459.075 C560.584,458.637 560.485,458.335 560.449,458.168 C560.412,458.002 560.368,457.757 560.316,457.434 L562.769,457.434 C563.352,459.653 564.707,460.762 566.832,460.762 C568.175,460.762 569.235,460.353 570.011,459.536 C570.787,458.718 571.175,457.601 571.175,456.184 C571.175,454.705 570.782,453.541 569.996,452.692 C569.209,451.843 568.154,451.418 566.832,451.418 C566.071,451.418 565.42,451.554 564.878,451.825 C564.337,452.096 563.774,452.575 563.191,453.262 L560.925,453.262 L562.41,442.45 L572.66,442.45 "/>
<path class="Note" transform="matrix(0.566929,0,0,0.566929,103.637,366.52)" d="M21.9688,-13.7656 C25.0938,-13.7656 27.7344,-12.9531 29.8906,-11.3281 C31.901,-9.56771 32.9063,-7.35417 32.9063,-4.6875 C32.9063,-0.197917 30.599,4 25.9844,7.90625 C21.2969,11.8125 16.2813,13.7656 10.9375,13.7656 C7.8125,13.7656 5.17708,12.9531 3.03125,11.3281 C1.01042,9.56771 0,7.35417 0,4.6875 C0,0.197917 2.34375,-4 7.03125,-7.90625 C11.5938,-11.8125 16.5729,-13.7656 21.9688,-13.7656"/>
<path class="Note" transform="matrix(0.566929,0,0,0.566929,168.352,359.433)" d="M21.9688,-13.7656 C25.0938,-13.7656 27.7344,-12.9531 29.8906,-11.3281 C31.901,-9.56771 32.9063,-7.35417 32.9063,-4.6875 C32.9063,-0.197917 30.599,4 25.9844,7.90625 C21.2969,11.8125 16.2813,13.7656 10.9375,13.7656 C7.8125,13.7656 5.17708,12.9531 3.03125,11.3281 C1.01042,9.56771 0,7.35417 0,4.6875 C0,0.197917 2.34375,-4 7.03125,-7.90625 C11.5938,-11.8125 16.5729,-13.7656 21.9688,-13.7656"/>
<path class="Note" transform="matrix(0.566929,0,0,0.566929,233.066,352.346)" d="M21.9688,-13.7656 C25.0938,-13.7656 27.7344,-12.9531 29.8906,-11.3281 C31.901,-9.56771 32.9063,-7.35417 32.9063,-4.6875 C32.9063,-0.197917 30.599,4 25.9844,7.90625 C21.2969,11.8125 16.2813,13.7656 10.9375,13.7656 C7.8125,13.7656 5.17708,12.9531 3.03125,11.3281 C1.01042,9.56771 0,7.35417 0,4.6875 C0,0.197917 2.34375,-4 7.03125,-7.90625 C11.5938,-11.8125 16.5729,-13.7656 21.9688,-13.7656"/>
<path class="Note" transform="matrix(0.566929,0,0,0.566929,297.781,345.26)" d="M21.9688,-13.7656 C25.0938,-13.7656 27.7344,-12.9531 29.8906,-11.3281 C31.901,-9.56771 32.9063,-7.35417 32.9063,-4.6875 C32.9063,-0.197917 30.599,4 25.9844,7.90625 C21.2969,11.8125 16.2813,13.7656 10.9375,13.7656 C7.8125,13.7656 5.17708,12.9531 3.03125,11.3281 C1.01042,9.56771 0,7.35417 0,4.6875 C0,0.197917 2.34375,-4 7.03125,-7.90625 C11.5938,-11.8125 16.5729,-13.7656 21.9688,-13.7656"/>
<path class="Note" transform="matrix(0.566929,0,0,0.566929,362.495,338.173)" d="M21.9688,-13.7656 C25.0938,-13.7656 27.7344,-12.9531 29.8906,-11.3281 C31.901,-9.56771 32.9063,-7.35417 32.9063,-4.6875 C32.9063,-0.197917 30.599,4 25.9844,7.90625 C21.2969,11.8125 16.2813,13.7656 10.9375,13.7656 C7.8125,13.7656 5.17708,12.9531 3.03125,11.3281 C1.01042,9.56771 0,7.35417 0,4.6875 C0,0.197917 2.34375,-4 7.03125,-7.90625 C11.5938,-11.8125 16.5729,-13.7656 21.9688,-13.7656"/>
<path class="Note" transform="matrix(0.566929,0,0,0.566929,427.21,331.087)" d="M21.9688,-13.7656 C25.0938,-13.7656 27.7344,-12.9531 29.8906,-11.3281 C31.901,-9.56771 32.9063,-7.35417 32.9063,-4.6875 C32.9063,-0.197917 30.599,4 25.9844,7.90625 C21.2969,11.8125 16.2813,13.7656 10.9375,13.7656 C7.8125,13.7656 5.17708,12.9531 3.03125,11.3281 C1.01042,9.56771 0,7.35417 0,4.6875 C0,0.197917 2.34375,-4 7.03125,-7.90625 C11.5938,-11.8125 16.5729,-13.7656 21.9688,-13.7656"/>
<path class="Note" transform="matrix(0.566929,0,0,0.566929,491.924,324)" d="M21.9688,-13.7656 C25.0938,-13.7656 27.7344,-12.9531 29.8906,-11.3281 C31.901,-9.56771 32.9063,-7.35417 32.9063,-4.6875 C32.9063,-0.197917 30.599,4 25.9844,7.90625 C21.2969,11.8125 16.2813,13.7656 10.9375,13.7656 C7.8125,13.7656 5.17708,12.9531 3.03125,11.3281 C1.01042,9.56771 0,7.35417 0,4.6875 C0,0.197917 2.34375,-4 7.03125,-7.90625 C11.5938,-11.8125 16.5729,-13.7656 21.9688,-13.7656"/>
<path class="Note" transform="matrix(0.566929,0,0,0.566929,556.639,316.913)" d="M21.9688,-13.7656 C25.0938,-13.7656 27.7344,-12.9531 29.8906,-11.3281 C31.901,-9.56771 32.9063,-7.35417 32.9063,-4.6875 C32.9063,-0.197917 30.599,4 25.9844,7.90625 C21.2969,11.8125 16.2813,13.7656 10.9375,13.7656 C7.8125,13.7656 5.17708,12.9531 3.03125,11.3281 C1.01042,9.56771 0,7.35417 0,4.6875 C0,0.197917 2.34375,-4 7.03125,-7.90625 C11.5938,-11.8125 16.5729,-13.7656 21.9688,-13.7656"/>
<path class="Note" transform="matrix(0.566929,0,0,0.566929,103.637,224.787)" d="M21.9688,-13.7656 C25.0938,-13.7656 27.7344,-12.9531 29.8906,-11.3281 C31.901,-9.56771 32.9063,-7.35417 32.9063,-4.6875 C32.9063,-0.197917 30.599,4 25.9844,7.90625 C21.2969,11.8125 16.2813,13.7656 10.9375,13.7656 C7.8125,13.7656 5.17708,12.9531 3.03125,11.3281 C1.01042,9.56771 0,7.35417 0,4.6875 C0,0.197917 2.34375,-4 7.03125,-7.90625 C11.5938,-11.8125 16.5729,-13.7656 21.9688,-13.7656"/>
<path class="Note" transform="matrix(0.566929,0,0,0.566929,168.352,217.701)" d="M21.9688,-13.7656 C25.0938,-13.7656 27.7344,-12.9531 29.8906,-11.3281 C31.901,-9.56771 32.9063,-7.35417 32.9063,-4.6875 C32.9063,-0.197917 30.599,4 25.9844,7.90625 C21.2969,11.8125 16.2813,13.7656 10.9375,13.7656 C7.8125,13.7656 5.17708,12.9531 3.03125,11.3281 C1.01042,9.56771 0,7.35417 0,4.6875 C0,0.197917 2.34375,-4 7.03125,-7.90625 C11.5938,-11.8125 16.5729,-13.7656 21.9688,-13.7656"/>
<path class="Note" transform="matrix(0.566929,0,0,0.566929,233.066,210.614)" d="M21.9688,-13.7656 C25.0938,-13.7656 27.7344,-12.9531 29.8906,-11.3281 C31.901,-9.56771 32.9063,-7.35417 32.9063,-4.6875 C32.9063,-0.197917 30.599,4 25.9844,7.90625 C21.2969,11.8125 16.2813,13.7656 10.9375,13.7656 C7.8125,13.7656 5.17708,12.9531 3.03125,11.3281 C1.01042,9.56771 0,7.35417 0,4.6875 C0,0.197917 2.34375,-4 7.03125,-7.90625 C11.5938,-11.8125 16.5729,-13.7656 21.9688,-13.7656"/>
<path class="Note" transform="matrix(0.566929,0,0,0.566929,297.781,203.528)" d="M21.9688,-13.7656 C25.0938,-13.7656 27.7344,-12.9531 29.8906,-11.3281 C31.901,-9.56771 32.9063,-7.35417 32.9063,-4.6875 C32.9063,-0.197917 30.599,4 25.9844,7.90625 C21.2969,11.8125 16.2813,13.7656 10.9375,13.7656 C7.8125,13.7656 5.17708,12.9531 3.03125,11.3281 C1.01042,9.56771 0,7.35417 0,4.6875 C0,0.197917 2.34375,-4 7.03125,-7.90625 C11.5938,-11.8125 16.5729,-13.7656 21.9688,-13.7656"/>
<path class="Note" transform="matrix(0.566929,0,0,0.566929,362.495,196.441)" d="M21.9688,-13.7656 C25.0938,-13.7656 27.7344,-12.9531 29.8906,-11.3281 C31.901,-9.56771 32.9063,-7.35417 32.9063,-4.6875 C32.9063,-0.197917 30.599,4 25.9844,7.90625 C21.2969,11.8125 16.2813,13.7656 10.9375,13.7656 C7.8125,13.7656 5.17708,12.9531 3.03125,11.3281 C1.01042,9.56771 0,7.35417 0,4.6875 C0,0.197917 2.34375,-4 7.03125,-7.90625 C11.5938,-11.8125 16.5729,-13.7656 21.9688,-13.7656"/>
<path class="Note" transform="matrix(0.566929,0,0,0.566929,427.21,189.354)" d="M21.9688,-13.7656 C25.0938,-13.7656 27.7344,-12.9531 29.8906,-11.3281 C31.901,-9.56771 32.9063,-7.35417 32.9063,-4.6875 C32.9063,-0.197917 30.599,4 25.9844,7.90625 C21.2969,11.8125 16.2813,13.7656 10.9375,13.7656 C7.8125,13.7656 5.17708,12.9531 3.03125,11.3281 C1.01042,9.56771 0,7.35417 0,4.6875 C0,0.197917 2.34375,-4 7.03125,-7.90625 C11.5938,-11.8125 16.5729,-13.7656 21.9688,-13.7656"/>
<path class="Note" transform="matrix(0.566929,0,0,0.566929,491.924,182.268)" d="M21.9688,-13.7656 C25.0938,-13.7656 27.7344,-12.9531 29.8906,-11.3281 C31.901,-9.56771 32.9063,-7.35417 32.9063,-4.6875 C32.9063,-0.197917 30.599,4 25.9844,7.90625 C21.2969,11.8125 16.2813,13.7656 10.9375,13.7656 C7.8125,13.7656 5.17708,12.9531 3.03125,11.3281 C1.01042,9.56771 0,7.35417 0,4.6875 C0,0.197917 2.34375,-4 7.03125,-7.90625 C11.5938,-11.8125 16.5729,-13.7656 21.9688,-13.7656"/>
<path class="Note" transform="matrix(0.566929,0,0,0.566929,556.639,175.181)" d="M21.9688,-13.7656 C25.0938,-13.7656 27.7344,-12.9531 29.8906,-11.3281 C31.901,-9.56771 32.9063,-7.35417 32.9063,-4.6875 C32.9063,-0.197917 30.599,4 25.9844,7.90625 C21.2969,11.8125 16.2813,13.7656 10.9375,13.7656 C7.8125,13.7656 5.17708,12.9531 3.03125,11.3281 C1.01042,9.56771 0,7.35417 0,4.6875 C0,0.197917 2.34375,-4 7.03125,-7.90625 C11.5938,-11.8125 16.5729,-13.7656 21.9688,-13.7656"/>
<path class="Note" transform="matrix(0.566929,0,0,0.566929,103.637,83.0551)" d="M21.9688,-13.7656 C25.0938,-13.7656 27.7344,-12.9531 29.8906,-11.3281 C31.901,-9.56771 32.9063,-7.35417 32.9063,-4.6875 C32.9063,-0.197917 30.599,4 25.9844,7.90625 C21.2969,11.8125 16.2813,13.7656 10.9375,13.7656 C7.8125,13.7656 5.17708,12.9531 3.03125,11.3281 C1.01042,9.56771 0,7.35417 0,4.6875 C0,0.197917 2.34375,-4 7.03125,-7.90625 C11.5938,-11.8125 16.5729,-13.7656 21.9688,-13.7656"/>
<path class="Note" transform="matrix(0.566929,0,0,0.566929,168.352,75.9685)" d="M21.9688,-13.7656 C25.0938,-13.7656 27.7344,-12.9531 29.8906,-11.3281 C31.901,-9.56771 32.9063,-7.35417 32.9063,-4.6875 C32.9063,-0.197917 30.599,4 25.9844,7.90625 C21.2969,11.8125 16.2813,13.7656 10.9375,13.7656 C7.8125,13.7656 5.17708,12.9531 3.03125,11.3281 C1.01042,9.56771 0,7.35417 0,4.6875 C0,0.197917 2.34375,-4 7.03125,-7.90625 C11.5938,-11.8125 16.5729,-13.7656 21.9688,-13.7656"/>
<path class="Note" transform="matrix(0.566929,0,0,0.566929,233.066,68.8819)" d="M21.9688,-13.7656 C25.0938,-13.7656 27.7344,-12.9531 29.8906,-11.3281 C31.901,-9.56771 32.9063,-7.35417 32.9063,-4.6875 C32.9063,-0.197917 30.599,4 25.9844,7.90625 C21.2969,11.8125 16.2813,13.7656 10.9375,13.7656 C7.8125,13.7656 5.17708,12.9531 3.03125,11.3281 C1.01042,9.56771 0,7.35417 0,4.6875 C0,0.197917 2.34375,-4 7.03125,-7.90625 C11.5938,-11.8125 16.5729,-13.7656 21.9688,-13.7656"/>
<path class="Note" transform="matrix(0.566929,0,0,0.566929,297.781,61.7953)" d="M21.9688,-13.7656 C25.0938,-13.7656 27.7344,-12.9531 29.8906,-11.3281 C31.901,-9.56771 32.9063,-7.35417 32.9063,-4.6875 C32.9063,-0.197917 30.599,4 25.9844,7.90625 C21.2969,11.8125 16.2813,13.7656 10.9375,13.7656 C7.8125,13.7656 5.17708,12.9531 3.03125,11.3281 C1.01042,9.56771 0,7.35417 0,4.6875 C0,0.197917 2.34375,-4 7.03125,-7.90625 C11.5938,-11.8125 16.5729,-13.7656 21.9688,-13.7656"/>
<path class="Note" transform="matrix(0.566929,0,0,0.566929,362.495,54.7087)" d="M21.9688,-13.7656 C25.0938,-13.7656 27.7344,-12.9531 29.8906,-11.3281 C31.901,-9.56771 32.9063,-7.35417 32.9063,-4.6875 C32.9063,-0.197917 30.599,4 25.9844,7.90625 C21.2969,11.8125 16.2813,13.7656 10.9375,13.7656 C7.8125,13.7656 5.17708,12.9531 3.03125,11.3281 C1.01042,9.56771 0,7.35417 0,4.6875 C0,0.197917 2.34375,-4 7.03125,-7.90625 C11.5938,-11.8125 16.5729,-13.7656 21.9688,-13.7656"/>
<path class="Note" transform="matrix(0.566929,0,0,0.566929,427.21,47.6221)" d="M21.9688,-13.7656 C25.0938,-13.7656 27.7344,-12.9531 29.8906,-11.3281 C31.901,-9.56771 32.9063,-7.35417 32.9063,-4.6875 C32.9063,-0.197917 30.599,4 25.9844,7.90625 C21.2969,11.8125 16.2813,13.7656 10.9375,13.7656 C7.8125,13.7656 5.17708,12.9531 3.03125,11.3281 C1.01042,9.56771 0,7.35417 0,4.6875 C0,0.197917 2.34375,-4 7.03125,-7.90625 C11.5938,-11.8125 16.5729,-13.7656 21.9688,-13.7656"/>
<path class="Note" transform="matrix(0.566929,0,0,0.566929,491.924,40.5354)" d="M21.9688,-13.7656 C25.0938,-13.7656 27.7344,-12.9531 29.8906,-11.3281 C31.901,-9.56771 32.9063,-7.35417 32.9063,-4.6875 C32.9063,-0.197917 30.599,4 25.9844,7.90625 C21.2969,11.8125 16.2813,13.7656 10.9375,13.7656 C7.8125,13.7656 5.17708,12.9531 3.03125,11.3281 C1.01042,9.56771 0,7.35417 0,4.6875 C0,0.197917 2.34375,-4 7.03125,-7.90625 C11.5938,-11.8125 16.5729,-13.7656 21.9688,-13.7656"/>
<path class="Note" transform="matrix(0.566929,0,0,0.566929,556.639,33.4488)" d="M21.9688,-13.7656 C25.0938,-13.7656 27.7344,-12.9531 29.8906,-11.3281 C31.901,-9.56771 32.9063,-7.35417 32.9063,-4.6875 C32.9063,-0.197917 30.599,4 25.9844,7.90625 C21.2969,11.8125 16.2813,13.7656 10.9375,13.7656 C7.8125,13.7656 5.17708,12.9531 3.03125,11.3281 C1.01042,9.56771 0,7.35417 0,4.6875 C0,0.197917 2.34375,-4 7.03125,-7.90625 C11.5938,-11.8125 16.5729,-13.7656 21.9688,-13.7656"/>
<path class="Clef" transform="matrix(0.566929,0,0,0.566929,28.5015,665.929)" d="M26.6563,42.4844 C26.6563,44.3073 25.224,45.2188 22.3594,45.2188 C20.0885,45.2188 18.1042,44.5365 16.4063,43.1719 C14.7813,41.7344 13.9688,39.9115 13.9688,37.7031 C13.9688,33.7969 16.3438,30.6719 21.0938,28.3281 C25.7188,25.9115 31.1563,24.7031 37.4063,24.7031 C39.8125,24.7031 42.3854,24.8698 45.125,25.2031 C47.1354,25.4635 49.3802,25.9844 51.8594,26.7656 C54.0677,27.474 55.7917,28.5443 57.0313,29.9766 C58.2708,31.4089 58.8906,33.0729 58.8906,34.9688 C58.8906,39.4583 56.5781,43.1354 51.9531,46 C58.724,47.2396 62.1406,50.2656 62.2031,55.0781 C62.2031,59.1198 60.3802,62.7682 56.7344,66.0234 C53.0885,69.2786 48.9583,70.9063 44.3438,70.9063 C42.3854,70.9063 40.3958,70.4479 38.375,69.5313 C36.4896,68.625 35.1563,67.7813 34.375,67 C33.5938,66.0833 33.2031,65.3958 33.2031,64.9375 C33.2031,64.2917 33.5313,63.7396 34.1875,63.2813 C34.7708,62.6979 35.3854,62.4063 36.0313,62.4063 C36.2917,62.4063 36.8464,62.8281 37.6953,63.6719 C38.5443,64.5156 39.7813,64.9375 41.4063,64.9375 C43.625,64.9375 45.776,63.9948 47.8594,62.1094 C49.8698,60.2865 50.875,58.1042 50.875,55.5625 C50.875,53.3542 49.9323,51.7604 48.0469,50.7813 C46.1615,49.8021 43.7552,49.3125 40.8281,49.3125 C40.3073,49.3125 40.0469,48.7604 40.0469,47.6563 C40.0469,46.0938 40.6302,45.3125 41.7969,45.3125 C43.6198,45.3125 45.25,44.5313 46.6875,42.9688 C48.0521,41.2813 48.7344,39.4896 48.7344,37.5938 C48.7344,37.0104 48.5729,36.1354 48.25,34.9688 C47.9896,34.1875 47.2083,33.2396 45.9063,32.125 C44.6667,31.0833 42.9375,30.3698 40.7188,29.9844 C40.1354,33.1719 39.4036,37.2396 38.5234,42.1875 C37.6432,47.1354 37.0417,50.3906 36.7188,51.9531 C35.6146,57.5573 33.599,62.276 30.6719,66.1094 C27.6094,70.151 24.3177,72.1719 20.7969,72.1719 C19.6927,72.1719 18.5573,71.9115 17.3906,71.3906 C16.474,70.9948 15.3021,70.1823 13.875,68.9531 C12.5729,67.9115 11.6927,67.224 11.2344,66.8906 C10.974,66.7031 10.8438,66.4115 10.8438,66.0156 C10.8438,65.3698 11.0729,64.7865 11.5313,64.2656 C12.0521,63.6719 12.6042,63.375 13.1875,63.375 C13.5729,63.375 14.4818,63.9948 15.9141,65.2344 C17.3464,66.474 18.8438,67.0938 20.4063,67.0938 C23.4063,67.0938 25.6563,65.1719 27.1563,61.3281 C28.5833,57.6198 29.2969,53.0313 29.2969,47.5625 L29.2969,46.7813 C29.2969,43.1354 29.8854,37.6979 31.0625,30.4688 C28.9792,31.125 27.3177,32.1042 26.0781,33.4063 C24.776,34.7083 24.125,36.0729 24.125,37.5 C24.125,38.6042 24.5469,39.5469 25.3906,40.3281 C26.2344,41.1094 26.6563,41.8281 26.6563,42.4844 M7.03125,11.9219 C7.35417,11.9219 8.13542,12.2448 9.375,12.8906 C10.6771,13.5469 11.7865,13.875 12.7031,13.875 C15.1719,13.875 18.1979,12.0833 21.7813,8.5 C32.1354,-2.05208 39.2656,-13.25 43.1719,-25.0938 C43.9531,-27.5729 45.8698,-28.8125 48.9219,-28.8125 C50.4844,-28.8125 51.8229,-28.4844 52.9375,-27.8281 C54.0417,-27.1198 54.5938,-26.4063 54.5938,-25.6875 L52.8281,10.8438 C52.8281,12.7917 53.5156,13.7656 54.8906,13.7656 C55.599,13.7656 56.6406,13.4427 58.0156,12.7969 C59.3177,12.1406 60.099,11.8125 60.3594,11.8125 C60.8802,11.8125 61.2031,12.3698 61.3281,13.4844 C61.3281,14.526 60.9063,15.1771 60.0625,15.4375 C59.4063,15.625 58.1042,16.2396 56.1563,17.2813 C54.1354,18.3229 52.5417,18.8438 51.375,18.8438 C48.8958,18.8438 47.1354,16.8906 46.0938,12.9844 C44.4688,6.86979 43.4271,0.520833 42.9688,-6.0625 C40.3646,-2.73958 37.4688,0.614583 34.2813,4 C35.4479,6.21875 37.5938,7.32813 40.7188,7.32813 C41.1771,7.32813 41.5365,7.29688 41.7969,7.23438 L41.8906,7.23438 C42.4115,7.23438 42.6719,7.71875 42.6719,8.6875 C42.6719,9.92708 42.25,10.6771 41.4063,10.9375 C40.0417,11.3958 38.6094,11.625 37.1094,11.625 C33.8594,11.625 31.5156,10.5156 30.0781,8.29688 L26.1719,11.8125 C20.7031,16.5 16.2448,18.8438 12.7969,18.8438 C11.8802,18.8438 10.9375,18.6823 9.96875,18.3594 C9.1875,18.0365 8.27604,17.5469 7.23438,16.8906 C6.83854,16.7031 6.39583,16.4609 5.90625,16.1641 C5.41667,15.8672 5.10938,15.6875 4.98438,15.625 C4.66146,15.5 4.5,15.2083 4.5,14.75 C4.5,14.2292 4.76042,13.6094 5.28125,12.8906 C5.72917,12.2448 6.3125,11.9219 7.03125,11.9219 M28.8125,-54 C28.8125,-52.375 27.4115,-51.5625 24.6094,-51.5625 C22.1406,-51.5625 19.9948,-52.375 18.1719,-54 C16.4115,-55.6354 15.5313,-57.625 15.5313,-59.9688 C15.5313,-62.2396 16.2448,-64.1927 17.6719,-65.8281 C19.1719,-67.5156 21.0938,-68.7813 23.4375,-69.625 C25.5833,-70.4063 27.9948,-71.026 30.6719,-71.4844 C33.4635,-71.8073 36.1302,-71.9688 38.6719,-71.9688 C40.1719,-71.9688 42.974,-71.2865 47.0781,-69.9219 C51.2448,-68.5573 54.1406,-67.875 55.7656,-67.875 C57.7865,-67.875 59.7083,-68.2344 61.5313,-68.9531 C63.0208,-69.599 64.4531,-70.3438 65.8281,-71.1875 C66.9323,-71.9063 67.5469,-72.2656 67.6719,-72.2656 C68.2656,-72.2656 68.7865,-72.0729 69.2344,-71.6875 C69.7552,-71.1667 70.0156,-70.7396 70.0156,-70.4063 C70.0156,-69.9583 69.401,-69.2135 68.1719,-68.1719 C66.8698,-66.9948 65.013,-65.8203 62.6016,-64.6484 C60.1901,-63.4766 57.651,-62.8906 54.9844,-62.8906 C53.8073,-62.8906 52.3438,-63.0885 50.5938,-63.4844 C49.4792,-56.2552 48.3073,-49.8385 47.0781,-44.2344 C46.0365,-39.2865 43.9531,-34.9583 40.8281,-31.25 C37.8281,-27.5417 34.474,-25.6875 30.7656,-25.6875 C29.2656,-25.6875 27.9323,-25.9792 26.7656,-26.5625 C25.4635,-27.2188 24.0938,-28.1979 22.6563,-29.5 C21.4896,-30.4688 20.3854,-31.3438 19.3438,-32.125 C19.0833,-32.3229 18.9531,-32.6198 18.9531,-33.0156 C18.9531,-33.4635 19.2135,-34.0469 19.7344,-34.7656 C20.2552,-35.349 20.7396,-35.6406 21.1875,-35.6406 C21.5833,-35.6406 22.6927,-34.8281 24.5156,-33.2031 C26.3385,-31.5781 27.9635,-30.7656 29.3906,-30.7656 C31.9948,-30.7656 34.0156,-32.2604 35.4531,-35.25 C36.8802,-38.1875 37.6927,-41.7031 37.8906,-45.7969 C38.2135,-52.5052 38.9635,-59.4427 40.1406,-66.6094 C38.7031,-66.9323 37.6302,-67.0938 36.9219,-67.0938 C33.7969,-67.0938 31.125,-66.4427 28.9063,-65.1406 C26.6979,-63.901 25.5938,-62.2083 25.5938,-60.0625 C25.5938,-58.5 26.1146,-57.2969 27.1563,-56.4531 C28.2604,-55.5365 28.8125,-54.7188 28.8125,-54"/>
<path class="Clef" transform="matrix(0.566929,0,0,0.566929,28.5015,488.764)" d="M21.2969,33.9844 C21.2969,35.4219 20.1875,36.1406 17.9688,36.1406 C16.1458,36.1406 14.5833,35.5833 13.2813,34.4688 C11.9167,33.3646 11.2344,31.9323 11.2344,30.1719 C11.2344,26.9844 13.0885,24.4792 16.7969,22.6563 C20.7031,20.7708 25.0677,19.8281 29.8906,19.8281 C34.5052,19.8281 38.6042,20.4479 42.1875,21.6875 C45.5104,23.0521 47.1719,25.1667 47.1719,28.0313 C47.1719,31.5417 45.3177,34.4688 41.6094,36.8125 C47.0781,37.9271 49.8125,40.3698 49.8125,44.1406 C49.8125,47.2656 48.3438,50.1615 45.4063,52.8281 C42.5417,55.4323 39.1927,56.7344 35.3594,56.7344 C33.7969,56.7344 32.2344,56.3802 30.6719,55.6719 C29.2344,55.0156 28.1927,54.2969 27.5469,53.5156 C26.8906,52.9323 26.5625,52.3802 26.5625,51.8594 C26.5625,51.3385 26.8229,50.9167 27.3438,50.5938 C27.8021,50.1354 28.2917,49.9063 28.8125,49.9063 C29.0729,49.9063 29.5599,50.2318 30.2734,50.8828 C30.987,51.5339 31.9635,51.8594 33.2031,51.8594 C35.0885,51.8594 36.849,51.1406 38.4844,49.7031 C40.0469,48.2135 40.8281,46.4896 40.8281,44.5313 C40.8281,42.8438 40.0469,41.5417 38.4844,40.625 C36.9844,39.7813 35.0625,39.3594 32.7188,39.3594 C32.2604,39.3594 32.0313,38.9688 32.0313,38.1875 C32.0313,36.8854 32.5208,36.2344 33.5,36.2344 C34.9271,36.2344 36.1979,35.6146 37.3125,34.375 C38.4167,32.9479 38.9688,31.4844 38.9688,29.9844 C38.9688,26.7969 36.8542,24.8125 32.625,24.0313 L29.3906,41.6094 C28.5469,45.9635 26.9531,49.7396 24.6094,52.9375 C22.2031,56.125 19.5677,57.7188 16.7031,57.7188 C15.724,57.7188 14.8125,57.5208 13.9688,57.125 C13.1875,56.8021 12.2083,56.151 11.0313,55.1719 C9.72917,54.1302 9.04688,53.5781 8.98438,53.5156 C8.72396,53.2552 8.59375,53.026 8.59375,52.8281 C8.59375,52.4427 8.79167,51.9583 9.1875,51.375 C9.63542,50.9167 10.0885,50.6875 10.5469,50.6875 C10.7448,50.6875 11.526,51.1771 12.8906,52.1563 C13.9948,53.1979 15.1667,53.7188 16.4063,53.7188 C18.8125,53.7188 20.6042,52.2188 21.7813,49.2188 C22.9479,46.0938 23.5313,42.3854 23.5313,38.0938 L23.5313,37.4063 C23.5313,34.7396 23.9896,30.4115 24.9063,24.4219 C23.2083,25.0052 21.875,25.7865 20.9063,26.7656 C19.8646,27.8073 19.3438,28.8802 19.3438,29.9844 C19.3438,30.8906 19.6667,31.6406 20.3125,32.2344 C20.9688,32.8802 21.2969,33.4635 21.2969,33.9844 M5.5625,9.46875 C5.82292,9.46875 6.47396,9.76563 7.51563,10.3594 C8.69271,10.8802 9.57292,11.1406 10.1563,11.1406 C13.0208,11.1406 17.1875,7.75521 22.6563,0.984375 C28.0625,-5.66146 32,-12.6979 34.4688,-20.125 C35.0625,-22.0729 36.5938,-23.0469 39.0625,-23.0469 C40.3021,-23.0469 41.3438,-22.7865 42.1875,-22.2656 C43.1042,-21.8802 43.5625,-21.3281 43.5625,-20.6094 L42.1875,8.59375 C42.1875,10.2917 42.776,11.1406 43.9531,11.1406 C44.3385,11.1406 45.151,10.8802 46.3906,10.3594 C47.5573,9.76563 48.2083,9.46875 48.3438,9.46875 C48.8021,9.46875 49.0313,9.92708 49.0313,10.8438 C49.0313,11.625 48.7344,12.1146 48.1406,12.3125 C47.4323,12.6354 46.3594,13.1563 44.9219,13.875 C43.2969,14.7188 42.026,15.1406 41.1094,15.1406 C40.1406,15.1406 39.2292,14.7188 38.375,13.875 C37.5313,12.8333 36.7865,10.8125 36.1406,7.8125 C35.3594,4.82292 34.7708,0.588542 34.375,-4.89063 C32.3542,-2.21354 30.0781,0.489583 27.5469,3.21875 C28.5156,4.91667 30.5,5.76563 33.5,5.76563 C33.8854,5.76563 34.0781,6.1875 34.0781,7.03125 C34.0781,8.53125 32.5833,9.28125 29.5938,9.28125 C27.0521,9.28125 25.2292,8.40104 24.125,6.64063 L21,9.375 C16.7708,13.0208 13.1563,14.9115 10.1563,15.0469 C9.11458,15.0469 7.75,14.5885 6.0625,13.6719 C4.42708,12.8281 3.60938,12.2083 3.60938,11.8125 C3.60938,11.3646 3.80729,10.8802 4.20313,10.3594 C4.58854,9.76563 5.04167,9.46875 5.5625,9.46875 M23.0469,-43.1719 C23.0469,-41.9323 21.9427,-41.3125 19.7344,-41.3125 C17.776,-41.3125 16.0469,-41.9635 14.5469,-43.2656 C13.1198,-44.5052 12.4063,-46.099 12.4063,-48.0469 C12.4063,-49.8698 12.9583,-51.4323 14.0625,-52.7344 C15.3646,-54.1719 16.9271,-55.151 18.75,-55.6719 C20.0521,-56.1927 22.0052,-56.7135 24.6094,-57.2344 C27.349,-57.4948 29.4635,-57.625 30.9531,-57.625 C32.0677,-57.625 34.2839,-57.0703 37.6016,-55.9609 C40.9193,-54.8516 43.2604,-54.2969 44.625,-54.2969 C46.2604,-54.2969 47.7917,-54.5573 49.2188,-55.0781 C50.5833,-55.6615 51.6927,-56.25 52.5469,-56.8438 C53.3906,-57.4896 53.9115,-57.8125 54.1094,-57.8125 C54.4948,-57.8125 54.9167,-57.651 55.375,-57.3281 C55.7604,-57.0052 55.9531,-56.6771 55.9531,-56.3438 C55.9531,-56.0833 55.4688,-55.4688 54.5,-54.5 C53.3229,-53.4583 51.8229,-52.5469 50,-51.7656 C48.0521,-50.7865 46.0677,-50.2969 44.0469,-50.2969 C43.0052,-50.2969 41.8333,-50.4583 40.5313,-50.7813 C39.6146,-44.4063 38.6719,-39.2292 37.7031,-35.25 C36.849,-31.2813 35.1875,-27.8333 32.7188,-24.9063 C30.3125,-21.9792 27.6406,-20.5156 24.7031,-20.5156 C23.401,-20.5156 22.3281,-20.776 21.4844,-21.2969 C20.3802,-21.8177 19.276,-22.5625 18.1719,-23.5313 C17.1302,-24.5104 16.25,-25.2292 15.5313,-25.6875 C15.2708,-25.9479 15.1406,-26.1771 15.1406,-26.375 C15.1406,-26.8229 15.3021,-27.276 15.625,-27.7344 C15.9479,-28.2552 16.3698,-28.5156 16.8906,-28.5156 C17.151,-28.5156 18.0313,-27.8646 19.5313,-26.5625 C21.0313,-25.2604 22.3646,-24.6094 23.5313,-24.6094 C25.0938,-24.6094 26.3021,-25.1302 27.1563,-26.1719 C28.0625,-27.2135 28.776,-28.776 29.2969,-30.8594 C29.7552,-32.7448 30.0833,-34.8594 30.2813,-37.2031 C30.5417,-39.1615 30.8333,-41.8333 31.1563,-45.2188 C31.3542,-47.1042 31.6771,-49.8073 32.125,-53.3281 C31.0208,-53.5885 30.1458,-53.7188 29.5,-53.7188 C27.1563,-53.7188 25.0365,-53.1979 23.1406,-52.1563 C21.3906,-50.9792 20.5156,-49.6406 20.5156,-48.1406 C20.5156,-47.0365 20.9375,-46.0625 21.7813,-45.2188 C22.625,-44.375 23.0469,-43.6927 23.0469,-43.1719"/>
<path class="Clef" transform="matrix(0.566929,0,0,0.566929,28.5015,331.087)" d="M57.1328,-8.89063 C56.1589,-9.86979 55.6719,-11.0755 55.6719,-12.5078 C55.6719,-13.9401 56.1589,-15.1432 57.1328,-16.1172 C58.1068,-17.0911 59.3099,-17.5781 60.7422,-17.5781 C62.1745,-17.5781 63.3802,-17.0911 64.3594,-16.1172 C65.3385,-15.1432 65.8281,-13.9401 65.8281,-12.5078 C65.8281,-11.0755 65.3385,-9.86979 64.3594,-8.89063 C63.3802,-7.91146 62.1745,-7.42188 60.7422,-7.42188 C59.3099,-7.42188 58.1068,-7.91146 57.1328,-8.89063 M57.1328,16.1172 C56.1589,15.1432 55.6719,13.9401 55.6719,12.5078 C55.6719,11.0755 56.1589,9.86979 57.1328,8.89063 C58.1068,7.91146 59.3099,7.42188 60.7422,7.42188 C62.1745,7.42188 63.3802,7.91146 64.3594,8.89063 C65.3385,9.86979 65.8281,11.0755 65.8281,12.5078 C65.8281,13.9401 65.3385,15.1432 64.3594,16.1172 C63.3802,17.0911 62.1745,17.5781 60.7422,17.5781 C59.3099,17.5781 58.1068,17.0911 57.1328,16.1172 M23.25,-26.2656 C31.9063,-26.2656 39,-24.0885 44.5313,-19.7344 C49.875,-15.1719 52.5469,-8.98438 52.5469,-1.17188 C52.5469,4.09896 51.5052,8.91667 49.4219,13.2813 C47.4635,17.8438 44.8906,21.8802 41.7031,25.3906 C38.4427,28.974 34.5052,32.3594 29.8906,35.5469 C25.3906,38.6719 20.7656,41.474 16.0156,43.9531 C6.31771,48.8281 0.979167,51.2656 0,51.2656 C-0.84375,51.2656 -1.26563,50.8438 -1.26563,50 C-1.26563,49.6771 -1.13542,49.3854 -0.875,49.125 C2.44792,47.1667 6.51563,44.6615 11.3281,41.6094 C14.4531,39.5885 18.099,36.7865 22.2656,33.2031 C26.3073,29.8177 29.4323,26.6302 31.6406,23.6406 C33.9219,20.7031 36.0052,17.0573 37.8906,12.7031 C39.5156,8.33854 40.3281,4.03646 40.3281,-0.203125 C40.3281,-6.51563 38.7656,-12.0156 35.6406,-16.7031 C32.5156,-21.3906 28.3854,-23.7344 23.25,-23.7344 C19.6042,-23.7344 16.4792,-22.5625 13.875,-20.2188 C11.0729,-17.8125 9.05208,-14.7865 7.8125,-11.1406 C9.05208,-11.6615 10.1927,-11.9219 11.2344,-11.9219 C13.9635,-11.9219 16.3073,-10.9427 18.2656,-8.98438 C20.2135,-6.90104 21.1875,-4.52604 21.1875,-1.85938 C21.1875,0.942708 20.2448,3.45313 18.3594,5.67188 C16.3385,7.68229 13.9635,8.6875 11.2344,8.6875 C8.30729,8.6875 5.67188,7.68229 3.32813,5.67188 C1.10938,3.45313 0,0.942708 0,-1.85938 C0,-8.56771 2.28125,-14.2969 6.84375,-19.0469 C11.3333,-23.8594 16.8021,-26.2656 23.25,-26.2656"/>
<path class="Clef" transform="matrix(0.566929,0,0,0.566929,28.5015,210.614)" d="M36.3281,-7.32813 C33.3385,-7.32813 31.8438,-4.88542 31.8438,0 C31.8438,4.88542 33.3385,7.32813 36.3281,7.32813 C37.3073,7.32813 38.7396,6.80729 40.625,5.76563 C42.4479,4.72396 43.9479,4.20313 45.125,4.20313 C51.3021,4.20313 56.6719,6.1875 61.2344,10.1563 C65.724,14.2604 67.9688,19.2083 67.9688,25 C67.9688,41.6667 59.1458,50 41.5,50 C37.2708,50 33.6615,48.6354 30.6719,45.9063 C27.7344,43.1667 26.2656,39.8125 26.2656,35.8438 C26.2656,33.6979 27.0156,31.875 28.5156,30.375 C30.0156,28.875 31.8073,28.125 33.8906,28.125 C35.974,28.125 37.763,28.875 39.2578,30.375 C40.7526,31.875 41.5,33.6979 41.5,35.8438 C41.5,37.1458 40.6875,38.4167 39.0625,39.6563 C37.4375,40.8229 36.625,42.0573 36.625,43.3594 C36.625,44.5365 37.1146,45.4479 38.0938,46.0938 C39,46.8125 40.1354,47.1719 41.5,47.1719 C46.9063,47.1719 50.5859,45.3151 52.5391,41.6016 C54.4922,37.888 55.4688,32.3542 55.4688,25 C55.4688,19.3333 54.8854,15.0365 53.7188,12.1094 C52.4792,8.72396 49.6146,7.03125 45.125,7.03125 C41.7396,7.03125 38.875,8.49479 36.5313,11.4219 C34.3125,14.4219 33.2031,17.9063 33.2031,21.875 C33.2031,22.8542 32.7474,23.3438 31.8359,23.3438 C30.9245,23.3438 30.4688,22.8542 30.4688,21.875 C30.4688,14.125 27.6719,7.45313 22.0781,1.85938 L22.0781,49.0313 C22.0781,49.6771 21.75,50 21.0938,50 L19.0469,50 C18.3281,50 17.9688,49.6771 17.9688,49.0313 L17.9688,-49.0313 C17.9688,-49.6771 18.3281,-50 19.0469,-50 L21.0938,-50 C21.75,-50 22.0781,-49.6771 22.0781,-49.0313 L22.0781,-1.85938 C27.6719,-7.45313 30.4688,-14.125 30.4688,-21.875 C30.4688,-22.8542 30.9245,-23.3438 31.8359,-23.3438 C32.7474,-23.3438 33.2031,-22.8542 33.2031,-21.875 C33.2031,-17.9063 34.3125,-14.4219 36.5313,-11.4219 C38.875,-8.49479 41.7396,-7.03125 45.125,-7.03125 C49.6146,-7.03125 52.4792,-8.72396 53.7188,-12.1094 C54.8854,-15.0365 55.4688,-19.3333 55.4688,-25 C55.4688,-32.3542 54.4922,-37.888 52.5391,-41.6016 C50.5859,-45.3151 46.9063,-47.1719 41.5,-47.1719 C40.1354,-47.1719 39,-46.8125 38.0938,-46.0938 C37.1146,-45.5104 36.625,-44.599 36.625,-43.3594 C36.625,-42.0573 37.4375,-40.8229 39.0625,-39.6563 C40.6875,-38.4167 41.5,-37.1458 41.5,-35.8438 C41.5,-33.6979 40.7526,-31.875 39.2578,-30.375 C37.763,-28.875 35.974,-28.125 33.8906,-28.125 C31.8073,-28.125 30.0156,-28.875 28.5156,-30.375 C27.0156,-31.875 26.2656,-33.6979 26.2656,-35.8438 C26.2656,-39.8125 27.7344,-43.1667 30.6719,-45.9063 C33.6615,-48.6354 37.2708,-50 41.5,-50 C59.1458,-50 67.9688,-41.6667 67.9688,-25 C67.9688,-19.2083 65.724,-14.2604 61.2344,-10.1563 C56.6719,-6.1875 51.3021,-4.20313 45.125,-4.20313 C44.0104,-4.20313 42.5104,-4.72396 40.625,-5.76563 C38.7396,-6.80729 37.3073,-7.32813 36.3281,-7.32813 M12.8906,50 L0.984375,50 C0.328125,50 0,49.6771 0,49.0313 L0,-49.0313 C0,-49.6771 0.328125,-50 0.984375,-50 L12.8906,-50 C13.5469,-50 13.875,-49.6771 13.875,-49.0313 L13.875,49.0313 C13.875,49.6771 13.5469,50 12.8906,50"/>
<path class="Clef" transform="matrix(0.566929,0,0,0.566929,28.5015,90.1417)" d="M36.7188,-25.5938 C36.7188,-25.5938 36.9167,-25.5938 37.3125,-25.5938 C37.5729,-25.6563 37.7969,-25.6875 37.9844,-25.6875 C45.276,-25.6875 51.2656,-23.1146 55.9531,-17.9688 C60.6406,-12.8958 62.9844,-6.97396 62.9844,-0.203125 C62.9844,8.20313 59.5052,15.0417 52.5469,20.3125 C50.724,21.75 48.3438,22.9219 45.4063,23.8281 C45.7396,28.0573 45.9063,31.474 45.9063,34.0781 C45.9063,34.599 45.8385,36.4896 45.7031,39.75 C45.4427,45.8021 43.3594,51.0417 39.4531,55.4688 C35.6823,59.8333 30.9948,62.0156 25.3906,62.0156 C20.1198,62.0156 15.6302,60.1615 11.9219,56.4531 C8.20313,52.6719 6.34375,48.1146 6.34375,42.7813 C6.34375,39.9792 7.42188,37.599 9.57813,35.6406 C11.7865,33.6927 14.3542,32.7188 17.2813,32.7188 C19.8854,32.7188 22.0677,33.7292 23.8281,35.75 C25.651,37.6354 26.5625,39.9792 26.5625,42.7813 C26.5625,45.3125 25.651,47.4896 23.8281,49.3125 C22.0052,51.1354 19.8229,52.0469 17.2813,52.0469 C16.2396,52.0469 15.2344,51.8542 14.2656,51.4688 C17.1302,55.6979 20.9375,57.8125 25.6875,57.8125 C30.1771,57.8125 33.8542,55.9896 36.7188,52.3438 C39.7188,48.5729 41.349,44.1771 41.6094,39.1563 C41.7344,36.0313 41.7969,34.2448 41.7969,33.7969 C41.7969,30.151 41.6667,27.1563 41.4063,24.8125 C38.1563,25.3333 35.2604,25.5938 32.7188,25.5938 C23.6667,25.5938 15.9531,22.0104 9.57813,14.8438 C3.32813,7.61458 0.203125,-0.979167 0.203125,-10.9375 C0.203125,-13.0208 0.395833,-15.1354 0.78125,-17.2813 C1.17708,-19.0417 1.66667,-20.9635 2.25,-23.0469 C2.57292,-24.224 3.45313,-26.1146 4.89063,-28.7188 C5.41146,-29.5 5.9974,-30.4766 6.64844,-31.6484 C7.29948,-32.8203 7.75521,-33.599 8.01563,-33.9844 C8.66146,-35.2865 9.92708,-37.0469 11.8125,-39.2656 C12.3333,-39.849 12.8724,-40.4974 13.4297,-41.2109 C13.987,-41.9245 14.4609,-42.5104 14.8516,-42.9688 C15.2422,-43.4271 15.5339,-43.7865 15.7266,-44.0469 C15.9193,-44.3073 17.3854,-46.0313 20.125,-49.2188 C20.7708,-49.875 21.4036,-50.5755 22.0234,-51.3203 C22.6432,-52.0651 23.1484,-52.651 23.5391,-53.0781 C23.9297,-53.5052 24.224,-53.8125 24.4219,-54 C22.0781,-61.75 20.6094,-67.9375 20.0156,-72.5625 C19.5677,-76.2708 19.3438,-81.349 19.3438,-87.7969 C19.3438,-93.4635 20.6458,-98.7708 23.25,-103.719 C25.7813,-108.854 29.3281,-113.052 33.8906,-116.313 C34.151,-116.51 34.474,-116.609 34.8594,-116.609 C35.3177,-116.609 35.6458,-116.51 35.8438,-116.313 C39.3542,-112.083 42.3802,-106.583 44.9219,-99.8125 C47.526,-93.0417 48.8281,-86.8854 48.8281,-81.3438 C48.8281,-75.0938 47.3333,-69.2344 44.3438,-63.7656 C40.9583,-57.974 36.5938,-51.9844 31.25,-45.7969 C32.6146,-41.5052 34.4375,-34.7708 36.7188,-25.5938 M45.0156,19.8281 C48.401,18.5885 51.0417,16.474 52.9375,13.4844 C55.0208,10.6198 56.0625,7.39583 56.0625,3.8125 C56.0625,-0.8125 54.5,-4.91667 51.375,-8.5 C48.1771,-12.2083 44.1042,-14.2917 39.1563,-14.75 C41.9583,-1.01042 43.9115,10.5156 45.0156,19.8281 M7.23438,-2.73438 C7.23438,3.71354 9.83854,9.38021 15.0469,14.2656 C20.3802,19.0156 26.3698,21.3906 33.0156,21.3906 C35.7448,21.3906 38.4115,21.1927 41.0156,20.7969 C39.974,10.901 37.9219,-0.947917 34.8594,-14.75 C31.151,-14.3542 28.1927,-13.0521 25.9844,-10.8438 C23.8281,-8.5625 22.75,-5.98958 22.75,-3.125 C22.75,1.82292 25.3906,5.82813 30.6719,8.89063 C31.1198,9.34896 31.3438,9.83854 31.3438,10.3594 C31.3438,10.8802 31.1198,11.3646 30.6719,11.8125 C30.276,12.2708 29.7865,12.5 29.2031,12.5 C29.1406,12.5 28.849,12.4375 28.3281,12.3125 C24.6094,10.2917 21.7448,7.6875 19.7344,4.5 C17.8385,1.10417 16.8906,-2.31771 16.8906,-5.76563 C16.8906,-10.2552 18.2917,-14.3229 21.0938,-17.9688 C24.0208,-21.6146 27.8281,-23.9583 32.5156,-25 C30.6927,-32.2917 29.1979,-37.9896 28.0313,-42.0938 C26.9896,-40.9167 25.737,-39.5 24.2734,-37.8438 C22.8099,-36.1875 21.9479,-35.1927 21.6875,-34.8594 C19.3438,-31.8073 17.5521,-29.4323 16.3125,-27.7344 C14.0938,-24.6719 12.4635,-22.0365 11.4219,-19.8281 C10.3177,-17.349 9.34375,-14.6458 8.5,-11.7188 C7.65625,-8.91667 7.23438,-5.92188 7.23438,-2.73438 M39.8438,-102.047 C34.9583,-99.6406 31.1198,-96.1927 28.3281,-91.7031 C25.4635,-87.0781 24.0313,-82.099 24.0313,-76.7656 C24.0313,-72.0781 25.2031,-65.7604 27.5469,-57.8125 C32.2344,-63.4792 35.75,-68.7188 38.0938,-73.5313 C40.5625,-78.6146 41.7969,-83.9219 41.7969,-89.4531 C41.7969,-93.6198 41.1458,-97.8177 39.8438,-102.047"/>
</svg>
