<?xml version="1.0" encoding="UTF-8" standalone="no"?>
<svg width="637.794px" height="765.353px" viewBox="0 0 637.794 765.353"
 xmlns="http://www.w3.org/2000/svg" xmlns:xlink="http://www.w3.org/1999/xlink" version="1.2" baseProfile="tiny">
<title>doubleharmonic (99)</title>
<desc>Generated by MuseScore 3.4.2</desc>
<polyline class="StaffLines" fill="none" stroke="#000000" stroke-width="1.13" stroke-linejoin="bevel" points="14.1732,47.6221 623.621,47.6221"/>
<polyline class="StaffLines" fill="none" stroke="#000000" stroke-width="1.13" stroke-linejoin="bevel" points="14.1732,61.7953 623.621,61.7953"/>
<polyline class="StaffLines" fill="none" stroke="#000000" stroke-width="1.13" stroke-linejoin="bevel" points="14.1732,75.9685 623.621,75.9685"/>
<polyline class="StaffLines" fill="none" stroke="#000000" stroke-width="1.13" stroke-linejoin="bevel" points="14.1732,90.1417 623.621,90.1417"/>
<polyline class="StaffLines" fill="none" stroke="#000000" stroke-width="1.13" stroke-linejoin="bevel" points="14.1732,104.315 623.621,104.315"/>
<polyline class="StaffLines" fill="none" stroke="#000000" stroke-width="1.13" stroke-linejoin="bevel" points="14.1732,182.268 623.621,182.268"/>
<polyline class="StaffLines" fill="none" stroke="#000000" stroke-width="1.13" stroke-linejoin="bevel" points="14.1732,196.441 623.621,196.441"/>
<polyline class="StaffLines" fill="none" stroke="#000000" stroke-width="1.13" stroke-linejoin="bevel" points="14.1732,210.614 623.621,210.614"/>
<polyline class="StaffLines" fill="none" stroke="#000000" stroke-width="1.13" stroke-linejoin="bevel" points="14.1732,224.787 623.621,224.787"/>
<polyline class="StaffLines" fill="none" stroke="#000000" stroke-width="1.13" stroke-linejoin="bevel" points="14.1732,238.961 623.621,238.961"/>
<polyline class="StaffLines" fill="none" stroke="#000000" stroke-width="1.13" stroke-linejoin="bevel" points="14.1732,316.913 623.621,316.913"/>
<polyline class="StaffLines" fill="none" stroke="#000000" stroke-width="1.13" stroke-linejoin="bevel" points="14.1732,331.087 623.621,331.087"/>
<polyline class="StaffLines" fill="none" stroke="#000000" stroke-width="1.13" stroke-linejoin="bevel" points="14.1732,345.26 623.621,345.26"/>
<polyline class="StaffLines" fill="none" stroke="#000000" stroke-width="1.13" stroke-linejoin="bevel" points="14.1732,359.433 623.621,359.433"/>
<polyline class="StaffLines" fill="none" stroke="#000000" stroke-width="1.13" stroke-linejoin="bevel" points="14.1732,373.606 623.621,373.606"/>
<polyline class="StaffLines" fill="none" stroke="#000000" stroke-width="1.13" stroke-linejoin="bevel" points="14.1732,451.559 623.621,451.559"/>
<polyline class="StaffLines" fill="none" stroke="#000000" stroke-width="1.13" stroke-linejoin="bevel" points="14.1732,476.362 623.621,476.362"/>
<polyline class="StaffLines" fill="none" stroke="#000000" stroke-width="1.13" stroke-linejoin="bevel" points="14.1732,501.165 623.621,501.165"/>
<polyline class="StaffLines" fill="none" stroke="#000000" stroke-width="1.13" stroke-linejoin="bevel" points="14.1732,525.969 623.621,525.969"/>
<polyline class="StaffLines" fill="none" stroke="#000000" stroke-width="1.13" stroke-linejoin="bevel" points="14.1732,603.921 623.621,603.921"/>
<polyline class="StaffLines" fill="none" stroke="#000000" stroke-width="1.13" stroke-linejoin="bevel" points="14.1732,628.724 623.621,628.724"/>
<polyline class="StaffLines" fill="none" stroke="#000000" stroke-width="1.13" stroke-linejoin="bevel" points="14.1732,653.528 623.621,653.528"/>
<polyline class="StaffLines" fill="none" stroke="#000000" stroke-width="1.13" stroke-linejoin="bevel" points="14.1732,678.331 623.621,678.331"/>
<polyline class="StaffLines" fill="none" stroke="#000000" stroke-width="1.13" stroke-linejoin="bevel" points="14.1732,703.134 623.621,703.134"/>
<polyline class="StaffLines" fill="none" stroke="#000000" stroke-width="1.13" stroke-linejoin="bevel" points="14.1732,727.937 623.621,727.937"/>
<path class="Accidental" transform="matrix(0.566929,0,0,0.566929,152.664,359.433)" d="M4.59375,-4.10938 L4.59375,3.60938 C4.59375,6.34896 4.72396,8.53125 4.98438,10.1563 C7.13021,8.33333 8.66146,6.96875 9.57813,6.0625 C10.6198,5.02083 11.6615,3.58594 12.7031,1.75781 C13.7448,-0.0703125 14.2656,-1.89583 14.2656,-3.71875 C14.2656,-5.54167 13.875,-7.10417 13.0938,-8.40625 C12.3125,-9.70833 11.2708,-10.3594 9.96875,-10.3594 C8.40625,-10.3594 7.10417,-9.77083 6.0625,-8.59375 C5.08333,-7.29167 4.59375,-5.79688 4.59375,-4.10938 M0.484375,13.7656 L-0.78125,-45.7031 C0.135417,-46.224 1.04948,-46.4844 1.96094,-46.4844 C2.8724,-46.4844 3.78125,-46.224 4.6875,-45.7031 L3.90625,-11.2344 C6.57292,-13.5156 9.63542,-14.6563 13.0938,-14.6563 C15.625,-14.6563 17.737,-13.6146 19.4297,-11.5313 C21.1224,-9.44792 21.9688,-7.06771 21.9688,-4.39063 C21.9688,-2.70313 21.4167,-0.911458 20.3125,0.984375 C19.2708,2.73438 18.1667,4.09896 17,5.07813 C16.3438,5.59896 14.6823,6.90104 12.0156,8.98438 C11.2344,9.56771 10.3073,10.25 9.23438,11.0313 C8.16146,11.8125 7.49479,12.3021 7.23438,12.5 C6.77604,12.7604 6.34896,13.2813 5.95313,14.0625 C5.50521,14.7188 4.98438,15.2708 4.39063,15.7188 C3.94271,16.1146 3.39323,16.3125 2.74219,16.3125 C2.09115,16.3125 1.56771,16.0833 1.17188,15.625 C0.713542,15.1667 0.484375,14.5469 0.484375,13.7656"/>
<path class="Accidental" transform="matrix(0.566929,0,0,0.566929,217.378,352.346)" d="M4.59375,-4.10938 L4.59375,3.60938 C4.59375,6.34896 4.72396,8.53125 4.98438,10.1563 C7.13021,8.33333 8.66146,6.96875 9.57813,6.0625 C10.6198,5.02083 11.6615,3.58594 12.7031,1.75781 C13.7448,-0.0703125 14.2656,-1.89583 14.2656,-3.71875 C14.2656,-5.54167 13.875,-7.10417 13.0938,-8.40625 C12.3125,-9.70833 11.2708,-10.3594 9.96875,-10.3594 C8.40625,-10.3594 7.10417,-9.77083 6.0625,-8.59375 C5.08333,-7.29167 4.59375,-5.79688 4.59375,-4.10938 M0.484375,13.7656 L-0.78125,-45.7031 C0.135417,-46.224 1.04948,-46.4844 1.96094,-46.4844 C2.8724,-46.4844 3.78125,-46.224 4.6875,-45.7031 L3.90625,-11.2344 C6.57292,-13.5156 9.63542,-14.6563 13.0938,-14.6563 C15.625,-14.6563 17.737,-13.6146 19.4297,-11.5313 C21.1224,-9.44792 21.9688,-7.06771 21.9688,-4.39063 C21.9688,-2.70313 21.4167,-0.911458 20.3125,0.984375 C19.2708,2.73438 18.1667,4.09896 17,5.07813 C16.3438,5.59896 14.6823,6.90104 12.0156,8.98438 C11.2344,9.56771 10.3073,10.25 9.23438,11.0313 C8.16146,11.8125 7.49479,12.3021 7.23438,12.5 C6.77604,12.7604 6.34896,13.2813 5.95313,14.0625 C5.50521,14.7188 4.98438,15.2708 4.39063,15.7188 C3.94271,16.1146 3.39323,16.3125 2.74219,16.3125 C2.09115,16.3125 1.56771,16.0833 1.17188,15.625 C0.713542,15.1667 0.484375,14.5469 0.484375,13.7656"/>
<path class="Accidental" transform="matrix(0.566929,0,0,0.566929,346.807,338.173)" d="M4.59375,-4.10938 L4.59375,3.60938 C4.59375,6.34896 4.72396,8.53125 4.98438,10.1563 C7.13021,8.33333 8.66146,6.96875 9.57813,6.0625 C10.6198,5.02083 11.6615,3.58594 12.7031,1.75781 C13.7448,-0.0703125 14.2656,-1.89583 14.2656,-3.71875 C14.2656,-5.54167 13.875,-7.10417 13.0938,-8.40625 C12.3125,-9.70833 11.2708,-10.3594 9.96875,-10.3594 C8.40625,-10.3594 7.10417,-9.77083 6.0625,-8.59375 C5.08333,-7.29167 4.59375,-5.79688 4.59375,-4.10938 M0.484375,13.7656 L-0.78125,-45.7031 C0.135417,-46.224 1.04948,-46.4844 1.96094,-46.4844 C2.8724,-46.4844 3.78125,-46.224 4.6875,-45.7031 L3.90625,-11.2344 C6.57292,-13.5156 9.63542,-14.6563 13.0938,-14.6563 C15.625,-14.6563 17.737,-13.6146 19.4297,-11.5313 C21.1224,-9.44792 21.9688,-7.06771 21.9688,-4.39063 C21.9688,-2.70313 21.4167,-0.911458 20.3125,0.984375 C19.2708,2.73438 18.1667,4.09896 17,5.07813 C16.3438,5.59896 14.6823,6.90104 12.0156,8.98438 C11.2344,9.56771 10.3073,10.25 9.23438,11.0313 C8.16146,11.8125 7.49479,12.3021 7.23438,12.5 C6.77604,12.7604 6.34896,13.2813 5.95313,14.0625 C5.50521,14.7188 4.98438,15.2708 4.39063,15.7188 C3.94271,16.1146 3.39323,16.3125 2.74219,16.3125 C2.09115,16.3125 1.56771,16.0833 1.17188,15.625 C0.713542,15.1667 0.484375,14.5469 0.484375,13.7656"/>
<path class="Accidental" transform="matrix(0.566929,0,0,0.566929,476.236,324)" d="M4.59375,-4.10938 L4.59375,3.60938 C4.59375,6.34896 4.72396,8.53125 4.98438,10.1563 C7.13021,8.33333 8.66146,6.96875 9.57813,6.0625 C10.6198,5.02083 11.6615,3.58594 12.7031,1.75781 C13.7448,-0.0703125 14.2656,-1.89583 14.2656,-3.71875 C14.2656,-5.54167 13.875,-7.10417 13.0938,-8.40625 C12.3125,-9.70833 11.2708,-10.3594 9.96875,-10.3594 C8.40625,-10.3594 7.10417,-9.77083 6.0625,-8.59375 C5.08333,-7.29167 4.59375,-5.79688 4.59375,-4.10938 M0.484375,13.7656 L-0.78125,-45.7031 C0.135417,-46.224 1.04948,-46.4844 1.96094,-46.4844 C2.8724,-46.4844 3.78125,-46.224 4.6875,-45.7031 L3.90625,-11.2344 C6.57292,-13.5156 9.63542,-14.6563 13.0938,-14.6563 C15.625,-14.6563 17.737,-13.6146 19.4297,-11.5313 C21.1224,-9.44792 21.9688,-7.06771 21.9688,-4.39063 C21.9688,-2.70313 21.4167,-0.911458 20.3125,0.984375 C19.2708,2.73438 18.1667,4.09896 17,5.07813 C16.3438,5.59896 14.6823,6.90104 12.0156,8.98438 C11.2344,9.56771 10.3073,10.25 9.23438,11.0313 C8.16146,11.8125 7.49479,12.3021 7.23438,12.5 C6.77604,12.7604 6.34896,13.2813 5.95313,14.0625 C5.50521,14.7188 4.98438,15.2708 4.39063,15.7188 C3.94271,16.1146 3.39323,16.3125 2.74219,16.3125 C2.09115,16.3125 1.56771,16.0833 1.17188,15.625 C0.713542,15.1667 0.484375,14.5469 0.484375,13.7656"/>
<path class="Accidental" transform="matrix(0.566929,0,0,0.566929,152.664,217.701)" d="M4.59375,-4.10938 L4.59375,3.60938 C4.59375,6.34896 4.72396,8.53125 4.98438,10.1563 C7.13021,8.33333 8.66146,6.96875 9.57813,6.0625 C10.6198,5.02083 11.6615,3.58594 12.7031,1.75781 C13.7448,-0.0703125 14.2656,-1.89583 14.2656,-3.71875 C14.2656,-5.54167 13.875,-7.10417 13.0938,-8.40625 C12.3125,-9.70833 11.2708,-10.3594 9.96875,-10.3594 C8.40625,-10.3594 7.10417,-9.77083 6.0625,-8.59375 C5.08333,-7.29167 4.59375,-5.79688 4.59375,-4.10938 M0.484375,13.7656 L-0.78125,-45.7031 C0.135417,-46.224 1.04948,-46.4844 1.96094,-46.4844 C2.8724,-46.4844 3.78125,-46.224 4.6875,-45.7031 L3.90625,-11.2344 C6.57292,-13.5156 9.63542,-14.6563 13.0938,-14.6563 C15.625,-14.6563 17.737,-13.6146 19.4297,-11.5313 C21.1224,-9.44792 21.9688,-7.06771 21.9688,-4.39063 C21.9688,-2.70313 21.4167,-0.911458 20.3125,0.984375 C19.2708,2.73438 18.1667,4.09896 17,5.07813 C16.3438,5.59896 14.6823,6.90104 12.0156,8.98438 C11.2344,9.56771 10.3073,10.25 9.23438,11.0313 C8.16146,11.8125 7.49479,12.3021 7.23438,12.5 C6.77604,12.7604 6.34896,13.2813 5.95313,14.0625 C5.50521,14.7188 4.98438,15.2708 4.39063,15.7188 C3.94271,16.1146 3.39323,16.3125 2.74219,16.3125 C2.09115,16.3125 1.56771,16.0833 1.17188,15.625 C0.713542,15.1667 0.484375,14.5469 0.484375,13.7656"/>
<path class="Accidental" transform="matrix(0.566929,0,0,0.566929,217.378,210.614)" d="M4.59375,-4.10938 L4.59375,3.60938 C4.59375,6.34896 4.72396,8.53125 4.98438,10.1563 C7.13021,8.33333 8.66146,6.96875 9.57813,6.0625 C10.6198,5.02083 11.6615,3.58594 12.7031,1.75781 C13.7448,-0.0703125 14.2656,-1.89583 14.2656,-3.71875 C14.2656,-5.54167 13.875,-7.10417 13.0938,-8.40625 C12.3125,-9.70833 11.2708,-10.3594 9.96875,-10.3594 C8.40625,-10.3594 7.10417,-9.77083 6.0625,-8.59375 C5.08333,-7.29167 4.59375,-5.79688 4.59375,-4.10938 M0.484375,13.7656 L-0.78125,-45.7031 C0.135417,-46.224 1.04948,-46.4844 1.96094,-46.4844 C2.8724,-46.4844 3.78125,-46.224 4.6875,-45.7031 L3.90625,-11.2344 C6.57292,-13.5156 9.63542,-14.6563 13.0938,-14.6563 C15.625,-14.6563 17.737,-13.6146 19.4297,-11.5313 C21.1224,-9.44792 21.9688,-7.06771 21.9688,-4.39063 C21.9688,-2.70313 21.4167,-0.911458 20.3125,0.984375 C19.2708,2.73438 18.1667,4.09896 17,5.07813 C16.3438,5.59896 14.6823,6.90104 12.0156,8.98438 C11.2344,9.56771 10.3073,10.25 9.23438,11.0313 C8.16146,11.8125 7.49479,12.3021 7.23438,12.5 C6.77604,12.7604 6.34896,13.2813 5.95313,14.0625 C5.50521,14.7188 4.98438,15.2708 4.39063,15.7188 C3.94271,16.1146 3.39323,16.3125 2.74219,16.3125 C2.09115,16.3125 1.56771,16.0833 1.17188,15.625 C0.713542,15.1667 0.484375,14.5469 0.484375,13.7656"/>
<path class="Accidental" transform="matrix(0.566929,0,0,0.566929,346.807,196.441)" d="M4.59375,-4.10938 L4.59375,3.60938 C4.59375,6.34896 4.72396,8.53125 4.98438,10.1563 C7.13021,8.33333 8.66146,6.96875 9.57813,6.0625 C10.6198,5.02083 11.6615,3.58594 12.7031,1.75781 C13.7448,-0.0703125 14.2656,-1.89583 14.2656,-3.71875 C14.2656,-5.54167 13.875,-7.10417 13.0938,-8.40625 C12.3125,-9.70833 11.2708,-10.3594 9.96875,-10.3594 C8.40625,-10.3594 7.10417,-9.77083 6.0625,-8.59375 C5.08333,-7.29167 4.59375,-5.79688 4.59375,-4.10938 M0.484375,13.7656 L-0.78125,-45.7031 C0.135417,-46.224 1.04948,-46.4844 1.96094,-46.4844 C2.8724,-46.4844 3.78125,-46.224 4.6875,-45.7031 L3.90625,-11.2344 C6.57292,-13.5156 9.63542,-14.6563 13.0938,-14.6563 C15.625,-14.6563 17.737,-13.6146 19.4297,-11.5313 C21.1224,-9.44792 21.9688,-7.06771 21.9688,-4.39063 C21.9688,-2.70313 21.4167,-0.911458 20.3125,0.984375 C19.2708,2.73438 18.1667,4.09896 17,5.07813 C16.3438,5.59896 14.6823,6.90104 12.0156,8.98438 C11.2344,9.56771 10.3073,10.25 9.23438,11.0313 C8.16146,11.8125 7.49479,12.3021 7.23438,12.5 C6.77604,12.7604 6.34896,13.2813 5.95313,14.0625 C5.50521,14.7188 4.98438,15.2708 4.39063,15.7188 C3.94271,16.1146 3.39323,16.3125 2.74219,16.3125 C2.09115,16.3125 1.56771,16.0833 1.17188,15.625 C0.713542,15.1667 0.484375,14.5469 0.484375,13.7656"/>
<path class="Accidental" transform="matrix(0.566929,0,0,0.566929,476.236,182.268)" d="M4.59375,-4.10938 L4.59375,3.60938 C4.59375,6.34896 4.72396,8.53125 4.98438,10.1563 C7.13021,8.33333 8.66146,6.96875 9.57813,6.0625 C10.6198,5.02083 11.6615,3.58594 12.7031,1.75781 C13.7448,-0.0703125 14.2656,-1.89583 14.2656,-3.71875 C14.2656,-5.54167 13.875,-7.10417 13.0938,-8.40625 C12.3125,-9.70833 11.2708,-10.3594 9.96875,-10.3594 C8.40625,-10.3594 7.10417,-9.77083 6.0625,-8.59375 C5.08333,-7.29167 4.59375,-5.79688 4.59375,-4.10938 M0.484375,13.7656 L-0.78125,-45.7031 C0.135417,-46.224 1.04948,-46.4844 1.96094,-46.4844 C2.8724,-46.4844 3.78125,-46.224 4.6875,-45.7031 L3.90625,-11.2344 C6.57292,-13.5156 9.63542,-14.6563 13.0938,-14.6563 C15.625,-14.6563 17.737,-13.6146 19.4297,-11.5313 C21.1224,-9.44792 21.9688,-7.06771 21.9688,-4.39063 C21.9688,-2.70313 21.4167,-0.911458 20.3125,0.984375 C19.2708,2.73438 18.1667,4.09896 17,5.07813 C16.3438,5.59896 14.6823,6.90104 12.0156,8.98438 C11.2344,9.56771 10.3073,10.25 9.23438,11.0313 C8.16146,11.8125 7.49479,12.3021 7.23438,12.5 C6.77604,12.7604 6.34896,13.2813 5.95313,14.0625 C5.50521,14.7188 4.98438,15.2708 4.39063,15.7188 C3.94271,16.1146 3.39323,16.3125 2.74219,16.3125 C2.09115,16.3125 1.56771,16.0833 1.17188,15.625 C0.713542,15.1667 0.484375,14.5469 0.484375,13.7656"/>
<path class="Accidental" transform="matrix(0.566929,0,0,0.566929,152.664,75.9685)" d="M4.59375,-4.10938 L4.59375,3.60938 C4.59375,6.34896 4.72396,8.53125 4.98438,10.1563 C7.13021,8.33333 8.66146,6.96875 9.57813,6.0625 C10.6198,5.02083 11.6615,3.58594 12.7031,1.75781 C13.7448,-0.0703125 14.2656,-1.89583 14.2656,-3.71875 C14.2656,-5.54167 13.875,-7.10417 13.0938,-8.40625 C12.3125,-9.70833 11.2708,-10.3594 9.96875,-10.3594 C8.40625,-10.3594 7.10417,-9.77083 6.0625,-8.59375 C5.08333,-7.29167 4.59375,-5.79688 4.59375,-4.10938 M0.484375,13.7656 L-0.78125,-45.7031 C0.135417,-46.224 1.04948,-46.4844 1.96094,-46.4844 C2.8724,-46.4844 3.78125,-46.224 4.6875,-45.7031 L3.90625,-11.2344 C6.57292,-13.5156 9.63542,-14.6563 13.0938,-14.6563 C15.625,-14.6563 17.737,-13.6146 19.4297,-11.5313 C21.1224,-9.44792 21.9688,-7.06771 21.9688,-4.39063 C21.9688,-2.70313 21.4167,-0.911458 20.3125,0.984375 C19.2708,2.73438 18.1667,4.09896 17,5.07813 C16.3438,5.59896 14.6823,6.90104 12.0156,8.98438 C11.2344,9.56771 10.3073,10.25 9.23438,11.0313 C8.16146,11.8125 7.49479,12.3021 7.23438,12.5 C6.77604,12.7604 6.34896,13.2813 5.95313,14.0625 C5.50521,14.7188 4.98438,15.2708 4.39063,15.7188 C3.94271,16.1146 3.39323,16.3125 2.74219,16.3125 C2.09115,16.3125 1.56771,16.0833 1.17188,15.625 C0.713542,15.1667 0.484375,14.5469 0.484375,13.7656"/>
<path class="Accidental" transform="matrix(0.566929,0,0,0.566929,217.378,68.8819)" d="M4.59375,-4.10938 L4.59375,3.60938 C4.59375,6.34896 4.72396,8.53125 4.98438,10.1563 C7.13021,8.33333 8.66146,6.96875 9.57813,6.0625 C10.6198,5.02083 11.6615,3.58594 12.7031,1.75781 C13.7448,-0.0703125 14.2656,-1.89583 14.2656,-3.71875 C14.2656,-5.54167 13.875,-7.10417 13.0938,-8.40625 C12.3125,-9.70833 11.2708,-10.3594 9.96875,-10.3594 C8.40625,-10.3594 7.10417,-9.77083 6.0625,-8.59375 C5.08333,-7.29167 4.59375,-5.79688 4.59375,-4.10938 M0.484375,13.7656 L-0.78125,-45.7031 C0.135417,-46.224 1.04948,-46.4844 1.96094,-46.4844 C2.8724,-46.4844 3.78125,-46.224 4.6875,-45.7031 L3.90625,-11.2344 C6.57292,-13.5156 9.63542,-14.6563 13.0938,-14.6563 C15.625,-14.6563 17.737,-13.6146 19.4297,-11.5313 C21.1224,-9.44792 21.9688,-7.06771 21.9688,-4.39063 C21.9688,-2.70313 21.4167,-0.911458 20.3125,0.984375 C19.2708,2.73438 18.1667,4.09896 17,5.07813 C16.3438,5.59896 14.6823,6.90104 12.0156,8.98438 C11.2344,9.56771 10.3073,10.25 9.23438,11.0313 C8.16146,11.8125 7.49479,12.3021 7.23438,12.5 C6.77604,12.7604 6.34896,13.2813 5.95313,14.0625 C5.50521,14.7188 4.98438,15.2708 4.39063,15.7188 C3.94271,16.1146 3.39323,16.3125 2.74219,16.3125 C2.09115,16.3125 1.56771,16.0833 1.17188,15.625 C0.713542,15.1667 0.484375,14.5469 0.484375,13.7656"/>
<path class="Accidental" transform="matrix(0.566929,0,0,0.566929,346.807,54.7087)" d="M4.59375,-4.10938 L4.59375,3.60938 C4.59375,6.34896 4.72396,8.53125 4.98438,10.1563 C7.13021,8.33333 8.66146,6.96875 9.57813,6.0625 C10.6198,5.02083 11.6615,3.58594 12.7031,1.75781 C13.7448,-0.0703125 14.2656,-1.89583 14.2656,-3.71875 C14.2656,-5.54167 13.875,-7.10417 13.0938,-8.40625 C12.3125,-9.70833 11.2708,-10.3594 9.96875,-10.3594 C8.40625,-10.3594 7.10417,-9.77083 6.0625,-8.59375 C5.08333,-7.29167 4.59375,-5.79688 4.59375,-4.10938 M0.484375,13.7656 L-0.78125,-45.7031 C0.135417,-46.224 1.04948,-46.4844 1.96094,-46.4844 C2.8724,-46.4844 3.78125,-46.224 4.6875,-45.7031 L3.90625,-11.2344 C6.57292,-13.5156 9.63542,-14.6563 13.0938,-14.6563 C15.625,-14.6563 17.737,-13.6146 19.4297,-11.5313 C21.1224,-9.44792 21.9688,-7.06771 21.9688,-4.39063 C21.9688,-2.70313 21.4167,-0.911458 20.3125,0.984375 C19.2708,2.73438 18.1667,4.09896 17,5.07813 C16.3438,5.59896 14.6823,6.90104 12.0156,8.98438 C11.2344,9.56771 10.3073,10.25 9.23438,11.0313 C8.16146,11.8125 7.49479,12.3021 7.23438,12.5 C6.77604,12.7604 6.34896,13.2813 5.95313,14.0625 C5.50521,14.7188 4.98438,15.2708 4.39063,15.7188 C3.94271,16.1146 3.39323,16.3125 2.74219,16.3125 C2.09115,16.3125 1.56771,16.0833 1.17188,15.625 C0.713542,15.1667 0.484375,14.5469 0.484375,13.7656"/>
<path class="Accidental" transform="matrix(0.566929,0,0,0.566929,476.236,40.5354)" d="M4.59375,-4.10938 L4.59375,3.60938 C4.59375,6.34896 4.72396,8.53125 4.98438,10.1563 C7.13021,8.33333 8.66146,6.96875 9.57813,6.0625 C10.6198,5.02083 11.6615,3.58594 12.7031,1.75781 C13.7448,-0.0703125 14.2656,-1.89583 14.2656,-3.71875 C14.2656,-5.54167 13.875,-7.10417 13.0938,-8.40625 C12.3125,-9.70833 11.2708,-10.3594 9.96875,-10.3594 C8.40625,-10.3594 7.10417,-9.77083 6.0625,-8.59375 C5.08333,-7.29167 4.59375,-5.79688 4.59375,-4.10938 M0.484375,13.7656 L-0.78125,-45.7031 C0.135417,-46.224 1.04948,-46.4844 1.96094,-46.4844 C2.8724,-46.4844 3.78125,-46.224 4.6875,-45.7031 L3.90625,-11.2344 C6.57292,-13.5156 9.63542,-14.6563 13.0938,-14.6563 C15.625,-14.6563 17.737,-13.6146 19.4297,-11.5313 C21.1224,-9.44792 21.9688,-7.06771 21.9688,-4.39063 C21.9688,-2.70313 21.4167,-0.911458 20.3125,0.984375 C19.2708,2.73438 18.1667,4.09896 17,5.07813 C16.3438,5.59896 14.6823,6.90104 12.0156,8.98438 C11.2344,9.56771 10.3073,10.25 9.23438,11.0313 C8.16146,11.8125 7.49479,12.3021 7.23438,12.5 C6.77604,12.7604 6.34896,13.2813 5.95313,14.0625 C5.50521,14.7188 4.98438,15.2708 4.39063,15.7188 C3.94271,16.1146 3.39323,16.3125 2.74219,16.3125 C2.09115,16.3125 1.56771,16.0833 1.17188,15.625 C0.713542,15.1667 0.484375,14.5469 0.484375,13.7656"/>
<polyline class="LedgerLine" fill="none" stroke="#000000" stroke-width="2.27" stroke-linecap="square" stroke-linejoin="bevel" points="552.387,33.4488 579.551,33.4488"/>
<path class="Note" fill="#ffffff" fill-opacity="0.0" fill-rule="evenodd" d="M104.913,690.732 L123.622,690.732 L123.622,715.535 L104.913,715.535 L104.913,690.732 "/>
<path class="Note" d="M107.533,704.274 C107.533,702.618 107.674,701.155 107.955,699.884 C108.236,698.613 108.591,697.618 109.018,696.899 C109.445,696.181 109.958,695.597 110.557,695.149 C111.156,694.702 111.731,694.402 112.283,694.251 C112.835,694.1 113.419,694.024 114.033,694.024 C118.367,694.024 120.533,697.498 120.533,704.446 C120.533,707.717 119.976,710.215 118.861,711.939 C117.747,713.663 116.138,714.524 114.033,714.524 C111.908,714.524 110.294,713.652 109.19,711.907 C108.085,710.163 107.533,707.618 107.533,704.274 M118.002,704.228 C118.002,698.884 116.677,696.212 114.026,696.212 C111.374,696.212 110.049,698.91 110.049,704.306 C110.049,709.754 111.356,712.478 113.971,712.478 C115.356,712.478 116.374,711.806 117.026,710.462 C117.677,709.118 118.002,707.04 118.002,704.228"/>
<path class="Note" fill="#ffffff" fill-opacity="0.0" fill-rule="evenodd" d="M104.913,641.126 L123.622,641.126 L123.622,665.929 L104.913,665.929 L104.913,641.126 "/>
<path class="Note" d="M107.736,651.309 C107.861,646.715 110.044,644.418 114.283,644.418 C116.169,644.418 117.7,644.96 118.877,646.043 C120.054,647.127 120.643,648.528 120.643,650.246 C120.643,652.715 119.242,654.715 116.44,656.246 L113.643,657.746 C112.424,658.403 111.554,659.038 111.033,659.653 C110.513,660.267 110.184,660.996 110.049,661.84 L120.502,661.84 L120.502,664.278 L107.283,664.278 C107.398,662.09 107.838,660.405 108.604,659.223 C109.369,658.041 110.789,656.861 112.861,655.684 L115.424,654.231 C117.216,653.199 118.111,651.892 118.111,650.309 C118.111,649.246 117.739,648.358 116.994,647.645 C116.249,646.931 115.32,646.574 114.205,646.574 C111.716,646.574 110.377,648.153 110.19,651.309 L107.736,651.309 "/>
<path class="Note" fill="#ffffff" fill-opacity="0.0" fill-rule="evenodd" d="M169.627,690.732 L188.336,690.732 L188.336,715.535 L169.627,715.535 L169.627,690.732 "/>
<path class="Note" d="M178.295,699.743 L173.904,699.743 L173.904,697.978 C175.81,697.738 177.053,697.402 177.631,696.97 C178.209,696.538 178.711,695.556 179.138,694.024 L180.763,694.024 L180.763,713.884 L178.295,713.884 L178.295,699.743 "/>
<path class="Note" fill="#ffffff" fill-opacity="0.0" fill-rule="evenodd" d="M169.627,641.126 L188.336,641.126 L188.336,665.929 L169.627,665.929 L169.627,641.126 "/>
<path class="Note" d="M178.607,646.574 C177.191,646.574 176.217,646.962 175.685,647.739 C175.154,648.515 174.868,649.548 174.826,650.84 L172.357,650.84 C172.451,646.559 174.524,644.418 178.576,644.418 C180.461,644.418 181.941,644.905 183.013,645.879 C184.086,646.853 184.623,648.189 184.623,649.887 C184.623,651.897 183.701,653.267 181.857,653.996 C183.045,654.413 183.901,654.989 184.428,655.723 C184.954,656.457 185.217,657.46 185.217,658.731 C185.217,660.616 184.605,662.119 183.381,663.239 C182.157,664.358 180.529,664.918 178.498,664.918 C174.425,664.918 172.237,662.783 171.935,658.512 L174.404,658.512 C174.498,659.949 174.881,661.012 175.553,661.699 C176.224,662.387 177.232,662.731 178.576,662.731 C179.868,662.731 180.875,662.382 181.599,661.684 C182.323,660.986 182.685,660.012 182.685,658.762 C182.685,656.356 181.316,655.153 178.576,655.153 L177.545,655.184 L177.232,655.184 L177.232,653.074 C179.003,653.043 180.258,652.822 180.998,652.41 C181.737,651.999 182.107,651.184 182.107,649.965 C182.107,648.923 181.795,648.098 181.17,647.489 C180.545,646.879 179.691,646.574 178.607,646.574"/>
<path class="Note" fill="#ffffff" fill-opacity="0.0" fill-rule="evenodd" d="M234.342,690.732 L253.051,690.732 L253.051,715.535 L234.342,715.535 L234.342,690.732 "/>
<path class="Note" d="M237.165,700.915 C237.29,696.321 239.473,694.024 243.712,694.024 C245.598,694.024 247.129,694.566 248.306,695.649 C249.483,696.733 250.072,698.134 250.072,699.853 C250.072,702.321 248.671,704.321 245.869,705.853 L243.072,707.353 C241.853,708.009 240.983,708.644 240.462,709.259 C239.941,709.873 239.613,710.603 239.478,711.446 L249.931,711.446 L249.931,713.884 L236.712,713.884 C236.827,711.696 237.267,710.011 238.033,708.829 C238.798,707.647 240.218,706.467 242.29,705.29 L244.853,703.837 C246.645,702.806 247.54,701.498 247.54,699.915 C247.54,698.853 247.168,697.965 246.423,697.251 C245.678,696.538 244.749,696.181 243.634,696.181 C241.145,696.181 239.806,697.759 239.619,700.915 L237.165,700.915 "/>
<path class="Note" fill="#ffffff" fill-opacity="0.0" fill-rule="evenodd" d="M234.342,616.323 L253.051,616.323 L253.051,641.126 L234.342,641.126 L234.342,616.323 "/>
<path class="Note" d="M236.962,629.865 C236.962,628.209 237.103,626.745 237.384,625.474 C237.665,624.204 238.02,623.209 238.447,622.49 C238.874,621.771 239.387,621.188 239.986,620.74 C240.585,620.292 241.16,619.993 241.712,619.842 C242.264,619.691 242.848,619.615 243.462,619.615 C247.796,619.615 249.962,623.089 249.962,630.037 C249.962,633.308 249.405,635.805 248.29,637.529 C247.176,639.253 245.566,640.115 243.462,640.115 C241.337,640.115 239.723,639.243 238.619,637.498 C237.514,635.753 236.962,633.209 236.962,629.865 M247.431,629.818 C247.431,624.474 246.106,621.803 243.454,621.803 C240.803,621.803 239.478,624.5 239.478,629.896 C239.478,635.344 240.785,638.068 243.4,638.068 C244.785,638.068 245.803,637.396 246.454,636.053 C247.106,634.709 247.431,632.631 247.431,629.818"/>
<path class="Note" fill="#ffffff" fill-opacity="0.0" fill-rule="evenodd" d="M299.056,665.929 L317.765,665.929 L317.765,690.732 L299.056,690.732 L299.056,665.929 "/>
<path class="Note" d="M301.677,679.471 C301.677,677.815 301.817,676.352 302.099,675.081 C302.38,673.81 302.734,672.815 303.161,672.096 C303.588,671.378 304.101,670.794 304.7,670.346 C305.299,669.898 305.875,669.599 306.427,669.448 C306.979,669.297 307.562,669.221 308.177,669.221 C312.51,669.221 314.677,672.695 314.677,679.643 C314.677,682.914 314.119,685.411 313.005,687.135 C311.89,688.859 310.281,689.721 308.177,689.721 C306.052,689.721 304.437,688.849 303.333,687.104 C302.229,685.359 301.677,682.815 301.677,679.471 M312.146,679.424 C312.146,674.081 310.82,671.409 308.169,671.409 C305.518,671.409 304.192,674.107 304.192,679.503 C304.192,684.951 305.5,687.674 308.114,687.674 C309.5,687.674 310.518,687.003 311.169,685.659 C311.82,684.315 312.146,682.237 312.146,679.424"/>
<path class="Note" fill="#ffffff" fill-opacity="0.0" fill-rule="evenodd" d="M299.056,616.323 L317.765,616.323 L317.765,641.126 L299.056,641.126 L299.056,616.323 "/>
<path class="Note" d="M308.036,621.771 C306.619,621.771 305.646,622.159 305.114,622.935 C304.583,623.711 304.297,624.745 304.255,626.037 L301.786,626.037 C301.88,621.756 303.953,619.615 308.005,619.615 C309.89,619.615 311.369,620.102 312.442,621.076 C313.515,622.05 314.052,623.386 314.052,625.084 C314.052,627.094 313.13,628.464 311.286,629.193 C312.474,629.61 313.33,630.185 313.856,630.92 C314.383,631.654 314.646,632.657 314.646,633.928 C314.646,635.813 314.034,637.316 312.81,638.435 C311.586,639.555 309.958,640.115 307.927,640.115 C303.854,640.115 301.666,637.98 301.364,633.709 L303.833,633.709 C303.927,635.146 304.31,636.209 304.981,636.896 C305.653,637.584 306.661,637.928 308.005,637.928 C309.297,637.928 310.304,637.579 311.028,636.881 C311.752,636.183 312.114,635.209 312.114,633.959 C312.114,631.553 310.744,630.349 308.005,630.349 L306.974,630.381 L306.661,630.381 L306.661,628.271 C308.432,628.24 309.687,628.019 310.427,627.607 C311.166,627.196 311.536,626.381 311.536,625.162 C311.536,624.12 311.224,623.295 310.599,622.685 C309.974,622.076 309.119,621.771 308.036,621.771"/>
<path class="Note" fill="#ffffff" fill-opacity="0.0" fill-rule="evenodd" d="M363.771,665.929 L382.479,665.929 L382.479,690.732 L363.771,690.732 L363.771,665.929 "/>
<path class="Note" d="M372.438,674.94 L368.048,674.94 L368.048,673.174 C369.954,672.935 371.196,672.599 371.774,672.167 C372.352,671.734 372.855,670.753 373.282,669.221 L374.907,669.221 L374.907,689.081 L372.438,689.081 L372.438,674.94 "/>
<path class="Note" fill="#ffffff" fill-opacity="0.0" fill-rule="evenodd" d="M363.771,616.323 L382.479,616.323 L382.479,641.126 L363.771,641.126 L363.771,616.323 "/>
<path class="Note" d="M374.344,634.709 L365.969,634.709 L365.969,632.115 L374.985,619.615 L376.813,619.615 L376.813,632.506 L379.751,632.506 L379.751,634.709 L376.813,634.709 L376.813,639.474 L374.344,639.474 L374.344,634.709 M374.344,632.506 L374.344,623.818 L368.126,632.506 L374.344,632.506 "/>
<path class="Note" fill="#ffffff" fill-opacity="0.0" fill-rule="evenodd" d="M428.485,665.929 L447.194,665.929 L447.194,690.732 L428.485,690.732 L428.485,665.929 "/>
<path class="Note" d="M437.465,671.378 C436.048,671.378 435.074,671.766 434.543,672.542 C434.012,673.318 433.726,674.352 433.684,675.643 L431.215,675.643 C431.309,671.362 433.382,669.221 437.434,669.221 C439.319,669.221 440.798,669.708 441.871,670.682 C442.944,671.656 443.481,672.992 443.481,674.69 C443.481,676.701 442.559,678.07 440.715,678.799 C441.903,679.216 442.759,679.792 443.285,680.526 C443.811,681.26 444.074,682.263 444.074,683.534 C444.074,685.419 443.463,686.922 442.239,688.042 C441.015,689.161 439.387,689.721 437.356,689.721 C433.283,689.721 431.095,687.586 430.793,683.315 L433.262,683.315 C433.356,684.753 433.739,685.815 434.41,686.503 C435.082,687.19 436.09,687.534 437.434,687.534 C438.726,687.534 439.733,687.185 440.457,686.487 C441.181,685.789 441.543,684.815 441.543,683.565 C441.543,681.159 440.173,679.956 437.434,679.956 L436.403,679.987 L436.09,679.987 L436.09,677.878 C437.861,677.846 439.116,677.625 439.856,677.214 C440.595,676.802 440.965,675.987 440.965,674.768 C440.965,673.727 440.653,672.901 440.028,672.292 C439.403,671.682 438.548,671.378 437.465,671.378"/>
<path class="Note" fill="#ffffff" fill-opacity="0.0" fill-rule="evenodd" d="M428.485,591.52 L447.194,591.52 L447.194,616.323 L428.485,616.323 L428.485,591.52 "/>
<path class="Note" d="M437.153,600.531 L432.762,600.531 L432.762,598.765 C434.668,598.525 435.91,598.189 436.489,597.757 C437.067,597.325 437.569,596.343 437.996,594.812 L439.621,594.812 L439.621,614.671 L437.153,614.671 L437.153,600.531 "/>
<path class="Note" fill="#ffffff" fill-opacity="0.0" fill-rule="evenodd" d="M493.2,665.929 L511.908,665.929 L511.908,690.732 L493.2,690.732 L493.2,665.929 "/>
<path class="Note" d="M503.773,684.315 L495.398,684.315 L495.398,681.721 L504.414,669.221 L506.242,669.221 L506.242,682.112 L509.18,682.112 L509.18,684.315 L506.242,684.315 L506.242,689.081 L503.773,689.081 L503.773,684.315 M503.773,682.112 L503.773,673.424 L497.555,682.112 L503.773,682.112 "/>
<path class="Note" fill="#ffffff" fill-opacity="0.0" fill-rule="evenodd" d="M493.2,591.52 L511.908,591.52 L511.908,616.323 L493.2,616.323 L493.2,591.52 "/>
<path class="Note" d="M496.023,601.703 C496.148,597.109 498.331,594.812 502.57,594.812 C504.456,594.812 505.987,595.354 507.164,596.437 C508.341,597.52 508.93,598.921 508.93,600.64 C508.93,603.109 507.529,605.109 504.726,606.64 L501.93,608.14 C500.711,608.796 499.841,609.432 499.32,610.046 C498.799,610.661 498.471,611.39 498.336,612.234 L508.789,612.234 L508.789,614.671 L495.57,614.671 C495.685,612.484 496.125,610.799 496.891,609.617 C497.656,608.434 499.075,607.255 501.148,606.078 L503.711,604.624 C505.502,603.593 506.398,602.286 506.398,600.703 C506.398,599.64 506.026,598.752 505.281,598.038 C504.536,597.325 503.607,596.968 502.492,596.968 C500.002,596.968 498.664,598.546 498.476,601.703 L496.023,601.703 "/>
<path class="Note" fill="#ffffff" fill-opacity="0.0" fill-rule="evenodd" d="M557.914,641.126 L576.623,641.126 L576.623,665.929 L557.914,665.929 L557.914,641.126 "/>
<path class="Note" d="M560.738,651.309 C560.863,646.715 563.045,644.418 567.285,644.418 C569.17,644.418 570.701,644.96 571.878,646.043 C573.056,647.127 573.644,648.528 573.644,650.246 C573.644,652.715 572.243,654.715 569.441,656.246 L566.644,657.746 C565.425,658.403 564.556,659.038 564.035,659.653 C563.514,660.267 563.186,660.996 563.05,661.84 L573.503,661.84 L573.503,664.278 L560.285,664.278 C560.399,662.09 560.839,660.405 561.605,659.223 C562.371,658.041 563.79,656.861 565.863,655.684 L568.425,654.231 C570.217,653.199 571.113,651.892 571.113,650.309 C571.113,649.246 570.74,648.358 569.996,647.645 C569.251,646.931 568.321,646.574 567.207,646.574 C564.717,646.574 563.378,648.153 563.191,651.309 L560.738,651.309 "/>
<path class="Note" fill="#ffffff" fill-opacity="0.0" fill-rule="evenodd" d="M557.914,591.52 L576.623,591.52 L576.623,616.323 L557.914,616.323 L557.914,591.52 "/>
<path class="Note" d="M572.66,594.812 L572.66,597.249 L564.394,597.249 L563.613,602.796 C564.717,601.994 565.941,601.593 567.285,601.593 C569.191,601.593 570.735,602.205 571.917,603.429 C573.1,604.653 573.691,606.244 573.691,608.203 C573.691,610.296 573.058,612.005 571.792,613.328 C570.527,614.65 568.894,615.312 566.894,615.312 C566.123,615.312 565.417,615.229 564.777,615.062 C564.136,614.895 563.605,614.695 563.183,614.46 C562.761,614.226 562.378,613.919 562.035,613.538 C561.691,613.158 561.431,612.822 561.253,612.531 C561.076,612.239 560.907,611.874 560.746,611.437 C560.584,610.999 560.485,610.697 560.449,610.531 C560.412,610.364 560.368,610.119 560.316,609.796 L562.769,609.796 C563.352,612.015 564.707,613.124 566.832,613.124 C568.175,613.124 569.235,612.716 570.011,611.898 C570.787,611.08 571.175,609.963 571.175,608.546 C571.175,607.067 570.782,605.903 569.996,605.054 C569.209,604.205 568.154,603.781 566.832,603.781 C566.071,603.781 565.42,603.916 564.878,604.187 C564.337,604.458 563.774,604.937 563.191,605.624 L560.925,605.624 L562.41,594.812 L572.66,594.812 "/>
<path class="Note" fill="#ffffff" fill-opacity="0.0" fill-rule="evenodd" d="M104.913,513.567 L123.622,513.567 L123.622,538.37 L104.913,538.37 L104.913,513.567 "/>
<path class="Note" d="M107.736,523.75 C107.861,519.156 110.044,516.859 114.283,516.859 C116.169,516.859 117.7,517.401 118.877,518.484 C120.054,519.567 120.643,520.969 120.643,522.687 C120.643,525.156 119.242,527.156 116.44,528.687 L113.643,530.187 C112.424,530.844 111.554,531.479 111.033,532.094 C110.513,532.708 110.184,533.437 110.049,534.281 L120.502,534.281 L120.502,536.719 L107.283,536.719 C107.398,534.531 107.838,532.846 108.604,531.664 C109.369,530.482 110.789,529.302 112.861,528.125 L115.424,526.672 C117.216,525.64 118.111,524.333 118.111,522.75 C118.111,521.687 117.739,520.799 116.994,520.086 C116.249,519.372 115.32,519.015 114.205,519.015 C111.716,519.015 110.377,520.594 110.19,523.75 L107.736,523.75 "/>
<path class="Note" fill="#ffffff" fill-opacity="0.0" fill-rule="evenodd" d="M104.913,463.961 L123.622,463.961 L123.622,488.764 L104.913,488.764 L104.913,463.961 "/>
<path class="Note" d="M107.533,477.503 C107.533,475.847 107.674,474.383 107.955,473.112 C108.236,471.841 108.591,470.847 109.018,470.128 C109.445,469.409 109.958,468.826 110.557,468.378 C111.156,467.93 111.731,467.63 112.283,467.479 C112.835,467.328 113.419,467.253 114.033,467.253 C118.367,467.253 120.533,470.727 120.533,477.675 C120.533,480.946 119.976,483.443 118.861,485.167 C117.747,486.891 116.138,487.753 114.033,487.753 C111.908,487.753 110.294,486.88 109.19,485.136 C108.085,483.391 107.533,480.847 107.533,477.503 M118.002,477.456 C118.002,472.112 116.677,469.44 114.026,469.44 C111.374,469.44 110.049,472.138 110.049,477.534 C110.049,482.982 111.356,485.706 113.971,485.706 C115.356,485.706 116.374,485.034 117.026,483.69 C117.677,482.347 118.002,480.268 118.002,477.456"/>
<path class="Note" fill="#ffffff" fill-opacity="0.0" fill-rule="evenodd" d="M169.627,513.567 L188.336,513.567 L188.336,538.37 L169.627,538.37 L169.627,513.567 "/>
<path class="Note" d="M178.607,519.015 C177.191,519.015 176.217,519.403 175.685,520.179 C175.154,520.955 174.868,521.989 174.826,523.281 L172.357,523.281 C172.451,519 174.524,516.859 178.576,516.859 C180.461,516.859 181.941,517.346 183.013,518.32 C184.086,519.294 184.623,520.63 184.623,522.328 C184.623,524.338 183.701,525.708 181.857,526.437 C183.045,526.854 183.901,527.429 184.428,528.164 C184.954,528.898 185.217,529.901 185.217,531.172 C185.217,533.057 184.605,534.56 183.381,535.679 C182.157,536.799 180.529,537.359 178.498,537.359 C174.425,537.359 172.237,535.224 171.935,530.953 L174.404,530.953 C174.498,532.39 174.881,533.453 175.553,534.14 C176.224,534.828 177.232,535.172 178.576,535.172 C179.868,535.172 180.875,534.823 181.599,534.125 C182.323,533.427 182.685,532.453 182.685,531.203 C182.685,528.797 181.316,527.594 178.576,527.594 L177.545,527.625 L177.232,527.625 L177.232,525.515 C179.003,525.484 180.258,525.263 180.998,524.851 C181.737,524.44 182.107,523.625 182.107,522.406 C182.107,521.364 181.795,520.539 181.17,519.929 C180.545,519.32 179.691,519.015 178.607,519.015"/>
<path class="Note" fill="#ffffff" fill-opacity="0.0" fill-rule="evenodd" d="M169.627,463.961 L188.336,463.961 L188.336,488.764 L169.627,488.764 L169.627,463.961 "/>
<path class="Note" d="M178.295,472.972 L173.904,472.972 L173.904,471.206 C175.81,470.966 177.053,470.63 177.631,470.198 C178.209,469.766 178.711,468.784 179.138,467.253 L180.763,467.253 L180.763,487.112 L178.295,487.112 L178.295,472.972 "/>
<path class="Note" fill="#ffffff" fill-opacity="0.0" fill-rule="evenodd" d="M234.342,513.567 L253.051,513.567 L253.051,538.37 L234.342,538.37 L234.342,513.567 "/>
<path class="Note" d="M244.915,531.953 L236.54,531.953 L236.54,529.359 L245.556,516.859 L247.384,516.859 L247.384,529.75 L250.322,529.75 L250.322,531.953 L247.384,531.953 L247.384,536.719 L244.915,536.719 L244.915,531.953 M244.915,529.75 L244.915,521.062 L238.697,529.75 L244.915,529.75 "/>
<path class="Note" fill="#ffffff" fill-opacity="0.0" fill-rule="evenodd" d="M234.342,463.961 L253.051,463.961 L253.051,488.764 L234.342,488.764 L234.342,463.961 "/>
<path class="Note" d="M237.165,474.143 C237.29,469.55 239.473,467.253 243.712,467.253 C245.598,467.253 247.129,467.795 248.306,468.878 C249.483,469.961 250.072,471.362 250.072,473.081 C250.072,475.55 248.671,477.55 245.869,479.081 L243.072,480.581 C241.853,481.237 240.983,481.873 240.462,482.487 C239.941,483.102 239.613,483.831 239.478,484.675 L249.931,484.675 L249.931,487.112 L236.712,487.112 C236.827,484.925 237.267,483.24 238.033,482.058 C238.798,480.875 240.218,479.696 242.29,478.518 L244.853,477.065 C246.645,476.034 247.54,474.727 247.54,473.143 C247.54,472.081 247.168,471.193 246.423,470.479 C245.678,469.766 244.749,469.409 243.634,469.409 C241.145,469.409 239.806,470.987 239.619,474.143 L237.165,474.143 "/>
<path class="Note" fill="#ffffff" fill-opacity="0.0" fill-rule="evenodd" d="M299.056,488.764 L317.765,488.764 L317.765,513.567 L299.056,513.567 L299.056,488.764 "/>
<path class="Note" d="M301.677,502.306 C301.677,500.65 301.817,499.186 302.099,497.915 C302.38,496.645 302.734,495.65 303.161,494.931 C303.588,494.212 304.101,493.629 304.7,493.181 C305.299,492.733 305.875,492.434 306.427,492.283 C306.979,492.132 307.562,492.056 308.177,492.056 C312.51,492.056 314.677,495.53 314.677,502.478 C314.677,505.749 314.119,508.246 313.005,509.97 C311.89,511.694 310.281,512.556 308.177,512.556 C306.052,512.556 304.437,511.684 303.333,509.939 C302.229,508.194 301.677,505.65 301.677,502.306 M312.146,502.259 C312.146,496.915 310.82,494.243 308.169,494.243 C305.518,494.243 304.192,496.941 304.192,502.337 C304.192,507.785 305.5,510.509 308.114,510.509 C309.5,510.509 310.518,509.837 311.169,508.493 C311.82,507.15 312.146,505.072 312.146,502.259"/>
<path class="Note" fill="#ffffff" fill-opacity="0.0" fill-rule="evenodd" d="M299.056,463.961 L317.765,463.961 L317.765,488.764 L299.056,488.764 L299.056,463.961 "/>
<path class="Note" d="M313.802,467.253 L313.802,469.69 L305.536,469.69 L304.755,475.237 C305.859,474.435 307.083,474.034 308.427,474.034 C310.333,474.034 311.877,474.646 313.06,475.87 C314.242,477.094 314.833,478.685 314.833,480.643 C314.833,482.737 314.2,484.446 312.935,485.768 C311.669,487.091 310.036,487.753 308.036,487.753 C307.265,487.753 306.56,487.67 305.919,487.503 C305.278,487.336 304.747,487.136 304.325,486.901 C303.903,486.667 303.521,486.36 303.177,485.979 C302.833,485.599 302.573,485.263 302.396,484.972 C302.218,484.68 302.049,484.315 301.888,483.878 C301.726,483.44 301.627,483.138 301.591,482.972 C301.554,482.805 301.51,482.56 301.458,482.237 L303.911,482.237 C304.494,484.456 305.849,485.565 307.974,485.565 C309.317,485.565 310.377,485.156 311.153,484.339 C311.929,483.521 312.317,482.404 312.317,480.987 C312.317,479.508 311.924,478.344 311.138,477.495 C310.351,476.646 309.297,476.222 307.974,476.222 C307.213,476.222 306.562,476.357 306.021,476.628 C305.479,476.899 304.916,477.378 304.333,478.065 L302.067,478.065 L303.552,467.253 L313.802,467.253 "/>
<path class="Note" fill="#ffffff" fill-opacity="0.0" fill-rule="evenodd" d="M363.771,488.764 L382.479,488.764 L382.479,513.567 L363.771,513.567 L363.771,488.764 "/>
<path class="Note" d="M372.438,497.775 L368.048,497.775 L368.048,496.009 C369.954,495.77 371.196,495.434 371.774,495.001 C372.352,494.569 372.855,493.587 373.282,492.056 L374.907,492.056 L374.907,511.915 L372.438,511.915 L372.438,497.775 "/>
<path class="Note" fill="#ffffff" fill-opacity="0.0" fill-rule="evenodd" d="M363.771,463.961 L382.479,463.961 L382.479,488.764 L363.771,488.764 L363.771,463.961 "/>
<path class="Note" d="M366.391,478.065 C366.391,476.315 366.55,474.771 366.868,473.433 C367.186,472.094 367.581,471.045 368.055,470.284 C368.529,469.524 369.1,468.904 369.766,468.425 C370.433,467.946 371.061,467.63 371.649,467.479 C372.238,467.328 372.855,467.253 373.501,467.253 C375.011,467.253 376.266,467.711 377.266,468.628 C378.266,469.545 378.886,470.815 379.126,472.44 L376.673,472.44 C376.464,471.492 376.071,470.755 375.493,470.229 C374.915,469.703 374.193,469.44 373.329,469.44 C371.912,469.44 370.826,470.089 370.071,471.386 C369.316,472.683 368.928,474.545 368.907,476.972 C369.99,475.503 371.511,474.768 373.469,474.768 C375.251,474.768 376.709,475.357 377.844,476.534 C378.98,477.711 379.548,479.222 379.548,481.065 C379.548,483.003 378.938,484.602 377.719,485.862 C376.501,487.123 374.949,487.753 373.063,487.753 C368.615,487.753 366.391,484.524 366.391,478.065 M373.173,476.956 C371.954,476.956 370.962,477.341 370.196,478.112 C369.43,478.883 369.048,479.888 369.048,481.128 C369.048,482.388 369.43,483.443 370.196,484.292 C370.962,485.141 371.923,485.565 373.079,485.565 C374.225,485.565 375.17,485.162 375.915,484.354 C376.659,483.547 377.032,482.513 377.032,481.253 C377.032,479.93 376.686,478.883 375.993,478.112 C375.3,477.341 374.36,476.956 373.173,476.956"/>
<path class="Note" fill="#ffffff" fill-opacity="0.0" fill-rule="evenodd" d="M428.485,488.764 L447.194,488.764 L447.194,513.567 L428.485,513.567 L428.485,488.764 "/>
<path class="Note" d="M437.465,494.212 C436.048,494.212 435.074,494.6 434.543,495.376 C434.012,496.152 433.726,497.186 433.684,498.478 L431.215,498.478 C431.309,494.197 433.382,492.056 437.434,492.056 C439.319,492.056 440.798,492.543 441.871,493.517 C442.944,494.491 443.481,495.827 443.481,497.525 C443.481,499.535 442.559,500.905 440.715,501.634 C441.903,502.051 442.759,502.626 443.285,503.361 C443.811,504.095 444.074,505.098 444.074,506.368 C444.074,508.254 443.463,509.757 442.239,510.876 C441.015,511.996 439.387,512.556 437.356,512.556 C433.283,512.556 431.095,510.421 430.793,506.15 L433.262,506.15 C433.356,507.587 433.739,508.65 434.41,509.337 C435.082,510.025 436.09,510.368 437.434,510.368 C438.726,510.368 439.733,510.02 440.457,509.322 C441.181,508.624 441.543,507.65 441.543,506.4 C441.543,503.993 440.173,502.79 437.434,502.79 L436.403,502.822 L436.09,502.822 L436.09,500.712 C437.861,500.681 439.116,500.46 439.856,500.048 C440.595,499.637 440.965,498.822 440.965,497.603 C440.965,496.561 440.653,495.736 440.028,495.126 C439.403,494.517 438.548,494.212 437.465,494.212"/>
<path class="Note" fill="#ffffff" fill-opacity="0.0" fill-rule="evenodd" d="M428.485,439.157 L447.194,439.157 L447.194,463.961 L428.485,463.961 L428.485,439.157 "/>
<path class="Note" d="M437.153,448.168 L432.762,448.168 L432.762,446.403 C434.668,446.163 435.91,445.827 436.489,445.395 C437.067,444.963 437.569,443.981 437.996,442.45 L439.621,442.45 L439.621,462.309 L437.153,462.309 L437.153,448.168 "/>
<path class="Note" fill="#ffffff" fill-opacity="0.0" fill-rule="evenodd" d="M493.2,488.764 L511.908,488.764 L511.908,513.567 L493.2,513.567 L493.2,488.764 "/>
<path class="Note" d="M503.773,507.15 L495.398,507.15 L495.398,504.556 L504.414,492.056 L506.242,492.056 L506.242,504.947 L509.18,504.947 L509.18,507.15 L506.242,507.15 L506.242,511.915 L503.773,511.915 L503.773,507.15 M503.773,504.947 L503.773,496.259 L497.555,504.947 L503.773,504.947 "/>
<path class="Note" fill="#ffffff" fill-opacity="0.0" fill-rule="evenodd" d="M493.2,439.157 L511.908,439.157 L511.908,463.961 L493.2,463.961 L493.2,439.157 "/>
<path class="Note" d="M496.023,449.34 C496.148,444.747 498.331,442.45 502.57,442.45 C504.456,442.45 505.987,442.991 507.164,444.075 C508.341,445.158 508.93,446.559 508.93,448.278 C508.93,450.747 507.529,452.747 504.726,454.278 L501.93,455.778 C500.711,456.434 499.841,457.069 499.32,457.684 C498.799,458.299 498.471,459.028 498.336,459.872 L508.789,459.872 L508.789,462.309 L495.57,462.309 C495.685,460.122 496.125,458.437 496.891,457.254 C497.656,456.072 499.075,454.892 501.148,453.715 L503.711,452.262 C505.502,451.231 506.398,449.924 506.398,448.34 C506.398,447.278 506.026,446.39 505.281,445.676 C504.536,444.963 503.607,444.606 502.492,444.606 C500.002,444.606 498.664,446.184 498.476,449.34 L496.023,449.34 "/>
<path class="Note" fill="#ffffff" fill-opacity="0.0" fill-rule="evenodd" d="M557.914,463.961 L576.623,463.961 L576.623,488.764 L557.914,488.764 L557.914,463.961 "/>
<path class="Note" d="M560.535,477.503 C560.535,475.847 560.675,474.383 560.957,473.112 C561.238,471.841 561.592,470.847 562.019,470.128 C562.446,469.409 562.959,468.826 563.558,468.378 C564.157,467.93 564.733,467.63 565.285,467.479 C565.837,467.328 566.42,467.253 567.035,467.253 C571.368,467.253 573.535,470.727 573.535,477.675 C573.535,480.946 572.977,483.443 571.863,485.167 C570.748,486.891 569.139,487.753 567.035,487.753 C564.91,487.753 563.295,486.88 562.191,485.136 C561.087,483.391 560.535,480.847 560.535,477.503 M571.003,477.456 C571.003,472.112 569.678,469.44 567.027,469.44 C564.376,469.44 563.05,472.138 563.05,477.534 C563.05,482.982 564.358,485.706 566.972,485.706 C568.358,485.706 569.376,485.034 570.027,483.69 C570.678,482.347 571.003,480.268 571.003,477.456"/>
<path class="Note" fill="#ffffff" fill-opacity="0.0" fill-rule="evenodd" d="M557.914,439.157 L576.623,439.157 L576.623,463.961 L557.914,463.961 L557.914,439.157 "/>
<path class="Note" d="M572.66,442.45 L572.66,444.887 L564.394,444.887 L563.613,450.434 C564.717,449.632 565.941,449.231 567.285,449.231 C569.191,449.231 570.735,449.843 571.917,451.067 C573.1,452.291 573.691,453.882 573.691,455.84 C573.691,457.934 573.058,459.642 571.792,460.965 C570.527,462.288 568.894,462.95 566.894,462.95 C566.123,462.95 565.417,462.866 564.777,462.7 C564.136,462.533 563.605,462.333 563.183,462.098 C562.761,461.864 562.378,461.556 562.035,461.176 C561.691,460.796 561.431,460.46 561.253,460.168 C561.076,459.877 560.907,459.512 560.746,459.075 C560.584,458.637 560.485,458.335 560.449,458.168 C560.412,458.002 560.368,457.757 560.316,457.434 L562.769,457.434 C563.352,459.653 564.707,460.762 566.832,460.762 C568.175,460.762 569.235,460.353 570.011,459.536 C570.787,458.718 571.175,457.601 571.175,456.184 C571.175,454.705 570.782,453.541 569.996,452.692 C569.209,451.843 568.154,451.418 566.832,451.418 C566.071,451.418 565.42,451.554 564.878,451.825 C564.337,452.096 563.774,452.575 563.191,453.262 L560.925,453.262 L562.41,442.45 L572.66,442.45 "/>
<path class="Note" transform="matrix(0.566929,0,0,0.566929,103.637,366.52)" d="M21.9688,-13.7656 C25.0938,-13.7656 27.7344,-12.9531 29.8906,-11.3281 C31.901,-9.56771 32.9063,-7.35417 32.9063,-4.6875 C32.9063,-0.197917 30.599,4 25.9844,7.90625 C21.2969,11.8125 16.2813,13.7656 10.9375,13.7656 C7.8125,13.7656 5.17708,12.9531 3.03125,11.3281 C1.01042,9.56771 0,7.35417 0,4.6875 C0,0.197917 2.34375,-4 7.03125,-7.90625 C11.5938,-11.8125 16.5729,-13.7656 21.9688,-13.7656"/>
<path class="Note" transform="matrix(0.566929,0,0,0.566929,168.352,359.433)" d="M21.9688,-13.7656 C25.0938,-13.7656 27.7344,-12.9531 29.8906,-11.3281 C31.901,-9.56771 32.9063,-7.35417 32.9063,-4.6875 C32.9063,-0.197917 30.599,4 25.9844,7.90625 C21.2969,11.8125 16.2813,13.7656 10.9375,13.7656 C7.8125,13.7656 5.17708,12.9531 3.03125,11.3281 C1.01042,9.56771 0,7.35417 0,4.6875 C0,0.197917 2.34375,-4 7.03125,-7.90625 C11.5938,-11.8125 16.5729,-13.7656 21.9688,-13.7656"/>
<path class="Note" transform="matrix(0.566929,0,0,0.566929,233.066,352.346)" d="M21.9688,-13.7656 C25.0938,-13.7656 27.7344,-12.9531 29.8906,-11.3281 C31.901,-9.56771 32.9063,-7.35417 32.9063,-4.6875 C32.9063,-0.197917 30.599,4 25.9844,7.90625 C21.2969,11.8125 16.2813,13.7656 10.9375,13.7656 C7.8125,13.7656 5.17708,12.9531 3.03125,11.3281 C1.01042,9.56771 0,7.35417 0,4.6875 C0,0.197917 2.34375,-4 7.03125,-7.90625 C11.5938,-11.8125 16.5729,-13.7656 21.9688,-13.7656"/>
<path class="Note" transform="matrix(0.566929,0,0,0.566929,297.781,345.26)" d="M21.9688,-13.7656 C25.0938,-13.7656 27.7344,-12.9531 29.8906,-11.3281 C31.901,-9.56771 32.9063,-7.35417 32.9063,-4.6875 C32.9063,-0.197917 30.599,4 25.9844,7.90625 C21.2969,11.8125 16.2813,13.7656 10.9375,13.7656 C7.8125,13.7656 5.17708,12.9531 3.03125,11.3281 C1.01042,9.56771 0,7.35417 0,4.6875 C0,0.197917 2.34375,-4 7.03125,-7.90625 C11.5938,-11.8125 16.5729,-13.7656 21.9688,-13.7656"/>
<path class="Note" transform="matrix(0.566929,0,0,0.566929,362.495,338.173)" d="M21.9688,-13.7656 C25.0938,-13.7656 27.7344,-12.9531 29.8906,-11.3281 C31.901,-9.56771 32.9063,-7.35417 32.9063,-4.6875 C32.9063,-0.197917 30.599,4 25.9844,7.90625 C21.2969,11.8125 16.2813,13.7656 10.9375,13.7656 C7.8125,13.7656 5.17708,12.9531 3.03125,11.3281 C1.01042,9.56771 0,7.35417 0,4.6875 C0,0.197917 2.34375,-4 7.03125,-7.90625 C11.5938,-11.8125 16.5729,-13.7656 21.9688,-13.7656"/>
<path class="Note" transform="matrix(0.566929,0,0,0.566929,427.21,331.087)" d="M21.9688,-13.7656 C25.0938,-13.7656 27.7344,-12.9531 29.8906,-11.3281 C31.901,-9.56771 32.9063,-7.35417 32.9063,-4.6875 C32.9063,-0.197917 30.599,4 25.9844,7.90625 C21.2969,11.8125 16.2813,13.7656 10.9375,13.7656 C7.8125,13.7656 5.17708,12.9531 3.03125,11.3281 C1.01042,9.56771 0,7.35417 0,4.6875 C0,0.197917 2.34375,-4 7.03125,-7.90625 C11.5938,-11.8125 16.5729,-13.7656 21.9688,-13.7656"/>
<path class="Note" transform="matrix(0.566929,0,0,0.566929,491.924,324)" d="M21.9688,-13.7656 C25.0938,-13.7656 27.7344,-12.9531 29.8906,-11.3281 C31.901,-9.56771 32.9063,-7.35417 32.9063,-4.6875 C32.9063,-0.197917 30.599,4 25.9844,7.90625 C21.2969,11.8125 16.2813,13.7656 10.9375,13.7656 C7.8125,13.7656 5.17708,12.9531 3.03125,11.3281 C1.01042,9.56771 0,7.35417 0,4.6875 C0,0.197917 2.34375,-4 7.03125,-7.90625 C11.5938,-11.8125 16.5729,-13.7656 21.9688,-13.7656"/>
<path class="Note" transform="matrix(0.566929,0,0,0.566929,556.639,316.913)" d="M21.9688,-13.7656 C25.0938,-13.7656 27.7344,-12.9531 29.8906,-11.3281 C31.901,-9.56771 32.9063,-7.35417 32.9063,-4.6875 C32.9063,-0.197917 30.599,4 25.9844,7.90625 C21.2969,11.8125 16.2813,13.7656 10.9375,13.7656 C7.8125,13.7656 5.17708,12.9531 3.03125,11.3281 C1.01042,9.56771 0,7.35417 0,4.6875 C0,0.197917 2.34375,-4 7.03125,-7.90625 C11.5938,-11.8125 16.5729,-13.7656 21.9688,-13.7656"/>
<path class="Note" transform="matrix(0.566929,0,0,0.566929,103.637,224.787)" d="M21.9688,-13.7656 C25.0938,-13.7656 27.7344,-12.9531 29.8906,-11.3281 C31.901,-9.56771 32.9063,-7.35417 32.9063,-4.6875 C32.9063,-0.197917 30.599,4 25.9844,7.90625 C21.2969,11.8125 16.2813,13.7656 10.9375,13.7656 C7.8125,13.7656 5.17708,12.9531 3.03125,11.3281 C1.01042,9.56771 0,7.35417 0,4.6875 C0,0.197917 2.34375,-4 7.03125,-7.90625 C11.5938,-11.8125 16.5729,-13.7656 21.9688,-13.7656"/>
<path class="Note" transform="matrix(0.566929,0,0,0.566929,168.352,217.701)" d="M21.9688,-13.7656 C25.0938,-13.7656 27.7344,-12.9531 29.8906,-11.3281 C31.901,-9.56771 32.9063,-7.35417 32.9063,-4.6875 C32.9063,-0.197917 30.599,4 25.9844,7.90625 C21.2969,11.8125 16.2813,13.7656 10.9375,13.7656 C7.8125,13.7656 5.17708,12.9531 3.03125,11.3281 C1.01042,9.56771 0,7.35417 0,4.6875 C0,0.197917 2.34375,-4 7.03125,-7.90625 C11.5938,-11.8125 16.5729,-13.7656 21.9688,-13.7656"/>
<path class="Note" transform="matrix(0.566929,0,0,0.566929,233.066,210.614)" d="M21.9688,-13.7656 C25.0938,-13.7656 27.7344,-12.9531 29.8906,-11.3281 C31.901,-9.56771 32.9063,-7.35417 32.9063,-4.6875 C32.9063,-0.197917 30.599,4 25.9844,7.90625 C21.2969,11.8125 16.2813,13.7656 10.9375,13.7656 C7.8125,13.7656 5.17708,12.9531 3.03125,11.3281 C1.01042,9.56771 0,7.35417 0,4.6875 C0,0.197917 2.34375,-4 7.03125,-7.90625 C11.5938,-11.8125 16.5729,-13.7656 21.9688,-13.7656"/>
<path class="Note" transform="matrix(0.566929,0,0,0.566929,297.781,203.528)" d="M21.9688,-13.7656 C25.0938,-13.7656 27.7344,-12.9531 29.8906,-11.3281 C31.901,-9.56771 32.9063,-7.35417 32.9063,-4.6875 C32.9063,-0.197917 30.599,4 25.9844,7.90625 C21.2969,11.8125 16.2813,13.7656 10.9375,13.7656 C7.8125,13.7656 5.17708,12.9531 3.03125,11.3281 C1.01042,9.56771 0,7.35417 0,4.6875 C0,0.197917 2.34375,-4 7.03125,-7.90625 C11.5938,-11.8125 16.5729,-13.7656 21.9688,-13.7656"/>
<path class="Note" transform="matrix(0.566929,0,0,0.566929,362.495,196.441)" d="M21.9688,-13.7656 C25.0938,-13.7656 27.7344,-12.9531 29.8906,-11.3281 C31.901,-9.56771 32.9063,-7.35417 32.9063,-4.6875 C32.9063,-0.197917 30.599,4 25.9844,7.90625 C21.2969,11.8125 16.2813,13.7656 10.9375,13.7656 C7.8125,13.7656 5.17708,12.9531 3.03125,11.3281 C1.01042,9.56771 0,7.35417 0,4.6875 C0,0.197917 2.34375,-4 7.03125,-7.90625 C11.5938,-11.8125 16.5729,-13.7656 21.9688,-13.7656"/>
<path class="Note" transform="matrix(0.566929,0,0,0.566929,427.21,189.354)" d="M21.9688,-13.7656 C25.0938,-13.7656 27.7344,-12.9531 29.8906,-11.3281 C31.901,-9.56771 32.9063,-7.35417 32.9063,-4.6875 C32.9063,-0.197917 30.599,4 25.9844,7.90625 C21.2969,11.8125 16.2813,13.7656 10.9375,13.7656 C7.8125,13.7656 5.17708,12.9531 3.03125,11.3281 C1.01042,9.56771 0,7.35417 0,4.6875 C0,0.197917 2.34375,-4 7.03125,-7.90625 C11.5938,-11.8125 16.5729,-13.7656 21.9688,-13.7656"/>
<path class="Note" transform="matrix(0.566929,0,0,0.566929,491.924,182.268)" d="M21.9688,-13.7656 C25.0938,-13.7656 27.7344,-12.9531 29.8906,-11.3281 C31.901,-9.56771 32.9063,-7.35417 32.9063,-4.6875 C32.9063,-0.197917 30.599,4 25.9844,7.90625 C21.2969,11.8125 16.2813,13.7656 10.9375,13.7656 C7.8125,13.7656 5.17708,12.9531 3.03125,11.3281 C1.01042,9.56771 0,7.35417 0,4.6875 C0,0.197917 2.34375,-4 7.03125,-7.90625 C11.5938,-11.8125 16.5729,-13.7656 21.9688,-13.7656"/>
<path class="Note" transform="matrix(0.566929,0,0,0.566929,556.639,175.181)" d="M21.9688,-13.7656 C25.0938,-13.7656 27.7344,-12.9531 29.8906,-11.3281 C31.901,-9.56771 32.9063,-7.35417 32.9063,-4.6875 C32.9063,-0.197917 30.599,4 25.9844,7.90625 C21.2969,11.8125 16.2813,13.7656 10.9375,13.7656 C7.8125,13.7656 5.17708,12.9531 3.03125,11.3281 C1.01042,9.56771 0,7.35417 0,4.6875 C0,0.197917 2.34375,-4 7.03125,-7.90625 C11.5938,-11.8125 16.5729,-13.7656 21.9688,-13.7656"/>
<path class="Note" transform="matrix(0.566929,0,0,0.566929,103.637,83.0551)" d="M21.9688,-13.7656 C25.0938,-13.7656 27.7344,-12.9531 29.8906,-11.3281 C31.901,-9.56771 32.9063,-7.35417 32.9063,-4.6875 C32.9063,-0.197917 30.599,4 25.9844,7.90625 C21.2969,11.8125 16.2813,13.7656 10.9375,13.7656 C7.8125,13.7656 5.17708,12.9531 3.03125,11.3281 C1.01042,9.56771 0,7.35417 0,4.6875 C0,0.197917 2.34375,-4 7.03125,-7.90625 C11.5938,-11.8125 16.5729,-13.7656 21.9688,-13.7656"/>
<path class="Note" transform="matrix(0.566929,0,0,0.566929,168.352,75.9685)" d="M21.9688,-13.7656 C25.0938,-13.7656 27.7344,-12.9531 29.8906,-11.3281 C31.901,-9.56771 32.9063,-7.35417 32.9063,-4.6875 C32.9063,-0.197917 30.599,4 25.9844,7.90625 C21.2969,11.8125 16.2813,13.7656 10.9375,13.7656 C7.8125,13.7656 5.17708,12.9531 3.03125,11.3281 C1.01042,9.56771 0,7.35417 0,4.6875 C0,0.197917 2.34375,-4 7.03125,-7.90625 C11.5938,-11.8125 16.5729,-13.7656 21.9688,-13.7656"/>
<path class="Note" transform="matrix(0.566929,0,0,0.566929,233.066,68.8819)" d="M21.9688,-13.7656 C25.0938,-13.7656 27.7344,-12.9531 29.8906,-11.3281 C31.901,-9.56771 32.9063,-7.35417 32.9063,-4.6875 C32.9063,-0.197917 30.599,4 25.9844,7.90625 C21.2969,11.8125 16.2813,13.7656 10.9375,13.7656 C7.8125,13.7656 5.17708,12.9531 3.03125,11.3281 C1.01042,9.56771 0,7.35417 0,4.6875 C0,0.197917 2.34375,-4 7.03125,-7.90625 C11.5938,-11.8125 16.5729,-13.7656 21.9688,-13.7656"/>
<path class="Note" transform="matrix(0.566929,0,0,0.566929,297.781,61.7953)" d="M21.9688,-13.7656 C25.0938,-13.7656 27.7344,-12.9531 29.8906,-11.3281 C31.901,-9.56771 32.9063,-7.35417 32.9063,-4.6875 C32.9063,-0.197917 30.599,4 25.9844,7.90625 C21.2969,11.8125 16.2813,13.7656 10.9375,13.7656 C7.8125,13.7656 5.17708,12.9531 3.03125,11.3281 C1.01042,9.56771 0,7.35417 0,4.6875 C0,0.197917 2.34375,-4 7.03125,-7.90625 C11.5938,-11.8125 16.5729,-13.7656 21.9688,-13.7656"/>
<path class="Note" transform="matrix(0.566929,0,0,0.566929,362.495,54.7087)" d="M21.9688,-13.7656 C25.0938,-13.7656 27.7344,-12.9531 29.8906,-11.3281 C31.901,-9.56771 32.9063,-7.35417 32.9063,-4.6875 C32.9063,-0.197917 30.599,4 25.9844,7.90625 C21.2969,11.8125 16.2813,13.7656 10.9375,13.7656 C7.8125,13.7656 5.17708,12.9531 3.03125,11.3281 C1.01042,9.56771 0,7.35417 0,4.6875 C0,0.197917 2.34375,-4 7.03125,-7.90625 C11.5938,-11.8125 16.5729,-13.7656 21.9688,-13.7656"/>
<path class="Note" transform="matrix(0.566929,0,0,0.566929,427.21,47.6221)" d="M21.9688,-13.7656 C25.0938,-13.7656 27.7344,-12.9531 29.8906,-11.3281 C31.901,-9.56771 32.9063,-7.35417 32.9063,-4.6875 C32.9063,-0.197917 30.599,4 25.9844,7.90625 C21.2969,11.8125 16.2813,13.7656 10.9375,13.7656 C7.8125,13.7656 5.17708,12.9531 3.03125,11.3281 C1.01042,9.56771 0,7.35417 0,4.6875 C0,0.197917 2.34375,-4 7.03125,-7.90625 C11.5938,-11.8125 16.5729,-13.7656 21.9688,-13.7656"/>
<path class="Note" transform="matrix(0.566929,0,0,0.566929,491.924,40.5354)" d="M21.9688,-13.7656 C25.0938,-13.7656 27.7344,-12.9531 29.8906,-11.3281 C31.901,-9.56771 32.9063,-7.35417 32.9063,-4.6875 C32.9063,-0.197917 30.599,4 25.9844,7.90625 C21.2969,11.8125 16.2813,13.7656 10.9375,13.7656 C7.8125,13.7656 5.17708,12.9531 3.03125,11.3281 C1.01042,9.56771 0,7.35417 0,4.6875 C0,0.197917 2.34375,-4 7.03125,-7.90625 C11.5938,-11.8125 16.5729,-13.7656 21.9688,-13.7656"/>
<path class="Note" transform="matrix(0.566929,0,0,0.566929,556.639,33.4488)" d="M21.9688,-13.7656 C25.0938,-13.7656 27.7344,-12.9531 29.8906,-11.3281 C31.901,-9.56771 32.9063,-7.35417 32.9063,-4.6875 C32.9063,-0.197917 30.599,4 25.9844,7.90625 C21.2969,11.8125 16.2813,13.7656 10.9375,13.7656 C7.8125,13.7656 5.17708,12.9531 3.03125,11.3281 C1.01042,9.56771 0,7.35417 0,4.6875 C0,0.197917 2.34375,-4 7.03125,-7.90625 C11.5938,-11.8125 16.5729,-13.7656 21.9688,-13.7656"/>
<path class="Clef" transform="matrix(0.566929,0,0,0.566929,28.5015,665.929)" d="M26.6563,42.4844 C26.6563,44.3073 25.224,45.2188 22.3594,45.2188 C20.0885,45.2188 18.1042,44.5365 16.4063,43.1719 C14.7813,41.7344 13.9688,39.9115 13.9688,37.7031 C13.9688,33.7969 16.3438,30.6719 21.0938,28.3281 C25.7188,25.9115 31.1563,24.7031 37.4063,24.7031 C39.8125,24.7031 42.3854,24.8698 45.125,25.2031 C47.1354,25.4635 49.3802,25.9844 51.8594,26.7656 C54.0677,27.474 55.7917,28.5443 57.0313,29.9766 C58.2708,31.4089 58.8906,33.0729 58.8906,34.9688 C58.8906,39.4583 56.5781,43.1354 51.9531,46 C58.724,47.2396 62.1406,50.2656 62.2031,55.0781 C62.2031,59.1198 60.3802,62.7682 56.7344,66.0234 C53.0885,69.2786 48.9583,70.9063 44.3438,70.9063 C42.3854,70.9063 40.3958,70.4479 38.375,69.5313 C36.4896,68.625 35.1563,67.7813 34.375,67 C33.5938,66.0833 33.2031,65.3958 33.2031,64.9375 C33.2031,64.2917 33.5313,63.7396 34.1875,63.2813 C34.7708,62.6979 35.3854,62.4063 36.0313,62.4063 C36.2917,62.4063 36.8464,62.8281 37.6953,63.6719 C38.5443,64.5156 39.7813,64.9375 41.4063,64.9375 C43.625,64.9375 45.776,63.9948 47.8594,62.1094 C49.8698,60.2865 50.875,58.1042 50.875,55.5625 C50.875,53.3542 49.9323,51.7604 48.0469,50.7813 C46.1615,49.8021 43.7552,49.3125 40.8281,49.3125 C40.3073,49.3125 40.0469,48.7604 40.0469,47.6563 C40.0469,46.0938 40.6302,45.3125 41.7969,45.3125 C43.6198,45.3125 45.25,44.5313 46.6875,42.9688 C48.0521,41.2813 48.7344,39.4896 48.7344,37.5938 C48.7344,37.0104 48.5729,36.1354 48.25,34.9688 C47.9896,34.1875 47.2083,33.2396 45.9063,32.125 C44.6667,31.0833 42.9375,30.3698 40.7188,29.9844 C40.1354,33.1719 39.4036,37.2396 38.5234,42.1875 C37.6432,47.1354 37.0417,50.3906 36.7188,51.9531 C35.6146,57.5573 33.599,62.276 30.6719,66.1094 C27.6094,70.151 24.3177,72.1719 20.7969,72.1719 C19.6927,72.1719 18.5573,71.9115 17.3906,71.3906 C16.474,70.9948 15.3021,70.1823 13.875,68.9531 C12.5729,67.9115 11.6927,67.224 11.2344,66.8906 C10.974,66.7031 10.8438,66.4115 10.8438,66.0156 C10.8438,65.3698 11.0729,64.7865 11.5313,64.2656 C12.0521,63.6719 12.6042,63.375 13.1875,63.375 C13.5729,63.375 14.4818,63.9948 15.9141,65.2344 C17.3464,66.474 18.8438,67.0938 20.4063,67.0938 C23.4063,67.0938 25.6563,65.1719 27.1563,61.3281 C28.5833,57.6198 29.2969,53.0313 29.2969,47.5625 L29.2969,46.7813 C29.2969,43.1354 29.8854,37.6979 31.0625,30.4688 C28.9792,31.125 27.3177,32.1042 26.0781,33.4063 C24.776,34.7083 24.125,36.0729 24.125,37.5 C24.125,38.6042 24.5469,39.5469 25.3906,40.3281 C26.2344,41.1094 26.6563,41.8281 26.6563,42.4844 M7.03125,11.9219 C7.35417,11.9219 8.13542,12.2448 9.375,12.8906 C10.6771,13.5469 11.7865,13.875 12.7031,13.875 C15.1719,13.875 18.1979,12.0833 21.7813,8.5 C32.1354,-2.05208 39.2656,-13.25 43.1719,-25.0938 C43.9531,-27.5729 45.8698,-28.8125 48.9219,-28.8125 C50.4844,-28.8125 51.8229,-28.4844 52.9375,-27.8281 C54.0417,-27.1198 54.5938,-26.4063 54.5938,-25.6875 L52.8281,10.8438 C52.8281,12.7917 53.5156,13.7656 54.8906,13.7656 C55.599,13.7656 56.6406,13.4427 58.0156,12.7969 C59.3177,12.1406 60.099,11.8125 60.3594,11.8125 C60.8802,11.8125 61.2031,12.3698 61.3281,13.4844 C61.3281,14.526 60.9063,15.1771 60.0625,15.4375 C59.4063,15.625 58.1042,16.2396 56.1563,17.2813 C54.1354,18.3229 52.5417,18.8438 51.375,18.8438 C48.8958,18.8438 47.1354,16.8906 46.0938,12.9844 C44.4688,6.86979 43.4271,0.520833 42.9688,-6.0625 C40.3646,-2.73958 37.4688,0.614583 34.2813,4 C35.4479,6.21875 37.5938,7.32813 40.7188,7.32813 C41.1771,7.32813 41.5365,7.29688 41.7969,7.23438 L41.8906,7.23438 C42.4115,7.23438 42.6719,7.71875 42.6719,8.6875 C42.6719,9.92708 42.25,10.6771 41.4063,10.9375 C40.0417,11.3958 38.6094,11.625 37.1094,11.625 C33.8594,11.625 31.5156,10.5156 30.0781,8.29688 L26.1719,11.8125 C20.7031,16.5 16.2448,18.8438 12.7969,18.8438 C11.8802,18.8438 10.9375,18.6823 9.96875,18.3594 C9.1875,18.0365 8.27604,17.5469 7.23438,16.8906 C6.83854,16.7031 6.39583,16.4609 5.90625,16.1641 C5.41667,15.8672 5.10938,15.6875 4.98438,15.625 C4.66146,15.5 4.5,15.2083 4.5,14.75 C4.5,14.2292 4.76042,13.6094 5.28125,12.8906 C5.72917,12.2448 6.3125,11.9219 7.03125,11.9219 M28.8125,-54 C28.8125,-52.375 27.4115,-51.5625 24.6094,-51.5625 C22.1406,-51.5625 19.9948,-52.375 18.1719,-54 C16.4115,-55.6354 15.5313,-57.625 15.5313,-59.9688 C15.5313,-62.2396 16.2448,-64.1927 17.6719,-65.8281 C19.1719,-67.5156 21.0938,-68.7813 23.4375,-69.625 C25.5833,-70.4063 27.9948,-71.026 30.6719,-71.4844 C33.4635,-71.8073 36.1302,-71.9688 38.6719,-71.9688 C40.1719,-71.9688 42.974,-71.2865 47.0781,-69.9219 C51.2448,-68.5573 54.1406,-67.875 55.7656,-67.875 C57.7865,-67.875 59.7083,-68.2344 61.5313,-68.9531 C63.0208,-69.599 64.4531,-70.3438 65.8281,-71.1875 C66.9323,-71.9063 67.5469,-72.2656 67.6719,-72.2656 C68.2656,-72.2656 68.7865,-72.0729 69.2344,-71.6875 C69.7552,-71.1667 70.0156,-70.7396 70.0156,-70.4063 C70.0156,-69.9583 69.401,-69.2135 68.1719,-68.1719 C66.8698,-66.9948 65.013,-65.8203 62.6016,-64.6484 C60.1901,-63.4766 57.651,-62.8906 54.9844,-62.8906 C53.8073,-62.8906 52.3438,-63.0885 50.5938,-63.4844 C49.4792,-56.2552 48.3073,-49.8385 47.0781,-44.2344 C46.0365,-39.2865 43.9531,-34.9583 40.8281,-31.25 C37.8281,-27.5417 34.474,-25.6875 30.7656,-25.6875 C29.2656,-25.6875 27.9323,-25.9792 26.7656,-26.5625 C25.4635,-27.2188 24.0938,-28.1979 22.6563,-29.5 C21.4896,-30.4688 20.3854,-31.3438 19.3438,-32.125 C19.0833,-32.3229 18.9531,-32.6198 18.9531,-33.0156 C18.9531,-33.4635 19.2135,-34.0469 19.7344,-34.7656 C20.2552,-35.349 20.7396,-35.6406 21.1875,-35.6406 C21.5833,-35.6406 22.6927,-34.8281 24.5156,-33.2031 C26.3385,-31.5781 27.9635,-30.7656 29.3906,-30.7656 C31.9948,-30.7656 34.0156,-32.2604 35.4531,-35.25 C36.8802,-38.1875 37.6927,-41.7031 37.8906,-45.7969 C38.2135,-52.5052 38.9635,-59.4427 40.1406,-66.6094 C38.7031,-66.9323 37.6302,-67.0938 36.9219,-67.0938 C33.7969,-67.0938 31.125,-66.4427 28.9063,-65.1406 C26.6979,-63.901 25.5938,-62.2083 25.5938,-60.0625 C25.5938,-58.5 26.1146,-57.2969 27.1563,-56.4531 C28.2604,-55.5365 28.8125,-54.7188 28.8125,-54"/>
<path class="Clef" transform="matrix(0.566929,0,0,0.566929,28.5015,488.764)" d="M21.2969,33.9844 C21.2969,35.4219 20.1875,36.1406 17.9688,36.1406 C16.1458,36.1406 14.5833,35.5833 13.2813,34.4688 C11.9167,33.3646 11.2344,31.9323 11.2344,30.1719 C11.2344,26.9844 13.0885,24.4792 16.7969,22.6563 C20.7031,20.7708 25.0677,19.8281 29.8906,19.8281 C34.5052,19.8281 38.6042,20.4479 42.1875,21.6875 C45.5104,23.0521 47.1719,25.1667 47.1719,28.0313 C47.1719,31.5417 45.3177,34.4688 41.6094,36.8125 C47.0781,37.9271 49.8125,40.3698 49.8125,44.1406 C49.8125,47.2656 48.3438,50.1615 45.4063,52.8281 C42.5417,55.4323 39.1927,56.7344 35.3594,56.7344 C33.7969,56.7344 32.2344,56.3802 30.6719,55.6719 C29.2344,55.0156 28.1927,54.2969 27.5469,53.5156 C26.8906,52.9323 26.5625,52.3802 26.5625,51.8594 C26.5625,51.3385 26.8229,50.9167 27.3438,50.5938 C27.8021,50.1354 28.2917,49.9063 28.8125,49.9063 C29.0729,49.9063 29.5599,50.2318 30.2734,50.8828 C30.987,51.5339 31.9635,51.8594 33.2031,51.8594 C35.0885,51.8594 36.849,51.1406 38.4844,49.7031 C40.0469,48.2135 40.8281,46.4896 40.8281,44.5313 C40.8281,42.8438 40.0469,41.5417 38.4844,40.625 C36.9844,39.7813 35.0625,39.3594 32.7188,39.3594 C32.2604,39.3594 32.0313,38.9688 32.0313,38.1875 C32.0313,36.8854 32.5208,36.2344 33.5,36.2344 C34.9271,36.2344 36.1979,35.6146 37.3125,34.375 C38.4167,32.9479 38.9688,31.4844 38.9688,29.9844 C38.9688,26.7969 36.8542,24.8125 32.625,24.0313 L29.3906,41.6094 C28.5469,45.9635 26.9531,49.7396 24.6094,52.9375 C22.2031,56.125 19.5677,57.7188 16.7031,57.7188 C15.724,57.7188 14.8125,57.5208 13.9688,57.125 C13.1875,56.8021 12.2083,56.151 11.0313,55.1719 C9.72917,54.1302 9.04688,53.5781 8.98438,53.5156 C8.72396,53.2552 8.59375,53.026 8.59375,52.8281 C8.59375,52.4427 8.79167,51.9583 9.1875,51.375 C9.63542,50.9167 10.0885,50.6875 10.5469,50.6875 C10.7448,50.6875 11.526,51.1771 12.8906,52.1563 C13.9948,53.1979 15.1667,53.7188 16.4063,53.7188 C18.8125,53.7188 20.6042,52.2188 21.7813,49.2188 C22.9479,46.0938 23.5313,42.3854 23.5313,38.0938 L23.5313,37.4063 C23.5313,34.7396 23.9896,30.4115 24.9063,24.4219 C23.2083,25.0052 21.875,25.7865 20.9063,26.7656 C19.8646,27.8073 19.3438,28.8802 19.3438,29.9844 C19.3438,30.8906 19.6667,31.6406 20.3125,32.2344 C20.9688,32.8802 21.2969,33.4635 21.2969,33.9844 M5.5625,9.46875 C5.82292,9.46875 6.47396,9.76563 7.51563,10.3594 C8.69271,10.8802 9.57292,11.1406 10.1563,11.1406 C13.0208,11.1406 17.1875,7.75521 22.6563,0.984375 C28.0625,-5.66146 32,-12.6979 34.4688,-20.125 C35.0625,-22.0729 36.5938,-23.0469 39.0625,-23.0469 C40.3021,-23.0469 41.3438,-22.7865 42.1875,-22.2656 C43.1042,-21.8802 43.5625,-21.3281 43.5625,-20.6094 L42.1875,8.59375 C42.1875,10.2917 42.776,11.1406 43.9531,11.1406 C44.3385,11.1406 45.151,10.8802 46.3906,10.3594 C47.5573,9.76563 48.2083,9.46875 48.3438,9.46875 C48.8021,9.46875 49.0313,9.92708 49.0313,10.8438 C49.0313,11.625 48.7344,12.1146 48.1406,12.3125 C47.4323,12.6354 46.3594,13.1563 44.9219,13.875 C43.2969,14.7188 42.026,15.1406 41.1094,15.1406 C40.1406,15.1406 39.2292,14.7188 38.375,13.875 C37.5313,12.8333 36.7865,10.8125 36.1406,7.8125 C35.3594,4.82292 34.7708,0.588542 34.375,-4.89063 C32.3542,-2.21354 30.0781,0.489583 27.5469,3.21875 C28.5156,4.91667 30.5,5.76563 33.5,5.76563 C33.8854,5.76563 34.0781,6.1875 34.0781,7.03125 C34.0781,8.53125 32.5833,9.28125 29.5938,9.28125 C27.0521,9.28125 25.2292,8.40104 24.125,6.64063 L21,9.375 C16.7708,13.0208 13.1563,14.9115 10.1563,15.0469 C9.11458,15.0469 7.75,14.5885 6.0625,13.6719 C4.42708,12.8281 3.60938,12.2083 3.60938,11.8125 C3.60938,11.3646 3.80729,10.8802 4.20313,10.3594 C4.58854,9.76563 5.04167,9.46875 5.5625,9.46875 M23.0469,-43.1719 C23.0469,-41.9323 21.9427,-41.3125 19.7344,-41.3125 C17.776,-41.3125 16.0469,-41.9635 14.5469,-43.2656 C13.1198,-44.5052 12.4063,-46.099 12.4063,-48.0469 C12.4063,-49.8698 12.9583,-51.4323 14.0625,-52.7344 C15.3646,-54.1719 16.9271,-55.151 18.75,-55.6719 C20.0521,-56.1927 22.0052,-56.7135 24.6094,-57.2344 C27.349,-57.4948 29.4635,-57.625 30.9531,-57.625 C32.0677,-57.625 34.2839,-57.0703 37.6016,-55.9609 C40.9193,-54.8516 43.2604,-54.2969 44.625,-54.2969 C46.2604,-54.2969 47.7917,-54.5573 49.2188,-55.0781 C50.5833,-55.6615 51.6927,-56.25 52.5469,-56.8438 C53.3906,-57.4896 53.9115,-57.8125 54.1094,-57.8125 C54.4948,-57.8125 54.9167,-57.651 55.375,-57.3281 C55.7604,-57.0052 55.9531,-56.6771 55.9531,-56.3438 C55.9531,-56.0833 55.4688,-55.4688 54.5,-54.5 C53.3229,-53.4583 51.8229,-52.5469 50,-51.7656 C48.0521,-50.7865 46.0677,-50.2969 44.0469,-50.2969 C43.0052,-50.2969 41.8333,-50.4583 40.5313,-50.7813 C39.6146,-44.4063 38.6719,-39.2292 37.7031,-35.25 C36.849,-31.2813 35.1875,-27.8333 32.7188,-24.9063 C30.3125,-21.9792 27.6406,-20.5156 24.7031,-20.5156 C23.401,-20.5156 22.3281,-20.776 21.4844,-21.2969 C20.3802,-21.8177 19.276,-22.5625 18.1719,-23.5313 C17.1302,-24.5104 16.25,-25.2292 15.5313,-25.6875 C15.2708,-25.9479 15.1406,-26.1771 15.1406,-26.375 C15.1406,-26.8229 15.3021,-27.276 15.625,-27.7344 C15.9479,-28.2552 16.3698,-28.5156 16.8906,-28.5156 C17.151,-28.5156 18.0313,-27.8646 19.5313,-26.5625 C21.0313,-25.2604 22.3646,-24.6094 23.5313,-24.6094 C25.0938,-24.6094 26.3021,-25.1302 27.1563,-26.1719 C28.0625,-27.2135 28.776,-28.776 29.2969,-30.8594 C29.7552,-32.7448 30.0833,-34.8594 30.2813,-37.2031 C30.5417,-39.1615 30.8333,-41.8333 31.1563,-45.2188 C31.3542,-47.1042 31.6771,-49.8073 32.125,-53.3281 C31.0208,-53.5885 30.1458,-53.7188 29.5,-53.7188 C27.1563,-53.7188 25.0365,-53.1979 23.1406,-52.1563 C21.3906,-50.9792 20.5156,-49.6406 20.5156,-48.1406 C20.5156,-47.0365 20.9375,-46.0625 21.7813,-45.2188 C22.625,-44.375 23.0469,-43.6927 23.0469,-43.1719"/>
<path class="Clef" transform="matrix(0.566929,0,0,0.566929,28.5015,331.087)" d="M57.1328,-8.89063 C56.1589,-9.86979 55.6719,-11.0755 55.6719,-12.5078 C55.6719,-13.9401 56.1589,-15.1432 57.1328,-16.1172 C58.1068,-17.0911 59.3099,-17.5781 60.7422,-17.5781 C62.1745,-17.5781 63.3802,-17.0911 64.3594,-16.1172 C65.3385,-15.1432 65.8281,-13.9401 65.8281,-12.5078 C65.8281,-11.0755 65.3385,-9.86979 64.3594,-8.89063 C63.3802,-7.91146 62.1745,-7.42188 60.7422,-7.42188 C59.3099,-7.42188 58.1068,-7.91146 57.1328,-8.89063 M57.1328,16.1172 C56.1589,15.1432 55.6719,13.9401 55.6719,12.5078 C55.6719,11.0755 56.1589,9.86979 57.1328,8.89063 C58.1068,7.91146 59.3099,7.42188 60.7422,7.42188 C62.1745,7.42188 63.3802,7.91146 64.3594,8.89063 C65.3385,9.86979 65.8281,11.0755 65.8281,12.5078 C65.8281,13.9401 65.3385,15.1432 64.3594,16.1172 C63.3802,17.0911 62.1745,17.5781 60.7422,17.5781 C59.3099,17.5781 58.1068,17.0911 57.1328,16.1172 M23.25,-26.2656 C31.9063,-26.2656 39,-24.0885 44.5313,-19.7344 C49.875,-15.1719 52.5469,-8.98438 52.5469,-1.17188 C52.5469,4.09896 51.5052,8.91667 49.4219,13.2813 C47.4635,17.8438 44.8906,21.8802 41.7031,25.3906 C38.4427,28.974 34.5052,32.3594 29.8906,35.5469 C25.3906,38.6719 20.7656,41.474 16.0156,43.9531 C6.31771,48.8281 0.979167,51.2656 0,51.2656 C-0.84375,51.2656 -1.26563,50.8438 -1.26563,50 C-1.26563,49.6771 -1.13542,49.3854 -0.875,49.125 C2.44792,47.1667 6.51563,44.6615 11.3281,41.6094 C14.4531,39.5885 18.099,36.7865 22.2656,33.2031 C26.3073,29.8177 29.4323,26.6302 31.6406,23.6406 C33.9219,20.7031 36.0052,17.0573 37.8906,12.7031 C39.5156,8.33854 40.3281,4.03646 40.3281,-0.203125 C40.3281,-6.51563 38.7656,-12.0156 35.6406,-16.7031 C32.5156,-21.3906 28.3854,-23.7344 23.25,-23.7344 C19.6042,-23.7344 16.4792,-22.5625 13.875,-20.2188 C11.0729,-17.8125 9.05208,-14.7865 7.8125,-11.1406 C9.05208,-11.6615 10.1927,-11.9219 11.2344,-11.9219 C13.9635,-11.9219 16.3073,-10.9427 18.2656,-8.98438 C20.2135,-6.90104 21.1875,-4.52604 21.1875,-1.85938 C21.1875,0.942708 20.2448,3.45313 18.3594,5.67188 C16.3385,7.68229 13.9635,8.6875 11.2344,8.6875 C8.30729,8.6875 5.67188,7.68229 3.32813,5.67188 C1.10938,3.45313 0,0.942708 0,-1.85938 C0,-8.56771 2.28125,-14.2969 6.84375,-19.0469 C11.3333,-23.8594 16.8021,-26.2656 23.25,-26.2656"/>
<path class="Clef" transform="matrix(0.566929,0,0,0.566929,28.5015,210.614)" d="M36.3281,-7.32813 C33.3385,-7.32813 31.8438,-4.88542 31.8438,0 C31.8438,4.88542 33.3385,7.32813 36.3281,7.32813 C37.3073,7.32813 38.7396,6.80729 40.625,5.76563 C42.4479,4.72396 43.9479,4.20313 45.125,4.20313 C51.3021,4.20313 56.6719,6.1875 61.2344,10.1563 C65.724,14.2604 67.9688,19.2083 67.9688,25 C67.9688,41.6667 59.1458,50 41.5,50 C37.2708,50 33.6615,48.6354 30.6719,45.9063 C27.7344,43.1667 26.2656,39.8125 26.2656,35.8438 C26.2656,33.6979 27.0156,31.875 28.5156,30.375 C30.0156,28.875 31.8073,28.125 33.8906,28.125 C35.974,28.125 37.763,28.875 39.2578,30.375 C40.7526,31.875 41.5,33.6979 41.5,35.8438 C41.5,37.1458 40.6875,38.4167 39.0625,39.6563 C37.4375,40.8229 36.625,42.0573 36.625,43.3594 C36.625,44.5365 37.1146,45.4479 38.0938,46.0938 C39,46.8125 40.1354,47.1719 41.5,47.1719 C46.9063,47.1719 50.5859,45.3151 52.5391,41.6016 C54.4922,37.888 55.4688,32.3542 55.4688,25 C55.4688,19.3333 54.8854,15.0365 53.7188,12.1094 C52.4792,8.72396 49.6146,7.03125 45.125,7.03125 C41.7396,7.03125 38.875,8.49479 36.5313,11.4219 C34.3125,14.4219 33.2031,17.9063 33.2031,21.875 C33.2031,22.8542 32.7474,23.3438 31.8359,23.3438 C30.9245,23.3438 30.4688,22.8542 30.4688,21.875 C30.4688,14.125 27.6719,7.45313 22.0781,1.85938 L22.0781,49.0313 C22.0781,49.6771 21.75,50 21.0938,50 L19.0469,50 C18.3281,50 17.9688,49.6771 17.9688,49.0313 L17.9688,-49.0313 C17.9688,-49.6771 18.3281,-50 19.0469,-50 L21.0938,-50 C21.75,-50 22.0781,-49.6771 22.0781,-49.0313 L22.0781,-1.85938 C27.6719,-7.45313 30.4688,-14.125 30.4688,-21.875 C30.4688,-22.8542 30.9245,-23.3438 31.8359,-23.3438 C32.7474,-23.3438 33.2031,-22.8542 33.2031,-21.875 C33.2031,-17.9063 34.3125,-14.4219 36.5313,-11.4219 C38.875,-8.49479 41.7396,-7.03125 45.125,-7.03125 C49.6146,-7.03125 52.4792,-8.72396 53.7188,-12.1094 C54.8854,-15.0365 55.4688,-19.3333 55.4688,-25 C55.4688,-32.3542 54.4922,-37.888 52.5391,-41.6016 C50.5859,-45.3151 46.9063,-47.1719 41.5,-47.1719 C40.1354,-47.1719 39,-46.8125 38.0938,-46.0938 C37.1146,-45.5104 36.625,-44.599 36.625,-43.3594 C36.625,-42.0573 37.4375,-40.8229 39.0625,-39.6563 C40.6875,-38.4167 41.5,-37.1458 41.5,-35.8438 C41.5,-33.6979 40.7526,-31.875 39.2578,-30.375 C37.763,-28.875 35.974,-28.125 33.8906,-28.125 C31.8073,-28.125 30.0156,-28.875 28.5156,-30.375 C27.0156,-31.875 26.2656,-33.6979 26.2656,-35.8438 C26.2656,-39.8125 27.7344,-43.1667 30.6719,-45.9063 C33.6615,-48.6354 37.2708,-50 41.5,-50 C59.1458,-50 67.9688,-41.6667 67.9688,-25 C67.9688,-19.2083 65.724,-14.2604 61.2344,-10.1563 C56.6719,-6.1875 51.3021,-4.20313 45.125,-4.20313 C44.0104,-4.20313 42.5104,-4.72396 40.625,-5.76563 C38.7396,-6.80729 37.3073,-7.32813 36.3281,-7.32813 M12.8906,50 L0.984375,50 C0.328125,50 0,49.6771 0,49.0313 L0,-49.0313 C0,-49.6771 0.328125,-50 0.984375,-50 L12.8906,-50 C13.5469,-50 13.875,-49.6771 13.875,-49.0313 L13.875,49.0313 C13.875,49.6771 13.5469,50 12.8906,50"/>
<path class="Clef" transform="matrix(0.566929,0,0,0.566929,28.5015,90.1417)" d="M36.7188,-25.5938 C36.7188,-25.5938 36.9167,-25.5938 37.3125,-25.5938 C37.5729,-25.6563 37.7969,-25.6875 37.9844,-25.6875 C45.276,-25.6875 51.2656,-23.1146 55.9531,-17.9688 C60.6406,-12.8958 62.9844,-6.97396 62.9844,-0.203125 C62.9844,8.20313 59.5052,15.0417 52.5469,20.3125 C50.724,21.75 48.3438,22.9219 45.4063,23.8281 C45.7396,28.0573 45.9063,31.474 45.9063,34.0781 C45.9063,34.599 45.8385,36.4896 45.7031,39.75 C45.4427,45.8021 43.3594,51.0417 39.4531,55.4688 C35.6823,59.8333 30.9948,62.0156 25.3906,62.0156 C20.1198,62.0156 15.6302,60.1615 11.9219,56.4531 C8.20313,52.6719 6.34375,48.1146 6.34375,42.7813 C6.34375,39.9792 7.42188,37.599 9.57813,35.6406 C11.7865,33.6927 14.3542,32.7188 17.2813,32.7188 C19.8854,32.7188 22.0677,33.7292 23.8281,35.75 C25.651,37.6354 26.5625,39.9792 26.5625,42.7813 C26.5625,45.3125 25.651,47.4896 23.8281,49.3125 C22.0052,51.1354 19.8229,52.0469 17.2813,52.0469 C16.2396,52.0469 15.2344,51.8542 14.2656,51.4688 C17.1302,55.6979 20.9375,57.8125 25.6875,57.8125 C30.1771,57.8125 33.8542,55.9896 36.7188,52.3438 C39.7188,48.5729 41.349,44.1771 41.6094,39.1563 C41.7344,36.0313 41.7969,34.2448 41.7969,33.7969 C41.7969,30.151 41.6667,27.1563 41.4063,24.8125 C38.1563,25.3333 35.2604,25.5938 32.7188,25.5938 C23.6667,25.5938 15.9531,22.0104 9.57813,14.8438 C3.32813,7.61458 0.203125,-0.979167 0.203125,-10.9375 C0.203125,-13.0208 0.395833,-15.1354 0.78125,-17.2813 C1.17708,-19.0417 1.66667,-20.9635 2.25,-23.0469 C2.57292,-24.224 3.45313,-26.1146 4.89063,-28.7188 C5.41146,-29.5 5.9974,-30.4766 6.64844,-31.6484 C7.29948,-32.8203 7.75521,-33.599 8.01563,-33.9844 C8.66146,-35.2865 9.92708,-37.0469 11.8125,-39.2656 C12.3333,-39.849 12.8724,-40.4974 13.4297,-41.2109 C13.987,-41.9245 14.4609,-42.5104 14.8516,-42.9688 C15.2422,-43.4271 15.5339,-43.7865 15.7266,-44.0469 C15.9193,-44.3073 17.3854,-46.0313 20.125,-49.2188 C20.7708,-49.875 21.4036,-50.5755 22.0234,-51.3203 C22.6432,-52.0651 23.1484,-52.651 23.5391,-53.0781 C23.9297,-53.5052 24.224,-53.8125 24.4219,-54 C22.0781,-61.75 20.6094,-67.9375 20.0156,-72.5625 C19.5677,-76.2708 19.3438,-81.349 19.3438,-87.7969 C19.3438,-93.4635 20.6458,-98.7708 23.25,-103.719 C25.7813,-108.854 29.3281,-113.052 33.8906,-116.313 C34.151,-116.51 34.474,-116.609 34.8594,-116.609 C35.3177,-116.609 35.6458,-116.51 35.8438,-116.313 C39.3542,-112.083 42.3802,-106.583 44.9219,-99.8125 C47.526,-93.0417 48.8281,-86.8854 48.8281,-81.3438 C48.8281,-75.0938 47.3333,-69.2344 44.3438,-63.7656 C40.9583,-57.974 36.5938,-51.9844 31.25,-45.7969 C32.6146,-41.5052 34.4375,-34.7708 36.7188,-25.5938 M45.0156,19.8281 C48.401,18.5885 51.0417,16.474 52.9375,13.4844 C55.0208,10.6198 56.0625,7.39583 56.0625,3.8125 C56.0625,-0.8125 54.5,-4.91667 51.375,-8.5 C48.1771,-12.2083 44.1042,-14.2917 39.1563,-14.75 C41.9583,-1.01042 43.9115,10.5156 45.0156,19.8281 M7.23438,-2.73438 C7.23438,3.71354 9.83854,9.38021 15.0469,14.2656 C20.3802,19.0156 26.3698,21.3906 33.0156,21.3906 C35.7448,21.3906 38.4115,21.1927 41.0156,20.7969 C39.974,10.901 37.9219,-0.947917 34.8594,-14.75 C31.151,-14.3542 28.1927,-13.0521 25.9844,-10.8438 C23.8281,-8.5625 22.75,-5.98958 22.75,-3.125 C22.75,1.82292 25.3906,5.82813 30.6719,8.89063 C31.1198,9.34896 31.3438,9.83854 31.3438,10.3594 C31.3438,10.8802 31.1198,11.3646 30.6719,11.8125 C30.276,12.2708 29.7865,12.5 29.2031,12.5 C29.1406,12.5 28.849,12.4375 28.3281,12.3125 C24.6094,10.2917 21.7448,7.6875 19.7344,4.5 C17.8385,1.10417 16.8906,-2.31771 16.8906,-5.76563 C16.8906,-10.2552 18.2917,-14.3229 21.0938,-17.9688 C24.0208,-21.6146 27.8281,-23.9583 32.5156,-25 C30.6927,-32.2917 29.1979,-37.9896 28.0313,-42.0938 C26.9896,-40.9167 25.737,-39.5 24.2734,-37.8438 C22.8099,-36.1875 21.9479,-35.1927 21.6875,-34.8594 C19.3438,-31.8073 17.5521,-29.4323 16.3125,-27.7344 C14.0938,-24.6719 12.4635,-22.0365 11.4219,-19.8281 C10.3177,-17.349 9.34375,-14.6458 8.5,-11.7188 C7.65625,-8.91667 7.23438,-5.92188 7.23438,-2.73438 M39.8438,-102.047 C34.9583,-99.6406 31.1198,-96.1927 28.3281,-91.7031 C25.4635,-87.0781 24.0313,-82.099 24.0313,-76.7656 C24.0313,-72.0781 25.2031,-65.7604 27.5469,-57.8125 C32.2344,-63.4792 35.75,-68.7188 38.0938,-73.5313 C40.5625,-78.6146 41.7969,-83.9219 41.7969,-89.4531 C41.7969,-93.6198 41.1458,-97.8177 39.8438,-102.047"/>
</svg>
