<?xml version="1.0" encoding="UTF-8" standalone="no"?>
<svg width="637.794px" height="765.353px" viewBox="0 0 637.794 765.353"
 xmlns="http://www.w3.org/2000/svg" xmlns:xlink="http://www.w3.org/1999/xlink" version="1.2" baseProfile="tiny">
<title>harmonicmajor (120)</title>
<desc>Generated by MuseScore 3.4.2</desc>
<polyline class="StaffLines" fill="none" stroke="#000000" stroke-width="1.13" stroke-linejoin="bevel" points="14.1732,54.7087 623.621,54.7087"/>
<polyline class="StaffLines" fill="none" stroke="#000000" stroke-width="1.13" stroke-linejoin="bevel" points="14.1732,68.8819 623.621,68.8819"/>
<polyline class="StaffLines" fill="none" stroke="#000000" stroke-width="1.13" stroke-linejoin="bevel" points="14.1732,83.0551 623.621,83.0551"/>
<polyline class="StaffLines" fill="none" stroke="#000000" stroke-width="1.13" stroke-linejoin="bevel" points="14.1732,97.2284 623.621,97.2284"/>
<polyline class="StaffLines" fill="none" stroke="#000000" stroke-width="1.13" stroke-linejoin="bevel" points="14.1732,111.402 623.621,111.402"/>
<polyline class="StaffLines" fill="none" stroke="#000000" stroke-width="1.13" stroke-linejoin="bevel" points="14.1732,189.354 623.621,189.354"/>
<polyline class="StaffLines" fill="none" stroke="#000000" stroke-width="1.13" stroke-linejoin="bevel" points="14.1732,203.528 623.621,203.528"/>
<polyline class="StaffLines" fill="none" stroke="#000000" stroke-width="1.13" stroke-linejoin="bevel" points="14.1732,217.701 623.621,217.701"/>
<polyline class="StaffLines" fill="none" stroke="#000000" stroke-width="1.13" stroke-linejoin="bevel" points="14.1732,231.874 623.621,231.874"/>
<polyline class="StaffLines" fill="none" stroke="#000000" stroke-width="1.13" stroke-linejoin="bevel" points="14.1732,246.047 623.621,246.047"/>
<polyline class="StaffLines" fill="none" stroke="#000000" stroke-width="1.13" stroke-linejoin="bevel" points="14.1732,324 623.621,324"/>
<polyline class="StaffLines" fill="none" stroke="#000000" stroke-width="1.13" stroke-linejoin="bevel" points="14.1732,338.173 623.621,338.173"/>
<polyline class="StaffLines" fill="none" stroke="#000000" stroke-width="1.13" stroke-linejoin="bevel" points="14.1732,352.346 623.621,352.346"/>
<polyline class="StaffLines" fill="none" stroke="#000000" stroke-width="1.13" stroke-linejoin="bevel" points="14.1732,366.52 623.621,366.52"/>
<polyline class="StaffLines" fill="none" stroke="#000000" stroke-width="1.13" stroke-linejoin="bevel" points="14.1732,380.693 623.621,380.693"/>
<polyline class="StaffLines" fill="none" stroke="#000000" stroke-width="1.13" stroke-linejoin="bevel" points="14.1732,458.646 623.621,458.646"/>
<polyline class="StaffLines" fill="none" stroke="#000000" stroke-width="1.13" stroke-linejoin="bevel" points="14.1732,483.449 623.621,483.449"/>
<polyline class="StaffLines" fill="none" stroke="#000000" stroke-width="1.13" stroke-linejoin="bevel" points="14.1732,508.252 623.621,508.252"/>
<polyline class="StaffLines" fill="none" stroke="#000000" stroke-width="1.13" stroke-linejoin="bevel" points="14.1732,533.055 623.621,533.055"/>
<polyline class="StaffLines" fill="none" stroke="#000000" stroke-width="1.13" stroke-linejoin="bevel" points="14.1732,611.008 623.621,611.008"/>
<polyline class="StaffLines" fill="none" stroke="#000000" stroke-width="1.13" stroke-linejoin="bevel" points="14.1732,635.811 623.621,635.811"/>
<polyline class="StaffLines" fill="none" stroke="#000000" stroke-width="1.13" stroke-linejoin="bevel" points="14.1732,660.614 623.621,660.614"/>
<polyline class="StaffLines" fill="none" stroke="#000000" stroke-width="1.13" stroke-linejoin="bevel" points="14.1732,685.417 623.621,685.417"/>
<polyline class="StaffLines" fill="none" stroke="#000000" stroke-width="1.13" stroke-linejoin="bevel" points="14.1732,710.22 623.621,710.22"/>
<polyline class="StaffLines" fill="none" stroke="#000000" stroke-width="1.13" stroke-linejoin="bevel" points="14.1732,735.024 623.621,735.024"/>
<path class="Accidental" transform="matrix(0.566929,0,0,0.566929,476.236,324)" d="M4.59375,-4.10938 L4.59375,3.60938 C4.59375,6.34896 4.72396,8.53125 4.98438,10.1563 C7.13021,8.33333 8.66146,6.96875 9.57813,6.0625 C10.6198,5.02083 11.6615,3.58594 12.7031,1.75781 C13.7448,-0.0703125 14.2656,-1.89583 14.2656,-3.71875 C14.2656,-5.54167 13.875,-7.10417 13.0938,-8.40625 C12.3125,-9.70833 11.2708,-10.3594 9.96875,-10.3594 C8.40625,-10.3594 7.10417,-9.77083 6.0625,-8.59375 C5.08333,-7.29167 4.59375,-5.79688 4.59375,-4.10938 M0.484375,13.7656 L-0.78125,-45.7031 C0.135417,-46.224 1.04948,-46.4844 1.96094,-46.4844 C2.8724,-46.4844 3.78125,-46.224 4.6875,-45.7031 L3.90625,-11.2344 C6.57292,-13.5156 9.63542,-14.6563 13.0938,-14.6563 C15.625,-14.6563 17.737,-13.6146 19.4297,-11.5313 C21.1224,-9.44792 21.9688,-7.06771 21.9688,-4.39063 C21.9688,-2.70313 21.4167,-0.911458 20.3125,0.984375 C19.2708,2.73438 18.1667,4.09896 17,5.07813 C16.3438,5.59896 14.6823,6.90104 12.0156,8.98438 C11.2344,9.56771 10.3073,10.25 9.23438,11.0313 C8.16146,11.8125 7.49479,12.3021 7.23438,12.5 C6.77604,12.7604 6.34896,13.2813 5.95313,14.0625 C5.50521,14.7188 4.98438,15.2708 4.39063,15.7188 C3.94271,16.1146 3.39323,16.3125 2.74219,16.3125 C2.09115,16.3125 1.56771,16.0833 1.17188,15.625 C0.713542,15.1667 0.484375,14.5469 0.484375,13.7656"/>
<path class="Accidental" transform="matrix(0.566929,0,0,0.566929,476.236,182.268)" d="M4.59375,-4.10938 L4.59375,3.60938 C4.59375,6.34896 4.72396,8.53125 4.98438,10.1563 C7.13021,8.33333 8.66146,6.96875 9.57813,6.0625 C10.6198,5.02083 11.6615,3.58594 12.7031,1.75781 C13.7448,-0.0703125 14.2656,-1.89583 14.2656,-3.71875 C14.2656,-5.54167 13.875,-7.10417 13.0938,-8.40625 C12.3125,-9.70833 11.2708,-10.3594 9.96875,-10.3594 C8.40625,-10.3594 7.10417,-9.77083 6.0625,-8.59375 C5.08333,-7.29167 4.59375,-5.79688 4.59375,-4.10938 M0.484375,13.7656 L-0.78125,-45.7031 C0.135417,-46.224 1.04948,-46.4844 1.96094,-46.4844 C2.8724,-46.4844 3.78125,-46.224 4.6875,-45.7031 L3.90625,-11.2344 C6.57292,-13.5156 9.63542,-14.6563 13.0938,-14.6563 C15.625,-14.6563 17.737,-13.6146 19.4297,-11.5313 C21.1224,-9.44792 21.9688,-7.06771 21.9688,-4.39063 C21.9688,-2.70313 21.4167,-0.911458 20.3125,0.984375 C19.2708,2.73438 18.1667,4.09896 17,5.07813 C16.3438,5.59896 14.6823,6.90104 12.0156,8.98438 C11.2344,9.56771 10.3073,10.25 9.23438,11.0313 C8.16146,11.8125 7.49479,12.3021 7.23438,12.5 C6.77604,12.7604 6.34896,13.2813 5.95313,14.0625 C5.50521,14.7188 4.98438,15.2708 4.39063,15.7188 C3.94271,16.1146 3.39323,16.3125 2.74219,16.3125 C2.09115,16.3125 1.56771,16.0833 1.17188,15.625 C0.713542,15.1667 0.484375,14.5469 0.484375,13.7656"/>
<path class="Accidental" transform="matrix(0.566929,0,0,0.566929,473.402,40.5354)" d="M4.59375,-4.10938 L4.59375,3.60938 C4.59375,6.34896 4.72396,8.53125 4.98438,10.1563 C7.13021,8.33333 8.66146,6.96875 9.57813,6.0625 C10.6198,5.02083 11.6615,3.58594 12.7031,1.75781 C13.7448,-0.0703125 14.2656,-1.89583 14.2656,-3.71875 C14.2656,-5.54167 13.875,-7.10417 13.0938,-8.40625 C12.3125,-9.70833 11.2708,-10.3594 9.96875,-10.3594 C8.40625,-10.3594 7.10417,-9.77083 6.0625,-8.59375 C5.08333,-7.29167 4.59375,-5.79688 4.59375,-4.10938 M0.484375,13.7656 L-0.78125,-45.7031 C0.135417,-46.224 1.04948,-46.4844 1.96094,-46.4844 C2.8724,-46.4844 3.78125,-46.224 4.6875,-45.7031 L3.90625,-11.2344 C6.57292,-13.5156 9.63542,-14.6563 13.0938,-14.6563 C15.625,-14.6563 17.737,-13.6146 19.4297,-11.5313 C21.1224,-9.44792 21.9688,-7.06771 21.9688,-4.39063 C21.9688,-2.70313 21.4167,-0.911458 20.3125,0.984375 C19.2708,2.73438 18.1667,4.09896 17,5.07813 C16.3438,5.59896 14.6823,6.90104 12.0156,8.98438 C11.2344,9.56771 10.3073,10.25 9.23438,11.0313 C8.16146,11.8125 7.49479,12.3021 7.23438,12.5 C6.77604,12.7604 6.34896,13.2813 5.95313,14.0625 C5.50521,14.7188 4.98438,15.2708 4.39063,15.7188 C3.94271,16.1146 3.39323,16.3125 2.74219,16.3125 C2.09115,16.3125 1.56771,16.0833 1.17188,15.625 C0.713542,15.1667 0.484375,14.5469 0.484375,13.7656"/>
<polyline class="LedgerLine" fill="none" stroke="#000000" stroke-width="2.27" stroke-linecap="square" stroke-linejoin="bevel" points="552.387,175.181 579.551,175.181"/>
<polyline class="LedgerLine" fill="none" stroke="#000000" stroke-width="2.27" stroke-linecap="square" stroke-linejoin="bevel" points="487.672,40.5354 514.836,40.5354"/>
<polyline class="LedgerLine" fill="none" stroke="#000000" stroke-width="2.27" stroke-linecap="square" stroke-linejoin="bevel" points="552.387,40.5354 579.551,40.5354"/>
<path class="Note" fill="#ffffff" fill-opacity="0.0" fill-rule="evenodd" d="M104.913,697.819 L123.622,697.819 L123.622,722.622 L104.913,722.622 L104.913,697.819 "/>
<path class="Note" d="M107.736,708.002 C107.861,703.408 110.044,701.111 114.283,701.111 C116.169,701.111 117.7,701.653 118.877,702.736 C120.054,703.819 120.643,705.22 120.643,706.939 C120.643,709.408 119.242,711.408 116.44,712.939 L113.643,714.439 C112.424,715.095 111.554,715.731 111.033,716.345 C110.513,716.96 110.184,717.689 110.049,718.533 L120.502,718.533 L120.502,720.97 L107.283,720.97 C107.398,718.783 107.838,717.098 108.604,715.916 C109.369,714.734 110.789,713.554 112.861,712.377 L115.424,710.924 C117.216,709.892 118.111,708.585 118.111,707.002 C118.111,705.939 117.739,705.051 116.994,704.338 C116.249,703.624 115.32,703.267 114.205,703.267 C111.716,703.267 110.377,704.845 110.19,708.002 L107.736,708.002 "/>
<path class="Note" fill="#ffffff" fill-opacity="0.0" fill-rule="evenodd" d="M104.913,623.409 L123.622,623.409 L123.622,648.213 L104.913,648.213 L104.913,623.409 "/>
<path class="Note" d="M107.533,636.952 C107.533,635.295 107.674,633.832 107.955,632.561 C108.236,631.29 108.591,630.295 109.018,629.577 C109.445,628.858 109.958,628.275 110.557,627.827 C111.156,627.379 111.731,627.079 112.283,626.928 C112.835,626.777 113.419,626.702 114.033,626.702 C118.367,626.702 120.533,630.176 120.533,637.124 C120.533,640.394 119.976,642.892 118.861,644.616 C117.747,646.34 116.138,647.202 114.033,647.202 C111.908,647.202 110.294,646.329 109.19,644.584 C108.085,642.84 107.533,640.295 107.533,636.952 M118.002,636.905 C118.002,631.561 116.677,628.889 114.026,628.889 C111.374,628.889 110.049,631.587 110.049,636.983 C110.049,642.431 111.356,645.155 113.971,645.155 C115.356,645.155 116.374,644.483 117.026,643.139 C117.677,641.795 118.002,639.717 118.002,636.905"/>
<path class="Note" fill="#ffffff" fill-opacity="0.0" fill-rule="evenodd" d="M169.627,697.819 L188.336,697.819 L188.336,722.622 L169.627,722.622 L169.627,697.819 "/>
<path class="Note" d="M178.607,703.267 C177.191,703.267 176.217,703.655 175.685,704.431 C175.154,705.207 174.868,706.241 174.826,707.533 L172.357,707.533 C172.451,703.252 174.524,701.111 178.576,701.111 C180.461,701.111 181.941,701.598 183.013,702.572 C184.086,703.546 184.623,704.882 184.623,706.58 C184.623,708.59 183.701,709.96 181.857,710.689 C183.045,711.106 183.901,711.681 184.428,712.416 C184.954,713.15 185.217,714.153 185.217,715.424 C185.217,717.309 184.605,718.812 183.381,719.931 C182.157,721.051 180.529,721.611 178.498,721.611 C174.425,721.611 172.237,719.476 171.935,715.205 L174.404,715.205 C174.498,716.642 174.881,717.705 175.553,718.392 C176.224,719.08 177.232,719.424 178.576,719.424 C179.868,719.424 180.875,719.075 181.599,718.377 C182.323,717.679 182.685,716.705 182.685,715.455 C182.685,713.049 181.316,711.845 178.576,711.845 L177.545,711.877 L177.232,711.877 L177.232,709.767 C179.003,709.736 180.258,709.515 180.998,709.103 C181.737,708.692 182.107,707.877 182.107,706.658 C182.107,705.616 181.795,704.791 181.17,704.181 C180.545,703.572 179.691,703.267 178.607,703.267"/>
<path class="Note" fill="#ffffff" fill-opacity="0.0" fill-rule="evenodd" d="M169.627,623.409 L188.336,623.409 L188.336,648.213 L169.627,648.213 L169.627,623.409 "/>
<path class="Note" d="M178.295,632.42 L173.904,632.42 L173.904,630.655 C175.81,630.415 177.053,630.079 177.631,629.647 C178.209,629.215 178.711,628.233 179.138,626.702 L180.763,626.702 L180.763,646.561 L178.295,646.561 L178.295,632.42 "/>
<path class="Note" fill="#ffffff" fill-opacity="0.0" fill-rule="evenodd" d="M234.342,673.016 L253.051,673.016 L253.051,697.819 L234.342,697.819 L234.342,673.016 "/>
<path class="Note" d="M236.962,686.558 C236.962,684.902 237.103,683.438 237.384,682.167 C237.665,680.896 238.02,679.902 238.447,679.183 C238.874,678.464 239.387,677.881 239.986,677.433 C240.585,676.985 241.16,676.686 241.712,676.535 C242.264,676.383 242.848,676.308 243.462,676.308 C247.796,676.308 249.962,679.782 249.962,686.73 C249.962,690.001 249.405,692.498 248.29,694.222 C247.176,695.946 245.566,696.808 243.462,696.808 C241.337,696.808 239.723,695.936 238.619,694.191 C237.514,692.446 236.962,689.902 236.962,686.558 M247.431,686.511 C247.431,681.167 246.106,678.495 243.454,678.495 C240.803,678.495 239.478,681.193 239.478,686.589 C239.478,692.037 240.785,694.761 243.4,694.761 C244.785,694.761 245.803,694.089 246.454,692.745 C247.106,691.402 247.431,689.324 247.431,686.511"/>
<path class="Note" fill="#ffffff" fill-opacity="0.0" fill-rule="evenodd" d="M234.342,623.409 L253.051,623.409 L253.051,648.213 L234.342,648.213 L234.342,623.409 "/>
<path class="Note" d="M243.322,628.858 C241.905,628.858 240.931,629.246 240.4,630.022 C239.869,630.798 239.582,631.832 239.54,633.124 L237.072,633.124 C237.165,628.842 239.238,626.702 243.29,626.702 C245.176,626.702 246.655,627.189 247.728,628.163 C248.801,629.137 249.337,630.472 249.337,632.17 C249.337,634.181 248.415,635.551 246.572,636.28 C247.759,636.696 248.616,637.272 249.142,638.006 C249.668,638.741 249.931,639.743 249.931,641.014 C249.931,642.9 249.319,644.402 248.095,645.522 C246.871,646.642 245.244,647.202 243.212,647.202 C239.139,647.202 236.952,645.066 236.65,640.795 L239.119,640.795 C239.212,642.233 239.595,643.295 240.267,643.983 C240.939,644.67 241.947,645.014 243.29,645.014 C244.582,645.014 245.59,644.665 246.314,643.967 C247.038,643.269 247.4,642.295 247.4,641.045 C247.4,638.639 246.03,637.436 243.29,637.436 L242.259,637.467 L241.947,637.467 L241.947,635.358 C243.718,635.327 244.973,635.105 245.712,634.694 C246.452,634.282 246.822,633.467 246.822,632.249 C246.822,631.207 246.509,630.381 245.884,629.772 C245.259,629.163 244.405,628.858 243.322,628.858"/>
<path class="Note" fill="#ffffff" fill-opacity="0.0" fill-rule="evenodd" d="M299.056,673.016 L317.765,673.016 L317.765,697.819 L299.056,697.819 L299.056,673.016 "/>
<path class="Note" d="M301.88,683.199 C302.005,678.605 304.187,676.308 308.427,676.308 C310.312,676.308 311.843,676.85 313.021,677.933 C314.198,679.016 314.786,680.417 314.786,682.136 C314.786,684.605 313.385,686.605 310.583,688.136 L307.786,689.636 C306.567,690.292 305.698,690.928 305.177,691.542 C304.656,692.157 304.328,692.886 304.192,693.73 L314.646,693.73 L314.646,696.167 L301.427,696.167 C301.541,693.98 301.981,692.295 302.747,691.113 C303.513,689.93 304.932,688.751 307.005,687.574 L309.567,686.12 C311.359,685.089 312.255,683.782 312.255,682.199 C312.255,681.136 311.883,680.248 311.138,679.535 C310.393,678.821 309.463,678.464 308.349,678.464 C305.859,678.464 304.521,680.042 304.333,683.199 L301.88,683.199 "/>
<path class="Note" fill="#ffffff" fill-opacity="0.0" fill-rule="evenodd" d="M299.056,598.606 L317.765,598.606 L317.765,623.409 L299.056,623.409 L299.056,598.606 "/>
<path class="Note" d="M301.677,612.149 C301.677,610.492 301.817,609.029 302.099,607.758 C302.38,606.487 302.734,605.492 303.161,604.774 C303.588,604.055 304.101,603.471 304.7,603.024 C305.299,602.576 305.875,602.276 306.427,602.125 C306.979,601.974 307.562,601.899 308.177,601.899 C312.51,601.899 314.677,605.372 314.677,612.32 C314.677,615.591 314.119,618.089 313.005,619.813 C311.89,621.537 310.281,622.399 308.177,622.399 C306.052,622.399 304.437,621.526 303.333,619.781 C302.229,618.037 301.677,615.492 301.677,612.149 M312.146,612.102 C312.146,606.758 310.82,604.086 308.169,604.086 C305.518,604.086 304.192,606.784 304.192,612.18 C304.192,617.628 305.5,620.352 308.114,620.352 C309.5,620.352 310.518,619.68 311.169,618.336 C311.82,616.992 312.146,614.914 312.146,612.102"/>
<path class="Note" fill="#ffffff" fill-opacity="0.0" fill-rule="evenodd" d="M363.771,673.016 L382.479,673.016 L382.479,697.819 L363.771,697.819 L363.771,673.016 "/>
<path class="Note" d="M372.751,678.464 C371.334,678.464 370.36,678.852 369.829,679.628 C369.298,680.404 369.011,681.438 368.969,682.73 L366.501,682.73 C366.594,678.449 368.667,676.308 372.719,676.308 C374.605,676.308 376.084,676.795 377.157,677.769 C378.23,678.743 378.766,680.079 378.766,681.777 C378.766,683.787 377.844,685.157 376.001,685.886 C377.188,686.303 378.045,686.878 378.571,687.613 C379.097,688.347 379.36,689.35 379.36,690.62 C379.36,692.506 378.748,694.008 377.524,695.128 C376.3,696.248 374.673,696.808 372.641,696.808 C368.568,696.808 366.381,694.673 366.079,690.402 L368.548,690.402 C368.641,691.839 369.024,692.902 369.696,693.589 C370.368,694.277 371.376,694.62 372.719,694.62 C374.011,694.62 375.019,694.271 375.743,693.574 C376.467,692.876 376.829,691.902 376.829,690.652 C376.829,688.245 375.459,687.042 372.719,687.042 L371.688,687.074 L371.376,687.074 L371.376,684.964 C373.146,684.933 374.402,684.712 375.141,684.3 C375.881,683.889 376.251,683.074 376.251,681.855 C376.251,680.813 375.938,679.988 375.313,679.378 C374.688,678.769 373.834,678.464 372.751,678.464"/>
<path class="Note" fill="#ffffff" fill-opacity="0.0" fill-rule="evenodd" d="M363.771,598.606 L382.479,598.606 L382.479,623.409 L363.771,623.409 L363.771,598.606 "/>
<path class="Note" d="M372.438,607.617 L368.048,607.617 L368.048,605.852 C369.954,605.612 371.196,605.276 371.774,604.844 C372.352,604.412 372.855,603.43 373.282,601.899 L374.907,601.899 L374.907,621.758 L372.438,621.758 L372.438,607.617 "/>
<path class="Note" fill="#ffffff" fill-opacity="0.0" fill-rule="evenodd" d="M428.485,648.213 L447.194,648.213 L447.194,673.016 L428.485,673.016 L428.485,648.213 "/>
<path class="Note" d="M431.106,661.755 C431.106,660.099 431.246,658.635 431.528,657.364 C431.809,656.093 432.163,655.099 432.59,654.38 C433.017,653.661 433.53,653.078 434.129,652.63 C434.728,652.182 435.304,651.882 435.856,651.731 C436.408,651.58 436.991,651.505 437.606,651.505 C441.939,651.505 444.106,654.979 444.106,661.927 C444.106,665.198 443.548,667.695 442.434,669.419 C441.319,671.143 439.71,672.005 437.606,672.005 C435.481,672.005 433.866,671.132 432.762,669.388 C431.658,667.643 431.106,665.099 431.106,661.755 M441.574,661.708 C441.574,656.364 440.249,653.692 437.598,653.692 C434.947,653.692 433.621,656.39 433.621,661.786 C433.621,667.234 434.929,669.958 437.543,669.958 C438.929,669.958 439.947,669.286 440.598,667.942 C441.249,666.599 441.574,664.52 441.574,661.708"/>
<path class="Note" fill="#ffffff" fill-opacity="0.0" fill-rule="evenodd" d="M428.485,598.606 L447.194,598.606 L447.194,623.409 L428.485,623.409 L428.485,598.606 "/>
<path class="Note" d="M437.465,604.055 C436.048,604.055 435.074,604.443 434.543,605.219 C434.012,605.995 433.726,607.029 433.684,608.32 L431.215,608.32 C431.309,604.039 433.382,601.899 437.434,601.899 C439.319,601.899 440.798,602.385 441.871,603.359 C442.944,604.333 443.481,605.669 443.481,607.367 C443.481,609.378 442.559,610.747 440.715,611.477 C441.903,611.893 442.759,612.469 443.285,613.203 C443.811,613.938 444.074,614.94 444.074,616.211 C444.074,618.096 443.463,619.599 442.239,620.719 C441.015,621.839 439.387,622.399 437.356,622.399 C433.283,622.399 431.095,620.263 430.793,615.992 L433.262,615.992 C433.356,617.43 433.739,618.492 434.41,619.18 C435.082,619.867 436.09,620.211 437.434,620.211 C438.726,620.211 439.733,619.862 440.457,619.164 C441.181,618.466 441.543,617.492 441.543,616.242 C441.543,613.836 440.173,612.633 437.434,612.633 L436.403,612.664 L436.09,612.664 L436.09,610.555 C437.861,610.524 439.116,610.302 439.856,609.891 C440.595,609.479 440.965,608.664 440.965,607.445 C440.965,606.404 440.653,605.578 440.028,604.969 C439.403,604.359 438.548,604.055 437.465,604.055"/>
<path class="Note" fill="#ffffff" fill-opacity="0.0" fill-rule="evenodd" d="M493.2,648.213 L511.908,648.213 L511.908,673.016 L493.2,673.016 L493.2,648.213 "/>
<path class="Note" d="M501.867,657.224 L497.476,657.224 L497.476,655.458 C499.383,655.218 500.625,654.882 501.203,654.45 C501.781,654.018 502.284,653.036 502.711,651.505 L504.336,651.505 L504.336,671.364 L501.867,671.364 L501.867,657.224 "/>
<path class="Note" fill="#ffffff" fill-opacity="0.0" fill-rule="evenodd" d="M493.2,598.606 L511.908,598.606 L511.908,623.409 L493.2,623.409 L493.2,598.606 "/>
<path class="Note" d="M503.773,616.992 L495.398,616.992 L495.398,614.399 L504.414,601.899 L506.242,601.899 L506.242,614.789 L509.18,614.789 L509.18,616.992 L506.242,616.992 L506.242,621.758 L503.773,621.758 L503.773,616.992 M503.773,614.789 L503.773,606.102 L497.555,614.789 L503.773,614.789 "/>
<path class="Note" fill="#ffffff" fill-opacity="0.0" fill-rule="evenodd" d="M557.914,623.409 L576.623,623.409 L576.623,648.213 L557.914,648.213 L557.914,623.409 "/>
<path class="Note" d="M560.535,636.952 C560.535,635.295 560.675,633.832 560.957,632.561 C561.238,631.29 561.592,630.295 562.019,629.577 C562.446,628.858 562.959,628.275 563.558,627.827 C564.157,627.379 564.733,627.079 565.285,626.928 C565.837,626.777 566.42,626.702 567.035,626.702 C571.368,626.702 573.535,630.176 573.535,637.124 C573.535,640.394 572.977,642.892 571.863,644.616 C570.748,646.34 569.139,647.202 567.035,647.202 C564.91,647.202 563.295,646.329 562.191,644.584 C561.087,642.84 560.535,640.295 560.535,636.952 M571.003,636.905 C571.003,631.561 569.678,628.889 567.027,628.889 C564.376,628.889 563.05,631.587 563.05,636.983 C563.05,642.431 564.358,645.155 566.972,645.155 C568.358,645.155 569.376,644.483 570.027,643.139 C570.678,641.795 571.003,639.717 571.003,636.905"/>
<path class="Note" fill="#ffffff" fill-opacity="0.0" fill-rule="evenodd" d="M557.914,598.606 L576.623,598.606 L576.623,623.409 L557.914,623.409 L557.914,598.606 "/>
<path class="Note" d="M573.894,601.899 L573.894,603.977 C571.654,606.966 569.886,609.883 568.589,612.727 C567.292,615.57 566.373,618.581 565.832,621.758 L563.191,621.758 C563.941,618.487 564.894,615.612 566.05,613.133 C567.207,610.654 568.972,607.721 571.347,604.336 L560.613,604.336 L560.613,601.899 L573.894,601.899 "/>
<path class="Note" fill="#ffffff" fill-opacity="0.0" fill-rule="evenodd" d="M104.913,520.654 L123.622,520.654 L123.622,545.457 L104.913,545.457 L104.913,520.654 "/>
<path class="Note" d="M115.486,539.04 L107.111,539.04 L107.111,536.446 L116.127,523.946 L117.955,523.946 L117.955,536.836 L120.893,536.836 L120.893,539.04 L117.955,539.04 L117.955,543.805 L115.486,543.805 L115.486,539.04 M115.486,536.836 L115.486,528.149 L109.268,536.836 L115.486,536.836 "/>
<path class="Note" fill="#ffffff" fill-opacity="0.0" fill-rule="evenodd" d="M104.913,471.047 L123.622,471.047 L123.622,495.85 L104.913,495.85 L104.913,471.047 "/>
<path class="Note" d="M107.736,481.23 C107.861,476.636 110.044,474.339 114.283,474.339 C116.169,474.339 117.7,474.881 118.877,475.964 C120.054,477.048 120.643,478.449 120.643,480.168 C120.643,482.636 119.242,484.636 116.44,486.168 L113.643,487.668 C112.424,488.324 111.554,488.959 111.033,489.574 C110.513,490.188 110.184,490.918 110.049,491.761 L120.502,491.761 L120.502,494.199 L107.283,494.199 C107.398,492.011 107.838,490.326 108.604,489.144 C109.369,487.962 110.789,486.782 112.861,485.605 L115.424,484.152 C117.216,483.121 118.111,481.813 118.111,480.23 C118.111,479.168 117.739,478.28 116.994,477.566 C116.249,476.852 115.32,476.496 114.205,476.496 C111.716,476.496 110.377,478.074 110.19,481.23 L107.736,481.23 "/>
<path class="Note" fill="#ffffff" fill-opacity="0.0" fill-rule="evenodd" d="M169.627,520.654 L188.336,520.654 L188.336,545.457 L169.627,545.457 L169.627,520.654 "/>
<path class="Note" d="M184.373,523.946 L184.373,526.383 L176.107,526.383 L175.326,531.93 C176.43,531.128 177.654,530.727 178.998,530.727 C180.904,530.727 182.448,531.339 183.631,532.563 C184.813,533.787 185.404,535.378 185.404,537.336 C185.404,539.43 184.771,541.138 183.506,542.461 C182.24,543.784 180.607,544.446 178.607,544.446 C177.836,544.446 177.131,544.362 176.49,544.196 C175.849,544.029 175.318,543.829 174.896,543.594 C174.474,543.36 174.092,543.053 173.748,542.672 C173.404,542.292 173.144,541.956 172.967,541.665 C172.789,541.373 172.62,541.008 172.459,540.571 C172.297,540.133 172.198,539.831 172.162,539.665 C172.125,539.498 172.081,539.253 172.029,538.93 L174.482,538.93 C175.066,541.149 176.42,542.258 178.545,542.258 C179.888,542.258 180.948,541.849 181.724,541.032 C182.5,540.214 182.888,539.097 182.888,537.68 C182.888,536.201 182.495,535.037 181.709,534.188 C180.922,533.339 179.868,532.915 178.545,532.915 C177.784,532.915 177.133,533.05 176.592,533.321 C176.05,533.592 175.487,534.071 174.904,534.758 L172.638,534.758 L174.123,523.946 L184.373,523.946 "/>
<path class="Note" fill="#ffffff" fill-opacity="0.0" fill-rule="evenodd" d="M169.627,471.047 L188.336,471.047 L188.336,495.85 L169.627,495.85 L169.627,471.047 "/>
<path class="Note" d="M178.607,476.496 C177.191,476.496 176.217,476.884 175.685,477.66 C175.154,478.436 174.868,479.47 174.826,480.761 L172.357,480.761 C172.451,476.48 174.524,474.339 178.576,474.339 C180.461,474.339 181.941,474.826 183.013,475.8 C184.086,476.774 184.623,478.11 184.623,479.808 C184.623,481.819 183.701,483.188 181.857,483.918 C183.045,484.334 183.901,484.91 184.428,485.644 C184.954,486.379 185.217,487.381 185.217,488.652 C185.217,490.537 184.605,492.04 183.381,493.16 C182.157,494.28 180.529,494.839 178.498,494.839 C174.425,494.839 172.237,492.704 171.935,488.433 L174.404,488.433 C174.498,489.871 174.881,490.933 175.553,491.621 C176.224,492.308 177.232,492.652 178.576,492.652 C179.868,492.652 180.875,492.303 181.599,491.605 C182.323,490.907 182.685,489.933 182.685,488.683 C182.685,486.277 181.316,485.074 178.576,485.074 L177.545,485.105 L177.232,485.105 L177.232,482.996 C179.003,482.964 180.258,482.743 180.998,482.332 C181.737,481.92 182.107,481.105 182.107,479.886 C182.107,478.845 181.795,478.019 181.17,477.41 C180.545,476.8 179.691,476.496 178.607,476.496"/>
<path class="Note" fill="#ffffff" fill-opacity="0.0" fill-rule="evenodd" d="M234.342,495.85 L253.051,495.85 L253.051,520.654 L234.342,520.654 L234.342,495.85 "/>
<path class="Note" d="M236.962,509.393 C236.962,507.736 237.103,506.273 237.384,505.002 C237.665,503.731 238.02,502.736 238.447,502.018 C238.874,501.299 239.387,500.716 239.986,500.268 C240.585,499.82 241.16,499.52 241.712,499.369 C242.264,499.218 242.848,499.143 243.462,499.143 C247.796,499.143 249.962,502.617 249.962,509.564 C249.962,512.835 249.405,515.333 248.29,517.057 C247.176,518.781 245.566,519.643 243.462,519.643 C241.337,519.643 239.723,518.77 238.619,517.025 C237.514,515.281 236.962,512.736 236.962,509.393 M247.431,509.346 C247.431,504.002 246.106,501.33 243.454,501.33 C240.803,501.33 239.478,504.028 239.478,509.424 C239.478,514.872 240.785,517.596 243.4,517.596 C244.785,517.596 245.803,516.924 246.454,515.58 C247.106,514.236 247.431,512.158 247.431,509.346"/>
<path class="Note" fill="#ffffff" fill-opacity="0.0" fill-rule="evenodd" d="M234.342,471.047 L253.051,471.047 L253.051,495.85 L234.342,495.85 L234.342,471.047 "/>
<path class="Note" d="M249.087,474.339 L249.087,476.777 L240.822,476.777 L240.04,482.324 C241.145,481.522 242.369,481.121 243.712,481.121 C245.619,481.121 247.163,481.733 248.345,482.957 C249.527,484.181 250.119,485.772 250.119,487.73 C250.119,489.824 249.486,491.532 248.22,492.855 C246.954,494.178 245.322,494.839 243.322,494.839 C242.551,494.839 241.845,494.756 241.204,494.589 C240.564,494.423 240.033,494.222 239.611,493.988 C239.189,493.754 238.806,493.446 238.462,493.066 C238.119,492.686 237.858,492.35 237.681,492.058 C237.504,491.767 237.335,491.402 237.173,490.964 C237.012,490.527 236.913,490.225 236.876,490.058 C236.84,489.892 236.796,489.647 236.744,489.324 L239.197,489.324 C239.78,491.543 241.134,492.652 243.259,492.652 C244.603,492.652 245.663,492.243 246.439,491.425 C247.215,490.608 247.603,489.49 247.603,488.074 C247.603,486.595 247.21,485.431 246.423,484.582 C245.637,483.733 244.582,483.308 243.259,483.308 C242.499,483.308 241.848,483.444 241.306,483.714 C240.764,483.985 240.202,484.464 239.619,485.152 L237.353,485.152 L238.837,474.339 L249.087,474.339 "/>
<path class="Note" fill="#ffffff" fill-opacity="0.0" fill-rule="evenodd" d="M299.056,495.85 L317.765,495.85 L317.765,520.654 L299.056,520.654 L299.056,495.85 "/>
<path class="Note" d="M301.88,506.033 C302.005,501.439 304.187,499.143 308.427,499.143 C310.312,499.143 311.843,499.684 313.021,500.768 C314.198,501.851 314.786,503.252 314.786,504.971 C314.786,507.439 313.385,509.439 310.583,510.971 L307.786,512.471 C306.567,513.127 305.698,513.762 305.177,514.377 C304.656,514.992 304.328,515.721 304.192,516.564 L314.646,516.564 L314.646,519.002 L301.427,519.002 C301.541,516.814 301.981,515.13 302.747,513.947 C303.513,512.765 304.932,511.585 307.005,510.408 L309.567,508.955 C311.359,507.924 312.255,506.617 312.255,505.033 C312.255,503.971 311.883,503.083 311.138,502.369 C310.393,501.656 309.463,501.299 308.349,501.299 C305.859,501.299 304.521,502.877 304.333,506.033 L301.88,506.033 "/>
<path class="Note" fill="#ffffff" fill-opacity="0.0" fill-rule="evenodd" d="M299.056,446.244 L317.765,446.244 L317.765,471.047 L299.056,471.047 L299.056,446.244 "/>
<path class="Note" d="M301.677,459.786 C301.677,458.13 301.817,456.667 302.099,455.396 C302.38,454.125 302.734,453.13 303.161,452.411 C303.588,451.693 304.101,451.109 304.7,450.661 C305.299,450.213 305.875,449.914 306.427,449.763 C306.979,449.612 307.562,449.536 308.177,449.536 C312.51,449.536 314.677,453.01 314.677,459.958 C314.677,463.229 314.119,465.726 313.005,467.45 C311.89,469.174 310.281,470.036 308.177,470.036 C306.052,470.036 304.437,469.164 303.333,467.419 C302.229,465.674 301.677,463.13 301.677,459.786 M312.146,459.739 C312.146,454.396 310.82,451.724 308.169,451.724 C305.518,451.724 304.192,454.422 304.192,459.818 C304.192,465.265 305.5,467.989 308.114,467.989 C309.5,467.989 310.518,467.318 311.169,465.974 C311.82,464.63 312.146,462.552 312.146,459.739"/>
<path class="Note" fill="#ffffff" fill-opacity="0.0" fill-rule="evenodd" d="M363.771,495.85 L382.479,495.85 L382.479,520.654 L363.771,520.654 L363.771,495.85 "/>
<path class="Note" d="M372.751,501.299 C371.334,501.299 370.36,501.687 369.829,502.463 C369.298,503.239 369.011,504.273 368.969,505.564 L366.501,505.564 C366.594,501.283 368.667,499.143 372.719,499.143 C374.605,499.143 376.084,499.63 377.157,500.604 C378.23,501.577 378.766,502.913 378.766,504.611 C378.766,506.622 377.844,507.992 376.001,508.721 C377.188,509.137 378.045,509.713 378.571,510.447 C379.097,511.182 379.36,512.184 379.36,513.455 C379.36,515.341 378.748,516.843 377.524,517.963 C376.3,519.083 374.673,519.643 372.641,519.643 C368.568,519.643 366.381,517.507 366.079,513.236 L368.548,513.236 C368.641,514.674 369.024,515.736 369.696,516.424 C370.368,517.111 371.376,517.455 372.719,517.455 C374.011,517.455 375.019,517.106 375.743,516.408 C376.467,515.71 376.829,514.736 376.829,513.486 C376.829,511.08 375.459,509.877 372.719,509.877 L371.688,509.908 L371.376,509.908 L371.376,507.799 C373.146,507.768 374.402,507.546 375.141,507.135 C375.881,506.723 376.251,505.908 376.251,504.689 C376.251,503.648 375.938,502.822 375.313,502.213 C374.688,501.604 373.834,501.299 372.751,501.299"/>
<path class="Note" fill="#ffffff" fill-opacity="0.0" fill-rule="evenodd" d="M363.771,446.244 L382.479,446.244 L382.479,471.047 L363.771,471.047 L363.771,446.244 "/>
<path class="Note" d="M372.438,455.255 L368.048,455.255 L368.048,453.489 C369.954,453.25 371.196,452.914 371.774,452.482 C372.352,452.049 372.855,451.068 373.282,449.536 L374.907,449.536 L374.907,469.396 L372.438,469.396 L372.438,455.255 "/>
<path class="Note" fill="#ffffff" fill-opacity="0.0" fill-rule="evenodd" d="M428.485,495.85 L447.194,495.85 L447.194,520.654 L428.485,520.654 L428.485,495.85 "/>
<path class="Note" d="M443.231,499.143 L443.231,501.58 L434.965,501.58 L434.184,507.127 C435.288,506.325 436.512,505.924 437.856,505.924 C439.762,505.924 441.306,506.536 442.489,507.76 C443.671,508.984 444.262,510.575 444.262,512.533 C444.262,514.627 443.629,516.335 442.364,517.658 C441.098,518.981 439.465,519.643 437.465,519.643 C436.694,519.643 435.989,519.559 435.348,519.393 C434.707,519.226 434.176,519.025 433.754,518.791 C433.332,518.557 432.949,518.249 432.606,517.869 C432.262,517.489 432.002,517.153 431.824,516.861 C431.647,516.57 431.478,516.205 431.317,515.768 C431.155,515.33 431.056,515.028 431.02,514.861 C430.983,514.695 430.939,514.45 430.887,514.127 L433.34,514.127 C433.923,516.346 435.278,517.455 437.403,517.455 C438.746,517.455 439.806,517.046 440.582,516.229 C441.358,515.411 441.746,514.294 441.746,512.877 C441.746,511.398 441.353,510.234 440.567,509.385 C439.78,508.536 438.726,508.111 437.403,508.111 C436.642,508.111 435.991,508.247 435.449,508.518 C434.908,508.788 434.345,509.268 433.762,509.955 L431.496,509.955 L432.981,499.143 L443.231,499.143 "/>
<path class="Note" fill="#ffffff" fill-opacity="0.0" fill-rule="evenodd" d="M428.485,446.244 L447.194,446.244 L447.194,471.047 L428.485,471.047 L428.485,446.244 "/>
<path class="Note" d="M437.465,451.693 C436.048,451.693 435.074,452.081 434.543,452.857 C434.012,453.633 433.726,454.667 433.684,455.958 L431.215,455.958 C431.309,451.677 433.382,449.536 437.434,449.536 C439.319,449.536 440.798,450.023 441.871,450.997 C442.944,451.971 443.481,453.307 443.481,455.005 C443.481,457.015 442.559,458.385 440.715,459.114 C441.903,459.531 442.759,460.107 443.285,460.841 C443.811,461.575 444.074,462.578 444.074,463.849 C444.074,465.734 443.463,467.237 442.239,468.357 C441.015,469.476 439.387,470.036 437.356,470.036 C433.283,470.036 431.095,467.901 430.793,463.63 L433.262,463.63 C433.356,465.068 433.739,466.13 434.41,466.818 C435.082,467.505 436.09,467.849 437.434,467.849 C438.726,467.849 439.733,467.5 440.457,466.802 C441.181,466.104 441.543,465.13 441.543,463.88 C441.543,461.474 440.173,460.271 437.434,460.271 L436.403,460.302 L436.09,460.302 L436.09,458.193 C437.861,458.161 439.116,457.94 439.856,457.528 C440.595,457.117 440.965,456.302 440.965,455.083 C440.965,454.042 440.653,453.216 440.028,452.607 C439.403,451.997 438.548,451.693 437.465,451.693"/>
<path class="Note" fill="#ffffff" fill-opacity="0.0" fill-rule="evenodd" d="M493.2,495.85 L511.908,495.85 L511.908,520.654 L493.2,520.654 L493.2,495.85 "/>
<path class="Note" d="M495.82,509.955 C495.82,508.205 495.979,506.661 496.297,505.322 C496.614,503.984 497.01,502.934 497.484,502.174 C497.958,501.413 498.529,500.794 499.195,500.314 C499.862,499.835 500.489,499.52 501.078,499.369 C501.667,499.218 502.284,499.143 502.93,499.143 C504.44,499.143 505.695,499.601 506.695,500.518 C507.695,501.434 508.315,502.705 508.555,504.33 L506.101,504.33 C505.893,503.382 505.5,502.645 504.922,502.119 C504.344,501.593 503.622,501.33 502.758,501.33 C501.341,501.33 500.255,501.979 499.5,503.275 C498.745,504.572 498.357,506.434 498.336,508.861 C499.419,507.393 500.94,506.658 502.898,506.658 C504.68,506.658 506.138,507.247 507.273,508.424 C508.409,509.601 508.976,511.111 508.976,512.955 C508.976,514.893 508.367,516.492 507.148,517.752 C505.93,519.012 504.377,519.643 502.492,519.643 C498.044,519.643 495.82,516.413 495.82,509.955 M502.601,508.846 C501.383,508.846 500.391,509.231 499.625,510.002 C498.859,510.773 498.476,511.778 498.476,513.018 C498.476,514.278 498.859,515.333 499.625,516.182 C500.391,517.031 501.351,517.455 502.508,517.455 C503.654,517.455 504.599,517.051 505.344,516.244 C506.088,515.437 506.461,514.403 506.461,513.143 C506.461,511.82 506.114,510.773 505.422,510.002 C504.729,509.231 503.789,508.846 502.601,508.846"/>
<path class="Note" fill="#ffffff" fill-opacity="0.0" fill-rule="evenodd" d="M493.2,446.244 L511.908,446.244 L511.908,471.047 L493.2,471.047 L493.2,446.244 "/>
<path class="Note" d="M503.773,464.63 L495.398,464.63 L495.398,462.036 L504.414,449.536 L506.242,449.536 L506.242,462.427 L509.18,462.427 L509.18,464.63 L506.242,464.63 L506.242,469.396 L503.773,469.396 L503.773,464.63 M503.773,462.427 L503.773,453.739 L497.555,462.427 L503.773,462.427 "/>
<path class="Note" fill="#ffffff" fill-opacity="0.0" fill-rule="evenodd" d="M557.914,471.047 L576.623,471.047 L576.623,495.85 L557.914,495.85 L557.914,471.047 "/>
<path class="Note" d="M560.738,481.23 C560.863,476.636 563.045,474.339 567.285,474.339 C569.17,474.339 570.701,474.881 571.878,475.964 C573.056,477.048 573.644,478.449 573.644,480.168 C573.644,482.636 572.243,484.636 569.441,486.168 L566.644,487.668 C565.425,488.324 564.556,488.959 564.035,489.574 C563.514,490.188 563.186,490.918 563.05,491.761 L573.503,491.761 L573.503,494.199 L560.285,494.199 C560.399,492.011 560.839,490.326 561.605,489.144 C562.371,487.962 563.79,486.782 565.863,485.605 L568.425,484.152 C570.217,483.121 571.113,481.813 571.113,480.23 C571.113,479.168 570.74,478.28 569.996,477.566 C569.251,476.852 568.321,476.496 567.207,476.496 C564.717,476.496 563.378,478.074 563.191,481.23 L560.738,481.23 "/>
<path class="Note" fill="#ffffff" fill-opacity="0.0" fill-rule="evenodd" d="M557.914,446.244 L576.623,446.244 L576.623,471.047 L557.914,471.047 L557.914,446.244 "/>
<path class="Note" d="M573.894,449.536 L573.894,451.614 C571.654,454.604 569.886,457.521 568.589,460.364 C567.292,463.208 566.373,466.219 565.832,469.396 L563.191,469.396 C563.941,466.125 564.894,463.25 566.05,460.771 C567.207,458.292 568.972,455.359 571.347,451.974 L560.613,451.974 L560.613,449.536 L573.894,449.536 "/>
<path class="Note" transform="matrix(0.566929,0,0,0.566929,103.637,366.52)" d="M21.9688,-13.7656 C25.0938,-13.7656 27.7344,-12.9531 29.8906,-11.3281 C31.901,-9.56771 32.9063,-7.35417 32.9063,-4.6875 C32.9063,-0.197917 30.599,4 25.9844,7.90625 C21.2969,11.8125 16.2813,13.7656 10.9375,13.7656 C7.8125,13.7656 5.17708,12.9531 3.03125,11.3281 C1.01042,9.56771 0,7.35417 0,4.6875 C0,0.197917 2.34375,-4 7.03125,-7.90625 C11.5938,-11.8125 16.5729,-13.7656 21.9688,-13.7656"/>
<path class="Note" transform="matrix(0.566929,0,0,0.566929,168.352,359.433)" d="M21.9688,-13.7656 C25.0938,-13.7656 27.7344,-12.9531 29.8906,-11.3281 C31.901,-9.56771 32.9063,-7.35417 32.9063,-4.6875 C32.9063,-0.197917 30.599,4 25.9844,7.90625 C21.2969,11.8125 16.2813,13.7656 10.9375,13.7656 C7.8125,13.7656 5.17708,12.9531 3.03125,11.3281 C1.01042,9.56771 0,7.35417 0,4.6875 C0,0.197917 2.34375,-4 7.03125,-7.90625 C11.5938,-11.8125 16.5729,-13.7656 21.9688,-13.7656"/>
<path class="Note" transform="matrix(0.566929,0,0,0.566929,233.066,352.346)" d="M21.9688,-13.7656 C25.0938,-13.7656 27.7344,-12.9531 29.8906,-11.3281 C31.901,-9.56771 32.9063,-7.35417 32.9063,-4.6875 C32.9063,-0.197917 30.599,4 25.9844,7.90625 C21.2969,11.8125 16.2813,13.7656 10.9375,13.7656 C7.8125,13.7656 5.17708,12.9531 3.03125,11.3281 C1.01042,9.56771 0,7.35417 0,4.6875 C0,0.197917 2.34375,-4 7.03125,-7.90625 C11.5938,-11.8125 16.5729,-13.7656 21.9688,-13.7656"/>
<path class="Note" transform="matrix(0.566929,0,0,0.566929,297.781,345.26)" d="M21.9688,-13.7656 C25.0938,-13.7656 27.7344,-12.9531 29.8906,-11.3281 C31.901,-9.56771 32.9063,-7.35417 32.9063,-4.6875 C32.9063,-0.197917 30.599,4 25.9844,7.90625 C21.2969,11.8125 16.2813,13.7656 10.9375,13.7656 C7.8125,13.7656 5.17708,12.9531 3.03125,11.3281 C1.01042,9.56771 0,7.35417 0,4.6875 C0,0.197917 2.34375,-4 7.03125,-7.90625 C11.5938,-11.8125 16.5729,-13.7656 21.9688,-13.7656"/>
<path class="Note" transform="matrix(0.566929,0,0,0.566929,362.495,338.173)" d="M21.9688,-13.7656 C25.0938,-13.7656 27.7344,-12.9531 29.8906,-11.3281 C31.901,-9.56771 32.9063,-7.35417 32.9063,-4.6875 C32.9063,-0.197917 30.599,4 25.9844,7.90625 C21.2969,11.8125 16.2813,13.7656 10.9375,13.7656 C7.8125,13.7656 5.17708,12.9531 3.03125,11.3281 C1.01042,9.56771 0,7.35417 0,4.6875 C0,0.197917 2.34375,-4 7.03125,-7.90625 C11.5938,-11.8125 16.5729,-13.7656 21.9688,-13.7656"/>
<path class="Note" transform="matrix(0.566929,0,0,0.566929,427.21,331.087)" d="M21.9688,-13.7656 C25.0938,-13.7656 27.7344,-12.9531 29.8906,-11.3281 C31.901,-9.56771 32.9063,-7.35417 32.9063,-4.6875 C32.9063,-0.197917 30.599,4 25.9844,7.90625 C21.2969,11.8125 16.2813,13.7656 10.9375,13.7656 C7.8125,13.7656 5.17708,12.9531 3.03125,11.3281 C1.01042,9.56771 0,7.35417 0,4.6875 C0,0.197917 2.34375,-4 7.03125,-7.90625 C11.5938,-11.8125 16.5729,-13.7656 21.9688,-13.7656"/>
<path class="Note" transform="matrix(0.566929,0,0,0.566929,491.924,324)" d="M21.9688,-13.7656 C25.0938,-13.7656 27.7344,-12.9531 29.8906,-11.3281 C31.901,-9.56771 32.9063,-7.35417 32.9063,-4.6875 C32.9063,-0.197917 30.599,4 25.9844,7.90625 C21.2969,11.8125 16.2813,13.7656 10.9375,13.7656 C7.8125,13.7656 5.17708,12.9531 3.03125,11.3281 C1.01042,9.56771 0,7.35417 0,4.6875 C0,0.197917 2.34375,-4 7.03125,-7.90625 C11.5938,-11.8125 16.5729,-13.7656 21.9688,-13.7656"/>
<path class="Note" transform="matrix(0.566929,0,0,0.566929,556.639,316.913)" d="M21.9688,-13.7656 C25.0938,-13.7656 27.7344,-12.9531 29.8906,-11.3281 C31.901,-9.56771 32.9063,-7.35417 32.9063,-4.6875 C32.9063,-0.197917 30.599,4 25.9844,7.90625 C21.2969,11.8125 16.2813,13.7656 10.9375,13.7656 C7.8125,13.7656 5.17708,12.9531 3.03125,11.3281 C1.01042,9.56771 0,7.35417 0,4.6875 C0,0.197917 2.34375,-4 7.03125,-7.90625 C11.5938,-11.8125 16.5729,-13.7656 21.9688,-13.7656"/>
<path class="Note" transform="matrix(0.566929,0,0,0.566929,103.637,224.787)" d="M21.9688,-13.7656 C25.0938,-13.7656 27.7344,-12.9531 29.8906,-11.3281 C31.901,-9.56771 32.9063,-7.35417 32.9063,-4.6875 C32.9063,-0.197917 30.599,4 25.9844,7.90625 C21.2969,11.8125 16.2813,13.7656 10.9375,13.7656 C7.8125,13.7656 5.17708,12.9531 3.03125,11.3281 C1.01042,9.56771 0,7.35417 0,4.6875 C0,0.197917 2.34375,-4 7.03125,-7.90625 C11.5938,-11.8125 16.5729,-13.7656 21.9688,-13.7656"/>
<path class="Note" transform="matrix(0.566929,0,0,0.566929,168.352,217.701)" d="M21.9688,-13.7656 C25.0938,-13.7656 27.7344,-12.9531 29.8906,-11.3281 C31.901,-9.56771 32.9063,-7.35417 32.9063,-4.6875 C32.9063,-0.197917 30.599,4 25.9844,7.90625 C21.2969,11.8125 16.2813,13.7656 10.9375,13.7656 C7.8125,13.7656 5.17708,12.9531 3.03125,11.3281 C1.01042,9.56771 0,7.35417 0,4.6875 C0,0.197917 2.34375,-4 7.03125,-7.90625 C11.5938,-11.8125 16.5729,-13.7656 21.9688,-13.7656"/>
<path class="Note" transform="matrix(0.566929,0,0,0.566929,233.066,210.614)" d="M21.9688,-13.7656 C25.0938,-13.7656 27.7344,-12.9531 29.8906,-11.3281 C31.901,-9.56771 32.9063,-7.35417 32.9063,-4.6875 C32.9063,-0.197917 30.599,4 25.9844,7.90625 C21.2969,11.8125 16.2813,13.7656 10.9375,13.7656 C7.8125,13.7656 5.17708,12.9531 3.03125,11.3281 C1.01042,9.56771 0,7.35417 0,4.6875 C0,0.197917 2.34375,-4 7.03125,-7.90625 C11.5938,-11.8125 16.5729,-13.7656 21.9688,-13.7656"/>
<path class="Note" transform="matrix(0.566929,0,0,0.566929,297.781,203.528)" d="M21.9688,-13.7656 C25.0938,-13.7656 27.7344,-12.9531 29.8906,-11.3281 C31.901,-9.56771 32.9063,-7.35417 32.9063,-4.6875 C32.9063,-0.197917 30.599,4 25.9844,7.90625 C21.2969,11.8125 16.2813,13.7656 10.9375,13.7656 C7.8125,13.7656 5.17708,12.9531 3.03125,11.3281 C1.01042,9.56771 0,7.35417 0,4.6875 C0,0.197917 2.34375,-4 7.03125,-7.90625 C11.5938,-11.8125 16.5729,-13.7656 21.9688,-13.7656"/>
<path class="Note" transform="matrix(0.566929,0,0,0.566929,362.495,196.441)" d="M21.9688,-13.7656 C25.0938,-13.7656 27.7344,-12.9531 29.8906,-11.3281 C31.901,-9.56771 32.9063,-7.35417 32.9063,-4.6875 C32.9063,-0.197917 30.599,4 25.9844,7.90625 C21.2969,11.8125 16.2813,13.7656 10.9375,13.7656 C7.8125,13.7656 5.17708,12.9531 3.03125,11.3281 C1.01042,9.56771 0,7.35417 0,4.6875 C0,0.197917 2.34375,-4 7.03125,-7.90625 C11.5938,-11.8125 16.5729,-13.7656 21.9688,-13.7656"/>
<path class="Note" transform="matrix(0.566929,0,0,0.566929,427.21,189.354)" d="M21.9688,-13.7656 C25.0938,-13.7656 27.7344,-12.9531 29.8906,-11.3281 C31.901,-9.56771 32.9063,-7.35417 32.9063,-4.6875 C32.9063,-0.197917 30.599,4 25.9844,7.90625 C21.2969,11.8125 16.2813,13.7656 10.9375,13.7656 C7.8125,13.7656 5.17708,12.9531 3.03125,11.3281 C1.01042,9.56771 0,7.35417 0,4.6875 C0,0.197917 2.34375,-4 7.03125,-7.90625 C11.5938,-11.8125 16.5729,-13.7656 21.9688,-13.7656"/>
<path class="Note" transform="matrix(0.566929,0,0,0.566929,491.924,182.268)" d="M21.9688,-13.7656 C25.0938,-13.7656 27.7344,-12.9531 29.8906,-11.3281 C31.901,-9.56771 32.9063,-7.35417 32.9063,-4.6875 C32.9063,-0.197917 30.599,4 25.9844,7.90625 C21.2969,11.8125 16.2813,13.7656 10.9375,13.7656 C7.8125,13.7656 5.17708,12.9531 3.03125,11.3281 C1.01042,9.56771 0,7.35417 0,4.6875 C0,0.197917 2.34375,-4 7.03125,-7.90625 C11.5938,-11.8125 16.5729,-13.7656 21.9688,-13.7656"/>
<path class="Note" transform="matrix(0.566929,0,0,0.566929,556.639,175.181)" d="M21.9688,-13.7656 C25.0938,-13.7656 27.7344,-12.9531 29.8906,-11.3281 C31.901,-9.56771 32.9063,-7.35417 32.9063,-4.6875 C32.9063,-0.197917 30.599,4 25.9844,7.90625 C21.2969,11.8125 16.2813,13.7656 10.9375,13.7656 C7.8125,13.7656 5.17708,12.9531 3.03125,11.3281 C1.01042,9.56771 0,7.35417 0,4.6875 C0,0.197917 2.34375,-4 7.03125,-7.90625 C11.5938,-11.8125 16.5729,-13.7656 21.9688,-13.7656"/>
<path class="Note" transform="matrix(0.566929,0,0,0.566929,103.637,83.0551)" d="M21.9688,-13.7656 C25.0938,-13.7656 27.7344,-12.9531 29.8906,-11.3281 C31.901,-9.56771 32.9063,-7.35417 32.9063,-4.6875 C32.9063,-0.197917 30.599,4 25.9844,7.90625 C21.2969,11.8125 16.2813,13.7656 10.9375,13.7656 C7.8125,13.7656 5.17708,12.9531 3.03125,11.3281 C1.01042,9.56771 0,7.35417 0,4.6875 C0,0.197917 2.34375,-4 7.03125,-7.90625 C11.5938,-11.8125 16.5729,-13.7656 21.9688,-13.7656"/>
<path class="Note" transform="matrix(0.566929,0,0,0.566929,168.352,75.9685)" d="M21.9688,-13.7656 C25.0938,-13.7656 27.7344,-12.9531 29.8906,-11.3281 C31.901,-9.56771 32.9063,-7.35417 32.9063,-4.6875 C32.9063,-0.197917 30.599,4 25.9844,7.90625 C21.2969,11.8125 16.2813,13.7656 10.9375,13.7656 C7.8125,13.7656 5.17708,12.9531 3.03125,11.3281 C1.01042,9.56771 0,7.35417 0,4.6875 C0,0.197917 2.34375,-4 7.03125,-7.90625 C11.5938,-11.8125 16.5729,-13.7656 21.9688,-13.7656"/>
<path class="Note" transform="matrix(0.566929,0,0,0.566929,233.066,68.8819)" d="M21.9688,-13.7656 C25.0938,-13.7656 27.7344,-12.9531 29.8906,-11.3281 C31.901,-9.56771 32.9063,-7.35417 32.9063,-4.6875 C32.9063,-0.197917 30.599,4 25.9844,7.90625 C21.2969,11.8125 16.2813,13.7656 10.9375,13.7656 C7.8125,13.7656 5.17708,12.9531 3.03125,11.3281 C1.01042,9.56771 0,7.35417 0,4.6875 C0,0.197917 2.34375,-4 7.03125,-7.90625 C11.5938,-11.8125 16.5729,-13.7656 21.9688,-13.7656"/>
<path class="Note" transform="matrix(0.566929,0,0,0.566929,297.781,61.7953)" d="M21.9688,-13.7656 C25.0938,-13.7656 27.7344,-12.9531 29.8906,-11.3281 C31.901,-9.56771 32.9063,-7.35417 32.9063,-4.6875 C32.9063,-0.197917 30.599,4 25.9844,7.90625 C21.2969,11.8125 16.2813,13.7656 10.9375,13.7656 C7.8125,13.7656 5.17708,12.9531 3.03125,11.3281 C1.01042,9.56771 0,7.35417 0,4.6875 C0,0.197917 2.34375,-4 7.03125,-7.90625 C11.5938,-11.8125 16.5729,-13.7656 21.9688,-13.7656"/>
<path class="Note" transform="matrix(0.566929,0,0,0.566929,362.495,54.7087)" d="M21.9688,-13.7656 C25.0938,-13.7656 27.7344,-12.9531 29.8906,-11.3281 C31.901,-9.56771 32.9063,-7.35417 32.9063,-4.6875 C32.9063,-0.197917 30.599,4 25.9844,7.90625 C21.2969,11.8125 16.2813,13.7656 10.9375,13.7656 C7.8125,13.7656 5.17708,12.9531 3.03125,11.3281 C1.01042,9.56771 0,7.35417 0,4.6875 C0,0.197917 2.34375,-4 7.03125,-7.90625 C11.5938,-11.8125 16.5729,-13.7656 21.9688,-13.7656"/>
<path class="Note" transform="matrix(0.566929,0,0,0.566929,427.21,47.6221)" d="M21.9688,-13.7656 C25.0938,-13.7656 27.7344,-12.9531 29.8906,-11.3281 C31.901,-9.56771 32.9063,-7.35417 32.9063,-4.6875 C32.9063,-0.197917 30.599,4 25.9844,7.90625 C21.2969,11.8125 16.2813,13.7656 10.9375,13.7656 C7.8125,13.7656 5.17708,12.9531 3.03125,11.3281 C1.01042,9.56771 0,7.35417 0,4.6875 C0,0.197917 2.34375,-4 7.03125,-7.90625 C11.5938,-11.8125 16.5729,-13.7656 21.9688,-13.7656"/>
<path class="Note" transform="matrix(0.566929,0,0,0.566929,491.924,40.5354)" d="M21.9688,-13.7656 C25.0938,-13.7656 27.7344,-12.9531 29.8906,-11.3281 C31.901,-9.56771 32.9063,-7.35417 32.9063,-4.6875 C32.9063,-0.197917 30.599,4 25.9844,7.90625 C21.2969,11.8125 16.2813,13.7656 10.9375,13.7656 C7.8125,13.7656 5.17708,12.9531 3.03125,11.3281 C1.01042,9.56771 0,7.35417 0,4.6875 C0,0.197917 2.34375,-4 7.03125,-7.90625 C11.5938,-11.8125 16.5729,-13.7656 21.9688,-13.7656"/>
<path class="Note" transform="matrix(0.566929,0,0,0.566929,556.639,33.4488)" d="M21.9688,-13.7656 C25.0938,-13.7656 27.7344,-12.9531 29.8906,-11.3281 C31.901,-9.56771 32.9063,-7.35417 32.9063,-4.6875 C32.9063,-0.197917 30.599,4 25.9844,7.90625 C21.2969,11.8125 16.2813,13.7656 10.9375,13.7656 C7.8125,13.7656 5.17708,12.9531 3.03125,11.3281 C1.01042,9.56771 0,7.35417 0,4.6875 C0,0.197917 2.34375,-4 7.03125,-7.90625 C11.5938,-11.8125 16.5729,-13.7656 21.9688,-13.7656"/>
<path class="Clef" transform="matrix(0.566929,0,0,0.566929,28.5015,673.016)" d="M26.6563,42.4844 C26.6563,44.3073 25.224,45.2188 22.3594,45.2188 C20.0885,45.2188 18.1042,44.5365 16.4063,43.1719 C14.7813,41.7344 13.9688,39.9115 13.9688,37.7031 C13.9688,33.7969 16.3438,30.6719 21.0938,28.3281 C25.7188,25.9115 31.1563,24.7031 37.4063,24.7031 C39.8125,24.7031 42.3854,24.8698 45.125,25.2031 C47.1354,25.4635 49.3802,25.9844 51.8594,26.7656 C54.0677,27.474 55.7917,28.5443 57.0313,29.9766 C58.2708,31.4089 58.8906,33.0729 58.8906,34.9688 C58.8906,39.4583 56.5781,43.1354 51.9531,46 C58.724,47.2396 62.1406,50.2656 62.2031,55.0781 C62.2031,59.1198 60.3802,62.7682 56.7344,66.0234 C53.0885,69.2786 48.9583,70.9063 44.3438,70.9063 C42.3854,70.9063 40.3958,70.4479 38.375,69.5313 C36.4896,68.625 35.1563,67.7813 34.375,67 C33.5938,66.0833 33.2031,65.3958 33.2031,64.9375 C33.2031,64.2917 33.5313,63.7396 34.1875,63.2813 C34.7708,62.6979 35.3854,62.4063 36.0313,62.4063 C36.2917,62.4063 36.8464,62.8281 37.6953,63.6719 C38.5443,64.5156 39.7813,64.9375 41.4063,64.9375 C43.625,64.9375 45.776,63.9948 47.8594,62.1094 C49.8698,60.2865 50.875,58.1042 50.875,55.5625 C50.875,53.3542 49.9323,51.7604 48.0469,50.7813 C46.1615,49.8021 43.7552,49.3125 40.8281,49.3125 C40.3073,49.3125 40.0469,48.7604 40.0469,47.6563 C40.0469,46.0938 40.6302,45.3125 41.7969,45.3125 C43.6198,45.3125 45.25,44.5313 46.6875,42.9688 C48.0521,41.2813 48.7344,39.4896 48.7344,37.5938 C48.7344,37.0104 48.5729,36.1354 48.25,34.9688 C47.9896,34.1875 47.2083,33.2396 45.9063,32.125 C44.6667,31.0833 42.9375,30.3698 40.7188,29.9844 C40.1354,33.1719 39.4036,37.2396 38.5234,42.1875 C37.6432,47.1354 37.0417,50.3906 36.7188,51.9531 C35.6146,57.5573 33.599,62.276 30.6719,66.1094 C27.6094,70.151 24.3177,72.1719 20.7969,72.1719 C19.6927,72.1719 18.5573,71.9115 17.3906,71.3906 C16.474,70.9948 15.3021,70.1823 13.875,68.9531 C12.5729,67.9115 11.6927,67.224 11.2344,66.8906 C10.974,66.7031 10.8438,66.4115 10.8438,66.0156 C10.8438,65.3698 11.0729,64.7865 11.5313,64.2656 C12.0521,63.6719 12.6042,63.375 13.1875,63.375 C13.5729,63.375 14.4818,63.9948 15.9141,65.2344 C17.3464,66.474 18.8438,67.0938 20.4063,67.0938 C23.4063,67.0938 25.6563,65.1719 27.1563,61.3281 C28.5833,57.6198 29.2969,53.0313 29.2969,47.5625 L29.2969,46.7813 C29.2969,43.1354 29.8854,37.6979 31.0625,30.4688 C28.9792,31.125 27.3177,32.1042 26.0781,33.4063 C24.776,34.7083 24.125,36.0729 24.125,37.5 C24.125,38.6042 24.5469,39.5469 25.3906,40.3281 C26.2344,41.1094 26.6563,41.8281 26.6563,42.4844 M7.03125,11.9219 C7.35417,11.9219 8.13542,12.2448 9.375,12.8906 C10.6771,13.5469 11.7865,13.875 12.7031,13.875 C15.1719,13.875 18.1979,12.0833 21.7813,8.5 C32.1354,-2.05208 39.2656,-13.25 43.1719,-25.0938 C43.9531,-27.5729 45.8698,-28.8125 48.9219,-28.8125 C50.4844,-28.8125 51.8229,-28.4844 52.9375,-27.8281 C54.0417,-27.1198 54.5938,-26.4063 54.5938,-25.6875 L52.8281,10.8438 C52.8281,12.7917 53.5156,13.7656 54.8906,13.7656 C55.599,13.7656 56.6406,13.4427 58.0156,12.7969 C59.3177,12.1406 60.099,11.8125 60.3594,11.8125 C60.8802,11.8125 61.2031,12.3698 61.3281,13.4844 C61.3281,14.526 60.9063,15.1771 60.0625,15.4375 C59.4063,15.625 58.1042,16.2396 56.1563,17.2813 C54.1354,18.3229 52.5417,18.8438 51.375,18.8438 C48.8958,18.8438 47.1354,16.8906 46.0938,12.9844 C44.4688,6.86979 43.4271,0.520833 42.9688,-6.0625 C40.3646,-2.73958 37.4688,0.614583 34.2813,4 C35.4479,6.21875 37.5938,7.32813 40.7188,7.32813 C41.1771,7.32813 41.5365,7.29688 41.7969,7.23438 L41.8906,7.23438 C42.4115,7.23438 42.6719,7.71875 42.6719,8.6875 C42.6719,9.92708 42.25,10.6771 41.4063,10.9375 C40.0417,11.3958 38.6094,11.625 37.1094,11.625 C33.8594,11.625 31.5156,10.5156 30.0781,8.29688 L26.1719,11.8125 C20.7031,16.5 16.2448,18.8438 12.7969,18.8438 C11.8802,18.8438 10.9375,18.6823 9.96875,18.3594 C9.1875,18.0365 8.27604,17.5469 7.23438,16.8906 C6.83854,16.7031 6.39583,16.4609 5.90625,16.1641 C5.41667,15.8672 5.10938,15.6875 4.98438,15.625 C4.66146,15.5 4.5,15.2083 4.5,14.75 C4.5,14.2292 4.76042,13.6094 5.28125,12.8906 C5.72917,12.2448 6.3125,11.9219 7.03125,11.9219 M28.8125,-54 C28.8125,-52.375 27.4115,-51.5625 24.6094,-51.5625 C22.1406,-51.5625 19.9948,-52.375 18.1719,-54 C16.4115,-55.6354 15.5313,-57.625 15.5313,-59.9688 C15.5313,-62.2396 16.2448,-64.1927 17.6719,-65.8281 C19.1719,-67.5156 21.0938,-68.7813 23.4375,-69.625 C25.5833,-70.4063 27.9948,-71.026 30.6719,-71.4844 C33.4635,-71.8073 36.1302,-71.9688 38.6719,-71.9688 C40.1719,-71.9688 42.974,-71.2865 47.0781,-69.9219 C51.2448,-68.5573 54.1406,-67.875 55.7656,-67.875 C57.7865,-67.875 59.7083,-68.2344 61.5313,-68.9531 C63.0208,-69.599 64.4531,-70.3438 65.8281,-71.1875 C66.9323,-71.9063 67.5469,-72.2656 67.6719,-72.2656 C68.2656,-72.2656 68.7865,-72.0729 69.2344,-71.6875 C69.7552,-71.1667 70.0156,-70.7396 70.0156,-70.4063 C70.0156,-69.9583 69.401,-69.2135 68.1719,-68.1719 C66.8698,-66.9948 65.013,-65.8203 62.6016,-64.6484 C60.1901,-63.4766 57.651,-62.8906 54.9844,-62.8906 C53.8073,-62.8906 52.3438,-63.0885 50.5938,-63.4844 C49.4792,-56.2552 48.3073,-49.8385 47.0781,-44.2344 C46.0365,-39.2865 43.9531,-34.9583 40.8281,-31.25 C37.8281,-27.5417 34.474,-25.6875 30.7656,-25.6875 C29.2656,-25.6875 27.9323,-25.9792 26.7656,-26.5625 C25.4635,-27.2188 24.0938,-28.1979 22.6563,-29.5 C21.4896,-30.4688 20.3854,-31.3438 19.3438,-32.125 C19.0833,-32.3229 18.9531,-32.6198 18.9531,-33.0156 C18.9531,-33.4635 19.2135,-34.0469 19.7344,-34.7656 C20.2552,-35.349 20.7396,-35.6406 21.1875,-35.6406 C21.5833,-35.6406 22.6927,-34.8281 24.5156,-33.2031 C26.3385,-31.5781 27.9635,-30.7656 29.3906,-30.7656 C31.9948,-30.7656 34.0156,-32.2604 35.4531,-35.25 C36.8802,-38.1875 37.6927,-41.7031 37.8906,-45.7969 C38.2135,-52.5052 38.9635,-59.4427 40.1406,-66.6094 C38.7031,-66.9323 37.6302,-67.0938 36.9219,-67.0938 C33.7969,-67.0938 31.125,-66.4427 28.9063,-65.1406 C26.6979,-63.901 25.5938,-62.2083 25.5938,-60.0625 C25.5938,-58.5 26.1146,-57.2969 27.1563,-56.4531 C28.2604,-55.5365 28.8125,-54.7188 28.8125,-54"/>
<path class="Clef" transform="matrix(0.566929,0,0,0.566929,28.5015,495.85)" d="M21.2969,33.9844 C21.2969,35.4219 20.1875,36.1406 17.9688,36.1406 C16.1458,36.1406 14.5833,35.5833 13.2813,34.4688 C11.9167,33.3646 11.2344,31.9323 11.2344,30.1719 C11.2344,26.9844 13.0885,24.4792 16.7969,22.6563 C20.7031,20.7708 25.0677,19.8281 29.8906,19.8281 C34.5052,19.8281 38.6042,20.4479 42.1875,21.6875 C45.5104,23.0521 47.1719,25.1667 47.1719,28.0313 C47.1719,31.5417 45.3177,34.4688 41.6094,36.8125 C47.0781,37.9271 49.8125,40.3698 49.8125,44.1406 C49.8125,47.2656 48.3438,50.1615 45.4063,52.8281 C42.5417,55.4323 39.1927,56.7344 35.3594,56.7344 C33.7969,56.7344 32.2344,56.3802 30.6719,55.6719 C29.2344,55.0156 28.1927,54.2969 27.5469,53.5156 C26.8906,52.9323 26.5625,52.3802 26.5625,51.8594 C26.5625,51.3385 26.8229,50.9167 27.3438,50.5938 C27.8021,50.1354 28.2917,49.9063 28.8125,49.9063 C29.0729,49.9063 29.5599,50.2318 30.2734,50.8828 C30.987,51.5339 31.9635,51.8594 33.2031,51.8594 C35.0885,51.8594 36.849,51.1406 38.4844,49.7031 C40.0469,48.2135 40.8281,46.4896 40.8281,44.5313 C40.8281,42.8438 40.0469,41.5417 38.4844,40.625 C36.9844,39.7813 35.0625,39.3594 32.7188,39.3594 C32.2604,39.3594 32.0313,38.9688 32.0313,38.1875 C32.0313,36.8854 32.5208,36.2344 33.5,36.2344 C34.9271,36.2344 36.1979,35.6146 37.3125,34.375 C38.4167,32.9479 38.9688,31.4844 38.9688,29.9844 C38.9688,26.7969 36.8542,24.8125 32.625,24.0313 L29.3906,41.6094 C28.5469,45.9635 26.9531,49.7396 24.6094,52.9375 C22.2031,56.125 19.5677,57.7188 16.7031,57.7188 C15.724,57.7188 14.8125,57.5208 13.9688,57.125 C13.1875,56.8021 12.2083,56.151 11.0313,55.1719 C9.72917,54.1302 9.04688,53.5781 8.98438,53.5156 C8.72396,53.2552 8.59375,53.026 8.59375,52.8281 C8.59375,52.4427 8.79167,51.9583 9.1875,51.375 C9.63542,50.9167 10.0885,50.6875 10.5469,50.6875 C10.7448,50.6875 11.526,51.1771 12.8906,52.1563 C13.9948,53.1979 15.1667,53.7188 16.4063,53.7188 C18.8125,53.7188 20.6042,52.2188 21.7813,49.2188 C22.9479,46.0938 23.5313,42.3854 23.5313,38.0938 L23.5313,37.4063 C23.5313,34.7396 23.9896,30.4115 24.9063,24.4219 C23.2083,25.0052 21.875,25.7865 20.9063,26.7656 C19.8646,27.8073 19.3438,28.8802 19.3438,29.9844 C19.3438,30.8906 19.6667,31.6406 20.3125,32.2344 C20.9688,32.8802 21.2969,33.4635 21.2969,33.9844 M5.5625,9.46875 C5.82292,9.46875 6.47396,9.76563 7.51563,10.3594 C8.69271,10.8802 9.57292,11.1406 10.1563,11.1406 C13.0208,11.1406 17.1875,7.75521 22.6563,0.984375 C28.0625,-5.66146 32,-12.6979 34.4688,-20.125 C35.0625,-22.0729 36.5938,-23.0469 39.0625,-23.0469 C40.3021,-23.0469 41.3438,-22.7865 42.1875,-22.2656 C43.1042,-21.8802 43.5625,-21.3281 43.5625,-20.6094 L42.1875,8.59375 C42.1875,10.2917 42.776,11.1406 43.9531,11.1406 C44.3385,11.1406 45.151,10.8802 46.3906,10.3594 C47.5573,9.76563 48.2083,9.46875 48.3438,9.46875 C48.8021,9.46875 49.0313,9.92708 49.0313,10.8438 C49.0313,11.625 48.7344,12.1146 48.1406,12.3125 C47.4323,12.6354 46.3594,13.1563 44.9219,13.875 C43.2969,14.7188 42.026,15.1406 41.1094,15.1406 C40.1406,15.1406 39.2292,14.7188 38.375,13.875 C37.5313,12.8333 36.7865,10.8125 36.1406,7.8125 C35.3594,4.82292 34.7708,0.588542 34.375,-4.89063 C32.3542,-2.21354 30.0781,0.489583 27.5469,3.21875 C28.5156,4.91667 30.5,5.76563 33.5,5.76563 C33.8854,5.76563 34.0781,6.1875 34.0781,7.03125 C34.0781,8.53125 32.5833,9.28125 29.5938,9.28125 C27.0521,9.28125 25.2292,8.40104 24.125,6.64063 L21,9.375 C16.7708,13.0208 13.1563,14.9115 10.1563,15.0469 C9.11458,15.0469 7.75,14.5885 6.0625,13.6719 C4.42708,12.8281 3.60938,12.2083 3.60938,11.8125 C3.60938,11.3646 3.80729,10.8802 4.20313,10.3594 C4.58854,9.76563 5.04167,9.46875 5.5625,9.46875 M23.0469,-43.1719 C23.0469,-41.9323 21.9427,-41.3125 19.7344,-41.3125 C17.776,-41.3125 16.0469,-41.9635 14.5469,-43.2656 C13.1198,-44.5052 12.4063,-46.099 12.4063,-48.0469 C12.4063,-49.8698 12.9583,-51.4323 14.0625,-52.7344 C15.3646,-54.1719 16.9271,-55.151 18.75,-55.6719 C20.0521,-56.1927 22.0052,-56.7135 24.6094,-57.2344 C27.349,-57.4948 29.4635,-57.625 30.9531,-57.625 C32.0677,-57.625 34.2839,-57.0703 37.6016,-55.9609 C40.9193,-54.8516 43.2604,-54.2969 44.625,-54.2969 C46.2604,-54.2969 47.7917,-54.5573 49.2188,-55.0781 C50.5833,-55.6615 51.6927,-56.25 52.5469,-56.8438 C53.3906,-57.4896 53.9115,-57.8125 54.1094,-57.8125 C54.4948,-57.8125 54.9167,-57.651 55.375,-57.3281 C55.7604,-57.0052 55.9531,-56.6771 55.9531,-56.3438 C55.9531,-56.0833 55.4688,-55.4688 54.5,-54.5 C53.3229,-53.4583 51.8229,-52.5469 50,-51.7656 C48.0521,-50.7865 46.0677,-50.2969 44.0469,-50.2969 C43.0052,-50.2969 41.8333,-50.4583 40.5313,-50.7813 C39.6146,-44.4063 38.6719,-39.2292 37.7031,-35.25 C36.849,-31.2813 35.1875,-27.8333 32.7188,-24.9063 C30.3125,-21.9792 27.6406,-20.5156 24.7031,-20.5156 C23.401,-20.5156 22.3281,-20.776 21.4844,-21.2969 C20.3802,-21.8177 19.276,-22.5625 18.1719,-23.5313 C17.1302,-24.5104 16.25,-25.2292 15.5313,-25.6875 C15.2708,-25.9479 15.1406,-26.1771 15.1406,-26.375 C15.1406,-26.8229 15.3021,-27.276 15.625,-27.7344 C15.9479,-28.2552 16.3698,-28.5156 16.8906,-28.5156 C17.151,-28.5156 18.0313,-27.8646 19.5313,-26.5625 C21.0313,-25.2604 22.3646,-24.6094 23.5313,-24.6094 C25.0938,-24.6094 26.3021,-25.1302 27.1563,-26.1719 C28.0625,-27.2135 28.776,-28.776 29.2969,-30.8594 C29.7552,-32.7448 30.0833,-34.8594 30.2813,-37.2031 C30.5417,-39.1615 30.8333,-41.8333 31.1563,-45.2188 C31.3542,-47.1042 31.6771,-49.8073 32.125,-53.3281 C31.0208,-53.5885 30.1458,-53.7188 29.5,-53.7188 C27.1563,-53.7188 25.0365,-53.1979 23.1406,-52.1563 C21.3906,-50.9792 20.5156,-49.6406 20.5156,-48.1406 C20.5156,-47.0365 20.9375,-46.0625 21.7813,-45.2188 C22.625,-44.375 23.0469,-43.6927 23.0469,-43.1719"/>
<path class="Clef" transform="matrix(0.566929,0,0,0.566929,28.5015,338.173)" d="M57.1328,-8.89063 C56.1589,-9.86979 55.6719,-11.0755 55.6719,-12.5078 C55.6719,-13.9401 56.1589,-15.1432 57.1328,-16.1172 C58.1068,-17.0911 59.3099,-17.5781 60.7422,-17.5781 C62.1745,-17.5781 63.3802,-17.0911 64.3594,-16.1172 C65.3385,-15.1432 65.8281,-13.9401 65.8281,-12.5078 C65.8281,-11.0755 65.3385,-9.86979 64.3594,-8.89063 C63.3802,-7.91146 62.1745,-7.42188 60.7422,-7.42188 C59.3099,-7.42188 58.1068,-7.91146 57.1328,-8.89063 M57.1328,16.1172 C56.1589,15.1432 55.6719,13.9401 55.6719,12.5078 C55.6719,11.0755 56.1589,9.86979 57.1328,8.89063 C58.1068,7.91146 59.3099,7.42188 60.7422,7.42188 C62.1745,7.42188 63.3802,7.91146 64.3594,8.89063 C65.3385,9.86979 65.8281,11.0755 65.8281,12.5078 C65.8281,13.9401 65.3385,15.1432 64.3594,16.1172 C63.3802,17.0911 62.1745,17.5781 60.7422,17.5781 C59.3099,17.5781 58.1068,17.0911 57.1328,16.1172 M23.25,-26.2656 C31.9063,-26.2656 39,-24.0885 44.5313,-19.7344 C49.875,-15.1719 52.5469,-8.98438 52.5469,-1.17188 C52.5469,4.09896 51.5052,8.91667 49.4219,13.2813 C47.4635,17.8438 44.8906,21.8802 41.7031,25.3906 C38.4427,28.974 34.5052,32.3594 29.8906,35.5469 C25.3906,38.6719 20.7656,41.474 16.0156,43.9531 C6.31771,48.8281 0.979167,51.2656 0,51.2656 C-0.84375,51.2656 -1.26563,50.8438 -1.26563,50 C-1.26563,49.6771 -1.13542,49.3854 -0.875,49.125 C2.44792,47.1667 6.51563,44.6615 11.3281,41.6094 C14.4531,39.5885 18.099,36.7865 22.2656,33.2031 C26.3073,29.8177 29.4323,26.6302 31.6406,23.6406 C33.9219,20.7031 36.0052,17.0573 37.8906,12.7031 C39.5156,8.33854 40.3281,4.03646 40.3281,-0.203125 C40.3281,-6.51563 38.7656,-12.0156 35.6406,-16.7031 C32.5156,-21.3906 28.3854,-23.7344 23.25,-23.7344 C19.6042,-23.7344 16.4792,-22.5625 13.875,-20.2188 C11.0729,-17.8125 9.05208,-14.7865 7.8125,-11.1406 C9.05208,-11.6615 10.1927,-11.9219 11.2344,-11.9219 C13.9635,-11.9219 16.3073,-10.9427 18.2656,-8.98438 C20.2135,-6.90104 21.1875,-4.52604 21.1875,-1.85938 C21.1875,0.942708 20.2448,3.45313 18.3594,5.67188 C16.3385,7.68229 13.9635,8.6875 11.2344,8.6875 C8.30729,8.6875 5.67188,7.68229 3.32813,5.67188 C1.10938,3.45313 0,0.942708 0,-1.85938 C0,-8.56771 2.28125,-14.2969 6.84375,-19.0469 C11.3333,-23.8594 16.8021,-26.2656 23.25,-26.2656"/>
<path class="Clef" transform="matrix(0.566929,0,0,0.566929,28.5015,217.701)" d="M36.3281,-7.32813 C33.3385,-7.32813 31.8438,-4.88542 31.8438,0 C31.8438,4.88542 33.3385,7.32813 36.3281,7.32813 C37.3073,7.32813 38.7396,6.80729 40.625,5.76563 C42.4479,4.72396 43.9479,4.20313 45.125,4.20313 C51.3021,4.20313 56.6719,6.1875 61.2344,10.1563 C65.724,14.2604 67.9688,19.2083 67.9688,25 C67.9688,41.6667 59.1458,50 41.5,50 C37.2708,50 33.6615,48.6354 30.6719,45.9063 C27.7344,43.1667 26.2656,39.8125 26.2656,35.8438 C26.2656,33.6979 27.0156,31.875 28.5156,30.375 C30.0156,28.875 31.8073,28.125 33.8906,28.125 C35.974,28.125 37.763,28.875 39.2578,30.375 C40.7526,31.875 41.5,33.6979 41.5,35.8438 C41.5,37.1458 40.6875,38.4167 39.0625,39.6563 C37.4375,40.8229 36.625,42.0573 36.625,43.3594 C36.625,44.5365 37.1146,45.4479 38.0938,46.0938 C39,46.8125 40.1354,47.1719 41.5,47.1719 C46.9063,47.1719 50.5859,45.3151 52.5391,41.6016 C54.4922,37.888 55.4688,32.3542 55.4688,25 C55.4688,19.3333 54.8854,15.0365 53.7188,12.1094 C52.4792,8.72396 49.6146,7.03125 45.125,7.03125 C41.7396,7.03125 38.875,8.49479 36.5313,11.4219 C34.3125,14.4219 33.2031,17.9063 33.2031,21.875 C33.2031,22.8542 32.7474,23.3438 31.8359,23.3438 C30.9245,23.3438 30.4688,22.8542 30.4688,21.875 C30.4688,14.125 27.6719,7.45313 22.0781,1.85938 L22.0781,49.0313 C22.0781,49.6771 21.75,50 21.0938,50 L19.0469,50 C18.3281,50 17.9688,49.6771 17.9688,49.0313 L17.9688,-49.0313 C17.9688,-49.6771 18.3281,-50 19.0469,-50 L21.0938,-50 C21.75,-50 22.0781,-49.6771 22.0781,-49.0313 L22.0781,-1.85938 C27.6719,-7.45313 30.4688,-14.125 30.4688,-21.875 C30.4688,-22.8542 30.9245,-23.3438 31.8359,-23.3438 C32.7474,-23.3438 33.2031,-22.8542 33.2031,-21.875 C33.2031,-17.9063 34.3125,-14.4219 36.5313,-11.4219 C38.875,-8.49479 41.7396,-7.03125 45.125,-7.03125 C49.6146,-7.03125 52.4792,-8.72396 53.7188,-12.1094 C54.8854,-15.0365 55.4688,-19.3333 55.4688,-25 C55.4688,-32.3542 54.4922,-37.888 52.5391,-41.6016 C50.5859,-45.3151 46.9063,-47.1719 41.5,-47.1719 C40.1354,-47.1719 39,-46.8125 38.0938,-46.0938 C37.1146,-45.5104 36.625,-44.599 36.625,-43.3594 C36.625,-42.0573 37.4375,-40.8229 39.0625,-39.6563 C40.6875,-38.4167 41.5,-37.1458 41.5,-35.8438 C41.5,-33.6979 40.7526,-31.875 39.2578,-30.375 C37.763,-28.875 35.974,-28.125 33.8906,-28.125 C31.8073,-28.125 30.0156,-28.875 28.5156,-30.375 C27.0156,-31.875 26.2656,-33.6979 26.2656,-35.8438 C26.2656,-39.8125 27.7344,-43.1667 30.6719,-45.9063 C33.6615,-48.6354 37.2708,-50 41.5,-50 C59.1458,-50 67.9688,-41.6667 67.9688,-25 C67.9688,-19.2083 65.724,-14.2604 61.2344,-10.1563 C56.6719,-6.1875 51.3021,-4.20313 45.125,-4.20313 C44.0104,-4.20313 42.5104,-4.72396 40.625,-5.76563 C38.7396,-6.80729 37.3073,-7.32813 36.3281,-7.32813 M12.8906,50 L0.984375,50 C0.328125,50 0,49.6771 0,49.0313 L0,-49.0313 C0,-49.6771 0.328125,-50 0.984375,-50 L12.8906,-50 C13.5469,-50 13.875,-49.6771 13.875,-49.0313 L13.875,49.0313 C13.875,49.6771 13.5469,50 12.8906,50"/>
<path class="Clef" transform="matrix(0.566929,0,0,0.566929,28.5015,97.2284)" d="M36.7188,-25.5938 C36.7188,-25.5938 36.9167,-25.5938 37.3125,-25.5938 C37.5729,-25.6563 37.7969,-25.6875 37.9844,-25.6875 C45.276,-25.6875 51.2656,-23.1146 55.9531,-17.9688 C60.6406,-12.8958 62.9844,-6.97396 62.9844,-0.203125 C62.9844,8.20313 59.5052,15.0417 52.5469,20.3125 C50.724,21.75 48.3438,22.9219 45.4063,23.8281 C45.7396,28.0573 45.9063,31.474 45.9063,34.0781 C45.9063,34.599 45.8385,36.4896 45.7031,39.75 C45.4427,45.8021 43.3594,51.0417 39.4531,55.4688 C35.6823,59.8333 30.9948,62.0156 25.3906,62.0156 C20.1198,62.0156 15.6302,60.1615 11.9219,56.4531 C8.20313,52.6719 6.34375,48.1146 6.34375,42.7813 C6.34375,39.9792 7.42188,37.599 9.57813,35.6406 C11.7865,33.6927 14.3542,32.7188 17.2813,32.7188 C19.8854,32.7188 22.0677,33.7292 23.8281,35.75 C25.651,37.6354 26.5625,39.9792 26.5625,42.7813 C26.5625,45.3125 25.651,47.4896 23.8281,49.3125 C22.0052,51.1354 19.8229,52.0469 17.2813,52.0469 C16.2396,52.0469 15.2344,51.8542 14.2656,51.4688 C17.1302,55.6979 20.9375,57.8125 25.6875,57.8125 C30.1771,57.8125 33.8542,55.9896 36.7188,52.3438 C39.7188,48.5729 41.349,44.1771 41.6094,39.1563 C41.7344,36.0313 41.7969,34.2448 41.7969,33.7969 C41.7969,30.151 41.6667,27.1563 41.4063,24.8125 C38.1563,25.3333 35.2604,25.5938 32.7188,25.5938 C23.6667,25.5938 15.9531,22.0104 9.57813,14.8438 C3.32813,7.61458 0.203125,-0.979167 0.203125,-10.9375 C0.203125,-13.0208 0.395833,-15.1354 0.78125,-17.2813 C1.17708,-19.0417 1.66667,-20.9635 2.25,-23.0469 C2.57292,-24.224 3.45313,-26.1146 4.89063,-28.7188 C5.41146,-29.5 5.9974,-30.4766 6.64844,-31.6484 C7.29948,-32.8203 7.75521,-33.599 8.01563,-33.9844 C8.66146,-35.2865 9.92708,-37.0469 11.8125,-39.2656 C12.3333,-39.849 12.8724,-40.4974 13.4297,-41.2109 C13.987,-41.9245 14.4609,-42.5104 14.8516,-42.9688 C15.2422,-43.4271 15.5339,-43.7865 15.7266,-44.0469 C15.9193,-44.3073 17.3854,-46.0313 20.125,-49.2188 C20.7708,-49.875 21.4036,-50.5755 22.0234,-51.3203 C22.6432,-52.0651 23.1484,-52.651 23.5391,-53.0781 C23.9297,-53.5052 24.224,-53.8125 24.4219,-54 C22.0781,-61.75 20.6094,-67.9375 20.0156,-72.5625 C19.5677,-76.2708 19.3438,-81.349 19.3438,-87.7969 C19.3438,-93.4635 20.6458,-98.7708 23.25,-103.719 C25.7813,-108.854 29.3281,-113.052 33.8906,-116.313 C34.151,-116.51 34.474,-116.609 34.8594,-116.609 C35.3177,-116.609 35.6458,-116.51 35.8438,-116.313 C39.3542,-112.083 42.3802,-106.583 44.9219,-99.8125 C47.526,-93.0417 48.8281,-86.8854 48.8281,-81.3438 C48.8281,-75.0938 47.3333,-69.2344 44.3438,-63.7656 C40.9583,-57.974 36.5938,-51.9844 31.25,-45.7969 C32.6146,-41.5052 34.4375,-34.7708 36.7188,-25.5938 M45.0156,19.8281 C48.401,18.5885 51.0417,16.474 52.9375,13.4844 C55.0208,10.6198 56.0625,7.39583 56.0625,3.8125 C56.0625,-0.8125 54.5,-4.91667 51.375,-8.5 C48.1771,-12.2083 44.1042,-14.2917 39.1563,-14.75 C41.9583,-1.01042 43.9115,10.5156 45.0156,19.8281 M7.23438,-2.73438 C7.23438,3.71354 9.83854,9.38021 15.0469,14.2656 C20.3802,19.0156 26.3698,21.3906 33.0156,21.3906 C35.7448,21.3906 38.4115,21.1927 41.0156,20.7969 C39.974,10.901 37.9219,-0.947917 34.8594,-14.75 C31.151,-14.3542 28.1927,-13.0521 25.9844,-10.8438 C23.8281,-8.5625 22.75,-5.98958 22.75,-3.125 C22.75,1.82292 25.3906,5.82813 30.6719,8.89063 C31.1198,9.34896 31.3438,9.83854 31.3438,10.3594 C31.3438,10.8802 31.1198,11.3646 30.6719,11.8125 C30.276,12.2708 29.7865,12.5 29.2031,12.5 C29.1406,12.5 28.849,12.4375 28.3281,12.3125 C24.6094,10.2917 21.7448,7.6875 19.7344,4.5 C17.8385,1.10417 16.8906,-2.31771 16.8906,-5.76563 C16.8906,-10.2552 18.2917,-14.3229 21.0938,-17.9688 C24.0208,-21.6146 27.8281,-23.9583 32.5156,-25 C30.6927,-32.2917 29.1979,-37.9896 28.0313,-42.0938 C26.9896,-40.9167 25.737,-39.5 24.2734,-37.8438 C22.8099,-36.1875 21.9479,-35.1927 21.6875,-34.8594 C19.3438,-31.8073 17.5521,-29.4323 16.3125,-27.7344 C14.0938,-24.6719 12.4635,-22.0365 11.4219,-19.8281 C10.3177,-17.349 9.34375,-14.6458 8.5,-11.7188 C7.65625,-8.91667 7.23438,-5.92188 7.23438,-2.73438 M39.8438,-102.047 C34.9583,-99.6406 31.1198,-96.1927 28.3281,-91.7031 C25.4635,-87.0781 24.0313,-82.099 24.0313,-76.7656 C24.0313,-72.0781 25.2031,-65.7604 27.5469,-57.8125 C32.2344,-63.4792 35.75,-68.7188 38.0938,-73.5313 C40.5625,-78.6146 41.7969,-83.9219 41.7969,-89.4531 C41.7969,-93.6198 41.1458,-97.8177 39.8438,-102.047"/>
</svg>
