<?xml version="1.0" encoding="UTF-8" standalone="no"?>
<svg width="637.794px" height="765.353px" viewBox="0 0 637.794 765.353"
 xmlns="http://www.w3.org/2000/svg" xmlns:xlink="http://www.w3.org/1999/xlink" version="1.2" baseProfile="tiny">
<title>harmonicminor (115)</title>
<desc>Generated by MuseScore 3.4.2</desc>
<polyline class="StaffLines" fill="none" stroke="#000000" stroke-width="1.13" stroke-linejoin="bevel" points="14.1732,43.1132 623.621,43.1132"/>
<polyline class="StaffLines" fill="none" stroke="#000000" stroke-width="1.13" stroke-linejoin="bevel" points="14.1732,57.2864 623.621,57.2864"/>
<polyline class="StaffLines" fill="none" stroke="#000000" stroke-width="1.13" stroke-linejoin="bevel" points="14.1732,71.4597 623.621,71.4597"/>
<polyline class="StaffLines" fill="none" stroke="#000000" stroke-width="1.13" stroke-linejoin="bevel" points="14.1732,85.6329 623.621,85.6329"/>
<polyline class="StaffLines" fill="none" stroke="#000000" stroke-width="1.13" stroke-linejoin="bevel" points="14.1732,99.8061 623.621,99.8061"/>
<polyline class="StaffLines" fill="none" stroke="#000000" stroke-width="1.13" stroke-linejoin="bevel" points="14.1732,177.759 623.621,177.759"/>
<polyline class="StaffLines" fill="none" stroke="#000000" stroke-width="1.13" stroke-linejoin="bevel" points="14.1732,191.932 623.621,191.932"/>
<polyline class="StaffLines" fill="none" stroke="#000000" stroke-width="1.13" stroke-linejoin="bevel" points="14.1732,206.105 623.621,206.105"/>
<polyline class="StaffLines" fill="none" stroke="#000000" stroke-width="1.13" stroke-linejoin="bevel" points="14.1732,220.279 623.621,220.279"/>
<polyline class="StaffLines" fill="none" stroke="#000000" stroke-width="1.13" stroke-linejoin="bevel" points="14.1732,234.452 623.621,234.452"/>
<polyline class="StaffLines" fill="none" stroke="#000000" stroke-width="1.13" stroke-linejoin="bevel" points="14.1732,312.405 623.621,312.405"/>
<polyline class="StaffLines" fill="none" stroke="#000000" stroke-width="1.13" stroke-linejoin="bevel" points="14.1732,326.578 623.621,326.578"/>
<polyline class="StaffLines" fill="none" stroke="#000000" stroke-width="1.13" stroke-linejoin="bevel" points="14.1732,340.751 623.621,340.751"/>
<polyline class="StaffLines" fill="none" stroke="#000000" stroke-width="1.13" stroke-linejoin="bevel" points="14.1732,354.924 623.621,354.924"/>
<polyline class="StaffLines" fill="none" stroke="#000000" stroke-width="1.13" stroke-linejoin="bevel" points="14.1732,369.097 623.621,369.097"/>
<polyline class="StaffLines" fill="none" stroke="#000000" stroke-width="1.13" stroke-linejoin="bevel" points="14.1732,447.05 623.621,447.05"/>
<polyline class="StaffLines" fill="none" stroke="#000000" stroke-width="1.13" stroke-linejoin="bevel" points="14.1732,471.853 623.621,471.853"/>
<polyline class="StaffLines" fill="none" stroke="#000000" stroke-width="1.13" stroke-linejoin="bevel" points="14.1732,496.657 623.621,496.657"/>
<polyline class="StaffLines" fill="none" stroke="#000000" stroke-width="1.13" stroke-linejoin="bevel" points="14.1732,521.46 623.621,521.46"/>
<polyline class="StaffLines" fill="none" stroke="#000000" stroke-width="1.13" stroke-linejoin="bevel" points="14.1732,599.412 623.621,599.412"/>
<polyline class="StaffLines" fill="none" stroke="#000000" stroke-width="1.13" stroke-linejoin="bevel" points="14.1732,624.216 623.621,624.216"/>
<polyline class="StaffLines" fill="none" stroke="#000000" stroke-width="1.13" stroke-linejoin="bevel" points="14.1732,649.019 623.621,649.019"/>
<polyline class="StaffLines" fill="none" stroke="#000000" stroke-width="1.13" stroke-linejoin="bevel" points="14.1732,673.822 623.621,673.822"/>
<polyline class="StaffLines" fill="none" stroke="#000000" stroke-width="1.13" stroke-linejoin="bevel" points="14.1732,698.625 623.621,698.625"/>
<polyline class="StaffLines" fill="none" stroke="#000000" stroke-width="1.13" stroke-linejoin="bevel" points="14.1732,723.428 623.621,723.428"/>
<path class="Accidental" transform="matrix(0.566929,0,0,0.566929,408.479,319.491)" d="M21.5781,31.1563 C21.5781,32.3958 20.9609,33.0156 19.7266,33.0156 C18.4922,33.0156 17.875,32.3958 17.875,31.1563 L17.875,16.7031 L9.57813,19.8281 L9.57813,35.6406 C9.57813,36.8802 8.95833,37.5 7.71875,37.5 C6.47917,37.5 5.85938,36.8802 5.85938,35.6406 L5.85938,21.0938 L2.73438,22.2656 C2.67188,22.3281 2.41146,22.3594 1.95313,22.3594 C1.43229,22.3594 0.976563,22.1641 0.585938,21.7734 C0.195313,21.3828 0,20.9271 0,20.4063 L0,14.3594 C0,13.3802 0.421875,12.7604 1.26563,12.5 L5.85938,10.9375 L5.85938,-5.07813 L2.73438,-4 C2.67188,-3.9375 2.41146,-3.90625 1.95313,-3.90625 C1.43229,-3.90625 0.976563,-4.10156 0.585938,-4.49219 C0.195313,-4.88281 0,-5.33854 0,-5.85938 L0,-11.9219 C0,-12.8281 0.421875,-13.4115 1.26563,-13.6719 L5.85938,-15.4375 L5.85938,-31.1563 C5.85938,-32.3958 6.47917,-33.0156 7.71875,-33.0156 C8.95833,-33.0156 9.57813,-32.3958 9.57813,-31.1563 L9.57813,-16.7031 L17.875,-19.8281 L17.875,-35.6406 C17.875,-36.8802 18.4922,-37.5 19.7266,-37.5 C20.9609,-37.5 21.5781,-36.8802 21.5781,-35.6406 L21.5781,-21.0938 L24.8125,-22.2656 C24.875,-22.3281 25.099,-22.3594 25.4844,-22.3594 C25.9427,-22.3594 26.4323,-22.1667 26.9531,-21.7813 C27.349,-21.3854 27.5469,-20.9271 27.5469,-20.4063 L27.5469,-14.3594 C27.5469,-13.4427 27.0885,-12.8229 26.1719,-12.5 L21.5781,-10.9375 L21.5781,5.07813 L24.8125,4 C24.875,3.9375 25.099,3.90625 25.4844,3.90625 C25.9427,3.90625 26.4323,4.10417 26.9531,4.5 C27.349,4.88542 27.5469,5.33854 27.5469,5.85938 L27.5469,11.9219 C27.5469,12.7656 27.0885,13.349 26.1719,13.6719 L21.5781,15.4375 L21.5781,31.1563 M17.875,-9.46875 L9.57813,-6.54688 L9.57813,9.46875 L17.875,6.54688 L17.875,-9.46875 "/>
<path class="Accidental" transform="matrix(0.566929,0,0,0.566929,408.479,177.759)" d="M21.5781,31.1563 C21.5781,32.3958 20.9609,33.0156 19.7266,33.0156 C18.4922,33.0156 17.875,32.3958 17.875,31.1563 L17.875,16.7031 L9.57813,19.8281 L9.57813,35.6406 C9.57813,36.8802 8.95833,37.5 7.71875,37.5 C6.47917,37.5 5.85938,36.8802 5.85938,35.6406 L5.85938,21.0938 L2.73438,22.2656 C2.67188,22.3281 2.41146,22.3594 1.95313,22.3594 C1.43229,22.3594 0.976563,22.1641 0.585938,21.7734 C0.195313,21.3828 0,20.9271 0,20.4063 L0,14.3594 C0,13.3802 0.421875,12.7604 1.26563,12.5 L5.85938,10.9375 L5.85938,-5.07813 L2.73438,-4 C2.67188,-3.9375 2.41146,-3.90625 1.95313,-3.90625 C1.43229,-3.90625 0.976563,-4.10156 0.585938,-4.49219 C0.195313,-4.88281 0,-5.33854 0,-5.85938 L0,-11.9219 C0,-12.8281 0.421875,-13.4115 1.26563,-13.6719 L5.85938,-15.4375 L5.85938,-31.1563 C5.85938,-32.3958 6.47917,-33.0156 7.71875,-33.0156 C8.95833,-33.0156 9.57813,-32.3958 9.57813,-31.1563 L9.57813,-16.7031 L17.875,-19.8281 L17.875,-35.6406 C17.875,-36.8802 18.4922,-37.5 19.7266,-37.5 C20.9609,-37.5 21.5781,-36.8802 21.5781,-35.6406 L21.5781,-21.0938 L24.8125,-22.2656 C24.875,-22.3281 25.099,-22.3594 25.4844,-22.3594 C25.9427,-22.3594 26.4323,-22.1667 26.9531,-21.7813 C27.349,-21.3854 27.5469,-20.9271 27.5469,-20.4063 L27.5469,-14.3594 C27.5469,-13.4427 27.0885,-12.8229 26.1719,-12.5 L21.5781,-10.9375 L21.5781,5.07813 L24.8125,4 C24.875,3.9375 25.099,3.90625 25.4844,3.90625 C25.9427,3.90625 26.4323,4.10417 26.9531,4.5 C27.349,4.88542 27.5469,5.33854 27.5469,5.85938 L27.5469,11.9219 C27.5469,12.7656 27.0885,13.349 26.1719,13.6719 L21.5781,15.4375 L21.5781,31.1563 M17.875,-9.46875 L9.57813,-6.54688 L9.57813,9.46875 L17.875,6.54688 L17.875,-9.46875 "/>
<path class="Accidental" transform="matrix(0.566929,0,0,0.566929,408.479,36.0266)" d="M21.5781,31.1563 C21.5781,32.3958 20.9609,33.0156 19.7266,33.0156 C18.4922,33.0156 17.875,32.3958 17.875,31.1563 L17.875,16.7031 L9.57813,19.8281 L9.57813,35.6406 C9.57813,36.8802 8.95833,37.5 7.71875,37.5 C6.47917,37.5 5.85938,36.8802 5.85938,35.6406 L5.85938,21.0938 L2.73438,22.2656 C2.67188,22.3281 2.41146,22.3594 1.95313,22.3594 C1.43229,22.3594 0.976563,22.1641 0.585938,21.7734 C0.195313,21.3828 0,20.9271 0,20.4063 L0,14.3594 C0,13.3802 0.421875,12.7604 1.26563,12.5 L5.85938,10.9375 L5.85938,-5.07813 L2.73438,-4 C2.67188,-3.9375 2.41146,-3.90625 1.95313,-3.90625 C1.43229,-3.90625 0.976563,-4.10156 0.585938,-4.49219 C0.195313,-4.88281 0,-5.33854 0,-5.85938 L0,-11.9219 C0,-12.8281 0.421875,-13.4115 1.26563,-13.6719 L5.85938,-15.4375 L5.85938,-31.1563 C5.85938,-32.3958 6.47917,-33.0156 7.71875,-33.0156 C8.95833,-33.0156 9.57813,-32.3958 9.57813,-31.1563 L9.57813,-16.7031 L17.875,-19.8281 L17.875,-35.6406 C17.875,-36.8802 18.4922,-37.5 19.7266,-37.5 C20.9609,-37.5 21.5781,-36.8802 21.5781,-35.6406 L21.5781,-21.0938 L24.8125,-22.2656 C24.875,-22.3281 25.099,-22.3594 25.4844,-22.3594 C25.9427,-22.3594 26.4323,-22.1667 26.9531,-21.7813 C27.349,-21.3854 27.5469,-20.9271 27.5469,-20.4063 L27.5469,-14.3594 C27.5469,-13.4427 27.0885,-12.8229 26.1719,-12.5 L21.5781,-10.9375 L21.5781,5.07813 L24.8125,4 C24.875,3.9375 25.099,3.90625 25.4844,3.90625 C25.9427,3.90625 26.4323,4.10417 26.9531,4.5 C27.349,4.88542 27.5469,5.33854 27.5469,5.85938 L27.5469,11.9219 C27.5469,12.7656 27.0885,13.349 26.1719,13.6719 L21.5781,15.4375 L21.5781,31.1563 M17.875,-9.46875 L9.57813,-6.54688 L9.57813,9.46875 L17.875,6.54688 L17.875,-9.46875 "/>
<polyline class="LedgerLine" fill="none" stroke="#000000" stroke-width="2.27" stroke-linecap="square" stroke-linejoin="bevel" points="552.387,163.586 579.551,163.586"/>
<polyline class="LedgerLine" fill="none" stroke="#000000" stroke-width="2.27" stroke-linecap="square" stroke-linejoin="bevel" points="487.672,28.94 514.836,28.94"/>
<polyline class="LedgerLine" fill="none" stroke="#000000" stroke-width="2.27" stroke-linecap="square" stroke-linejoin="bevel" points="552.387,28.94 579.551,28.94"/>
<path class="Note" fill="#ffffff" fill-opacity="0.0" fill-rule="evenodd" d="M104.913,686.223 L123.622,686.223 L123.622,711.027 L104.913,711.027 L104.913,686.223 "/>
<path class="Note" d="M107.736,696.406 C107.861,691.813 110.044,689.516 114.283,689.516 C116.169,689.516 117.7,690.057 118.877,691.141 C120.054,692.224 120.643,693.625 120.643,695.344 C120.643,697.813 119.242,699.813 116.44,701.344 L113.643,702.844 C112.424,703.5 111.554,704.135 111.033,704.75 C110.513,705.365 110.184,706.094 110.049,706.938 L120.502,706.938 L120.502,709.375 L107.283,709.375 C107.398,707.188 107.838,705.503 108.604,704.32 C109.369,703.138 110.789,701.958 112.861,700.781 L115.424,699.328 C117.216,698.297 118.111,696.99 118.111,695.406 C118.111,694.344 117.739,693.456 116.994,692.742 C116.249,692.029 115.32,691.672 114.205,691.672 C111.716,691.672 110.377,693.25 110.19,696.406 L107.736,696.406 "/>
<path class="Note" fill="#ffffff" fill-opacity="0.0" fill-rule="evenodd" d="M104.913,611.814 L123.622,611.814 L123.622,636.617 L104.913,636.617 L104.913,611.814 "/>
<path class="Note" d="M107.533,625.356 C107.533,623.7 107.674,622.236 107.955,620.966 C108.236,619.695 108.591,618.7 109.018,617.981 C109.445,617.262 109.958,616.679 110.557,616.231 C111.156,615.783 111.731,615.484 112.283,615.333 C112.835,615.182 113.419,615.106 114.033,615.106 C118.367,615.106 120.533,618.58 120.533,625.528 C120.533,628.799 119.976,631.296 118.861,633.02 C117.747,634.744 116.138,635.606 114.033,635.606 C111.908,635.606 110.294,634.734 109.19,632.989 C108.085,631.244 107.533,628.7 107.533,625.356 M118.002,625.309 C118.002,619.966 116.677,617.294 114.026,617.294 C111.374,617.294 110.049,619.992 110.049,625.387 C110.049,630.835 111.356,633.559 113.971,633.559 C115.356,633.559 116.374,632.887 117.026,631.544 C117.677,630.2 118.002,628.122 118.002,625.309"/>
<path class="Note" fill="#ffffff" fill-opacity="0.0" fill-rule="evenodd" d="M169.627,686.223 L188.336,686.223 L188.336,711.027 L169.627,711.027 L169.627,686.223 "/>
<path class="Note" d="M178.607,691.672 C177.191,691.672 176.217,692.06 175.685,692.836 C175.154,693.612 174.868,694.646 174.826,695.938 L172.357,695.938 C172.451,691.656 174.524,689.516 178.576,689.516 C180.461,689.516 181.941,690.003 183.013,690.977 C184.086,691.951 184.623,693.286 184.623,694.984 C184.623,696.995 183.701,698.365 181.857,699.094 C183.045,699.51 183.901,700.086 184.428,700.82 C184.954,701.555 185.217,702.557 185.217,703.828 C185.217,705.714 184.605,707.216 183.381,708.336 C182.157,709.456 180.529,710.016 178.498,710.016 C174.425,710.016 172.237,707.88 171.935,703.609 L174.404,703.609 C174.498,705.047 174.881,706.109 175.553,706.797 C176.224,707.484 177.232,707.828 178.576,707.828 C179.868,707.828 180.875,707.479 181.599,706.781 C182.323,706.083 182.685,705.109 182.685,703.859 C182.685,701.453 181.316,700.25 178.576,700.25 L177.545,700.281 L177.232,700.281 L177.232,698.172 C179.003,698.141 180.258,697.919 180.998,697.508 C181.737,697.096 182.107,696.281 182.107,695.063 C182.107,694.021 181.795,693.195 181.17,692.586 C180.545,691.977 179.691,691.672 178.607,691.672"/>
<path class="Note" fill="#ffffff" fill-opacity="0.0" fill-rule="evenodd" d="M169.627,611.814 L188.336,611.814 L188.336,636.617 L169.627,636.617 L169.627,611.814 "/>
<path class="Note" d="M178.295,620.825 L173.904,620.825 L173.904,619.059 C175.81,618.82 177.053,618.484 177.631,618.051 C178.209,617.619 178.711,616.637 179.138,615.106 L180.763,615.106 L180.763,634.966 L178.295,634.966 L178.295,620.825 "/>
<path class="Note" fill="#ffffff" fill-opacity="0.0" fill-rule="evenodd" d="M234.342,661.42 L253.051,661.42 L253.051,686.223 L234.342,686.223 L234.342,661.42 "/>
<path class="Note" d="M236.962,674.962 C236.962,673.306 237.103,671.843 237.384,670.572 C237.665,669.301 238.02,668.306 238.447,667.587 C238.874,666.869 239.387,666.285 239.986,665.837 C240.585,665.39 241.16,665.09 241.712,664.939 C242.264,664.788 242.848,664.712 243.462,664.712 C247.796,664.712 249.962,668.186 249.962,675.134 C249.962,678.405 249.405,680.903 248.29,682.627 C247.176,684.351 245.566,685.212 243.462,685.212 C241.337,685.212 239.723,684.34 238.619,682.595 C237.514,680.851 236.962,678.306 236.962,674.962 M247.431,674.916 C247.431,669.572 246.106,666.9 243.454,666.9 C240.803,666.9 239.478,669.598 239.478,674.994 C239.478,680.442 240.785,683.166 243.4,683.166 C244.785,683.166 245.803,682.494 246.454,681.15 C247.106,679.806 247.431,677.728 247.431,674.916"/>
<path class="Note" fill="#ffffff" fill-opacity="0.0" fill-rule="evenodd" d="M234.342,611.814 L253.051,611.814 L253.051,636.617 L234.342,636.617 L234.342,611.814 "/>
<path class="Note" d="M243.322,617.262 C241.905,617.262 240.931,617.65 240.4,618.426 C239.869,619.203 239.582,620.236 239.54,621.528 L237.072,621.528 C237.165,617.247 239.238,615.106 243.29,615.106 C245.176,615.106 246.655,615.593 247.728,616.567 C248.801,617.541 249.337,618.877 249.337,620.575 C249.337,622.585 248.415,623.955 246.572,624.684 C247.759,625.101 248.616,625.676 249.142,626.411 C249.668,627.145 249.931,628.148 249.931,629.419 C249.931,631.304 249.319,632.807 248.095,633.926 C246.871,635.046 245.244,635.606 243.212,635.606 C239.139,635.606 236.952,633.471 236.65,629.2 L239.119,629.2 C239.212,630.637 239.595,631.7 240.267,632.387 C240.939,633.075 241.947,633.419 243.29,633.419 C244.582,633.419 245.59,633.07 246.314,632.372 C247.038,631.674 247.4,630.7 247.4,629.45 C247.4,627.044 246.03,625.841 243.29,625.841 L242.259,625.872 L241.947,625.872 L241.947,623.762 C243.718,623.731 244.973,623.51 245.712,623.098 C246.452,622.687 246.822,621.872 246.822,620.653 C246.822,619.611 246.509,618.786 245.884,618.176 C245.259,617.567 244.405,617.262 243.322,617.262"/>
<path class="Note" fill="#ffffff" fill-opacity="0.0" fill-rule="evenodd" d="M299.056,661.42 L317.765,661.42 L317.765,686.223 L299.056,686.223 L299.056,661.42 "/>
<path class="Note" d="M301.88,671.603 C302.005,667.009 304.187,664.712 308.427,664.712 C310.312,664.712 311.843,665.254 313.021,666.337 C314.198,667.421 314.786,668.822 314.786,670.541 C314.786,673.009 313.385,675.009 310.583,676.541 L307.786,678.041 C306.567,678.697 305.698,679.332 305.177,679.947 C304.656,680.561 304.328,681.291 304.192,682.134 L314.646,682.134 L314.646,684.572 L301.427,684.572 C301.541,682.384 301.981,680.699 302.747,679.517 C303.513,678.335 304.932,677.155 307.005,675.978 L309.567,674.525 C311.359,673.494 312.255,672.186 312.255,670.603 C312.255,669.541 311.883,668.653 311.138,667.939 C310.393,667.226 309.463,666.869 308.349,666.869 C305.859,666.869 304.521,668.447 304.333,671.603 L301.88,671.603 "/>
<path class="Note" fill="#ffffff" fill-opacity="0.0" fill-rule="evenodd" d="M299.056,587.011 L317.765,587.011 L317.765,611.814 L299.056,611.814 L299.056,587.011 "/>
<path class="Note" d="M301.677,600.553 C301.677,598.897 301.817,597.433 302.099,596.162 C302.38,594.892 302.734,593.897 303.161,593.178 C303.588,592.459 304.101,591.876 304.7,591.428 C305.299,590.98 305.875,590.681 306.427,590.53 C306.979,590.379 307.562,590.303 308.177,590.303 C312.51,590.303 314.677,593.777 314.677,600.725 C314.677,603.996 314.119,606.493 313.005,608.217 C311.89,609.941 310.281,610.803 308.177,610.803 C306.052,610.803 304.437,609.931 303.333,608.186 C302.229,606.441 301.677,603.897 301.677,600.553 M312.146,600.506 C312.146,595.162 310.82,592.491 308.169,592.491 C305.518,592.491 304.192,595.188 304.192,600.584 C304.192,606.032 305.5,608.756 308.114,608.756 C309.5,608.756 310.518,608.084 311.169,606.741 C311.82,605.397 312.146,603.319 312.146,600.506"/>
<path class="Note" fill="#ffffff" fill-opacity="0.0" fill-rule="evenodd" d="M363.771,661.42 L382.479,661.42 L382.479,686.223 L363.771,686.223 L363.771,661.42 "/>
<path class="Note" d="M372.751,666.869 C371.334,666.869 370.36,667.257 369.829,668.033 C369.298,668.809 369.011,669.843 368.969,671.134 L366.501,671.134 C366.594,666.853 368.667,664.712 372.719,664.712 C374.605,664.712 376.084,665.199 377.157,666.173 C378.23,667.147 378.766,668.483 378.766,670.181 C378.766,672.192 377.844,673.561 376.001,674.291 C377.188,674.707 378.045,675.283 378.571,676.017 C379.097,676.752 379.36,677.754 379.36,679.025 C379.36,680.91 378.748,682.413 377.524,683.533 C376.3,684.653 374.673,685.212 372.641,685.212 C368.568,685.212 366.381,683.077 366.079,678.806 L368.548,678.806 C368.641,680.244 369.024,681.306 369.696,681.994 C370.368,682.681 371.376,683.025 372.719,683.025 C374.011,683.025 375.019,682.676 375.743,681.978 C376.467,681.28 376.829,680.306 376.829,679.056 C376.829,676.65 375.459,675.447 372.719,675.447 L371.688,675.478 L371.376,675.478 L371.376,673.369 C373.146,673.337 374.402,673.116 375.141,672.705 C375.881,672.293 376.251,671.478 376.251,670.259 C376.251,669.218 375.938,668.392 375.313,667.783 C374.688,667.173 373.834,666.869 372.751,666.869"/>
<path class="Note" fill="#ffffff" fill-opacity="0.0" fill-rule="evenodd" d="M363.771,587.011 L382.479,587.011 L382.479,611.814 L363.771,611.814 L363.771,587.011 "/>
<path class="Note" d="M372.438,596.022 L368.048,596.022 L368.048,594.256 C369.954,594.017 371.196,593.681 371.774,593.248 C372.352,592.816 372.855,591.834 373.282,590.303 L374.907,590.303 L374.907,610.162 L372.438,610.162 L372.438,596.022 "/>
<path class="Note" fill="#ffffff" fill-opacity="0.0" fill-rule="evenodd" d="M428.485,636.617 L447.194,636.617 L447.194,661.42 L428.485,661.42 L428.485,636.617 "/>
<path class="Note" d="M437.153,645.628 L432.762,645.628 L432.762,643.862 C434.668,643.623 435.91,643.287 436.489,642.855 C437.067,642.422 437.569,641.441 437.996,639.909 L439.621,639.909 L439.621,659.769 L437.153,659.769 L437.153,645.628 "/>
<path class="Note" fill="#ffffff" fill-opacity="0.0" fill-rule="evenodd" d="M428.485,587.011 L447.194,587.011 L447.194,611.814 L428.485,611.814 L428.485,587.011 "/>
<path class="Note" d="M439.059,605.397 L430.684,605.397 L430.684,602.803 L439.699,590.303 L441.528,590.303 L441.528,603.194 L444.465,603.194 L444.465,605.397 L441.528,605.397 L441.528,610.162 L439.059,610.162 L439.059,605.397 M439.059,603.194 L439.059,594.506 L432.84,603.194 L439.059,603.194 "/>
<path class="Note" fill="#ffffff" fill-opacity="0.0" fill-rule="evenodd" d="M493.2,636.617 L511.908,636.617 L511.908,661.42 L493.2,661.42 L493.2,636.617 "/>
<path class="Note" d="M496.023,646.8 C496.148,642.206 498.331,639.909 502.57,639.909 C504.456,639.909 505.987,640.451 507.164,641.534 C508.341,642.618 508.93,644.019 508.93,645.737 C508.93,648.206 507.529,650.206 504.726,651.737 L501.93,653.237 C500.711,653.894 499.841,654.529 499.32,655.144 C498.799,655.758 498.471,656.487 498.336,657.331 L508.789,657.331 L508.789,659.769 L495.57,659.769 C495.685,657.581 496.125,655.896 496.891,654.714 C497.656,653.532 499.075,652.352 501.148,651.175 L503.711,649.722 C505.502,648.691 506.398,647.383 506.398,645.8 C506.398,644.737 506.026,643.849 505.281,643.136 C504.536,642.422 503.607,642.066 502.492,642.066 C500.002,642.066 498.664,643.644 498.476,646.8 L496.023,646.8 "/>
<path class="Note" fill="#ffffff" fill-opacity="0.0" fill-rule="evenodd" d="M493.2,587.011 L511.908,587.011 L511.908,611.814 L493.2,611.814 L493.2,587.011 "/>
<path class="Note" d="M507.945,590.303 L507.945,592.741 L499.68,592.741 L498.898,598.287 C500.002,597.485 501.226,597.084 502.57,597.084 C504.476,597.084 506.021,597.696 507.203,598.92 C508.385,600.144 508.976,601.735 508.976,603.694 C508.976,605.787 508.344,607.496 507.078,608.819 C505.812,610.142 504.18,610.803 502.18,610.803 C501.409,610.803 500.703,610.72 500.062,610.553 C499.422,610.386 498.891,610.186 498.469,609.951 C498.047,609.717 497.664,609.41 497.32,609.03 C496.976,608.649 496.716,608.313 496.539,608.022 C496.362,607.73 496.193,607.366 496.031,606.928 C495.87,606.491 495.771,606.188 495.734,606.022 C495.698,605.855 495.654,605.61 495.601,605.287 L498.055,605.287 C498.638,607.506 499.992,608.616 502.117,608.616 C503.461,608.616 504.521,608.207 505.297,607.389 C506.073,606.571 506.461,605.454 506.461,604.037 C506.461,602.558 506.068,601.394 505.281,600.545 C504.495,599.696 503.44,599.272 502.117,599.272 C501.357,599.272 500.706,599.407 500.164,599.678 C499.622,599.949 499.06,600.428 498.476,601.116 L496.211,601.116 L497.695,590.303 L507.945,590.303 "/>
<path class="Note" fill="#ffffff" fill-opacity="0.0" fill-rule="evenodd" d="M557.914,611.814 L576.623,611.814 L576.623,636.617 L557.914,636.617 L557.914,611.814 "/>
<path class="Note" d="M560.535,625.356 C560.535,623.7 560.675,622.236 560.957,620.966 C561.238,619.695 561.592,618.7 562.019,617.981 C562.446,617.262 562.959,616.679 563.558,616.231 C564.157,615.783 564.733,615.484 565.285,615.333 C565.837,615.182 566.42,615.106 567.035,615.106 C571.368,615.106 573.535,618.58 573.535,625.528 C573.535,628.799 572.977,631.296 571.863,633.02 C570.748,634.744 569.139,635.606 567.035,635.606 C564.91,635.606 563.295,634.734 562.191,632.989 C561.087,631.244 560.535,628.7 560.535,625.356 M571.003,625.309 C571.003,619.966 569.678,617.294 567.027,617.294 C564.376,617.294 563.05,619.992 563.05,625.387 C563.05,630.835 564.358,633.559 566.972,633.559 C568.358,633.559 569.376,632.887 570.027,631.544 C570.678,630.2 571.003,628.122 571.003,625.309"/>
<path class="Note" fill="#ffffff" fill-opacity="0.0" fill-rule="evenodd" d="M557.914,587.011 L576.623,587.011 L576.623,611.814 L557.914,611.814 L557.914,587.011 "/>
<path class="Note" d="M573.894,590.303 L573.894,592.381 C571.654,595.371 569.886,598.287 568.589,601.131 C567.292,603.975 566.373,606.985 565.832,610.162 L563.191,610.162 C563.941,606.892 564.894,604.017 566.05,601.537 C567.207,599.058 568.972,596.126 571.347,592.741 L560.613,592.741 L560.613,590.303 L573.894,590.303 "/>
<path class="Note" fill="#ffffff" fill-opacity="0.0" fill-rule="evenodd" d="M104.913,509.058 L123.622,509.058 L123.622,533.861 L104.913,533.861 L104.913,509.058 "/>
<path class="Note" d="M115.486,527.444 L107.111,527.444 L107.111,524.85 L116.127,512.35 L117.955,512.35 L117.955,525.241 L120.893,525.241 L120.893,527.444 L117.955,527.444 L117.955,532.21 L115.486,532.21 L115.486,527.444 M115.486,525.241 L115.486,516.553 L109.268,525.241 L115.486,525.241 "/>
<path class="Note" fill="#ffffff" fill-opacity="0.0" fill-rule="evenodd" d="M104.913,459.452 L123.622,459.452 L123.622,484.255 L104.913,484.255 L104.913,459.452 "/>
<path class="Note" d="M107.736,469.635 C107.861,465.041 110.044,462.744 114.283,462.744 C116.169,462.744 117.7,463.286 118.877,464.369 C120.054,465.452 120.643,466.853 120.643,468.572 C120.643,471.041 119.242,473.041 116.44,474.572 L113.643,476.072 C112.424,476.728 111.554,477.364 111.033,477.978 C110.513,478.593 110.184,479.322 110.049,480.166 L120.502,480.166 L120.502,482.603 L107.283,482.603 C107.398,480.416 107.838,478.731 108.604,477.549 C109.369,476.366 110.789,475.187 112.861,474.01 L115.424,472.556 C117.216,471.525 118.111,470.218 118.111,468.635 C118.111,467.572 117.739,466.684 116.994,465.971 C116.249,465.257 115.32,464.9 114.205,464.9 C111.716,464.9 110.377,466.478 110.19,469.635 L107.736,469.635 "/>
<path class="Note" fill="#ffffff" fill-opacity="0.0" fill-rule="evenodd" d="M169.627,509.058 L188.336,509.058 L188.336,533.861 L169.627,533.861 L169.627,509.058 "/>
<path class="Note" d="M184.373,512.35 L184.373,514.788 L176.107,514.788 L175.326,520.335 C176.43,519.533 177.654,519.132 178.998,519.132 C180.904,519.132 182.448,519.744 183.631,520.967 C184.813,522.191 185.404,523.783 185.404,525.741 C185.404,527.835 184.771,529.543 183.506,530.866 C182.24,532.189 180.607,532.85 178.607,532.85 C177.836,532.85 177.131,532.767 176.49,532.6 C175.849,532.434 175.318,532.233 174.896,531.999 C174.474,531.764 174.092,531.457 173.748,531.077 C173.404,530.697 173.144,530.361 172.967,530.069 C172.789,529.777 172.62,529.413 172.459,528.975 C172.297,528.538 172.198,528.236 172.162,528.069 C172.125,527.902 172.081,527.658 172.029,527.335 L174.482,527.335 C175.066,529.553 176.42,530.663 178.545,530.663 C179.888,530.663 180.948,530.254 181.724,529.436 C182.5,528.619 182.888,527.501 182.888,526.085 C182.888,524.605 182.495,523.441 181.709,522.592 C180.922,521.744 179.868,521.319 178.545,521.319 C177.784,521.319 177.133,521.454 176.592,521.725 C176.05,521.996 175.487,522.475 174.904,523.163 L172.638,523.163 L174.123,512.35 L184.373,512.35 "/>
<path class="Note" fill="#ffffff" fill-opacity="0.0" fill-rule="evenodd" d="M169.627,459.452 L188.336,459.452 L188.336,484.255 L169.627,484.255 L169.627,459.452 "/>
<path class="Note" d="M178.607,464.9 C177.191,464.9 176.217,465.288 175.685,466.064 C175.154,466.84 174.868,467.874 174.826,469.166 L172.357,469.166 C172.451,464.885 174.524,462.744 178.576,462.744 C180.461,462.744 181.941,463.231 183.013,464.205 C184.086,465.179 184.623,466.515 184.623,468.213 C184.623,470.223 183.701,471.593 181.857,472.322 C183.045,472.739 183.901,473.314 184.428,474.049 C184.954,474.783 185.217,475.786 185.217,477.056 C185.217,478.942 184.605,480.444 183.381,481.564 C182.157,482.684 180.529,483.244 178.498,483.244 C174.425,483.244 172.237,481.109 171.935,476.838 L174.404,476.838 C174.498,478.275 174.881,479.338 175.553,480.025 C176.224,480.713 177.232,481.056 178.576,481.056 C179.868,481.056 180.875,480.708 181.599,480.01 C182.323,479.312 182.685,478.338 182.685,477.088 C182.685,474.681 181.316,473.478 178.576,473.478 L177.545,473.51 L177.232,473.51 L177.232,471.4 C179.003,471.369 180.258,471.148 180.998,470.736 C181.737,470.325 182.107,469.51 182.107,468.291 C182.107,467.249 181.795,466.424 181.17,465.814 C180.545,465.205 179.691,464.9 178.607,464.9"/>
<path class="Note" fill="#ffffff" fill-opacity="0.0" fill-rule="evenodd" d="M234.342,484.255 L253.051,484.255 L253.051,509.058 L234.342,509.058 L234.342,484.255 "/>
<path class="Note" d="M236.962,497.797 C236.962,496.141 237.103,494.677 237.384,493.407 C237.665,492.136 238.02,491.141 238.447,490.422 C238.874,489.703 239.387,489.12 239.986,488.672 C240.585,488.224 241.16,487.925 241.712,487.774 C242.264,487.623 242.848,487.547 243.462,487.547 C247.796,487.547 249.962,491.021 249.962,497.969 C249.962,501.24 249.405,503.737 248.29,505.461 C247.176,507.185 245.566,508.047 243.462,508.047 C241.337,508.047 239.723,507.175 238.619,505.43 C237.514,503.685 236.962,501.141 236.962,497.797 M247.431,497.75 C247.431,492.407 246.106,489.735 243.454,489.735 C240.803,489.735 239.478,492.433 239.478,497.828 C239.478,503.276 240.785,506 243.4,506 C244.785,506 245.803,505.328 246.454,503.985 C247.106,502.641 247.431,500.563 247.431,497.75"/>
<path class="Note" fill="#ffffff" fill-opacity="0.0" fill-rule="evenodd" d="M234.342,459.452 L253.051,459.452 L253.051,484.255 L234.342,484.255 L234.342,459.452 "/>
<path class="Note" d="M249.087,462.744 L249.087,465.181 L240.822,465.181 L240.04,470.728 C241.145,469.926 242.369,469.525 243.712,469.525 C245.619,469.525 247.163,470.137 248.345,471.361 C249.527,472.585 250.119,474.176 250.119,476.135 C250.119,478.228 249.486,479.937 248.22,481.26 C246.954,482.583 245.322,483.244 243.322,483.244 C242.551,483.244 241.845,483.161 241.204,482.994 C240.564,482.827 240.033,482.627 239.611,482.392 C239.189,482.158 238.806,481.851 238.462,481.471 C238.119,481.09 237.858,480.754 237.681,480.463 C237.504,480.171 237.335,479.806 237.173,479.369 C237.012,478.931 236.913,478.629 236.876,478.463 C236.84,478.296 236.796,478.051 236.744,477.728 L239.197,477.728 C239.78,479.947 241.134,481.056 243.259,481.056 C244.603,481.056 245.663,480.648 246.439,479.83 C247.215,479.012 247.603,477.895 247.603,476.478 C247.603,474.999 247.21,473.835 246.423,472.986 C245.637,472.137 244.582,471.713 243.259,471.713 C242.499,471.713 241.848,471.848 241.306,472.119 C240.764,472.39 240.202,472.869 239.619,473.556 L237.353,473.556 L238.837,462.744 L249.087,462.744 "/>
<path class="Note" fill="#ffffff" fill-opacity="0.0" fill-rule="evenodd" d="M299.056,484.255 L317.765,484.255 L317.765,509.058 L299.056,509.058 L299.056,484.255 "/>
<path class="Note" d="M301.88,494.438 C302.005,489.844 304.187,487.547 308.427,487.547 C310.312,487.547 311.843,488.089 313.021,489.172 C314.198,490.255 314.786,491.657 314.786,493.375 C314.786,495.844 313.385,497.844 310.583,499.375 L307.786,500.875 C306.567,501.532 305.698,502.167 305.177,502.782 C304.656,503.396 304.328,504.125 304.192,504.969 L314.646,504.969 L314.646,507.407 L301.427,507.407 C301.541,505.219 301.981,503.534 302.747,502.352 C303.513,501.17 304.932,499.99 307.005,498.813 L309.567,497.36 C311.359,496.328 312.255,495.021 312.255,493.438 C312.255,492.375 311.883,491.487 311.138,490.774 C310.393,490.06 309.463,489.703 308.349,489.703 C305.859,489.703 304.521,491.282 304.333,494.438 L301.88,494.438 "/>
<path class="Note" fill="#ffffff" fill-opacity="0.0" fill-rule="evenodd" d="M299.056,434.649 L317.765,434.649 L317.765,459.452 L299.056,459.452 L299.056,434.649 "/>
<path class="Note" d="M301.677,448.191 C301.677,446.535 301.817,445.071 302.099,443.8 C302.38,442.529 302.734,441.535 303.161,440.816 C303.588,440.097 304.101,439.514 304.7,439.066 C305.299,438.618 305.875,438.318 306.427,438.167 C306.979,438.016 307.562,437.941 308.177,437.941 C312.51,437.941 314.677,441.415 314.677,448.363 C314.677,451.634 314.119,454.131 313.005,455.855 C311.89,457.579 310.281,458.441 308.177,458.441 C306.052,458.441 304.437,457.568 303.333,455.824 C302.229,454.079 301.677,451.535 301.677,448.191 M312.146,448.144 C312.146,442.8 310.82,440.128 308.169,440.128 C305.518,440.128 304.192,442.826 304.192,448.222 C304.192,453.67 305.5,456.394 308.114,456.394 C309.5,456.394 310.518,455.722 311.169,454.378 C311.82,453.035 312.146,450.956 312.146,448.144"/>
<path class="Note" fill="#ffffff" fill-opacity="0.0" fill-rule="evenodd" d="M363.771,484.255 L382.479,484.255 L382.479,509.058 L363.771,509.058 L363.771,484.255 "/>
<path class="Note" d="M372.751,489.703 C371.334,489.703 370.36,490.091 369.829,490.867 C369.298,491.643 369.011,492.677 368.969,493.969 L366.501,493.969 C366.594,489.688 368.667,487.547 372.719,487.547 C374.605,487.547 376.084,488.034 377.157,489.008 C378.23,489.982 378.766,491.318 378.766,493.016 C378.766,495.026 377.844,496.396 376.001,497.125 C377.188,497.542 378.045,498.117 378.571,498.852 C379.097,499.586 379.36,500.589 379.36,501.86 C379.36,503.745 378.748,505.248 377.524,506.367 C376.3,507.487 374.673,508.047 372.641,508.047 C368.568,508.047 366.381,505.912 366.079,501.641 L368.548,501.641 C368.641,503.078 369.024,504.141 369.696,504.828 C370.368,505.516 371.376,505.86 372.719,505.86 C374.011,505.86 375.019,505.511 375.743,504.813 C376.467,504.115 376.829,503.141 376.829,501.891 C376.829,499.485 375.459,498.282 372.719,498.282 L371.688,498.313 L371.376,498.313 L371.376,496.203 C373.146,496.172 374.402,495.951 375.141,495.539 C375.881,495.128 376.251,494.313 376.251,493.094 C376.251,492.052 375.938,491.227 375.313,490.617 C374.688,490.008 373.834,489.703 372.751,489.703"/>
<path class="Note" fill="#ffffff" fill-opacity="0.0" fill-rule="evenodd" d="M363.771,434.649 L382.479,434.649 L382.479,459.452 L363.771,459.452 L363.771,434.649 "/>
<path class="Note" d="M372.438,443.66 L368.048,443.66 L368.048,441.894 C369.954,441.654 371.196,441.318 371.774,440.886 C372.352,440.454 372.855,439.472 373.282,437.941 L374.907,437.941 L374.907,457.8 L372.438,457.8 L372.438,443.66 "/>
<path class="Note" fill="#ffffff" fill-opacity="0.0" fill-rule="evenodd" d="M428.485,484.255 L447.194,484.255 L447.194,509.058 L428.485,509.058 L428.485,484.255 "/>
<path class="Note" d="M431.106,498.36 C431.106,496.61 431.265,495.065 431.582,493.727 C431.9,492.388 432.296,491.339 432.77,490.578 C433.244,489.818 433.814,489.198 434.481,488.719 C435.147,488.24 435.775,487.925 436.364,487.774 C436.952,487.623 437.569,487.547 438.215,487.547 C439.726,487.547 440.981,488.005 441.981,488.922 C442.981,489.839 443.601,491.11 443.84,492.735 L441.387,492.735 C441.179,491.787 440.785,491.05 440.207,490.524 C439.629,489.998 438.908,489.735 438.043,489.735 C436.627,489.735 435.541,490.383 434.785,491.68 C434.03,492.977 433.642,494.839 433.621,497.266 C434.705,495.797 436.226,495.063 438.184,495.063 C439.965,495.063 441.423,495.651 442.559,496.828 C443.694,498.005 444.262,499.516 444.262,501.36 C444.262,503.297 443.653,504.896 442.434,506.157 C441.215,507.417 439.663,508.047 437.778,508.047 C433.33,508.047 431.106,504.818 431.106,498.36 M437.887,497.25 C436.668,497.25 435.676,497.636 434.91,498.407 C434.145,499.177 433.762,500.183 433.762,501.422 C433.762,502.683 434.145,503.737 434.91,504.586 C435.676,505.435 436.637,505.86 437.793,505.86 C438.939,505.86 439.884,505.456 440.629,504.649 C441.374,503.841 441.746,502.808 441.746,501.547 C441.746,500.224 441.4,499.177 440.707,498.407 C440.015,497.636 439.074,497.25 437.887,497.25"/>
<path class="Note" fill="#ffffff" fill-opacity="0.0" fill-rule="evenodd" d="M428.485,434.649 L447.194,434.649 L447.194,459.452 L428.485,459.452 L428.485,434.649 "/>
<path class="Note" d="M439.059,453.035 L430.684,453.035 L430.684,450.441 L439.699,437.941 L441.528,437.941 L441.528,450.831 L444.465,450.831 L444.465,453.035 L441.528,453.035 L441.528,457.8 L439.059,457.8 L439.059,453.035 M439.059,450.831 L439.059,442.144 L432.84,450.831 L439.059,450.831 "/>
<path class="Note" fill="#ffffff" fill-opacity="0.0" fill-rule="evenodd" d="M493.2,459.452 L511.908,459.452 L511.908,484.255 L493.2,484.255 L493.2,459.452 "/>
<path class="Note" d="M495.82,472.994 C495.82,471.338 495.961,469.874 496.242,468.603 C496.523,467.333 496.877,466.338 497.305,465.619 C497.732,464.9 498.245,464.317 498.844,463.869 C499.443,463.421 500.018,463.122 500.57,462.971 C501.122,462.819 501.706,462.744 502.32,462.744 C506.654,462.744 508.82,466.218 508.82,473.166 C508.82,476.437 508.263,478.934 507.148,480.658 C506.034,482.382 504.424,483.244 502.32,483.244 C500.195,483.244 498.581,482.372 497.476,480.627 C496.372,478.882 495.82,476.338 495.82,472.994 M506.289,472.947 C506.289,467.603 504.963,464.931 502.312,464.931 C499.661,464.931 498.336,467.629 498.336,473.025 C498.336,478.473 499.643,481.197 502.258,481.197 C503.643,481.197 504.661,480.525 505.312,479.181 C505.963,477.838 506.289,475.76 506.289,472.947"/>
<path class="Note" fill="#ffffff" fill-opacity="0.0" fill-rule="evenodd" d="M493.2,434.649 L511.908,434.649 L511.908,459.452 L493.2,459.452 L493.2,434.649 "/>
<path class="Note" d="M507.945,437.941 L507.945,440.378 L499.68,440.378 L498.898,445.925 C500.002,445.123 501.226,444.722 502.57,444.722 C504.476,444.722 506.021,445.334 507.203,446.558 C508.385,447.782 508.976,449.373 508.976,451.331 C508.976,453.425 508.344,455.134 507.078,456.456 C505.812,457.779 504.18,458.441 502.18,458.441 C501.409,458.441 500.703,458.357 500.062,458.191 C499.422,458.024 498.891,457.824 498.469,457.589 C498.047,457.355 497.664,457.048 497.32,456.667 C496.976,456.287 496.716,455.951 496.539,455.66 C496.362,455.368 496.193,455.003 496.031,454.566 C495.87,454.128 495.771,453.826 495.734,453.66 C495.698,453.493 495.654,453.248 495.601,452.925 L498.055,452.925 C498.638,455.144 499.992,456.253 502.117,456.253 C503.461,456.253 504.521,455.844 505.297,455.027 C506.073,454.209 506.461,453.092 506.461,451.675 C506.461,450.196 506.068,449.032 505.281,448.183 C504.495,447.334 503.44,446.91 502.117,446.91 C501.357,446.91 500.706,447.045 500.164,447.316 C499.622,447.587 499.06,448.066 498.476,448.753 L496.211,448.753 L497.695,437.941 L507.945,437.941 "/>
<path class="Note" fill="#ffffff" fill-opacity="0.0" fill-rule="evenodd" d="M557.914,459.452 L576.623,459.452 L576.623,484.255 L557.914,484.255 L557.914,459.452 "/>
<path class="Note" d="M560.738,469.635 C560.863,465.041 563.045,462.744 567.285,462.744 C569.17,462.744 570.701,463.286 571.878,464.369 C573.056,465.452 573.644,466.853 573.644,468.572 C573.644,471.041 572.243,473.041 569.441,474.572 L566.644,476.072 C565.425,476.728 564.556,477.364 564.035,477.978 C563.514,478.593 563.186,479.322 563.05,480.166 L573.503,480.166 L573.503,482.603 L560.285,482.603 C560.399,480.416 560.839,478.731 561.605,477.549 C562.371,476.366 563.79,475.187 565.863,474.01 L568.425,472.556 C570.217,471.525 571.113,470.218 571.113,468.635 C571.113,467.572 570.74,466.684 569.996,465.971 C569.251,465.257 568.321,464.9 567.207,464.9 C564.717,464.9 563.378,466.478 563.191,469.635 L560.738,469.635 "/>
<path class="Note" fill="#ffffff" fill-opacity="0.0" fill-rule="evenodd" d="M557.914,434.649 L576.623,434.649 L576.623,459.452 L557.914,459.452 L557.914,434.649 "/>
<path class="Note" d="M573.894,437.941 L573.894,440.019 C571.654,443.009 569.886,445.925 568.589,448.769 C567.292,451.613 566.373,454.623 565.832,457.8 L563.191,457.8 C563.941,454.529 564.894,451.654 566.05,449.175 C567.207,446.696 568.972,443.764 571.347,440.378 L560.613,440.378 L560.613,437.941 L573.894,437.941 "/>
<path class="Note" transform="matrix(0.566929,0,0,0.566929,103.637,354.924)" d="M21.9688,-13.7656 C25.0938,-13.7656 27.7344,-12.9531 29.8906,-11.3281 C31.901,-9.56771 32.9063,-7.35417 32.9063,-4.6875 C32.9063,-0.197917 30.599,4 25.9844,7.90625 C21.2969,11.8125 16.2813,13.7656 10.9375,13.7656 C7.8125,13.7656 5.17708,12.9531 3.03125,11.3281 C1.01042,9.56771 0,7.35417 0,4.6875 C0,0.197917 2.34375,-4 7.03125,-7.90625 C11.5938,-11.8125 16.5729,-13.7656 21.9688,-13.7656"/>
<path class="Note" transform="matrix(0.566929,0,0,0.566929,168.352,347.838)" d="M21.9688,-13.7656 C25.0938,-13.7656 27.7344,-12.9531 29.8906,-11.3281 C31.901,-9.56771 32.9063,-7.35417 32.9063,-4.6875 C32.9063,-0.197917 30.599,4 25.9844,7.90625 C21.2969,11.8125 16.2813,13.7656 10.9375,13.7656 C7.8125,13.7656 5.17708,12.9531 3.03125,11.3281 C1.01042,9.56771 0,7.35417 0,4.6875 C0,0.197917 2.34375,-4 7.03125,-7.90625 C11.5938,-11.8125 16.5729,-13.7656 21.9688,-13.7656"/>
<path class="Note" transform="matrix(0.566929,0,0,0.566929,233.066,340.751)" d="M21.9688,-13.7656 C25.0938,-13.7656 27.7344,-12.9531 29.8906,-11.3281 C31.901,-9.56771 32.9063,-7.35417 32.9063,-4.6875 C32.9063,-0.197917 30.599,4 25.9844,7.90625 C21.2969,11.8125 16.2813,13.7656 10.9375,13.7656 C7.8125,13.7656 5.17708,12.9531 3.03125,11.3281 C1.01042,9.56771 0,7.35417 0,4.6875 C0,0.197917 2.34375,-4 7.03125,-7.90625 C11.5938,-11.8125 16.5729,-13.7656 21.9688,-13.7656"/>
<path class="Note" transform="matrix(0.566929,0,0,0.566929,297.781,333.664)" d="M21.9688,-13.7656 C25.0938,-13.7656 27.7344,-12.9531 29.8906,-11.3281 C31.901,-9.56771 32.9063,-7.35417 32.9063,-4.6875 C32.9063,-0.197917 30.599,4 25.9844,7.90625 C21.2969,11.8125 16.2813,13.7656 10.9375,13.7656 C7.8125,13.7656 5.17708,12.9531 3.03125,11.3281 C1.01042,9.56771 0,7.35417 0,4.6875 C0,0.197917 2.34375,-4 7.03125,-7.90625 C11.5938,-11.8125 16.5729,-13.7656 21.9688,-13.7656"/>
<path class="Note" transform="matrix(0.566929,0,0,0.566929,362.495,326.578)" d="M21.9688,-13.7656 C25.0938,-13.7656 27.7344,-12.9531 29.8906,-11.3281 C31.901,-9.56771 32.9063,-7.35417 32.9063,-4.6875 C32.9063,-0.197917 30.599,4 25.9844,7.90625 C21.2969,11.8125 16.2813,13.7656 10.9375,13.7656 C7.8125,13.7656 5.17708,12.9531 3.03125,11.3281 C1.01042,9.56771 0,7.35417 0,4.6875 C0,0.197917 2.34375,-4 7.03125,-7.90625 C11.5938,-11.8125 16.5729,-13.7656 21.9688,-13.7656"/>
<path class="Note" transform="matrix(0.566929,0,0,0.566929,427.21,319.491)" d="M21.9688,-13.7656 C25.0938,-13.7656 27.7344,-12.9531 29.8906,-11.3281 C31.901,-9.56771 32.9063,-7.35417 32.9063,-4.6875 C32.9063,-0.197917 30.599,4 25.9844,7.90625 C21.2969,11.8125 16.2813,13.7656 10.9375,13.7656 C7.8125,13.7656 5.17708,12.9531 3.03125,11.3281 C1.01042,9.56771 0,7.35417 0,4.6875 C0,0.197917 2.34375,-4 7.03125,-7.90625 C11.5938,-11.8125 16.5729,-13.7656 21.9688,-13.7656"/>
<path class="Note" transform="matrix(0.566929,0,0,0.566929,491.924,312.405)" d="M21.9688,-13.7656 C25.0938,-13.7656 27.7344,-12.9531 29.8906,-11.3281 C31.901,-9.56771 32.9063,-7.35417 32.9063,-4.6875 C32.9063,-0.197917 30.599,4 25.9844,7.90625 C21.2969,11.8125 16.2813,13.7656 10.9375,13.7656 C7.8125,13.7656 5.17708,12.9531 3.03125,11.3281 C1.01042,9.56771 0,7.35417 0,4.6875 C0,0.197917 2.34375,-4 7.03125,-7.90625 C11.5938,-11.8125 16.5729,-13.7656 21.9688,-13.7656"/>
<path class="Note" transform="matrix(0.566929,0,0,0.566929,556.639,305.318)" d="M21.9688,-13.7656 C25.0938,-13.7656 27.7344,-12.9531 29.8906,-11.3281 C31.901,-9.56771 32.9063,-7.35417 32.9063,-4.6875 C32.9063,-0.197917 30.599,4 25.9844,7.90625 C21.2969,11.8125 16.2813,13.7656 10.9375,13.7656 C7.8125,13.7656 5.17708,12.9531 3.03125,11.3281 C1.01042,9.56771 0,7.35417 0,4.6875 C0,0.197917 2.34375,-4 7.03125,-7.90625 C11.5938,-11.8125 16.5729,-13.7656 21.9688,-13.7656"/>
<path class="Note" transform="matrix(0.566929,0,0,0.566929,103.637,213.192)" d="M21.9688,-13.7656 C25.0938,-13.7656 27.7344,-12.9531 29.8906,-11.3281 C31.901,-9.56771 32.9063,-7.35417 32.9063,-4.6875 C32.9063,-0.197917 30.599,4 25.9844,7.90625 C21.2969,11.8125 16.2813,13.7656 10.9375,13.7656 C7.8125,13.7656 5.17708,12.9531 3.03125,11.3281 C1.01042,9.56771 0,7.35417 0,4.6875 C0,0.197917 2.34375,-4 7.03125,-7.90625 C11.5938,-11.8125 16.5729,-13.7656 21.9688,-13.7656"/>
<path class="Note" transform="matrix(0.566929,0,0,0.566929,168.352,206.105)" d="M21.9688,-13.7656 C25.0938,-13.7656 27.7344,-12.9531 29.8906,-11.3281 C31.901,-9.56771 32.9063,-7.35417 32.9063,-4.6875 C32.9063,-0.197917 30.599,4 25.9844,7.90625 C21.2969,11.8125 16.2813,13.7656 10.9375,13.7656 C7.8125,13.7656 5.17708,12.9531 3.03125,11.3281 C1.01042,9.56771 0,7.35417 0,4.6875 C0,0.197917 2.34375,-4 7.03125,-7.90625 C11.5938,-11.8125 16.5729,-13.7656 21.9688,-13.7656"/>
<path class="Note" transform="matrix(0.566929,0,0,0.566929,233.066,199.019)" d="M21.9688,-13.7656 C25.0938,-13.7656 27.7344,-12.9531 29.8906,-11.3281 C31.901,-9.56771 32.9063,-7.35417 32.9063,-4.6875 C32.9063,-0.197917 30.599,4 25.9844,7.90625 C21.2969,11.8125 16.2813,13.7656 10.9375,13.7656 C7.8125,13.7656 5.17708,12.9531 3.03125,11.3281 C1.01042,9.56771 0,7.35417 0,4.6875 C0,0.197917 2.34375,-4 7.03125,-7.90625 C11.5938,-11.8125 16.5729,-13.7656 21.9688,-13.7656"/>
<path class="Note" transform="matrix(0.566929,0,0,0.566929,297.781,191.932)" d="M21.9688,-13.7656 C25.0938,-13.7656 27.7344,-12.9531 29.8906,-11.3281 C31.901,-9.56771 32.9063,-7.35417 32.9063,-4.6875 C32.9063,-0.197917 30.599,4 25.9844,7.90625 C21.2969,11.8125 16.2813,13.7656 10.9375,13.7656 C7.8125,13.7656 5.17708,12.9531 3.03125,11.3281 C1.01042,9.56771 0,7.35417 0,4.6875 C0,0.197917 2.34375,-4 7.03125,-7.90625 C11.5938,-11.8125 16.5729,-13.7656 21.9688,-13.7656"/>
<path class="Note" transform="matrix(0.566929,0,0,0.566929,362.495,184.845)" d="M21.9688,-13.7656 C25.0938,-13.7656 27.7344,-12.9531 29.8906,-11.3281 C31.901,-9.56771 32.9063,-7.35417 32.9063,-4.6875 C32.9063,-0.197917 30.599,4 25.9844,7.90625 C21.2969,11.8125 16.2813,13.7656 10.9375,13.7656 C7.8125,13.7656 5.17708,12.9531 3.03125,11.3281 C1.01042,9.56771 0,7.35417 0,4.6875 C0,0.197917 2.34375,-4 7.03125,-7.90625 C11.5938,-11.8125 16.5729,-13.7656 21.9688,-13.7656"/>
<path class="Note" transform="matrix(0.566929,0,0,0.566929,427.21,177.759)" d="M21.9688,-13.7656 C25.0938,-13.7656 27.7344,-12.9531 29.8906,-11.3281 C31.901,-9.56771 32.9063,-7.35417 32.9063,-4.6875 C32.9063,-0.197917 30.599,4 25.9844,7.90625 C21.2969,11.8125 16.2813,13.7656 10.9375,13.7656 C7.8125,13.7656 5.17708,12.9531 3.03125,11.3281 C1.01042,9.56771 0,7.35417 0,4.6875 C0,0.197917 2.34375,-4 7.03125,-7.90625 C11.5938,-11.8125 16.5729,-13.7656 21.9688,-13.7656"/>
<path class="Note" transform="matrix(0.566929,0,0,0.566929,491.924,170.672)" d="M21.9688,-13.7656 C25.0938,-13.7656 27.7344,-12.9531 29.8906,-11.3281 C31.901,-9.56771 32.9063,-7.35417 32.9063,-4.6875 C32.9063,-0.197917 30.599,4 25.9844,7.90625 C21.2969,11.8125 16.2813,13.7656 10.9375,13.7656 C7.8125,13.7656 5.17708,12.9531 3.03125,11.3281 C1.01042,9.56771 0,7.35417 0,4.6875 C0,0.197917 2.34375,-4 7.03125,-7.90625 C11.5938,-11.8125 16.5729,-13.7656 21.9688,-13.7656"/>
<path class="Note" transform="matrix(0.566929,0,0,0.566929,556.639,163.586)" d="M21.9688,-13.7656 C25.0938,-13.7656 27.7344,-12.9531 29.8906,-11.3281 C31.901,-9.56771 32.9063,-7.35417 32.9063,-4.6875 C32.9063,-0.197917 30.599,4 25.9844,7.90625 C21.2969,11.8125 16.2813,13.7656 10.9375,13.7656 C7.8125,13.7656 5.17708,12.9531 3.03125,11.3281 C1.01042,9.56771 0,7.35417 0,4.6875 C0,0.197917 2.34375,-4 7.03125,-7.90625 C11.5938,-11.8125 16.5729,-13.7656 21.9688,-13.7656"/>
<path class="Note" transform="matrix(0.566929,0,0,0.566929,103.637,71.4597)" d="M21.9688,-13.7656 C25.0938,-13.7656 27.7344,-12.9531 29.8906,-11.3281 C31.901,-9.56771 32.9063,-7.35417 32.9063,-4.6875 C32.9063,-0.197917 30.599,4 25.9844,7.90625 C21.2969,11.8125 16.2813,13.7656 10.9375,13.7656 C7.8125,13.7656 5.17708,12.9531 3.03125,11.3281 C1.01042,9.56771 0,7.35417 0,4.6875 C0,0.197917 2.34375,-4 7.03125,-7.90625 C11.5938,-11.8125 16.5729,-13.7656 21.9688,-13.7656"/>
<path class="Note" transform="matrix(0.566929,0,0,0.566929,168.352,64.373)" d="M21.9688,-13.7656 C25.0938,-13.7656 27.7344,-12.9531 29.8906,-11.3281 C31.901,-9.56771 32.9063,-7.35417 32.9063,-4.6875 C32.9063,-0.197917 30.599,4 25.9844,7.90625 C21.2969,11.8125 16.2813,13.7656 10.9375,13.7656 C7.8125,13.7656 5.17708,12.9531 3.03125,11.3281 C1.01042,9.56771 0,7.35417 0,4.6875 C0,0.197917 2.34375,-4 7.03125,-7.90625 C11.5938,-11.8125 16.5729,-13.7656 21.9688,-13.7656"/>
<path class="Note" transform="matrix(0.566929,0,0,0.566929,233.066,57.2864)" d="M21.9688,-13.7656 C25.0938,-13.7656 27.7344,-12.9531 29.8906,-11.3281 C31.901,-9.56771 32.9063,-7.35417 32.9063,-4.6875 C32.9063,-0.197917 30.599,4 25.9844,7.90625 C21.2969,11.8125 16.2813,13.7656 10.9375,13.7656 C7.8125,13.7656 5.17708,12.9531 3.03125,11.3281 C1.01042,9.56771 0,7.35417 0,4.6875 C0,0.197917 2.34375,-4 7.03125,-7.90625 C11.5938,-11.8125 16.5729,-13.7656 21.9688,-13.7656"/>
<path class="Note" transform="matrix(0.566929,0,0,0.566929,297.781,50.1998)" d="M21.9688,-13.7656 C25.0938,-13.7656 27.7344,-12.9531 29.8906,-11.3281 C31.901,-9.56771 32.9063,-7.35417 32.9063,-4.6875 C32.9063,-0.197917 30.599,4 25.9844,7.90625 C21.2969,11.8125 16.2813,13.7656 10.9375,13.7656 C7.8125,13.7656 5.17708,12.9531 3.03125,11.3281 C1.01042,9.56771 0,7.35417 0,4.6875 C0,0.197917 2.34375,-4 7.03125,-7.90625 C11.5938,-11.8125 16.5729,-13.7656 21.9688,-13.7656"/>
<path class="Note" transform="matrix(0.566929,0,0,0.566929,362.495,43.1132)" d="M21.9688,-13.7656 C25.0938,-13.7656 27.7344,-12.9531 29.8906,-11.3281 C31.901,-9.56771 32.9063,-7.35417 32.9063,-4.6875 C32.9063,-0.197917 30.599,4 25.9844,7.90625 C21.2969,11.8125 16.2813,13.7656 10.9375,13.7656 C7.8125,13.7656 5.17708,12.9531 3.03125,11.3281 C1.01042,9.56771 0,7.35417 0,4.6875 C0,0.197917 2.34375,-4 7.03125,-7.90625 C11.5938,-11.8125 16.5729,-13.7656 21.9688,-13.7656"/>
<path class="Note" transform="matrix(0.566929,0,0,0.566929,427.21,36.0266)" d="M21.9688,-13.7656 C25.0938,-13.7656 27.7344,-12.9531 29.8906,-11.3281 C31.901,-9.56771 32.9063,-7.35417 32.9063,-4.6875 C32.9063,-0.197917 30.599,4 25.9844,7.90625 C21.2969,11.8125 16.2813,13.7656 10.9375,13.7656 C7.8125,13.7656 5.17708,12.9531 3.03125,11.3281 C1.01042,9.56771 0,7.35417 0,4.6875 C0,0.197917 2.34375,-4 7.03125,-7.90625 C11.5938,-11.8125 16.5729,-13.7656 21.9688,-13.7656"/>
<path class="Note" transform="matrix(0.566929,0,0,0.566929,491.924,28.94)" d="M21.9688,-13.7656 C25.0938,-13.7656 27.7344,-12.9531 29.8906,-11.3281 C31.901,-9.56771 32.9063,-7.35417 32.9063,-4.6875 C32.9063,-0.197917 30.599,4 25.9844,7.90625 C21.2969,11.8125 16.2813,13.7656 10.9375,13.7656 C7.8125,13.7656 5.17708,12.9531 3.03125,11.3281 C1.01042,9.56771 0,7.35417 0,4.6875 C0,0.197917 2.34375,-4 7.03125,-7.90625 C11.5938,-11.8125 16.5729,-13.7656 21.9688,-13.7656"/>
<path class="Note" transform="matrix(0.566929,0,0,0.566929,556.639,21.8534)" d="M21.9688,-13.7656 C25.0938,-13.7656 27.7344,-12.9531 29.8906,-11.3281 C31.901,-9.56771 32.9063,-7.35417 32.9063,-4.6875 C32.9063,-0.197917 30.599,4 25.9844,7.90625 C21.2969,11.8125 16.2813,13.7656 10.9375,13.7656 C7.8125,13.7656 5.17708,12.9531 3.03125,11.3281 C1.01042,9.56771 0,7.35417 0,4.6875 C0,0.197917 2.34375,-4 7.03125,-7.90625 C11.5938,-11.8125 16.5729,-13.7656 21.9688,-13.7656"/>
<path class="Clef" transform="matrix(0.566929,0,0,0.566929,28.5015,661.42)" d="M26.6563,42.4844 C26.6563,44.3073 25.224,45.2188 22.3594,45.2188 C20.0885,45.2188 18.1042,44.5365 16.4063,43.1719 C14.7813,41.7344 13.9688,39.9115 13.9688,37.7031 C13.9688,33.7969 16.3438,30.6719 21.0938,28.3281 C25.7188,25.9115 31.1563,24.7031 37.4063,24.7031 C39.8125,24.7031 42.3854,24.8698 45.125,25.2031 C47.1354,25.4635 49.3802,25.9844 51.8594,26.7656 C54.0677,27.474 55.7917,28.5443 57.0313,29.9766 C58.2708,31.4089 58.8906,33.0729 58.8906,34.9688 C58.8906,39.4583 56.5781,43.1354 51.9531,46 C58.724,47.2396 62.1406,50.2656 62.2031,55.0781 C62.2031,59.1198 60.3802,62.7682 56.7344,66.0234 C53.0885,69.2786 48.9583,70.9063 44.3438,70.9063 C42.3854,70.9063 40.3958,70.4479 38.375,69.5313 C36.4896,68.625 35.1563,67.7813 34.375,67 C33.5938,66.0833 33.2031,65.3958 33.2031,64.9375 C33.2031,64.2917 33.5313,63.7396 34.1875,63.2813 C34.7708,62.6979 35.3854,62.4063 36.0313,62.4063 C36.2917,62.4063 36.8464,62.8281 37.6953,63.6719 C38.5443,64.5156 39.7813,64.9375 41.4063,64.9375 C43.625,64.9375 45.776,63.9948 47.8594,62.1094 C49.8698,60.2865 50.875,58.1042 50.875,55.5625 C50.875,53.3542 49.9323,51.7604 48.0469,50.7813 C46.1615,49.8021 43.7552,49.3125 40.8281,49.3125 C40.3073,49.3125 40.0469,48.7604 40.0469,47.6563 C40.0469,46.0938 40.6302,45.3125 41.7969,45.3125 C43.6198,45.3125 45.25,44.5313 46.6875,42.9688 C48.0521,41.2813 48.7344,39.4896 48.7344,37.5938 C48.7344,37.0104 48.5729,36.1354 48.25,34.9688 C47.9896,34.1875 47.2083,33.2396 45.9063,32.125 C44.6667,31.0833 42.9375,30.3698 40.7188,29.9844 C40.1354,33.1719 39.4036,37.2396 38.5234,42.1875 C37.6432,47.1354 37.0417,50.3906 36.7188,51.9531 C35.6146,57.5573 33.599,62.276 30.6719,66.1094 C27.6094,70.151 24.3177,72.1719 20.7969,72.1719 C19.6927,72.1719 18.5573,71.9115 17.3906,71.3906 C16.474,70.9948 15.3021,70.1823 13.875,68.9531 C12.5729,67.9115 11.6927,67.224 11.2344,66.8906 C10.974,66.7031 10.8438,66.4115 10.8438,66.0156 C10.8438,65.3698 11.0729,64.7865 11.5313,64.2656 C12.0521,63.6719 12.6042,63.375 13.1875,63.375 C13.5729,63.375 14.4818,63.9948 15.9141,65.2344 C17.3464,66.474 18.8438,67.0938 20.4063,67.0938 C23.4063,67.0938 25.6563,65.1719 27.1563,61.3281 C28.5833,57.6198 29.2969,53.0313 29.2969,47.5625 L29.2969,46.7813 C29.2969,43.1354 29.8854,37.6979 31.0625,30.4688 C28.9792,31.125 27.3177,32.1042 26.0781,33.4063 C24.776,34.7083 24.125,36.0729 24.125,37.5 C24.125,38.6042 24.5469,39.5469 25.3906,40.3281 C26.2344,41.1094 26.6563,41.8281 26.6563,42.4844 M7.03125,11.9219 C7.35417,11.9219 8.13542,12.2448 9.375,12.8906 C10.6771,13.5469 11.7865,13.875 12.7031,13.875 C15.1719,13.875 18.1979,12.0833 21.7813,8.5 C32.1354,-2.05208 39.2656,-13.25 43.1719,-25.0938 C43.9531,-27.5729 45.8698,-28.8125 48.9219,-28.8125 C50.4844,-28.8125 51.8229,-28.4844 52.9375,-27.8281 C54.0417,-27.1198 54.5938,-26.4063 54.5938,-25.6875 L52.8281,10.8438 C52.8281,12.7917 53.5156,13.7656 54.8906,13.7656 C55.599,13.7656 56.6406,13.4427 58.0156,12.7969 C59.3177,12.1406 60.099,11.8125 60.3594,11.8125 C60.8802,11.8125 61.2031,12.3698 61.3281,13.4844 C61.3281,14.526 60.9063,15.1771 60.0625,15.4375 C59.4063,15.625 58.1042,16.2396 56.1563,17.2813 C54.1354,18.3229 52.5417,18.8438 51.375,18.8438 C48.8958,18.8438 47.1354,16.8906 46.0938,12.9844 C44.4688,6.86979 43.4271,0.520833 42.9688,-6.0625 C40.3646,-2.73958 37.4688,0.614583 34.2813,4 C35.4479,6.21875 37.5938,7.32813 40.7188,7.32813 C41.1771,7.32813 41.5365,7.29688 41.7969,7.23438 L41.8906,7.23438 C42.4115,7.23438 42.6719,7.71875 42.6719,8.6875 C42.6719,9.92708 42.25,10.6771 41.4063,10.9375 C40.0417,11.3958 38.6094,11.625 37.1094,11.625 C33.8594,11.625 31.5156,10.5156 30.0781,8.29688 L26.1719,11.8125 C20.7031,16.5 16.2448,18.8438 12.7969,18.8438 C11.8802,18.8438 10.9375,18.6823 9.96875,18.3594 C9.1875,18.0365 8.27604,17.5469 7.23438,16.8906 C6.83854,16.7031 6.39583,16.4609 5.90625,16.1641 C5.41667,15.8672 5.10938,15.6875 4.98438,15.625 C4.66146,15.5 4.5,15.2083 4.5,14.75 C4.5,14.2292 4.76042,13.6094 5.28125,12.8906 C5.72917,12.2448 6.3125,11.9219 7.03125,11.9219 M28.8125,-54 C28.8125,-52.375 27.4115,-51.5625 24.6094,-51.5625 C22.1406,-51.5625 19.9948,-52.375 18.1719,-54 C16.4115,-55.6354 15.5313,-57.625 15.5313,-59.9688 C15.5313,-62.2396 16.2448,-64.1927 17.6719,-65.8281 C19.1719,-67.5156 21.0938,-68.7813 23.4375,-69.625 C25.5833,-70.4063 27.9948,-71.026 30.6719,-71.4844 C33.4635,-71.8073 36.1302,-71.9688 38.6719,-71.9688 C40.1719,-71.9688 42.974,-71.2865 47.0781,-69.9219 C51.2448,-68.5573 54.1406,-67.875 55.7656,-67.875 C57.7865,-67.875 59.7083,-68.2344 61.5313,-68.9531 C63.0208,-69.599 64.4531,-70.3438 65.8281,-71.1875 C66.9323,-71.9063 67.5469,-72.2656 67.6719,-72.2656 C68.2656,-72.2656 68.7865,-72.0729 69.2344,-71.6875 C69.7552,-71.1667 70.0156,-70.7396 70.0156,-70.4063 C70.0156,-69.9583 69.401,-69.2135 68.1719,-68.1719 C66.8698,-66.9948 65.013,-65.8203 62.6016,-64.6484 C60.1901,-63.4766 57.651,-62.8906 54.9844,-62.8906 C53.8073,-62.8906 52.3438,-63.0885 50.5938,-63.4844 C49.4792,-56.2552 48.3073,-49.8385 47.0781,-44.2344 C46.0365,-39.2865 43.9531,-34.9583 40.8281,-31.25 C37.8281,-27.5417 34.474,-25.6875 30.7656,-25.6875 C29.2656,-25.6875 27.9323,-25.9792 26.7656,-26.5625 C25.4635,-27.2188 24.0938,-28.1979 22.6563,-29.5 C21.4896,-30.4688 20.3854,-31.3438 19.3438,-32.125 C19.0833,-32.3229 18.9531,-32.6198 18.9531,-33.0156 C18.9531,-33.4635 19.2135,-34.0469 19.7344,-34.7656 C20.2552,-35.349 20.7396,-35.6406 21.1875,-35.6406 C21.5833,-35.6406 22.6927,-34.8281 24.5156,-33.2031 C26.3385,-31.5781 27.9635,-30.7656 29.3906,-30.7656 C31.9948,-30.7656 34.0156,-32.2604 35.4531,-35.25 C36.8802,-38.1875 37.6927,-41.7031 37.8906,-45.7969 C38.2135,-52.5052 38.9635,-59.4427 40.1406,-66.6094 C38.7031,-66.9323 37.6302,-67.0938 36.9219,-67.0938 C33.7969,-67.0938 31.125,-66.4427 28.9063,-65.1406 C26.6979,-63.901 25.5938,-62.2083 25.5938,-60.0625 C25.5938,-58.5 26.1146,-57.2969 27.1563,-56.4531 C28.2604,-55.5365 28.8125,-54.7188 28.8125,-54"/>
<path class="Clef" transform="matrix(0.566929,0,0,0.566929,28.5015,484.255)" d="M21.2969,33.9844 C21.2969,35.4219 20.1875,36.1406 17.9688,36.1406 C16.1458,36.1406 14.5833,35.5833 13.2813,34.4688 C11.9167,33.3646 11.2344,31.9323 11.2344,30.1719 C11.2344,26.9844 13.0885,24.4792 16.7969,22.6563 C20.7031,20.7708 25.0677,19.8281 29.8906,19.8281 C34.5052,19.8281 38.6042,20.4479 42.1875,21.6875 C45.5104,23.0521 47.1719,25.1667 47.1719,28.0313 C47.1719,31.5417 45.3177,34.4688 41.6094,36.8125 C47.0781,37.9271 49.8125,40.3698 49.8125,44.1406 C49.8125,47.2656 48.3438,50.1615 45.4063,52.8281 C42.5417,55.4323 39.1927,56.7344 35.3594,56.7344 C33.7969,56.7344 32.2344,56.3802 30.6719,55.6719 C29.2344,55.0156 28.1927,54.2969 27.5469,53.5156 C26.8906,52.9323 26.5625,52.3802 26.5625,51.8594 C26.5625,51.3385 26.8229,50.9167 27.3438,50.5938 C27.8021,50.1354 28.2917,49.9063 28.8125,49.9063 C29.0729,49.9063 29.5599,50.2318 30.2734,50.8828 C30.987,51.5339 31.9635,51.8594 33.2031,51.8594 C35.0885,51.8594 36.849,51.1406 38.4844,49.7031 C40.0469,48.2135 40.8281,46.4896 40.8281,44.5313 C40.8281,42.8438 40.0469,41.5417 38.4844,40.625 C36.9844,39.7813 35.0625,39.3594 32.7188,39.3594 C32.2604,39.3594 32.0313,38.9688 32.0313,38.1875 C32.0313,36.8854 32.5208,36.2344 33.5,36.2344 C34.9271,36.2344 36.1979,35.6146 37.3125,34.375 C38.4167,32.9479 38.9688,31.4844 38.9688,29.9844 C38.9688,26.7969 36.8542,24.8125 32.625,24.0313 L29.3906,41.6094 C28.5469,45.9635 26.9531,49.7396 24.6094,52.9375 C22.2031,56.125 19.5677,57.7188 16.7031,57.7188 C15.724,57.7188 14.8125,57.5208 13.9688,57.125 C13.1875,56.8021 12.2083,56.151 11.0313,55.1719 C9.72917,54.1302 9.04688,53.5781 8.98438,53.5156 C8.72396,53.2552 8.59375,53.026 8.59375,52.8281 C8.59375,52.4427 8.79167,51.9583 9.1875,51.375 C9.63542,50.9167 10.0885,50.6875 10.5469,50.6875 C10.7448,50.6875 11.526,51.1771 12.8906,52.1563 C13.9948,53.1979 15.1667,53.7188 16.4063,53.7188 C18.8125,53.7188 20.6042,52.2188 21.7813,49.2188 C22.9479,46.0938 23.5313,42.3854 23.5313,38.0938 L23.5313,37.4063 C23.5313,34.7396 23.9896,30.4115 24.9063,24.4219 C23.2083,25.0052 21.875,25.7865 20.9063,26.7656 C19.8646,27.8073 19.3438,28.8802 19.3438,29.9844 C19.3438,30.8906 19.6667,31.6406 20.3125,32.2344 C20.9688,32.8802 21.2969,33.4635 21.2969,33.9844 M5.5625,9.46875 C5.82292,9.46875 6.47396,9.76563 7.51563,10.3594 C8.69271,10.8802 9.57292,11.1406 10.1563,11.1406 C13.0208,11.1406 17.1875,7.75521 22.6563,0.984375 C28.0625,-5.66146 32,-12.6979 34.4688,-20.125 C35.0625,-22.0729 36.5938,-23.0469 39.0625,-23.0469 C40.3021,-23.0469 41.3438,-22.7865 42.1875,-22.2656 C43.1042,-21.8802 43.5625,-21.3281 43.5625,-20.6094 L42.1875,8.59375 C42.1875,10.2917 42.776,11.1406 43.9531,11.1406 C44.3385,11.1406 45.151,10.8802 46.3906,10.3594 C47.5573,9.76563 48.2083,9.46875 48.3438,9.46875 C48.8021,9.46875 49.0313,9.92708 49.0313,10.8438 C49.0313,11.625 48.7344,12.1146 48.1406,12.3125 C47.4323,12.6354 46.3594,13.1563 44.9219,13.875 C43.2969,14.7188 42.026,15.1406 41.1094,15.1406 C40.1406,15.1406 39.2292,14.7188 38.375,13.875 C37.5313,12.8333 36.7865,10.8125 36.1406,7.8125 C35.3594,4.82292 34.7708,0.588542 34.375,-4.89063 C32.3542,-2.21354 30.0781,0.489583 27.5469,3.21875 C28.5156,4.91667 30.5,5.76563 33.5,5.76563 C33.8854,5.76563 34.0781,6.1875 34.0781,7.03125 C34.0781,8.53125 32.5833,9.28125 29.5938,9.28125 C27.0521,9.28125 25.2292,8.40104 24.125,6.64063 L21,9.375 C16.7708,13.0208 13.1563,14.9115 10.1563,15.0469 C9.11458,15.0469 7.75,14.5885 6.0625,13.6719 C4.42708,12.8281 3.60938,12.2083 3.60938,11.8125 C3.60938,11.3646 3.80729,10.8802 4.20313,10.3594 C4.58854,9.76563 5.04167,9.46875 5.5625,9.46875 M23.0469,-43.1719 C23.0469,-41.9323 21.9427,-41.3125 19.7344,-41.3125 C17.776,-41.3125 16.0469,-41.9635 14.5469,-43.2656 C13.1198,-44.5052 12.4063,-46.099 12.4063,-48.0469 C12.4063,-49.8698 12.9583,-51.4323 14.0625,-52.7344 C15.3646,-54.1719 16.9271,-55.151 18.75,-55.6719 C20.0521,-56.1927 22.0052,-56.7135 24.6094,-57.2344 C27.349,-57.4948 29.4635,-57.625 30.9531,-57.625 C32.0677,-57.625 34.2839,-57.0703 37.6016,-55.9609 C40.9193,-54.8516 43.2604,-54.2969 44.625,-54.2969 C46.2604,-54.2969 47.7917,-54.5573 49.2188,-55.0781 C50.5833,-55.6615 51.6927,-56.25 52.5469,-56.8438 C53.3906,-57.4896 53.9115,-57.8125 54.1094,-57.8125 C54.4948,-57.8125 54.9167,-57.651 55.375,-57.3281 C55.7604,-57.0052 55.9531,-56.6771 55.9531,-56.3438 C55.9531,-56.0833 55.4688,-55.4688 54.5,-54.5 C53.3229,-53.4583 51.8229,-52.5469 50,-51.7656 C48.0521,-50.7865 46.0677,-50.2969 44.0469,-50.2969 C43.0052,-50.2969 41.8333,-50.4583 40.5313,-50.7813 C39.6146,-44.4063 38.6719,-39.2292 37.7031,-35.25 C36.849,-31.2813 35.1875,-27.8333 32.7188,-24.9063 C30.3125,-21.9792 27.6406,-20.5156 24.7031,-20.5156 C23.401,-20.5156 22.3281,-20.776 21.4844,-21.2969 C20.3802,-21.8177 19.276,-22.5625 18.1719,-23.5313 C17.1302,-24.5104 16.25,-25.2292 15.5313,-25.6875 C15.2708,-25.9479 15.1406,-26.1771 15.1406,-26.375 C15.1406,-26.8229 15.3021,-27.276 15.625,-27.7344 C15.9479,-28.2552 16.3698,-28.5156 16.8906,-28.5156 C17.151,-28.5156 18.0313,-27.8646 19.5313,-26.5625 C21.0313,-25.2604 22.3646,-24.6094 23.5313,-24.6094 C25.0938,-24.6094 26.3021,-25.1302 27.1563,-26.1719 C28.0625,-27.2135 28.776,-28.776 29.2969,-30.8594 C29.7552,-32.7448 30.0833,-34.8594 30.2813,-37.2031 C30.5417,-39.1615 30.8333,-41.8333 31.1563,-45.2188 C31.3542,-47.1042 31.6771,-49.8073 32.125,-53.3281 C31.0208,-53.5885 30.1458,-53.7188 29.5,-53.7188 C27.1563,-53.7188 25.0365,-53.1979 23.1406,-52.1563 C21.3906,-50.9792 20.5156,-49.6406 20.5156,-48.1406 C20.5156,-47.0365 20.9375,-46.0625 21.7813,-45.2188 C22.625,-44.375 23.0469,-43.6927 23.0469,-43.1719"/>
<path class="Clef" transform="matrix(0.566929,0,0,0.566929,28.5015,326.578)" d="M57.1328,-8.89063 C56.1589,-9.86979 55.6719,-11.0755 55.6719,-12.5078 C55.6719,-13.9401 56.1589,-15.1432 57.1328,-16.1172 C58.1068,-17.0911 59.3099,-17.5781 60.7422,-17.5781 C62.1745,-17.5781 63.3802,-17.0911 64.3594,-16.1172 C65.3385,-15.1432 65.8281,-13.9401 65.8281,-12.5078 C65.8281,-11.0755 65.3385,-9.86979 64.3594,-8.89063 C63.3802,-7.91146 62.1745,-7.42188 60.7422,-7.42188 C59.3099,-7.42188 58.1068,-7.91146 57.1328,-8.89063 M57.1328,16.1172 C56.1589,15.1432 55.6719,13.9401 55.6719,12.5078 C55.6719,11.0755 56.1589,9.86979 57.1328,8.89063 C58.1068,7.91146 59.3099,7.42188 60.7422,7.42188 C62.1745,7.42188 63.3802,7.91146 64.3594,8.89063 C65.3385,9.86979 65.8281,11.0755 65.8281,12.5078 C65.8281,13.9401 65.3385,15.1432 64.3594,16.1172 C63.3802,17.0911 62.1745,17.5781 60.7422,17.5781 C59.3099,17.5781 58.1068,17.0911 57.1328,16.1172 M23.25,-26.2656 C31.9063,-26.2656 39,-24.0885 44.5313,-19.7344 C49.875,-15.1719 52.5469,-8.98438 52.5469,-1.17188 C52.5469,4.09896 51.5052,8.91667 49.4219,13.2813 C47.4635,17.8438 44.8906,21.8802 41.7031,25.3906 C38.4427,28.974 34.5052,32.3594 29.8906,35.5469 C25.3906,38.6719 20.7656,41.474 16.0156,43.9531 C6.31771,48.8281 0.979167,51.2656 0,51.2656 C-0.84375,51.2656 -1.26563,50.8438 -1.26563,50 C-1.26563,49.6771 -1.13542,49.3854 -0.875,49.125 C2.44792,47.1667 6.51563,44.6615 11.3281,41.6094 C14.4531,39.5885 18.099,36.7865 22.2656,33.2031 C26.3073,29.8177 29.4323,26.6302 31.6406,23.6406 C33.9219,20.7031 36.0052,17.0573 37.8906,12.7031 C39.5156,8.33854 40.3281,4.03646 40.3281,-0.203125 C40.3281,-6.51563 38.7656,-12.0156 35.6406,-16.7031 C32.5156,-21.3906 28.3854,-23.7344 23.25,-23.7344 C19.6042,-23.7344 16.4792,-22.5625 13.875,-20.2188 C11.0729,-17.8125 9.05208,-14.7865 7.8125,-11.1406 C9.05208,-11.6615 10.1927,-11.9219 11.2344,-11.9219 C13.9635,-11.9219 16.3073,-10.9427 18.2656,-8.98438 C20.2135,-6.90104 21.1875,-4.52604 21.1875,-1.85938 C21.1875,0.942708 20.2448,3.45313 18.3594,5.67188 C16.3385,7.68229 13.9635,8.6875 11.2344,8.6875 C8.30729,8.6875 5.67188,7.68229 3.32813,5.67188 C1.10938,3.45313 0,0.942708 0,-1.85938 C0,-8.56771 2.28125,-14.2969 6.84375,-19.0469 C11.3333,-23.8594 16.8021,-26.2656 23.25,-26.2656"/>
<path class="Clef" transform="matrix(0.566929,0,0,0.566929,28.5015,206.105)" d="M36.3281,-7.32813 C33.3385,-7.32813 31.8438,-4.88542 31.8438,0 C31.8438,4.88542 33.3385,7.32813 36.3281,7.32813 C37.3073,7.32813 38.7396,6.80729 40.625,5.76563 C42.4479,4.72396 43.9479,4.20313 45.125,4.20313 C51.3021,4.20313 56.6719,6.1875 61.2344,10.1563 C65.724,14.2604 67.9688,19.2083 67.9688,25 C67.9688,41.6667 59.1458,50 41.5,50 C37.2708,50 33.6615,48.6354 30.6719,45.9063 C27.7344,43.1667 26.2656,39.8125 26.2656,35.8438 C26.2656,33.6979 27.0156,31.875 28.5156,30.375 C30.0156,28.875 31.8073,28.125 33.8906,28.125 C35.974,28.125 37.763,28.875 39.2578,30.375 C40.7526,31.875 41.5,33.6979 41.5,35.8438 C41.5,37.1458 40.6875,38.4167 39.0625,39.6563 C37.4375,40.8229 36.625,42.0573 36.625,43.3594 C36.625,44.5365 37.1146,45.4479 38.0938,46.0938 C39,46.8125 40.1354,47.1719 41.5,47.1719 C46.9063,47.1719 50.5859,45.3151 52.5391,41.6016 C54.4922,37.888 55.4688,32.3542 55.4688,25 C55.4688,19.3333 54.8854,15.0365 53.7188,12.1094 C52.4792,8.72396 49.6146,7.03125 45.125,7.03125 C41.7396,7.03125 38.875,8.49479 36.5313,11.4219 C34.3125,14.4219 33.2031,17.9063 33.2031,21.875 C33.2031,22.8542 32.7474,23.3438 31.8359,23.3438 C30.9245,23.3438 30.4688,22.8542 30.4688,21.875 C30.4688,14.125 27.6719,7.45313 22.0781,1.85938 L22.0781,49.0313 C22.0781,49.6771 21.75,50 21.0938,50 L19.0469,50 C18.3281,50 17.9688,49.6771 17.9688,49.0313 L17.9688,-49.0313 C17.9688,-49.6771 18.3281,-50 19.0469,-50 L21.0938,-50 C21.75,-50 22.0781,-49.6771 22.0781,-49.0313 L22.0781,-1.85938 C27.6719,-7.45313 30.4688,-14.125 30.4688,-21.875 C30.4688,-22.8542 30.9245,-23.3438 31.8359,-23.3438 C32.7474,-23.3438 33.2031,-22.8542 33.2031,-21.875 C33.2031,-17.9063 34.3125,-14.4219 36.5313,-11.4219 C38.875,-8.49479 41.7396,-7.03125 45.125,-7.03125 C49.6146,-7.03125 52.4792,-8.72396 53.7188,-12.1094 C54.8854,-15.0365 55.4688,-19.3333 55.4688,-25 C55.4688,-32.3542 54.4922,-37.888 52.5391,-41.6016 C50.5859,-45.3151 46.9063,-47.1719 41.5,-47.1719 C40.1354,-47.1719 39,-46.8125 38.0938,-46.0938 C37.1146,-45.5104 36.625,-44.599 36.625,-43.3594 C36.625,-42.0573 37.4375,-40.8229 39.0625,-39.6563 C40.6875,-38.4167 41.5,-37.1458 41.5,-35.8438 C41.5,-33.6979 40.7526,-31.875 39.2578,-30.375 C37.763,-28.875 35.974,-28.125 33.8906,-28.125 C31.8073,-28.125 30.0156,-28.875 28.5156,-30.375 C27.0156,-31.875 26.2656,-33.6979 26.2656,-35.8438 C26.2656,-39.8125 27.7344,-43.1667 30.6719,-45.9063 C33.6615,-48.6354 37.2708,-50 41.5,-50 C59.1458,-50 67.9688,-41.6667 67.9688,-25 C67.9688,-19.2083 65.724,-14.2604 61.2344,-10.1563 C56.6719,-6.1875 51.3021,-4.20313 45.125,-4.20313 C44.0104,-4.20313 42.5104,-4.72396 40.625,-5.76563 C38.7396,-6.80729 37.3073,-7.32813 36.3281,-7.32813 M12.8906,50 L0.984375,50 C0.328125,50 0,49.6771 0,49.0313 L0,-49.0313 C0,-49.6771 0.328125,-50 0.984375,-50 L12.8906,-50 C13.5469,-50 13.875,-49.6771 13.875,-49.0313 L13.875,49.0313 C13.875,49.6771 13.5469,50 12.8906,50"/>
<path class="Clef" transform="matrix(0.566929,0,0,0.566929,28.5015,85.6329)" d="M36.7188,-25.5938 C36.7188,-25.5938 36.9167,-25.5938 37.3125,-25.5938 C37.5729,-25.6563 37.7969,-25.6875 37.9844,-25.6875 C45.276,-25.6875 51.2656,-23.1146 55.9531,-17.9688 C60.6406,-12.8958 62.9844,-6.97396 62.9844,-0.203125 C62.9844,8.20313 59.5052,15.0417 52.5469,20.3125 C50.724,21.75 48.3438,22.9219 45.4063,23.8281 C45.7396,28.0573 45.9063,31.474 45.9063,34.0781 C45.9063,34.599 45.8385,36.4896 45.7031,39.75 C45.4427,45.8021 43.3594,51.0417 39.4531,55.4688 C35.6823,59.8333 30.9948,62.0156 25.3906,62.0156 C20.1198,62.0156 15.6302,60.1615 11.9219,56.4531 C8.20313,52.6719 6.34375,48.1146 6.34375,42.7813 C6.34375,39.9792 7.42188,37.599 9.57813,35.6406 C11.7865,33.6927 14.3542,32.7188 17.2813,32.7188 C19.8854,32.7188 22.0677,33.7292 23.8281,35.75 C25.651,37.6354 26.5625,39.9792 26.5625,42.7813 C26.5625,45.3125 25.651,47.4896 23.8281,49.3125 C22.0052,51.1354 19.8229,52.0469 17.2813,52.0469 C16.2396,52.0469 15.2344,51.8542 14.2656,51.4688 C17.1302,55.6979 20.9375,57.8125 25.6875,57.8125 C30.1771,57.8125 33.8542,55.9896 36.7188,52.3438 C39.7188,48.5729 41.349,44.1771 41.6094,39.1563 C41.7344,36.0313 41.7969,34.2448 41.7969,33.7969 C41.7969,30.151 41.6667,27.1563 41.4063,24.8125 C38.1563,25.3333 35.2604,25.5938 32.7188,25.5938 C23.6667,25.5938 15.9531,22.0104 9.57813,14.8438 C3.32813,7.61458 0.203125,-0.979167 0.203125,-10.9375 C0.203125,-13.0208 0.395833,-15.1354 0.78125,-17.2813 C1.17708,-19.0417 1.66667,-20.9635 2.25,-23.0469 C2.57292,-24.224 3.45313,-26.1146 4.89063,-28.7188 C5.41146,-29.5 5.9974,-30.4766 6.64844,-31.6484 C7.29948,-32.8203 7.75521,-33.599 8.01563,-33.9844 C8.66146,-35.2865 9.92708,-37.0469 11.8125,-39.2656 C12.3333,-39.849 12.8724,-40.4974 13.4297,-41.2109 C13.987,-41.9245 14.4609,-42.5104 14.8516,-42.9688 C15.2422,-43.4271 15.5339,-43.7865 15.7266,-44.0469 C15.9193,-44.3073 17.3854,-46.0313 20.125,-49.2188 C20.7708,-49.875 21.4036,-50.5755 22.0234,-51.3203 C22.6432,-52.0651 23.1484,-52.651 23.5391,-53.0781 C23.9297,-53.5052 24.224,-53.8125 24.4219,-54 C22.0781,-61.75 20.6094,-67.9375 20.0156,-72.5625 C19.5677,-76.2708 19.3438,-81.349 19.3438,-87.7969 C19.3438,-93.4635 20.6458,-98.7708 23.25,-103.719 C25.7813,-108.854 29.3281,-113.052 33.8906,-116.313 C34.151,-116.51 34.474,-116.609 34.8594,-116.609 C35.3177,-116.609 35.6458,-116.51 35.8438,-116.313 C39.3542,-112.083 42.3802,-106.583 44.9219,-99.8125 C47.526,-93.0417 48.8281,-86.8854 48.8281,-81.3438 C48.8281,-75.0938 47.3333,-69.2344 44.3438,-63.7656 C40.9583,-57.974 36.5938,-51.9844 31.25,-45.7969 C32.6146,-41.5052 34.4375,-34.7708 36.7188,-25.5938 M45.0156,19.8281 C48.401,18.5885 51.0417,16.474 52.9375,13.4844 C55.0208,10.6198 56.0625,7.39583 56.0625,3.8125 C56.0625,-0.8125 54.5,-4.91667 51.375,-8.5 C48.1771,-12.2083 44.1042,-14.2917 39.1563,-14.75 C41.9583,-1.01042 43.9115,10.5156 45.0156,19.8281 M7.23438,-2.73438 C7.23438,3.71354 9.83854,9.38021 15.0469,14.2656 C20.3802,19.0156 26.3698,21.3906 33.0156,21.3906 C35.7448,21.3906 38.4115,21.1927 41.0156,20.7969 C39.974,10.901 37.9219,-0.947917 34.8594,-14.75 C31.151,-14.3542 28.1927,-13.0521 25.9844,-10.8438 C23.8281,-8.5625 22.75,-5.98958 22.75,-3.125 C22.75,1.82292 25.3906,5.82813 30.6719,8.89063 C31.1198,9.34896 31.3438,9.83854 31.3438,10.3594 C31.3438,10.8802 31.1198,11.3646 30.6719,11.8125 C30.276,12.2708 29.7865,12.5 29.2031,12.5 C29.1406,12.5 28.849,12.4375 28.3281,12.3125 C24.6094,10.2917 21.7448,7.6875 19.7344,4.5 C17.8385,1.10417 16.8906,-2.31771 16.8906,-5.76563 C16.8906,-10.2552 18.2917,-14.3229 21.0938,-17.9688 C24.0208,-21.6146 27.8281,-23.9583 32.5156,-25 C30.6927,-32.2917 29.1979,-37.9896 28.0313,-42.0938 C26.9896,-40.9167 25.737,-39.5 24.2734,-37.8438 C22.8099,-36.1875 21.9479,-35.1927 21.6875,-34.8594 C19.3438,-31.8073 17.5521,-29.4323 16.3125,-27.7344 C14.0938,-24.6719 12.4635,-22.0365 11.4219,-19.8281 C10.3177,-17.349 9.34375,-14.6458 8.5,-11.7188 C7.65625,-8.91667 7.23438,-5.92188 7.23438,-2.73438 M39.8438,-102.047 C34.9583,-99.6406 31.1198,-96.1927 28.3281,-91.7031 C25.4635,-87.0781 24.0313,-82.099 24.0313,-76.7656 C24.0313,-72.0781 25.2031,-65.7604 27.5469,-57.8125 C32.2344,-63.4792 35.75,-68.7188 38.0938,-73.5313 C40.5625,-78.6146 41.7969,-83.9219 41.7969,-89.4531 C41.7969,-93.6198 41.1458,-97.8177 39.8438,-102.047"/>
</svg>
