<?xml version="1.0" encoding="UTF-8" standalone="no"?>
<svg width="637.794px" height="765.353px" viewBox="0 0 637.794 765.353"
 xmlns="http://www.w3.org/2000/svg" xmlns:xlink="http://www.w3.org/1999/xlink" version="1.2" baseProfile="tiny">
<title>harmonicmajor (90)</title>
<desc>Generated by MuseScore 3.4.2</desc>
<polyline class="StaffLines" fill="none" stroke="#000000" stroke-width="1.13" stroke-linejoin="bevel" points="14.1732,54.7087 623.621,54.7087"/>
<polyline class="StaffLines" fill="none" stroke="#000000" stroke-width="1.13" stroke-linejoin="bevel" points="14.1732,68.8819 623.621,68.8819"/>
<polyline class="StaffLines" fill="none" stroke="#000000" stroke-width="1.13" stroke-linejoin="bevel" points="14.1732,83.0551 623.621,83.0551"/>
<polyline class="StaffLines" fill="none" stroke="#000000" stroke-width="1.13" stroke-linejoin="bevel" points="14.1732,97.2284 623.621,97.2284"/>
<polyline class="StaffLines" fill="none" stroke="#000000" stroke-width="1.13" stroke-linejoin="bevel" points="14.1732,111.402 623.621,111.402"/>
<polyline class="StaffLines" fill="none" stroke="#000000" stroke-width="1.13" stroke-linejoin="bevel" points="14.1732,189.354 623.621,189.354"/>
<polyline class="StaffLines" fill="none" stroke="#000000" stroke-width="1.13" stroke-linejoin="bevel" points="14.1732,203.528 623.621,203.528"/>
<polyline class="StaffLines" fill="none" stroke="#000000" stroke-width="1.13" stroke-linejoin="bevel" points="14.1732,217.701 623.621,217.701"/>
<polyline class="StaffLines" fill="none" stroke="#000000" stroke-width="1.13" stroke-linejoin="bevel" points="14.1732,231.874 623.621,231.874"/>
<polyline class="StaffLines" fill="none" stroke="#000000" stroke-width="1.13" stroke-linejoin="bevel" points="14.1732,246.047 623.621,246.047"/>
<polyline class="StaffLines" fill="none" stroke="#000000" stroke-width="1.13" stroke-linejoin="bevel" points="14.1732,324 623.621,324"/>
<polyline class="StaffLines" fill="none" stroke="#000000" stroke-width="1.13" stroke-linejoin="bevel" points="14.1732,338.173 623.621,338.173"/>
<polyline class="StaffLines" fill="none" stroke="#000000" stroke-width="1.13" stroke-linejoin="bevel" points="14.1732,352.346 623.621,352.346"/>
<polyline class="StaffLines" fill="none" stroke="#000000" stroke-width="1.13" stroke-linejoin="bevel" points="14.1732,366.52 623.621,366.52"/>
<polyline class="StaffLines" fill="none" stroke="#000000" stroke-width="1.13" stroke-linejoin="bevel" points="14.1732,380.693 623.621,380.693"/>
<polyline class="StaffLines" fill="none" stroke="#000000" stroke-width="1.13" stroke-linejoin="bevel" points="14.1732,458.646 623.621,458.646"/>
<polyline class="StaffLines" fill="none" stroke="#000000" stroke-width="1.13" stroke-linejoin="bevel" points="14.1732,483.449 623.621,483.449"/>
<polyline class="StaffLines" fill="none" stroke="#000000" stroke-width="1.13" stroke-linejoin="bevel" points="14.1732,508.252 623.621,508.252"/>
<polyline class="StaffLines" fill="none" stroke="#000000" stroke-width="1.13" stroke-linejoin="bevel" points="14.1732,533.055 623.621,533.055"/>
<polyline class="StaffLines" fill="none" stroke="#000000" stroke-width="1.13" stroke-linejoin="bevel" points="14.1732,611.008 623.621,611.008"/>
<polyline class="StaffLines" fill="none" stroke="#000000" stroke-width="1.13" stroke-linejoin="bevel" points="14.1732,635.811 623.621,635.811"/>
<polyline class="StaffLines" fill="none" stroke="#000000" stroke-width="1.13" stroke-linejoin="bevel" points="14.1732,660.614 623.621,660.614"/>
<polyline class="StaffLines" fill="none" stroke="#000000" stroke-width="1.13" stroke-linejoin="bevel" points="14.1732,685.417 623.621,685.417"/>
<polyline class="StaffLines" fill="none" stroke="#000000" stroke-width="1.13" stroke-linejoin="bevel" points="14.1732,710.22 623.621,710.22"/>
<polyline class="StaffLines" fill="none" stroke="#000000" stroke-width="1.13" stroke-linejoin="bevel" points="14.1732,735.024 623.621,735.024"/>
<path class="Accidental" transform="matrix(0.566929,0,0,0.566929,102.818,373.606)" d="M4.59375,-4.10938 L4.59375,3.60938 C4.59375,6.34896 4.72396,8.53125 4.98438,10.1563 C7.13021,8.33333 8.66146,6.96875 9.57813,6.0625 C10.6198,5.02083 11.6615,3.58594 12.7031,1.75781 C13.7448,-0.0703125 14.2656,-1.89583 14.2656,-3.71875 C14.2656,-5.54167 13.875,-7.10417 13.0938,-8.40625 C12.3125,-9.70833 11.2708,-10.3594 9.96875,-10.3594 C8.40625,-10.3594 7.10417,-9.77083 6.0625,-8.59375 C5.08333,-7.29167 4.59375,-5.79688 4.59375,-4.10938 M0.484375,13.7656 L-0.78125,-45.7031 C0.135417,-46.224 1.04948,-46.4844 1.96094,-46.4844 C2.8724,-46.4844 3.78125,-46.224 4.6875,-45.7031 L3.90625,-11.2344 C6.57292,-13.5156 9.63542,-14.6563 13.0938,-14.6563 C15.625,-14.6563 17.737,-13.6146 19.4297,-11.5313 C21.1224,-9.44792 21.9688,-7.06771 21.9688,-4.39063 C21.9688,-2.70313 21.4167,-0.911458 20.3125,0.984375 C19.2708,2.73438 18.1667,4.09896 17,5.07813 C16.3438,5.59896 14.6823,6.90104 12.0156,8.98438 C11.2344,9.56771 10.3073,10.25 9.23438,11.0313 C8.16146,11.8125 7.49479,12.3021 7.23438,12.5 C6.77604,12.7604 6.34896,13.2813 5.95313,14.0625 C5.50521,14.7188 4.98438,15.2708 4.39063,15.7188 C3.94271,16.1146 3.39323,16.3125 2.74219,16.3125 C2.09115,16.3125 1.56771,16.0833 1.17188,15.625 C0.713542,15.1667 0.484375,14.5469 0.484375,13.7656"/>
<path class="Accidental" transform="matrix(0.566929,0,0,0.566929,156.528,366.52)" d="M21,-4.10938 L20.7969,3.60938 C20.7969,6.34896 20.9271,8.53125 21.1875,10.1563 C26.9896,5.27083 29.8906,0.645833 29.8906,-3.71875 C29.8906,-5.60417 29.5625,-7.16667 28.9063,-8.40625 C28.1875,-9.70833 27.1771,-10.3594 25.875,-10.3594 C24.3854,-10.3594 23.2135,-9.77083 22.3594,-8.59375 C21.5781,-7.42708 21.125,-5.93229 21,-4.10938 M16.7031,13.7656 L16.4063,3.21875 C14.9792,4.91667 13.1563,6.70833 10.9375,8.59375 C8.65625,10.6146 7.22396,11.9167 6.64063,12.5 C6.38021,12.7604 6.05729,13.2813 5.67188,14.0625 C5.01563,14.9792 4.55729,15.5313 4.29688,15.7188 C3.77604,16.1146 3.25521,16.3125 2.73438,16.3125 C2.08854,16.3125 1.56771,16.0833 1.17188,15.625 C0.713542,15.1667 0.484375,14.5469 0.484375,13.7656 L-0.78125,-45.7031 C0.135417,-46.224 1.04948,-46.4844 1.96094,-46.4844 C2.8724,-46.4844 3.78125,-46.224 4.6875,-45.7031 L3.90625,-11.2344 C5.79167,-13.5156 8.13542,-14.6563 10.9375,-14.6563 C12.9583,-14.6563 14.6823,-13.9375 16.1094,-12.5 L15.4375,-45.7031 C16.3438,-46.224 17.2526,-46.4844 18.1641,-46.4844 C19.0755,-46.4844 19.9896,-46.224 20.9063,-45.7031 L20.2188,-11.2344 C22.8854,-13.5156 25.7813,-14.6563 28.9063,-14.6563 C31.5104,-14.6563 33.724,-13.6458 35.5469,-11.625 C37.3073,-9.60417 38.1875,-7.22917 38.1875,-4.5 C38.1875,-2.67708 37.6354,-0.848958 36.5313,0.984375 C35.3542,2.73438 34.2448,4.06771 33.2031,4.98438 C32.099,5.89063 30.4063,7.19271 28.125,8.89063 C26.3021,10.2552 24.7396,11.4583 23.4375,12.5 C23.2396,12.6354 22.849,13.125 22.2656,13.9688 C21.8073,14.6146 21.2865,15.1667 20.7031,15.625 C20.2448,16.0833 19.6927,16.3125 19.0469,16.3125 C18.4635,16.3125 17.9115,16.0521 17.3906,15.5313 C16.9323,15.0729 16.7031,14.4844 16.7031,13.7656 M3.60938,3.60938 C3.60938,5.82813 3.77604,8.07813 4.10938,10.3594 C8.79688,5.79688 11.1406,1.10417 11.1406,-3.71875 C11.1406,-8.14583 10.0313,-10.3594 7.8125,-10.3594 C5.20833,-10.3594 3.875,-8.27604 3.8125,-4.10938 L3.60938,3.60938 "/>
<path class="Accidental" transform="matrix(0.566929,0,0,0.566929,291.386,352.346)" d="M4.59375,-4.10938 L4.59375,3.60938 C4.59375,6.34896 4.72396,8.53125 4.98438,10.1563 C7.13021,8.33333 8.66146,6.96875 9.57813,6.0625 C10.6198,5.02083 11.6615,3.58594 12.7031,1.75781 C13.7448,-0.0703125 14.2656,-1.89583 14.2656,-3.71875 C14.2656,-5.54167 13.875,-7.10417 13.0938,-8.40625 C12.3125,-9.70833 11.2708,-10.3594 9.96875,-10.3594 C8.40625,-10.3594 7.10417,-9.77083 6.0625,-8.59375 C5.08333,-7.29167 4.59375,-5.79688 4.59375,-4.10938 M0.484375,13.7656 L-0.78125,-45.7031 C0.135417,-46.224 1.04948,-46.4844 1.96094,-46.4844 C2.8724,-46.4844 3.78125,-46.224 4.6875,-45.7031 L3.90625,-11.2344 C6.57292,-13.5156 9.63542,-14.6563 13.0938,-14.6563 C15.625,-14.6563 17.737,-13.6146 19.4297,-11.5313 C21.1224,-9.44792 21.9688,-7.06771 21.9688,-4.39063 C21.9688,-2.70313 21.4167,-0.911458 20.3125,0.984375 C19.2708,2.73438 18.1667,4.09896 17,5.07813 C16.3438,5.59896 14.6823,6.90104 12.0156,8.98438 C11.2344,9.56771 10.3073,10.25 9.23438,11.0313 C8.16146,11.8125 7.49479,12.3021 7.23438,12.5 C6.77604,12.7604 6.34896,13.2813 5.95313,14.0625 C5.50521,14.7188 4.98438,15.2708 4.39063,15.7188 C3.94271,16.1146 3.39323,16.3125 2.74219,16.3125 C2.09115,16.3125 1.56771,16.0833 1.17188,15.625 C0.713542,15.1667 0.484375,14.5469 0.484375,13.7656"/>
<path class="Accidental" transform="matrix(0.566929,0,0,0.566929,354.242,345.26)" d="M4.59375,-4.10938 L4.59375,3.60938 C4.59375,6.34896 4.72396,8.53125 4.98438,10.1563 C7.13021,8.33333 8.66146,6.96875 9.57813,6.0625 C10.6198,5.02083 11.6615,3.58594 12.7031,1.75781 C13.7448,-0.0703125 14.2656,-1.89583 14.2656,-3.71875 C14.2656,-5.54167 13.875,-7.10417 13.0938,-8.40625 C12.3125,-9.70833 11.2708,-10.3594 9.96875,-10.3594 C8.40625,-10.3594 7.10417,-9.77083 6.0625,-8.59375 C5.08333,-7.29167 4.59375,-5.79688 4.59375,-4.10938 M0.484375,13.7656 L-0.78125,-45.7031 C0.135417,-46.224 1.04948,-46.4844 1.96094,-46.4844 C2.8724,-46.4844 3.78125,-46.224 4.6875,-45.7031 L3.90625,-11.2344 C6.57292,-13.5156 9.63542,-14.6563 13.0938,-14.6563 C15.625,-14.6563 17.737,-13.6146 19.4297,-11.5313 C21.1224,-9.44792 21.9688,-7.06771 21.9688,-4.39063 C21.9688,-2.70313 21.4167,-0.911458 20.3125,0.984375 C19.2708,2.73438 18.1667,4.09896 17,5.07813 C16.3438,5.59896 14.6823,6.90104 12.0156,8.98438 C11.2344,9.56771 10.3073,10.25 9.23438,11.0313 C8.16146,11.8125 7.49479,12.3021 7.23438,12.5 C6.77604,12.7604 6.34896,13.2813 5.95313,14.0625 C5.50521,14.7188 4.98438,15.2708 4.39063,15.7188 C3.94271,16.1146 3.39323,16.3125 2.74219,16.3125 C2.09115,16.3125 1.56771,16.0833 1.17188,15.625 C0.713542,15.1667 0.484375,14.5469 0.484375,13.7656"/>
<path class="Accidental" transform="matrix(0.566929,0,0,0.566929,479.953,331.087)" d="M4.59375,-4.10938 L4.59375,3.60938 C4.59375,6.34896 4.72396,8.53125 4.98438,10.1563 C7.13021,8.33333 8.66146,6.96875 9.57813,6.0625 C10.6198,5.02083 11.6615,3.58594 12.7031,1.75781 C13.7448,-0.0703125 14.2656,-1.89583 14.2656,-3.71875 C14.2656,-5.54167 13.875,-7.10417 13.0938,-8.40625 C12.3125,-9.70833 11.2708,-10.3594 9.96875,-10.3594 C8.40625,-10.3594 7.10417,-9.77083 6.0625,-8.59375 C5.08333,-7.29167 4.59375,-5.79688 4.59375,-4.10938 M0.484375,13.7656 L-0.78125,-45.7031 C0.135417,-46.224 1.04948,-46.4844 1.96094,-46.4844 C2.8724,-46.4844 3.78125,-46.224 4.6875,-45.7031 L3.90625,-11.2344 C6.57292,-13.5156 9.63542,-14.6563 13.0938,-14.6563 C15.625,-14.6563 17.737,-13.6146 19.4297,-11.5313 C21.1224,-9.44792 21.9688,-7.06771 21.9688,-4.39063 C21.9688,-2.70313 21.4167,-0.911458 20.3125,0.984375 C19.2708,2.73438 18.1667,4.09896 17,5.07813 C16.3438,5.59896 14.6823,6.90104 12.0156,8.98438 C11.2344,9.56771 10.3073,10.25 9.23438,11.0313 C8.16146,11.8125 7.49479,12.3021 7.23438,12.5 C6.77604,12.7604 6.34896,13.2813 5.95313,14.0625 C5.50521,14.7188 4.98438,15.2708 4.39063,15.7188 C3.94271,16.1146 3.39323,16.3125 2.74219,16.3125 C2.09115,16.3125 1.56771,16.0833 1.17188,15.625 C0.713542,15.1667 0.484375,14.5469 0.484375,13.7656"/>
<path class="Accidental" transform="matrix(0.566929,0,0,0.566929,542.809,324)" d="M4.59375,-4.10938 L4.59375,3.60938 C4.59375,6.34896 4.72396,8.53125 4.98438,10.1563 C7.13021,8.33333 8.66146,6.96875 9.57813,6.0625 C10.6198,5.02083 11.6615,3.58594 12.7031,1.75781 C13.7448,-0.0703125 14.2656,-1.89583 14.2656,-3.71875 C14.2656,-5.54167 13.875,-7.10417 13.0938,-8.40625 C12.3125,-9.70833 11.2708,-10.3594 9.96875,-10.3594 C8.40625,-10.3594 7.10417,-9.77083 6.0625,-8.59375 C5.08333,-7.29167 4.59375,-5.79688 4.59375,-4.10938 M0.484375,13.7656 L-0.78125,-45.7031 C0.135417,-46.224 1.04948,-46.4844 1.96094,-46.4844 C2.8724,-46.4844 3.78125,-46.224 4.6875,-45.7031 L3.90625,-11.2344 C6.57292,-13.5156 9.63542,-14.6563 13.0938,-14.6563 C15.625,-14.6563 17.737,-13.6146 19.4297,-11.5313 C21.1224,-9.44792 21.9688,-7.06771 21.9688,-4.39063 C21.9688,-2.70313 21.4167,-0.911458 20.3125,0.984375 C19.2708,2.73438 18.1667,4.09896 17,5.07813 C16.3438,5.59896 14.6823,6.90104 12.0156,8.98438 C11.2344,9.56771 10.3073,10.25 9.23438,11.0313 C8.16146,11.8125 7.49479,12.3021 7.23438,12.5 C6.77604,12.7604 6.34896,13.2813 5.95313,14.0625 C5.50521,14.7188 4.98438,15.2708 4.39063,15.7188 C3.94271,16.1146 3.39323,16.3125 2.74219,16.3125 C2.09115,16.3125 1.56771,16.0833 1.17188,15.625 C0.713542,15.1667 0.484375,14.5469 0.484375,13.7656"/>
<path class="Accidental" transform="matrix(0.566929,0,0,0.566929,102.818,231.874)" d="M4.59375,-4.10938 L4.59375,3.60938 C4.59375,6.34896 4.72396,8.53125 4.98438,10.1563 C7.13021,8.33333 8.66146,6.96875 9.57813,6.0625 C10.6198,5.02083 11.6615,3.58594 12.7031,1.75781 C13.7448,-0.0703125 14.2656,-1.89583 14.2656,-3.71875 C14.2656,-5.54167 13.875,-7.10417 13.0938,-8.40625 C12.3125,-9.70833 11.2708,-10.3594 9.96875,-10.3594 C8.40625,-10.3594 7.10417,-9.77083 6.0625,-8.59375 C5.08333,-7.29167 4.59375,-5.79688 4.59375,-4.10938 M0.484375,13.7656 L-0.78125,-45.7031 C0.135417,-46.224 1.04948,-46.4844 1.96094,-46.4844 C2.8724,-46.4844 3.78125,-46.224 4.6875,-45.7031 L3.90625,-11.2344 C6.57292,-13.5156 9.63542,-14.6563 13.0938,-14.6563 C15.625,-14.6563 17.737,-13.6146 19.4297,-11.5313 C21.1224,-9.44792 21.9688,-7.06771 21.9688,-4.39063 C21.9688,-2.70313 21.4167,-0.911458 20.3125,0.984375 C19.2708,2.73438 18.1667,4.09896 17,5.07813 C16.3438,5.59896 14.6823,6.90104 12.0156,8.98438 C11.2344,9.56771 10.3073,10.25 9.23438,11.0313 C8.16146,11.8125 7.49479,12.3021 7.23438,12.5 C6.77604,12.7604 6.34896,13.2813 5.95313,14.0625 C5.50521,14.7188 4.98438,15.2708 4.39063,15.7188 C3.94271,16.1146 3.39323,16.3125 2.74219,16.3125 C2.09115,16.3125 1.56771,16.0833 1.17188,15.625 C0.713542,15.1667 0.484375,14.5469 0.484375,13.7656"/>
<path class="Accidental" transform="matrix(0.566929,0,0,0.566929,156.528,224.787)" d="M21,-4.10938 L20.7969,3.60938 C20.7969,6.34896 20.9271,8.53125 21.1875,10.1563 C26.9896,5.27083 29.8906,0.645833 29.8906,-3.71875 C29.8906,-5.60417 29.5625,-7.16667 28.9063,-8.40625 C28.1875,-9.70833 27.1771,-10.3594 25.875,-10.3594 C24.3854,-10.3594 23.2135,-9.77083 22.3594,-8.59375 C21.5781,-7.42708 21.125,-5.93229 21,-4.10938 M16.7031,13.7656 L16.4063,3.21875 C14.9792,4.91667 13.1563,6.70833 10.9375,8.59375 C8.65625,10.6146 7.22396,11.9167 6.64063,12.5 C6.38021,12.7604 6.05729,13.2813 5.67188,14.0625 C5.01563,14.9792 4.55729,15.5313 4.29688,15.7188 C3.77604,16.1146 3.25521,16.3125 2.73438,16.3125 C2.08854,16.3125 1.56771,16.0833 1.17188,15.625 C0.713542,15.1667 0.484375,14.5469 0.484375,13.7656 L-0.78125,-45.7031 C0.135417,-46.224 1.04948,-46.4844 1.96094,-46.4844 C2.8724,-46.4844 3.78125,-46.224 4.6875,-45.7031 L3.90625,-11.2344 C5.79167,-13.5156 8.13542,-14.6563 10.9375,-14.6563 C12.9583,-14.6563 14.6823,-13.9375 16.1094,-12.5 L15.4375,-45.7031 C16.3438,-46.224 17.2526,-46.4844 18.1641,-46.4844 C19.0755,-46.4844 19.9896,-46.224 20.9063,-45.7031 L20.2188,-11.2344 C22.8854,-13.5156 25.7813,-14.6563 28.9063,-14.6563 C31.5104,-14.6563 33.724,-13.6458 35.5469,-11.625 C37.3073,-9.60417 38.1875,-7.22917 38.1875,-4.5 C38.1875,-2.67708 37.6354,-0.848958 36.5313,0.984375 C35.3542,2.73438 34.2448,4.06771 33.2031,4.98438 C32.099,5.89063 30.4063,7.19271 28.125,8.89063 C26.3021,10.2552 24.7396,11.4583 23.4375,12.5 C23.2396,12.6354 22.849,13.125 22.2656,13.9688 C21.8073,14.6146 21.2865,15.1667 20.7031,15.625 C20.2448,16.0833 19.6927,16.3125 19.0469,16.3125 C18.4635,16.3125 17.9115,16.0521 17.3906,15.5313 C16.9323,15.0729 16.7031,14.4844 16.7031,13.7656 M3.60938,3.60938 C3.60938,5.82813 3.77604,8.07813 4.10938,10.3594 C8.79688,5.79688 11.1406,1.10417 11.1406,-3.71875 C11.1406,-8.14583 10.0313,-10.3594 7.8125,-10.3594 C5.20833,-10.3594 3.875,-8.27604 3.8125,-4.10938 L3.60938,3.60938 "/>
<path class="Accidental" transform="matrix(0.566929,0,0,0.566929,291.386,210.614)" d="M4.59375,-4.10938 L4.59375,3.60938 C4.59375,6.34896 4.72396,8.53125 4.98438,10.1563 C7.13021,8.33333 8.66146,6.96875 9.57813,6.0625 C10.6198,5.02083 11.6615,3.58594 12.7031,1.75781 C13.7448,-0.0703125 14.2656,-1.89583 14.2656,-3.71875 C14.2656,-5.54167 13.875,-7.10417 13.0938,-8.40625 C12.3125,-9.70833 11.2708,-10.3594 9.96875,-10.3594 C8.40625,-10.3594 7.10417,-9.77083 6.0625,-8.59375 C5.08333,-7.29167 4.59375,-5.79688 4.59375,-4.10938 M0.484375,13.7656 L-0.78125,-45.7031 C0.135417,-46.224 1.04948,-46.4844 1.96094,-46.4844 C2.8724,-46.4844 3.78125,-46.224 4.6875,-45.7031 L3.90625,-11.2344 C6.57292,-13.5156 9.63542,-14.6563 13.0938,-14.6563 C15.625,-14.6563 17.737,-13.6146 19.4297,-11.5313 C21.1224,-9.44792 21.9688,-7.06771 21.9688,-4.39063 C21.9688,-2.70313 21.4167,-0.911458 20.3125,0.984375 C19.2708,2.73438 18.1667,4.09896 17,5.07813 C16.3438,5.59896 14.6823,6.90104 12.0156,8.98438 C11.2344,9.56771 10.3073,10.25 9.23438,11.0313 C8.16146,11.8125 7.49479,12.3021 7.23438,12.5 C6.77604,12.7604 6.34896,13.2813 5.95313,14.0625 C5.50521,14.7188 4.98438,15.2708 4.39063,15.7188 C3.94271,16.1146 3.39323,16.3125 2.74219,16.3125 C2.09115,16.3125 1.56771,16.0833 1.17188,15.625 C0.713542,15.1667 0.484375,14.5469 0.484375,13.7656"/>
<path class="Accidental" transform="matrix(0.566929,0,0,0.566929,354.242,203.528)" d="M4.59375,-4.10938 L4.59375,3.60938 C4.59375,6.34896 4.72396,8.53125 4.98438,10.1563 C7.13021,8.33333 8.66146,6.96875 9.57813,6.0625 C10.6198,5.02083 11.6615,3.58594 12.7031,1.75781 C13.7448,-0.0703125 14.2656,-1.89583 14.2656,-3.71875 C14.2656,-5.54167 13.875,-7.10417 13.0938,-8.40625 C12.3125,-9.70833 11.2708,-10.3594 9.96875,-10.3594 C8.40625,-10.3594 7.10417,-9.77083 6.0625,-8.59375 C5.08333,-7.29167 4.59375,-5.79688 4.59375,-4.10938 M0.484375,13.7656 L-0.78125,-45.7031 C0.135417,-46.224 1.04948,-46.4844 1.96094,-46.4844 C2.8724,-46.4844 3.78125,-46.224 4.6875,-45.7031 L3.90625,-11.2344 C6.57292,-13.5156 9.63542,-14.6563 13.0938,-14.6563 C15.625,-14.6563 17.737,-13.6146 19.4297,-11.5313 C21.1224,-9.44792 21.9688,-7.06771 21.9688,-4.39063 C21.9688,-2.70313 21.4167,-0.911458 20.3125,0.984375 C19.2708,2.73438 18.1667,4.09896 17,5.07813 C16.3438,5.59896 14.6823,6.90104 12.0156,8.98438 C11.2344,9.56771 10.3073,10.25 9.23438,11.0313 C8.16146,11.8125 7.49479,12.3021 7.23438,12.5 C6.77604,12.7604 6.34896,13.2813 5.95313,14.0625 C5.50521,14.7188 4.98438,15.2708 4.39063,15.7188 C3.94271,16.1146 3.39323,16.3125 2.74219,16.3125 C2.09115,16.3125 1.56771,16.0833 1.17188,15.625 C0.713542,15.1667 0.484375,14.5469 0.484375,13.7656"/>
<path class="Accidental" transform="matrix(0.566929,0,0,0.566929,479.953,189.354)" d="M4.59375,-4.10938 L4.59375,3.60938 C4.59375,6.34896 4.72396,8.53125 4.98438,10.1563 C7.13021,8.33333 8.66146,6.96875 9.57813,6.0625 C10.6198,5.02083 11.6615,3.58594 12.7031,1.75781 C13.7448,-0.0703125 14.2656,-1.89583 14.2656,-3.71875 C14.2656,-5.54167 13.875,-7.10417 13.0938,-8.40625 C12.3125,-9.70833 11.2708,-10.3594 9.96875,-10.3594 C8.40625,-10.3594 7.10417,-9.77083 6.0625,-8.59375 C5.08333,-7.29167 4.59375,-5.79688 4.59375,-4.10938 M0.484375,13.7656 L-0.78125,-45.7031 C0.135417,-46.224 1.04948,-46.4844 1.96094,-46.4844 C2.8724,-46.4844 3.78125,-46.224 4.6875,-45.7031 L3.90625,-11.2344 C6.57292,-13.5156 9.63542,-14.6563 13.0938,-14.6563 C15.625,-14.6563 17.737,-13.6146 19.4297,-11.5313 C21.1224,-9.44792 21.9688,-7.06771 21.9688,-4.39063 C21.9688,-2.70313 21.4167,-0.911458 20.3125,0.984375 C19.2708,2.73438 18.1667,4.09896 17,5.07813 C16.3438,5.59896 14.6823,6.90104 12.0156,8.98438 C11.2344,9.56771 10.3073,10.25 9.23438,11.0313 C8.16146,11.8125 7.49479,12.3021 7.23438,12.5 C6.77604,12.7604 6.34896,13.2813 5.95313,14.0625 C5.50521,14.7188 4.98438,15.2708 4.39063,15.7188 C3.94271,16.1146 3.39323,16.3125 2.74219,16.3125 C2.09115,16.3125 1.56771,16.0833 1.17188,15.625 C0.713542,15.1667 0.484375,14.5469 0.484375,13.7656"/>
<path class="Accidental" transform="matrix(0.566929,0,0,0.566929,542.809,182.268)" d="M4.59375,-4.10938 L4.59375,3.60938 C4.59375,6.34896 4.72396,8.53125 4.98438,10.1563 C7.13021,8.33333 8.66146,6.96875 9.57813,6.0625 C10.6198,5.02083 11.6615,3.58594 12.7031,1.75781 C13.7448,-0.0703125 14.2656,-1.89583 14.2656,-3.71875 C14.2656,-5.54167 13.875,-7.10417 13.0938,-8.40625 C12.3125,-9.70833 11.2708,-10.3594 9.96875,-10.3594 C8.40625,-10.3594 7.10417,-9.77083 6.0625,-8.59375 C5.08333,-7.29167 4.59375,-5.79688 4.59375,-4.10938 M0.484375,13.7656 L-0.78125,-45.7031 C0.135417,-46.224 1.04948,-46.4844 1.96094,-46.4844 C2.8724,-46.4844 3.78125,-46.224 4.6875,-45.7031 L3.90625,-11.2344 C6.57292,-13.5156 9.63542,-14.6563 13.0938,-14.6563 C15.625,-14.6563 17.737,-13.6146 19.4297,-11.5313 C21.1224,-9.44792 21.9688,-7.06771 21.9688,-4.39063 C21.9688,-2.70313 21.4167,-0.911458 20.3125,0.984375 C19.2708,2.73438 18.1667,4.09896 17,5.07813 C16.3438,5.59896 14.6823,6.90104 12.0156,8.98438 C11.2344,9.56771 10.3073,10.25 9.23438,11.0313 C8.16146,11.8125 7.49479,12.3021 7.23438,12.5 C6.77604,12.7604 6.34896,13.2813 5.95313,14.0625 C5.50521,14.7188 4.98438,15.2708 4.39063,15.7188 C3.94271,16.1146 3.39323,16.3125 2.74219,16.3125 C2.09115,16.3125 1.56771,16.0833 1.17188,15.625 C0.713542,15.1667 0.484375,14.5469 0.484375,13.7656"/>
<path class="Accidental" transform="matrix(0.566929,0,0,0.566929,102.818,90.1417)" d="M4.59375,-4.10938 L4.59375,3.60938 C4.59375,6.34896 4.72396,8.53125 4.98438,10.1563 C7.13021,8.33333 8.66146,6.96875 9.57813,6.0625 C10.6198,5.02083 11.6615,3.58594 12.7031,1.75781 C13.7448,-0.0703125 14.2656,-1.89583 14.2656,-3.71875 C14.2656,-5.54167 13.875,-7.10417 13.0938,-8.40625 C12.3125,-9.70833 11.2708,-10.3594 9.96875,-10.3594 C8.40625,-10.3594 7.10417,-9.77083 6.0625,-8.59375 C5.08333,-7.29167 4.59375,-5.79688 4.59375,-4.10938 M0.484375,13.7656 L-0.78125,-45.7031 C0.135417,-46.224 1.04948,-46.4844 1.96094,-46.4844 C2.8724,-46.4844 3.78125,-46.224 4.6875,-45.7031 L3.90625,-11.2344 C6.57292,-13.5156 9.63542,-14.6563 13.0938,-14.6563 C15.625,-14.6563 17.737,-13.6146 19.4297,-11.5313 C21.1224,-9.44792 21.9688,-7.06771 21.9688,-4.39063 C21.9688,-2.70313 21.4167,-0.911458 20.3125,0.984375 C19.2708,2.73438 18.1667,4.09896 17,5.07813 C16.3438,5.59896 14.6823,6.90104 12.0156,8.98438 C11.2344,9.56771 10.3073,10.25 9.23438,11.0313 C8.16146,11.8125 7.49479,12.3021 7.23438,12.5 C6.77604,12.7604 6.34896,13.2813 5.95313,14.0625 C5.50521,14.7188 4.98438,15.2708 4.39063,15.7188 C3.94271,16.1146 3.39323,16.3125 2.74219,16.3125 C2.09115,16.3125 1.56771,16.0833 1.17188,15.625 C0.713542,15.1667 0.484375,14.5469 0.484375,13.7656"/>
<path class="Accidental" transform="matrix(0.566929,0,0,0.566929,156.528,83.0551)" d="M21,-4.10938 L20.7969,3.60938 C20.7969,6.34896 20.9271,8.53125 21.1875,10.1563 C26.9896,5.27083 29.8906,0.645833 29.8906,-3.71875 C29.8906,-5.60417 29.5625,-7.16667 28.9063,-8.40625 C28.1875,-9.70833 27.1771,-10.3594 25.875,-10.3594 C24.3854,-10.3594 23.2135,-9.77083 22.3594,-8.59375 C21.5781,-7.42708 21.125,-5.93229 21,-4.10938 M16.7031,13.7656 L16.4063,3.21875 C14.9792,4.91667 13.1563,6.70833 10.9375,8.59375 C8.65625,10.6146 7.22396,11.9167 6.64063,12.5 C6.38021,12.7604 6.05729,13.2813 5.67188,14.0625 C5.01563,14.9792 4.55729,15.5313 4.29688,15.7188 C3.77604,16.1146 3.25521,16.3125 2.73438,16.3125 C2.08854,16.3125 1.56771,16.0833 1.17188,15.625 C0.713542,15.1667 0.484375,14.5469 0.484375,13.7656 L-0.78125,-45.7031 C0.135417,-46.224 1.04948,-46.4844 1.96094,-46.4844 C2.8724,-46.4844 3.78125,-46.224 4.6875,-45.7031 L3.90625,-11.2344 C5.79167,-13.5156 8.13542,-14.6563 10.9375,-14.6563 C12.9583,-14.6563 14.6823,-13.9375 16.1094,-12.5 L15.4375,-45.7031 C16.3438,-46.224 17.2526,-46.4844 18.1641,-46.4844 C19.0755,-46.4844 19.9896,-46.224 20.9063,-45.7031 L20.2188,-11.2344 C22.8854,-13.5156 25.7813,-14.6563 28.9063,-14.6563 C31.5104,-14.6563 33.724,-13.6458 35.5469,-11.625 C37.3073,-9.60417 38.1875,-7.22917 38.1875,-4.5 C38.1875,-2.67708 37.6354,-0.848958 36.5313,0.984375 C35.3542,2.73438 34.2448,4.06771 33.2031,4.98438 C32.099,5.89063 30.4063,7.19271 28.125,8.89063 C26.3021,10.2552 24.7396,11.4583 23.4375,12.5 C23.2396,12.6354 22.849,13.125 22.2656,13.9688 C21.8073,14.6146 21.2865,15.1667 20.7031,15.625 C20.2448,16.0833 19.6927,16.3125 19.0469,16.3125 C18.4635,16.3125 17.9115,16.0521 17.3906,15.5313 C16.9323,15.0729 16.7031,14.4844 16.7031,13.7656 M3.60938,3.60938 C3.60938,5.82813 3.77604,8.07813 4.10938,10.3594 C8.79688,5.79688 11.1406,1.10417 11.1406,-3.71875 C11.1406,-8.14583 10.0313,-10.3594 7.8125,-10.3594 C5.20833,-10.3594 3.875,-8.27604 3.8125,-4.10938 L3.60938,3.60938 "/>
<path class="Accidental" transform="matrix(0.566929,0,0,0.566929,291.386,68.8819)" d="M4.59375,-4.10938 L4.59375,3.60938 C4.59375,6.34896 4.72396,8.53125 4.98438,10.1563 C7.13021,8.33333 8.66146,6.96875 9.57813,6.0625 C10.6198,5.02083 11.6615,3.58594 12.7031,1.75781 C13.7448,-0.0703125 14.2656,-1.89583 14.2656,-3.71875 C14.2656,-5.54167 13.875,-7.10417 13.0938,-8.40625 C12.3125,-9.70833 11.2708,-10.3594 9.96875,-10.3594 C8.40625,-10.3594 7.10417,-9.77083 6.0625,-8.59375 C5.08333,-7.29167 4.59375,-5.79688 4.59375,-4.10938 M0.484375,13.7656 L-0.78125,-45.7031 C0.135417,-46.224 1.04948,-46.4844 1.96094,-46.4844 C2.8724,-46.4844 3.78125,-46.224 4.6875,-45.7031 L3.90625,-11.2344 C6.57292,-13.5156 9.63542,-14.6563 13.0938,-14.6563 C15.625,-14.6563 17.737,-13.6146 19.4297,-11.5313 C21.1224,-9.44792 21.9688,-7.06771 21.9688,-4.39063 C21.9688,-2.70313 21.4167,-0.911458 20.3125,0.984375 C19.2708,2.73438 18.1667,4.09896 17,5.07813 C16.3438,5.59896 14.6823,6.90104 12.0156,8.98438 C11.2344,9.56771 10.3073,10.25 9.23438,11.0313 C8.16146,11.8125 7.49479,12.3021 7.23438,12.5 C6.77604,12.7604 6.34896,13.2813 5.95313,14.0625 C5.50521,14.7188 4.98438,15.2708 4.39063,15.7188 C3.94271,16.1146 3.39323,16.3125 2.74219,16.3125 C2.09115,16.3125 1.56771,16.0833 1.17188,15.625 C0.713542,15.1667 0.484375,14.5469 0.484375,13.7656"/>
<path class="Accidental" transform="matrix(0.566929,0,0,0.566929,354.242,61.7953)" d="M4.59375,-4.10938 L4.59375,3.60938 C4.59375,6.34896 4.72396,8.53125 4.98438,10.1563 C7.13021,8.33333 8.66146,6.96875 9.57813,6.0625 C10.6198,5.02083 11.6615,3.58594 12.7031,1.75781 C13.7448,-0.0703125 14.2656,-1.89583 14.2656,-3.71875 C14.2656,-5.54167 13.875,-7.10417 13.0938,-8.40625 C12.3125,-9.70833 11.2708,-10.3594 9.96875,-10.3594 C8.40625,-10.3594 7.10417,-9.77083 6.0625,-8.59375 C5.08333,-7.29167 4.59375,-5.79688 4.59375,-4.10938 M0.484375,13.7656 L-0.78125,-45.7031 C0.135417,-46.224 1.04948,-46.4844 1.96094,-46.4844 C2.8724,-46.4844 3.78125,-46.224 4.6875,-45.7031 L3.90625,-11.2344 C6.57292,-13.5156 9.63542,-14.6563 13.0938,-14.6563 C15.625,-14.6563 17.737,-13.6146 19.4297,-11.5313 C21.1224,-9.44792 21.9688,-7.06771 21.9688,-4.39063 C21.9688,-2.70313 21.4167,-0.911458 20.3125,0.984375 C19.2708,2.73438 18.1667,4.09896 17,5.07813 C16.3438,5.59896 14.6823,6.90104 12.0156,8.98438 C11.2344,9.56771 10.3073,10.25 9.23438,11.0313 C8.16146,11.8125 7.49479,12.3021 7.23438,12.5 C6.77604,12.7604 6.34896,13.2813 5.95313,14.0625 C5.50521,14.7188 4.98438,15.2708 4.39063,15.7188 C3.94271,16.1146 3.39323,16.3125 2.74219,16.3125 C2.09115,16.3125 1.56771,16.0833 1.17188,15.625 C0.713542,15.1667 0.484375,14.5469 0.484375,13.7656"/>
<path class="Accidental" transform="matrix(0.566929,0,0,0.566929,479.953,47.6221)" d="M4.59375,-4.10938 L4.59375,3.60938 C4.59375,6.34896 4.72396,8.53125 4.98438,10.1563 C7.13021,8.33333 8.66146,6.96875 9.57813,6.0625 C10.6198,5.02083 11.6615,3.58594 12.7031,1.75781 C13.7448,-0.0703125 14.2656,-1.89583 14.2656,-3.71875 C14.2656,-5.54167 13.875,-7.10417 13.0938,-8.40625 C12.3125,-9.70833 11.2708,-10.3594 9.96875,-10.3594 C8.40625,-10.3594 7.10417,-9.77083 6.0625,-8.59375 C5.08333,-7.29167 4.59375,-5.79688 4.59375,-4.10938 M0.484375,13.7656 L-0.78125,-45.7031 C0.135417,-46.224 1.04948,-46.4844 1.96094,-46.4844 C2.8724,-46.4844 3.78125,-46.224 4.6875,-45.7031 L3.90625,-11.2344 C6.57292,-13.5156 9.63542,-14.6563 13.0938,-14.6563 C15.625,-14.6563 17.737,-13.6146 19.4297,-11.5313 C21.1224,-9.44792 21.9688,-7.06771 21.9688,-4.39063 C21.9688,-2.70313 21.4167,-0.911458 20.3125,0.984375 C19.2708,2.73438 18.1667,4.09896 17,5.07813 C16.3438,5.59896 14.6823,6.90104 12.0156,8.98438 C11.2344,9.56771 10.3073,10.25 9.23438,11.0313 C8.16146,11.8125 7.49479,12.3021 7.23438,12.5 C6.77604,12.7604 6.34896,13.2813 5.95313,14.0625 C5.50521,14.7188 4.98438,15.2708 4.39063,15.7188 C3.94271,16.1146 3.39323,16.3125 2.74219,16.3125 C2.09115,16.3125 1.56771,16.0833 1.17188,15.625 C0.713542,15.1667 0.484375,14.5469 0.484375,13.7656"/>
<path class="Accidental" transform="matrix(0.566929,0,0,0.566929,539.975,40.5354)" d="M4.59375,-4.10938 L4.59375,3.60938 C4.59375,6.34896 4.72396,8.53125 4.98438,10.1563 C7.13021,8.33333 8.66146,6.96875 9.57813,6.0625 C10.6198,5.02083 11.6615,3.58594 12.7031,1.75781 C13.7448,-0.0703125 14.2656,-1.89583 14.2656,-3.71875 C14.2656,-5.54167 13.875,-7.10417 13.0938,-8.40625 C12.3125,-9.70833 11.2708,-10.3594 9.96875,-10.3594 C8.40625,-10.3594 7.10417,-9.77083 6.0625,-8.59375 C5.08333,-7.29167 4.59375,-5.79688 4.59375,-4.10938 M0.484375,13.7656 L-0.78125,-45.7031 C0.135417,-46.224 1.04948,-46.4844 1.96094,-46.4844 C2.8724,-46.4844 3.78125,-46.224 4.6875,-45.7031 L3.90625,-11.2344 C6.57292,-13.5156 9.63542,-14.6563 13.0938,-14.6563 C15.625,-14.6563 17.737,-13.6146 19.4297,-11.5313 C21.1224,-9.44792 21.9688,-7.06771 21.9688,-4.39063 C21.9688,-2.70313 21.4167,-0.911458 20.3125,0.984375 C19.2708,2.73438 18.1667,4.09896 17,5.07813 C16.3438,5.59896 14.6823,6.90104 12.0156,8.98438 C11.2344,9.56771 10.3073,10.25 9.23438,11.0313 C8.16146,11.8125 7.49479,12.3021 7.23438,12.5 C6.77604,12.7604 6.34896,13.2813 5.95313,14.0625 C5.50521,14.7188 4.98438,15.2708 4.39063,15.7188 C3.94271,16.1146 3.39323,16.3125 2.74219,16.3125 C2.09115,16.3125 1.56771,16.0833 1.17188,15.625 C0.713542,15.1667 0.484375,14.5469 0.484375,13.7656"/>
<polyline class="LedgerLine" fill="none" stroke="#000000" stroke-width="2.27" stroke-linecap="square" stroke-linejoin="bevel" points="554.245,40.5354 581.409,40.5354"/>
<path class="Note" fill="#ffffff" fill-opacity="0.0" fill-rule="evenodd" d="M119.782,722.622 L138.49,722.622 L138.49,747.425 L119.782,747.425 L119.782,722.622 "/>
<path class="Note" d="M130.355,741.008 L121.98,741.008 L121.98,738.414 L130.996,725.914 L132.824,725.914 L132.824,738.805 L135.761,738.805 L135.761,741.008 L132.824,741.008 L132.824,745.774 L130.355,745.774 L130.355,741.008 M130.355,738.805 L130.355,730.117 L124.136,738.805 L130.355,738.805 "/>
<path class="Note" fill="#ffffff" fill-opacity="0.0" fill-rule="evenodd" d="M119.782,648.213 L138.49,648.213 L138.49,673.016 L119.782,673.016 L119.782,648.213 "/>
<path class="Note" d="M128.449,657.224 L124.058,657.224 L124.058,655.458 C125.964,655.218 127.207,654.882 127.785,654.45 C128.363,654.018 128.865,653.036 129.293,651.505 L130.918,651.505 L130.918,671.364 L128.449,671.364 L128.449,657.224 "/>
<path class="Note" fill="#ffffff" fill-opacity="0.0" fill-rule="evenodd" d="M182.637,697.819 L201.346,697.819 L201.346,722.622 L182.637,722.622 L182.637,697.819 "/>
<path class="Note" d="M185.258,711.361 C185.258,709.705 185.398,708.241 185.68,706.97 C185.961,705.7 186.315,704.705 186.742,703.986 C187.169,703.267 187.682,702.684 188.281,702.236 C188.88,701.788 189.456,701.489 190.008,701.338 C190.56,701.187 191.143,701.111 191.758,701.111 C196.091,701.111 198.258,704.585 198.258,711.533 C198.258,714.804 197.701,717.301 196.586,719.025 C195.471,720.749 193.862,721.611 191.758,721.611 C189.633,721.611 188.018,720.739 186.914,718.994 C185.81,717.249 185.258,714.705 185.258,711.361 M195.727,711.314 C195.727,705.97 194.401,703.299 191.75,703.299 C189.099,703.299 187.773,705.997 187.773,711.392 C187.773,716.84 189.081,719.564 191.695,719.564 C193.081,719.564 194.099,718.892 194.75,717.549 C195.401,716.205 195.727,714.127 195.727,711.314"/>
<path class="Note" fill="#ffffff" fill-opacity="0.0" fill-rule="evenodd" d="M182.637,648.213 L201.346,648.213 L201.346,673.016 L182.637,673.016 L182.637,648.213 "/>
<path class="Note" d="M185.461,658.395 C185.586,653.802 187.768,651.505 192.008,651.505 C193.893,651.505 195.425,652.046 196.602,653.13 C197.779,654.213 198.367,655.614 198.367,657.333 C198.367,659.802 196.966,661.802 194.164,663.333 L191.367,664.833 C190.148,665.489 189.279,666.125 188.758,666.739 C188.237,667.354 187.909,668.083 187.773,668.927 L198.227,668.927 L198.227,671.364 L185.008,671.364 C185.122,669.177 185.563,667.492 186.328,666.309 C187.094,665.127 188.513,663.948 190.586,662.77 L193.148,661.317 C194.94,660.286 195.836,658.979 195.836,657.395 C195.836,656.333 195.464,655.445 194.719,654.731 C193.974,654.018 193.044,653.661 191.93,653.661 C189.44,653.661 188.102,655.239 187.914,658.395 L185.461,658.395 "/>
<path class="Note" fill="#ffffff" fill-opacity="0.0" fill-rule="evenodd" d="M245.493,697.819 L264.202,697.819 L264.202,722.622 L245.493,722.622 L245.493,697.819 "/>
<path class="Note" d="M254.473,703.267 C253.056,703.267 252.083,703.655 251.551,704.431 C251.02,705.207 250.734,706.241 250.692,707.533 L248.223,707.533 C248.317,703.252 250.39,701.111 254.442,701.111 C256.327,701.111 257.806,701.598 258.879,702.572 C259.952,703.546 260.489,704.882 260.489,706.58 C260.489,708.59 259.567,709.96 257.723,710.689 C258.911,711.106 259.767,711.681 260.293,712.416 C260.819,713.15 261.083,714.153 261.083,715.424 C261.083,717.309 260.471,718.812 259.247,719.931 C258.023,721.051 256.395,721.611 254.364,721.611 C250.291,721.611 248.103,719.476 247.801,715.205 L250.27,715.205 C250.364,716.642 250.747,717.705 251.418,718.392 C252.09,719.08 253.098,719.424 254.442,719.424 C255.734,719.424 256.741,719.075 257.465,718.377 C258.189,717.679 258.551,716.705 258.551,715.455 C258.551,713.049 257.181,711.845 254.442,711.845 L253.411,711.877 L253.098,711.877 L253.098,709.767 C254.869,709.736 256.124,709.515 256.864,709.103 C257.603,708.692 257.973,707.877 257.973,706.658 C257.973,705.616 257.661,704.791 257.036,704.181 C256.411,703.572 255.556,703.267 254.473,703.267"/>
<path class="Note" fill="#ffffff" fill-opacity="0.0" fill-rule="evenodd" d="M245.493,623.409 L264.202,623.409 L264.202,648.213 L245.493,648.213 L245.493,623.409 "/>
<path class="Note" d="M254.161,632.42 L249.77,632.42 L249.77,630.655 C251.676,630.415 252.918,630.079 253.497,629.647 C254.075,629.215 254.577,628.233 255.004,626.702 L256.629,626.702 L256.629,646.561 L254.161,646.561 L254.161,632.42 "/>
<path class="Note" fill="#ffffff" fill-opacity="0.0" fill-rule="evenodd" d="M308.349,697.819 L327.058,697.819 L327.058,722.622 L308.349,722.622 L308.349,697.819 "/>
<path class="Note" d="M318.923,716.205 L310.548,716.205 L310.548,713.611 L319.563,701.111 L321.392,701.111 L321.392,714.002 L324.329,714.002 L324.329,716.205 L321.392,716.205 L321.392,720.97 L318.923,720.97 L318.923,716.205 M318.923,714.002 L318.923,705.314 L312.704,714.002 L318.923,714.002 "/>
<path class="Note" fill="#ffffff" fill-opacity="0.0" fill-rule="evenodd" d="M308.349,623.409 L327.058,623.409 L327.058,648.213 L308.349,648.213 L308.349,623.409 "/>
<path class="Note" d="M311.173,633.592 C311.298,628.999 313.48,626.702 317.72,626.702 C319.605,626.702 321.136,627.243 322.313,628.327 C323.49,629.41 324.079,630.811 324.079,632.53 C324.079,634.999 322.678,636.999 319.876,638.53 L317.079,640.03 C315.86,640.686 314.99,641.321 314.47,641.936 C313.949,642.551 313.621,643.28 313.485,644.124 L323.938,644.124 L323.938,646.561 L310.72,646.561 C310.834,644.374 311.274,642.689 312.04,641.506 C312.806,640.324 314.225,639.144 316.298,637.967 L318.86,636.514 C320.652,635.483 321.548,634.176 321.548,632.592 C321.548,631.53 321.175,630.642 320.431,629.928 C319.686,629.215 318.756,628.858 317.642,628.858 C315.152,628.858 313.813,630.436 313.626,633.592 L311.173,633.592 "/>
<path class="Note" fill="#ffffff" fill-opacity="0.0" fill-rule="evenodd" d="M371.205,673.016 L389.914,673.016 L389.914,697.819 L371.205,697.819 L371.205,673.016 "/>
<path class="Note" d="M379.872,682.027 L375.482,682.027 L375.482,680.261 C377.388,680.021 378.63,679.686 379.208,679.253 C379.786,678.821 380.289,677.839 380.716,676.308 L382.341,676.308 L382.341,696.167 L379.872,696.167 L379.872,682.027 "/>
<path class="Note" fill="#ffffff" fill-opacity="0.0" fill-rule="evenodd" d="M371.205,623.409 L389.914,623.409 L389.914,648.213 L371.205,648.213 L371.205,623.409 "/>
<path class="Note" d="M381.779,641.795 L373.404,641.795 L373.404,639.202 L382.419,626.702 L384.247,626.702 L384.247,639.592 L387.185,639.592 L387.185,641.795 L384.247,641.795 L384.247,646.561 L381.779,646.561 L381.779,641.795 M381.779,639.592 L381.779,630.905 L375.56,639.592 L381.779,639.592 "/>
<path class="Note" fill="#ffffff" fill-opacity="0.0" fill-rule="evenodd" d="M434.061,673.016 L452.77,673.016 L452.77,697.819 L434.061,697.819 L434.061,673.016 "/>
<path class="Note" d="M443.041,678.464 C441.624,678.464 440.65,678.852 440.119,679.628 C439.588,680.404 439.301,681.438 439.26,682.73 L436.791,682.73 C436.885,678.449 438.957,676.308 443.01,676.308 C444.895,676.308 446.374,676.795 447.447,677.769 C448.52,678.743 449.056,680.079 449.056,681.777 C449.056,683.787 448.135,685.157 446.291,685.886 C447.478,686.303 448.335,686.878 448.861,687.613 C449.387,688.347 449.65,689.35 449.65,690.62 C449.65,692.506 449.038,694.008 447.814,695.128 C446.59,696.248 444.963,696.808 442.931,696.808 C438.859,696.808 436.671,694.673 436.369,690.402 L438.838,690.402 C438.931,691.839 439.314,692.902 439.986,693.589 C440.658,694.277 441.666,694.62 443.01,694.62 C444.301,694.62 445.309,694.271 446.033,693.574 C446.757,692.876 447.119,691.902 447.119,690.652 C447.119,688.245 445.749,687.042 443.01,687.042 L441.978,687.074 L441.666,687.074 L441.666,684.964 C443.437,684.933 444.692,684.712 445.431,684.3 C446.171,683.889 446.541,683.074 446.541,681.855 C446.541,680.813 446.228,679.988 445.603,679.378 C444.978,678.769 444.124,678.464 443.041,678.464"/>
<path class="Note" fill="#ffffff" fill-opacity="0.0" fill-rule="evenodd" d="M434.061,598.606 L452.77,598.606 L452.77,623.409 L434.061,623.409 L434.061,598.606 "/>
<path class="Note" d="M442.728,607.617 L438.338,607.617 L438.338,605.852 C440.244,605.612 441.486,605.276 442.064,604.844 C442.642,604.412 443.145,603.43 443.572,601.899 L445.197,601.899 L445.197,621.758 L442.728,621.758 L442.728,607.617 "/>
<path class="Note" fill="#ffffff" fill-opacity="0.0" fill-rule="evenodd" d="M496.917,673.016 L515.626,673.016 L515.626,697.819 L496.917,697.819 L496.917,673.016 "/>
<path class="Note" d="M507.49,691.402 L499.115,691.402 L499.115,688.808 L508.131,676.308 L509.959,676.308 L509.959,689.199 L512.897,689.199 L512.897,691.402 L509.959,691.402 L509.959,696.167 L507.49,696.167 L507.49,691.402 M507.49,689.199 L507.49,680.511 L501.272,689.199 L507.49,689.199 "/>
<path class="Note" fill="#ffffff" fill-opacity="0.0" fill-rule="evenodd" d="M496.917,598.606 L515.626,598.606 L515.626,623.409 L496.917,623.409 L496.917,598.606 "/>
<path class="Note" d="M499.74,608.789 C499.865,604.195 502.048,601.899 506.287,601.899 C508.173,601.899 509.704,602.44 510.881,603.524 C512.058,604.607 512.647,606.008 512.647,607.727 C512.647,610.195 511.246,612.195 508.444,613.727 L505.647,615.227 C504.428,615.883 503.558,616.518 503.037,617.133 C502.517,617.747 502.188,618.477 502.053,619.32 L512.506,619.32 L512.506,621.758 L499.287,621.758 C499.402,619.57 499.842,617.885 500.608,616.703 C501.373,615.521 502.793,614.341 504.865,613.164 L507.428,611.711 C509.22,610.68 510.115,609.372 510.115,607.789 C510.115,606.727 509.743,605.839 508.998,605.125 C508.254,604.412 507.324,604.055 506.209,604.055 C503.72,604.055 502.381,605.633 502.194,608.789 L499.74,608.789 "/>
<path class="Note" fill="#ffffff" fill-opacity="0.0" fill-rule="evenodd" d="M559.773,648.213 L578.481,648.213 L578.481,673.016 L559.773,673.016 L559.773,648.213 "/>
<path class="Note" d="M568.44,657.224 L564.05,657.224 L564.05,655.458 C565.956,655.218 567.198,654.882 567.776,654.45 C568.354,654.018 568.857,653.036 569.284,651.505 L570.909,651.505 L570.909,671.364 L568.44,671.364 L568.44,657.224 "/>
<path class="Note" fill="#ffffff" fill-opacity="0.0" fill-rule="evenodd" d="M559.773,598.606 L578.481,598.606 L578.481,623.409 L559.773,623.409 L559.773,598.606 "/>
<path class="Note" d="M570.346,616.992 L561.971,616.992 L561.971,614.399 L570.987,601.899 L572.815,601.899 L572.815,614.789 L575.753,614.789 L575.753,616.992 L572.815,616.992 L572.815,621.758 L570.346,621.758 L570.346,616.992 M570.346,614.789 L570.346,606.102 L564.128,614.789 L570.346,614.789 "/>
<path class="Note" fill="#ffffff" fill-opacity="0.0" fill-rule="evenodd" d="M119.782,520.654 L138.49,520.654 L138.49,545.457 L119.782,545.457 L119.782,520.654 "/>
<path class="Note" d="M128.449,529.665 L124.058,529.665 L124.058,527.899 C125.964,527.659 127.207,527.323 127.785,526.891 C128.363,526.459 128.865,525.477 129.293,523.946 L130.918,523.946 L130.918,543.805 L128.449,543.805 L128.449,529.665 "/>
<path class="Note" fill="#ffffff" fill-opacity="0.0" fill-rule="evenodd" d="M119.782,495.85 L138.49,495.85 L138.49,520.654 L119.782,520.654 L119.782,495.85 "/>
<path class="Note" d="M122.402,509.955 C122.402,508.205 122.561,506.661 122.879,505.322 C123.196,503.984 123.592,502.934 124.066,502.174 C124.54,501.413 125.11,500.794 125.777,500.314 C126.444,499.835 127.071,499.52 127.66,499.369 C128.248,499.218 128.865,499.143 129.511,499.143 C131.022,499.143 132.277,499.601 133.277,500.518 C134.277,501.434 134.897,502.705 135.136,504.33 L132.683,504.33 C132.475,503.382 132.082,502.645 131.504,502.119 C130.925,501.593 130.204,501.33 129.339,501.33 C127.923,501.33 126.837,501.979 126.082,503.275 C125.326,504.572 124.938,506.434 124.918,508.861 C126.001,507.393 127.522,506.658 129.48,506.658 C131.261,506.658 132.72,507.247 133.855,508.424 C134.99,509.601 135.558,511.111 135.558,512.955 C135.558,514.893 134.949,516.492 133.73,517.752 C132.511,519.012 130.959,519.643 129.074,519.643 C124.626,519.643 122.402,516.413 122.402,509.955 M129.183,508.846 C127.964,508.846 126.972,509.231 126.207,510.002 C125.441,510.773 125.058,511.778 125.058,513.018 C125.058,514.278 125.441,515.333 126.207,516.182 C126.972,517.031 127.933,517.455 129.089,517.455 C130.235,517.455 131.181,517.051 131.925,516.244 C132.67,515.437 133.043,514.403 133.043,513.143 C133.043,511.82 132.696,510.773 132.004,510.002 C131.311,509.231 130.371,508.846 129.183,508.846"/>
<path class="Note" fill="#ffffff" fill-opacity="0.0" fill-rule="evenodd" d="M182.637,520.654 L201.346,520.654 L201.346,545.457 L182.637,545.457 L182.637,520.654 "/>
<path class="Note" d="M185.461,530.836 C185.586,526.243 187.768,523.946 192.008,523.946 C193.893,523.946 195.425,524.487 196.602,525.571 C197.779,526.654 198.367,528.055 198.367,529.774 C198.367,532.243 196.966,534.243 194.164,535.774 L191.367,537.274 C190.148,537.93 189.279,538.566 188.758,539.18 C188.237,539.795 187.909,540.524 187.773,541.368 L198.227,541.368 L198.227,543.805 L185.008,543.805 C185.122,541.618 185.563,539.933 186.328,538.75 C187.094,537.568 188.513,536.388 190.586,535.211 L193.148,533.758 C194.94,532.727 195.836,531.42 195.836,529.836 C195.836,528.774 195.464,527.886 194.719,527.172 C193.974,526.459 193.044,526.102 191.93,526.102 C189.44,526.102 188.102,527.68 187.914,530.836 L185.461,530.836 "/>
<path class="Note" fill="#ffffff" fill-opacity="0.0" fill-rule="evenodd" d="M182.637,471.047 L201.346,471.047 L201.346,495.85 L182.637,495.85 L182.637,471.047 "/>
<path class="Note" d="M185.258,484.589 C185.258,482.933 185.398,481.47 185.68,480.199 C185.961,478.928 186.315,477.933 186.742,477.214 C187.169,476.496 187.682,475.912 188.281,475.464 C188.88,475.017 189.456,474.717 190.008,474.566 C190.56,474.415 191.143,474.339 191.758,474.339 C196.091,474.339 198.258,477.813 198.258,484.761 C198.258,488.032 197.701,490.53 196.586,492.254 C195.471,493.977 193.862,494.839 191.758,494.839 C189.633,494.839 188.018,493.967 186.914,492.222 C185.81,490.477 185.258,487.933 185.258,484.589 M195.727,484.543 C195.727,479.199 194.401,476.527 191.75,476.527 C189.099,476.527 187.773,479.225 187.773,484.621 C187.773,490.069 189.081,492.793 191.695,492.793 C193.081,492.793 194.099,492.121 194.75,490.777 C195.401,489.433 195.727,487.355 195.727,484.543"/>
<path class="Note" fill="#ffffff" fill-opacity="0.0" fill-rule="evenodd" d="M245.493,520.654 L264.202,520.654 L264.202,545.457 L245.493,545.457 L245.493,520.654 "/>
<path class="Note" d="M260.239,523.946 L260.239,526.383 L251.973,526.383 L251.192,531.93 C252.296,531.128 253.52,530.727 254.864,530.727 C256.77,530.727 258.314,531.339 259.497,532.563 C260.679,533.787 261.27,535.378 261.27,537.336 C261.27,539.43 260.637,541.138 259.372,542.461 C258.106,543.784 256.473,544.446 254.473,544.446 C253.702,544.446 252.997,544.362 252.356,544.196 C251.715,544.029 251.184,543.829 250.762,543.594 C250.34,543.36 249.958,543.053 249.614,542.672 C249.27,542.292 249.01,541.956 248.833,541.665 C248.655,541.373 248.486,541.008 248.325,540.571 C248.163,540.133 248.064,539.831 248.028,539.665 C247.991,539.498 247.947,539.253 247.895,538.93 L250.348,538.93 C250.931,541.149 252.286,542.258 254.411,542.258 C255.754,542.258 256.814,541.849 257.59,541.032 C258.366,540.214 258.754,539.097 258.754,537.68 C258.754,536.201 258.361,535.037 257.575,534.188 C256.788,533.339 255.734,532.915 254.411,532.915 C253.65,532.915 252.999,533.05 252.458,533.321 C251.916,533.592 251.353,534.071 250.77,534.758 L248.504,534.758 L249.989,523.946 L260.239,523.946 "/>
<path class="Note" fill="#ffffff" fill-opacity="0.0" fill-rule="evenodd" d="M245.493,471.047 L264.202,471.047 L264.202,495.85 L245.493,495.85 L245.493,471.047 "/>
<path class="Note" d="M254.473,476.496 C253.056,476.496 252.083,476.884 251.551,477.66 C251.02,478.436 250.734,479.47 250.692,480.761 L248.223,480.761 C248.317,476.48 250.39,474.339 254.442,474.339 C256.327,474.339 257.806,474.826 258.879,475.8 C259.952,476.774 260.489,478.11 260.489,479.808 C260.489,481.819 259.567,483.188 257.723,483.918 C258.911,484.334 259.767,484.91 260.293,485.644 C260.819,486.379 261.083,487.381 261.083,488.652 C261.083,490.537 260.471,492.04 259.247,493.16 C258.023,494.28 256.395,494.839 254.364,494.839 C250.291,494.839 248.103,492.704 247.801,488.433 L250.27,488.433 C250.364,489.871 250.747,490.933 251.418,491.621 C252.09,492.308 253.098,492.652 254.442,492.652 C255.734,492.652 256.741,492.303 257.465,491.605 C258.189,490.907 258.551,489.933 258.551,488.683 C258.551,486.277 257.181,485.074 254.442,485.074 L253.411,485.105 L253.098,485.105 L253.098,482.996 C254.869,482.964 256.124,482.743 256.864,482.332 C257.603,481.92 257.973,481.105 257.973,479.886 C257.973,478.845 257.661,478.019 257.036,477.41 C256.411,476.8 255.556,476.496 254.473,476.496"/>
<path class="Note" fill="#ffffff" fill-opacity="0.0" fill-rule="evenodd" d="M308.349,520.654 L327.058,520.654 L327.058,545.457 L308.349,545.457 L308.349,520.654 "/>
<path class="Note" d="M310.97,534.758 C310.97,533.008 311.129,531.464 311.446,530.125 C311.764,528.787 312.16,527.737 312.634,526.977 C313.108,526.217 313.678,525.597 314.345,525.118 C315.011,524.638 315.639,524.323 316.227,524.172 C316.816,524.021 317.433,523.946 318.079,523.946 C319.589,523.946 320.845,524.404 321.845,525.321 C322.845,526.237 323.464,527.508 323.704,529.133 L321.251,529.133 C321.043,528.185 320.649,527.448 320.071,526.922 C319.493,526.396 318.772,526.133 317.907,526.133 C316.49,526.133 315.405,526.782 314.649,528.079 C313.894,529.375 313.506,531.237 313.485,533.665 C314.569,532.196 316.089,531.461 318.048,531.461 C319.829,531.461 321.287,532.05 322.423,533.227 C323.558,534.404 324.126,535.915 324.126,537.758 C324.126,539.696 323.517,541.295 322.298,542.555 C321.079,543.816 319.527,544.446 317.642,544.446 C313.194,544.446 310.97,541.217 310.97,534.758 M317.751,533.649 C316.532,533.649 315.54,534.034 314.774,534.805 C314.009,535.576 313.626,536.581 313.626,537.821 C313.626,539.081 314.009,540.136 314.774,540.985 C315.54,541.834 316.501,542.258 317.657,542.258 C318.803,542.258 319.748,541.855 320.493,541.047 C321.238,540.24 321.61,539.206 321.61,537.946 C321.61,536.623 321.264,535.576 320.571,534.805 C319.879,534.034 318.938,533.649 317.751,533.649"/>
<path class="Note" fill="#ffffff" fill-opacity="0.0" fill-rule="evenodd" d="M308.349,471.047 L327.058,471.047 L327.058,495.85 L308.349,495.85 L308.349,471.047 "/>
<path class="Note" d="M318.923,489.433 L310.548,489.433 L310.548,486.839 L319.563,474.339 L321.392,474.339 L321.392,487.23 L324.329,487.23 L324.329,489.433 L321.392,489.433 L321.392,494.199 L318.923,494.199 L318.923,489.433 M318.923,487.23 L318.923,478.543 L312.704,487.23 L318.923,487.23 "/>
<path class="Note" fill="#ffffff" fill-opacity="0.0" fill-rule="evenodd" d="M371.205,495.85 L389.914,495.85 L389.914,520.654 L371.205,520.654 L371.205,495.85 "/>
<path class="Note" d="M379.872,504.861 L375.482,504.861 L375.482,503.096 C377.388,502.856 378.63,502.52 379.208,502.088 C379.786,501.656 380.289,500.674 380.716,499.143 L382.341,499.143 L382.341,519.002 L379.872,519.002 L379.872,504.861 "/>
<path class="Note" fill="#ffffff" fill-opacity="0.0" fill-rule="evenodd" d="M371.205,471.047 L389.914,471.047 L389.914,495.85 L371.205,495.85 L371.205,471.047 "/>
<path class="Note" d="M373.826,485.152 C373.826,483.402 373.984,481.858 374.302,480.519 C374.62,479.181 375.016,478.131 375.49,477.371 C375.964,476.61 376.534,475.99 377.201,475.511 C377.867,475.032 378.495,474.717 379.083,474.566 C379.672,474.415 380.289,474.339 380.935,474.339 C382.445,474.339 383.701,474.798 384.701,475.714 C385.701,476.631 386.32,477.902 386.56,479.527 L384.107,479.527 C383.898,478.579 383.505,477.842 382.927,477.316 C382.349,476.79 381.628,476.527 380.763,476.527 C379.346,476.527 378.26,477.175 377.505,478.472 C376.75,479.769 376.362,481.631 376.341,484.058 C377.425,482.589 378.945,481.855 380.904,481.855 C382.685,481.855 384.143,482.444 385.279,483.621 C386.414,484.798 386.982,486.308 386.982,488.152 C386.982,490.089 386.372,491.688 385.154,492.949 C383.935,494.209 382.383,494.839 380.497,494.839 C376.05,494.839 373.826,491.61 373.826,485.152 M380.607,484.043 C379.388,484.043 378.396,484.428 377.63,485.199 C376.865,485.97 376.482,486.975 376.482,488.214 C376.482,489.475 376.865,490.53 377.63,491.379 C378.396,492.227 379.357,492.652 380.513,492.652 C381.659,492.652 382.604,492.248 383.349,491.441 C384.094,490.634 384.466,489.6 384.466,488.339 C384.466,487.017 384.12,485.97 383.427,485.199 C382.734,484.428 381.794,484.043 380.607,484.043"/>
<path class="Note" fill="#ffffff" fill-opacity="0.0" fill-rule="evenodd" d="M434.061,495.85 L452.77,495.85 L452.77,520.654 L434.061,520.654 L434.061,495.85 "/>
<path class="Note" d="M443.041,501.299 C441.624,501.299 440.65,501.687 440.119,502.463 C439.588,503.239 439.301,504.273 439.26,505.564 L436.791,505.564 C436.885,501.283 438.957,499.143 443.01,499.143 C444.895,499.143 446.374,499.63 447.447,500.604 C448.52,501.577 449.056,502.913 449.056,504.611 C449.056,506.622 448.135,507.992 446.291,508.721 C447.478,509.137 448.335,509.713 448.861,510.447 C449.387,511.182 449.65,512.184 449.65,513.455 C449.65,515.341 449.038,516.843 447.814,517.963 C446.59,519.083 444.963,519.643 442.931,519.643 C438.859,519.643 436.671,517.507 436.369,513.236 L438.838,513.236 C438.931,514.674 439.314,515.736 439.986,516.424 C440.658,517.111 441.666,517.455 443.01,517.455 C444.301,517.455 445.309,517.106 446.033,516.408 C446.757,515.71 447.119,514.736 447.119,513.486 C447.119,511.08 445.749,509.877 443.01,509.877 L441.978,509.908 L441.666,509.908 L441.666,507.799 C443.437,507.768 444.692,507.546 445.431,507.135 C446.171,506.723 446.541,505.908 446.541,504.689 C446.541,503.648 446.228,502.822 445.603,502.213 C444.978,501.604 444.124,501.299 443.041,501.299"/>
<path class="Note" fill="#ffffff" fill-opacity="0.0" fill-rule="evenodd" d="M434.061,446.244 L452.77,446.244 L452.77,471.047 L434.061,471.047 L434.061,446.244 "/>
<path class="Note" d="M442.728,455.255 L438.338,455.255 L438.338,453.489 C440.244,453.25 441.486,452.914 442.064,452.482 C442.642,452.049 443.145,451.068 443.572,449.536 L445.197,449.536 L445.197,469.396 L442.728,469.396 L442.728,455.255 "/>
<path class="Note" fill="#ffffff" fill-opacity="0.0" fill-rule="evenodd" d="M496.917,495.85 L515.626,495.85 L515.626,520.654 L496.917,520.654 L496.917,495.85 "/>
<path class="Note" d="M507.49,514.236 L499.115,514.236 L499.115,511.643 L508.131,499.143 L509.959,499.143 L509.959,512.033 L512.897,512.033 L512.897,514.236 L509.959,514.236 L509.959,519.002 L507.49,519.002 L507.49,514.236 M507.49,512.033 L507.49,503.346 L501.272,512.033 L507.49,512.033 "/>
<path class="Note" fill="#ffffff" fill-opacity="0.0" fill-rule="evenodd" d="M496.917,446.244 L515.626,446.244 L515.626,471.047 L496.917,471.047 L496.917,446.244 "/>
<path class="Note" d="M499.74,456.427 C499.865,451.833 502.048,449.536 506.287,449.536 C508.173,449.536 509.704,450.078 510.881,451.161 C512.058,452.245 512.647,453.646 512.647,455.364 C512.647,457.833 511.246,459.833 508.444,461.364 L505.647,462.864 C504.428,463.521 503.558,464.156 503.037,464.771 C502.517,465.385 502.188,466.114 502.053,466.958 L512.506,466.958 L512.506,469.396 L499.287,469.396 C499.402,467.208 499.842,465.523 500.608,464.341 C501.373,463.159 502.793,461.979 504.865,460.802 L507.428,459.349 C509.22,458.318 510.115,457.01 510.115,455.427 C510.115,454.364 509.743,453.476 508.998,452.763 C508.254,452.049 507.324,451.693 506.209,451.693 C503.72,451.693 502.381,453.271 502.194,456.427 L499.74,456.427 "/>
<path class="Note" fill="#ffffff" fill-opacity="0.0" fill-rule="evenodd" d="M559.773,495.85 L578.481,495.85 L578.481,520.654 L559.773,520.654 L559.773,495.85 "/>
<path class="Note" d="M562.393,509.955 C562.393,508.205 562.552,506.661 562.87,505.322 C563.188,503.984 563.583,502.934 564.057,502.174 C564.531,501.413 565.102,500.794 565.768,500.314 C566.435,499.835 567.063,499.52 567.651,499.369 C568.24,499.218 568.857,499.143 569.503,499.143 C571.013,499.143 572.268,499.601 573.268,500.518 C574.268,501.434 574.888,502.705 575.128,504.33 L572.675,504.33 C572.466,503.382 572.073,502.645 571.495,502.119 C570.917,501.593 570.195,501.33 569.331,501.33 C567.914,501.33 566.828,501.979 566.073,503.275 C565.318,504.572 564.93,506.434 564.909,508.861 C565.992,507.393 567.513,506.658 569.471,506.658 C571.253,506.658 572.711,507.247 573.846,508.424 C574.982,509.601 575.55,511.111 575.55,512.955 C575.55,514.893 574.94,516.492 573.721,517.752 C572.503,519.012 570.951,519.643 569.065,519.643 C564.617,519.643 562.393,516.413 562.393,509.955 M569.175,508.846 C567.956,508.846 566.964,509.231 566.198,510.002 C565.432,510.773 565.05,511.778 565.05,513.018 C565.05,514.278 565.432,515.333 566.198,516.182 C566.964,517.031 567.925,517.455 569.081,517.455 C570.227,517.455 571.172,517.051 571.917,516.244 C572.661,515.437 573.034,514.403 573.034,513.143 C573.034,511.82 572.688,510.773 571.995,510.002 C571.302,509.231 570.362,508.846 569.175,508.846"/>
<path class="Note" fill="#ffffff" fill-opacity="0.0" fill-rule="evenodd" d="M559.773,446.244 L578.481,446.244 L578.481,471.047 L559.773,471.047 L559.773,446.244 "/>
<path class="Note" d="M570.346,464.63 L561.971,464.63 L561.971,462.036 L570.987,449.536 L572.815,449.536 L572.815,462.427 L575.753,462.427 L575.753,464.63 L572.815,464.63 L572.815,469.396 L570.346,469.396 L570.346,464.63 M570.346,462.427 L570.346,453.739 L564.128,462.427 L570.346,462.427 "/>
<path class="Note" transform="matrix(0.566929,0,0,0.566929,118.506,373.606)" d="M21.9688,-13.7656 C25.0938,-13.7656 27.7344,-12.9531 29.8906,-11.3281 C31.901,-9.56771 32.9063,-7.35417 32.9063,-4.6875 C32.9063,-0.197917 30.599,4 25.9844,7.90625 C21.2969,11.8125 16.2813,13.7656 10.9375,13.7656 C7.8125,13.7656 5.17708,12.9531 3.03125,11.3281 C1.01042,9.56771 0,7.35417 0,4.6875 C0,0.197917 2.34375,-4 7.03125,-7.90625 C11.5938,-11.8125 16.5729,-13.7656 21.9688,-13.7656"/>
<path class="Note" transform="matrix(0.566929,0,0,0.566929,181.362,366.52)" d="M21.9688,-13.7656 C25.0938,-13.7656 27.7344,-12.9531 29.8906,-11.3281 C31.901,-9.56771 32.9063,-7.35417 32.9063,-4.6875 C32.9063,-0.197917 30.599,4 25.9844,7.90625 C21.2969,11.8125 16.2813,13.7656 10.9375,13.7656 C7.8125,13.7656 5.17708,12.9531 3.03125,11.3281 C1.01042,9.56771 0,7.35417 0,4.6875 C0,0.197917 2.34375,-4 7.03125,-7.90625 C11.5938,-11.8125 16.5729,-13.7656 21.9688,-13.7656"/>
<path class="Note" transform="matrix(0.566929,0,0,0.566929,244.218,359.433)" d="M21.9688,-13.7656 C25.0938,-13.7656 27.7344,-12.9531 29.8906,-11.3281 C31.901,-9.56771 32.9063,-7.35417 32.9063,-4.6875 C32.9063,-0.197917 30.599,4 25.9844,7.90625 C21.2969,11.8125 16.2813,13.7656 10.9375,13.7656 C7.8125,13.7656 5.17708,12.9531 3.03125,11.3281 C1.01042,9.56771 0,7.35417 0,4.6875 C0,0.197917 2.34375,-4 7.03125,-7.90625 C11.5938,-11.8125 16.5729,-13.7656 21.9688,-13.7656"/>
<path class="Note" transform="matrix(0.566929,0,0,0.566929,307.074,352.346)" d="M21.9688,-13.7656 C25.0938,-13.7656 27.7344,-12.9531 29.8906,-11.3281 C31.901,-9.56771 32.9063,-7.35417 32.9063,-4.6875 C32.9063,-0.197917 30.599,4 25.9844,7.90625 C21.2969,11.8125 16.2813,13.7656 10.9375,13.7656 C7.8125,13.7656 5.17708,12.9531 3.03125,11.3281 C1.01042,9.56771 0,7.35417 0,4.6875 C0,0.197917 2.34375,-4 7.03125,-7.90625 C11.5938,-11.8125 16.5729,-13.7656 21.9688,-13.7656"/>
<path class="Note" transform="matrix(0.566929,0,0,0.566929,369.93,345.26)" d="M21.9688,-13.7656 C25.0938,-13.7656 27.7344,-12.9531 29.8906,-11.3281 C31.901,-9.56771 32.9063,-7.35417 32.9063,-4.6875 C32.9063,-0.197917 30.599,4 25.9844,7.90625 C21.2969,11.8125 16.2813,13.7656 10.9375,13.7656 C7.8125,13.7656 5.17708,12.9531 3.03125,11.3281 C1.01042,9.56771 0,7.35417 0,4.6875 C0,0.197917 2.34375,-4 7.03125,-7.90625 C11.5938,-11.8125 16.5729,-13.7656 21.9688,-13.7656"/>
<path class="Note" transform="matrix(0.566929,0,0,0.566929,432.785,338.173)" d="M21.9688,-13.7656 C25.0938,-13.7656 27.7344,-12.9531 29.8906,-11.3281 C31.901,-9.56771 32.9063,-7.35417 32.9063,-4.6875 C32.9063,-0.197917 30.599,4 25.9844,7.90625 C21.2969,11.8125 16.2813,13.7656 10.9375,13.7656 C7.8125,13.7656 5.17708,12.9531 3.03125,11.3281 C1.01042,9.56771 0,7.35417 0,4.6875 C0,0.197917 2.34375,-4 7.03125,-7.90625 C11.5938,-11.8125 16.5729,-13.7656 21.9688,-13.7656"/>
<path class="Note" transform="matrix(0.566929,0,0,0.566929,495.641,331.087)" d="M21.9688,-13.7656 C25.0938,-13.7656 27.7344,-12.9531 29.8906,-11.3281 C31.901,-9.56771 32.9063,-7.35417 32.9063,-4.6875 C32.9063,-0.197917 30.599,4 25.9844,7.90625 C21.2969,11.8125 16.2813,13.7656 10.9375,13.7656 C7.8125,13.7656 5.17708,12.9531 3.03125,11.3281 C1.01042,9.56771 0,7.35417 0,4.6875 C0,0.197917 2.34375,-4 7.03125,-7.90625 C11.5938,-11.8125 16.5729,-13.7656 21.9688,-13.7656"/>
<path class="Note" transform="matrix(0.566929,0,0,0.566929,558.497,324)" d="M21.9688,-13.7656 C25.0938,-13.7656 27.7344,-12.9531 29.8906,-11.3281 C31.901,-9.56771 32.9063,-7.35417 32.9063,-4.6875 C32.9063,-0.197917 30.599,4 25.9844,7.90625 C21.2969,11.8125 16.2813,13.7656 10.9375,13.7656 C7.8125,13.7656 5.17708,12.9531 3.03125,11.3281 C1.01042,9.56771 0,7.35417 0,4.6875 C0,0.197917 2.34375,-4 7.03125,-7.90625 C11.5938,-11.8125 16.5729,-13.7656 21.9688,-13.7656"/>
<path class="Note" transform="matrix(0.566929,0,0,0.566929,118.506,231.874)" d="M21.9688,-13.7656 C25.0938,-13.7656 27.7344,-12.9531 29.8906,-11.3281 C31.901,-9.56771 32.9063,-7.35417 32.9063,-4.6875 C32.9063,-0.197917 30.599,4 25.9844,7.90625 C21.2969,11.8125 16.2813,13.7656 10.9375,13.7656 C7.8125,13.7656 5.17708,12.9531 3.03125,11.3281 C1.01042,9.56771 0,7.35417 0,4.6875 C0,0.197917 2.34375,-4 7.03125,-7.90625 C11.5938,-11.8125 16.5729,-13.7656 21.9688,-13.7656"/>
<path class="Note" transform="matrix(0.566929,0,0,0.566929,181.362,224.787)" d="M21.9688,-13.7656 C25.0938,-13.7656 27.7344,-12.9531 29.8906,-11.3281 C31.901,-9.56771 32.9063,-7.35417 32.9063,-4.6875 C32.9063,-0.197917 30.599,4 25.9844,7.90625 C21.2969,11.8125 16.2813,13.7656 10.9375,13.7656 C7.8125,13.7656 5.17708,12.9531 3.03125,11.3281 C1.01042,9.56771 0,7.35417 0,4.6875 C0,0.197917 2.34375,-4 7.03125,-7.90625 C11.5938,-11.8125 16.5729,-13.7656 21.9688,-13.7656"/>
<path class="Note" transform="matrix(0.566929,0,0,0.566929,244.218,217.701)" d="M21.9688,-13.7656 C25.0938,-13.7656 27.7344,-12.9531 29.8906,-11.3281 C31.901,-9.56771 32.9063,-7.35417 32.9063,-4.6875 C32.9063,-0.197917 30.599,4 25.9844,7.90625 C21.2969,11.8125 16.2813,13.7656 10.9375,13.7656 C7.8125,13.7656 5.17708,12.9531 3.03125,11.3281 C1.01042,9.56771 0,7.35417 0,4.6875 C0,0.197917 2.34375,-4 7.03125,-7.90625 C11.5938,-11.8125 16.5729,-13.7656 21.9688,-13.7656"/>
<path class="Note" transform="matrix(0.566929,0,0,0.566929,307.074,210.614)" d="M21.9688,-13.7656 C25.0938,-13.7656 27.7344,-12.9531 29.8906,-11.3281 C31.901,-9.56771 32.9063,-7.35417 32.9063,-4.6875 C32.9063,-0.197917 30.599,4 25.9844,7.90625 C21.2969,11.8125 16.2813,13.7656 10.9375,13.7656 C7.8125,13.7656 5.17708,12.9531 3.03125,11.3281 C1.01042,9.56771 0,7.35417 0,4.6875 C0,0.197917 2.34375,-4 7.03125,-7.90625 C11.5938,-11.8125 16.5729,-13.7656 21.9688,-13.7656"/>
<path class="Note" transform="matrix(0.566929,0,0,0.566929,369.93,203.528)" d="M21.9688,-13.7656 C25.0938,-13.7656 27.7344,-12.9531 29.8906,-11.3281 C31.901,-9.56771 32.9063,-7.35417 32.9063,-4.6875 C32.9063,-0.197917 30.599,4 25.9844,7.90625 C21.2969,11.8125 16.2813,13.7656 10.9375,13.7656 C7.8125,13.7656 5.17708,12.9531 3.03125,11.3281 C1.01042,9.56771 0,7.35417 0,4.6875 C0,0.197917 2.34375,-4 7.03125,-7.90625 C11.5938,-11.8125 16.5729,-13.7656 21.9688,-13.7656"/>
<path class="Note" transform="matrix(0.566929,0,0,0.566929,432.785,196.441)" d="M21.9688,-13.7656 C25.0938,-13.7656 27.7344,-12.9531 29.8906,-11.3281 C31.901,-9.56771 32.9063,-7.35417 32.9063,-4.6875 C32.9063,-0.197917 30.599,4 25.9844,7.90625 C21.2969,11.8125 16.2813,13.7656 10.9375,13.7656 C7.8125,13.7656 5.17708,12.9531 3.03125,11.3281 C1.01042,9.56771 0,7.35417 0,4.6875 C0,0.197917 2.34375,-4 7.03125,-7.90625 C11.5938,-11.8125 16.5729,-13.7656 21.9688,-13.7656"/>
<path class="Note" transform="matrix(0.566929,0,0,0.566929,495.641,189.354)" d="M21.9688,-13.7656 C25.0938,-13.7656 27.7344,-12.9531 29.8906,-11.3281 C31.901,-9.56771 32.9063,-7.35417 32.9063,-4.6875 C32.9063,-0.197917 30.599,4 25.9844,7.90625 C21.2969,11.8125 16.2813,13.7656 10.9375,13.7656 C7.8125,13.7656 5.17708,12.9531 3.03125,11.3281 C1.01042,9.56771 0,7.35417 0,4.6875 C0,0.197917 2.34375,-4 7.03125,-7.90625 C11.5938,-11.8125 16.5729,-13.7656 21.9688,-13.7656"/>
<path class="Note" transform="matrix(0.566929,0,0,0.566929,558.497,182.268)" d="M21.9688,-13.7656 C25.0938,-13.7656 27.7344,-12.9531 29.8906,-11.3281 C31.901,-9.56771 32.9063,-7.35417 32.9063,-4.6875 C32.9063,-0.197917 30.599,4 25.9844,7.90625 C21.2969,11.8125 16.2813,13.7656 10.9375,13.7656 C7.8125,13.7656 5.17708,12.9531 3.03125,11.3281 C1.01042,9.56771 0,7.35417 0,4.6875 C0,0.197917 2.34375,-4 7.03125,-7.90625 C11.5938,-11.8125 16.5729,-13.7656 21.9688,-13.7656"/>
<path class="Note" transform="matrix(0.566929,0,0,0.566929,118.506,90.1417)" d="M21.9688,-13.7656 C25.0938,-13.7656 27.7344,-12.9531 29.8906,-11.3281 C31.901,-9.56771 32.9063,-7.35417 32.9063,-4.6875 C32.9063,-0.197917 30.599,4 25.9844,7.90625 C21.2969,11.8125 16.2813,13.7656 10.9375,13.7656 C7.8125,13.7656 5.17708,12.9531 3.03125,11.3281 C1.01042,9.56771 0,7.35417 0,4.6875 C0,0.197917 2.34375,-4 7.03125,-7.90625 C11.5938,-11.8125 16.5729,-13.7656 21.9688,-13.7656"/>
<path class="Note" transform="matrix(0.566929,0,0,0.566929,181.362,83.0551)" d="M21.9688,-13.7656 C25.0938,-13.7656 27.7344,-12.9531 29.8906,-11.3281 C31.901,-9.56771 32.9063,-7.35417 32.9063,-4.6875 C32.9063,-0.197917 30.599,4 25.9844,7.90625 C21.2969,11.8125 16.2813,13.7656 10.9375,13.7656 C7.8125,13.7656 5.17708,12.9531 3.03125,11.3281 C1.01042,9.56771 0,7.35417 0,4.6875 C0,0.197917 2.34375,-4 7.03125,-7.90625 C11.5938,-11.8125 16.5729,-13.7656 21.9688,-13.7656"/>
<path class="Note" transform="matrix(0.566929,0,0,0.566929,244.218,75.9685)" d="M21.9688,-13.7656 C25.0938,-13.7656 27.7344,-12.9531 29.8906,-11.3281 C31.901,-9.56771 32.9063,-7.35417 32.9063,-4.6875 C32.9063,-0.197917 30.599,4 25.9844,7.90625 C21.2969,11.8125 16.2813,13.7656 10.9375,13.7656 C7.8125,13.7656 5.17708,12.9531 3.03125,11.3281 C1.01042,9.56771 0,7.35417 0,4.6875 C0,0.197917 2.34375,-4 7.03125,-7.90625 C11.5938,-11.8125 16.5729,-13.7656 21.9688,-13.7656"/>
<path class="Note" transform="matrix(0.566929,0,0,0.566929,307.074,68.8819)" d="M21.9688,-13.7656 C25.0938,-13.7656 27.7344,-12.9531 29.8906,-11.3281 C31.901,-9.56771 32.9063,-7.35417 32.9063,-4.6875 C32.9063,-0.197917 30.599,4 25.9844,7.90625 C21.2969,11.8125 16.2813,13.7656 10.9375,13.7656 C7.8125,13.7656 5.17708,12.9531 3.03125,11.3281 C1.01042,9.56771 0,7.35417 0,4.6875 C0,0.197917 2.34375,-4 7.03125,-7.90625 C11.5938,-11.8125 16.5729,-13.7656 21.9688,-13.7656"/>
<path class="Note" transform="matrix(0.566929,0,0,0.566929,369.93,61.7953)" d="M21.9688,-13.7656 C25.0938,-13.7656 27.7344,-12.9531 29.8906,-11.3281 C31.901,-9.56771 32.9063,-7.35417 32.9063,-4.6875 C32.9063,-0.197917 30.599,4 25.9844,7.90625 C21.2969,11.8125 16.2813,13.7656 10.9375,13.7656 C7.8125,13.7656 5.17708,12.9531 3.03125,11.3281 C1.01042,9.56771 0,7.35417 0,4.6875 C0,0.197917 2.34375,-4 7.03125,-7.90625 C11.5938,-11.8125 16.5729,-13.7656 21.9688,-13.7656"/>
<path class="Note" transform="matrix(0.566929,0,0,0.566929,432.785,54.7087)" d="M21.9688,-13.7656 C25.0938,-13.7656 27.7344,-12.9531 29.8906,-11.3281 C31.901,-9.56771 32.9063,-7.35417 32.9063,-4.6875 C32.9063,-0.197917 30.599,4 25.9844,7.90625 C21.2969,11.8125 16.2813,13.7656 10.9375,13.7656 C7.8125,13.7656 5.17708,12.9531 3.03125,11.3281 C1.01042,9.56771 0,7.35417 0,4.6875 C0,0.197917 2.34375,-4 7.03125,-7.90625 C11.5938,-11.8125 16.5729,-13.7656 21.9688,-13.7656"/>
<path class="Note" transform="matrix(0.566929,0,0,0.566929,495.641,47.6221)" d="M21.9688,-13.7656 C25.0938,-13.7656 27.7344,-12.9531 29.8906,-11.3281 C31.901,-9.56771 32.9063,-7.35417 32.9063,-4.6875 C32.9063,-0.197917 30.599,4 25.9844,7.90625 C21.2969,11.8125 16.2813,13.7656 10.9375,13.7656 C7.8125,13.7656 5.17708,12.9531 3.03125,11.3281 C1.01042,9.56771 0,7.35417 0,4.6875 C0,0.197917 2.34375,-4 7.03125,-7.90625 C11.5938,-11.8125 16.5729,-13.7656 21.9688,-13.7656"/>
<path class="Note" transform="matrix(0.566929,0,0,0.566929,558.497,40.5354)" d="M21.9688,-13.7656 C25.0938,-13.7656 27.7344,-12.9531 29.8906,-11.3281 C31.901,-9.56771 32.9063,-7.35417 32.9063,-4.6875 C32.9063,-0.197917 30.599,4 25.9844,7.90625 C21.2969,11.8125 16.2813,13.7656 10.9375,13.7656 C7.8125,13.7656 5.17708,12.9531 3.03125,11.3281 C1.01042,9.56771 0,7.35417 0,4.6875 C0,0.197917 2.34375,-4 7.03125,-7.90625 C11.5938,-11.8125 16.5729,-13.7656 21.9688,-13.7656"/>
<path class="Clef" transform="matrix(0.566929,0,0,0.566929,28.5015,673.016)" d="M26.6563,42.4844 C26.6563,44.3073 25.224,45.2188 22.3594,45.2188 C20.0885,45.2188 18.1042,44.5365 16.4063,43.1719 C14.7813,41.7344 13.9688,39.9115 13.9688,37.7031 C13.9688,33.7969 16.3438,30.6719 21.0938,28.3281 C25.7188,25.9115 31.1563,24.7031 37.4063,24.7031 C39.8125,24.7031 42.3854,24.8698 45.125,25.2031 C47.1354,25.4635 49.3802,25.9844 51.8594,26.7656 C54.0677,27.474 55.7917,28.5443 57.0313,29.9766 C58.2708,31.4089 58.8906,33.0729 58.8906,34.9688 C58.8906,39.4583 56.5781,43.1354 51.9531,46 C58.724,47.2396 62.1406,50.2656 62.2031,55.0781 C62.2031,59.1198 60.3802,62.7682 56.7344,66.0234 C53.0885,69.2786 48.9583,70.9063 44.3438,70.9063 C42.3854,70.9063 40.3958,70.4479 38.375,69.5313 C36.4896,68.625 35.1563,67.7813 34.375,67 C33.5938,66.0833 33.2031,65.3958 33.2031,64.9375 C33.2031,64.2917 33.5313,63.7396 34.1875,63.2813 C34.7708,62.6979 35.3854,62.4063 36.0313,62.4063 C36.2917,62.4063 36.8464,62.8281 37.6953,63.6719 C38.5443,64.5156 39.7813,64.9375 41.4063,64.9375 C43.625,64.9375 45.776,63.9948 47.8594,62.1094 C49.8698,60.2865 50.875,58.1042 50.875,55.5625 C50.875,53.3542 49.9323,51.7604 48.0469,50.7813 C46.1615,49.8021 43.7552,49.3125 40.8281,49.3125 C40.3073,49.3125 40.0469,48.7604 40.0469,47.6563 C40.0469,46.0938 40.6302,45.3125 41.7969,45.3125 C43.6198,45.3125 45.25,44.5313 46.6875,42.9688 C48.0521,41.2813 48.7344,39.4896 48.7344,37.5938 C48.7344,37.0104 48.5729,36.1354 48.25,34.9688 C47.9896,34.1875 47.2083,33.2396 45.9063,32.125 C44.6667,31.0833 42.9375,30.3698 40.7188,29.9844 C40.1354,33.1719 39.4036,37.2396 38.5234,42.1875 C37.6432,47.1354 37.0417,50.3906 36.7188,51.9531 C35.6146,57.5573 33.599,62.276 30.6719,66.1094 C27.6094,70.151 24.3177,72.1719 20.7969,72.1719 C19.6927,72.1719 18.5573,71.9115 17.3906,71.3906 C16.474,70.9948 15.3021,70.1823 13.875,68.9531 C12.5729,67.9115 11.6927,67.224 11.2344,66.8906 C10.974,66.7031 10.8438,66.4115 10.8438,66.0156 C10.8438,65.3698 11.0729,64.7865 11.5313,64.2656 C12.0521,63.6719 12.6042,63.375 13.1875,63.375 C13.5729,63.375 14.4818,63.9948 15.9141,65.2344 C17.3464,66.474 18.8438,67.0938 20.4063,67.0938 C23.4063,67.0938 25.6563,65.1719 27.1563,61.3281 C28.5833,57.6198 29.2969,53.0313 29.2969,47.5625 L29.2969,46.7813 C29.2969,43.1354 29.8854,37.6979 31.0625,30.4688 C28.9792,31.125 27.3177,32.1042 26.0781,33.4063 C24.776,34.7083 24.125,36.0729 24.125,37.5 C24.125,38.6042 24.5469,39.5469 25.3906,40.3281 C26.2344,41.1094 26.6563,41.8281 26.6563,42.4844 M7.03125,11.9219 C7.35417,11.9219 8.13542,12.2448 9.375,12.8906 C10.6771,13.5469 11.7865,13.875 12.7031,13.875 C15.1719,13.875 18.1979,12.0833 21.7813,8.5 C32.1354,-2.05208 39.2656,-13.25 43.1719,-25.0938 C43.9531,-27.5729 45.8698,-28.8125 48.9219,-28.8125 C50.4844,-28.8125 51.8229,-28.4844 52.9375,-27.8281 C54.0417,-27.1198 54.5938,-26.4063 54.5938,-25.6875 L52.8281,10.8438 C52.8281,12.7917 53.5156,13.7656 54.8906,13.7656 C55.599,13.7656 56.6406,13.4427 58.0156,12.7969 C59.3177,12.1406 60.099,11.8125 60.3594,11.8125 C60.8802,11.8125 61.2031,12.3698 61.3281,13.4844 C61.3281,14.526 60.9063,15.1771 60.0625,15.4375 C59.4063,15.625 58.1042,16.2396 56.1563,17.2813 C54.1354,18.3229 52.5417,18.8438 51.375,18.8438 C48.8958,18.8438 47.1354,16.8906 46.0938,12.9844 C44.4688,6.86979 43.4271,0.520833 42.9688,-6.0625 C40.3646,-2.73958 37.4688,0.614583 34.2813,4 C35.4479,6.21875 37.5938,7.32813 40.7188,7.32813 C41.1771,7.32813 41.5365,7.29688 41.7969,7.23438 L41.8906,7.23438 C42.4115,7.23438 42.6719,7.71875 42.6719,8.6875 C42.6719,9.92708 42.25,10.6771 41.4063,10.9375 C40.0417,11.3958 38.6094,11.625 37.1094,11.625 C33.8594,11.625 31.5156,10.5156 30.0781,8.29688 L26.1719,11.8125 C20.7031,16.5 16.2448,18.8438 12.7969,18.8438 C11.8802,18.8438 10.9375,18.6823 9.96875,18.3594 C9.1875,18.0365 8.27604,17.5469 7.23438,16.8906 C6.83854,16.7031 6.39583,16.4609 5.90625,16.1641 C5.41667,15.8672 5.10938,15.6875 4.98438,15.625 C4.66146,15.5 4.5,15.2083 4.5,14.75 C4.5,14.2292 4.76042,13.6094 5.28125,12.8906 C5.72917,12.2448 6.3125,11.9219 7.03125,11.9219 M28.8125,-54 C28.8125,-52.375 27.4115,-51.5625 24.6094,-51.5625 C22.1406,-51.5625 19.9948,-52.375 18.1719,-54 C16.4115,-55.6354 15.5313,-57.625 15.5313,-59.9688 C15.5313,-62.2396 16.2448,-64.1927 17.6719,-65.8281 C19.1719,-67.5156 21.0938,-68.7813 23.4375,-69.625 C25.5833,-70.4063 27.9948,-71.026 30.6719,-71.4844 C33.4635,-71.8073 36.1302,-71.9688 38.6719,-71.9688 C40.1719,-71.9688 42.974,-71.2865 47.0781,-69.9219 C51.2448,-68.5573 54.1406,-67.875 55.7656,-67.875 C57.7865,-67.875 59.7083,-68.2344 61.5313,-68.9531 C63.0208,-69.599 64.4531,-70.3438 65.8281,-71.1875 C66.9323,-71.9063 67.5469,-72.2656 67.6719,-72.2656 C68.2656,-72.2656 68.7865,-72.0729 69.2344,-71.6875 C69.7552,-71.1667 70.0156,-70.7396 70.0156,-70.4063 C70.0156,-69.9583 69.401,-69.2135 68.1719,-68.1719 C66.8698,-66.9948 65.013,-65.8203 62.6016,-64.6484 C60.1901,-63.4766 57.651,-62.8906 54.9844,-62.8906 C53.8073,-62.8906 52.3438,-63.0885 50.5938,-63.4844 C49.4792,-56.2552 48.3073,-49.8385 47.0781,-44.2344 C46.0365,-39.2865 43.9531,-34.9583 40.8281,-31.25 C37.8281,-27.5417 34.474,-25.6875 30.7656,-25.6875 C29.2656,-25.6875 27.9323,-25.9792 26.7656,-26.5625 C25.4635,-27.2188 24.0938,-28.1979 22.6563,-29.5 C21.4896,-30.4688 20.3854,-31.3438 19.3438,-32.125 C19.0833,-32.3229 18.9531,-32.6198 18.9531,-33.0156 C18.9531,-33.4635 19.2135,-34.0469 19.7344,-34.7656 C20.2552,-35.349 20.7396,-35.6406 21.1875,-35.6406 C21.5833,-35.6406 22.6927,-34.8281 24.5156,-33.2031 C26.3385,-31.5781 27.9635,-30.7656 29.3906,-30.7656 C31.9948,-30.7656 34.0156,-32.2604 35.4531,-35.25 C36.8802,-38.1875 37.6927,-41.7031 37.8906,-45.7969 C38.2135,-52.5052 38.9635,-59.4427 40.1406,-66.6094 C38.7031,-66.9323 37.6302,-67.0938 36.9219,-67.0938 C33.7969,-67.0938 31.125,-66.4427 28.9063,-65.1406 C26.6979,-63.901 25.5938,-62.2083 25.5938,-60.0625 C25.5938,-58.5 26.1146,-57.2969 27.1563,-56.4531 C28.2604,-55.5365 28.8125,-54.7188 28.8125,-54"/>
<path class="Clef" transform="matrix(0.566929,0,0,0.566929,28.5015,495.85)" d="M21.2969,33.9844 C21.2969,35.4219 20.1875,36.1406 17.9688,36.1406 C16.1458,36.1406 14.5833,35.5833 13.2813,34.4688 C11.9167,33.3646 11.2344,31.9323 11.2344,30.1719 C11.2344,26.9844 13.0885,24.4792 16.7969,22.6563 C20.7031,20.7708 25.0677,19.8281 29.8906,19.8281 C34.5052,19.8281 38.6042,20.4479 42.1875,21.6875 C45.5104,23.0521 47.1719,25.1667 47.1719,28.0313 C47.1719,31.5417 45.3177,34.4688 41.6094,36.8125 C47.0781,37.9271 49.8125,40.3698 49.8125,44.1406 C49.8125,47.2656 48.3438,50.1615 45.4063,52.8281 C42.5417,55.4323 39.1927,56.7344 35.3594,56.7344 C33.7969,56.7344 32.2344,56.3802 30.6719,55.6719 C29.2344,55.0156 28.1927,54.2969 27.5469,53.5156 C26.8906,52.9323 26.5625,52.3802 26.5625,51.8594 C26.5625,51.3385 26.8229,50.9167 27.3438,50.5938 C27.8021,50.1354 28.2917,49.9063 28.8125,49.9063 C29.0729,49.9063 29.5599,50.2318 30.2734,50.8828 C30.987,51.5339 31.9635,51.8594 33.2031,51.8594 C35.0885,51.8594 36.849,51.1406 38.4844,49.7031 C40.0469,48.2135 40.8281,46.4896 40.8281,44.5313 C40.8281,42.8438 40.0469,41.5417 38.4844,40.625 C36.9844,39.7813 35.0625,39.3594 32.7188,39.3594 C32.2604,39.3594 32.0313,38.9688 32.0313,38.1875 C32.0313,36.8854 32.5208,36.2344 33.5,36.2344 C34.9271,36.2344 36.1979,35.6146 37.3125,34.375 C38.4167,32.9479 38.9688,31.4844 38.9688,29.9844 C38.9688,26.7969 36.8542,24.8125 32.625,24.0313 L29.3906,41.6094 C28.5469,45.9635 26.9531,49.7396 24.6094,52.9375 C22.2031,56.125 19.5677,57.7188 16.7031,57.7188 C15.724,57.7188 14.8125,57.5208 13.9688,57.125 C13.1875,56.8021 12.2083,56.151 11.0313,55.1719 C9.72917,54.1302 9.04688,53.5781 8.98438,53.5156 C8.72396,53.2552 8.59375,53.026 8.59375,52.8281 C8.59375,52.4427 8.79167,51.9583 9.1875,51.375 C9.63542,50.9167 10.0885,50.6875 10.5469,50.6875 C10.7448,50.6875 11.526,51.1771 12.8906,52.1563 C13.9948,53.1979 15.1667,53.7188 16.4063,53.7188 C18.8125,53.7188 20.6042,52.2188 21.7813,49.2188 C22.9479,46.0938 23.5313,42.3854 23.5313,38.0938 L23.5313,37.4063 C23.5313,34.7396 23.9896,30.4115 24.9063,24.4219 C23.2083,25.0052 21.875,25.7865 20.9063,26.7656 C19.8646,27.8073 19.3438,28.8802 19.3438,29.9844 C19.3438,30.8906 19.6667,31.6406 20.3125,32.2344 C20.9688,32.8802 21.2969,33.4635 21.2969,33.9844 M5.5625,9.46875 C5.82292,9.46875 6.47396,9.76563 7.51563,10.3594 C8.69271,10.8802 9.57292,11.1406 10.1563,11.1406 C13.0208,11.1406 17.1875,7.75521 22.6563,0.984375 C28.0625,-5.66146 32,-12.6979 34.4688,-20.125 C35.0625,-22.0729 36.5938,-23.0469 39.0625,-23.0469 C40.3021,-23.0469 41.3438,-22.7865 42.1875,-22.2656 C43.1042,-21.8802 43.5625,-21.3281 43.5625,-20.6094 L42.1875,8.59375 C42.1875,10.2917 42.776,11.1406 43.9531,11.1406 C44.3385,11.1406 45.151,10.8802 46.3906,10.3594 C47.5573,9.76563 48.2083,9.46875 48.3438,9.46875 C48.8021,9.46875 49.0313,9.92708 49.0313,10.8438 C49.0313,11.625 48.7344,12.1146 48.1406,12.3125 C47.4323,12.6354 46.3594,13.1563 44.9219,13.875 C43.2969,14.7188 42.026,15.1406 41.1094,15.1406 C40.1406,15.1406 39.2292,14.7188 38.375,13.875 C37.5313,12.8333 36.7865,10.8125 36.1406,7.8125 C35.3594,4.82292 34.7708,0.588542 34.375,-4.89063 C32.3542,-2.21354 30.0781,0.489583 27.5469,3.21875 C28.5156,4.91667 30.5,5.76563 33.5,5.76563 C33.8854,5.76563 34.0781,6.1875 34.0781,7.03125 C34.0781,8.53125 32.5833,9.28125 29.5938,9.28125 C27.0521,9.28125 25.2292,8.40104 24.125,6.64063 L21,9.375 C16.7708,13.0208 13.1563,14.9115 10.1563,15.0469 C9.11458,15.0469 7.75,14.5885 6.0625,13.6719 C4.42708,12.8281 3.60938,12.2083 3.60938,11.8125 C3.60938,11.3646 3.80729,10.8802 4.20313,10.3594 C4.58854,9.76563 5.04167,9.46875 5.5625,9.46875 M23.0469,-43.1719 C23.0469,-41.9323 21.9427,-41.3125 19.7344,-41.3125 C17.776,-41.3125 16.0469,-41.9635 14.5469,-43.2656 C13.1198,-44.5052 12.4063,-46.099 12.4063,-48.0469 C12.4063,-49.8698 12.9583,-51.4323 14.0625,-52.7344 C15.3646,-54.1719 16.9271,-55.151 18.75,-55.6719 C20.0521,-56.1927 22.0052,-56.7135 24.6094,-57.2344 C27.349,-57.4948 29.4635,-57.625 30.9531,-57.625 C32.0677,-57.625 34.2839,-57.0703 37.6016,-55.9609 C40.9193,-54.8516 43.2604,-54.2969 44.625,-54.2969 C46.2604,-54.2969 47.7917,-54.5573 49.2188,-55.0781 C50.5833,-55.6615 51.6927,-56.25 52.5469,-56.8438 C53.3906,-57.4896 53.9115,-57.8125 54.1094,-57.8125 C54.4948,-57.8125 54.9167,-57.651 55.375,-57.3281 C55.7604,-57.0052 55.9531,-56.6771 55.9531,-56.3438 C55.9531,-56.0833 55.4688,-55.4688 54.5,-54.5 C53.3229,-53.4583 51.8229,-52.5469 50,-51.7656 C48.0521,-50.7865 46.0677,-50.2969 44.0469,-50.2969 C43.0052,-50.2969 41.8333,-50.4583 40.5313,-50.7813 C39.6146,-44.4063 38.6719,-39.2292 37.7031,-35.25 C36.849,-31.2813 35.1875,-27.8333 32.7188,-24.9063 C30.3125,-21.9792 27.6406,-20.5156 24.7031,-20.5156 C23.401,-20.5156 22.3281,-20.776 21.4844,-21.2969 C20.3802,-21.8177 19.276,-22.5625 18.1719,-23.5313 C17.1302,-24.5104 16.25,-25.2292 15.5313,-25.6875 C15.2708,-25.9479 15.1406,-26.1771 15.1406,-26.375 C15.1406,-26.8229 15.3021,-27.276 15.625,-27.7344 C15.9479,-28.2552 16.3698,-28.5156 16.8906,-28.5156 C17.151,-28.5156 18.0313,-27.8646 19.5313,-26.5625 C21.0313,-25.2604 22.3646,-24.6094 23.5313,-24.6094 C25.0938,-24.6094 26.3021,-25.1302 27.1563,-26.1719 C28.0625,-27.2135 28.776,-28.776 29.2969,-30.8594 C29.7552,-32.7448 30.0833,-34.8594 30.2813,-37.2031 C30.5417,-39.1615 30.8333,-41.8333 31.1563,-45.2188 C31.3542,-47.1042 31.6771,-49.8073 32.125,-53.3281 C31.0208,-53.5885 30.1458,-53.7188 29.5,-53.7188 C27.1563,-53.7188 25.0365,-53.1979 23.1406,-52.1563 C21.3906,-50.9792 20.5156,-49.6406 20.5156,-48.1406 C20.5156,-47.0365 20.9375,-46.0625 21.7813,-45.2188 C22.625,-44.375 23.0469,-43.6927 23.0469,-43.1719"/>
<path class="Clef" transform="matrix(0.566929,0,0,0.566929,28.5015,338.173)" d="M57.1328,-8.89063 C56.1589,-9.86979 55.6719,-11.0755 55.6719,-12.5078 C55.6719,-13.9401 56.1589,-15.1432 57.1328,-16.1172 C58.1068,-17.0911 59.3099,-17.5781 60.7422,-17.5781 C62.1745,-17.5781 63.3802,-17.0911 64.3594,-16.1172 C65.3385,-15.1432 65.8281,-13.9401 65.8281,-12.5078 C65.8281,-11.0755 65.3385,-9.86979 64.3594,-8.89063 C63.3802,-7.91146 62.1745,-7.42188 60.7422,-7.42188 C59.3099,-7.42188 58.1068,-7.91146 57.1328,-8.89063 M57.1328,16.1172 C56.1589,15.1432 55.6719,13.9401 55.6719,12.5078 C55.6719,11.0755 56.1589,9.86979 57.1328,8.89063 C58.1068,7.91146 59.3099,7.42188 60.7422,7.42188 C62.1745,7.42188 63.3802,7.91146 64.3594,8.89063 C65.3385,9.86979 65.8281,11.0755 65.8281,12.5078 C65.8281,13.9401 65.3385,15.1432 64.3594,16.1172 C63.3802,17.0911 62.1745,17.5781 60.7422,17.5781 C59.3099,17.5781 58.1068,17.0911 57.1328,16.1172 M23.25,-26.2656 C31.9063,-26.2656 39,-24.0885 44.5313,-19.7344 C49.875,-15.1719 52.5469,-8.98438 52.5469,-1.17188 C52.5469,4.09896 51.5052,8.91667 49.4219,13.2813 C47.4635,17.8438 44.8906,21.8802 41.7031,25.3906 C38.4427,28.974 34.5052,32.3594 29.8906,35.5469 C25.3906,38.6719 20.7656,41.474 16.0156,43.9531 C6.31771,48.8281 0.979167,51.2656 0,51.2656 C-0.84375,51.2656 -1.26563,50.8438 -1.26563,50 C-1.26563,49.6771 -1.13542,49.3854 -0.875,49.125 C2.44792,47.1667 6.51563,44.6615 11.3281,41.6094 C14.4531,39.5885 18.099,36.7865 22.2656,33.2031 C26.3073,29.8177 29.4323,26.6302 31.6406,23.6406 C33.9219,20.7031 36.0052,17.0573 37.8906,12.7031 C39.5156,8.33854 40.3281,4.03646 40.3281,-0.203125 C40.3281,-6.51563 38.7656,-12.0156 35.6406,-16.7031 C32.5156,-21.3906 28.3854,-23.7344 23.25,-23.7344 C19.6042,-23.7344 16.4792,-22.5625 13.875,-20.2188 C11.0729,-17.8125 9.05208,-14.7865 7.8125,-11.1406 C9.05208,-11.6615 10.1927,-11.9219 11.2344,-11.9219 C13.9635,-11.9219 16.3073,-10.9427 18.2656,-8.98438 C20.2135,-6.90104 21.1875,-4.52604 21.1875,-1.85938 C21.1875,0.942708 20.2448,3.45313 18.3594,5.67188 C16.3385,7.68229 13.9635,8.6875 11.2344,8.6875 C8.30729,8.6875 5.67188,7.68229 3.32813,5.67188 C1.10938,3.45313 0,0.942708 0,-1.85938 C0,-8.56771 2.28125,-14.2969 6.84375,-19.0469 C11.3333,-23.8594 16.8021,-26.2656 23.25,-26.2656"/>
<path class="Clef" transform="matrix(0.566929,0,0,0.566929,28.5015,217.701)" d="M36.3281,-7.32813 C33.3385,-7.32813 31.8438,-4.88542 31.8438,0 C31.8438,4.88542 33.3385,7.32813 36.3281,7.32813 C37.3073,7.32813 38.7396,6.80729 40.625,5.76563 C42.4479,4.72396 43.9479,4.20313 45.125,4.20313 C51.3021,4.20313 56.6719,6.1875 61.2344,10.1563 C65.724,14.2604 67.9688,19.2083 67.9688,25 C67.9688,41.6667 59.1458,50 41.5,50 C37.2708,50 33.6615,48.6354 30.6719,45.9063 C27.7344,43.1667 26.2656,39.8125 26.2656,35.8438 C26.2656,33.6979 27.0156,31.875 28.5156,30.375 C30.0156,28.875 31.8073,28.125 33.8906,28.125 C35.974,28.125 37.763,28.875 39.2578,30.375 C40.7526,31.875 41.5,33.6979 41.5,35.8438 C41.5,37.1458 40.6875,38.4167 39.0625,39.6563 C37.4375,40.8229 36.625,42.0573 36.625,43.3594 C36.625,44.5365 37.1146,45.4479 38.0938,46.0938 C39,46.8125 40.1354,47.1719 41.5,47.1719 C46.9063,47.1719 50.5859,45.3151 52.5391,41.6016 C54.4922,37.888 55.4688,32.3542 55.4688,25 C55.4688,19.3333 54.8854,15.0365 53.7188,12.1094 C52.4792,8.72396 49.6146,7.03125 45.125,7.03125 C41.7396,7.03125 38.875,8.49479 36.5313,11.4219 C34.3125,14.4219 33.2031,17.9063 33.2031,21.875 C33.2031,22.8542 32.7474,23.3438 31.8359,23.3438 C30.9245,23.3438 30.4688,22.8542 30.4688,21.875 C30.4688,14.125 27.6719,7.45313 22.0781,1.85938 L22.0781,49.0313 C22.0781,49.6771 21.75,50 21.0938,50 L19.0469,50 C18.3281,50 17.9688,49.6771 17.9688,49.0313 L17.9688,-49.0313 C17.9688,-49.6771 18.3281,-50 19.0469,-50 L21.0938,-50 C21.75,-50 22.0781,-49.6771 22.0781,-49.0313 L22.0781,-1.85938 C27.6719,-7.45313 30.4688,-14.125 30.4688,-21.875 C30.4688,-22.8542 30.9245,-23.3438 31.8359,-23.3438 C32.7474,-23.3438 33.2031,-22.8542 33.2031,-21.875 C33.2031,-17.9063 34.3125,-14.4219 36.5313,-11.4219 C38.875,-8.49479 41.7396,-7.03125 45.125,-7.03125 C49.6146,-7.03125 52.4792,-8.72396 53.7188,-12.1094 C54.8854,-15.0365 55.4688,-19.3333 55.4688,-25 C55.4688,-32.3542 54.4922,-37.888 52.5391,-41.6016 C50.5859,-45.3151 46.9063,-47.1719 41.5,-47.1719 C40.1354,-47.1719 39,-46.8125 38.0938,-46.0938 C37.1146,-45.5104 36.625,-44.599 36.625,-43.3594 C36.625,-42.0573 37.4375,-40.8229 39.0625,-39.6563 C40.6875,-38.4167 41.5,-37.1458 41.5,-35.8438 C41.5,-33.6979 40.7526,-31.875 39.2578,-30.375 C37.763,-28.875 35.974,-28.125 33.8906,-28.125 C31.8073,-28.125 30.0156,-28.875 28.5156,-30.375 C27.0156,-31.875 26.2656,-33.6979 26.2656,-35.8438 C26.2656,-39.8125 27.7344,-43.1667 30.6719,-45.9063 C33.6615,-48.6354 37.2708,-50 41.5,-50 C59.1458,-50 67.9688,-41.6667 67.9688,-25 C67.9688,-19.2083 65.724,-14.2604 61.2344,-10.1563 C56.6719,-6.1875 51.3021,-4.20313 45.125,-4.20313 C44.0104,-4.20313 42.5104,-4.72396 40.625,-5.76563 C38.7396,-6.80729 37.3073,-7.32813 36.3281,-7.32813 M12.8906,50 L0.984375,50 C0.328125,50 0,49.6771 0,49.0313 L0,-49.0313 C0,-49.6771 0.328125,-50 0.984375,-50 L12.8906,-50 C13.5469,-50 13.875,-49.6771 13.875,-49.0313 L13.875,49.0313 C13.875,49.6771 13.5469,50 12.8906,50"/>
<path class="Clef" transform="matrix(0.566929,0,0,0.566929,28.5015,97.2284)" d="M36.7188,-25.5938 C36.7188,-25.5938 36.9167,-25.5938 37.3125,-25.5938 C37.5729,-25.6563 37.7969,-25.6875 37.9844,-25.6875 C45.276,-25.6875 51.2656,-23.1146 55.9531,-17.9688 C60.6406,-12.8958 62.9844,-6.97396 62.9844,-0.203125 C62.9844,8.20313 59.5052,15.0417 52.5469,20.3125 C50.724,21.75 48.3438,22.9219 45.4063,23.8281 C45.7396,28.0573 45.9063,31.474 45.9063,34.0781 C45.9063,34.599 45.8385,36.4896 45.7031,39.75 C45.4427,45.8021 43.3594,51.0417 39.4531,55.4688 C35.6823,59.8333 30.9948,62.0156 25.3906,62.0156 C20.1198,62.0156 15.6302,60.1615 11.9219,56.4531 C8.20313,52.6719 6.34375,48.1146 6.34375,42.7813 C6.34375,39.9792 7.42188,37.599 9.57813,35.6406 C11.7865,33.6927 14.3542,32.7188 17.2813,32.7188 C19.8854,32.7188 22.0677,33.7292 23.8281,35.75 C25.651,37.6354 26.5625,39.9792 26.5625,42.7813 C26.5625,45.3125 25.651,47.4896 23.8281,49.3125 C22.0052,51.1354 19.8229,52.0469 17.2813,52.0469 C16.2396,52.0469 15.2344,51.8542 14.2656,51.4688 C17.1302,55.6979 20.9375,57.8125 25.6875,57.8125 C30.1771,57.8125 33.8542,55.9896 36.7188,52.3438 C39.7188,48.5729 41.349,44.1771 41.6094,39.1563 C41.7344,36.0313 41.7969,34.2448 41.7969,33.7969 C41.7969,30.151 41.6667,27.1563 41.4063,24.8125 C38.1563,25.3333 35.2604,25.5938 32.7188,25.5938 C23.6667,25.5938 15.9531,22.0104 9.57813,14.8438 C3.32813,7.61458 0.203125,-0.979167 0.203125,-10.9375 C0.203125,-13.0208 0.395833,-15.1354 0.78125,-17.2813 C1.17708,-19.0417 1.66667,-20.9635 2.25,-23.0469 C2.57292,-24.224 3.45313,-26.1146 4.89063,-28.7188 C5.41146,-29.5 5.9974,-30.4766 6.64844,-31.6484 C7.29948,-32.8203 7.75521,-33.599 8.01563,-33.9844 C8.66146,-35.2865 9.92708,-37.0469 11.8125,-39.2656 C12.3333,-39.849 12.8724,-40.4974 13.4297,-41.2109 C13.987,-41.9245 14.4609,-42.5104 14.8516,-42.9688 C15.2422,-43.4271 15.5339,-43.7865 15.7266,-44.0469 C15.9193,-44.3073 17.3854,-46.0313 20.125,-49.2188 C20.7708,-49.875 21.4036,-50.5755 22.0234,-51.3203 C22.6432,-52.0651 23.1484,-52.651 23.5391,-53.0781 C23.9297,-53.5052 24.224,-53.8125 24.4219,-54 C22.0781,-61.75 20.6094,-67.9375 20.0156,-72.5625 C19.5677,-76.2708 19.3438,-81.349 19.3438,-87.7969 C19.3438,-93.4635 20.6458,-98.7708 23.25,-103.719 C25.7813,-108.854 29.3281,-113.052 33.8906,-116.313 C34.151,-116.51 34.474,-116.609 34.8594,-116.609 C35.3177,-116.609 35.6458,-116.51 35.8438,-116.313 C39.3542,-112.083 42.3802,-106.583 44.9219,-99.8125 C47.526,-93.0417 48.8281,-86.8854 48.8281,-81.3438 C48.8281,-75.0938 47.3333,-69.2344 44.3438,-63.7656 C40.9583,-57.974 36.5938,-51.9844 31.25,-45.7969 C32.6146,-41.5052 34.4375,-34.7708 36.7188,-25.5938 M45.0156,19.8281 C48.401,18.5885 51.0417,16.474 52.9375,13.4844 C55.0208,10.6198 56.0625,7.39583 56.0625,3.8125 C56.0625,-0.8125 54.5,-4.91667 51.375,-8.5 C48.1771,-12.2083 44.1042,-14.2917 39.1563,-14.75 C41.9583,-1.01042 43.9115,10.5156 45.0156,19.8281 M7.23438,-2.73438 C7.23438,3.71354 9.83854,9.38021 15.0469,14.2656 C20.3802,19.0156 26.3698,21.3906 33.0156,21.3906 C35.7448,21.3906 38.4115,21.1927 41.0156,20.7969 C39.974,10.901 37.9219,-0.947917 34.8594,-14.75 C31.151,-14.3542 28.1927,-13.0521 25.9844,-10.8438 C23.8281,-8.5625 22.75,-5.98958 22.75,-3.125 C22.75,1.82292 25.3906,5.82813 30.6719,8.89063 C31.1198,9.34896 31.3438,9.83854 31.3438,10.3594 C31.3438,10.8802 31.1198,11.3646 30.6719,11.8125 C30.276,12.2708 29.7865,12.5 29.2031,12.5 C29.1406,12.5 28.849,12.4375 28.3281,12.3125 C24.6094,10.2917 21.7448,7.6875 19.7344,4.5 C17.8385,1.10417 16.8906,-2.31771 16.8906,-5.76563 C16.8906,-10.2552 18.2917,-14.3229 21.0938,-17.9688 C24.0208,-21.6146 27.8281,-23.9583 32.5156,-25 C30.6927,-32.2917 29.1979,-37.9896 28.0313,-42.0938 C26.9896,-40.9167 25.737,-39.5 24.2734,-37.8438 C22.8099,-36.1875 21.9479,-35.1927 21.6875,-34.8594 C19.3438,-31.8073 17.5521,-29.4323 16.3125,-27.7344 C14.0938,-24.6719 12.4635,-22.0365 11.4219,-19.8281 C10.3177,-17.349 9.34375,-14.6458 8.5,-11.7188 C7.65625,-8.91667 7.23438,-5.92188 7.23438,-2.73438 M39.8438,-102.047 C34.9583,-99.6406 31.1198,-96.1927 28.3281,-91.7031 C25.4635,-87.0781 24.0313,-82.099 24.0313,-76.7656 C24.0313,-72.0781 25.2031,-65.7604 27.5469,-57.8125 C32.2344,-63.4792 35.75,-68.7188 38.0938,-73.5313 C40.5625,-78.6146 41.7969,-83.9219 41.7969,-89.4531 C41.7969,-93.6198 41.1458,-97.8177 39.8438,-102.047"/>
</svg>
