<?xml version="1.0" encoding="UTF-8" standalone="no"?>
<svg width="637.794px" height="765.353px" viewBox="0 0 637.794 765.353"
 xmlns="http://www.w3.org/2000/svg" xmlns:xlink="http://www.w3.org/1999/xlink" version="1.2" baseProfile="tiny">
<title>harmonicminor (106)</title>
<desc>Generated by MuseScore 3.4.2</desc>
<polyline class="StaffLines" fill="none" stroke="#000000" stroke-width="1.13" stroke-linejoin="bevel" points="14.1732,49.6063 623.621,49.6063"/>
<polyline class="StaffLines" fill="none" stroke="#000000" stroke-width="1.13" stroke-linejoin="bevel" points="14.1732,63.7795 623.621,63.7795"/>
<polyline class="StaffLines" fill="none" stroke="#000000" stroke-width="1.13" stroke-linejoin="bevel" points="14.1732,77.9528 623.621,77.9528"/>
<polyline class="StaffLines" fill="none" stroke="#000000" stroke-width="1.13" stroke-linejoin="bevel" points="14.1732,92.126 623.621,92.126"/>
<polyline class="StaffLines" fill="none" stroke="#000000" stroke-width="1.13" stroke-linejoin="bevel" points="14.1732,106.299 623.621,106.299"/>
<polyline class="StaffLines" fill="none" stroke="#000000" stroke-width="1.13" stroke-linejoin="bevel" points="14.1732,184.252 623.621,184.252"/>
<polyline class="StaffLines" fill="none" stroke="#000000" stroke-width="1.13" stroke-linejoin="bevel" points="14.1732,198.425 623.621,198.425"/>
<polyline class="StaffLines" fill="none" stroke="#000000" stroke-width="1.13" stroke-linejoin="bevel" points="14.1732,212.598 623.621,212.598"/>
<polyline class="StaffLines" fill="none" stroke="#000000" stroke-width="1.13" stroke-linejoin="bevel" points="14.1732,226.772 623.621,226.772"/>
<polyline class="StaffLines" fill="none" stroke="#000000" stroke-width="1.13" stroke-linejoin="bevel" points="14.1732,240.945 623.621,240.945"/>
<polyline class="StaffLines" fill="none" stroke="#000000" stroke-width="1.13" stroke-linejoin="bevel" points="14.1732,318.898 623.621,318.898"/>
<polyline class="StaffLines" fill="none" stroke="#000000" stroke-width="1.13" stroke-linejoin="bevel" points="14.1732,333.071 623.621,333.071"/>
<polyline class="StaffLines" fill="none" stroke="#000000" stroke-width="1.13" stroke-linejoin="bevel" points="14.1732,347.244 623.621,347.244"/>
<polyline class="StaffLines" fill="none" stroke="#000000" stroke-width="1.13" stroke-linejoin="bevel" points="14.1732,361.417 623.621,361.417"/>
<polyline class="StaffLines" fill="none" stroke="#000000" stroke-width="1.13" stroke-linejoin="bevel" points="14.1732,375.591 623.621,375.591"/>
<polyline class="StaffLines" fill="none" stroke="#000000" stroke-width="1.13" stroke-linejoin="bevel" points="14.1732,453.543 623.621,453.543"/>
<polyline class="StaffLines" fill="none" stroke="#000000" stroke-width="1.13" stroke-linejoin="bevel" points="14.1732,478.346 623.621,478.346"/>
<polyline class="StaffLines" fill="none" stroke="#000000" stroke-width="1.13" stroke-linejoin="bevel" points="14.1732,503.15 623.621,503.15"/>
<polyline class="StaffLines" fill="none" stroke="#000000" stroke-width="1.13" stroke-linejoin="bevel" points="14.1732,527.953 623.621,527.953"/>
<polyline class="StaffLines" fill="none" stroke="#000000" stroke-width="1.13" stroke-linejoin="bevel" points="14.1732,605.906 623.621,605.906"/>
<polyline class="StaffLines" fill="none" stroke="#000000" stroke-width="1.13" stroke-linejoin="bevel" points="14.1732,630.709 623.621,630.709"/>
<polyline class="StaffLines" fill="none" stroke="#000000" stroke-width="1.13" stroke-linejoin="bevel" points="14.1732,655.512 623.621,655.512"/>
<polyline class="StaffLines" fill="none" stroke="#000000" stroke-width="1.13" stroke-linejoin="bevel" points="14.1732,680.315 623.621,680.315"/>
<polyline class="StaffLines" fill="none" stroke="#000000" stroke-width="1.13" stroke-linejoin="bevel" points="14.1732,705.118 623.621,705.118"/>
<polyline class="StaffLines" fill="none" stroke="#000000" stroke-width="1.13" stroke-linejoin="bevel" points="14.1732,729.921 623.621,729.921"/>
<path class="Accidental" transform="matrix(0.566929,0,0,0.566929,102.486,368.504)" d="M21.5781,31.1563 C21.5781,32.3958 20.9609,33.0156 19.7266,33.0156 C18.4922,33.0156 17.875,32.3958 17.875,31.1563 L17.875,16.7031 L9.57813,19.8281 L9.57813,35.6406 C9.57813,36.8802 8.95833,37.5 7.71875,37.5 C6.47917,37.5 5.85938,36.8802 5.85938,35.6406 L5.85938,21.0938 L2.73438,22.2656 C2.67188,22.3281 2.41146,22.3594 1.95313,22.3594 C1.43229,22.3594 0.976563,22.1641 0.585938,21.7734 C0.195313,21.3828 0,20.9271 0,20.4063 L0,14.3594 C0,13.3802 0.421875,12.7604 1.26563,12.5 L5.85938,10.9375 L5.85938,-5.07813 L2.73438,-4 C2.67188,-3.9375 2.41146,-3.90625 1.95313,-3.90625 C1.43229,-3.90625 0.976563,-4.10156 0.585938,-4.49219 C0.195313,-4.88281 0,-5.33854 0,-5.85938 L0,-11.9219 C0,-12.8281 0.421875,-13.4115 1.26563,-13.6719 L5.85938,-15.4375 L5.85938,-31.1563 C5.85938,-32.3958 6.47917,-33.0156 7.71875,-33.0156 C8.95833,-33.0156 9.57813,-32.3958 9.57813,-31.1563 L9.57813,-16.7031 L17.875,-19.8281 L17.875,-35.6406 C17.875,-36.8802 18.4922,-37.5 19.7266,-37.5 C20.9609,-37.5 21.5781,-36.8802 21.5781,-35.6406 L21.5781,-21.0938 L24.8125,-22.2656 C24.875,-22.3281 25.099,-22.3594 25.4844,-22.3594 C25.9427,-22.3594 26.4323,-22.1667 26.9531,-21.7813 C27.349,-21.3854 27.5469,-20.9271 27.5469,-20.4063 L27.5469,-14.3594 C27.5469,-13.4427 27.0885,-12.8229 26.1719,-12.5 L21.5781,-10.9375 L21.5781,5.07813 L24.8125,4 C24.875,3.9375 25.099,3.90625 25.4844,3.90625 C25.9427,3.90625 26.4323,4.10417 26.9531,4.5 C27.349,4.88542 27.5469,5.33854 27.5469,5.85938 L27.5469,11.9219 C27.5469,12.7656 27.0885,13.349 26.1719,13.6719 L21.5781,15.4375 L21.5781,31.1563 M17.875,-9.46875 L9.57813,-6.54688 L9.57813,9.46875 L17.875,6.54688 L17.875,-9.46875 "/>
<path class="Accidental" transform="matrix(0.566929,0,0,0.566929,227.52,354.331)" d="M21.5781,31.1563 C21.5781,32.3958 20.9609,33.0156 19.7266,33.0156 C18.4922,33.0156 17.875,32.3958 17.875,31.1563 L17.875,16.7031 L9.57813,19.8281 L9.57813,35.6406 C9.57813,36.8802 8.95833,37.5 7.71875,37.5 C6.47917,37.5 5.85938,36.8802 5.85938,35.6406 L5.85938,21.0938 L2.73438,22.2656 C2.67188,22.3281 2.41146,22.3594 1.95313,22.3594 C1.43229,22.3594 0.976563,22.1641 0.585938,21.7734 C0.195313,21.3828 0,20.9271 0,20.4063 L0,14.3594 C0,13.3802 0.421875,12.7604 1.26563,12.5 L5.85938,10.9375 L5.85938,-5.07813 L2.73438,-4 C2.67188,-3.9375 2.41146,-3.90625 1.95313,-3.90625 C1.43229,-3.90625 0.976563,-4.10156 0.585938,-4.49219 C0.195313,-4.88281 0,-5.33854 0,-5.85938 L0,-11.9219 C0,-12.8281 0.421875,-13.4115 1.26563,-13.6719 L5.85938,-15.4375 L5.85938,-31.1563 C5.85938,-32.3958 6.47917,-33.0156 7.71875,-33.0156 C8.95833,-33.0156 9.57813,-32.3958 9.57813,-31.1563 L9.57813,-16.7031 L17.875,-19.8281 L17.875,-35.6406 C17.875,-36.8802 18.4922,-37.5 19.7266,-37.5 C20.9609,-37.5 21.5781,-36.8802 21.5781,-35.6406 L21.5781,-21.0938 L24.8125,-22.2656 C24.875,-22.3281 25.099,-22.3594 25.4844,-22.3594 C25.9427,-22.3594 26.4323,-22.1667 26.9531,-21.7813 C27.349,-21.3854 27.5469,-20.9271 27.5469,-20.4063 L27.5469,-14.3594 C27.5469,-13.4427 27.0885,-12.8229 26.1719,-12.5 L21.5781,-10.9375 L21.5781,5.07813 L24.8125,4 C24.875,3.9375 25.099,3.90625 25.4844,3.90625 C25.9427,3.90625 26.4323,4.10417 26.9531,4.5 C27.349,4.88542 27.5469,5.33854 27.5469,5.85938 L27.5469,11.9219 C27.5469,12.7656 27.0885,13.349 26.1719,13.6719 L21.5781,15.4375 L21.5781,31.1563 M17.875,-9.46875 L9.57813,-6.54688 L9.57813,9.46875 L17.875,6.54688 L17.875,-9.46875 "/>
<path class="Accidental" transform="matrix(0.566929,0,0,0.566929,415.071,333.071)" d="M21.5781,31.1563 C21.5781,32.3958 20.9609,33.0156 19.7266,33.0156 C18.4922,33.0156 17.875,32.3958 17.875,31.1563 L17.875,16.7031 L9.57813,19.8281 L9.57813,35.6406 C9.57813,36.8802 8.95833,37.5 7.71875,37.5 C6.47917,37.5 5.85938,36.8802 5.85938,35.6406 L5.85938,21.0938 L2.73438,22.2656 C2.67188,22.3281 2.41146,22.3594 1.95313,22.3594 C1.43229,22.3594 0.976563,22.1641 0.585938,21.7734 C0.195313,21.3828 0,20.9271 0,20.4063 L0,14.3594 C0,13.3802 0.421875,12.7604 1.26563,12.5 L5.85938,10.9375 L5.85938,-5.07813 L2.73438,-4 C2.67188,-3.9375 2.41146,-3.90625 1.95313,-3.90625 C1.43229,-3.90625 0.976563,-4.10156 0.585938,-4.49219 C0.195313,-4.88281 0,-5.33854 0,-5.85938 L0,-11.9219 C0,-12.8281 0.421875,-13.4115 1.26563,-13.6719 L5.85938,-15.4375 L5.85938,-31.1563 C5.85938,-32.3958 6.47917,-33.0156 7.71875,-33.0156 C8.95833,-33.0156 9.57813,-32.3958 9.57813,-31.1563 L9.57813,-16.7031 L17.875,-19.8281 L17.875,-35.6406 C17.875,-36.8802 18.4922,-37.5 19.7266,-37.5 C20.9609,-37.5 21.5781,-36.8802 21.5781,-35.6406 L21.5781,-21.0938 L24.8125,-22.2656 C24.875,-22.3281 25.099,-22.3594 25.4844,-22.3594 C25.9427,-22.3594 26.4323,-22.1667 26.9531,-21.7813 C27.349,-21.3854 27.5469,-20.9271 27.5469,-20.4063 L27.5469,-14.3594 C27.5469,-13.4427 27.0885,-12.8229 26.1719,-12.5 L21.5781,-10.9375 L21.5781,5.07813 L24.8125,4 C24.875,3.9375 25.099,3.90625 25.4844,3.90625 C25.9427,3.90625 26.4323,4.10417 26.9531,4.5 C27.349,4.88542 27.5469,5.33854 27.5469,5.85938 L27.5469,11.9219 C27.5469,12.7656 27.0885,13.349 26.1719,13.6719 L21.5781,15.4375 L21.5781,31.1563 M17.875,-9.46875 L9.57813,-6.54688 L9.57813,9.46875 L17.875,6.54688 L17.875,-9.46875 "/>
<path class="Accidental" transform="matrix(0.566929,0,0,0.566929,540.105,318.898)" d="M21.5781,31.1563 C21.5781,32.3958 20.9609,33.0156 19.7266,33.0156 C18.4922,33.0156 17.875,32.3958 17.875,31.1563 L17.875,16.7031 L9.57813,19.8281 L9.57813,35.6406 C9.57813,36.8802 8.95833,37.5 7.71875,37.5 C6.47917,37.5 5.85938,36.8802 5.85938,35.6406 L5.85938,21.0938 L2.73438,22.2656 C2.67188,22.3281 2.41146,22.3594 1.95313,22.3594 C1.43229,22.3594 0.976563,22.1641 0.585938,21.7734 C0.195313,21.3828 0,20.9271 0,20.4063 L0,14.3594 C0,13.3802 0.421875,12.7604 1.26563,12.5 L5.85938,10.9375 L5.85938,-5.07813 L2.73438,-4 C2.67188,-3.9375 2.41146,-3.90625 1.95313,-3.90625 C1.43229,-3.90625 0.976563,-4.10156 0.585938,-4.49219 C0.195313,-4.88281 0,-5.33854 0,-5.85938 L0,-11.9219 C0,-12.8281 0.421875,-13.4115 1.26563,-13.6719 L5.85938,-15.4375 L5.85938,-31.1563 C5.85938,-32.3958 6.47917,-33.0156 7.71875,-33.0156 C8.95833,-33.0156 9.57813,-32.3958 9.57813,-31.1563 L9.57813,-16.7031 L17.875,-19.8281 L17.875,-35.6406 C17.875,-36.8802 18.4922,-37.5 19.7266,-37.5 C20.9609,-37.5 21.5781,-36.8802 21.5781,-35.6406 L21.5781,-21.0938 L24.8125,-22.2656 C24.875,-22.3281 25.099,-22.3594 25.4844,-22.3594 C25.9427,-22.3594 26.4323,-22.1667 26.9531,-21.7813 C27.349,-21.3854 27.5469,-20.9271 27.5469,-20.4063 L27.5469,-14.3594 C27.5469,-13.4427 27.0885,-12.8229 26.1719,-12.5 L21.5781,-10.9375 L21.5781,5.07813 L24.8125,4 C24.875,3.9375 25.099,3.90625 25.4844,3.90625 C25.9427,3.90625 26.4323,4.10417 26.9531,4.5 C27.349,4.88542 27.5469,5.33854 27.5469,5.85938 L27.5469,11.9219 C27.5469,12.7656 27.0885,13.349 26.1719,13.6719 L21.5781,15.4375 L21.5781,31.1563 M17.875,-9.46875 L9.57813,-6.54688 L9.57813,9.46875 L17.875,6.54688 L17.875,-9.46875 "/>
<path class="Accidental" transform="matrix(0.566929,0,0,0.566929,102.486,226.772)" d="M21.5781,31.1563 C21.5781,32.3958 20.9609,33.0156 19.7266,33.0156 C18.4922,33.0156 17.875,32.3958 17.875,31.1563 L17.875,16.7031 L9.57813,19.8281 L9.57813,35.6406 C9.57813,36.8802 8.95833,37.5 7.71875,37.5 C6.47917,37.5 5.85938,36.8802 5.85938,35.6406 L5.85938,21.0938 L2.73438,22.2656 C2.67188,22.3281 2.41146,22.3594 1.95313,22.3594 C1.43229,22.3594 0.976563,22.1641 0.585938,21.7734 C0.195313,21.3828 0,20.9271 0,20.4063 L0,14.3594 C0,13.3802 0.421875,12.7604 1.26563,12.5 L5.85938,10.9375 L5.85938,-5.07813 L2.73438,-4 C2.67188,-3.9375 2.41146,-3.90625 1.95313,-3.90625 C1.43229,-3.90625 0.976563,-4.10156 0.585938,-4.49219 C0.195313,-4.88281 0,-5.33854 0,-5.85938 L0,-11.9219 C0,-12.8281 0.421875,-13.4115 1.26563,-13.6719 L5.85938,-15.4375 L5.85938,-31.1563 C5.85938,-32.3958 6.47917,-33.0156 7.71875,-33.0156 C8.95833,-33.0156 9.57813,-32.3958 9.57813,-31.1563 L9.57813,-16.7031 L17.875,-19.8281 L17.875,-35.6406 C17.875,-36.8802 18.4922,-37.5 19.7266,-37.5 C20.9609,-37.5 21.5781,-36.8802 21.5781,-35.6406 L21.5781,-21.0938 L24.8125,-22.2656 C24.875,-22.3281 25.099,-22.3594 25.4844,-22.3594 C25.9427,-22.3594 26.4323,-22.1667 26.9531,-21.7813 C27.349,-21.3854 27.5469,-20.9271 27.5469,-20.4063 L27.5469,-14.3594 C27.5469,-13.4427 27.0885,-12.8229 26.1719,-12.5 L21.5781,-10.9375 L21.5781,5.07813 L24.8125,4 C24.875,3.9375 25.099,3.90625 25.4844,3.90625 C25.9427,3.90625 26.4323,4.10417 26.9531,4.5 C27.349,4.88542 27.5469,5.33854 27.5469,5.85938 L27.5469,11.9219 C27.5469,12.7656 27.0885,13.349 26.1719,13.6719 L21.5781,15.4375 L21.5781,31.1563 M17.875,-9.46875 L9.57813,-6.54688 L9.57813,9.46875 L17.875,6.54688 L17.875,-9.46875 "/>
<path class="Accidental" transform="matrix(0.566929,0,0,0.566929,227.52,212.598)" d="M21.5781,31.1563 C21.5781,32.3958 20.9609,33.0156 19.7266,33.0156 C18.4922,33.0156 17.875,32.3958 17.875,31.1563 L17.875,16.7031 L9.57813,19.8281 L9.57813,35.6406 C9.57813,36.8802 8.95833,37.5 7.71875,37.5 C6.47917,37.5 5.85938,36.8802 5.85938,35.6406 L5.85938,21.0938 L2.73438,22.2656 C2.67188,22.3281 2.41146,22.3594 1.95313,22.3594 C1.43229,22.3594 0.976563,22.1641 0.585938,21.7734 C0.195313,21.3828 0,20.9271 0,20.4063 L0,14.3594 C0,13.3802 0.421875,12.7604 1.26563,12.5 L5.85938,10.9375 L5.85938,-5.07813 L2.73438,-4 C2.67188,-3.9375 2.41146,-3.90625 1.95313,-3.90625 C1.43229,-3.90625 0.976563,-4.10156 0.585938,-4.49219 C0.195313,-4.88281 0,-5.33854 0,-5.85938 L0,-11.9219 C0,-12.8281 0.421875,-13.4115 1.26563,-13.6719 L5.85938,-15.4375 L5.85938,-31.1563 C5.85938,-32.3958 6.47917,-33.0156 7.71875,-33.0156 C8.95833,-33.0156 9.57813,-32.3958 9.57813,-31.1563 L9.57813,-16.7031 L17.875,-19.8281 L17.875,-35.6406 C17.875,-36.8802 18.4922,-37.5 19.7266,-37.5 C20.9609,-37.5 21.5781,-36.8802 21.5781,-35.6406 L21.5781,-21.0938 L24.8125,-22.2656 C24.875,-22.3281 25.099,-22.3594 25.4844,-22.3594 C25.9427,-22.3594 26.4323,-22.1667 26.9531,-21.7813 C27.349,-21.3854 27.5469,-20.9271 27.5469,-20.4063 L27.5469,-14.3594 C27.5469,-13.4427 27.0885,-12.8229 26.1719,-12.5 L21.5781,-10.9375 L21.5781,5.07813 L24.8125,4 C24.875,3.9375 25.099,3.90625 25.4844,3.90625 C25.9427,3.90625 26.4323,4.10417 26.9531,4.5 C27.349,4.88542 27.5469,5.33854 27.5469,5.85938 L27.5469,11.9219 C27.5469,12.7656 27.0885,13.349 26.1719,13.6719 L21.5781,15.4375 L21.5781,31.1563 M17.875,-9.46875 L9.57813,-6.54688 L9.57813,9.46875 L17.875,6.54688 L17.875,-9.46875 "/>
<path class="Accidental" transform="matrix(0.566929,0,0,0.566929,415.071,191.339)" d="M21.5781,31.1563 C21.5781,32.3958 20.9609,33.0156 19.7266,33.0156 C18.4922,33.0156 17.875,32.3958 17.875,31.1563 L17.875,16.7031 L9.57813,19.8281 L9.57813,35.6406 C9.57813,36.8802 8.95833,37.5 7.71875,37.5 C6.47917,37.5 5.85938,36.8802 5.85938,35.6406 L5.85938,21.0938 L2.73438,22.2656 C2.67188,22.3281 2.41146,22.3594 1.95313,22.3594 C1.43229,22.3594 0.976563,22.1641 0.585938,21.7734 C0.195313,21.3828 0,20.9271 0,20.4063 L0,14.3594 C0,13.3802 0.421875,12.7604 1.26563,12.5 L5.85938,10.9375 L5.85938,-5.07813 L2.73438,-4 C2.67188,-3.9375 2.41146,-3.90625 1.95313,-3.90625 C1.43229,-3.90625 0.976563,-4.10156 0.585938,-4.49219 C0.195313,-4.88281 0,-5.33854 0,-5.85938 L0,-11.9219 C0,-12.8281 0.421875,-13.4115 1.26563,-13.6719 L5.85938,-15.4375 L5.85938,-31.1563 C5.85938,-32.3958 6.47917,-33.0156 7.71875,-33.0156 C8.95833,-33.0156 9.57813,-32.3958 9.57813,-31.1563 L9.57813,-16.7031 L17.875,-19.8281 L17.875,-35.6406 C17.875,-36.8802 18.4922,-37.5 19.7266,-37.5 C20.9609,-37.5 21.5781,-36.8802 21.5781,-35.6406 L21.5781,-21.0938 L24.8125,-22.2656 C24.875,-22.3281 25.099,-22.3594 25.4844,-22.3594 C25.9427,-22.3594 26.4323,-22.1667 26.9531,-21.7813 C27.349,-21.3854 27.5469,-20.9271 27.5469,-20.4063 L27.5469,-14.3594 C27.5469,-13.4427 27.0885,-12.8229 26.1719,-12.5 L21.5781,-10.9375 L21.5781,5.07813 L24.8125,4 C24.875,3.9375 25.099,3.90625 25.4844,3.90625 C25.9427,3.90625 26.4323,4.10417 26.9531,4.5 C27.349,4.88542 27.5469,5.33854 27.5469,5.85938 L27.5469,11.9219 C27.5469,12.7656 27.0885,13.349 26.1719,13.6719 L21.5781,15.4375 L21.5781,31.1563 M17.875,-9.46875 L9.57813,-6.54688 L9.57813,9.46875 L17.875,6.54688 L17.875,-9.46875 "/>
<path class="Accidental" transform="matrix(0.566929,0,0,0.566929,540.105,177.165)" d="M21.5781,31.1563 C21.5781,32.3958 20.9609,33.0156 19.7266,33.0156 C18.4922,33.0156 17.875,32.3958 17.875,31.1563 L17.875,16.7031 L9.57813,19.8281 L9.57813,35.6406 C9.57813,36.8802 8.95833,37.5 7.71875,37.5 C6.47917,37.5 5.85938,36.8802 5.85938,35.6406 L5.85938,21.0938 L2.73438,22.2656 C2.67188,22.3281 2.41146,22.3594 1.95313,22.3594 C1.43229,22.3594 0.976563,22.1641 0.585938,21.7734 C0.195313,21.3828 0,20.9271 0,20.4063 L0,14.3594 C0,13.3802 0.421875,12.7604 1.26563,12.5 L5.85938,10.9375 L5.85938,-5.07813 L2.73438,-4 C2.67188,-3.9375 2.41146,-3.90625 1.95313,-3.90625 C1.43229,-3.90625 0.976563,-4.10156 0.585938,-4.49219 C0.195313,-4.88281 0,-5.33854 0,-5.85938 L0,-11.9219 C0,-12.8281 0.421875,-13.4115 1.26563,-13.6719 L5.85938,-15.4375 L5.85938,-31.1563 C5.85938,-32.3958 6.47917,-33.0156 7.71875,-33.0156 C8.95833,-33.0156 9.57813,-32.3958 9.57813,-31.1563 L9.57813,-16.7031 L17.875,-19.8281 L17.875,-35.6406 C17.875,-36.8802 18.4922,-37.5 19.7266,-37.5 C20.9609,-37.5 21.5781,-36.8802 21.5781,-35.6406 L21.5781,-21.0938 L24.8125,-22.2656 C24.875,-22.3281 25.099,-22.3594 25.4844,-22.3594 C25.9427,-22.3594 26.4323,-22.1667 26.9531,-21.7813 C27.349,-21.3854 27.5469,-20.9271 27.5469,-20.4063 L27.5469,-14.3594 C27.5469,-13.4427 27.0885,-12.8229 26.1719,-12.5 L21.5781,-10.9375 L21.5781,5.07813 L24.8125,4 C24.875,3.9375 25.099,3.90625 25.4844,3.90625 C25.9427,3.90625 26.4323,4.10417 26.9531,4.5 C27.349,4.88542 27.5469,5.33854 27.5469,5.85938 L27.5469,11.9219 C27.5469,12.7656 27.0885,13.349 26.1719,13.6719 L21.5781,15.4375 L21.5781,31.1563 M17.875,-9.46875 L9.57813,-6.54688 L9.57813,9.46875 L17.875,6.54688 L17.875,-9.46875 "/>
<path class="Accidental" transform="matrix(0.566929,0,0,0.566929,102.486,85.0394)" d="M21.5781,31.1563 C21.5781,32.3958 20.9609,33.0156 19.7266,33.0156 C18.4922,33.0156 17.875,32.3958 17.875,31.1563 L17.875,16.7031 L9.57813,19.8281 L9.57813,35.6406 C9.57813,36.8802 8.95833,37.5 7.71875,37.5 C6.47917,37.5 5.85938,36.8802 5.85938,35.6406 L5.85938,21.0938 L2.73438,22.2656 C2.67188,22.3281 2.41146,22.3594 1.95313,22.3594 C1.43229,22.3594 0.976563,22.1641 0.585938,21.7734 C0.195313,21.3828 0,20.9271 0,20.4063 L0,14.3594 C0,13.3802 0.421875,12.7604 1.26563,12.5 L5.85938,10.9375 L5.85938,-5.07813 L2.73438,-4 C2.67188,-3.9375 2.41146,-3.90625 1.95313,-3.90625 C1.43229,-3.90625 0.976563,-4.10156 0.585938,-4.49219 C0.195313,-4.88281 0,-5.33854 0,-5.85938 L0,-11.9219 C0,-12.8281 0.421875,-13.4115 1.26563,-13.6719 L5.85938,-15.4375 L5.85938,-31.1563 C5.85938,-32.3958 6.47917,-33.0156 7.71875,-33.0156 C8.95833,-33.0156 9.57813,-32.3958 9.57813,-31.1563 L9.57813,-16.7031 L17.875,-19.8281 L17.875,-35.6406 C17.875,-36.8802 18.4922,-37.5 19.7266,-37.5 C20.9609,-37.5 21.5781,-36.8802 21.5781,-35.6406 L21.5781,-21.0938 L24.8125,-22.2656 C24.875,-22.3281 25.099,-22.3594 25.4844,-22.3594 C25.9427,-22.3594 26.4323,-22.1667 26.9531,-21.7813 C27.349,-21.3854 27.5469,-20.9271 27.5469,-20.4063 L27.5469,-14.3594 C27.5469,-13.4427 27.0885,-12.8229 26.1719,-12.5 L21.5781,-10.9375 L21.5781,5.07813 L24.8125,4 C24.875,3.9375 25.099,3.90625 25.4844,3.90625 C25.9427,3.90625 26.4323,4.10417 26.9531,4.5 C27.349,4.88542 27.5469,5.33854 27.5469,5.85938 L27.5469,11.9219 C27.5469,12.7656 27.0885,13.349 26.1719,13.6719 L21.5781,15.4375 L21.5781,31.1563 M17.875,-9.46875 L9.57813,-6.54688 L9.57813,9.46875 L17.875,6.54688 L17.875,-9.46875 "/>
<path class="Accidental" transform="matrix(0.566929,0,0,0.566929,227.52,70.8661)" d="M21.5781,31.1563 C21.5781,32.3958 20.9609,33.0156 19.7266,33.0156 C18.4922,33.0156 17.875,32.3958 17.875,31.1563 L17.875,16.7031 L9.57813,19.8281 L9.57813,35.6406 C9.57813,36.8802 8.95833,37.5 7.71875,37.5 C6.47917,37.5 5.85938,36.8802 5.85938,35.6406 L5.85938,21.0938 L2.73438,22.2656 C2.67188,22.3281 2.41146,22.3594 1.95313,22.3594 C1.43229,22.3594 0.976563,22.1641 0.585938,21.7734 C0.195313,21.3828 0,20.9271 0,20.4063 L0,14.3594 C0,13.3802 0.421875,12.7604 1.26563,12.5 L5.85938,10.9375 L5.85938,-5.07813 L2.73438,-4 C2.67188,-3.9375 2.41146,-3.90625 1.95313,-3.90625 C1.43229,-3.90625 0.976563,-4.10156 0.585938,-4.49219 C0.195313,-4.88281 0,-5.33854 0,-5.85938 L0,-11.9219 C0,-12.8281 0.421875,-13.4115 1.26563,-13.6719 L5.85938,-15.4375 L5.85938,-31.1563 C5.85938,-32.3958 6.47917,-33.0156 7.71875,-33.0156 C8.95833,-33.0156 9.57813,-32.3958 9.57813,-31.1563 L9.57813,-16.7031 L17.875,-19.8281 L17.875,-35.6406 C17.875,-36.8802 18.4922,-37.5 19.7266,-37.5 C20.9609,-37.5 21.5781,-36.8802 21.5781,-35.6406 L21.5781,-21.0938 L24.8125,-22.2656 C24.875,-22.3281 25.099,-22.3594 25.4844,-22.3594 C25.9427,-22.3594 26.4323,-22.1667 26.9531,-21.7813 C27.349,-21.3854 27.5469,-20.9271 27.5469,-20.4063 L27.5469,-14.3594 C27.5469,-13.4427 27.0885,-12.8229 26.1719,-12.5 L21.5781,-10.9375 L21.5781,5.07813 L24.8125,4 C24.875,3.9375 25.099,3.90625 25.4844,3.90625 C25.9427,3.90625 26.4323,4.10417 26.9531,4.5 C27.349,4.88542 27.5469,5.33854 27.5469,5.85938 L27.5469,11.9219 C27.5469,12.7656 27.0885,13.349 26.1719,13.6719 L21.5781,15.4375 L21.5781,31.1563 M17.875,-9.46875 L9.57813,-6.54688 L9.57813,9.46875 L17.875,6.54688 L17.875,-9.46875 "/>
<path class="Accidental" transform="matrix(0.566929,0,0,0.566929,415.071,49.6063)" d="M21.5781,31.1563 C21.5781,32.3958 20.9609,33.0156 19.7266,33.0156 C18.4922,33.0156 17.875,32.3958 17.875,31.1563 L17.875,16.7031 L9.57813,19.8281 L9.57813,35.6406 C9.57813,36.8802 8.95833,37.5 7.71875,37.5 C6.47917,37.5 5.85938,36.8802 5.85938,35.6406 L5.85938,21.0938 L2.73438,22.2656 C2.67188,22.3281 2.41146,22.3594 1.95313,22.3594 C1.43229,22.3594 0.976563,22.1641 0.585938,21.7734 C0.195313,21.3828 0,20.9271 0,20.4063 L0,14.3594 C0,13.3802 0.421875,12.7604 1.26563,12.5 L5.85938,10.9375 L5.85938,-5.07813 L2.73438,-4 C2.67188,-3.9375 2.41146,-3.90625 1.95313,-3.90625 C1.43229,-3.90625 0.976563,-4.10156 0.585938,-4.49219 C0.195313,-4.88281 0,-5.33854 0,-5.85938 L0,-11.9219 C0,-12.8281 0.421875,-13.4115 1.26563,-13.6719 L5.85938,-15.4375 L5.85938,-31.1563 C5.85938,-32.3958 6.47917,-33.0156 7.71875,-33.0156 C8.95833,-33.0156 9.57813,-32.3958 9.57813,-31.1563 L9.57813,-16.7031 L17.875,-19.8281 L17.875,-35.6406 C17.875,-36.8802 18.4922,-37.5 19.7266,-37.5 C20.9609,-37.5 21.5781,-36.8802 21.5781,-35.6406 L21.5781,-21.0938 L24.8125,-22.2656 C24.875,-22.3281 25.099,-22.3594 25.4844,-22.3594 C25.9427,-22.3594 26.4323,-22.1667 26.9531,-21.7813 C27.349,-21.3854 27.5469,-20.9271 27.5469,-20.4063 L27.5469,-14.3594 C27.5469,-13.4427 27.0885,-12.8229 26.1719,-12.5 L21.5781,-10.9375 L21.5781,5.07813 L24.8125,4 C24.875,3.9375 25.099,3.90625 25.4844,3.90625 C25.9427,3.90625 26.4323,4.10417 26.9531,4.5 C27.349,4.88542 27.5469,5.33854 27.5469,5.85938 L27.5469,11.9219 C27.5469,12.7656 27.0885,13.349 26.1719,13.6719 L21.5781,15.4375 L21.5781,31.1563 M17.875,-9.46875 L9.57813,-6.54688 L9.57813,9.46875 L17.875,6.54688 L17.875,-9.46875 "/>
<path class="Accidental" transform="matrix(0.566929,0,0,0.566929,537.271,35.4331)" d="M21.5781,31.1563 C21.5781,32.3958 20.9609,33.0156 19.7266,33.0156 C18.4922,33.0156 17.875,32.3958 17.875,31.1563 L17.875,16.7031 L9.57813,19.8281 L9.57813,35.6406 C9.57813,36.8802 8.95833,37.5 7.71875,37.5 C6.47917,37.5 5.85938,36.8802 5.85938,35.6406 L5.85938,21.0938 L2.73438,22.2656 C2.67188,22.3281 2.41146,22.3594 1.95313,22.3594 C1.43229,22.3594 0.976563,22.1641 0.585938,21.7734 C0.195313,21.3828 0,20.9271 0,20.4063 L0,14.3594 C0,13.3802 0.421875,12.7604 1.26563,12.5 L5.85938,10.9375 L5.85938,-5.07813 L2.73438,-4 C2.67188,-3.9375 2.41146,-3.90625 1.95313,-3.90625 C1.43229,-3.90625 0.976563,-4.10156 0.585938,-4.49219 C0.195313,-4.88281 0,-5.33854 0,-5.85938 L0,-11.9219 C0,-12.8281 0.421875,-13.4115 1.26563,-13.6719 L5.85938,-15.4375 L5.85938,-31.1563 C5.85938,-32.3958 6.47917,-33.0156 7.71875,-33.0156 C8.95833,-33.0156 9.57813,-32.3958 9.57813,-31.1563 L9.57813,-16.7031 L17.875,-19.8281 L17.875,-35.6406 C17.875,-36.8802 18.4922,-37.5 19.7266,-37.5 C20.9609,-37.5 21.5781,-36.8802 21.5781,-35.6406 L21.5781,-21.0938 L24.8125,-22.2656 C24.875,-22.3281 25.099,-22.3594 25.4844,-22.3594 C25.9427,-22.3594 26.4323,-22.1667 26.9531,-21.7813 C27.349,-21.3854 27.5469,-20.9271 27.5469,-20.4063 L27.5469,-14.3594 C27.5469,-13.4427 27.0885,-12.8229 26.1719,-12.5 L21.5781,-10.9375 L21.5781,5.07813 L24.8125,4 C24.875,3.9375 25.099,3.90625 25.4844,3.90625 C25.9427,3.90625 26.4323,4.10417 26.9531,4.5 C27.349,4.88542 27.5469,5.33854 27.5469,5.85938 L27.5469,11.9219 C27.5469,12.7656 27.0885,13.349 26.1719,13.6719 L21.5781,15.4375 L21.5781,31.1563 M17.875,-9.46875 L9.57813,-6.54688 L9.57813,9.46875 L17.875,6.54688 L17.875,-9.46875 "/>
<polyline class="LedgerLine" fill="none" stroke="#000000" stroke-width="2.27" stroke-linecap="square" stroke-linejoin="bevel" points="554.584,35.4331 581.748,35.4331"/>
<path class="Note" fill="#ffffff" fill-opacity="0.0" fill-rule="evenodd" d="M122.492,692.717 L141.201,692.717 L141.201,717.52 L122.492,717.52 L122.492,692.717 "/>
<path class="Note" d="M131.159,701.727 L126.769,701.727 L126.769,699.962 C128.675,699.722 129.917,699.386 130.495,698.954 C131.074,698.522 131.576,697.54 132.003,696.009 L133.628,696.009 L133.628,715.868 L131.159,715.868 L131.159,701.727 "/>
<path class="Note" fill="#ffffff" fill-opacity="0.0" fill-rule="evenodd" d="M122.492,643.11 L141.201,643.11 L141.201,667.913 L122.492,667.913 L122.492,643.11 "/>
<path class="Note" d="M131.472,648.559 C130.055,648.559 129.081,648.947 128.55,649.723 C128.019,650.499 127.732,651.533 127.691,652.824 L125.222,652.824 C125.316,648.543 127.389,646.402 131.441,646.402 C133.326,646.402 134.805,646.889 135.878,647.863 C136.951,648.837 137.488,650.173 137.488,651.871 C137.488,653.882 136.566,655.251 134.722,655.981 C135.909,656.397 136.766,656.973 137.292,657.707 C137.818,658.442 138.081,659.444 138.081,660.715 C138.081,662.6 137.469,664.103 136.245,665.223 C135.021,666.343 133.394,666.902 131.363,666.902 C127.29,666.902 125.102,664.767 124.8,660.496 L127.269,660.496 C127.363,661.934 127.745,662.996 128.417,663.684 C129.089,664.371 130.097,664.715 131.441,664.715 C132.732,664.715 133.74,664.366 134.464,663.668 C135.188,662.97 135.55,661.996 135.55,660.746 C135.55,658.34 134.18,657.137 131.441,657.137 L130.409,657.168 L130.097,657.168 L130.097,655.059 C131.868,655.027 133.123,654.806 133.863,654.395 C134.602,653.983 134.972,653.168 134.972,651.949 C134.972,650.908 134.659,650.082 134.034,649.473 C133.409,648.863 132.555,648.559 131.472,648.559"/>
<path class="Note" fill="#ffffff" fill-opacity="0.0" fill-rule="evenodd" d="M185.009,692.717 L203.718,692.717 L203.718,717.52 L185.009,717.52 L185.009,692.717 "/>
<path class="Note" d="M187.833,702.899 C187.958,698.306 190.14,696.009 194.38,696.009 C196.265,696.009 197.796,696.55 198.973,697.634 C200.15,698.717 200.739,700.118 200.739,701.837 C200.739,704.306 199.338,706.306 196.536,707.837 L193.739,709.337 C192.52,709.993 191.65,710.629 191.13,711.243 C190.609,711.858 190.281,712.587 190.145,713.431 L200.598,713.431 L200.598,715.868 L187.38,715.868 C187.494,713.681 187.934,711.996 188.7,710.813 C189.466,709.631 190.885,708.451 192.958,707.274 L195.52,705.821 C197.312,704.79 198.208,703.483 198.208,701.899 C198.208,700.837 197.835,699.949 197.091,699.235 C196.346,698.522 195.416,698.165 194.302,698.165 C191.812,698.165 190.473,699.743 190.286,702.899 L187.833,702.899 "/>
<path class="Note" fill="#ffffff" fill-opacity="0.0" fill-rule="evenodd" d="M185.009,618.307 L203.718,618.307 L203.718,643.11 L185.009,643.11 L185.009,618.307 "/>
<path class="Note" d="M187.63,631.849 C187.63,630.193 187.77,628.73 188.052,627.459 C188.333,626.188 188.687,625.193 189.114,624.474 C189.541,623.756 190.054,623.172 190.653,622.724 C191.252,622.276 191.828,621.977 192.38,621.826 C192.932,621.675 193.515,621.599 194.13,621.599 C198.463,621.599 200.63,625.073 200.63,632.021 C200.63,635.292 200.072,637.789 198.958,639.513 C197.843,641.237 196.234,642.099 194.13,642.099 C192.005,642.099 190.39,641.227 189.286,639.482 C188.182,637.737 187.63,635.193 187.63,631.849 M198.098,631.802 C198.098,626.459 196.773,623.787 194.122,623.787 C191.471,623.787 190.145,626.485 190.145,631.881 C190.145,637.328 191.453,640.052 194.067,640.052 C195.453,640.052 196.471,639.381 197.122,638.037 C197.773,636.693 198.098,634.615 198.098,631.802"/>
<path class="Note" fill="#ffffff" fill-opacity="0.0" fill-rule="evenodd" d="M247.526,692.717 L266.235,692.717 L266.235,717.52 L247.526,717.52 L247.526,692.717 "/>
<path class="Note" d="M258.1,711.102 L249.725,711.102 L249.725,708.509 L258.74,696.009 L260.569,696.009 L260.569,708.899 L263.506,708.899 L263.506,711.102 L260.569,711.102 L260.569,715.868 L258.1,715.868 L258.1,711.102 M258.1,708.899 L258.1,700.212 L251.881,708.899 L258.1,708.899 "/>
<path class="Note" fill="#ffffff" fill-opacity="0.0" fill-rule="evenodd" d="M247.526,618.307 L266.235,618.307 L266.235,643.11 L247.526,643.11 L247.526,618.307 "/>
<path class="Note" d="M250.35,628.49 C250.475,623.896 252.657,621.599 256.897,621.599 C258.782,621.599 260.313,622.141 261.49,623.224 C262.668,624.308 263.256,625.709 263.256,627.427 C263.256,629.896 261.855,631.896 259.053,633.427 L256.256,634.927 C255.037,635.584 254.168,636.219 253.647,636.834 C253.126,637.448 252.798,638.177 252.662,639.021 L263.115,639.021 L263.115,641.459 L249.897,641.459 C250.011,639.271 250.451,637.586 251.217,636.404 C251.983,635.222 253.402,634.042 255.475,632.865 L258.037,631.412 C259.829,630.381 260.725,629.073 260.725,627.49 C260.725,626.427 260.352,625.539 259.608,624.826 C258.863,624.112 257.933,623.756 256.819,623.756 C254.329,623.756 252.99,625.334 252.803,628.49 L250.35,628.49 "/>
<path class="Note" fill="#ffffff" fill-opacity="0.0" fill-rule="evenodd" d="M310.043,667.913 L328.752,667.913 L328.752,692.717 L310.043,692.717 L310.043,667.913 "/>
<path class="Note" d="M312.664,681.456 C312.664,679.799 312.804,678.336 313.086,677.065 C313.367,675.794 313.721,674.799 314.148,674.081 C314.575,673.362 315.088,672.779 315.687,672.331 C316.286,671.883 316.862,671.583 317.414,671.432 C317.966,671.281 318.549,671.206 319.164,671.206 C323.497,671.206 325.664,674.68 325.664,681.627 C325.664,684.898 325.107,687.396 323.992,689.12 C322.877,690.844 321.268,691.706 319.164,691.706 C317.039,691.706 315.424,690.833 314.32,689.088 C313.216,687.344 312.664,684.799 312.664,681.456 M323.133,681.409 C323.133,676.065 321.807,673.393 319.156,673.393 C316.505,673.393 315.179,676.091 315.179,681.487 C315.179,686.935 316.487,689.659 319.101,689.659 C320.487,689.659 321.505,688.987 322.156,687.643 C322.807,686.299 323.133,684.221 323.133,681.409"/>
<path class="Note" fill="#ffffff" fill-opacity="0.0" fill-rule="evenodd" d="M310.043,618.307 L328.752,618.307 L328.752,643.11 L310.043,643.11 L310.043,618.307 "/>
<path class="Note" d="M319.023,623.756 C317.607,623.756 316.633,624.144 316.101,624.92 C315.57,625.696 315.284,626.73 315.242,628.021 L312.773,628.021 C312.867,623.74 314.94,621.599 318.992,621.599 C320.877,621.599 322.357,622.086 323.429,623.06 C324.502,624.034 325.039,625.37 325.039,627.068 C325.039,629.078 324.117,630.448 322.273,631.177 C323.461,631.594 324.317,632.17 324.843,632.904 C325.37,633.638 325.633,634.641 325.633,635.912 C325.633,637.797 325.021,639.3 323.797,640.42 C322.573,641.539 320.945,642.099 318.914,642.099 C314.841,642.099 312.653,639.964 312.351,635.693 L314.82,635.693 C314.914,637.131 315.297,638.193 315.968,638.881 C316.64,639.568 317.648,639.912 318.992,639.912 C320.284,639.912 321.291,639.563 322.015,638.865 C322.739,638.167 323.101,637.193 323.101,635.943 C323.101,633.537 321.732,632.334 318.992,632.334 L317.961,632.365 L317.648,632.365 L317.648,630.256 C319.419,630.224 320.674,630.003 321.414,629.591 C322.153,629.18 322.523,628.365 322.523,627.146 C322.523,626.105 322.211,625.279 321.586,624.67 C320.961,624.06 320.107,623.756 319.023,623.756"/>
<path class="Note" fill="#ffffff" fill-opacity="0.0" fill-rule="evenodd" d="M372.56,667.913 L391.269,667.913 L391.269,692.717 L372.56,692.717 L372.56,667.913 "/>
<path class="Note" d="M375.384,678.096 C375.509,673.502 377.691,671.206 381.931,671.206 C383.816,671.206 385.348,671.747 386.525,672.831 C387.702,673.914 388.29,675.315 388.29,677.034 C388.29,679.502 386.889,681.502 384.087,683.034 L381.29,684.534 C380.071,685.19 379.202,685.825 378.681,686.44 C378.16,687.055 377.832,687.784 377.696,688.627 L388.15,688.627 L388.15,691.065 L374.931,691.065 C375.045,688.877 375.486,687.193 376.251,686.01 C377.017,684.828 378.436,683.648 380.509,682.471 L383.071,681.018 C384.863,679.987 385.759,678.68 385.759,677.096 C385.759,676.034 385.387,675.146 384.642,674.432 C383.897,673.719 382.967,673.362 381.853,673.362 C379.363,673.362 378.025,674.94 377.837,678.096 L375.384,678.096 "/>
<path class="Note" fill="#ffffff" fill-opacity="0.0" fill-rule="evenodd" d="M372.56,593.504 L391.269,593.504 L391.269,618.307 L372.56,618.307 L372.56,593.504 "/>
<path class="Note" d="M375.181,607.046 C375.181,605.39 375.321,603.926 375.603,602.656 C375.884,601.385 376.238,600.39 376.665,599.671 C377.092,598.952 377.605,598.369 378.204,597.921 C378.803,597.473 379.379,597.174 379.931,597.023 C380.483,596.872 381.066,596.796 381.681,596.796 C386.014,596.796 388.181,600.27 388.181,607.218 C388.181,610.489 387.624,612.986 386.509,614.71 C385.394,616.434 383.785,617.296 381.681,617.296 C379.556,617.296 377.941,616.424 376.837,614.679 C375.733,612.934 375.181,610.39 375.181,607.046 M385.65,606.999 C385.65,601.656 384.324,598.984 381.673,598.984 C379.022,598.984 377.696,601.682 377.696,607.077 C377.696,612.525 379.004,615.249 381.618,615.249 C383.004,615.249 384.022,614.577 384.673,613.234 C385.324,611.89 385.65,609.812 385.65,606.999"/>
<path class="Note" fill="#ffffff" fill-opacity="0.0" fill-rule="evenodd" d="M435.077,667.913 L453.786,667.913 L453.786,692.717 L435.077,692.717 L435.077,667.913 "/>
<path class="Note" d="M445.651,686.299 L437.276,686.299 L437.276,683.706 L446.292,671.206 L448.12,671.206 L448.12,684.096 L451.057,684.096 L451.057,686.299 L448.12,686.299 L448.12,691.065 L445.651,691.065 L445.651,686.299 M445.651,684.096 L445.651,675.409 L439.432,684.096 L445.651,684.096 "/>
<path class="Note" fill="#ffffff" fill-opacity="0.0" fill-rule="evenodd" d="M435.077,593.504 L453.786,593.504 L453.786,618.307 L435.077,618.307 L435.077,593.504 "/>
<path class="Note" d="M437.901,603.687 C438.026,599.093 440.208,596.796 444.448,596.796 C446.333,596.796 447.865,597.338 449.042,598.421 C450.219,599.504 450.807,600.906 450.807,602.624 C450.807,605.093 449.406,607.093 446.604,608.624 L443.807,610.124 C442.589,610.781 441.719,611.416 441.198,612.031 C440.677,612.645 440.349,613.374 440.214,614.218 L450.667,614.218 L450.667,616.656 L437.448,616.656 C437.563,614.468 438.003,612.783 438.768,611.601 C439.534,610.419 440.953,609.239 443.026,608.062 L445.589,606.609 C447.38,605.577 448.276,604.27 448.276,602.687 C448.276,601.624 447.904,600.736 447.159,600.023 C446.414,599.309 445.484,598.952 444.37,598.952 C441.88,598.952 440.542,600.531 440.354,603.687 L437.901,603.687 "/>
<path class="Note" fill="#ffffff" fill-opacity="0.0" fill-rule="evenodd" d="M497.595,643.11 L516.303,643.11 L516.303,667.913 L497.595,667.913 L497.595,643.11 "/>
<path class="Note" d="M500.215,656.652 C500.215,654.996 500.356,653.533 500.637,652.262 C500.918,650.991 501.272,649.996 501.699,649.277 C502.126,648.559 502.639,647.975 503.238,647.527 C503.837,647.08 504.413,646.78 504.965,646.629 C505.517,646.478 506.1,646.402 506.715,646.402 C511.048,646.402 513.215,649.876 513.215,656.824 C513.215,660.095 512.658,662.593 511.543,664.317 C510.429,666.04 508.819,666.902 506.715,666.902 C504.59,666.902 502.975,666.03 501.871,664.285 C500.767,662.54 500.215,659.996 500.215,656.652 M510.684,656.606 C510.684,651.262 509.358,648.59 506.707,648.59 C504.056,648.59 502.731,651.288 502.731,656.684 C502.731,662.132 504.038,664.856 506.653,664.856 C508.038,664.856 509.056,664.184 509.707,662.84 C510.358,661.496 510.684,659.418 510.684,656.606"/>
<path class="Note" fill="#ffffff" fill-opacity="0.0" fill-rule="evenodd" d="M497.595,593.504 L516.303,593.504 L516.303,618.307 L497.595,618.307 L497.595,593.504 "/>
<path class="Note" d="M506.574,598.952 C505.158,598.952 504.184,599.34 503.653,600.116 C503.121,600.892 502.835,601.926 502.793,603.218 L500.324,603.218 C500.418,598.937 502.491,596.796 506.543,596.796 C508.429,596.796 509.908,597.283 510.981,598.257 C512.054,599.231 512.59,600.567 512.59,602.265 C512.59,604.275 511.668,605.645 509.824,606.374 C511.012,606.791 511.869,607.366 512.395,608.101 C512.921,608.835 513.184,609.838 513.184,611.109 C513.184,612.994 512.572,614.497 511.348,615.616 C510.124,616.736 508.496,617.296 506.465,617.296 C502.392,617.296 500.205,615.161 499.903,610.89 L502.371,610.89 C502.465,612.327 502.848,613.39 503.52,614.077 C504.192,614.765 505.199,615.109 506.543,615.109 C507.835,615.109 508.843,614.76 509.567,614.062 C510.291,613.364 510.653,612.39 510.653,611.14 C510.653,608.734 509.283,607.531 506.543,607.531 L505.512,607.562 L505.199,607.562 L505.199,605.452 C506.97,605.421 508.225,605.2 508.965,604.788 C509.705,604.377 510.074,603.562 510.074,602.343 C510.074,601.301 509.762,600.476 509.137,599.866 C508.512,599.257 507.658,598.952 506.574,598.952"/>
<path class="Note" fill="#ffffff" fill-opacity="0.0" fill-rule="evenodd" d="M560.112,643.11 L578.82,643.11 L578.82,667.913 L560.112,667.913 L560.112,643.11 "/>
<path class="Note" d="M569.091,648.559 C567.675,648.559 566.701,648.947 566.17,649.723 C565.638,650.499 565.352,651.533 565.31,652.824 L562.841,652.824 C562.935,648.543 565.008,646.402 569.06,646.402 C570.946,646.402 572.425,646.889 573.498,647.863 C574.571,648.837 575.107,650.173 575.107,651.871 C575.107,653.882 574.185,655.251 572.341,655.981 C573.529,656.397 574.386,656.973 574.912,657.707 C575.438,658.442 575.701,659.444 575.701,660.715 C575.701,662.6 575.089,664.103 573.865,665.223 C572.641,666.343 571.013,666.902 568.982,666.902 C564.909,666.902 562.722,664.767 562.42,660.496 L564.888,660.496 C564.982,661.934 565.365,662.996 566.037,663.684 C566.709,664.371 567.716,664.715 569.06,664.715 C570.352,664.715 571.36,664.366 572.084,663.668 C572.808,662.97 573.17,661.996 573.17,660.746 C573.17,658.34 571.8,657.137 569.06,657.137 L568.029,657.168 L567.716,657.168 L567.716,655.059 C569.487,655.027 570.743,654.806 571.482,654.395 C572.222,653.983 572.591,653.168 572.591,651.949 C572.591,650.908 572.279,650.082 571.654,649.473 C571.029,648.863 570.175,648.559 569.091,648.559"/>
<path class="Note" fill="#ffffff" fill-opacity="0.0" fill-rule="evenodd" d="M560.112,593.504 L578.82,593.504 L578.82,618.307 L560.112,618.307 L560.112,593.504 "/>
<path class="Note" d="M562.732,607.609 C562.732,605.859 562.891,604.314 563.209,602.976 C563.526,601.637 563.922,600.588 564.396,599.827 C564.87,599.067 565.44,598.447 566.107,597.968 C566.774,597.489 567.401,597.174 567.99,597.023 C568.578,596.872 569.196,596.796 569.841,596.796 C571.352,596.796 572.607,597.254 573.607,598.171 C574.607,599.088 575.227,600.359 575.466,601.984 L573.013,601.984 C572.805,601.036 572.412,600.299 571.834,599.773 C571.256,599.247 570.534,598.984 569.67,598.984 C568.253,598.984 567.167,599.632 566.412,600.929 C565.657,602.226 565.269,604.088 565.248,606.515 C566.331,605.046 567.852,604.312 569.81,604.312 C571.591,604.312 573.05,604.9 574.185,606.077 C575.321,607.254 575.888,608.765 575.888,610.609 C575.888,612.546 575.279,614.145 574.06,615.406 C572.841,616.666 571.289,617.296 569.404,617.296 C564.956,617.296 562.732,614.067 562.732,607.609 M569.513,606.499 C568.295,606.499 567.302,606.885 566.537,607.656 C565.771,608.426 565.388,609.432 565.388,610.671 C565.388,611.932 565.771,612.986 566.537,613.835 C567.302,614.684 568.263,615.109 569.42,615.109 C570.565,615.109 571.511,614.705 572.256,613.898 C573,613.09 573.373,612.057 573.373,610.796 C573.373,609.473 573.026,608.426 572.334,607.656 C571.641,606.885 570.701,606.499 569.513,606.499"/>
<path class="Note" fill="#ffffff" fill-opacity="0.0" fill-rule="evenodd" d="M122.492,515.551 L141.201,515.551 L141.201,540.354 L122.492,540.354 L122.492,515.551 "/>
<path class="Note" d="M131.472,521 C130.055,521 129.081,521.388 128.55,522.164 C128.019,522.94 127.732,523.974 127.691,525.265 L125.222,525.265 C125.316,520.984 127.389,518.843 131.441,518.843 C133.326,518.843 134.805,519.33 135.878,520.304 C136.951,521.278 137.488,522.614 137.488,524.312 C137.488,526.323 136.566,527.692 134.722,528.422 C135.909,528.838 136.766,529.414 137.292,530.148 C137.818,530.882 138.081,531.885 138.081,533.156 C138.081,535.041 137.469,536.544 136.245,537.664 C135.021,538.783 133.394,539.343 131.363,539.343 C127.29,539.343 125.102,537.208 124.8,532.937 L127.269,532.937 C127.363,534.375 127.745,535.437 128.417,536.125 C129.089,536.812 130.097,537.156 131.441,537.156 C132.732,537.156 133.74,536.807 134.464,536.109 C135.188,535.411 135.55,534.437 135.55,533.187 C135.55,530.781 134.18,529.578 131.441,529.578 L130.409,529.609 L130.097,529.609 L130.097,527.5 C131.868,527.468 133.123,527.247 133.863,526.836 C134.602,526.424 134.972,525.609 134.972,524.39 C134.972,523.349 134.659,522.523 134.034,521.914 C133.409,521.304 132.555,521 131.472,521"/>
<path class="Note" fill="#ffffff" fill-opacity="0.0" fill-rule="evenodd" d="M122.492,465.945 L141.201,465.945 L141.201,490.748 L122.492,490.748 L122.492,465.945 "/>
<path class="Note" d="M131.159,474.956 L126.769,474.956 L126.769,473.19 C128.675,472.951 129.917,472.615 130.495,472.182 C131.074,471.75 131.576,470.768 132.003,469.237 L133.628,469.237 L133.628,489.096 L131.159,489.096 L131.159,474.956 "/>
<path class="Note" fill="#ffffff" fill-opacity="0.0" fill-rule="evenodd" d="M185.009,515.551 L203.718,515.551 L203.718,540.354 L185.009,540.354 L185.009,515.551 "/>
<path class="Note" d="M195.583,533.937 L187.208,533.937 L187.208,531.343 L196.223,518.843 L198.052,518.843 L198.052,531.734 L200.989,531.734 L200.989,533.937 L198.052,533.937 L198.052,538.703 L195.583,538.703 L195.583,533.937 M195.583,531.734 L195.583,523.047 L189.364,531.734 L195.583,531.734 "/>
<path class="Note" fill="#ffffff" fill-opacity="0.0" fill-rule="evenodd" d="M185.009,465.945 L203.718,465.945 L203.718,490.748 L185.009,490.748 L185.009,465.945 "/>
<path class="Note" d="M187.833,476.128 C187.958,471.534 190.14,469.237 194.38,469.237 C196.265,469.237 197.796,469.779 198.973,470.862 C200.15,471.945 200.739,473.346 200.739,475.065 C200.739,477.534 199.338,479.534 196.536,481.065 L193.739,482.565 C192.52,483.221 191.65,483.857 191.13,484.471 C190.609,485.086 190.281,485.815 190.145,486.659 L200.598,486.659 L200.598,489.096 L187.38,489.096 C187.494,486.909 187.934,485.224 188.7,484.042 C189.466,482.859 190.885,481.68 192.958,480.503 L195.52,479.05 C197.312,478.018 198.208,476.711 198.208,475.128 C198.208,474.065 197.835,473.177 197.091,472.464 C196.346,471.75 195.416,471.393 194.302,471.393 C191.812,471.393 190.473,472.971 190.286,476.128 L187.833,476.128 "/>
<path class="Note" fill="#ffffff" fill-opacity="0.0" fill-rule="evenodd" d="M247.526,515.551 L266.235,515.551 L266.235,540.354 L247.526,540.354 L247.526,515.551 "/>
<path class="Note" d="M250.147,529.656 C250.147,527.906 250.306,526.362 250.623,525.023 C250.941,523.685 251.337,522.635 251.811,521.875 C252.285,521.114 252.855,520.494 253.522,520.015 C254.188,519.536 254.816,519.221 255.405,519.07 C255.993,518.919 256.61,518.843 257.256,518.843 C258.767,518.843 260.022,519.302 261.022,520.218 C262.022,521.135 262.642,522.406 262.881,524.031 L260.428,524.031 C260.22,523.083 259.826,522.346 259.248,521.82 C258.67,521.294 257.949,521.031 257.084,521.031 C255.668,521.031 254.582,521.679 253.826,522.976 C253.071,524.273 252.683,526.135 252.662,528.562 C253.746,527.093 255.267,526.359 257.225,526.359 C259.006,526.359 260.464,526.948 261.6,528.125 C262.735,529.302 263.303,530.812 263.303,532.656 C263.303,534.593 262.694,536.192 261.475,537.453 C260.256,538.713 258.704,539.343 256.819,539.343 C252.371,539.343 250.147,536.114 250.147,529.656 M256.928,528.547 C255.709,528.547 254.717,528.932 253.951,529.703 C253.186,530.474 252.803,531.479 252.803,532.718 C252.803,533.979 253.186,535.033 253.951,535.882 C254.717,536.731 255.678,537.156 256.834,537.156 C257.98,537.156 258.925,536.752 259.67,535.945 C260.415,535.138 260.787,534.104 260.787,532.843 C260.787,531.52 260.441,530.474 259.748,529.703 C259.056,528.932 258.115,528.547 256.928,528.547"/>
<path class="Note" fill="#ffffff" fill-opacity="0.0" fill-rule="evenodd" d="M247.526,465.945 L266.235,465.945 L266.235,490.748 L247.526,490.748 L247.526,465.945 "/>
<path class="Note" d="M258.1,484.331 L249.725,484.331 L249.725,481.737 L258.74,469.237 L260.569,469.237 L260.569,482.128 L263.506,482.128 L263.506,484.331 L260.569,484.331 L260.569,489.096 L258.1,489.096 L258.1,484.331 M258.1,482.128 L258.1,473.44 L251.881,482.128 L258.1,482.128 "/>
<path class="Note" fill="#ffffff" fill-opacity="0.0" fill-rule="evenodd" d="M310.043,490.748 L328.752,490.748 L328.752,515.551 L310.043,515.551 L310.043,490.748 "/>
<path class="Note" d="M312.664,504.29 C312.664,502.634 312.804,501.17 313.086,499.9 C313.367,498.629 313.721,497.634 314.148,496.915 C314.575,496.196 315.088,495.613 315.687,495.165 C316.286,494.717 316.862,494.418 317.414,494.267 C317.966,494.116 318.549,494.04 319.164,494.04 C323.497,494.04 325.664,497.514 325.664,504.462 C325.664,507.733 325.107,510.23 323.992,511.954 C322.877,513.678 321.268,514.54 319.164,514.54 C317.039,514.54 315.424,513.668 314.32,511.923 C313.216,510.178 312.664,507.634 312.664,504.29 M323.133,504.243 C323.133,498.9 321.807,496.228 319.156,496.228 C316.505,496.228 315.179,498.926 315.179,504.321 C315.179,509.769 316.487,512.493 319.101,512.493 C320.487,512.493 321.505,511.821 322.156,510.478 C322.807,509.134 323.133,507.056 323.133,504.243"/>
<path class="Note" fill="#ffffff" fill-opacity="0.0" fill-rule="evenodd" d="M310.043,465.945 L328.752,465.945 L328.752,490.748 L310.043,490.748 L310.043,465.945 "/>
<path class="Note" d="M324.789,469.237 L324.789,471.675 L316.523,471.675 L315.742,477.221 C316.846,476.419 318.07,476.018 319.414,476.018 C321.32,476.018 322.864,476.63 324.047,477.854 C325.229,479.078 325.82,480.669 325.82,482.628 C325.82,484.721 325.187,486.43 323.922,487.753 C322.656,489.076 321.023,489.737 319.023,489.737 C318.252,489.737 317.547,489.654 316.906,489.487 C316.265,489.32 315.734,489.12 315.312,488.886 C314.89,488.651 314.508,488.344 314.164,487.964 C313.82,487.583 313.56,487.248 313.383,486.956 C313.205,486.664 313.036,486.3 312.875,485.862 C312.713,485.425 312.614,485.123 312.578,484.956 C312.541,484.789 312.497,484.544 312.445,484.221 L314.898,484.221 C315.482,486.44 316.836,487.55 318.961,487.55 C320.304,487.55 321.364,487.141 322.14,486.323 C322.916,485.505 323.304,484.388 323.304,482.971 C323.304,481.492 322.911,480.328 322.125,479.479 C321.338,478.63 320.284,478.206 318.961,478.206 C318.2,478.206 317.549,478.341 317.008,478.612 C316.466,478.883 315.903,479.362 315.32,480.05 L313.054,480.05 L314.539,469.237 L324.789,469.237 "/>
<path class="Note" fill="#ffffff" fill-opacity="0.0" fill-rule="evenodd" d="M372.56,490.748 L391.269,490.748 L391.269,515.551 L372.56,515.551 L372.56,490.748 "/>
<path class="Note" d="M375.384,500.931 C375.509,496.337 377.691,494.04 381.931,494.04 C383.816,494.04 385.348,494.582 386.525,495.665 C387.702,496.749 388.29,498.15 388.29,499.868 C388.29,502.337 386.889,504.337 384.087,505.868 L381.29,507.368 C380.071,508.025 379.202,508.66 378.681,509.275 C378.16,509.889 377.832,510.618 377.696,511.462 L388.15,511.462 L388.15,513.9 L374.931,513.9 C375.045,511.712 375.486,510.027 376.251,508.845 C377.017,507.663 378.436,506.483 380.509,505.306 L383.071,503.853 C384.863,502.821 385.759,501.514 385.759,499.931 C385.759,498.868 385.387,497.98 384.642,497.267 C383.897,496.553 382.967,496.196 381.853,496.196 C379.363,496.196 378.025,497.775 377.837,500.931 L375.384,500.931 "/>
<path class="Note" fill="#ffffff" fill-opacity="0.0" fill-rule="evenodd" d="M372.56,441.142 L391.269,441.142 L391.269,465.945 L372.56,465.945 L372.56,441.142 "/>
<path class="Note" d="M375.181,454.684 C375.181,453.028 375.321,451.564 375.603,450.293 C375.884,449.022 376.238,448.028 376.665,447.309 C377.092,446.59 377.605,446.007 378.204,445.559 C378.803,445.111 379.379,444.812 379.931,444.661 C380.483,444.509 381.066,444.434 381.681,444.434 C386.014,444.434 388.181,447.908 388.181,454.856 C388.181,458.127 387.624,460.624 386.509,462.348 C385.394,464.072 383.785,464.934 381.681,464.934 C379.556,464.934 377.941,464.062 376.837,462.317 C375.733,460.572 375.181,458.028 375.181,454.684 M385.65,454.637 C385.65,449.293 384.324,446.621 381.673,446.621 C379.022,446.621 377.696,449.319 377.696,454.715 C377.696,460.163 379.004,462.887 381.618,462.887 C383.004,462.887 384.022,462.215 384.673,460.871 C385.324,459.528 385.65,457.45 385.65,454.637"/>
<path class="Note" fill="#ffffff" fill-opacity="0.0" fill-rule="evenodd" d="M435.077,490.748 L453.786,490.748 L453.786,515.551 L435.077,515.551 L435.077,490.748 "/>
<path class="Note" d="M445.651,509.134 L437.276,509.134 L437.276,506.54 L446.292,494.04 L448.12,494.04 L448.12,506.931 L451.057,506.931 L451.057,509.134 L448.12,509.134 L448.12,513.9 L445.651,513.9 L445.651,509.134 M445.651,506.931 L445.651,498.243 L439.432,506.931 L445.651,506.931 "/>
<path class="Note" fill="#ffffff" fill-opacity="0.0" fill-rule="evenodd" d="M435.077,441.142 L453.786,441.142 L453.786,465.945 L435.077,465.945 L435.077,441.142 "/>
<path class="Note" d="M437.901,451.325 C438.026,446.731 440.208,444.434 444.448,444.434 C446.333,444.434 447.865,444.976 449.042,446.059 C450.219,447.142 450.807,448.543 450.807,450.262 C450.807,452.731 449.406,454.731 446.604,456.262 L443.807,457.762 C442.589,458.418 441.719,459.054 441.198,459.668 C440.677,460.283 440.349,461.012 440.214,461.856 L450.667,461.856 L450.667,464.293 L437.448,464.293 C437.563,462.106 438.003,460.421 438.768,459.239 C439.534,458.056 440.953,456.877 443.026,455.7 L445.589,454.246 C447.38,453.215 448.276,451.908 448.276,450.325 C448.276,449.262 447.904,448.374 447.159,447.661 C446.414,446.947 445.484,446.59 444.37,446.59 C441.88,446.59 440.542,448.168 440.354,451.325 L437.901,451.325 "/>
<path class="Note" fill="#ffffff" fill-opacity="0.0" fill-rule="evenodd" d="M497.595,490.748 L516.303,490.748 L516.303,515.551 L497.595,515.551 L497.595,490.748 "/>
<path class="Note" d="M512.34,494.04 L512.34,496.478 L504.074,496.478 L503.293,502.025 C504.397,501.223 505.621,500.821 506.965,500.821 C508.871,500.821 510.416,501.433 511.598,502.657 C512.78,503.881 513.371,505.473 513.371,507.431 C513.371,509.525 512.738,511.233 511.473,512.556 C510.207,513.879 508.574,514.54 506.574,514.54 C505.804,514.54 505.098,514.457 504.457,514.29 C503.817,514.124 503.285,513.923 502.863,513.689 C502.442,513.454 502.059,513.147 501.715,512.767 C501.371,512.387 501.111,512.051 500.934,511.759 C500.757,511.467 500.587,511.103 500.426,510.665 C500.264,510.228 500.166,509.926 500.129,509.759 C500.093,509.592 500.048,509.348 499.996,509.025 L502.449,509.025 C503.033,511.243 504.387,512.353 506.512,512.353 C507.856,512.353 508.916,511.944 509.692,511.126 C510.468,510.308 510.856,509.191 510.856,507.775 C510.856,506.295 510.462,505.131 509.676,504.282 C508.889,503.433 507.835,503.009 506.512,503.009 C505.751,503.009 505.1,503.144 504.559,503.415 C504.017,503.686 503.455,504.165 502.871,504.853 L500.606,504.853 L502.09,494.04 L512.34,494.04 "/>
<path class="Note" fill="#ffffff" fill-opacity="0.0" fill-rule="evenodd" d="M497.595,441.142 L516.303,441.142 L516.303,465.945 L497.595,465.945 L497.595,441.142 "/>
<path class="Note" d="M506.574,446.59 C505.158,446.59 504.184,446.978 503.653,447.754 C503.121,448.53 502.835,449.564 502.793,450.856 L500.324,450.856 C500.418,446.575 502.491,444.434 506.543,444.434 C508.429,444.434 509.908,444.921 510.981,445.895 C512.054,446.869 512.59,448.205 512.59,449.903 C512.59,451.913 511.668,453.283 509.824,454.012 C511.012,454.429 511.869,455.004 512.395,455.739 C512.921,456.473 513.184,457.476 513.184,458.746 C513.184,460.632 512.572,462.134 511.348,463.254 C510.124,464.374 508.496,464.934 506.465,464.934 C502.392,464.934 500.205,462.799 499.903,458.528 L502.371,458.528 C502.465,459.965 502.848,461.028 503.52,461.715 C504.192,462.403 505.199,462.746 506.543,462.746 C507.835,462.746 508.843,462.397 509.567,461.7 C510.291,461.002 510.653,460.028 510.653,458.778 C510.653,456.371 509.283,455.168 506.543,455.168 L505.512,455.2 L505.199,455.2 L505.199,453.09 C506.97,453.059 508.225,452.838 508.965,452.426 C509.705,452.015 510.074,451.2 510.074,449.981 C510.074,448.939 509.762,448.114 509.137,447.504 C508.512,446.895 507.658,446.59 506.574,446.59"/>
<path class="Note" fill="#ffffff" fill-opacity="0.0" fill-rule="evenodd" d="M560.112,465.945 L578.82,465.945 L578.82,490.748 L560.112,490.748 L560.112,465.945 "/>
<path class="Note" d="M568.779,474.956 L564.388,474.956 L564.388,473.19 C566.295,472.951 567.537,472.615 568.115,472.182 C568.693,471.75 569.196,470.768 569.623,469.237 L571.248,469.237 L571.248,489.096 L568.779,489.096 L568.779,474.956 "/>
<path class="Note" fill="#ffffff" fill-opacity="0.0" fill-rule="evenodd" d="M560.112,441.142 L578.82,441.142 L578.82,465.945 L560.112,465.945 L560.112,441.142 "/>
<path class="Note" d="M562.732,455.246 C562.732,453.496 562.891,451.952 563.209,450.614 C563.526,449.275 563.922,448.226 564.396,447.465 C564.87,446.705 565.44,446.085 566.107,445.606 C566.774,445.127 567.401,444.812 567.99,444.661 C568.578,444.509 569.196,444.434 569.841,444.434 C571.352,444.434 572.607,444.892 573.607,445.809 C574.607,446.726 575.227,447.996 575.466,449.621 L573.013,449.621 C572.805,448.674 572.412,447.937 571.834,447.411 C571.256,446.884 570.534,446.621 569.67,446.621 C568.253,446.621 567.167,447.27 566.412,448.567 C565.657,449.864 565.269,451.726 565.248,454.153 C566.331,452.684 567.852,451.95 569.81,451.95 C571.591,451.95 573.05,452.538 574.185,453.715 C575.321,454.892 575.888,456.403 575.888,458.246 C575.888,460.184 575.279,461.783 574.06,463.043 C572.841,464.304 571.289,464.934 569.404,464.934 C564.956,464.934 562.732,461.705 562.732,455.246 M569.513,454.137 C568.295,454.137 567.302,454.522 566.537,455.293 C565.771,456.064 565.388,457.069 565.388,458.309 C565.388,459.569 565.771,460.624 566.537,461.473 C567.302,462.322 568.263,462.746 569.42,462.746 C570.565,462.746 571.511,462.343 572.256,461.536 C573,460.728 573.373,459.694 573.373,458.434 C573.373,457.111 573.026,456.064 572.334,455.293 C571.641,454.522 570.701,454.137 569.513,454.137"/>
<path class="Note" transform="matrix(0.566929,0,0,0.566929,121.217,368.504)" d="M21.9688,-13.7656 C25.0938,-13.7656 27.7344,-12.9531 29.8906,-11.3281 C31.901,-9.56771 32.9063,-7.35417 32.9063,-4.6875 C32.9063,-0.197917 30.599,4 25.9844,7.90625 C21.2969,11.8125 16.2813,13.7656 10.9375,13.7656 C7.8125,13.7656 5.17708,12.9531 3.03125,11.3281 C1.01042,9.56771 0,7.35417 0,4.6875 C0,0.197917 2.34375,-4 7.03125,-7.90625 C11.5938,-11.8125 16.5729,-13.7656 21.9688,-13.7656"/>
<path class="Note" transform="matrix(0.566929,0,0,0.566929,183.734,361.417)" d="M21.9688,-13.7656 C25.0938,-13.7656 27.7344,-12.9531 29.8906,-11.3281 C31.901,-9.56771 32.9063,-7.35417 32.9063,-4.6875 C32.9063,-0.197917 30.599,4 25.9844,7.90625 C21.2969,11.8125 16.2813,13.7656 10.9375,13.7656 C7.8125,13.7656 5.17708,12.9531 3.03125,11.3281 C1.01042,9.56771 0,7.35417 0,4.6875 C0,0.197917 2.34375,-4 7.03125,-7.90625 C11.5938,-11.8125 16.5729,-13.7656 21.9688,-13.7656"/>
<path class="Note" transform="matrix(0.566929,0,0,0.566929,246.251,354.331)" d="M21.9688,-13.7656 C25.0938,-13.7656 27.7344,-12.9531 29.8906,-11.3281 C31.901,-9.56771 32.9063,-7.35417 32.9063,-4.6875 C32.9063,-0.197917 30.599,4 25.9844,7.90625 C21.2969,11.8125 16.2813,13.7656 10.9375,13.7656 C7.8125,13.7656 5.17708,12.9531 3.03125,11.3281 C1.01042,9.56771 0,7.35417 0,4.6875 C0,0.197917 2.34375,-4 7.03125,-7.90625 C11.5938,-11.8125 16.5729,-13.7656 21.9688,-13.7656"/>
<path class="Note" transform="matrix(0.566929,0,0,0.566929,308.768,347.244)" d="M21.9688,-13.7656 C25.0938,-13.7656 27.7344,-12.9531 29.8906,-11.3281 C31.901,-9.56771 32.9063,-7.35417 32.9063,-4.6875 C32.9063,-0.197917 30.599,4 25.9844,7.90625 C21.2969,11.8125 16.2813,13.7656 10.9375,13.7656 C7.8125,13.7656 5.17708,12.9531 3.03125,11.3281 C1.01042,9.56771 0,7.35417 0,4.6875 C0,0.197917 2.34375,-4 7.03125,-7.90625 C11.5938,-11.8125 16.5729,-13.7656 21.9688,-13.7656"/>
<path class="Note" transform="matrix(0.566929,0,0,0.566929,371.285,340.157)" d="M21.9688,-13.7656 C25.0938,-13.7656 27.7344,-12.9531 29.8906,-11.3281 C31.901,-9.56771 32.9063,-7.35417 32.9063,-4.6875 C32.9063,-0.197917 30.599,4 25.9844,7.90625 C21.2969,11.8125 16.2813,13.7656 10.9375,13.7656 C7.8125,13.7656 5.17708,12.9531 3.03125,11.3281 C1.01042,9.56771 0,7.35417 0,4.6875 C0,0.197917 2.34375,-4 7.03125,-7.90625 C11.5938,-11.8125 16.5729,-13.7656 21.9688,-13.7656"/>
<path class="Note" transform="matrix(0.566929,0,0,0.566929,433.802,333.071)" d="M21.9688,-13.7656 C25.0938,-13.7656 27.7344,-12.9531 29.8906,-11.3281 C31.901,-9.56771 32.9063,-7.35417 32.9063,-4.6875 C32.9063,-0.197917 30.599,4 25.9844,7.90625 C21.2969,11.8125 16.2813,13.7656 10.9375,13.7656 C7.8125,13.7656 5.17708,12.9531 3.03125,11.3281 C1.01042,9.56771 0,7.35417 0,4.6875 C0,0.197917 2.34375,-4 7.03125,-7.90625 C11.5938,-11.8125 16.5729,-13.7656 21.9688,-13.7656"/>
<path class="Note" transform="matrix(0.566929,0,0,0.566929,496.319,325.984)" d="M21.9688,-13.7656 C25.0938,-13.7656 27.7344,-12.9531 29.8906,-11.3281 C31.901,-9.56771 32.9063,-7.35417 32.9063,-4.6875 C32.9063,-0.197917 30.599,4 25.9844,7.90625 C21.2969,11.8125 16.2813,13.7656 10.9375,13.7656 C7.8125,13.7656 5.17708,12.9531 3.03125,11.3281 C1.01042,9.56771 0,7.35417 0,4.6875 C0,0.197917 2.34375,-4 7.03125,-7.90625 C11.5938,-11.8125 16.5729,-13.7656 21.9688,-13.7656"/>
<path class="Note" transform="matrix(0.566929,0,0,0.566929,558.836,318.898)" d="M21.9688,-13.7656 C25.0938,-13.7656 27.7344,-12.9531 29.8906,-11.3281 C31.901,-9.56771 32.9063,-7.35417 32.9063,-4.6875 C32.9063,-0.197917 30.599,4 25.9844,7.90625 C21.2969,11.8125 16.2813,13.7656 10.9375,13.7656 C7.8125,13.7656 5.17708,12.9531 3.03125,11.3281 C1.01042,9.56771 0,7.35417 0,4.6875 C0,0.197917 2.34375,-4 7.03125,-7.90625 C11.5938,-11.8125 16.5729,-13.7656 21.9688,-13.7656"/>
<path class="Note" transform="matrix(0.566929,0,0,0.566929,121.217,226.772)" d="M21.9688,-13.7656 C25.0938,-13.7656 27.7344,-12.9531 29.8906,-11.3281 C31.901,-9.56771 32.9063,-7.35417 32.9063,-4.6875 C32.9063,-0.197917 30.599,4 25.9844,7.90625 C21.2969,11.8125 16.2813,13.7656 10.9375,13.7656 C7.8125,13.7656 5.17708,12.9531 3.03125,11.3281 C1.01042,9.56771 0,7.35417 0,4.6875 C0,0.197917 2.34375,-4 7.03125,-7.90625 C11.5938,-11.8125 16.5729,-13.7656 21.9688,-13.7656"/>
<path class="Note" transform="matrix(0.566929,0,0,0.566929,183.734,219.685)" d="M21.9688,-13.7656 C25.0938,-13.7656 27.7344,-12.9531 29.8906,-11.3281 C31.901,-9.56771 32.9063,-7.35417 32.9063,-4.6875 C32.9063,-0.197917 30.599,4 25.9844,7.90625 C21.2969,11.8125 16.2813,13.7656 10.9375,13.7656 C7.8125,13.7656 5.17708,12.9531 3.03125,11.3281 C1.01042,9.56771 0,7.35417 0,4.6875 C0,0.197917 2.34375,-4 7.03125,-7.90625 C11.5938,-11.8125 16.5729,-13.7656 21.9688,-13.7656"/>
<path class="Note" transform="matrix(0.566929,0,0,0.566929,246.251,212.598)" d="M21.9688,-13.7656 C25.0938,-13.7656 27.7344,-12.9531 29.8906,-11.3281 C31.901,-9.56771 32.9063,-7.35417 32.9063,-4.6875 C32.9063,-0.197917 30.599,4 25.9844,7.90625 C21.2969,11.8125 16.2813,13.7656 10.9375,13.7656 C7.8125,13.7656 5.17708,12.9531 3.03125,11.3281 C1.01042,9.56771 0,7.35417 0,4.6875 C0,0.197917 2.34375,-4 7.03125,-7.90625 C11.5938,-11.8125 16.5729,-13.7656 21.9688,-13.7656"/>
<path class="Note" transform="matrix(0.566929,0,0,0.566929,308.768,205.512)" d="M21.9688,-13.7656 C25.0938,-13.7656 27.7344,-12.9531 29.8906,-11.3281 C31.901,-9.56771 32.9063,-7.35417 32.9063,-4.6875 C32.9063,-0.197917 30.599,4 25.9844,7.90625 C21.2969,11.8125 16.2813,13.7656 10.9375,13.7656 C7.8125,13.7656 5.17708,12.9531 3.03125,11.3281 C1.01042,9.56771 0,7.35417 0,4.6875 C0,0.197917 2.34375,-4 7.03125,-7.90625 C11.5938,-11.8125 16.5729,-13.7656 21.9688,-13.7656"/>
<path class="Note" transform="matrix(0.566929,0,0,0.566929,371.285,198.425)" d="M21.9688,-13.7656 C25.0938,-13.7656 27.7344,-12.9531 29.8906,-11.3281 C31.901,-9.56771 32.9063,-7.35417 32.9063,-4.6875 C32.9063,-0.197917 30.599,4 25.9844,7.90625 C21.2969,11.8125 16.2813,13.7656 10.9375,13.7656 C7.8125,13.7656 5.17708,12.9531 3.03125,11.3281 C1.01042,9.56771 0,7.35417 0,4.6875 C0,0.197917 2.34375,-4 7.03125,-7.90625 C11.5938,-11.8125 16.5729,-13.7656 21.9688,-13.7656"/>
<path class="Note" transform="matrix(0.566929,0,0,0.566929,433.802,191.339)" d="M21.9688,-13.7656 C25.0938,-13.7656 27.7344,-12.9531 29.8906,-11.3281 C31.901,-9.56771 32.9063,-7.35417 32.9063,-4.6875 C32.9063,-0.197917 30.599,4 25.9844,7.90625 C21.2969,11.8125 16.2813,13.7656 10.9375,13.7656 C7.8125,13.7656 5.17708,12.9531 3.03125,11.3281 C1.01042,9.56771 0,7.35417 0,4.6875 C0,0.197917 2.34375,-4 7.03125,-7.90625 C11.5938,-11.8125 16.5729,-13.7656 21.9688,-13.7656"/>
<path class="Note" transform="matrix(0.566929,0,0,0.566929,496.319,184.252)" d="M21.9688,-13.7656 C25.0938,-13.7656 27.7344,-12.9531 29.8906,-11.3281 C31.901,-9.56771 32.9063,-7.35417 32.9063,-4.6875 C32.9063,-0.197917 30.599,4 25.9844,7.90625 C21.2969,11.8125 16.2813,13.7656 10.9375,13.7656 C7.8125,13.7656 5.17708,12.9531 3.03125,11.3281 C1.01042,9.56771 0,7.35417 0,4.6875 C0,0.197917 2.34375,-4 7.03125,-7.90625 C11.5938,-11.8125 16.5729,-13.7656 21.9688,-13.7656"/>
<path class="Note" transform="matrix(0.566929,0,0,0.566929,558.836,177.165)" d="M21.9688,-13.7656 C25.0938,-13.7656 27.7344,-12.9531 29.8906,-11.3281 C31.901,-9.56771 32.9063,-7.35417 32.9063,-4.6875 C32.9063,-0.197917 30.599,4 25.9844,7.90625 C21.2969,11.8125 16.2813,13.7656 10.9375,13.7656 C7.8125,13.7656 5.17708,12.9531 3.03125,11.3281 C1.01042,9.56771 0,7.35417 0,4.6875 C0,0.197917 2.34375,-4 7.03125,-7.90625 C11.5938,-11.8125 16.5729,-13.7656 21.9688,-13.7656"/>
<path class="Note" transform="matrix(0.566929,0,0,0.566929,121.217,85.0394)" d="M21.9688,-13.7656 C25.0938,-13.7656 27.7344,-12.9531 29.8906,-11.3281 C31.901,-9.56771 32.9063,-7.35417 32.9063,-4.6875 C32.9063,-0.197917 30.599,4 25.9844,7.90625 C21.2969,11.8125 16.2813,13.7656 10.9375,13.7656 C7.8125,13.7656 5.17708,12.9531 3.03125,11.3281 C1.01042,9.56771 0,7.35417 0,4.6875 C0,0.197917 2.34375,-4 7.03125,-7.90625 C11.5938,-11.8125 16.5729,-13.7656 21.9688,-13.7656"/>
<path class="Note" transform="matrix(0.566929,0,0,0.566929,183.734,77.9528)" d="M21.9688,-13.7656 C25.0938,-13.7656 27.7344,-12.9531 29.8906,-11.3281 C31.901,-9.56771 32.9063,-7.35417 32.9063,-4.6875 C32.9063,-0.197917 30.599,4 25.9844,7.90625 C21.2969,11.8125 16.2813,13.7656 10.9375,13.7656 C7.8125,13.7656 5.17708,12.9531 3.03125,11.3281 C1.01042,9.56771 0,7.35417 0,4.6875 C0,0.197917 2.34375,-4 7.03125,-7.90625 C11.5938,-11.8125 16.5729,-13.7656 21.9688,-13.7656"/>
<path class="Note" transform="matrix(0.566929,0,0,0.566929,246.251,70.8661)" d="M21.9688,-13.7656 C25.0938,-13.7656 27.7344,-12.9531 29.8906,-11.3281 C31.901,-9.56771 32.9063,-7.35417 32.9063,-4.6875 C32.9063,-0.197917 30.599,4 25.9844,7.90625 C21.2969,11.8125 16.2813,13.7656 10.9375,13.7656 C7.8125,13.7656 5.17708,12.9531 3.03125,11.3281 C1.01042,9.56771 0,7.35417 0,4.6875 C0,0.197917 2.34375,-4 7.03125,-7.90625 C11.5938,-11.8125 16.5729,-13.7656 21.9688,-13.7656"/>
<path class="Note" transform="matrix(0.566929,0,0,0.566929,308.768,63.7795)" d="M21.9688,-13.7656 C25.0938,-13.7656 27.7344,-12.9531 29.8906,-11.3281 C31.901,-9.56771 32.9063,-7.35417 32.9063,-4.6875 C32.9063,-0.197917 30.599,4 25.9844,7.90625 C21.2969,11.8125 16.2813,13.7656 10.9375,13.7656 C7.8125,13.7656 5.17708,12.9531 3.03125,11.3281 C1.01042,9.56771 0,7.35417 0,4.6875 C0,0.197917 2.34375,-4 7.03125,-7.90625 C11.5938,-11.8125 16.5729,-13.7656 21.9688,-13.7656"/>
<path class="Note" transform="matrix(0.566929,0,0,0.566929,371.285,56.6929)" d="M21.9688,-13.7656 C25.0938,-13.7656 27.7344,-12.9531 29.8906,-11.3281 C31.901,-9.56771 32.9063,-7.35417 32.9063,-4.6875 C32.9063,-0.197917 30.599,4 25.9844,7.90625 C21.2969,11.8125 16.2813,13.7656 10.9375,13.7656 C7.8125,13.7656 5.17708,12.9531 3.03125,11.3281 C1.01042,9.56771 0,7.35417 0,4.6875 C0,0.197917 2.34375,-4 7.03125,-7.90625 C11.5938,-11.8125 16.5729,-13.7656 21.9688,-13.7656"/>
<path class="Note" transform="matrix(0.566929,0,0,0.566929,433.802,49.6063)" d="M21.9688,-13.7656 C25.0938,-13.7656 27.7344,-12.9531 29.8906,-11.3281 C31.901,-9.56771 32.9063,-7.35417 32.9063,-4.6875 C32.9063,-0.197917 30.599,4 25.9844,7.90625 C21.2969,11.8125 16.2813,13.7656 10.9375,13.7656 C7.8125,13.7656 5.17708,12.9531 3.03125,11.3281 C1.01042,9.56771 0,7.35417 0,4.6875 C0,0.197917 2.34375,-4 7.03125,-7.90625 C11.5938,-11.8125 16.5729,-13.7656 21.9688,-13.7656"/>
<path class="Note" transform="matrix(0.566929,0,0,0.566929,496.319,42.5197)" d="M21.9688,-13.7656 C25.0938,-13.7656 27.7344,-12.9531 29.8906,-11.3281 C31.901,-9.56771 32.9063,-7.35417 32.9063,-4.6875 C32.9063,-0.197917 30.599,4 25.9844,7.90625 C21.2969,11.8125 16.2813,13.7656 10.9375,13.7656 C7.8125,13.7656 5.17708,12.9531 3.03125,11.3281 C1.01042,9.56771 0,7.35417 0,4.6875 C0,0.197917 2.34375,-4 7.03125,-7.90625 C11.5938,-11.8125 16.5729,-13.7656 21.9688,-13.7656"/>
<path class="Note" transform="matrix(0.566929,0,0,0.566929,558.836,35.4331)" d="M21.9688,-13.7656 C25.0938,-13.7656 27.7344,-12.9531 29.8906,-11.3281 C31.901,-9.56771 32.9063,-7.35417 32.9063,-4.6875 C32.9063,-0.197917 30.599,4 25.9844,7.90625 C21.2969,11.8125 16.2813,13.7656 10.9375,13.7656 C7.8125,13.7656 5.17708,12.9531 3.03125,11.3281 C1.01042,9.56771 0,7.35417 0,4.6875 C0,0.197917 2.34375,-4 7.03125,-7.90625 C11.5938,-11.8125 16.5729,-13.7656 21.9688,-13.7656"/>
<path class="Clef" transform="matrix(0.566929,0,0,0.566929,28.5015,667.913)" d="M26.6563,42.4844 C26.6563,44.3073 25.224,45.2188 22.3594,45.2188 C20.0885,45.2188 18.1042,44.5365 16.4063,43.1719 C14.7813,41.7344 13.9688,39.9115 13.9688,37.7031 C13.9688,33.7969 16.3438,30.6719 21.0938,28.3281 C25.7188,25.9115 31.1563,24.7031 37.4063,24.7031 C39.8125,24.7031 42.3854,24.8698 45.125,25.2031 C47.1354,25.4635 49.3802,25.9844 51.8594,26.7656 C54.0677,27.474 55.7917,28.5443 57.0313,29.9766 C58.2708,31.4089 58.8906,33.0729 58.8906,34.9688 C58.8906,39.4583 56.5781,43.1354 51.9531,46 C58.724,47.2396 62.1406,50.2656 62.2031,55.0781 C62.2031,59.1198 60.3802,62.7682 56.7344,66.0234 C53.0885,69.2786 48.9583,70.9063 44.3438,70.9063 C42.3854,70.9063 40.3958,70.4479 38.375,69.5313 C36.4896,68.625 35.1563,67.7813 34.375,67 C33.5938,66.0833 33.2031,65.3958 33.2031,64.9375 C33.2031,64.2917 33.5313,63.7396 34.1875,63.2813 C34.7708,62.6979 35.3854,62.4063 36.0313,62.4063 C36.2917,62.4063 36.8464,62.8281 37.6953,63.6719 C38.5443,64.5156 39.7813,64.9375 41.4063,64.9375 C43.625,64.9375 45.776,63.9948 47.8594,62.1094 C49.8698,60.2865 50.875,58.1042 50.875,55.5625 C50.875,53.3542 49.9323,51.7604 48.0469,50.7813 C46.1615,49.8021 43.7552,49.3125 40.8281,49.3125 C40.3073,49.3125 40.0469,48.7604 40.0469,47.6563 C40.0469,46.0938 40.6302,45.3125 41.7969,45.3125 C43.6198,45.3125 45.25,44.5313 46.6875,42.9688 C48.0521,41.2813 48.7344,39.4896 48.7344,37.5938 C48.7344,37.0104 48.5729,36.1354 48.25,34.9688 C47.9896,34.1875 47.2083,33.2396 45.9063,32.125 C44.6667,31.0833 42.9375,30.3698 40.7188,29.9844 C40.1354,33.1719 39.4036,37.2396 38.5234,42.1875 C37.6432,47.1354 37.0417,50.3906 36.7188,51.9531 C35.6146,57.5573 33.599,62.276 30.6719,66.1094 C27.6094,70.151 24.3177,72.1719 20.7969,72.1719 C19.6927,72.1719 18.5573,71.9115 17.3906,71.3906 C16.474,70.9948 15.3021,70.1823 13.875,68.9531 C12.5729,67.9115 11.6927,67.224 11.2344,66.8906 C10.974,66.7031 10.8438,66.4115 10.8438,66.0156 C10.8438,65.3698 11.0729,64.7865 11.5313,64.2656 C12.0521,63.6719 12.6042,63.375 13.1875,63.375 C13.5729,63.375 14.4818,63.9948 15.9141,65.2344 C17.3464,66.474 18.8438,67.0938 20.4063,67.0938 C23.4063,67.0938 25.6563,65.1719 27.1563,61.3281 C28.5833,57.6198 29.2969,53.0313 29.2969,47.5625 L29.2969,46.7813 C29.2969,43.1354 29.8854,37.6979 31.0625,30.4688 C28.9792,31.125 27.3177,32.1042 26.0781,33.4063 C24.776,34.7083 24.125,36.0729 24.125,37.5 C24.125,38.6042 24.5469,39.5469 25.3906,40.3281 C26.2344,41.1094 26.6563,41.8281 26.6563,42.4844 M7.03125,11.9219 C7.35417,11.9219 8.13542,12.2448 9.375,12.8906 C10.6771,13.5469 11.7865,13.875 12.7031,13.875 C15.1719,13.875 18.1979,12.0833 21.7813,8.5 C32.1354,-2.05208 39.2656,-13.25 43.1719,-25.0938 C43.9531,-27.5729 45.8698,-28.8125 48.9219,-28.8125 C50.4844,-28.8125 51.8229,-28.4844 52.9375,-27.8281 C54.0417,-27.1198 54.5938,-26.4063 54.5938,-25.6875 L52.8281,10.8438 C52.8281,12.7917 53.5156,13.7656 54.8906,13.7656 C55.599,13.7656 56.6406,13.4427 58.0156,12.7969 C59.3177,12.1406 60.099,11.8125 60.3594,11.8125 C60.8802,11.8125 61.2031,12.3698 61.3281,13.4844 C61.3281,14.526 60.9063,15.1771 60.0625,15.4375 C59.4063,15.625 58.1042,16.2396 56.1563,17.2813 C54.1354,18.3229 52.5417,18.8438 51.375,18.8438 C48.8958,18.8438 47.1354,16.8906 46.0938,12.9844 C44.4688,6.86979 43.4271,0.520833 42.9688,-6.0625 C40.3646,-2.73958 37.4688,0.614583 34.2813,4 C35.4479,6.21875 37.5938,7.32813 40.7188,7.32813 C41.1771,7.32813 41.5365,7.29688 41.7969,7.23438 L41.8906,7.23438 C42.4115,7.23438 42.6719,7.71875 42.6719,8.6875 C42.6719,9.92708 42.25,10.6771 41.4063,10.9375 C40.0417,11.3958 38.6094,11.625 37.1094,11.625 C33.8594,11.625 31.5156,10.5156 30.0781,8.29688 L26.1719,11.8125 C20.7031,16.5 16.2448,18.8438 12.7969,18.8438 C11.8802,18.8438 10.9375,18.6823 9.96875,18.3594 C9.1875,18.0365 8.27604,17.5469 7.23438,16.8906 C6.83854,16.7031 6.39583,16.4609 5.90625,16.1641 C5.41667,15.8672 5.10938,15.6875 4.98438,15.625 C4.66146,15.5 4.5,15.2083 4.5,14.75 C4.5,14.2292 4.76042,13.6094 5.28125,12.8906 C5.72917,12.2448 6.3125,11.9219 7.03125,11.9219 M28.8125,-54 C28.8125,-52.375 27.4115,-51.5625 24.6094,-51.5625 C22.1406,-51.5625 19.9948,-52.375 18.1719,-54 C16.4115,-55.6354 15.5313,-57.625 15.5313,-59.9688 C15.5313,-62.2396 16.2448,-64.1927 17.6719,-65.8281 C19.1719,-67.5156 21.0938,-68.7813 23.4375,-69.625 C25.5833,-70.4063 27.9948,-71.026 30.6719,-71.4844 C33.4635,-71.8073 36.1302,-71.9688 38.6719,-71.9688 C40.1719,-71.9688 42.974,-71.2865 47.0781,-69.9219 C51.2448,-68.5573 54.1406,-67.875 55.7656,-67.875 C57.7865,-67.875 59.7083,-68.2344 61.5313,-68.9531 C63.0208,-69.599 64.4531,-70.3438 65.8281,-71.1875 C66.9323,-71.9063 67.5469,-72.2656 67.6719,-72.2656 C68.2656,-72.2656 68.7865,-72.0729 69.2344,-71.6875 C69.7552,-71.1667 70.0156,-70.7396 70.0156,-70.4063 C70.0156,-69.9583 69.401,-69.2135 68.1719,-68.1719 C66.8698,-66.9948 65.013,-65.8203 62.6016,-64.6484 C60.1901,-63.4766 57.651,-62.8906 54.9844,-62.8906 C53.8073,-62.8906 52.3438,-63.0885 50.5938,-63.4844 C49.4792,-56.2552 48.3073,-49.8385 47.0781,-44.2344 C46.0365,-39.2865 43.9531,-34.9583 40.8281,-31.25 C37.8281,-27.5417 34.474,-25.6875 30.7656,-25.6875 C29.2656,-25.6875 27.9323,-25.9792 26.7656,-26.5625 C25.4635,-27.2188 24.0938,-28.1979 22.6563,-29.5 C21.4896,-30.4688 20.3854,-31.3438 19.3438,-32.125 C19.0833,-32.3229 18.9531,-32.6198 18.9531,-33.0156 C18.9531,-33.4635 19.2135,-34.0469 19.7344,-34.7656 C20.2552,-35.349 20.7396,-35.6406 21.1875,-35.6406 C21.5833,-35.6406 22.6927,-34.8281 24.5156,-33.2031 C26.3385,-31.5781 27.9635,-30.7656 29.3906,-30.7656 C31.9948,-30.7656 34.0156,-32.2604 35.4531,-35.25 C36.8802,-38.1875 37.6927,-41.7031 37.8906,-45.7969 C38.2135,-52.5052 38.9635,-59.4427 40.1406,-66.6094 C38.7031,-66.9323 37.6302,-67.0938 36.9219,-67.0938 C33.7969,-67.0938 31.125,-66.4427 28.9063,-65.1406 C26.6979,-63.901 25.5938,-62.2083 25.5938,-60.0625 C25.5938,-58.5 26.1146,-57.2969 27.1563,-56.4531 C28.2604,-55.5365 28.8125,-54.7188 28.8125,-54"/>
<path class="Clef" transform="matrix(0.566929,0,0,0.566929,28.5015,490.748)" d="M21.2969,33.9844 C21.2969,35.4219 20.1875,36.1406 17.9688,36.1406 C16.1458,36.1406 14.5833,35.5833 13.2813,34.4688 C11.9167,33.3646 11.2344,31.9323 11.2344,30.1719 C11.2344,26.9844 13.0885,24.4792 16.7969,22.6563 C20.7031,20.7708 25.0677,19.8281 29.8906,19.8281 C34.5052,19.8281 38.6042,20.4479 42.1875,21.6875 C45.5104,23.0521 47.1719,25.1667 47.1719,28.0313 C47.1719,31.5417 45.3177,34.4688 41.6094,36.8125 C47.0781,37.9271 49.8125,40.3698 49.8125,44.1406 C49.8125,47.2656 48.3438,50.1615 45.4063,52.8281 C42.5417,55.4323 39.1927,56.7344 35.3594,56.7344 C33.7969,56.7344 32.2344,56.3802 30.6719,55.6719 C29.2344,55.0156 28.1927,54.2969 27.5469,53.5156 C26.8906,52.9323 26.5625,52.3802 26.5625,51.8594 C26.5625,51.3385 26.8229,50.9167 27.3438,50.5938 C27.8021,50.1354 28.2917,49.9063 28.8125,49.9063 C29.0729,49.9063 29.5599,50.2318 30.2734,50.8828 C30.987,51.5339 31.9635,51.8594 33.2031,51.8594 C35.0885,51.8594 36.849,51.1406 38.4844,49.7031 C40.0469,48.2135 40.8281,46.4896 40.8281,44.5313 C40.8281,42.8438 40.0469,41.5417 38.4844,40.625 C36.9844,39.7813 35.0625,39.3594 32.7188,39.3594 C32.2604,39.3594 32.0313,38.9688 32.0313,38.1875 C32.0313,36.8854 32.5208,36.2344 33.5,36.2344 C34.9271,36.2344 36.1979,35.6146 37.3125,34.375 C38.4167,32.9479 38.9688,31.4844 38.9688,29.9844 C38.9688,26.7969 36.8542,24.8125 32.625,24.0313 L29.3906,41.6094 C28.5469,45.9635 26.9531,49.7396 24.6094,52.9375 C22.2031,56.125 19.5677,57.7188 16.7031,57.7188 C15.724,57.7188 14.8125,57.5208 13.9688,57.125 C13.1875,56.8021 12.2083,56.151 11.0313,55.1719 C9.72917,54.1302 9.04688,53.5781 8.98438,53.5156 C8.72396,53.2552 8.59375,53.026 8.59375,52.8281 C8.59375,52.4427 8.79167,51.9583 9.1875,51.375 C9.63542,50.9167 10.0885,50.6875 10.5469,50.6875 C10.7448,50.6875 11.526,51.1771 12.8906,52.1563 C13.9948,53.1979 15.1667,53.7188 16.4063,53.7188 C18.8125,53.7188 20.6042,52.2188 21.7813,49.2188 C22.9479,46.0938 23.5313,42.3854 23.5313,38.0938 L23.5313,37.4063 C23.5313,34.7396 23.9896,30.4115 24.9063,24.4219 C23.2083,25.0052 21.875,25.7865 20.9063,26.7656 C19.8646,27.8073 19.3438,28.8802 19.3438,29.9844 C19.3438,30.8906 19.6667,31.6406 20.3125,32.2344 C20.9688,32.8802 21.2969,33.4635 21.2969,33.9844 M5.5625,9.46875 C5.82292,9.46875 6.47396,9.76563 7.51563,10.3594 C8.69271,10.8802 9.57292,11.1406 10.1563,11.1406 C13.0208,11.1406 17.1875,7.75521 22.6563,0.984375 C28.0625,-5.66146 32,-12.6979 34.4688,-20.125 C35.0625,-22.0729 36.5938,-23.0469 39.0625,-23.0469 C40.3021,-23.0469 41.3438,-22.7865 42.1875,-22.2656 C43.1042,-21.8802 43.5625,-21.3281 43.5625,-20.6094 L42.1875,8.59375 C42.1875,10.2917 42.776,11.1406 43.9531,11.1406 C44.3385,11.1406 45.151,10.8802 46.3906,10.3594 C47.5573,9.76563 48.2083,9.46875 48.3438,9.46875 C48.8021,9.46875 49.0313,9.92708 49.0313,10.8438 C49.0313,11.625 48.7344,12.1146 48.1406,12.3125 C47.4323,12.6354 46.3594,13.1563 44.9219,13.875 C43.2969,14.7188 42.026,15.1406 41.1094,15.1406 C40.1406,15.1406 39.2292,14.7188 38.375,13.875 C37.5313,12.8333 36.7865,10.8125 36.1406,7.8125 C35.3594,4.82292 34.7708,0.588542 34.375,-4.89063 C32.3542,-2.21354 30.0781,0.489583 27.5469,3.21875 C28.5156,4.91667 30.5,5.76563 33.5,5.76563 C33.8854,5.76563 34.0781,6.1875 34.0781,7.03125 C34.0781,8.53125 32.5833,9.28125 29.5938,9.28125 C27.0521,9.28125 25.2292,8.40104 24.125,6.64063 L21,9.375 C16.7708,13.0208 13.1563,14.9115 10.1563,15.0469 C9.11458,15.0469 7.75,14.5885 6.0625,13.6719 C4.42708,12.8281 3.60938,12.2083 3.60938,11.8125 C3.60938,11.3646 3.80729,10.8802 4.20313,10.3594 C4.58854,9.76563 5.04167,9.46875 5.5625,9.46875 M23.0469,-43.1719 C23.0469,-41.9323 21.9427,-41.3125 19.7344,-41.3125 C17.776,-41.3125 16.0469,-41.9635 14.5469,-43.2656 C13.1198,-44.5052 12.4063,-46.099 12.4063,-48.0469 C12.4063,-49.8698 12.9583,-51.4323 14.0625,-52.7344 C15.3646,-54.1719 16.9271,-55.151 18.75,-55.6719 C20.0521,-56.1927 22.0052,-56.7135 24.6094,-57.2344 C27.349,-57.4948 29.4635,-57.625 30.9531,-57.625 C32.0677,-57.625 34.2839,-57.0703 37.6016,-55.9609 C40.9193,-54.8516 43.2604,-54.2969 44.625,-54.2969 C46.2604,-54.2969 47.7917,-54.5573 49.2188,-55.0781 C50.5833,-55.6615 51.6927,-56.25 52.5469,-56.8438 C53.3906,-57.4896 53.9115,-57.8125 54.1094,-57.8125 C54.4948,-57.8125 54.9167,-57.651 55.375,-57.3281 C55.7604,-57.0052 55.9531,-56.6771 55.9531,-56.3438 C55.9531,-56.0833 55.4688,-55.4688 54.5,-54.5 C53.3229,-53.4583 51.8229,-52.5469 50,-51.7656 C48.0521,-50.7865 46.0677,-50.2969 44.0469,-50.2969 C43.0052,-50.2969 41.8333,-50.4583 40.5313,-50.7813 C39.6146,-44.4063 38.6719,-39.2292 37.7031,-35.25 C36.849,-31.2813 35.1875,-27.8333 32.7188,-24.9063 C30.3125,-21.9792 27.6406,-20.5156 24.7031,-20.5156 C23.401,-20.5156 22.3281,-20.776 21.4844,-21.2969 C20.3802,-21.8177 19.276,-22.5625 18.1719,-23.5313 C17.1302,-24.5104 16.25,-25.2292 15.5313,-25.6875 C15.2708,-25.9479 15.1406,-26.1771 15.1406,-26.375 C15.1406,-26.8229 15.3021,-27.276 15.625,-27.7344 C15.9479,-28.2552 16.3698,-28.5156 16.8906,-28.5156 C17.151,-28.5156 18.0313,-27.8646 19.5313,-26.5625 C21.0313,-25.2604 22.3646,-24.6094 23.5313,-24.6094 C25.0938,-24.6094 26.3021,-25.1302 27.1563,-26.1719 C28.0625,-27.2135 28.776,-28.776 29.2969,-30.8594 C29.7552,-32.7448 30.0833,-34.8594 30.2813,-37.2031 C30.5417,-39.1615 30.8333,-41.8333 31.1563,-45.2188 C31.3542,-47.1042 31.6771,-49.8073 32.125,-53.3281 C31.0208,-53.5885 30.1458,-53.7188 29.5,-53.7188 C27.1563,-53.7188 25.0365,-53.1979 23.1406,-52.1563 C21.3906,-50.9792 20.5156,-49.6406 20.5156,-48.1406 C20.5156,-47.0365 20.9375,-46.0625 21.7813,-45.2188 C22.625,-44.375 23.0469,-43.6927 23.0469,-43.1719"/>
<path class="Clef" transform="matrix(0.566929,0,0,0.566929,28.5015,333.071)" d="M57.1328,-8.89063 C56.1589,-9.86979 55.6719,-11.0755 55.6719,-12.5078 C55.6719,-13.9401 56.1589,-15.1432 57.1328,-16.1172 C58.1068,-17.0911 59.3099,-17.5781 60.7422,-17.5781 C62.1745,-17.5781 63.3802,-17.0911 64.3594,-16.1172 C65.3385,-15.1432 65.8281,-13.9401 65.8281,-12.5078 C65.8281,-11.0755 65.3385,-9.86979 64.3594,-8.89063 C63.3802,-7.91146 62.1745,-7.42188 60.7422,-7.42188 C59.3099,-7.42188 58.1068,-7.91146 57.1328,-8.89063 M57.1328,16.1172 C56.1589,15.1432 55.6719,13.9401 55.6719,12.5078 C55.6719,11.0755 56.1589,9.86979 57.1328,8.89063 C58.1068,7.91146 59.3099,7.42188 60.7422,7.42188 C62.1745,7.42188 63.3802,7.91146 64.3594,8.89063 C65.3385,9.86979 65.8281,11.0755 65.8281,12.5078 C65.8281,13.9401 65.3385,15.1432 64.3594,16.1172 C63.3802,17.0911 62.1745,17.5781 60.7422,17.5781 C59.3099,17.5781 58.1068,17.0911 57.1328,16.1172 M23.25,-26.2656 C31.9063,-26.2656 39,-24.0885 44.5313,-19.7344 C49.875,-15.1719 52.5469,-8.98438 52.5469,-1.17188 C52.5469,4.09896 51.5052,8.91667 49.4219,13.2813 C47.4635,17.8438 44.8906,21.8802 41.7031,25.3906 C38.4427,28.974 34.5052,32.3594 29.8906,35.5469 C25.3906,38.6719 20.7656,41.474 16.0156,43.9531 C6.31771,48.8281 0.979167,51.2656 0,51.2656 C-0.84375,51.2656 -1.26563,50.8438 -1.26563,50 C-1.26563,49.6771 -1.13542,49.3854 -0.875,49.125 C2.44792,47.1667 6.51563,44.6615 11.3281,41.6094 C14.4531,39.5885 18.099,36.7865 22.2656,33.2031 C26.3073,29.8177 29.4323,26.6302 31.6406,23.6406 C33.9219,20.7031 36.0052,17.0573 37.8906,12.7031 C39.5156,8.33854 40.3281,4.03646 40.3281,-0.203125 C40.3281,-6.51563 38.7656,-12.0156 35.6406,-16.7031 C32.5156,-21.3906 28.3854,-23.7344 23.25,-23.7344 C19.6042,-23.7344 16.4792,-22.5625 13.875,-20.2188 C11.0729,-17.8125 9.05208,-14.7865 7.8125,-11.1406 C9.05208,-11.6615 10.1927,-11.9219 11.2344,-11.9219 C13.9635,-11.9219 16.3073,-10.9427 18.2656,-8.98438 C20.2135,-6.90104 21.1875,-4.52604 21.1875,-1.85938 C21.1875,0.942708 20.2448,3.45313 18.3594,5.67188 C16.3385,7.68229 13.9635,8.6875 11.2344,8.6875 C8.30729,8.6875 5.67188,7.68229 3.32813,5.67188 C1.10938,3.45313 0,0.942708 0,-1.85938 C0,-8.56771 2.28125,-14.2969 6.84375,-19.0469 C11.3333,-23.8594 16.8021,-26.2656 23.25,-26.2656"/>
<path class="Clef" transform="matrix(0.566929,0,0,0.566929,28.5015,212.598)" d="M36.3281,-7.32813 C33.3385,-7.32813 31.8438,-4.88542 31.8438,0 C31.8438,4.88542 33.3385,7.32813 36.3281,7.32813 C37.3073,7.32813 38.7396,6.80729 40.625,5.76563 C42.4479,4.72396 43.9479,4.20313 45.125,4.20313 C51.3021,4.20313 56.6719,6.1875 61.2344,10.1563 C65.724,14.2604 67.9688,19.2083 67.9688,25 C67.9688,41.6667 59.1458,50 41.5,50 C37.2708,50 33.6615,48.6354 30.6719,45.9063 C27.7344,43.1667 26.2656,39.8125 26.2656,35.8438 C26.2656,33.6979 27.0156,31.875 28.5156,30.375 C30.0156,28.875 31.8073,28.125 33.8906,28.125 C35.974,28.125 37.763,28.875 39.2578,30.375 C40.7526,31.875 41.5,33.6979 41.5,35.8438 C41.5,37.1458 40.6875,38.4167 39.0625,39.6563 C37.4375,40.8229 36.625,42.0573 36.625,43.3594 C36.625,44.5365 37.1146,45.4479 38.0938,46.0938 C39,46.8125 40.1354,47.1719 41.5,47.1719 C46.9063,47.1719 50.5859,45.3151 52.5391,41.6016 C54.4922,37.888 55.4688,32.3542 55.4688,25 C55.4688,19.3333 54.8854,15.0365 53.7188,12.1094 C52.4792,8.72396 49.6146,7.03125 45.125,7.03125 C41.7396,7.03125 38.875,8.49479 36.5313,11.4219 C34.3125,14.4219 33.2031,17.9063 33.2031,21.875 C33.2031,22.8542 32.7474,23.3438 31.8359,23.3438 C30.9245,23.3438 30.4688,22.8542 30.4688,21.875 C30.4688,14.125 27.6719,7.45313 22.0781,1.85938 L22.0781,49.0313 C22.0781,49.6771 21.75,50 21.0938,50 L19.0469,50 C18.3281,50 17.9688,49.6771 17.9688,49.0313 L17.9688,-49.0313 C17.9688,-49.6771 18.3281,-50 19.0469,-50 L21.0938,-50 C21.75,-50 22.0781,-49.6771 22.0781,-49.0313 L22.0781,-1.85938 C27.6719,-7.45313 30.4688,-14.125 30.4688,-21.875 C30.4688,-22.8542 30.9245,-23.3438 31.8359,-23.3438 C32.7474,-23.3438 33.2031,-22.8542 33.2031,-21.875 C33.2031,-17.9063 34.3125,-14.4219 36.5313,-11.4219 C38.875,-8.49479 41.7396,-7.03125 45.125,-7.03125 C49.6146,-7.03125 52.4792,-8.72396 53.7188,-12.1094 C54.8854,-15.0365 55.4688,-19.3333 55.4688,-25 C55.4688,-32.3542 54.4922,-37.888 52.5391,-41.6016 C50.5859,-45.3151 46.9063,-47.1719 41.5,-47.1719 C40.1354,-47.1719 39,-46.8125 38.0938,-46.0938 C37.1146,-45.5104 36.625,-44.599 36.625,-43.3594 C36.625,-42.0573 37.4375,-40.8229 39.0625,-39.6563 C40.6875,-38.4167 41.5,-37.1458 41.5,-35.8438 C41.5,-33.6979 40.7526,-31.875 39.2578,-30.375 C37.763,-28.875 35.974,-28.125 33.8906,-28.125 C31.8073,-28.125 30.0156,-28.875 28.5156,-30.375 C27.0156,-31.875 26.2656,-33.6979 26.2656,-35.8438 C26.2656,-39.8125 27.7344,-43.1667 30.6719,-45.9063 C33.6615,-48.6354 37.2708,-50 41.5,-50 C59.1458,-50 67.9688,-41.6667 67.9688,-25 C67.9688,-19.2083 65.724,-14.2604 61.2344,-10.1563 C56.6719,-6.1875 51.3021,-4.20313 45.125,-4.20313 C44.0104,-4.20313 42.5104,-4.72396 40.625,-5.76563 C38.7396,-6.80729 37.3073,-7.32813 36.3281,-7.32813 M12.8906,50 L0.984375,50 C0.328125,50 0,49.6771 0,49.0313 L0,-49.0313 C0,-49.6771 0.328125,-50 0.984375,-50 L12.8906,-50 C13.5469,-50 13.875,-49.6771 13.875,-49.0313 L13.875,49.0313 C13.875,49.6771 13.5469,50 12.8906,50"/>
<path class="Clef" transform="matrix(0.566929,0,0,0.566929,28.5015,92.126)" d="M36.7188,-25.5938 C36.7188,-25.5938 36.9167,-25.5938 37.3125,-25.5938 C37.5729,-25.6563 37.7969,-25.6875 37.9844,-25.6875 C45.276,-25.6875 51.2656,-23.1146 55.9531,-17.9688 C60.6406,-12.8958 62.9844,-6.97396 62.9844,-0.203125 C62.9844,8.20313 59.5052,15.0417 52.5469,20.3125 C50.724,21.75 48.3438,22.9219 45.4063,23.8281 C45.7396,28.0573 45.9063,31.474 45.9063,34.0781 C45.9063,34.599 45.8385,36.4896 45.7031,39.75 C45.4427,45.8021 43.3594,51.0417 39.4531,55.4688 C35.6823,59.8333 30.9948,62.0156 25.3906,62.0156 C20.1198,62.0156 15.6302,60.1615 11.9219,56.4531 C8.20313,52.6719 6.34375,48.1146 6.34375,42.7813 C6.34375,39.9792 7.42188,37.599 9.57813,35.6406 C11.7865,33.6927 14.3542,32.7188 17.2813,32.7188 C19.8854,32.7188 22.0677,33.7292 23.8281,35.75 C25.651,37.6354 26.5625,39.9792 26.5625,42.7813 C26.5625,45.3125 25.651,47.4896 23.8281,49.3125 C22.0052,51.1354 19.8229,52.0469 17.2813,52.0469 C16.2396,52.0469 15.2344,51.8542 14.2656,51.4688 C17.1302,55.6979 20.9375,57.8125 25.6875,57.8125 C30.1771,57.8125 33.8542,55.9896 36.7188,52.3438 C39.7188,48.5729 41.349,44.1771 41.6094,39.1563 C41.7344,36.0313 41.7969,34.2448 41.7969,33.7969 C41.7969,30.151 41.6667,27.1563 41.4063,24.8125 C38.1563,25.3333 35.2604,25.5938 32.7188,25.5938 C23.6667,25.5938 15.9531,22.0104 9.57813,14.8438 C3.32813,7.61458 0.203125,-0.979167 0.203125,-10.9375 C0.203125,-13.0208 0.395833,-15.1354 0.78125,-17.2813 C1.17708,-19.0417 1.66667,-20.9635 2.25,-23.0469 C2.57292,-24.224 3.45313,-26.1146 4.89063,-28.7188 C5.41146,-29.5 5.9974,-30.4766 6.64844,-31.6484 C7.29948,-32.8203 7.75521,-33.599 8.01563,-33.9844 C8.66146,-35.2865 9.92708,-37.0469 11.8125,-39.2656 C12.3333,-39.849 12.8724,-40.4974 13.4297,-41.2109 C13.987,-41.9245 14.4609,-42.5104 14.8516,-42.9688 C15.2422,-43.4271 15.5339,-43.7865 15.7266,-44.0469 C15.9193,-44.3073 17.3854,-46.0313 20.125,-49.2188 C20.7708,-49.875 21.4036,-50.5755 22.0234,-51.3203 C22.6432,-52.0651 23.1484,-52.651 23.5391,-53.0781 C23.9297,-53.5052 24.224,-53.8125 24.4219,-54 C22.0781,-61.75 20.6094,-67.9375 20.0156,-72.5625 C19.5677,-76.2708 19.3438,-81.349 19.3438,-87.7969 C19.3438,-93.4635 20.6458,-98.7708 23.25,-103.719 C25.7813,-108.854 29.3281,-113.052 33.8906,-116.313 C34.151,-116.51 34.474,-116.609 34.8594,-116.609 C35.3177,-116.609 35.6458,-116.51 35.8438,-116.313 C39.3542,-112.083 42.3802,-106.583 44.9219,-99.8125 C47.526,-93.0417 48.8281,-86.8854 48.8281,-81.3438 C48.8281,-75.0938 47.3333,-69.2344 44.3438,-63.7656 C40.9583,-57.974 36.5938,-51.9844 31.25,-45.7969 C32.6146,-41.5052 34.4375,-34.7708 36.7188,-25.5938 M45.0156,19.8281 C48.401,18.5885 51.0417,16.474 52.9375,13.4844 C55.0208,10.6198 56.0625,7.39583 56.0625,3.8125 C56.0625,-0.8125 54.5,-4.91667 51.375,-8.5 C48.1771,-12.2083 44.1042,-14.2917 39.1563,-14.75 C41.9583,-1.01042 43.9115,10.5156 45.0156,19.8281 M7.23438,-2.73438 C7.23438,3.71354 9.83854,9.38021 15.0469,14.2656 C20.3802,19.0156 26.3698,21.3906 33.0156,21.3906 C35.7448,21.3906 38.4115,21.1927 41.0156,20.7969 C39.974,10.901 37.9219,-0.947917 34.8594,-14.75 C31.151,-14.3542 28.1927,-13.0521 25.9844,-10.8438 C23.8281,-8.5625 22.75,-5.98958 22.75,-3.125 C22.75,1.82292 25.3906,5.82813 30.6719,8.89063 C31.1198,9.34896 31.3438,9.83854 31.3438,10.3594 C31.3438,10.8802 31.1198,11.3646 30.6719,11.8125 C30.276,12.2708 29.7865,12.5 29.2031,12.5 C29.1406,12.5 28.849,12.4375 28.3281,12.3125 C24.6094,10.2917 21.7448,7.6875 19.7344,4.5 C17.8385,1.10417 16.8906,-2.31771 16.8906,-5.76563 C16.8906,-10.2552 18.2917,-14.3229 21.0938,-17.9688 C24.0208,-21.6146 27.8281,-23.9583 32.5156,-25 C30.6927,-32.2917 29.1979,-37.9896 28.0313,-42.0938 C26.9896,-40.9167 25.737,-39.5 24.2734,-37.8438 C22.8099,-36.1875 21.9479,-35.1927 21.6875,-34.8594 C19.3438,-31.8073 17.5521,-29.4323 16.3125,-27.7344 C14.0938,-24.6719 12.4635,-22.0365 11.4219,-19.8281 C10.3177,-17.349 9.34375,-14.6458 8.5,-11.7188 C7.65625,-8.91667 7.23438,-5.92188 7.23438,-2.73438 M39.8438,-102.047 C34.9583,-99.6406 31.1198,-96.1927 28.3281,-91.7031 C25.4635,-87.0781 24.0313,-82.099 24.0313,-76.7656 C24.0313,-72.0781 25.2031,-65.7604 27.5469,-57.8125 C32.2344,-63.4792 35.75,-68.7188 38.0938,-73.5313 C40.5625,-78.6146 41.7969,-83.9219 41.7969,-89.4531 C41.7969,-93.6198 41.1458,-97.8177 39.8438,-102.047"/>
</svg>
