<?xml version="1.0" encoding="UTF-8" standalone="no"?>
<svg width="637.794px" height="765.353px" viewBox="0 0 637.794 765.353"
 xmlns="http://www.w3.org/2000/svg" xmlns:xlink="http://www.w3.org/1999/xlink" version="1.2" baseProfile="tiny">
<title>harmonicminor (85)</title>
<desc>Generated by MuseScore 3.4.2</desc>
<polyline class="StaffLines" fill="none" stroke="#000000" stroke-width="1.13" stroke-linejoin="bevel" points="14.1732,42.5197 623.621,42.5197"/>
<polyline class="StaffLines" fill="none" stroke="#000000" stroke-width="1.13" stroke-linejoin="bevel" points="14.1732,56.6929 623.621,56.6929"/>
<polyline class="StaffLines" fill="none" stroke="#000000" stroke-width="1.13" stroke-linejoin="bevel" points="14.1732,70.8661 623.621,70.8661"/>
<polyline class="StaffLines" fill="none" stroke="#000000" stroke-width="1.13" stroke-linejoin="bevel" points="14.1732,85.0394 623.621,85.0394"/>
<polyline class="StaffLines" fill="none" stroke="#000000" stroke-width="1.13" stroke-linejoin="bevel" points="14.1732,99.2126 623.621,99.2126"/>
<polyline class="StaffLines" fill="none" stroke="#000000" stroke-width="1.13" stroke-linejoin="bevel" points="14.1732,177.165 623.621,177.165"/>
<polyline class="StaffLines" fill="none" stroke="#000000" stroke-width="1.13" stroke-linejoin="bevel" points="14.1732,191.339 623.621,191.339"/>
<polyline class="StaffLines" fill="none" stroke="#000000" stroke-width="1.13" stroke-linejoin="bevel" points="14.1732,205.512 623.621,205.512"/>
<polyline class="StaffLines" fill="none" stroke="#000000" stroke-width="1.13" stroke-linejoin="bevel" points="14.1732,219.685 623.621,219.685"/>
<polyline class="StaffLines" fill="none" stroke="#000000" stroke-width="1.13" stroke-linejoin="bevel" points="14.1732,233.858 623.621,233.858"/>
<polyline class="StaffLines" fill="none" stroke="#000000" stroke-width="1.13" stroke-linejoin="bevel" points="14.1732,311.811 623.621,311.811"/>
<polyline class="StaffLines" fill="none" stroke="#000000" stroke-width="1.13" stroke-linejoin="bevel" points="14.1732,325.984 623.621,325.984"/>
<polyline class="StaffLines" fill="none" stroke="#000000" stroke-width="1.13" stroke-linejoin="bevel" points="14.1732,340.157 623.621,340.157"/>
<polyline class="StaffLines" fill="none" stroke="#000000" stroke-width="1.13" stroke-linejoin="bevel" points="14.1732,354.331 623.621,354.331"/>
<polyline class="StaffLines" fill="none" stroke="#000000" stroke-width="1.13" stroke-linejoin="bevel" points="14.1732,368.504 623.621,368.504"/>
<polyline class="StaffLines" fill="none" stroke="#000000" stroke-width="1.13" stroke-linejoin="bevel" points="14.1732,446.457 623.621,446.457"/>
<polyline class="StaffLines" fill="none" stroke="#000000" stroke-width="1.13" stroke-linejoin="bevel" points="14.1732,471.26 623.621,471.26"/>
<polyline class="StaffLines" fill="none" stroke="#000000" stroke-width="1.13" stroke-linejoin="bevel" points="14.1732,496.063 623.621,496.063"/>
<polyline class="StaffLines" fill="none" stroke="#000000" stroke-width="1.13" stroke-linejoin="bevel" points="14.1732,520.866 623.621,520.866"/>
<polyline class="StaffLines" fill="none" stroke="#000000" stroke-width="1.13" stroke-linejoin="bevel" points="14.1732,598.819 623.621,598.819"/>
<polyline class="StaffLines" fill="none" stroke="#000000" stroke-width="1.13" stroke-linejoin="bevel" points="14.1732,623.622 623.621,623.622"/>
<polyline class="StaffLines" fill="none" stroke="#000000" stroke-width="1.13" stroke-linejoin="bevel" points="14.1732,648.425 623.621,648.425"/>
<polyline class="StaffLines" fill="none" stroke="#000000" stroke-width="1.13" stroke-linejoin="bevel" points="14.1732,673.228 623.621,673.228"/>
<polyline class="StaffLines" fill="none" stroke="#000000" stroke-width="1.13" stroke-linejoin="bevel" points="14.1732,698.032 623.621,698.032"/>
<polyline class="StaffLines" fill="none" stroke="#000000" stroke-width="1.13" stroke-linejoin="bevel" points="14.1732,722.835 623.621,722.835"/>
<path class="Accidental" transform="matrix(0.566929,0,0,0.566929,102.486,368.504)" d="M21.5781,31.1563 C21.5781,32.3958 20.9609,33.0156 19.7266,33.0156 C18.4922,33.0156 17.875,32.3958 17.875,31.1563 L17.875,16.7031 L9.57813,19.8281 L9.57813,35.6406 C9.57813,36.8802 8.95833,37.5 7.71875,37.5 C6.47917,37.5 5.85938,36.8802 5.85938,35.6406 L5.85938,21.0938 L2.73438,22.2656 C2.67188,22.3281 2.41146,22.3594 1.95313,22.3594 C1.43229,22.3594 0.976563,22.1641 0.585938,21.7734 C0.195313,21.3828 0,20.9271 0,20.4063 L0,14.3594 C0,13.3802 0.421875,12.7604 1.26563,12.5 L5.85938,10.9375 L5.85938,-5.07813 L2.73438,-4 C2.67188,-3.9375 2.41146,-3.90625 1.95313,-3.90625 C1.43229,-3.90625 0.976563,-4.10156 0.585938,-4.49219 C0.195313,-4.88281 0,-5.33854 0,-5.85938 L0,-11.9219 C0,-12.8281 0.421875,-13.4115 1.26563,-13.6719 L5.85938,-15.4375 L5.85938,-31.1563 C5.85938,-32.3958 6.47917,-33.0156 7.71875,-33.0156 C8.95833,-33.0156 9.57813,-32.3958 9.57813,-31.1563 L9.57813,-16.7031 L17.875,-19.8281 L17.875,-35.6406 C17.875,-36.8802 18.4922,-37.5 19.7266,-37.5 C20.9609,-37.5 21.5781,-36.8802 21.5781,-35.6406 L21.5781,-21.0938 L24.8125,-22.2656 C24.875,-22.3281 25.099,-22.3594 25.4844,-22.3594 C25.9427,-22.3594 26.4323,-22.1667 26.9531,-21.7813 C27.349,-21.3854 27.5469,-20.9271 27.5469,-20.4063 L27.5469,-14.3594 C27.5469,-13.4427 27.0885,-12.8229 26.1719,-12.5 L21.5781,-10.9375 L21.5781,5.07813 L24.8125,4 C24.875,3.9375 25.099,3.90625 25.4844,3.90625 C25.9427,3.90625 26.4323,4.10417 26.9531,4.5 C27.349,4.88542 27.5469,5.33854 27.5469,5.85938 L27.5469,11.9219 C27.5469,12.7656 27.0885,13.349 26.1719,13.6719 L21.5781,15.4375 L21.5781,31.1563 M17.875,-9.46875 L9.57813,-6.54688 L9.57813,9.46875 L17.875,6.54688 L17.875,-9.46875 "/>
<path class="Accidental" transform="matrix(0.566929,0,0,0.566929,540.105,318.898)" d="M21.5781,31.1563 C21.5781,32.3958 20.9609,33.0156 19.7266,33.0156 C18.4922,33.0156 17.875,32.3958 17.875,31.1563 L17.875,16.7031 L9.57813,19.8281 L9.57813,35.6406 C9.57813,36.8802 8.95833,37.5 7.71875,37.5 C6.47917,37.5 5.85938,36.8802 5.85938,35.6406 L5.85938,21.0938 L2.73438,22.2656 C2.67188,22.3281 2.41146,22.3594 1.95313,22.3594 C1.43229,22.3594 0.976563,22.1641 0.585938,21.7734 C0.195313,21.3828 0,20.9271 0,20.4063 L0,14.3594 C0,13.3802 0.421875,12.7604 1.26563,12.5 L5.85938,10.9375 L5.85938,-5.07813 L2.73438,-4 C2.67188,-3.9375 2.41146,-3.90625 1.95313,-3.90625 C1.43229,-3.90625 0.976563,-4.10156 0.585938,-4.49219 C0.195313,-4.88281 0,-5.33854 0,-5.85938 L0,-11.9219 C0,-12.8281 0.421875,-13.4115 1.26563,-13.6719 L5.85938,-15.4375 L5.85938,-31.1563 C5.85938,-32.3958 6.47917,-33.0156 7.71875,-33.0156 C8.95833,-33.0156 9.57813,-32.3958 9.57813,-31.1563 L9.57813,-16.7031 L17.875,-19.8281 L17.875,-35.6406 C17.875,-36.8802 18.4922,-37.5 19.7266,-37.5 C20.9609,-37.5 21.5781,-36.8802 21.5781,-35.6406 L21.5781,-21.0938 L24.8125,-22.2656 C24.875,-22.3281 25.099,-22.3594 25.4844,-22.3594 C25.9427,-22.3594 26.4323,-22.1667 26.9531,-21.7813 C27.349,-21.3854 27.5469,-20.9271 27.5469,-20.4063 L27.5469,-14.3594 C27.5469,-13.4427 27.0885,-12.8229 26.1719,-12.5 L21.5781,-10.9375 L21.5781,5.07813 L24.8125,4 C24.875,3.9375 25.099,3.90625 25.4844,3.90625 C25.9427,3.90625 26.4323,4.10417 26.9531,4.5 C27.349,4.88542 27.5469,5.33854 27.5469,5.85938 L27.5469,11.9219 C27.5469,12.7656 27.0885,13.349 26.1719,13.6719 L21.5781,15.4375 L21.5781,31.1563 M17.875,-9.46875 L9.57813,-6.54688 L9.57813,9.46875 L17.875,6.54688 L17.875,-9.46875 "/>
<path class="Accidental" transform="matrix(0.566929,0,0,0.566929,102.486,226.772)" d="M21.5781,31.1563 C21.5781,32.3958 20.9609,33.0156 19.7266,33.0156 C18.4922,33.0156 17.875,32.3958 17.875,31.1563 L17.875,16.7031 L9.57813,19.8281 L9.57813,35.6406 C9.57813,36.8802 8.95833,37.5 7.71875,37.5 C6.47917,37.5 5.85938,36.8802 5.85938,35.6406 L5.85938,21.0938 L2.73438,22.2656 C2.67188,22.3281 2.41146,22.3594 1.95313,22.3594 C1.43229,22.3594 0.976563,22.1641 0.585938,21.7734 C0.195313,21.3828 0,20.9271 0,20.4063 L0,14.3594 C0,13.3802 0.421875,12.7604 1.26563,12.5 L5.85938,10.9375 L5.85938,-5.07813 L2.73438,-4 C2.67188,-3.9375 2.41146,-3.90625 1.95313,-3.90625 C1.43229,-3.90625 0.976563,-4.10156 0.585938,-4.49219 C0.195313,-4.88281 0,-5.33854 0,-5.85938 L0,-11.9219 C0,-12.8281 0.421875,-13.4115 1.26563,-13.6719 L5.85938,-15.4375 L5.85938,-31.1563 C5.85938,-32.3958 6.47917,-33.0156 7.71875,-33.0156 C8.95833,-33.0156 9.57813,-32.3958 9.57813,-31.1563 L9.57813,-16.7031 L17.875,-19.8281 L17.875,-35.6406 C17.875,-36.8802 18.4922,-37.5 19.7266,-37.5 C20.9609,-37.5 21.5781,-36.8802 21.5781,-35.6406 L21.5781,-21.0938 L24.8125,-22.2656 C24.875,-22.3281 25.099,-22.3594 25.4844,-22.3594 C25.9427,-22.3594 26.4323,-22.1667 26.9531,-21.7813 C27.349,-21.3854 27.5469,-20.9271 27.5469,-20.4063 L27.5469,-14.3594 C27.5469,-13.4427 27.0885,-12.8229 26.1719,-12.5 L21.5781,-10.9375 L21.5781,5.07813 L24.8125,4 C24.875,3.9375 25.099,3.90625 25.4844,3.90625 C25.9427,3.90625 26.4323,4.10417 26.9531,4.5 C27.349,4.88542 27.5469,5.33854 27.5469,5.85938 L27.5469,11.9219 C27.5469,12.7656 27.0885,13.349 26.1719,13.6719 L21.5781,15.4375 L21.5781,31.1563 M17.875,-9.46875 L9.57813,-6.54688 L9.57813,9.46875 L17.875,6.54688 L17.875,-9.46875 "/>
<path class="Accidental" transform="matrix(0.566929,0,0,0.566929,540.105,177.165)" d="M21.5781,31.1563 C21.5781,32.3958 20.9609,33.0156 19.7266,33.0156 C18.4922,33.0156 17.875,32.3958 17.875,31.1563 L17.875,16.7031 L9.57813,19.8281 L9.57813,35.6406 C9.57813,36.8802 8.95833,37.5 7.71875,37.5 C6.47917,37.5 5.85938,36.8802 5.85938,35.6406 L5.85938,21.0938 L2.73438,22.2656 C2.67188,22.3281 2.41146,22.3594 1.95313,22.3594 C1.43229,22.3594 0.976563,22.1641 0.585938,21.7734 C0.195313,21.3828 0,20.9271 0,20.4063 L0,14.3594 C0,13.3802 0.421875,12.7604 1.26563,12.5 L5.85938,10.9375 L5.85938,-5.07813 L2.73438,-4 C2.67188,-3.9375 2.41146,-3.90625 1.95313,-3.90625 C1.43229,-3.90625 0.976563,-4.10156 0.585938,-4.49219 C0.195313,-4.88281 0,-5.33854 0,-5.85938 L0,-11.9219 C0,-12.8281 0.421875,-13.4115 1.26563,-13.6719 L5.85938,-15.4375 L5.85938,-31.1563 C5.85938,-32.3958 6.47917,-33.0156 7.71875,-33.0156 C8.95833,-33.0156 9.57813,-32.3958 9.57813,-31.1563 L9.57813,-16.7031 L17.875,-19.8281 L17.875,-35.6406 C17.875,-36.8802 18.4922,-37.5 19.7266,-37.5 C20.9609,-37.5 21.5781,-36.8802 21.5781,-35.6406 L21.5781,-21.0938 L24.8125,-22.2656 C24.875,-22.3281 25.099,-22.3594 25.4844,-22.3594 C25.9427,-22.3594 26.4323,-22.1667 26.9531,-21.7813 C27.349,-21.3854 27.5469,-20.9271 27.5469,-20.4063 L27.5469,-14.3594 C27.5469,-13.4427 27.0885,-12.8229 26.1719,-12.5 L21.5781,-10.9375 L21.5781,5.07813 L24.8125,4 C24.875,3.9375 25.099,3.90625 25.4844,3.90625 C25.9427,3.90625 26.4323,4.10417 26.9531,4.5 C27.349,4.88542 27.5469,5.33854 27.5469,5.85938 L27.5469,11.9219 C27.5469,12.7656 27.0885,13.349 26.1719,13.6719 L21.5781,15.4375 L21.5781,31.1563 M17.875,-9.46875 L9.57813,-6.54688 L9.57813,9.46875 L17.875,6.54688 L17.875,-9.46875 "/>
<path class="Accidental" transform="matrix(0.566929,0,0,0.566929,102.486,85.0394)" d="M21.5781,31.1563 C21.5781,32.3958 20.9609,33.0156 19.7266,33.0156 C18.4922,33.0156 17.875,32.3958 17.875,31.1563 L17.875,16.7031 L9.57813,19.8281 L9.57813,35.6406 C9.57813,36.8802 8.95833,37.5 7.71875,37.5 C6.47917,37.5 5.85938,36.8802 5.85938,35.6406 L5.85938,21.0938 L2.73438,22.2656 C2.67188,22.3281 2.41146,22.3594 1.95313,22.3594 C1.43229,22.3594 0.976563,22.1641 0.585938,21.7734 C0.195313,21.3828 0,20.9271 0,20.4063 L0,14.3594 C0,13.3802 0.421875,12.7604 1.26563,12.5 L5.85938,10.9375 L5.85938,-5.07813 L2.73438,-4 C2.67188,-3.9375 2.41146,-3.90625 1.95313,-3.90625 C1.43229,-3.90625 0.976563,-4.10156 0.585938,-4.49219 C0.195313,-4.88281 0,-5.33854 0,-5.85938 L0,-11.9219 C0,-12.8281 0.421875,-13.4115 1.26563,-13.6719 L5.85938,-15.4375 L5.85938,-31.1563 C5.85938,-32.3958 6.47917,-33.0156 7.71875,-33.0156 C8.95833,-33.0156 9.57813,-32.3958 9.57813,-31.1563 L9.57813,-16.7031 L17.875,-19.8281 L17.875,-35.6406 C17.875,-36.8802 18.4922,-37.5 19.7266,-37.5 C20.9609,-37.5 21.5781,-36.8802 21.5781,-35.6406 L21.5781,-21.0938 L24.8125,-22.2656 C24.875,-22.3281 25.099,-22.3594 25.4844,-22.3594 C25.9427,-22.3594 26.4323,-22.1667 26.9531,-21.7813 C27.349,-21.3854 27.5469,-20.9271 27.5469,-20.4063 L27.5469,-14.3594 C27.5469,-13.4427 27.0885,-12.8229 26.1719,-12.5 L21.5781,-10.9375 L21.5781,5.07813 L24.8125,4 C24.875,3.9375 25.099,3.90625 25.4844,3.90625 C25.9427,3.90625 26.4323,4.10417 26.9531,4.5 C27.349,4.88542 27.5469,5.33854 27.5469,5.85938 L27.5469,11.9219 C27.5469,12.7656 27.0885,13.349 26.1719,13.6719 L21.5781,15.4375 L21.5781,31.1563 M17.875,-9.46875 L9.57813,-6.54688 L9.57813,9.46875 L17.875,6.54688 L17.875,-9.46875 "/>
<path class="Accidental" transform="matrix(0.566929,0,0,0.566929,540.105,35.4331)" d="M21.5781,31.1563 C21.5781,32.3958 20.9609,33.0156 19.7266,33.0156 C18.4922,33.0156 17.875,32.3958 17.875,31.1563 L17.875,16.7031 L9.57813,19.8281 L9.57813,35.6406 C9.57813,36.8802 8.95833,37.5 7.71875,37.5 C6.47917,37.5 5.85938,36.8802 5.85938,35.6406 L5.85938,21.0938 L2.73438,22.2656 C2.67188,22.3281 2.41146,22.3594 1.95313,22.3594 C1.43229,22.3594 0.976563,22.1641 0.585938,21.7734 C0.195313,21.3828 0,20.9271 0,20.4063 L0,14.3594 C0,13.3802 0.421875,12.7604 1.26563,12.5 L5.85938,10.9375 L5.85938,-5.07813 L2.73438,-4 C2.67188,-3.9375 2.41146,-3.90625 1.95313,-3.90625 C1.43229,-3.90625 0.976563,-4.10156 0.585938,-4.49219 C0.195313,-4.88281 0,-5.33854 0,-5.85938 L0,-11.9219 C0,-12.8281 0.421875,-13.4115 1.26563,-13.6719 L5.85938,-15.4375 L5.85938,-31.1563 C5.85938,-32.3958 6.47917,-33.0156 7.71875,-33.0156 C8.95833,-33.0156 9.57813,-32.3958 9.57813,-31.1563 L9.57813,-16.7031 L17.875,-19.8281 L17.875,-35.6406 C17.875,-36.8802 18.4922,-37.5 19.7266,-37.5 C20.9609,-37.5 21.5781,-36.8802 21.5781,-35.6406 L21.5781,-21.0938 L24.8125,-22.2656 C24.875,-22.3281 25.099,-22.3594 25.4844,-22.3594 C25.9427,-22.3594 26.4323,-22.1667 26.9531,-21.7813 C27.349,-21.3854 27.5469,-20.9271 27.5469,-20.4063 L27.5469,-14.3594 C27.5469,-13.4427 27.0885,-12.8229 26.1719,-12.5 L21.5781,-10.9375 L21.5781,5.07813 L24.8125,4 C24.875,3.9375 25.099,3.90625 25.4844,3.90625 C25.9427,3.90625 26.4323,4.10417 26.9531,4.5 C27.349,4.88542 27.5469,5.33854 27.5469,5.85938 L27.5469,11.9219 C27.5469,12.7656 27.0885,13.349 26.1719,13.6719 L21.5781,15.4375 L21.5781,31.1563 M17.875,-9.46875 L9.57813,-6.54688 L9.57813,9.46875 L17.875,6.54688 L17.875,-9.46875 "/>
<path class="Note" fill="#ffffff" fill-opacity="0.0" fill-rule="evenodd" d="M122.492,710.433 L141.201,710.433 L141.201,735.236 L122.492,735.236 L122.492,710.433 "/>
<path class="Note" d="M133.066,728.819 L124.691,728.819 L124.691,726.225 L133.706,713.725 L135.534,713.725 L135.534,726.616 L138.472,726.616 L138.472,728.819 L135.534,728.819 L135.534,733.585 L133.066,733.585 L133.066,728.819 M133.066,726.616 L133.066,717.928 L126.847,726.616 L133.066,726.616 "/>
<path class="Note" fill="#ffffff" fill-opacity="0.0" fill-rule="evenodd" d="M122.492,636.024 L141.201,636.024 L141.201,660.827 L122.492,660.827 L122.492,636.024 "/>
<path class="Note" d="M131.159,645.035 L126.769,645.035 L126.769,643.269 C128.675,643.029 129.917,642.693 130.495,642.261 C131.074,641.829 131.576,640.847 132.003,639.316 L133.628,639.316 L133.628,659.175 L131.159,659.175 L131.159,645.035 "/>
<path class="Note" fill="#ffffff" fill-opacity="0.0" fill-rule="evenodd" d="M185.009,685.63 L203.718,685.63 L203.718,710.433 L185.009,710.433 L185.009,685.63 "/>
<path class="Note" d="M187.63,699.172 C187.63,697.516 187.77,696.052 188.052,694.782 C188.333,693.511 188.687,692.516 189.114,691.797 C189.541,691.078 190.054,690.495 190.653,690.047 C191.252,689.599 191.828,689.3 192.38,689.149 C192.932,688.998 193.515,688.922 194.13,688.922 C198.463,688.922 200.63,692.396 200.63,699.344 C200.63,702.615 200.072,705.112 198.958,706.836 C197.843,708.56 196.234,709.422 194.13,709.422 C192.005,709.422 190.39,708.55 189.286,706.805 C188.182,705.06 187.63,702.516 187.63,699.172 M198.098,699.125 C198.098,693.782 196.773,691.11 194.122,691.11 C191.471,691.11 190.145,693.808 190.145,699.203 C190.145,704.651 191.453,707.375 194.067,707.375 C195.453,707.375 196.471,706.703 197.122,705.36 C197.773,704.016 198.098,701.938 198.098,699.125"/>
<path class="Note" fill="#ffffff" fill-opacity="0.0" fill-rule="evenodd" d="M185.009,636.024 L203.718,636.024 L203.718,660.827 L185.009,660.827 L185.009,636.024 "/>
<path class="Note" d="M187.833,646.206 C187.958,641.613 190.14,639.316 194.38,639.316 C196.265,639.316 197.796,639.857 198.973,640.941 C200.15,642.024 200.739,643.425 200.739,645.144 C200.739,647.613 199.338,649.613 196.536,651.144 L193.739,652.644 C192.52,653.3 191.65,653.936 191.13,654.55 C190.609,655.165 190.281,655.894 190.145,656.738 L200.598,656.738 L200.598,659.175 L187.38,659.175 C187.494,656.988 187.934,655.303 188.7,654.121 C189.466,652.938 190.885,651.759 192.958,650.581 L195.52,649.128 C197.312,648.097 198.208,646.79 198.208,645.206 C198.208,644.144 197.835,643.256 197.091,642.542 C196.346,641.829 195.416,641.472 194.302,641.472 C191.812,641.472 190.473,643.05 190.286,646.206 L187.833,646.206 "/>
<path class="Note" fill="#ffffff" fill-opacity="0.0" fill-rule="evenodd" d="M247.526,685.63 L266.235,685.63 L266.235,710.433 L247.526,710.433 L247.526,685.63 "/>
<path class="Note" d="M250.35,695.813 C250.475,691.219 252.657,688.922 256.897,688.922 C258.782,688.922 260.313,689.464 261.49,690.547 C262.668,691.63 263.256,693.032 263.256,694.75 C263.256,697.219 261.855,699.219 259.053,700.75 L256.256,702.25 C255.037,702.907 254.168,703.542 253.647,704.157 C253.126,704.771 252.798,705.5 252.662,706.344 L263.115,706.344 L263.115,708.782 L249.897,708.782 C250.011,706.594 250.451,704.909 251.217,703.727 C251.983,702.545 253.402,701.365 255.475,700.188 L258.037,698.735 C259.829,697.703 260.725,696.396 260.725,694.813 C260.725,693.75 260.352,692.862 259.608,692.149 C258.863,691.435 257.933,691.078 256.819,691.078 C254.329,691.078 252.99,692.657 252.803,695.813 L250.35,695.813 "/>
<path class="Note" fill="#ffffff" fill-opacity="0.0" fill-rule="evenodd" d="M247.526,611.22 L266.235,611.22 L266.235,636.024 L247.526,636.024 L247.526,611.22 "/>
<path class="Note" d="M250.147,624.763 C250.147,623.106 250.287,621.643 250.569,620.372 C250.85,619.101 251.204,618.106 251.631,617.388 C252.058,616.669 252.571,616.086 253.17,615.638 C253.769,615.19 254.345,614.89 254.897,614.739 C255.449,614.588 256.032,614.513 256.647,614.513 C260.98,614.513 263.147,617.987 263.147,624.935 C263.147,628.205 262.589,630.703 261.475,632.427 C260.36,634.151 258.751,635.013 256.647,635.013 C254.522,635.013 252.907,634.14 251.803,632.395 C250.699,630.651 250.147,628.106 250.147,624.763 M260.615,624.716 C260.615,619.372 259.29,616.7 256.639,616.7 C253.988,616.7 252.662,619.398 252.662,624.794 C252.662,630.242 253.97,632.966 256.584,632.966 C257.97,632.966 258.988,632.294 259.639,630.95 C260.29,629.606 260.615,627.528 260.615,624.716"/>
<path class="Note" fill="#ffffff" fill-opacity="0.0" fill-rule="evenodd" d="M310.043,685.63 L328.752,685.63 L328.752,710.433 L310.043,710.433 L310.043,685.63 "/>
<path class="Note" d="M319.023,691.078 C317.607,691.078 316.633,691.466 316.101,692.242 C315.57,693.018 315.284,694.052 315.242,695.344 L312.773,695.344 C312.867,691.063 314.94,688.922 318.992,688.922 C320.877,688.922 322.357,689.409 323.429,690.383 C324.502,691.357 325.039,692.693 325.039,694.391 C325.039,696.401 324.117,697.771 322.273,698.5 C323.461,698.917 324.317,699.492 324.843,700.227 C325.37,700.961 325.633,701.964 325.633,703.235 C325.633,705.12 325.021,706.623 323.797,707.742 C322.573,708.862 320.945,709.422 318.914,709.422 C314.841,709.422 312.653,707.287 312.351,703.016 L314.82,703.016 C314.914,704.453 315.297,705.516 315.968,706.203 C316.64,706.891 317.648,707.235 318.992,707.235 C320.284,707.235 321.291,706.886 322.015,706.188 C322.739,705.49 323.101,704.516 323.101,703.266 C323.101,700.86 321.732,699.657 318.992,699.657 L317.961,699.688 L317.648,699.688 L317.648,697.578 C319.419,697.547 320.674,697.326 321.414,696.914 C322.153,696.503 322.523,695.688 322.523,694.469 C322.523,693.427 322.211,692.602 321.586,691.992 C320.961,691.383 320.107,691.078 319.023,691.078"/>
<path class="Note" fill="#ffffff" fill-opacity="0.0" fill-rule="evenodd" d="M310.043,611.22 L328.752,611.22 L328.752,636.024 L310.043,636.024 L310.043,611.22 "/>
<path class="Note" d="M318.711,620.231 L314.32,620.231 L314.32,618.466 C316.226,618.226 317.468,617.89 318.047,617.458 C318.625,617.026 319.127,616.044 319.554,614.513 L321.179,614.513 L321.179,634.372 L318.711,634.372 L318.711,620.231 "/>
<path class="Note" fill="#ffffff" fill-opacity="0.0" fill-rule="evenodd" d="M372.56,660.827 L391.269,660.827 L391.269,685.63 L372.56,685.63 L372.56,660.827 "/>
<path class="Note" d="M375.181,674.369 C375.181,672.713 375.321,671.249 375.603,669.978 C375.884,668.708 376.238,667.713 376.665,666.994 C377.092,666.275 377.605,665.692 378.204,665.244 C378.803,664.796 379.379,664.497 379.931,664.346 C380.483,664.194 381.066,664.119 381.681,664.119 C386.014,664.119 388.181,667.593 388.181,674.541 C388.181,677.812 387.624,680.309 386.509,682.033 C385.394,683.757 383.785,684.619 381.681,684.619 C379.556,684.619 377.941,683.747 376.837,682.002 C375.733,680.257 375.181,677.713 375.181,674.369 M385.65,674.322 C385.65,668.978 384.324,666.306 381.673,666.306 C379.022,666.306 377.696,669.004 377.696,674.4 C377.696,679.848 379.004,682.572 381.618,682.572 C383.004,682.572 384.022,681.9 384.673,680.556 C385.324,679.213 385.65,677.135 385.65,674.322"/>
<path class="Note" fill="#ffffff" fill-opacity="0.0" fill-rule="evenodd" d="M372.56,611.22 L391.269,611.22 L391.269,636.024 L372.56,636.024 L372.56,611.22 "/>
<path class="Note" d="M381.54,616.669 C380.124,616.669 379.15,617.057 378.618,617.833 C378.087,618.609 377.801,619.643 377.759,620.935 L375.29,620.935 C375.384,616.653 377.457,614.513 381.509,614.513 C383.394,614.513 384.874,615 385.946,615.974 C387.019,616.948 387.556,618.284 387.556,619.981 C387.556,621.992 386.634,623.362 384.79,624.091 C385.978,624.507 386.835,625.083 387.361,625.817 C387.887,626.552 388.15,627.554 388.15,628.825 C388.15,630.711 387.538,632.213 386.314,633.333 C385.09,634.453 383.462,635.013 381.431,635.013 C377.358,635.013 375.17,632.877 374.868,628.606 L377.337,628.606 C377.431,630.044 377.814,631.106 378.486,631.794 C379.157,632.481 380.165,632.825 381.509,632.825 C382.801,632.825 383.808,632.476 384.532,631.778 C385.256,631.08 385.618,630.106 385.618,628.856 C385.618,626.45 384.249,625.247 381.509,625.247 L380.478,625.278 L380.165,625.278 L380.165,623.169 C381.936,623.138 383.191,622.916 383.931,622.505 C384.67,622.093 385.04,621.278 385.04,620.06 C385.04,619.018 384.728,618.192 384.103,617.583 C383.478,616.974 382.624,616.669 381.54,616.669"/>
<path class="Note" fill="#ffffff" fill-opacity="0.0" fill-rule="evenodd" d="M435.077,660.827 L453.786,660.827 L453.786,685.63 L435.077,685.63 L435.077,660.827 "/>
<path class="Note" d="M437.901,671.01 C438.026,666.416 440.208,664.119 444.448,664.119 C446.333,664.119 447.865,664.661 449.042,665.744 C450.219,666.827 450.807,668.228 450.807,669.947 C450.807,672.416 449.406,674.416 446.604,675.947 L443.807,677.447 C442.589,678.103 441.719,678.739 441.198,679.353 C440.677,679.968 440.349,680.697 440.214,681.541 L450.667,681.541 L450.667,683.978 L437.448,683.978 C437.563,681.791 438.003,680.106 438.768,678.924 C439.534,677.741 440.953,676.562 443.026,675.385 L445.589,673.931 C447.38,672.9 448.276,671.593 448.276,670.01 C448.276,668.947 447.904,668.059 447.159,667.346 C446.414,666.632 445.484,666.275 444.37,666.275 C441.88,666.275 440.542,667.853 440.354,671.01 L437.901,671.01 "/>
<path class="Note" fill="#ffffff" fill-opacity="0.0" fill-rule="evenodd" d="M435.077,586.417 L453.786,586.417 L453.786,611.22 L435.077,611.22 L435.077,586.417 "/>
<path class="Note" d="M437.698,599.96 C437.698,598.303 437.839,596.84 438.12,595.569 C438.401,594.298 438.755,593.303 439.182,592.585 C439.609,591.866 440.122,591.282 440.721,590.835 C441.32,590.387 441.896,590.087 442.448,589.936 C443,589.785 443.583,589.71 444.198,589.71 C448.531,589.71 450.698,593.183 450.698,600.131 C450.698,603.402 450.141,605.9 449.026,607.624 C447.911,609.348 446.302,610.21 444.198,610.21 C442.073,610.21 440.458,609.337 439.354,607.592 C438.25,605.848 437.698,603.303 437.698,599.96 M448.167,599.913 C448.167,594.569 446.841,591.897 444.19,591.897 C441.539,591.897 440.214,594.595 440.214,599.991 C440.214,605.439 441.521,608.163 444.135,608.163 C445.521,608.163 446.539,607.491 447.19,606.147 C447.841,604.803 448.167,602.725 448.167,599.913"/>
<path class="Note" fill="#ffffff" fill-opacity="0.0" fill-rule="evenodd" d="M497.595,660.827 L516.303,660.827 L516.303,685.63 L497.595,685.63 L497.595,660.827 "/>
<path class="Note" d="M506.574,666.275 C505.158,666.275 504.184,666.663 503.653,667.439 C503.121,668.215 502.835,669.249 502.793,670.541 L500.324,670.541 C500.418,666.26 502.491,664.119 506.543,664.119 C508.429,664.119 509.908,664.606 510.981,665.58 C512.054,666.554 512.59,667.89 512.59,669.588 C512.59,671.598 511.668,672.968 509.824,673.697 C511.012,674.114 511.869,674.689 512.395,675.424 C512.921,676.158 513.184,677.161 513.184,678.431 C513.184,680.317 512.572,681.819 511.348,682.939 C510.124,684.059 508.496,684.619 506.465,684.619 C502.392,684.619 500.205,682.484 499.903,678.213 L502.371,678.213 C502.465,679.65 502.848,680.713 503.52,681.4 C504.192,682.088 505.199,682.431 506.543,682.431 C507.835,682.431 508.843,682.083 509.567,681.385 C510.291,680.687 510.653,679.713 510.653,678.463 C510.653,676.056 509.283,674.853 506.543,674.853 L505.512,674.885 L505.199,674.885 L505.199,672.775 C506.97,672.744 508.225,672.523 508.965,672.111 C509.705,671.7 510.074,670.885 510.074,669.666 C510.074,668.624 509.762,667.799 509.137,667.189 C508.512,666.58 507.658,666.275 506.574,666.275"/>
<path class="Note" fill="#ffffff" fill-opacity="0.0" fill-rule="evenodd" d="M497.595,586.417 L516.303,586.417 L516.303,611.22 L497.595,611.22 L497.595,586.417 "/>
<path class="Note" d="M506.262,595.428 L501.871,595.428 L501.871,593.663 C503.778,593.423 505.02,593.087 505.598,592.655 C506.176,592.223 506.679,591.241 507.106,589.71 L508.731,589.71 L508.731,609.569 L506.262,609.569 L506.262,595.428 "/>
<path class="Note" fill="#ffffff" fill-opacity="0.0" fill-rule="evenodd" d="M560.112,636.024 L578.82,636.024 L578.82,660.827 L560.112,660.827 L560.112,636.024 "/>
<path class="Note" d="M568.779,645.035 L564.388,645.035 L564.388,643.269 C566.295,643.029 567.537,642.693 568.115,642.261 C568.693,641.829 569.196,640.847 569.623,639.316 L571.248,639.316 L571.248,659.175 L568.779,659.175 L568.779,645.035 "/>
<path class="Note" fill="#ffffff" fill-opacity="0.0" fill-rule="evenodd" d="M560.112,586.417 L578.82,586.417 L578.82,611.22 L560.112,611.22 L560.112,586.417 "/>
<path class="Note" d="M570.685,604.803 L562.31,604.803 L562.31,602.21 L571.326,589.71 L573.154,589.71 L573.154,602.6 L576.091,602.6 L576.091,604.803 L573.154,604.803 L573.154,609.569 L570.685,609.569 L570.685,604.803 M570.685,602.6 L570.685,593.913 L564.466,602.6 L570.685,602.6 "/>
<path class="Note" fill="#ffffff" fill-opacity="0.0" fill-rule="evenodd" d="M122.492,508.465 L141.201,508.465 L141.201,533.268 L122.492,533.268 L122.492,508.465 "/>
<path class="Note" d="M131.159,517.476 L126.769,517.476 L126.769,515.71 C128.675,515.47 129.917,515.134 130.495,514.702 C131.074,514.27 131.576,513.288 132.003,511.757 L133.628,511.757 L133.628,531.616 L131.159,531.616 L131.159,517.476 "/>
<path class="Note" fill="#ffffff" fill-opacity="0.0" fill-rule="evenodd" d="M122.492,483.661 L141.201,483.661 L141.201,508.465 L122.492,508.465 L122.492,483.661 "/>
<path class="Note" d="M125.113,497.766 C125.113,496.016 125.271,494.472 125.589,493.133 C125.907,491.795 126.303,490.745 126.777,489.985 C127.251,489.224 127.821,488.605 128.488,488.125 C129.154,487.646 129.782,487.331 130.37,487.18 C130.959,487.029 131.576,486.954 132.222,486.954 C133.732,486.954 134.988,487.412 135.988,488.329 C136.988,489.245 137.607,490.516 137.847,492.141 L135.394,492.141 C135.185,491.193 134.792,490.456 134.214,489.93 C133.636,489.404 132.915,489.141 132.05,489.141 C130.633,489.141 129.547,489.79 128.792,491.086 C128.037,492.383 127.649,494.245 127.628,496.672 C128.712,495.204 130.232,494.469 132.191,494.469 C133.972,494.469 135.43,495.058 136.566,496.235 C137.701,497.412 138.269,498.922 138.269,500.766 C138.269,502.704 137.659,504.303 136.441,505.563 C135.222,506.823 133.67,507.454 131.784,507.454 C127.337,507.454 125.113,504.224 125.113,497.766 M131.894,496.657 C130.675,496.657 129.683,497.042 128.917,497.813 C128.152,498.584 127.769,499.589 127.769,500.829 C127.769,502.089 128.152,503.144 128.917,503.993 C129.683,504.842 130.644,505.266 131.8,505.266 C132.946,505.266 133.891,504.862 134.636,504.055 C135.381,503.248 135.753,502.214 135.753,500.954 C135.753,499.631 135.407,498.584 134.714,497.813 C134.021,497.042 133.081,496.657 131.894,496.657"/>
<path class="Note" fill="#ffffff" fill-opacity="0.0" fill-rule="evenodd" d="M185.009,508.465 L203.718,508.465 L203.718,533.268 L185.009,533.268 L185.009,508.465 "/>
<path class="Note" d="M187.833,518.647 C187.958,514.054 190.14,511.757 194.38,511.757 C196.265,511.757 197.796,512.298 198.973,513.382 C200.15,514.465 200.739,515.866 200.739,517.585 C200.739,520.054 199.338,522.054 196.536,523.585 L193.739,525.085 C192.52,525.741 191.65,526.377 191.13,526.991 C190.609,527.606 190.281,528.335 190.145,529.179 L200.598,529.179 L200.598,531.616 L187.38,531.616 C187.494,529.429 187.934,527.744 188.7,526.561 C189.466,525.379 190.885,524.199 192.958,523.022 L195.52,521.569 C197.312,520.538 198.208,519.231 198.208,517.647 C198.208,516.585 197.835,515.697 197.091,514.983 C196.346,514.27 195.416,513.913 194.302,513.913 C191.812,513.913 190.473,515.491 190.286,518.647 L187.833,518.647 "/>
<path class="Note" fill="#ffffff" fill-opacity="0.0" fill-rule="evenodd" d="M185.009,458.858 L203.718,458.858 L203.718,483.661 L185.009,483.661 L185.009,458.858 "/>
<path class="Note" d="M187.63,472.4 C187.63,470.744 187.77,469.281 188.052,468.01 C188.333,466.739 188.687,465.744 189.114,465.025 C189.541,464.307 190.054,463.723 190.653,463.275 C191.252,462.828 191.828,462.528 192.38,462.377 C192.932,462.226 193.515,462.15 194.13,462.15 C198.463,462.15 200.63,465.624 200.63,472.572 C200.63,475.843 200.072,478.341 198.958,480.065 C197.843,481.788 196.234,482.65 194.13,482.65 C192.005,482.65 190.39,481.778 189.286,480.033 C188.182,478.288 187.63,475.744 187.63,472.4 M198.098,472.354 C198.098,467.01 196.773,464.338 194.122,464.338 C191.471,464.338 190.145,467.036 190.145,472.432 C190.145,477.88 191.453,480.604 194.067,480.604 C195.453,480.604 196.471,479.932 197.122,478.588 C197.773,477.244 198.098,475.166 198.098,472.354"/>
<path class="Note" fill="#ffffff" fill-opacity="0.0" fill-rule="evenodd" d="M247.526,508.465 L266.235,508.465 L266.235,533.268 L247.526,533.268 L247.526,508.465 "/>
<path class="Note" d="M258.1,526.851 L249.725,526.851 L249.725,524.257 L258.74,511.757 L260.569,511.757 L260.569,524.647 L263.506,524.647 L263.506,526.851 L260.569,526.851 L260.569,531.616 L258.1,531.616 L258.1,526.851 M258.1,524.647 L258.1,515.96 L251.881,524.647 L258.1,524.647 "/>
<path class="Note" fill="#ffffff" fill-opacity="0.0" fill-rule="evenodd" d="M247.526,458.858 L266.235,458.858 L266.235,483.661 L247.526,483.661 L247.526,458.858 "/>
<path class="Note" d="M250.35,469.041 C250.475,464.447 252.657,462.15 256.897,462.15 C258.782,462.15 260.313,462.692 261.49,463.775 C262.668,464.859 263.256,466.26 263.256,467.979 C263.256,470.447 261.855,472.447 259.053,473.979 L256.256,475.479 C255.037,476.135 254.168,476.77 253.647,477.385 C253.126,477.999 252.798,478.729 252.662,479.572 L263.115,479.572 L263.115,482.01 L249.897,482.01 C250.011,479.822 250.451,478.137 251.217,476.955 C251.983,475.773 253.402,474.593 255.475,473.416 L258.037,471.963 C259.829,470.932 260.725,469.624 260.725,468.041 C260.725,466.979 260.352,466.091 259.608,465.377 C258.863,464.663 257.933,464.307 256.819,464.307 C254.329,464.307 252.99,465.885 252.803,469.041 L250.35,469.041 "/>
<path class="Note" fill="#ffffff" fill-opacity="0.0" fill-rule="evenodd" d="M310.043,508.465 L328.752,508.465 L328.752,533.268 L310.043,533.268 L310.043,508.465 "/>
<path class="Note" d="M324.789,511.757 L324.789,514.194 L316.523,514.194 L315.742,519.741 C316.846,518.939 318.07,518.538 319.414,518.538 C321.32,518.538 322.864,519.15 324.047,520.374 C325.229,521.598 325.82,523.189 325.82,525.147 C325.82,527.241 325.187,528.949 323.922,530.272 C322.656,531.595 321.023,532.257 319.023,532.257 C318.252,532.257 317.547,532.173 316.906,532.007 C316.265,531.84 315.734,531.64 315.312,531.405 C314.89,531.171 314.508,530.864 314.164,530.483 C313.82,530.103 313.56,529.767 313.383,529.476 C313.205,529.184 313.036,528.819 312.875,528.382 C312.713,527.944 312.614,527.642 312.578,527.476 C312.541,527.309 312.497,527.064 312.445,526.741 L314.898,526.741 C315.482,528.96 316.836,530.069 318.961,530.069 C320.304,530.069 321.364,529.66 322.14,528.843 C322.916,528.025 323.304,526.908 323.304,525.491 C323.304,524.012 322.911,522.848 322.125,521.999 C321.338,521.15 320.284,520.726 318.961,520.726 C318.2,520.726 317.549,520.861 317.008,521.132 C316.466,521.403 315.903,521.882 315.32,522.569 L313.054,522.569 L314.539,511.757 L324.789,511.757 "/>
<path class="Note" fill="#ffffff" fill-opacity="0.0" fill-rule="evenodd" d="M310.043,458.858 L328.752,458.858 L328.752,483.661 L310.043,483.661 L310.043,458.858 "/>
<path class="Note" d="M319.023,464.307 C317.607,464.307 316.633,464.695 316.101,465.471 C315.57,466.247 315.284,467.281 315.242,468.572 L312.773,468.572 C312.867,464.291 314.94,462.15 318.992,462.15 C320.877,462.15 322.357,462.637 323.429,463.611 C324.502,464.585 325.039,465.921 325.039,467.619 C325.039,469.63 324.117,470.999 322.273,471.729 C323.461,472.145 324.317,472.721 324.843,473.455 C325.37,474.19 325.633,475.192 325.633,476.463 C325.633,478.348 325.021,479.851 323.797,480.971 C322.573,482.091 320.945,482.65 318.914,482.65 C314.841,482.65 312.653,480.515 312.351,476.244 L314.82,476.244 C314.914,477.682 315.297,478.744 315.968,479.432 C316.64,480.119 317.648,480.463 318.992,480.463 C320.284,480.463 321.291,480.114 322.015,479.416 C322.739,478.718 323.101,477.744 323.101,476.494 C323.101,474.088 321.732,472.885 318.992,472.885 L317.961,472.916 L317.648,472.916 L317.648,470.807 C319.419,470.775 320.674,470.554 321.414,470.143 C322.153,469.731 322.523,468.916 322.523,467.697 C322.523,466.656 322.211,465.83 321.586,465.221 C320.961,464.611 320.107,464.307 319.023,464.307"/>
<path class="Note" fill="#ffffff" fill-opacity="0.0" fill-rule="evenodd" d="M372.56,483.661 L391.269,483.661 L391.269,508.465 L372.56,508.465 L372.56,483.661 "/>
<path class="Note" d="M375.181,497.204 C375.181,495.547 375.321,494.084 375.603,492.813 C375.884,491.542 376.238,490.547 376.665,489.829 C377.092,489.11 377.605,488.527 378.204,488.079 C378.803,487.631 379.379,487.331 379.931,487.18 C380.483,487.029 381.066,486.954 381.681,486.954 C386.014,486.954 388.181,490.428 388.181,497.375 C388.181,500.646 387.624,503.144 386.509,504.868 C385.394,506.592 383.785,507.454 381.681,507.454 C379.556,507.454 377.941,506.581 376.837,504.836 C375.733,503.092 375.181,500.547 375.181,497.204 M385.65,497.157 C385.65,491.813 384.324,489.141 381.673,489.141 C379.022,489.141 377.696,491.839 377.696,497.235 C377.696,502.683 379.004,505.407 381.618,505.407 C383.004,505.407 384.022,504.735 384.673,503.391 C385.324,502.047 385.65,499.969 385.65,497.157"/>
<path class="Note" fill="#ffffff" fill-opacity="0.0" fill-rule="evenodd" d="M372.56,458.858 L391.269,458.858 L391.269,483.661 L372.56,483.661 L372.56,458.858 "/>
<path class="Note" d="M387.306,462.15 L387.306,464.588 L379.04,464.588 L378.259,470.135 C379.363,469.333 380.587,468.932 381.931,468.932 C383.837,468.932 385.381,469.544 386.564,470.768 C387.746,471.992 388.337,473.583 388.337,475.541 C388.337,477.635 387.704,479.343 386.439,480.666 C385.173,481.989 383.54,482.65 381.54,482.65 C380.769,482.65 380.064,482.567 379.423,482.4 C378.782,482.234 378.251,482.033 377.829,481.799 C377.407,481.565 377.025,481.257 376.681,480.877 C376.337,480.497 376.077,480.161 375.9,479.869 C375.723,479.578 375.553,479.213 375.392,478.775 C375.23,478.338 375.131,478.036 375.095,477.869 C375.058,477.703 375.014,477.458 374.962,477.135 L377.415,477.135 C377.999,479.354 379.353,480.463 381.478,480.463 C382.821,480.463 383.881,480.054 384.657,479.236 C385.433,478.419 385.821,477.302 385.821,475.885 C385.821,474.406 385.428,473.242 384.642,472.393 C383.855,471.544 382.801,471.119 381.478,471.119 C380.717,471.119 380.066,471.255 379.525,471.525 C378.983,471.796 378.42,472.275 377.837,472.963 L375.571,472.963 L377.056,462.15 L387.306,462.15 "/>
<path class="Note" fill="#ffffff" fill-opacity="0.0" fill-rule="evenodd" d="M435.077,483.661 L453.786,483.661 L453.786,508.465 L435.077,508.465 L435.077,483.661 "/>
<path class="Note" d="M437.901,493.844 C438.026,489.25 440.208,486.954 444.448,486.954 C446.333,486.954 447.865,487.495 449.042,488.579 C450.219,489.662 450.807,491.063 450.807,492.782 C450.807,495.25 449.406,497.25 446.604,498.782 L443.807,500.282 C442.589,500.938 441.719,501.573 441.198,502.188 C440.677,502.803 440.349,503.532 440.214,504.375 L450.667,504.375 L450.667,506.813 L437.448,506.813 C437.563,504.625 438.003,502.941 438.768,501.758 C439.534,500.576 440.953,499.396 443.026,498.219 L445.589,496.766 C447.38,495.735 448.276,494.428 448.276,492.844 C448.276,491.782 447.904,490.894 447.159,490.18 C446.414,489.467 445.484,489.11 444.37,489.11 C441.88,489.11 440.542,490.688 440.354,493.844 L437.901,493.844 "/>
<path class="Note" fill="#ffffff" fill-opacity="0.0" fill-rule="evenodd" d="M435.077,434.055 L453.786,434.055 L453.786,458.858 L435.077,458.858 L435.077,434.055 "/>
<path class="Note" d="M437.698,447.597 C437.698,445.941 437.839,444.478 438.12,443.207 C438.401,441.936 438.755,440.941 439.182,440.222 C439.609,439.504 440.122,438.92 440.721,438.472 C441.32,438.024 441.896,437.725 442.448,437.574 C443,437.423 443.583,437.347 444.198,437.347 C448.531,437.347 450.698,440.821 450.698,447.769 C450.698,451.04 450.141,453.537 449.026,455.261 C447.911,456.985 446.302,457.847 444.198,457.847 C442.073,457.847 440.458,456.975 439.354,455.23 C438.25,453.485 437.698,450.941 437.698,447.597 M448.167,447.55 C448.167,442.207 446.841,439.535 444.19,439.535 C441.539,439.535 440.214,442.233 440.214,447.629 C440.214,453.076 441.521,455.8 444.135,455.8 C445.521,455.8 446.539,455.129 447.19,453.785 C447.841,452.441 448.167,450.363 448.167,447.55"/>
<path class="Note" fill="#ffffff" fill-opacity="0.0" fill-rule="evenodd" d="M497.595,483.661 L516.303,483.661 L516.303,508.465 L497.595,508.465 L497.595,483.661 "/>
<path class="Note" d="M506.574,489.11 C505.158,489.11 504.184,489.498 503.653,490.274 C503.121,491.05 502.835,492.084 502.793,493.375 L500.324,493.375 C500.418,489.094 502.491,486.954 506.543,486.954 C508.429,486.954 509.908,487.441 510.981,488.415 C512.054,489.389 512.59,490.724 512.59,492.422 C512.59,494.433 511.668,495.803 509.824,496.532 C511.012,496.948 511.869,497.524 512.395,498.258 C512.921,498.993 513.184,499.995 513.184,501.266 C513.184,503.152 512.572,504.654 511.348,505.774 C510.124,506.894 508.496,507.454 506.465,507.454 C502.392,507.454 500.205,505.318 499.903,501.047 L502.371,501.047 C502.465,502.485 502.848,503.547 503.52,504.235 C504.192,504.922 505.199,505.266 506.543,505.266 C507.835,505.266 508.843,504.917 509.567,504.219 C510.291,503.521 510.653,502.547 510.653,501.297 C510.653,498.891 509.283,497.688 506.543,497.688 L505.512,497.719 L505.199,497.719 L505.199,495.61 C506.97,495.579 508.225,495.357 508.965,494.946 C509.705,494.534 510.074,493.719 510.074,492.5 C510.074,491.459 509.762,490.633 509.137,490.024 C508.512,489.415 507.658,489.11 506.574,489.11"/>
<path class="Note" fill="#ffffff" fill-opacity="0.0" fill-rule="evenodd" d="M497.595,434.055 L516.303,434.055 L516.303,458.858 L497.595,458.858 L497.595,434.055 "/>
<path class="Note" d="M506.262,443.066 L501.871,443.066 L501.871,441.3 C503.778,441.061 505.02,440.725 505.598,440.293 C506.176,439.86 506.679,438.879 507.106,437.347 L508.731,437.347 L508.731,457.207 L506.262,457.207 L506.262,443.066 "/>
<path class="Note" fill="#ffffff" fill-opacity="0.0" fill-rule="evenodd" d="M560.112,483.661 L578.82,483.661 L578.82,508.465 L560.112,508.465 L560.112,483.661 "/>
<path class="Note" d="M562.732,497.766 C562.732,496.016 562.891,494.472 563.209,493.133 C563.526,491.795 563.922,490.745 564.396,489.985 C564.87,489.224 565.44,488.605 566.107,488.125 C566.774,487.646 567.401,487.331 567.99,487.18 C568.578,487.029 569.196,486.954 569.841,486.954 C571.352,486.954 572.607,487.412 573.607,488.329 C574.607,489.245 575.227,490.516 575.466,492.141 L573.013,492.141 C572.805,491.193 572.412,490.456 571.834,489.93 C571.256,489.404 570.534,489.141 569.67,489.141 C568.253,489.141 567.167,489.79 566.412,491.086 C565.657,492.383 565.269,494.245 565.248,496.672 C566.331,495.204 567.852,494.469 569.81,494.469 C571.591,494.469 573.05,495.058 574.185,496.235 C575.321,497.412 575.888,498.922 575.888,500.766 C575.888,502.704 575.279,504.303 574.06,505.563 C572.841,506.823 571.289,507.454 569.404,507.454 C564.956,507.454 562.732,504.224 562.732,497.766 M569.513,496.657 C568.295,496.657 567.302,497.042 566.537,497.813 C565.771,498.584 565.388,499.589 565.388,500.829 C565.388,502.089 565.771,503.144 566.537,503.993 C567.302,504.842 568.263,505.266 569.42,505.266 C570.565,505.266 571.511,504.862 572.256,504.055 C573,503.248 573.373,502.214 573.373,500.954 C573.373,499.631 573.026,498.584 572.334,497.813 C571.641,497.042 570.701,496.657 569.513,496.657"/>
<path class="Note" fill="#ffffff" fill-opacity="0.0" fill-rule="evenodd" d="M560.112,434.055 L578.82,434.055 L578.82,458.858 L560.112,458.858 L560.112,434.055 "/>
<path class="Note" d="M570.685,452.441 L562.31,452.441 L562.31,449.847 L571.326,437.347 L573.154,437.347 L573.154,450.238 L576.091,450.238 L576.091,452.441 L573.154,452.441 L573.154,457.207 L570.685,457.207 L570.685,452.441 M570.685,450.238 L570.685,441.55 L564.466,450.238 L570.685,450.238 "/>
<path class="Note" transform="matrix(0.566929,0,0,0.566929,121.217,368.504)" d="M21.9688,-13.7656 C25.0938,-13.7656 27.7344,-12.9531 29.8906,-11.3281 C31.901,-9.56771 32.9063,-7.35417 32.9063,-4.6875 C32.9063,-0.197917 30.599,4 25.9844,7.90625 C21.2969,11.8125 16.2813,13.7656 10.9375,13.7656 C7.8125,13.7656 5.17708,12.9531 3.03125,11.3281 C1.01042,9.56771 0,7.35417 0,4.6875 C0,0.197917 2.34375,-4 7.03125,-7.90625 C11.5938,-11.8125 16.5729,-13.7656 21.9688,-13.7656"/>
<path class="Note" transform="matrix(0.566929,0,0,0.566929,183.734,361.417)" d="M21.9688,-13.7656 C25.0938,-13.7656 27.7344,-12.9531 29.8906,-11.3281 C31.901,-9.56771 32.9063,-7.35417 32.9063,-4.6875 C32.9063,-0.197917 30.599,4 25.9844,7.90625 C21.2969,11.8125 16.2813,13.7656 10.9375,13.7656 C7.8125,13.7656 5.17708,12.9531 3.03125,11.3281 C1.01042,9.56771 0,7.35417 0,4.6875 C0,0.197917 2.34375,-4 7.03125,-7.90625 C11.5938,-11.8125 16.5729,-13.7656 21.9688,-13.7656"/>
<path class="Note" transform="matrix(0.566929,0,0,0.566929,246.251,354.331)" d="M21.9688,-13.7656 C25.0938,-13.7656 27.7344,-12.9531 29.8906,-11.3281 C31.901,-9.56771 32.9063,-7.35417 32.9063,-4.6875 C32.9063,-0.197917 30.599,4 25.9844,7.90625 C21.2969,11.8125 16.2813,13.7656 10.9375,13.7656 C7.8125,13.7656 5.17708,12.9531 3.03125,11.3281 C1.01042,9.56771 0,7.35417 0,4.6875 C0,0.197917 2.34375,-4 7.03125,-7.90625 C11.5938,-11.8125 16.5729,-13.7656 21.9688,-13.7656"/>
<path class="Note" transform="matrix(0.566929,0,0,0.566929,308.768,347.244)" d="M21.9688,-13.7656 C25.0938,-13.7656 27.7344,-12.9531 29.8906,-11.3281 C31.901,-9.56771 32.9063,-7.35417 32.9063,-4.6875 C32.9063,-0.197917 30.599,4 25.9844,7.90625 C21.2969,11.8125 16.2813,13.7656 10.9375,13.7656 C7.8125,13.7656 5.17708,12.9531 3.03125,11.3281 C1.01042,9.56771 0,7.35417 0,4.6875 C0,0.197917 2.34375,-4 7.03125,-7.90625 C11.5938,-11.8125 16.5729,-13.7656 21.9688,-13.7656"/>
<path class="Note" transform="matrix(0.566929,0,0,0.566929,371.285,340.157)" d="M21.9688,-13.7656 C25.0938,-13.7656 27.7344,-12.9531 29.8906,-11.3281 C31.901,-9.56771 32.9063,-7.35417 32.9063,-4.6875 C32.9063,-0.197917 30.599,4 25.9844,7.90625 C21.2969,11.8125 16.2813,13.7656 10.9375,13.7656 C7.8125,13.7656 5.17708,12.9531 3.03125,11.3281 C1.01042,9.56771 0,7.35417 0,4.6875 C0,0.197917 2.34375,-4 7.03125,-7.90625 C11.5938,-11.8125 16.5729,-13.7656 21.9688,-13.7656"/>
<path class="Note" transform="matrix(0.566929,0,0,0.566929,433.802,333.071)" d="M21.9688,-13.7656 C25.0938,-13.7656 27.7344,-12.9531 29.8906,-11.3281 C31.901,-9.56771 32.9063,-7.35417 32.9063,-4.6875 C32.9063,-0.197917 30.599,4 25.9844,7.90625 C21.2969,11.8125 16.2813,13.7656 10.9375,13.7656 C7.8125,13.7656 5.17708,12.9531 3.03125,11.3281 C1.01042,9.56771 0,7.35417 0,4.6875 C0,0.197917 2.34375,-4 7.03125,-7.90625 C11.5938,-11.8125 16.5729,-13.7656 21.9688,-13.7656"/>
<path class="Note" transform="matrix(0.566929,0,0,0.566929,496.319,325.984)" d="M21.9688,-13.7656 C25.0938,-13.7656 27.7344,-12.9531 29.8906,-11.3281 C31.901,-9.56771 32.9063,-7.35417 32.9063,-4.6875 C32.9063,-0.197917 30.599,4 25.9844,7.90625 C21.2969,11.8125 16.2813,13.7656 10.9375,13.7656 C7.8125,13.7656 5.17708,12.9531 3.03125,11.3281 C1.01042,9.56771 0,7.35417 0,4.6875 C0,0.197917 2.34375,-4 7.03125,-7.90625 C11.5938,-11.8125 16.5729,-13.7656 21.9688,-13.7656"/>
<path class="Note" transform="matrix(0.566929,0,0,0.566929,558.836,318.898)" d="M21.9688,-13.7656 C25.0938,-13.7656 27.7344,-12.9531 29.8906,-11.3281 C31.901,-9.56771 32.9063,-7.35417 32.9063,-4.6875 C32.9063,-0.197917 30.599,4 25.9844,7.90625 C21.2969,11.8125 16.2813,13.7656 10.9375,13.7656 C7.8125,13.7656 5.17708,12.9531 3.03125,11.3281 C1.01042,9.56771 0,7.35417 0,4.6875 C0,0.197917 2.34375,-4 7.03125,-7.90625 C11.5938,-11.8125 16.5729,-13.7656 21.9688,-13.7656"/>
<path class="Note" transform="matrix(0.566929,0,0,0.566929,121.217,226.772)" d="M21.9688,-13.7656 C25.0938,-13.7656 27.7344,-12.9531 29.8906,-11.3281 C31.901,-9.56771 32.9063,-7.35417 32.9063,-4.6875 C32.9063,-0.197917 30.599,4 25.9844,7.90625 C21.2969,11.8125 16.2813,13.7656 10.9375,13.7656 C7.8125,13.7656 5.17708,12.9531 3.03125,11.3281 C1.01042,9.56771 0,7.35417 0,4.6875 C0,0.197917 2.34375,-4 7.03125,-7.90625 C11.5938,-11.8125 16.5729,-13.7656 21.9688,-13.7656"/>
<path class="Note" transform="matrix(0.566929,0,0,0.566929,183.734,219.685)" d="M21.9688,-13.7656 C25.0938,-13.7656 27.7344,-12.9531 29.8906,-11.3281 C31.901,-9.56771 32.9063,-7.35417 32.9063,-4.6875 C32.9063,-0.197917 30.599,4 25.9844,7.90625 C21.2969,11.8125 16.2813,13.7656 10.9375,13.7656 C7.8125,13.7656 5.17708,12.9531 3.03125,11.3281 C1.01042,9.56771 0,7.35417 0,4.6875 C0,0.197917 2.34375,-4 7.03125,-7.90625 C11.5938,-11.8125 16.5729,-13.7656 21.9688,-13.7656"/>
<path class="Note" transform="matrix(0.566929,0,0,0.566929,246.251,212.598)" d="M21.9688,-13.7656 C25.0938,-13.7656 27.7344,-12.9531 29.8906,-11.3281 C31.901,-9.56771 32.9063,-7.35417 32.9063,-4.6875 C32.9063,-0.197917 30.599,4 25.9844,7.90625 C21.2969,11.8125 16.2813,13.7656 10.9375,13.7656 C7.8125,13.7656 5.17708,12.9531 3.03125,11.3281 C1.01042,9.56771 0,7.35417 0,4.6875 C0,0.197917 2.34375,-4 7.03125,-7.90625 C11.5938,-11.8125 16.5729,-13.7656 21.9688,-13.7656"/>
<path class="Note" transform="matrix(0.566929,0,0,0.566929,308.768,205.512)" d="M21.9688,-13.7656 C25.0938,-13.7656 27.7344,-12.9531 29.8906,-11.3281 C31.901,-9.56771 32.9063,-7.35417 32.9063,-4.6875 C32.9063,-0.197917 30.599,4 25.9844,7.90625 C21.2969,11.8125 16.2813,13.7656 10.9375,13.7656 C7.8125,13.7656 5.17708,12.9531 3.03125,11.3281 C1.01042,9.56771 0,7.35417 0,4.6875 C0,0.197917 2.34375,-4 7.03125,-7.90625 C11.5938,-11.8125 16.5729,-13.7656 21.9688,-13.7656"/>
<path class="Note" transform="matrix(0.566929,0,0,0.566929,371.285,198.425)" d="M21.9688,-13.7656 C25.0938,-13.7656 27.7344,-12.9531 29.8906,-11.3281 C31.901,-9.56771 32.9063,-7.35417 32.9063,-4.6875 C32.9063,-0.197917 30.599,4 25.9844,7.90625 C21.2969,11.8125 16.2813,13.7656 10.9375,13.7656 C7.8125,13.7656 5.17708,12.9531 3.03125,11.3281 C1.01042,9.56771 0,7.35417 0,4.6875 C0,0.197917 2.34375,-4 7.03125,-7.90625 C11.5938,-11.8125 16.5729,-13.7656 21.9688,-13.7656"/>
<path class="Note" transform="matrix(0.566929,0,0,0.566929,433.802,191.339)" d="M21.9688,-13.7656 C25.0938,-13.7656 27.7344,-12.9531 29.8906,-11.3281 C31.901,-9.56771 32.9063,-7.35417 32.9063,-4.6875 C32.9063,-0.197917 30.599,4 25.9844,7.90625 C21.2969,11.8125 16.2813,13.7656 10.9375,13.7656 C7.8125,13.7656 5.17708,12.9531 3.03125,11.3281 C1.01042,9.56771 0,7.35417 0,4.6875 C0,0.197917 2.34375,-4 7.03125,-7.90625 C11.5938,-11.8125 16.5729,-13.7656 21.9688,-13.7656"/>
<path class="Note" transform="matrix(0.566929,0,0,0.566929,496.319,184.252)" d="M21.9688,-13.7656 C25.0938,-13.7656 27.7344,-12.9531 29.8906,-11.3281 C31.901,-9.56771 32.9063,-7.35417 32.9063,-4.6875 C32.9063,-0.197917 30.599,4 25.9844,7.90625 C21.2969,11.8125 16.2813,13.7656 10.9375,13.7656 C7.8125,13.7656 5.17708,12.9531 3.03125,11.3281 C1.01042,9.56771 0,7.35417 0,4.6875 C0,0.197917 2.34375,-4 7.03125,-7.90625 C11.5938,-11.8125 16.5729,-13.7656 21.9688,-13.7656"/>
<path class="Note" transform="matrix(0.566929,0,0,0.566929,558.836,177.165)" d="M21.9688,-13.7656 C25.0938,-13.7656 27.7344,-12.9531 29.8906,-11.3281 C31.901,-9.56771 32.9063,-7.35417 32.9063,-4.6875 C32.9063,-0.197917 30.599,4 25.9844,7.90625 C21.2969,11.8125 16.2813,13.7656 10.9375,13.7656 C7.8125,13.7656 5.17708,12.9531 3.03125,11.3281 C1.01042,9.56771 0,7.35417 0,4.6875 C0,0.197917 2.34375,-4 7.03125,-7.90625 C11.5938,-11.8125 16.5729,-13.7656 21.9688,-13.7656"/>
<path class="Note" transform="matrix(0.566929,0,0,0.566929,121.217,85.0394)" d="M21.9688,-13.7656 C25.0938,-13.7656 27.7344,-12.9531 29.8906,-11.3281 C31.901,-9.56771 32.9063,-7.35417 32.9063,-4.6875 C32.9063,-0.197917 30.599,4 25.9844,7.90625 C21.2969,11.8125 16.2813,13.7656 10.9375,13.7656 C7.8125,13.7656 5.17708,12.9531 3.03125,11.3281 C1.01042,9.56771 0,7.35417 0,4.6875 C0,0.197917 2.34375,-4 7.03125,-7.90625 C11.5938,-11.8125 16.5729,-13.7656 21.9688,-13.7656"/>
<path class="Note" transform="matrix(0.566929,0,0,0.566929,183.734,77.9528)" d="M21.9688,-13.7656 C25.0938,-13.7656 27.7344,-12.9531 29.8906,-11.3281 C31.901,-9.56771 32.9063,-7.35417 32.9063,-4.6875 C32.9063,-0.197917 30.599,4 25.9844,7.90625 C21.2969,11.8125 16.2813,13.7656 10.9375,13.7656 C7.8125,13.7656 5.17708,12.9531 3.03125,11.3281 C1.01042,9.56771 0,7.35417 0,4.6875 C0,0.197917 2.34375,-4 7.03125,-7.90625 C11.5938,-11.8125 16.5729,-13.7656 21.9688,-13.7656"/>
<path class="Note" transform="matrix(0.566929,0,0,0.566929,246.251,70.8661)" d="M21.9688,-13.7656 C25.0938,-13.7656 27.7344,-12.9531 29.8906,-11.3281 C31.901,-9.56771 32.9063,-7.35417 32.9063,-4.6875 C32.9063,-0.197917 30.599,4 25.9844,7.90625 C21.2969,11.8125 16.2813,13.7656 10.9375,13.7656 C7.8125,13.7656 5.17708,12.9531 3.03125,11.3281 C1.01042,9.56771 0,7.35417 0,4.6875 C0,0.197917 2.34375,-4 7.03125,-7.90625 C11.5938,-11.8125 16.5729,-13.7656 21.9688,-13.7656"/>
<path class="Note" transform="matrix(0.566929,0,0,0.566929,308.768,63.7795)" d="M21.9688,-13.7656 C25.0938,-13.7656 27.7344,-12.9531 29.8906,-11.3281 C31.901,-9.56771 32.9063,-7.35417 32.9063,-4.6875 C32.9063,-0.197917 30.599,4 25.9844,7.90625 C21.2969,11.8125 16.2813,13.7656 10.9375,13.7656 C7.8125,13.7656 5.17708,12.9531 3.03125,11.3281 C1.01042,9.56771 0,7.35417 0,4.6875 C0,0.197917 2.34375,-4 7.03125,-7.90625 C11.5938,-11.8125 16.5729,-13.7656 21.9688,-13.7656"/>
<path class="Note" transform="matrix(0.566929,0,0,0.566929,371.285,56.6929)" d="M21.9688,-13.7656 C25.0938,-13.7656 27.7344,-12.9531 29.8906,-11.3281 C31.901,-9.56771 32.9063,-7.35417 32.9063,-4.6875 C32.9063,-0.197917 30.599,4 25.9844,7.90625 C21.2969,11.8125 16.2813,13.7656 10.9375,13.7656 C7.8125,13.7656 5.17708,12.9531 3.03125,11.3281 C1.01042,9.56771 0,7.35417 0,4.6875 C0,0.197917 2.34375,-4 7.03125,-7.90625 C11.5938,-11.8125 16.5729,-13.7656 21.9688,-13.7656"/>
<path class="Note" transform="matrix(0.566929,0,0,0.566929,433.802,49.6063)" d="M21.9688,-13.7656 C25.0938,-13.7656 27.7344,-12.9531 29.8906,-11.3281 C31.901,-9.56771 32.9063,-7.35417 32.9063,-4.6875 C32.9063,-0.197917 30.599,4 25.9844,7.90625 C21.2969,11.8125 16.2813,13.7656 10.9375,13.7656 C7.8125,13.7656 5.17708,12.9531 3.03125,11.3281 C1.01042,9.56771 0,7.35417 0,4.6875 C0,0.197917 2.34375,-4 7.03125,-7.90625 C11.5938,-11.8125 16.5729,-13.7656 21.9688,-13.7656"/>
<path class="Note" transform="matrix(0.566929,0,0,0.566929,496.319,42.5197)" d="M21.9688,-13.7656 C25.0938,-13.7656 27.7344,-12.9531 29.8906,-11.3281 C31.901,-9.56771 32.9063,-7.35417 32.9063,-4.6875 C32.9063,-0.197917 30.599,4 25.9844,7.90625 C21.2969,11.8125 16.2813,13.7656 10.9375,13.7656 C7.8125,13.7656 5.17708,12.9531 3.03125,11.3281 C1.01042,9.56771 0,7.35417 0,4.6875 C0,0.197917 2.34375,-4 7.03125,-7.90625 C11.5938,-11.8125 16.5729,-13.7656 21.9688,-13.7656"/>
<path class="Note" transform="matrix(0.566929,0,0,0.566929,558.836,35.4331)" d="M21.9688,-13.7656 C25.0938,-13.7656 27.7344,-12.9531 29.8906,-11.3281 C31.901,-9.56771 32.9063,-7.35417 32.9063,-4.6875 C32.9063,-0.197917 30.599,4 25.9844,7.90625 C21.2969,11.8125 16.2813,13.7656 10.9375,13.7656 C7.8125,13.7656 5.17708,12.9531 3.03125,11.3281 C1.01042,9.56771 0,7.35417 0,4.6875 C0,0.197917 2.34375,-4 7.03125,-7.90625 C11.5938,-11.8125 16.5729,-13.7656 21.9688,-13.7656"/>
<path class="Clef" transform="matrix(0.566929,0,0,0.566929,28.5015,660.827)" d="M26.6563,42.4844 C26.6563,44.3073 25.224,45.2188 22.3594,45.2188 C20.0885,45.2188 18.1042,44.5365 16.4063,43.1719 C14.7813,41.7344 13.9688,39.9115 13.9688,37.7031 C13.9688,33.7969 16.3438,30.6719 21.0938,28.3281 C25.7188,25.9115 31.1563,24.7031 37.4063,24.7031 C39.8125,24.7031 42.3854,24.8698 45.125,25.2031 C47.1354,25.4635 49.3802,25.9844 51.8594,26.7656 C54.0677,27.474 55.7917,28.5443 57.0313,29.9766 C58.2708,31.4089 58.8906,33.0729 58.8906,34.9688 C58.8906,39.4583 56.5781,43.1354 51.9531,46 C58.724,47.2396 62.1406,50.2656 62.2031,55.0781 C62.2031,59.1198 60.3802,62.7682 56.7344,66.0234 C53.0885,69.2786 48.9583,70.9063 44.3438,70.9063 C42.3854,70.9063 40.3958,70.4479 38.375,69.5313 C36.4896,68.625 35.1563,67.7813 34.375,67 C33.5938,66.0833 33.2031,65.3958 33.2031,64.9375 C33.2031,64.2917 33.5313,63.7396 34.1875,63.2813 C34.7708,62.6979 35.3854,62.4063 36.0313,62.4063 C36.2917,62.4063 36.8464,62.8281 37.6953,63.6719 C38.5443,64.5156 39.7813,64.9375 41.4063,64.9375 C43.625,64.9375 45.776,63.9948 47.8594,62.1094 C49.8698,60.2865 50.875,58.1042 50.875,55.5625 C50.875,53.3542 49.9323,51.7604 48.0469,50.7813 C46.1615,49.8021 43.7552,49.3125 40.8281,49.3125 C40.3073,49.3125 40.0469,48.7604 40.0469,47.6563 C40.0469,46.0938 40.6302,45.3125 41.7969,45.3125 C43.6198,45.3125 45.25,44.5313 46.6875,42.9688 C48.0521,41.2813 48.7344,39.4896 48.7344,37.5938 C48.7344,37.0104 48.5729,36.1354 48.25,34.9688 C47.9896,34.1875 47.2083,33.2396 45.9063,32.125 C44.6667,31.0833 42.9375,30.3698 40.7188,29.9844 C40.1354,33.1719 39.4036,37.2396 38.5234,42.1875 C37.6432,47.1354 37.0417,50.3906 36.7188,51.9531 C35.6146,57.5573 33.599,62.276 30.6719,66.1094 C27.6094,70.151 24.3177,72.1719 20.7969,72.1719 C19.6927,72.1719 18.5573,71.9115 17.3906,71.3906 C16.474,70.9948 15.3021,70.1823 13.875,68.9531 C12.5729,67.9115 11.6927,67.224 11.2344,66.8906 C10.974,66.7031 10.8438,66.4115 10.8438,66.0156 C10.8438,65.3698 11.0729,64.7865 11.5313,64.2656 C12.0521,63.6719 12.6042,63.375 13.1875,63.375 C13.5729,63.375 14.4818,63.9948 15.9141,65.2344 C17.3464,66.474 18.8438,67.0938 20.4063,67.0938 C23.4063,67.0938 25.6563,65.1719 27.1563,61.3281 C28.5833,57.6198 29.2969,53.0313 29.2969,47.5625 L29.2969,46.7813 C29.2969,43.1354 29.8854,37.6979 31.0625,30.4688 C28.9792,31.125 27.3177,32.1042 26.0781,33.4063 C24.776,34.7083 24.125,36.0729 24.125,37.5 C24.125,38.6042 24.5469,39.5469 25.3906,40.3281 C26.2344,41.1094 26.6563,41.8281 26.6563,42.4844 M7.03125,11.9219 C7.35417,11.9219 8.13542,12.2448 9.375,12.8906 C10.6771,13.5469 11.7865,13.875 12.7031,13.875 C15.1719,13.875 18.1979,12.0833 21.7813,8.5 C32.1354,-2.05208 39.2656,-13.25 43.1719,-25.0938 C43.9531,-27.5729 45.8698,-28.8125 48.9219,-28.8125 C50.4844,-28.8125 51.8229,-28.4844 52.9375,-27.8281 C54.0417,-27.1198 54.5938,-26.4063 54.5938,-25.6875 L52.8281,10.8438 C52.8281,12.7917 53.5156,13.7656 54.8906,13.7656 C55.599,13.7656 56.6406,13.4427 58.0156,12.7969 C59.3177,12.1406 60.099,11.8125 60.3594,11.8125 C60.8802,11.8125 61.2031,12.3698 61.3281,13.4844 C61.3281,14.526 60.9063,15.1771 60.0625,15.4375 C59.4063,15.625 58.1042,16.2396 56.1563,17.2813 C54.1354,18.3229 52.5417,18.8438 51.375,18.8438 C48.8958,18.8438 47.1354,16.8906 46.0938,12.9844 C44.4688,6.86979 43.4271,0.520833 42.9688,-6.0625 C40.3646,-2.73958 37.4688,0.614583 34.2813,4 C35.4479,6.21875 37.5938,7.32813 40.7188,7.32813 C41.1771,7.32813 41.5365,7.29688 41.7969,7.23438 L41.8906,7.23438 C42.4115,7.23438 42.6719,7.71875 42.6719,8.6875 C42.6719,9.92708 42.25,10.6771 41.4063,10.9375 C40.0417,11.3958 38.6094,11.625 37.1094,11.625 C33.8594,11.625 31.5156,10.5156 30.0781,8.29688 L26.1719,11.8125 C20.7031,16.5 16.2448,18.8438 12.7969,18.8438 C11.8802,18.8438 10.9375,18.6823 9.96875,18.3594 C9.1875,18.0365 8.27604,17.5469 7.23438,16.8906 C6.83854,16.7031 6.39583,16.4609 5.90625,16.1641 C5.41667,15.8672 5.10938,15.6875 4.98438,15.625 C4.66146,15.5 4.5,15.2083 4.5,14.75 C4.5,14.2292 4.76042,13.6094 5.28125,12.8906 C5.72917,12.2448 6.3125,11.9219 7.03125,11.9219 M28.8125,-54 C28.8125,-52.375 27.4115,-51.5625 24.6094,-51.5625 C22.1406,-51.5625 19.9948,-52.375 18.1719,-54 C16.4115,-55.6354 15.5313,-57.625 15.5313,-59.9688 C15.5313,-62.2396 16.2448,-64.1927 17.6719,-65.8281 C19.1719,-67.5156 21.0938,-68.7813 23.4375,-69.625 C25.5833,-70.4063 27.9948,-71.026 30.6719,-71.4844 C33.4635,-71.8073 36.1302,-71.9688 38.6719,-71.9688 C40.1719,-71.9688 42.974,-71.2865 47.0781,-69.9219 C51.2448,-68.5573 54.1406,-67.875 55.7656,-67.875 C57.7865,-67.875 59.7083,-68.2344 61.5313,-68.9531 C63.0208,-69.599 64.4531,-70.3438 65.8281,-71.1875 C66.9323,-71.9063 67.5469,-72.2656 67.6719,-72.2656 C68.2656,-72.2656 68.7865,-72.0729 69.2344,-71.6875 C69.7552,-71.1667 70.0156,-70.7396 70.0156,-70.4063 C70.0156,-69.9583 69.401,-69.2135 68.1719,-68.1719 C66.8698,-66.9948 65.013,-65.8203 62.6016,-64.6484 C60.1901,-63.4766 57.651,-62.8906 54.9844,-62.8906 C53.8073,-62.8906 52.3438,-63.0885 50.5938,-63.4844 C49.4792,-56.2552 48.3073,-49.8385 47.0781,-44.2344 C46.0365,-39.2865 43.9531,-34.9583 40.8281,-31.25 C37.8281,-27.5417 34.474,-25.6875 30.7656,-25.6875 C29.2656,-25.6875 27.9323,-25.9792 26.7656,-26.5625 C25.4635,-27.2188 24.0938,-28.1979 22.6563,-29.5 C21.4896,-30.4688 20.3854,-31.3438 19.3438,-32.125 C19.0833,-32.3229 18.9531,-32.6198 18.9531,-33.0156 C18.9531,-33.4635 19.2135,-34.0469 19.7344,-34.7656 C20.2552,-35.349 20.7396,-35.6406 21.1875,-35.6406 C21.5833,-35.6406 22.6927,-34.8281 24.5156,-33.2031 C26.3385,-31.5781 27.9635,-30.7656 29.3906,-30.7656 C31.9948,-30.7656 34.0156,-32.2604 35.4531,-35.25 C36.8802,-38.1875 37.6927,-41.7031 37.8906,-45.7969 C38.2135,-52.5052 38.9635,-59.4427 40.1406,-66.6094 C38.7031,-66.9323 37.6302,-67.0938 36.9219,-67.0938 C33.7969,-67.0938 31.125,-66.4427 28.9063,-65.1406 C26.6979,-63.901 25.5938,-62.2083 25.5938,-60.0625 C25.5938,-58.5 26.1146,-57.2969 27.1563,-56.4531 C28.2604,-55.5365 28.8125,-54.7188 28.8125,-54"/>
<path class="Clef" transform="matrix(0.566929,0,0,0.566929,28.5015,483.661)" d="M21.2969,33.9844 C21.2969,35.4219 20.1875,36.1406 17.9688,36.1406 C16.1458,36.1406 14.5833,35.5833 13.2813,34.4688 C11.9167,33.3646 11.2344,31.9323 11.2344,30.1719 C11.2344,26.9844 13.0885,24.4792 16.7969,22.6563 C20.7031,20.7708 25.0677,19.8281 29.8906,19.8281 C34.5052,19.8281 38.6042,20.4479 42.1875,21.6875 C45.5104,23.0521 47.1719,25.1667 47.1719,28.0313 C47.1719,31.5417 45.3177,34.4688 41.6094,36.8125 C47.0781,37.9271 49.8125,40.3698 49.8125,44.1406 C49.8125,47.2656 48.3438,50.1615 45.4063,52.8281 C42.5417,55.4323 39.1927,56.7344 35.3594,56.7344 C33.7969,56.7344 32.2344,56.3802 30.6719,55.6719 C29.2344,55.0156 28.1927,54.2969 27.5469,53.5156 C26.8906,52.9323 26.5625,52.3802 26.5625,51.8594 C26.5625,51.3385 26.8229,50.9167 27.3438,50.5938 C27.8021,50.1354 28.2917,49.9063 28.8125,49.9063 C29.0729,49.9063 29.5599,50.2318 30.2734,50.8828 C30.987,51.5339 31.9635,51.8594 33.2031,51.8594 C35.0885,51.8594 36.849,51.1406 38.4844,49.7031 C40.0469,48.2135 40.8281,46.4896 40.8281,44.5313 C40.8281,42.8438 40.0469,41.5417 38.4844,40.625 C36.9844,39.7813 35.0625,39.3594 32.7188,39.3594 C32.2604,39.3594 32.0313,38.9688 32.0313,38.1875 C32.0313,36.8854 32.5208,36.2344 33.5,36.2344 C34.9271,36.2344 36.1979,35.6146 37.3125,34.375 C38.4167,32.9479 38.9688,31.4844 38.9688,29.9844 C38.9688,26.7969 36.8542,24.8125 32.625,24.0313 L29.3906,41.6094 C28.5469,45.9635 26.9531,49.7396 24.6094,52.9375 C22.2031,56.125 19.5677,57.7188 16.7031,57.7188 C15.724,57.7188 14.8125,57.5208 13.9688,57.125 C13.1875,56.8021 12.2083,56.151 11.0313,55.1719 C9.72917,54.1302 9.04688,53.5781 8.98438,53.5156 C8.72396,53.2552 8.59375,53.026 8.59375,52.8281 C8.59375,52.4427 8.79167,51.9583 9.1875,51.375 C9.63542,50.9167 10.0885,50.6875 10.5469,50.6875 C10.7448,50.6875 11.526,51.1771 12.8906,52.1563 C13.9948,53.1979 15.1667,53.7188 16.4063,53.7188 C18.8125,53.7188 20.6042,52.2188 21.7813,49.2188 C22.9479,46.0938 23.5313,42.3854 23.5313,38.0938 L23.5313,37.4063 C23.5313,34.7396 23.9896,30.4115 24.9063,24.4219 C23.2083,25.0052 21.875,25.7865 20.9063,26.7656 C19.8646,27.8073 19.3438,28.8802 19.3438,29.9844 C19.3438,30.8906 19.6667,31.6406 20.3125,32.2344 C20.9688,32.8802 21.2969,33.4635 21.2969,33.9844 M5.5625,9.46875 C5.82292,9.46875 6.47396,9.76563 7.51563,10.3594 C8.69271,10.8802 9.57292,11.1406 10.1563,11.1406 C13.0208,11.1406 17.1875,7.75521 22.6563,0.984375 C28.0625,-5.66146 32,-12.6979 34.4688,-20.125 C35.0625,-22.0729 36.5938,-23.0469 39.0625,-23.0469 C40.3021,-23.0469 41.3438,-22.7865 42.1875,-22.2656 C43.1042,-21.8802 43.5625,-21.3281 43.5625,-20.6094 L42.1875,8.59375 C42.1875,10.2917 42.776,11.1406 43.9531,11.1406 C44.3385,11.1406 45.151,10.8802 46.3906,10.3594 C47.5573,9.76563 48.2083,9.46875 48.3438,9.46875 C48.8021,9.46875 49.0313,9.92708 49.0313,10.8438 C49.0313,11.625 48.7344,12.1146 48.1406,12.3125 C47.4323,12.6354 46.3594,13.1563 44.9219,13.875 C43.2969,14.7188 42.026,15.1406 41.1094,15.1406 C40.1406,15.1406 39.2292,14.7188 38.375,13.875 C37.5313,12.8333 36.7865,10.8125 36.1406,7.8125 C35.3594,4.82292 34.7708,0.588542 34.375,-4.89063 C32.3542,-2.21354 30.0781,0.489583 27.5469,3.21875 C28.5156,4.91667 30.5,5.76563 33.5,5.76563 C33.8854,5.76563 34.0781,6.1875 34.0781,7.03125 C34.0781,8.53125 32.5833,9.28125 29.5938,9.28125 C27.0521,9.28125 25.2292,8.40104 24.125,6.64063 L21,9.375 C16.7708,13.0208 13.1563,14.9115 10.1563,15.0469 C9.11458,15.0469 7.75,14.5885 6.0625,13.6719 C4.42708,12.8281 3.60938,12.2083 3.60938,11.8125 C3.60938,11.3646 3.80729,10.8802 4.20313,10.3594 C4.58854,9.76563 5.04167,9.46875 5.5625,9.46875 M23.0469,-43.1719 C23.0469,-41.9323 21.9427,-41.3125 19.7344,-41.3125 C17.776,-41.3125 16.0469,-41.9635 14.5469,-43.2656 C13.1198,-44.5052 12.4063,-46.099 12.4063,-48.0469 C12.4063,-49.8698 12.9583,-51.4323 14.0625,-52.7344 C15.3646,-54.1719 16.9271,-55.151 18.75,-55.6719 C20.0521,-56.1927 22.0052,-56.7135 24.6094,-57.2344 C27.349,-57.4948 29.4635,-57.625 30.9531,-57.625 C32.0677,-57.625 34.2839,-57.0703 37.6016,-55.9609 C40.9193,-54.8516 43.2604,-54.2969 44.625,-54.2969 C46.2604,-54.2969 47.7917,-54.5573 49.2188,-55.0781 C50.5833,-55.6615 51.6927,-56.25 52.5469,-56.8438 C53.3906,-57.4896 53.9115,-57.8125 54.1094,-57.8125 C54.4948,-57.8125 54.9167,-57.651 55.375,-57.3281 C55.7604,-57.0052 55.9531,-56.6771 55.9531,-56.3438 C55.9531,-56.0833 55.4688,-55.4688 54.5,-54.5 C53.3229,-53.4583 51.8229,-52.5469 50,-51.7656 C48.0521,-50.7865 46.0677,-50.2969 44.0469,-50.2969 C43.0052,-50.2969 41.8333,-50.4583 40.5313,-50.7813 C39.6146,-44.4063 38.6719,-39.2292 37.7031,-35.25 C36.849,-31.2813 35.1875,-27.8333 32.7188,-24.9063 C30.3125,-21.9792 27.6406,-20.5156 24.7031,-20.5156 C23.401,-20.5156 22.3281,-20.776 21.4844,-21.2969 C20.3802,-21.8177 19.276,-22.5625 18.1719,-23.5313 C17.1302,-24.5104 16.25,-25.2292 15.5313,-25.6875 C15.2708,-25.9479 15.1406,-26.1771 15.1406,-26.375 C15.1406,-26.8229 15.3021,-27.276 15.625,-27.7344 C15.9479,-28.2552 16.3698,-28.5156 16.8906,-28.5156 C17.151,-28.5156 18.0313,-27.8646 19.5313,-26.5625 C21.0313,-25.2604 22.3646,-24.6094 23.5313,-24.6094 C25.0938,-24.6094 26.3021,-25.1302 27.1563,-26.1719 C28.0625,-27.2135 28.776,-28.776 29.2969,-30.8594 C29.7552,-32.7448 30.0833,-34.8594 30.2813,-37.2031 C30.5417,-39.1615 30.8333,-41.8333 31.1563,-45.2188 C31.3542,-47.1042 31.6771,-49.8073 32.125,-53.3281 C31.0208,-53.5885 30.1458,-53.7188 29.5,-53.7188 C27.1563,-53.7188 25.0365,-53.1979 23.1406,-52.1563 C21.3906,-50.9792 20.5156,-49.6406 20.5156,-48.1406 C20.5156,-47.0365 20.9375,-46.0625 21.7813,-45.2188 C22.625,-44.375 23.0469,-43.6927 23.0469,-43.1719"/>
<path class="Clef" transform="matrix(0.566929,0,0,0.566929,28.5015,325.984)" d="M57.1328,-8.89063 C56.1589,-9.86979 55.6719,-11.0755 55.6719,-12.5078 C55.6719,-13.9401 56.1589,-15.1432 57.1328,-16.1172 C58.1068,-17.0911 59.3099,-17.5781 60.7422,-17.5781 C62.1745,-17.5781 63.3802,-17.0911 64.3594,-16.1172 C65.3385,-15.1432 65.8281,-13.9401 65.8281,-12.5078 C65.8281,-11.0755 65.3385,-9.86979 64.3594,-8.89063 C63.3802,-7.91146 62.1745,-7.42188 60.7422,-7.42188 C59.3099,-7.42188 58.1068,-7.91146 57.1328,-8.89063 M57.1328,16.1172 C56.1589,15.1432 55.6719,13.9401 55.6719,12.5078 C55.6719,11.0755 56.1589,9.86979 57.1328,8.89063 C58.1068,7.91146 59.3099,7.42188 60.7422,7.42188 C62.1745,7.42188 63.3802,7.91146 64.3594,8.89063 C65.3385,9.86979 65.8281,11.0755 65.8281,12.5078 C65.8281,13.9401 65.3385,15.1432 64.3594,16.1172 C63.3802,17.0911 62.1745,17.5781 60.7422,17.5781 C59.3099,17.5781 58.1068,17.0911 57.1328,16.1172 M23.25,-26.2656 C31.9063,-26.2656 39,-24.0885 44.5313,-19.7344 C49.875,-15.1719 52.5469,-8.98438 52.5469,-1.17188 C52.5469,4.09896 51.5052,8.91667 49.4219,13.2813 C47.4635,17.8438 44.8906,21.8802 41.7031,25.3906 C38.4427,28.974 34.5052,32.3594 29.8906,35.5469 C25.3906,38.6719 20.7656,41.474 16.0156,43.9531 C6.31771,48.8281 0.979167,51.2656 0,51.2656 C-0.84375,51.2656 -1.26563,50.8438 -1.26563,50 C-1.26563,49.6771 -1.13542,49.3854 -0.875,49.125 C2.44792,47.1667 6.51563,44.6615 11.3281,41.6094 C14.4531,39.5885 18.099,36.7865 22.2656,33.2031 C26.3073,29.8177 29.4323,26.6302 31.6406,23.6406 C33.9219,20.7031 36.0052,17.0573 37.8906,12.7031 C39.5156,8.33854 40.3281,4.03646 40.3281,-0.203125 C40.3281,-6.51563 38.7656,-12.0156 35.6406,-16.7031 C32.5156,-21.3906 28.3854,-23.7344 23.25,-23.7344 C19.6042,-23.7344 16.4792,-22.5625 13.875,-20.2188 C11.0729,-17.8125 9.05208,-14.7865 7.8125,-11.1406 C9.05208,-11.6615 10.1927,-11.9219 11.2344,-11.9219 C13.9635,-11.9219 16.3073,-10.9427 18.2656,-8.98438 C20.2135,-6.90104 21.1875,-4.52604 21.1875,-1.85938 C21.1875,0.942708 20.2448,3.45313 18.3594,5.67188 C16.3385,7.68229 13.9635,8.6875 11.2344,8.6875 C8.30729,8.6875 5.67188,7.68229 3.32813,5.67188 C1.10938,3.45313 0,0.942708 0,-1.85938 C0,-8.56771 2.28125,-14.2969 6.84375,-19.0469 C11.3333,-23.8594 16.8021,-26.2656 23.25,-26.2656"/>
<path class="Clef" transform="matrix(0.566929,0,0,0.566929,28.5015,205.512)" d="M36.3281,-7.32813 C33.3385,-7.32813 31.8438,-4.88542 31.8438,0 C31.8438,4.88542 33.3385,7.32813 36.3281,7.32813 C37.3073,7.32813 38.7396,6.80729 40.625,5.76563 C42.4479,4.72396 43.9479,4.20313 45.125,4.20313 C51.3021,4.20313 56.6719,6.1875 61.2344,10.1563 C65.724,14.2604 67.9688,19.2083 67.9688,25 C67.9688,41.6667 59.1458,50 41.5,50 C37.2708,50 33.6615,48.6354 30.6719,45.9063 C27.7344,43.1667 26.2656,39.8125 26.2656,35.8438 C26.2656,33.6979 27.0156,31.875 28.5156,30.375 C30.0156,28.875 31.8073,28.125 33.8906,28.125 C35.974,28.125 37.763,28.875 39.2578,30.375 C40.7526,31.875 41.5,33.6979 41.5,35.8438 C41.5,37.1458 40.6875,38.4167 39.0625,39.6563 C37.4375,40.8229 36.625,42.0573 36.625,43.3594 C36.625,44.5365 37.1146,45.4479 38.0938,46.0938 C39,46.8125 40.1354,47.1719 41.5,47.1719 C46.9063,47.1719 50.5859,45.3151 52.5391,41.6016 C54.4922,37.888 55.4688,32.3542 55.4688,25 C55.4688,19.3333 54.8854,15.0365 53.7188,12.1094 C52.4792,8.72396 49.6146,7.03125 45.125,7.03125 C41.7396,7.03125 38.875,8.49479 36.5313,11.4219 C34.3125,14.4219 33.2031,17.9063 33.2031,21.875 C33.2031,22.8542 32.7474,23.3438 31.8359,23.3438 C30.9245,23.3438 30.4688,22.8542 30.4688,21.875 C30.4688,14.125 27.6719,7.45313 22.0781,1.85938 L22.0781,49.0313 C22.0781,49.6771 21.75,50 21.0938,50 L19.0469,50 C18.3281,50 17.9688,49.6771 17.9688,49.0313 L17.9688,-49.0313 C17.9688,-49.6771 18.3281,-50 19.0469,-50 L21.0938,-50 C21.75,-50 22.0781,-49.6771 22.0781,-49.0313 L22.0781,-1.85938 C27.6719,-7.45313 30.4688,-14.125 30.4688,-21.875 C30.4688,-22.8542 30.9245,-23.3438 31.8359,-23.3438 C32.7474,-23.3438 33.2031,-22.8542 33.2031,-21.875 C33.2031,-17.9063 34.3125,-14.4219 36.5313,-11.4219 C38.875,-8.49479 41.7396,-7.03125 45.125,-7.03125 C49.6146,-7.03125 52.4792,-8.72396 53.7188,-12.1094 C54.8854,-15.0365 55.4688,-19.3333 55.4688,-25 C55.4688,-32.3542 54.4922,-37.888 52.5391,-41.6016 C50.5859,-45.3151 46.9063,-47.1719 41.5,-47.1719 C40.1354,-47.1719 39,-46.8125 38.0938,-46.0938 C37.1146,-45.5104 36.625,-44.599 36.625,-43.3594 C36.625,-42.0573 37.4375,-40.8229 39.0625,-39.6563 C40.6875,-38.4167 41.5,-37.1458 41.5,-35.8438 C41.5,-33.6979 40.7526,-31.875 39.2578,-30.375 C37.763,-28.875 35.974,-28.125 33.8906,-28.125 C31.8073,-28.125 30.0156,-28.875 28.5156,-30.375 C27.0156,-31.875 26.2656,-33.6979 26.2656,-35.8438 C26.2656,-39.8125 27.7344,-43.1667 30.6719,-45.9063 C33.6615,-48.6354 37.2708,-50 41.5,-50 C59.1458,-50 67.9688,-41.6667 67.9688,-25 C67.9688,-19.2083 65.724,-14.2604 61.2344,-10.1563 C56.6719,-6.1875 51.3021,-4.20313 45.125,-4.20313 C44.0104,-4.20313 42.5104,-4.72396 40.625,-5.76563 C38.7396,-6.80729 37.3073,-7.32813 36.3281,-7.32813 M12.8906,50 L0.984375,50 C0.328125,50 0,49.6771 0,49.0313 L0,-49.0313 C0,-49.6771 0.328125,-50 0.984375,-50 L12.8906,-50 C13.5469,-50 13.875,-49.6771 13.875,-49.0313 L13.875,49.0313 C13.875,49.6771 13.5469,50 12.8906,50"/>
<path class="Clef" transform="matrix(0.566929,0,0,0.566929,28.5015,85.0394)" d="M36.7188,-25.5938 C36.7188,-25.5938 36.9167,-25.5938 37.3125,-25.5938 C37.5729,-25.6563 37.7969,-25.6875 37.9844,-25.6875 C45.276,-25.6875 51.2656,-23.1146 55.9531,-17.9688 C60.6406,-12.8958 62.9844,-6.97396 62.9844,-0.203125 C62.9844,8.20313 59.5052,15.0417 52.5469,20.3125 C50.724,21.75 48.3438,22.9219 45.4063,23.8281 C45.7396,28.0573 45.9063,31.474 45.9063,34.0781 C45.9063,34.599 45.8385,36.4896 45.7031,39.75 C45.4427,45.8021 43.3594,51.0417 39.4531,55.4688 C35.6823,59.8333 30.9948,62.0156 25.3906,62.0156 C20.1198,62.0156 15.6302,60.1615 11.9219,56.4531 C8.20313,52.6719 6.34375,48.1146 6.34375,42.7813 C6.34375,39.9792 7.42188,37.599 9.57813,35.6406 C11.7865,33.6927 14.3542,32.7188 17.2813,32.7188 C19.8854,32.7188 22.0677,33.7292 23.8281,35.75 C25.651,37.6354 26.5625,39.9792 26.5625,42.7813 C26.5625,45.3125 25.651,47.4896 23.8281,49.3125 C22.0052,51.1354 19.8229,52.0469 17.2813,52.0469 C16.2396,52.0469 15.2344,51.8542 14.2656,51.4688 C17.1302,55.6979 20.9375,57.8125 25.6875,57.8125 C30.1771,57.8125 33.8542,55.9896 36.7188,52.3438 C39.7188,48.5729 41.349,44.1771 41.6094,39.1563 C41.7344,36.0313 41.7969,34.2448 41.7969,33.7969 C41.7969,30.151 41.6667,27.1563 41.4063,24.8125 C38.1563,25.3333 35.2604,25.5938 32.7188,25.5938 C23.6667,25.5938 15.9531,22.0104 9.57813,14.8438 C3.32813,7.61458 0.203125,-0.979167 0.203125,-10.9375 C0.203125,-13.0208 0.395833,-15.1354 0.78125,-17.2813 C1.17708,-19.0417 1.66667,-20.9635 2.25,-23.0469 C2.57292,-24.224 3.45313,-26.1146 4.89063,-28.7188 C5.41146,-29.5 5.9974,-30.4766 6.64844,-31.6484 C7.29948,-32.8203 7.75521,-33.599 8.01563,-33.9844 C8.66146,-35.2865 9.92708,-37.0469 11.8125,-39.2656 C12.3333,-39.849 12.8724,-40.4974 13.4297,-41.2109 C13.987,-41.9245 14.4609,-42.5104 14.8516,-42.9688 C15.2422,-43.4271 15.5339,-43.7865 15.7266,-44.0469 C15.9193,-44.3073 17.3854,-46.0313 20.125,-49.2188 C20.7708,-49.875 21.4036,-50.5755 22.0234,-51.3203 C22.6432,-52.0651 23.1484,-52.651 23.5391,-53.0781 C23.9297,-53.5052 24.224,-53.8125 24.4219,-54 C22.0781,-61.75 20.6094,-67.9375 20.0156,-72.5625 C19.5677,-76.2708 19.3438,-81.349 19.3438,-87.7969 C19.3438,-93.4635 20.6458,-98.7708 23.25,-103.719 C25.7813,-108.854 29.3281,-113.052 33.8906,-116.313 C34.151,-116.51 34.474,-116.609 34.8594,-116.609 C35.3177,-116.609 35.6458,-116.51 35.8438,-116.313 C39.3542,-112.083 42.3802,-106.583 44.9219,-99.8125 C47.526,-93.0417 48.8281,-86.8854 48.8281,-81.3438 C48.8281,-75.0938 47.3333,-69.2344 44.3438,-63.7656 C40.9583,-57.974 36.5938,-51.9844 31.25,-45.7969 C32.6146,-41.5052 34.4375,-34.7708 36.7188,-25.5938 M45.0156,19.8281 C48.401,18.5885 51.0417,16.474 52.9375,13.4844 C55.0208,10.6198 56.0625,7.39583 56.0625,3.8125 C56.0625,-0.8125 54.5,-4.91667 51.375,-8.5 C48.1771,-12.2083 44.1042,-14.2917 39.1563,-14.75 C41.9583,-1.01042 43.9115,10.5156 45.0156,19.8281 M7.23438,-2.73438 C7.23438,3.71354 9.83854,9.38021 15.0469,14.2656 C20.3802,19.0156 26.3698,21.3906 33.0156,21.3906 C35.7448,21.3906 38.4115,21.1927 41.0156,20.7969 C39.974,10.901 37.9219,-0.947917 34.8594,-14.75 C31.151,-14.3542 28.1927,-13.0521 25.9844,-10.8438 C23.8281,-8.5625 22.75,-5.98958 22.75,-3.125 C22.75,1.82292 25.3906,5.82813 30.6719,8.89063 C31.1198,9.34896 31.3438,9.83854 31.3438,10.3594 C31.3438,10.8802 31.1198,11.3646 30.6719,11.8125 C30.276,12.2708 29.7865,12.5 29.2031,12.5 C29.1406,12.5 28.849,12.4375 28.3281,12.3125 C24.6094,10.2917 21.7448,7.6875 19.7344,4.5 C17.8385,1.10417 16.8906,-2.31771 16.8906,-5.76563 C16.8906,-10.2552 18.2917,-14.3229 21.0938,-17.9688 C24.0208,-21.6146 27.8281,-23.9583 32.5156,-25 C30.6927,-32.2917 29.1979,-37.9896 28.0313,-42.0938 C26.9896,-40.9167 25.737,-39.5 24.2734,-37.8438 C22.8099,-36.1875 21.9479,-35.1927 21.6875,-34.8594 C19.3438,-31.8073 17.5521,-29.4323 16.3125,-27.7344 C14.0938,-24.6719 12.4635,-22.0365 11.4219,-19.8281 C10.3177,-17.349 9.34375,-14.6458 8.5,-11.7188 C7.65625,-8.91667 7.23438,-5.92188 7.23438,-2.73438 M39.8438,-102.047 C34.9583,-99.6406 31.1198,-96.1927 28.3281,-91.7031 C25.4635,-87.0781 24.0313,-82.099 24.0313,-76.7656 C24.0313,-72.0781 25.2031,-65.7604 27.5469,-57.8125 C32.2344,-63.4792 35.75,-68.7188 38.0938,-73.5313 C40.5625,-78.6146 41.7969,-83.9219 41.7969,-89.4531 C41.7969,-93.6198 41.1458,-97.8177 39.8438,-102.047"/>
</svg>
