<?xml version="1.0" encoding="UTF-8" standalone="no"?>
<svg width="637.794px" height="765.353px" viewBox="0 0 637.794 765.353"
 xmlns="http://www.w3.org/2000/svg" xmlns:xlink="http://www.w3.org/1999/xlink" version="1.2" baseProfile="tiny">
<title>harmonicmajor (57)</title>
<desc>Generated by MuseScore 3.4.2</desc>
<polyline class="StaffLines" fill="none" stroke="#000000" stroke-width="1.13" stroke-linejoin="bevel" points="14.1732,37.7628 623.621,37.7628"/>
<polyline class="StaffLines" fill="none" stroke="#000000" stroke-width="1.13" stroke-linejoin="bevel" points="14.1732,51.936 623.621,51.936"/>
<polyline class="StaffLines" fill="none" stroke="#000000" stroke-width="1.13" stroke-linejoin="bevel" points="14.1732,66.1093 623.621,66.1093"/>
<polyline class="StaffLines" fill="none" stroke="#000000" stroke-width="1.13" stroke-linejoin="bevel" points="14.1732,80.2825 623.621,80.2825"/>
<polyline class="StaffLines" fill="none" stroke="#000000" stroke-width="1.13" stroke-linejoin="bevel" points="14.1732,94.4557 623.621,94.4557"/>
<polyline class="StaffLines" fill="none" stroke="#000000" stroke-width="1.13" stroke-linejoin="bevel" points="14.1732,172.408 623.621,172.408"/>
<polyline class="StaffLines" fill="none" stroke="#000000" stroke-width="1.13" stroke-linejoin="bevel" points="14.1732,186.582 623.621,186.582"/>
<polyline class="StaffLines" fill="none" stroke="#000000" stroke-width="1.13" stroke-linejoin="bevel" points="14.1732,200.755 623.621,200.755"/>
<polyline class="StaffLines" fill="none" stroke="#000000" stroke-width="1.13" stroke-linejoin="bevel" points="14.1732,214.928 623.621,214.928"/>
<polyline class="StaffLines" fill="none" stroke="#000000" stroke-width="1.13" stroke-linejoin="bevel" points="14.1732,229.101 623.621,229.101"/>
<polyline class="StaffLines" fill="none" stroke="#000000" stroke-width="1.13" stroke-linejoin="bevel" points="14.1732,307.054 623.621,307.054"/>
<polyline class="StaffLines" fill="none" stroke="#000000" stroke-width="1.13" stroke-linejoin="bevel" points="14.1732,321.227 623.621,321.227"/>
<polyline class="StaffLines" fill="none" stroke="#000000" stroke-width="1.13" stroke-linejoin="bevel" points="14.1732,335.401 623.621,335.401"/>
<polyline class="StaffLines" fill="none" stroke="#000000" stroke-width="1.13" stroke-linejoin="bevel" points="14.1732,349.574 623.621,349.574"/>
<polyline class="StaffLines" fill="none" stroke="#000000" stroke-width="1.13" stroke-linejoin="bevel" points="14.1732,363.747 623.621,363.747"/>
<polyline class="StaffLines" fill="none" stroke="#000000" stroke-width="1.13" stroke-linejoin="bevel" points="14.1732,441.7 623.621,441.7"/>
<polyline class="StaffLines" fill="none" stroke="#000000" stroke-width="1.13" stroke-linejoin="bevel" points="14.1732,466.503 623.621,466.503"/>
<polyline class="StaffLines" fill="none" stroke="#000000" stroke-width="1.13" stroke-linejoin="bevel" points="14.1732,491.306 623.621,491.306"/>
<polyline class="StaffLines" fill="none" stroke="#000000" stroke-width="1.13" stroke-linejoin="bevel" points="14.1732,516.109 623.621,516.109"/>
<polyline class="StaffLines" fill="none" stroke="#000000" stroke-width="1.13" stroke-linejoin="bevel" points="14.1732,594.062 623.621,594.062"/>
<polyline class="StaffLines" fill="none" stroke="#000000" stroke-width="1.13" stroke-linejoin="bevel" points="14.1732,618.865 623.621,618.865"/>
<polyline class="StaffLines" fill="none" stroke="#000000" stroke-width="1.13" stroke-linejoin="bevel" points="14.1732,643.668 623.621,643.668"/>
<polyline class="StaffLines" fill="none" stroke="#000000" stroke-width="1.13" stroke-linejoin="bevel" points="14.1732,668.471 623.621,668.471"/>
<polyline class="StaffLines" fill="none" stroke="#000000" stroke-width="1.13" stroke-linejoin="bevel" points="14.1732,693.275 623.621,693.275"/>
<polyline class="StaffLines" fill="none" stroke="#000000" stroke-width="1.13" stroke-linejoin="bevel" points="14.1732,718.078 623.621,718.078"/>
<path class="Accidental" transform="matrix(0.566929,0,0,0.566929,152.664,363.747)" d="M4.59375,-4.10938 L4.59375,3.60938 C4.59375,6.34896 4.72396,8.53125 4.98438,10.1563 C7.13021,8.33333 8.66146,6.96875 9.57813,6.0625 C10.6198,5.02083 11.6615,3.58594 12.7031,1.75781 C13.7448,-0.0703125 14.2656,-1.89583 14.2656,-3.71875 C14.2656,-5.54167 13.875,-7.10417 13.0938,-8.40625 C12.3125,-9.70833 11.2708,-10.3594 9.96875,-10.3594 C8.40625,-10.3594 7.10417,-9.77083 6.0625,-8.59375 C5.08333,-7.29167 4.59375,-5.79688 4.59375,-4.10938 M0.484375,13.7656 L-0.78125,-45.7031 C0.135417,-46.224 1.04948,-46.4844 1.96094,-46.4844 C2.8724,-46.4844 3.78125,-46.224 4.6875,-45.7031 L3.90625,-11.2344 C6.57292,-13.5156 9.63542,-14.6563 13.0938,-14.6563 C15.625,-14.6563 17.737,-13.6146 19.4297,-11.5313 C21.1224,-9.44792 21.9688,-7.06771 21.9688,-4.39063 C21.9688,-2.70313 21.4167,-0.911458 20.3125,0.984375 C19.2708,2.73438 18.1667,4.09896 17,5.07813 C16.3438,5.59896 14.6823,6.90104 12.0156,8.98438 C11.2344,9.56771 10.3073,10.25 9.23438,11.0313 C8.16146,11.8125 7.49479,12.3021 7.23438,12.5 C6.77604,12.7604 6.34896,13.2813 5.95313,14.0625 C5.50521,14.7188 4.98438,15.2708 4.39063,15.7188 C3.94271,16.1146 3.39323,16.3125 2.74219,16.3125 C2.09115,16.3125 1.56771,16.0833 1.17188,15.625 C0.713542,15.1667 0.484375,14.5469 0.484375,13.7656"/>
<path class="Accidental" transform="matrix(0.566929,0,0,0.566929,217.378,356.66)" d="M4.59375,-4.10938 L4.59375,3.60938 C4.59375,6.34896 4.72396,8.53125 4.98438,10.1563 C7.13021,8.33333 8.66146,6.96875 9.57813,6.0625 C10.6198,5.02083 11.6615,3.58594 12.7031,1.75781 C13.7448,-0.0703125 14.2656,-1.89583 14.2656,-3.71875 C14.2656,-5.54167 13.875,-7.10417 13.0938,-8.40625 C12.3125,-9.70833 11.2708,-10.3594 9.96875,-10.3594 C8.40625,-10.3594 7.10417,-9.77083 6.0625,-8.59375 C5.08333,-7.29167 4.59375,-5.79688 4.59375,-4.10938 M0.484375,13.7656 L-0.78125,-45.7031 C0.135417,-46.224 1.04948,-46.4844 1.96094,-46.4844 C2.8724,-46.4844 3.78125,-46.224 4.6875,-45.7031 L3.90625,-11.2344 C6.57292,-13.5156 9.63542,-14.6563 13.0938,-14.6563 C15.625,-14.6563 17.737,-13.6146 19.4297,-11.5313 C21.1224,-9.44792 21.9688,-7.06771 21.9688,-4.39063 C21.9688,-2.70313 21.4167,-0.911458 20.3125,0.984375 C19.2708,2.73438 18.1667,4.09896 17,5.07813 C16.3438,5.59896 14.6823,6.90104 12.0156,8.98438 C11.2344,9.56771 10.3073,10.25 9.23438,11.0313 C8.16146,11.8125 7.49479,12.3021 7.23438,12.5 C6.77604,12.7604 6.34896,13.2813 5.95313,14.0625 C5.50521,14.7188 4.98438,15.2708 4.39063,15.7188 C3.94271,16.1146 3.39323,16.3125 2.74219,16.3125 C2.09115,16.3125 1.56771,16.0833 1.17188,15.625 C0.713542,15.1667 0.484375,14.5469 0.484375,13.7656"/>
<path class="Accidental" transform="matrix(0.566929,0,0,0.566929,282.093,349.574)" d="M4.59375,-4.10938 L4.59375,3.60938 C4.59375,6.34896 4.72396,8.53125 4.98438,10.1563 C7.13021,8.33333 8.66146,6.96875 9.57813,6.0625 C10.6198,5.02083 11.6615,3.58594 12.7031,1.75781 C13.7448,-0.0703125 14.2656,-1.89583 14.2656,-3.71875 C14.2656,-5.54167 13.875,-7.10417 13.0938,-8.40625 C12.3125,-9.70833 11.2708,-10.3594 9.96875,-10.3594 C8.40625,-10.3594 7.10417,-9.77083 6.0625,-8.59375 C5.08333,-7.29167 4.59375,-5.79688 4.59375,-4.10938 M0.484375,13.7656 L-0.78125,-45.7031 C0.135417,-46.224 1.04948,-46.4844 1.96094,-46.4844 C2.8724,-46.4844 3.78125,-46.224 4.6875,-45.7031 L3.90625,-11.2344 C6.57292,-13.5156 9.63542,-14.6563 13.0938,-14.6563 C15.625,-14.6563 17.737,-13.6146 19.4297,-11.5313 C21.1224,-9.44792 21.9688,-7.06771 21.9688,-4.39063 C21.9688,-2.70313 21.4167,-0.911458 20.3125,0.984375 C19.2708,2.73438 18.1667,4.09896 17,5.07813 C16.3438,5.59896 14.6823,6.90104 12.0156,8.98438 C11.2344,9.56771 10.3073,10.25 9.23438,11.0313 C8.16146,11.8125 7.49479,12.3021 7.23438,12.5 C6.77604,12.7604 6.34896,13.2813 5.95313,14.0625 C5.50521,14.7188 4.98438,15.2708 4.39063,15.7188 C3.94271,16.1146 3.39323,16.3125 2.74219,16.3125 C2.09115,16.3125 1.56771,16.0833 1.17188,15.625 C0.713542,15.1667 0.484375,14.5469 0.484375,13.7656"/>
<path class="Accidental" transform="matrix(0.566929,0,0,0.566929,346.807,342.487)" d="M4.59375,-4.10938 L4.59375,3.60938 C4.59375,6.34896 4.72396,8.53125 4.98438,10.1563 C7.13021,8.33333 8.66146,6.96875 9.57813,6.0625 C10.6198,5.02083 11.6615,3.58594 12.7031,1.75781 C13.7448,-0.0703125 14.2656,-1.89583 14.2656,-3.71875 C14.2656,-5.54167 13.875,-7.10417 13.0938,-8.40625 C12.3125,-9.70833 11.2708,-10.3594 9.96875,-10.3594 C8.40625,-10.3594 7.10417,-9.77083 6.0625,-8.59375 C5.08333,-7.29167 4.59375,-5.79688 4.59375,-4.10938 M0.484375,13.7656 L-0.78125,-45.7031 C0.135417,-46.224 1.04948,-46.4844 1.96094,-46.4844 C2.8724,-46.4844 3.78125,-46.224 4.6875,-45.7031 L3.90625,-11.2344 C6.57292,-13.5156 9.63542,-14.6563 13.0938,-14.6563 C15.625,-14.6563 17.737,-13.6146 19.4297,-11.5313 C21.1224,-9.44792 21.9688,-7.06771 21.9688,-4.39063 C21.9688,-2.70313 21.4167,-0.911458 20.3125,0.984375 C19.2708,2.73438 18.1667,4.09896 17,5.07813 C16.3438,5.59896 14.6823,6.90104 12.0156,8.98438 C11.2344,9.56771 10.3073,10.25 9.23438,11.0313 C8.16146,11.8125 7.49479,12.3021 7.23438,12.5 C6.77604,12.7604 6.34896,13.2813 5.95313,14.0625 C5.50521,14.7188 4.98438,15.2708 4.39063,15.7188 C3.94271,16.1146 3.39323,16.3125 2.74219,16.3125 C2.09115,16.3125 1.56771,16.0833 1.17188,15.625 C0.713542,15.1667 0.484375,14.5469 0.484375,13.7656"/>
<path class="Accidental" transform="matrix(0.566929,0,0,0.566929,411.522,335.401)" d="M4.59375,-4.10938 L4.59375,3.60938 C4.59375,6.34896 4.72396,8.53125 4.98438,10.1563 C7.13021,8.33333 8.66146,6.96875 9.57813,6.0625 C10.6198,5.02083 11.6615,3.58594 12.7031,1.75781 C13.7448,-0.0703125 14.2656,-1.89583 14.2656,-3.71875 C14.2656,-5.54167 13.875,-7.10417 13.0938,-8.40625 C12.3125,-9.70833 11.2708,-10.3594 9.96875,-10.3594 C8.40625,-10.3594 7.10417,-9.77083 6.0625,-8.59375 C5.08333,-7.29167 4.59375,-5.79688 4.59375,-4.10938 M0.484375,13.7656 L-0.78125,-45.7031 C0.135417,-46.224 1.04948,-46.4844 1.96094,-46.4844 C2.8724,-46.4844 3.78125,-46.224 4.6875,-45.7031 L3.90625,-11.2344 C6.57292,-13.5156 9.63542,-14.6563 13.0938,-14.6563 C15.625,-14.6563 17.737,-13.6146 19.4297,-11.5313 C21.1224,-9.44792 21.9688,-7.06771 21.9688,-4.39063 C21.9688,-2.70313 21.4167,-0.911458 20.3125,0.984375 C19.2708,2.73438 18.1667,4.09896 17,5.07813 C16.3438,5.59896 14.6823,6.90104 12.0156,8.98438 C11.2344,9.56771 10.3073,10.25 9.23438,11.0313 C8.16146,11.8125 7.49479,12.3021 7.23438,12.5 C6.77604,12.7604 6.34896,13.2813 5.95313,14.0625 C5.50521,14.7188 4.98438,15.2708 4.39063,15.7188 C3.94271,16.1146 3.39323,16.3125 2.74219,16.3125 C2.09115,16.3125 1.56771,16.0833 1.17188,15.625 C0.713542,15.1667 0.484375,14.5469 0.484375,13.7656"/>
<path class="Accidental" transform="matrix(0.566929,0,0,0.566929,467.09,328.314)" d="M21,-4.10938 L20.7969,3.60938 C20.7969,6.34896 20.9271,8.53125 21.1875,10.1563 C26.9896,5.27083 29.8906,0.645833 29.8906,-3.71875 C29.8906,-5.60417 29.5625,-7.16667 28.9063,-8.40625 C28.1875,-9.70833 27.1771,-10.3594 25.875,-10.3594 C24.3854,-10.3594 23.2135,-9.77083 22.3594,-8.59375 C21.5781,-7.42708 21.125,-5.93229 21,-4.10938 M16.7031,13.7656 L16.4063,3.21875 C14.9792,4.91667 13.1563,6.70833 10.9375,8.59375 C8.65625,10.6146 7.22396,11.9167 6.64063,12.5 C6.38021,12.7604 6.05729,13.2813 5.67188,14.0625 C5.01563,14.9792 4.55729,15.5313 4.29688,15.7188 C3.77604,16.1146 3.25521,16.3125 2.73438,16.3125 C2.08854,16.3125 1.56771,16.0833 1.17188,15.625 C0.713542,15.1667 0.484375,14.5469 0.484375,13.7656 L-0.78125,-45.7031 C0.135417,-46.224 1.04948,-46.4844 1.96094,-46.4844 C2.8724,-46.4844 3.78125,-46.224 4.6875,-45.7031 L3.90625,-11.2344 C5.79167,-13.5156 8.13542,-14.6563 10.9375,-14.6563 C12.9583,-14.6563 14.6823,-13.9375 16.1094,-12.5 L15.4375,-45.7031 C16.3438,-46.224 17.2526,-46.4844 18.1641,-46.4844 C19.0755,-46.4844 19.9896,-46.224 20.9063,-45.7031 L20.2188,-11.2344 C22.8854,-13.5156 25.7813,-14.6563 28.9063,-14.6563 C31.5104,-14.6563 33.724,-13.6458 35.5469,-11.625 C37.3073,-9.60417 38.1875,-7.22917 38.1875,-4.5 C38.1875,-2.67708 37.6354,-0.848958 36.5313,0.984375 C35.3542,2.73438 34.2448,4.06771 33.2031,4.98438 C32.099,5.89063 30.4063,7.19271 28.125,8.89063 C26.3021,10.2552 24.7396,11.4583 23.4375,12.5 C23.2396,12.6354 22.849,13.125 22.2656,13.9688 C21.8073,14.6146 21.2865,15.1667 20.7031,15.625 C20.2448,16.0833 19.6927,16.3125 19.0469,16.3125 C18.4635,16.3125 17.9115,16.0521 17.3906,15.5313 C16.9323,15.0729 16.7031,14.4844 16.7031,13.7656 M3.60938,3.60938 C3.60938,5.82813 3.77604,8.07813 4.10938,10.3594 C8.79688,5.79688 11.1406,1.10417 11.1406,-3.71875 C11.1406,-8.14583 10.0313,-10.3594 7.8125,-10.3594 C5.20833,-10.3594 3.875,-8.27604 3.8125,-4.10938 L3.60938,3.60938 "/>
<path class="Accidental" transform="matrix(0.566929,0,0,0.566929,152.664,222.015)" d="M4.59375,-4.10938 L4.59375,3.60938 C4.59375,6.34896 4.72396,8.53125 4.98438,10.1563 C7.13021,8.33333 8.66146,6.96875 9.57813,6.0625 C10.6198,5.02083 11.6615,3.58594 12.7031,1.75781 C13.7448,-0.0703125 14.2656,-1.89583 14.2656,-3.71875 C14.2656,-5.54167 13.875,-7.10417 13.0938,-8.40625 C12.3125,-9.70833 11.2708,-10.3594 9.96875,-10.3594 C8.40625,-10.3594 7.10417,-9.77083 6.0625,-8.59375 C5.08333,-7.29167 4.59375,-5.79688 4.59375,-4.10938 M0.484375,13.7656 L-0.78125,-45.7031 C0.135417,-46.224 1.04948,-46.4844 1.96094,-46.4844 C2.8724,-46.4844 3.78125,-46.224 4.6875,-45.7031 L3.90625,-11.2344 C6.57292,-13.5156 9.63542,-14.6563 13.0938,-14.6563 C15.625,-14.6563 17.737,-13.6146 19.4297,-11.5313 C21.1224,-9.44792 21.9688,-7.06771 21.9688,-4.39063 C21.9688,-2.70313 21.4167,-0.911458 20.3125,0.984375 C19.2708,2.73438 18.1667,4.09896 17,5.07813 C16.3438,5.59896 14.6823,6.90104 12.0156,8.98438 C11.2344,9.56771 10.3073,10.25 9.23438,11.0313 C8.16146,11.8125 7.49479,12.3021 7.23438,12.5 C6.77604,12.7604 6.34896,13.2813 5.95313,14.0625 C5.50521,14.7188 4.98438,15.2708 4.39063,15.7188 C3.94271,16.1146 3.39323,16.3125 2.74219,16.3125 C2.09115,16.3125 1.56771,16.0833 1.17188,15.625 C0.713542,15.1667 0.484375,14.5469 0.484375,13.7656"/>
<path class="Accidental" transform="matrix(0.566929,0,0,0.566929,217.378,214.928)" d="M4.59375,-4.10938 L4.59375,3.60938 C4.59375,6.34896 4.72396,8.53125 4.98438,10.1563 C7.13021,8.33333 8.66146,6.96875 9.57813,6.0625 C10.6198,5.02083 11.6615,3.58594 12.7031,1.75781 C13.7448,-0.0703125 14.2656,-1.89583 14.2656,-3.71875 C14.2656,-5.54167 13.875,-7.10417 13.0938,-8.40625 C12.3125,-9.70833 11.2708,-10.3594 9.96875,-10.3594 C8.40625,-10.3594 7.10417,-9.77083 6.0625,-8.59375 C5.08333,-7.29167 4.59375,-5.79688 4.59375,-4.10938 M0.484375,13.7656 L-0.78125,-45.7031 C0.135417,-46.224 1.04948,-46.4844 1.96094,-46.4844 C2.8724,-46.4844 3.78125,-46.224 4.6875,-45.7031 L3.90625,-11.2344 C6.57292,-13.5156 9.63542,-14.6563 13.0938,-14.6563 C15.625,-14.6563 17.737,-13.6146 19.4297,-11.5313 C21.1224,-9.44792 21.9688,-7.06771 21.9688,-4.39063 C21.9688,-2.70313 21.4167,-0.911458 20.3125,0.984375 C19.2708,2.73438 18.1667,4.09896 17,5.07813 C16.3438,5.59896 14.6823,6.90104 12.0156,8.98438 C11.2344,9.56771 10.3073,10.25 9.23438,11.0313 C8.16146,11.8125 7.49479,12.3021 7.23438,12.5 C6.77604,12.7604 6.34896,13.2813 5.95313,14.0625 C5.50521,14.7188 4.98438,15.2708 4.39063,15.7188 C3.94271,16.1146 3.39323,16.3125 2.74219,16.3125 C2.09115,16.3125 1.56771,16.0833 1.17188,15.625 C0.713542,15.1667 0.484375,14.5469 0.484375,13.7656"/>
<path class="Accidental" transform="matrix(0.566929,0,0,0.566929,282.093,207.842)" d="M4.59375,-4.10938 L4.59375,3.60938 C4.59375,6.34896 4.72396,8.53125 4.98438,10.1563 C7.13021,8.33333 8.66146,6.96875 9.57813,6.0625 C10.6198,5.02083 11.6615,3.58594 12.7031,1.75781 C13.7448,-0.0703125 14.2656,-1.89583 14.2656,-3.71875 C14.2656,-5.54167 13.875,-7.10417 13.0938,-8.40625 C12.3125,-9.70833 11.2708,-10.3594 9.96875,-10.3594 C8.40625,-10.3594 7.10417,-9.77083 6.0625,-8.59375 C5.08333,-7.29167 4.59375,-5.79688 4.59375,-4.10938 M0.484375,13.7656 L-0.78125,-45.7031 C0.135417,-46.224 1.04948,-46.4844 1.96094,-46.4844 C2.8724,-46.4844 3.78125,-46.224 4.6875,-45.7031 L3.90625,-11.2344 C6.57292,-13.5156 9.63542,-14.6563 13.0938,-14.6563 C15.625,-14.6563 17.737,-13.6146 19.4297,-11.5313 C21.1224,-9.44792 21.9688,-7.06771 21.9688,-4.39063 C21.9688,-2.70313 21.4167,-0.911458 20.3125,0.984375 C19.2708,2.73438 18.1667,4.09896 17,5.07813 C16.3438,5.59896 14.6823,6.90104 12.0156,8.98438 C11.2344,9.56771 10.3073,10.25 9.23438,11.0313 C8.16146,11.8125 7.49479,12.3021 7.23438,12.5 C6.77604,12.7604 6.34896,13.2813 5.95313,14.0625 C5.50521,14.7188 4.98438,15.2708 4.39063,15.7188 C3.94271,16.1146 3.39323,16.3125 2.74219,16.3125 C2.09115,16.3125 1.56771,16.0833 1.17188,15.625 C0.713542,15.1667 0.484375,14.5469 0.484375,13.7656"/>
<path class="Accidental" transform="matrix(0.566929,0,0,0.566929,346.807,200.755)" d="M4.59375,-4.10938 L4.59375,3.60938 C4.59375,6.34896 4.72396,8.53125 4.98438,10.1563 C7.13021,8.33333 8.66146,6.96875 9.57813,6.0625 C10.6198,5.02083 11.6615,3.58594 12.7031,1.75781 C13.7448,-0.0703125 14.2656,-1.89583 14.2656,-3.71875 C14.2656,-5.54167 13.875,-7.10417 13.0938,-8.40625 C12.3125,-9.70833 11.2708,-10.3594 9.96875,-10.3594 C8.40625,-10.3594 7.10417,-9.77083 6.0625,-8.59375 C5.08333,-7.29167 4.59375,-5.79688 4.59375,-4.10938 M0.484375,13.7656 L-0.78125,-45.7031 C0.135417,-46.224 1.04948,-46.4844 1.96094,-46.4844 C2.8724,-46.4844 3.78125,-46.224 4.6875,-45.7031 L3.90625,-11.2344 C6.57292,-13.5156 9.63542,-14.6563 13.0938,-14.6563 C15.625,-14.6563 17.737,-13.6146 19.4297,-11.5313 C21.1224,-9.44792 21.9688,-7.06771 21.9688,-4.39063 C21.9688,-2.70313 21.4167,-0.911458 20.3125,0.984375 C19.2708,2.73438 18.1667,4.09896 17,5.07813 C16.3438,5.59896 14.6823,6.90104 12.0156,8.98438 C11.2344,9.56771 10.3073,10.25 9.23438,11.0313 C8.16146,11.8125 7.49479,12.3021 7.23438,12.5 C6.77604,12.7604 6.34896,13.2813 5.95313,14.0625 C5.50521,14.7188 4.98438,15.2708 4.39063,15.7188 C3.94271,16.1146 3.39323,16.3125 2.74219,16.3125 C2.09115,16.3125 1.56771,16.0833 1.17188,15.625 C0.713542,15.1667 0.484375,14.5469 0.484375,13.7656"/>
<path class="Accidental" transform="matrix(0.566929,0,0,0.566929,411.522,193.668)" d="M4.59375,-4.10938 L4.59375,3.60938 C4.59375,6.34896 4.72396,8.53125 4.98438,10.1563 C7.13021,8.33333 8.66146,6.96875 9.57813,6.0625 C10.6198,5.02083 11.6615,3.58594 12.7031,1.75781 C13.7448,-0.0703125 14.2656,-1.89583 14.2656,-3.71875 C14.2656,-5.54167 13.875,-7.10417 13.0938,-8.40625 C12.3125,-9.70833 11.2708,-10.3594 9.96875,-10.3594 C8.40625,-10.3594 7.10417,-9.77083 6.0625,-8.59375 C5.08333,-7.29167 4.59375,-5.79688 4.59375,-4.10938 M0.484375,13.7656 L-0.78125,-45.7031 C0.135417,-46.224 1.04948,-46.4844 1.96094,-46.4844 C2.8724,-46.4844 3.78125,-46.224 4.6875,-45.7031 L3.90625,-11.2344 C6.57292,-13.5156 9.63542,-14.6563 13.0938,-14.6563 C15.625,-14.6563 17.737,-13.6146 19.4297,-11.5313 C21.1224,-9.44792 21.9688,-7.06771 21.9688,-4.39063 C21.9688,-2.70313 21.4167,-0.911458 20.3125,0.984375 C19.2708,2.73438 18.1667,4.09896 17,5.07813 C16.3438,5.59896 14.6823,6.90104 12.0156,8.98438 C11.2344,9.56771 10.3073,10.25 9.23438,11.0313 C8.16146,11.8125 7.49479,12.3021 7.23438,12.5 C6.77604,12.7604 6.34896,13.2813 5.95313,14.0625 C5.50521,14.7188 4.98438,15.2708 4.39063,15.7188 C3.94271,16.1146 3.39323,16.3125 2.74219,16.3125 C2.09115,16.3125 1.56771,16.0833 1.17188,15.625 C0.713542,15.1667 0.484375,14.5469 0.484375,13.7656"/>
<path class="Accidental" transform="matrix(0.566929,0,0,0.566929,467.09,186.582)" d="M21,-4.10938 L20.7969,3.60938 C20.7969,6.34896 20.9271,8.53125 21.1875,10.1563 C26.9896,5.27083 29.8906,0.645833 29.8906,-3.71875 C29.8906,-5.60417 29.5625,-7.16667 28.9063,-8.40625 C28.1875,-9.70833 27.1771,-10.3594 25.875,-10.3594 C24.3854,-10.3594 23.2135,-9.77083 22.3594,-8.59375 C21.5781,-7.42708 21.125,-5.93229 21,-4.10938 M16.7031,13.7656 L16.4063,3.21875 C14.9792,4.91667 13.1563,6.70833 10.9375,8.59375 C8.65625,10.6146 7.22396,11.9167 6.64063,12.5 C6.38021,12.7604 6.05729,13.2813 5.67188,14.0625 C5.01563,14.9792 4.55729,15.5313 4.29688,15.7188 C3.77604,16.1146 3.25521,16.3125 2.73438,16.3125 C2.08854,16.3125 1.56771,16.0833 1.17188,15.625 C0.713542,15.1667 0.484375,14.5469 0.484375,13.7656 L-0.78125,-45.7031 C0.135417,-46.224 1.04948,-46.4844 1.96094,-46.4844 C2.8724,-46.4844 3.78125,-46.224 4.6875,-45.7031 L3.90625,-11.2344 C5.79167,-13.5156 8.13542,-14.6563 10.9375,-14.6563 C12.9583,-14.6563 14.6823,-13.9375 16.1094,-12.5 L15.4375,-45.7031 C16.3438,-46.224 17.2526,-46.4844 18.1641,-46.4844 C19.0755,-46.4844 19.9896,-46.224 20.9063,-45.7031 L20.2188,-11.2344 C22.8854,-13.5156 25.7813,-14.6563 28.9063,-14.6563 C31.5104,-14.6563 33.724,-13.6458 35.5469,-11.625 C37.3073,-9.60417 38.1875,-7.22917 38.1875,-4.5 C38.1875,-2.67708 37.6354,-0.848958 36.5313,0.984375 C35.3542,2.73438 34.2448,4.06771 33.2031,4.98438 C32.099,5.89063 30.4063,7.19271 28.125,8.89063 C26.3021,10.2552 24.7396,11.4583 23.4375,12.5 C23.2396,12.6354 22.849,13.125 22.2656,13.9688 C21.8073,14.6146 21.2865,15.1667 20.7031,15.625 C20.2448,16.0833 19.6927,16.3125 19.0469,16.3125 C18.4635,16.3125 17.9115,16.0521 17.3906,15.5313 C16.9323,15.0729 16.7031,14.4844 16.7031,13.7656 M3.60938,3.60938 C3.60938,5.82813 3.77604,8.07813 4.10938,10.3594 C8.79688,5.79688 11.1406,1.10417 11.1406,-3.71875 C11.1406,-8.14583 10.0313,-10.3594 7.8125,-10.3594 C5.20833,-10.3594 3.875,-8.27604 3.8125,-4.10938 L3.60938,3.60938 "/>
<path class="Accidental" transform="matrix(0.566929,0,0,0.566929,152.664,80.2825)" d="M4.59375,-4.10938 L4.59375,3.60938 C4.59375,6.34896 4.72396,8.53125 4.98438,10.1563 C7.13021,8.33333 8.66146,6.96875 9.57813,6.0625 C10.6198,5.02083 11.6615,3.58594 12.7031,1.75781 C13.7448,-0.0703125 14.2656,-1.89583 14.2656,-3.71875 C14.2656,-5.54167 13.875,-7.10417 13.0938,-8.40625 C12.3125,-9.70833 11.2708,-10.3594 9.96875,-10.3594 C8.40625,-10.3594 7.10417,-9.77083 6.0625,-8.59375 C5.08333,-7.29167 4.59375,-5.79688 4.59375,-4.10938 M0.484375,13.7656 L-0.78125,-45.7031 C0.135417,-46.224 1.04948,-46.4844 1.96094,-46.4844 C2.8724,-46.4844 3.78125,-46.224 4.6875,-45.7031 L3.90625,-11.2344 C6.57292,-13.5156 9.63542,-14.6563 13.0938,-14.6563 C15.625,-14.6563 17.737,-13.6146 19.4297,-11.5313 C21.1224,-9.44792 21.9688,-7.06771 21.9688,-4.39063 C21.9688,-2.70313 21.4167,-0.911458 20.3125,0.984375 C19.2708,2.73438 18.1667,4.09896 17,5.07813 C16.3438,5.59896 14.6823,6.90104 12.0156,8.98438 C11.2344,9.56771 10.3073,10.25 9.23438,11.0313 C8.16146,11.8125 7.49479,12.3021 7.23438,12.5 C6.77604,12.7604 6.34896,13.2813 5.95313,14.0625 C5.50521,14.7188 4.98438,15.2708 4.39063,15.7188 C3.94271,16.1146 3.39323,16.3125 2.74219,16.3125 C2.09115,16.3125 1.56771,16.0833 1.17188,15.625 C0.713542,15.1667 0.484375,14.5469 0.484375,13.7656"/>
<path class="Accidental" transform="matrix(0.566929,0,0,0.566929,217.378,73.1959)" d="M4.59375,-4.10938 L4.59375,3.60938 C4.59375,6.34896 4.72396,8.53125 4.98438,10.1563 C7.13021,8.33333 8.66146,6.96875 9.57813,6.0625 C10.6198,5.02083 11.6615,3.58594 12.7031,1.75781 C13.7448,-0.0703125 14.2656,-1.89583 14.2656,-3.71875 C14.2656,-5.54167 13.875,-7.10417 13.0938,-8.40625 C12.3125,-9.70833 11.2708,-10.3594 9.96875,-10.3594 C8.40625,-10.3594 7.10417,-9.77083 6.0625,-8.59375 C5.08333,-7.29167 4.59375,-5.79688 4.59375,-4.10938 M0.484375,13.7656 L-0.78125,-45.7031 C0.135417,-46.224 1.04948,-46.4844 1.96094,-46.4844 C2.8724,-46.4844 3.78125,-46.224 4.6875,-45.7031 L3.90625,-11.2344 C6.57292,-13.5156 9.63542,-14.6563 13.0938,-14.6563 C15.625,-14.6563 17.737,-13.6146 19.4297,-11.5313 C21.1224,-9.44792 21.9688,-7.06771 21.9688,-4.39063 C21.9688,-2.70313 21.4167,-0.911458 20.3125,0.984375 C19.2708,2.73438 18.1667,4.09896 17,5.07813 C16.3438,5.59896 14.6823,6.90104 12.0156,8.98438 C11.2344,9.56771 10.3073,10.25 9.23438,11.0313 C8.16146,11.8125 7.49479,12.3021 7.23438,12.5 C6.77604,12.7604 6.34896,13.2813 5.95313,14.0625 C5.50521,14.7188 4.98438,15.2708 4.39063,15.7188 C3.94271,16.1146 3.39323,16.3125 2.74219,16.3125 C2.09115,16.3125 1.56771,16.0833 1.17188,15.625 C0.713542,15.1667 0.484375,14.5469 0.484375,13.7656"/>
<path class="Accidental" transform="matrix(0.566929,0,0,0.566929,282.093,66.1093)" d="M4.59375,-4.10938 L4.59375,3.60938 C4.59375,6.34896 4.72396,8.53125 4.98438,10.1563 C7.13021,8.33333 8.66146,6.96875 9.57813,6.0625 C10.6198,5.02083 11.6615,3.58594 12.7031,1.75781 C13.7448,-0.0703125 14.2656,-1.89583 14.2656,-3.71875 C14.2656,-5.54167 13.875,-7.10417 13.0938,-8.40625 C12.3125,-9.70833 11.2708,-10.3594 9.96875,-10.3594 C8.40625,-10.3594 7.10417,-9.77083 6.0625,-8.59375 C5.08333,-7.29167 4.59375,-5.79688 4.59375,-4.10938 M0.484375,13.7656 L-0.78125,-45.7031 C0.135417,-46.224 1.04948,-46.4844 1.96094,-46.4844 C2.8724,-46.4844 3.78125,-46.224 4.6875,-45.7031 L3.90625,-11.2344 C6.57292,-13.5156 9.63542,-14.6563 13.0938,-14.6563 C15.625,-14.6563 17.737,-13.6146 19.4297,-11.5313 C21.1224,-9.44792 21.9688,-7.06771 21.9688,-4.39063 C21.9688,-2.70313 21.4167,-0.911458 20.3125,0.984375 C19.2708,2.73438 18.1667,4.09896 17,5.07813 C16.3438,5.59896 14.6823,6.90104 12.0156,8.98438 C11.2344,9.56771 10.3073,10.25 9.23438,11.0313 C8.16146,11.8125 7.49479,12.3021 7.23438,12.5 C6.77604,12.7604 6.34896,13.2813 5.95313,14.0625 C5.50521,14.7188 4.98438,15.2708 4.39063,15.7188 C3.94271,16.1146 3.39323,16.3125 2.74219,16.3125 C2.09115,16.3125 1.56771,16.0833 1.17188,15.625 C0.713542,15.1667 0.484375,14.5469 0.484375,13.7656"/>
<path class="Accidental" transform="matrix(0.566929,0,0,0.566929,346.807,59.0226)" d="M4.59375,-4.10938 L4.59375,3.60938 C4.59375,6.34896 4.72396,8.53125 4.98438,10.1563 C7.13021,8.33333 8.66146,6.96875 9.57813,6.0625 C10.6198,5.02083 11.6615,3.58594 12.7031,1.75781 C13.7448,-0.0703125 14.2656,-1.89583 14.2656,-3.71875 C14.2656,-5.54167 13.875,-7.10417 13.0938,-8.40625 C12.3125,-9.70833 11.2708,-10.3594 9.96875,-10.3594 C8.40625,-10.3594 7.10417,-9.77083 6.0625,-8.59375 C5.08333,-7.29167 4.59375,-5.79688 4.59375,-4.10938 M0.484375,13.7656 L-0.78125,-45.7031 C0.135417,-46.224 1.04948,-46.4844 1.96094,-46.4844 C2.8724,-46.4844 3.78125,-46.224 4.6875,-45.7031 L3.90625,-11.2344 C6.57292,-13.5156 9.63542,-14.6563 13.0938,-14.6563 C15.625,-14.6563 17.737,-13.6146 19.4297,-11.5313 C21.1224,-9.44792 21.9688,-7.06771 21.9688,-4.39063 C21.9688,-2.70313 21.4167,-0.911458 20.3125,0.984375 C19.2708,2.73438 18.1667,4.09896 17,5.07813 C16.3438,5.59896 14.6823,6.90104 12.0156,8.98438 C11.2344,9.56771 10.3073,10.25 9.23438,11.0313 C8.16146,11.8125 7.49479,12.3021 7.23438,12.5 C6.77604,12.7604 6.34896,13.2813 5.95313,14.0625 C5.50521,14.7188 4.98438,15.2708 4.39063,15.7188 C3.94271,16.1146 3.39323,16.3125 2.74219,16.3125 C2.09115,16.3125 1.56771,16.0833 1.17188,15.625 C0.713542,15.1667 0.484375,14.5469 0.484375,13.7656"/>
<path class="Accidental" transform="matrix(0.566929,0,0,0.566929,411.522,51.936)" d="M4.59375,-4.10938 L4.59375,3.60938 C4.59375,6.34896 4.72396,8.53125 4.98438,10.1563 C7.13021,8.33333 8.66146,6.96875 9.57813,6.0625 C10.6198,5.02083 11.6615,3.58594 12.7031,1.75781 C13.7448,-0.0703125 14.2656,-1.89583 14.2656,-3.71875 C14.2656,-5.54167 13.875,-7.10417 13.0938,-8.40625 C12.3125,-9.70833 11.2708,-10.3594 9.96875,-10.3594 C8.40625,-10.3594 7.10417,-9.77083 6.0625,-8.59375 C5.08333,-7.29167 4.59375,-5.79688 4.59375,-4.10938 M0.484375,13.7656 L-0.78125,-45.7031 C0.135417,-46.224 1.04948,-46.4844 1.96094,-46.4844 C2.8724,-46.4844 3.78125,-46.224 4.6875,-45.7031 L3.90625,-11.2344 C6.57292,-13.5156 9.63542,-14.6563 13.0938,-14.6563 C15.625,-14.6563 17.737,-13.6146 19.4297,-11.5313 C21.1224,-9.44792 21.9688,-7.06771 21.9688,-4.39063 C21.9688,-2.70313 21.4167,-0.911458 20.3125,0.984375 C19.2708,2.73438 18.1667,4.09896 17,5.07813 C16.3438,5.59896 14.6823,6.90104 12.0156,8.98438 C11.2344,9.56771 10.3073,10.25 9.23438,11.0313 C8.16146,11.8125 7.49479,12.3021 7.23438,12.5 C6.77604,12.7604 6.34896,13.2813 5.95313,14.0625 C5.50521,14.7188 4.98438,15.2708 4.39063,15.7188 C3.94271,16.1146 3.39323,16.3125 2.74219,16.3125 C2.09115,16.3125 1.56771,16.0833 1.17188,15.625 C0.713542,15.1667 0.484375,14.5469 0.484375,13.7656"/>
<path class="Accidental" transform="matrix(0.566929,0,0,0.566929,467.09,44.8494)" d="M21,-4.10938 L20.7969,3.60938 C20.7969,6.34896 20.9271,8.53125 21.1875,10.1563 C26.9896,5.27083 29.8906,0.645833 29.8906,-3.71875 C29.8906,-5.60417 29.5625,-7.16667 28.9063,-8.40625 C28.1875,-9.70833 27.1771,-10.3594 25.875,-10.3594 C24.3854,-10.3594 23.2135,-9.77083 22.3594,-8.59375 C21.5781,-7.42708 21.125,-5.93229 21,-4.10938 M16.7031,13.7656 L16.4063,3.21875 C14.9792,4.91667 13.1563,6.70833 10.9375,8.59375 C8.65625,10.6146 7.22396,11.9167 6.64063,12.5 C6.38021,12.7604 6.05729,13.2813 5.67188,14.0625 C5.01563,14.9792 4.55729,15.5313 4.29688,15.7188 C3.77604,16.1146 3.25521,16.3125 2.73438,16.3125 C2.08854,16.3125 1.56771,16.0833 1.17188,15.625 C0.713542,15.1667 0.484375,14.5469 0.484375,13.7656 L-0.78125,-45.7031 C0.135417,-46.224 1.04948,-46.4844 1.96094,-46.4844 C2.8724,-46.4844 3.78125,-46.224 4.6875,-45.7031 L3.90625,-11.2344 C5.79167,-13.5156 8.13542,-14.6563 10.9375,-14.6563 C12.9583,-14.6563 14.6823,-13.9375 16.1094,-12.5 L15.4375,-45.7031 C16.3438,-46.224 17.2526,-46.4844 18.1641,-46.4844 C19.0755,-46.4844 19.9896,-46.224 20.9063,-45.7031 L20.2188,-11.2344 C22.8854,-13.5156 25.7813,-14.6563 28.9063,-14.6563 C31.5104,-14.6563 33.724,-13.6458 35.5469,-11.625 C37.3073,-9.60417 38.1875,-7.22917 38.1875,-4.5 C38.1875,-2.67708 37.6354,-0.848958 36.5313,0.984375 C35.3542,2.73438 34.2448,4.06771 33.2031,4.98438 C32.099,5.89063 30.4063,7.19271 28.125,8.89063 C26.3021,10.2552 24.7396,11.4583 23.4375,12.5 C23.2396,12.6354 22.849,13.125 22.2656,13.9688 C21.8073,14.6146 21.2865,15.1667 20.7031,15.625 C20.2448,16.0833 19.6927,16.3125 19.0469,16.3125 C18.4635,16.3125 17.9115,16.0521 17.3906,15.5313 C16.9323,15.0729 16.7031,14.4844 16.7031,13.7656 M3.60938,3.60938 C3.60938,5.82813 3.77604,8.07813 4.10938,10.3594 C8.79688,5.79688 11.1406,1.10417 11.1406,-3.71875 C11.1406,-8.14583 10.0313,-10.3594 7.8125,-10.3594 C5.20833,-10.3594 3.875,-8.27604 3.8125,-4.10938 L3.60938,3.60938 "/>
<path class="Note" fill="#ffffff" fill-opacity="0.0" fill-rule="evenodd" d="M104.913,705.676 L123.622,705.676 L123.622,730.479 L104.913,730.479 L104.913,705.676 "/>
<path class="Note" d="M113.58,714.687 L109.19,714.687 L109.19,712.922 C111.096,712.682 112.338,712.346 112.916,711.914 C113.494,711.481 113.997,710.5 114.424,708.968 L116.049,708.968 L116.049,728.828 L113.58,728.828 L113.58,714.687 "/>
<path class="Note" fill="#ffffff" fill-opacity="0.0" fill-rule="evenodd" d="M104.913,656.07 L123.622,656.07 L123.622,680.873 L104.913,680.873 L104.913,656.07 "/>
<path class="Note" d="M113.893,661.518 C112.476,661.518 111.502,661.906 110.971,662.682 C110.44,663.458 110.153,664.492 110.111,665.784 L107.643,665.784 C107.736,661.503 109.809,659.362 113.861,659.362 C115.747,659.362 117.226,659.849 118.299,660.823 C119.372,661.797 119.908,663.133 119.908,664.831 C119.908,666.841 118.986,668.211 117.143,668.94 C118.33,669.357 119.187,669.932 119.713,670.667 C120.239,671.401 120.502,672.404 120.502,673.675 C120.502,675.56 119.89,677.063 118.666,678.182 C117.442,679.302 115.815,679.862 113.783,679.862 C109.71,679.862 107.523,677.727 107.221,673.456 L109.69,673.456 C109.783,674.893 110.166,675.956 110.838,676.643 C111.51,677.331 112.518,677.675 113.861,677.675 C115.153,677.675 116.161,677.326 116.885,676.628 C117.609,675.93 117.971,674.956 117.971,673.706 C117.971,671.3 116.601,670.096 113.861,670.096 L112.83,670.128 L112.518,670.128 L112.518,668.018 C114.289,667.987 115.544,667.766 116.283,667.354 C117.023,666.943 117.393,666.128 117.393,664.909 C117.393,663.867 117.08,663.042 116.455,662.432 C115.83,661.823 114.976,661.518 113.893,661.518"/>
<path class="Note" fill="#ffffff" fill-opacity="0.0" fill-rule="evenodd" d="M169.627,705.676 L188.336,705.676 L188.336,730.479 L169.627,730.479 L169.627,705.676 "/>
<path class="Note" d="M172.451,715.859 C172.576,711.265 174.758,708.968 178.998,708.968 C180.883,708.968 182.414,709.51 183.592,710.593 C184.769,711.677 185.357,713.078 185.357,714.797 C185.357,717.265 183.956,719.265 181.154,720.797 L178.357,722.297 C177.138,722.953 176.269,723.588 175.748,724.203 C175.227,724.817 174.899,725.547 174.763,726.39 L185.217,726.39 L185.217,728.828 L171.998,728.828 C172.112,726.64 172.553,724.955 173.318,723.773 C174.084,722.591 175.503,721.411 177.576,720.234 L180.138,718.781 C181.93,717.75 182.826,716.442 182.826,714.859 C182.826,713.797 182.454,712.908 181.709,712.195 C180.964,711.481 180.034,711.125 178.92,711.125 C176.43,711.125 175.092,712.703 174.904,715.859 L172.451,715.859 "/>
<path class="Note" fill="#ffffff" fill-opacity="0.0" fill-rule="evenodd" d="M169.627,656.07 L188.336,656.07 L188.336,680.873 L169.627,680.873 L169.627,656.07 "/>
<path class="Note" d="M180.201,674.456 L171.826,674.456 L171.826,671.862 L180.842,659.362 L182.67,659.362 L182.67,672.253 L185.607,672.253 L185.607,674.456 L182.67,674.456 L182.67,679.221 L180.201,679.221 L180.201,674.456 M180.201,672.253 L180.201,663.565 L173.982,672.253 L180.201,672.253 "/>
<path class="Note" fill="#ffffff" fill-opacity="0.0" fill-rule="evenodd" d="M234.342,705.676 L253.051,705.676 L253.051,730.479 L234.342,730.479 L234.342,705.676 "/>
<path class="Note" d="M244.915,724.062 L236.54,724.062 L236.54,721.468 L245.556,708.968 L247.384,708.968 L247.384,721.859 L250.322,721.859 L250.322,724.062 L247.384,724.062 L247.384,728.828 L244.915,728.828 L244.915,724.062 M244.915,721.859 L244.915,713.172 L238.697,721.859 L244.915,721.859 "/>
<path class="Note" fill="#ffffff" fill-opacity="0.0" fill-rule="evenodd" d="M234.342,631.267 L253.051,631.267 L253.051,656.07 L234.342,656.07 L234.342,631.267 "/>
<path class="Note" d="M243.009,640.278 L238.619,640.278 L238.619,638.512 C240.525,638.272 241.767,637.937 242.345,637.504 C242.923,637.072 243.426,636.09 243.853,634.559 L245.478,634.559 L245.478,654.418 L243.009,654.418 L243.009,640.278 "/>
<path class="Note" fill="#ffffff" fill-opacity="0.0" fill-rule="evenodd" d="M299.056,680.873 L317.765,680.873 L317.765,705.676 L299.056,705.676 L299.056,680.873 "/>
<path class="Note" d="M307.724,689.884 L303.333,689.884 L303.333,688.118 C305.239,687.879 306.481,687.543 307.06,687.111 C307.638,686.678 308.14,685.696 308.567,684.165 L310.192,684.165 L310.192,704.025 L307.724,704.025 L307.724,689.884 "/>
<path class="Note" fill="#ffffff" fill-opacity="0.0" fill-rule="evenodd" d="M299.056,631.267 L317.765,631.267 L317.765,656.07 L299.056,656.07 L299.056,631.267 "/>
<path class="Note" d="M308.036,636.715 C306.619,636.715 305.646,637.103 305.114,637.879 C304.583,638.655 304.297,639.689 304.255,640.981 L301.786,640.981 C301.88,636.7 303.953,634.559 308.005,634.559 C309.89,634.559 311.369,635.046 312.442,636.02 C313.515,636.994 314.052,638.33 314.052,640.028 C314.052,642.038 313.13,643.408 311.286,644.137 C312.474,644.554 313.33,645.129 313.856,645.864 C314.383,646.598 314.646,647.601 314.646,648.871 C314.646,650.757 314.034,652.259 312.81,653.379 C311.586,654.499 309.958,655.059 307.927,655.059 C303.854,655.059 301.666,652.924 301.364,648.653 L303.833,648.653 C303.927,650.09 304.31,651.153 304.981,651.84 C305.653,652.528 306.661,652.871 308.005,652.871 C309.297,652.871 310.304,652.522 311.028,651.825 C311.752,651.127 312.114,650.153 312.114,648.903 C312.114,646.496 310.744,645.293 308.005,645.293 L306.974,645.325 L306.661,645.325 L306.661,643.215 C308.432,643.184 309.687,642.963 310.427,642.551 C311.166,642.14 311.536,641.325 311.536,640.106 C311.536,639.064 311.224,638.239 310.599,637.629 C309.974,637.02 309.119,636.715 308.036,636.715"/>
<path class="Note" fill="#ffffff" fill-opacity="0.0" fill-rule="evenodd" d="M363.771,680.873 L382.479,680.873 L382.479,705.676 L363.771,705.676 L363.771,680.873 "/>
<path class="Note" d="M366.594,691.056 C366.719,686.462 368.902,684.165 373.141,684.165 C375.027,684.165 376.558,684.707 377.735,685.79 C378.912,686.874 379.501,688.275 379.501,689.993 C379.501,692.462 378.1,694.462 375.298,695.993 L372.501,697.493 C371.282,698.15 370.412,698.785 369.891,699.4 C369.37,700.014 369.042,700.743 368.907,701.587 L379.36,701.587 L379.36,704.025 L366.141,704.025 C366.256,701.837 366.696,700.152 367.462,698.97 C368.227,697.788 369.646,696.608 371.719,695.431 L374.282,693.978 C376.074,692.946 376.969,691.639 376.969,690.056 C376.969,688.993 376.597,688.105 375.852,687.392 C375.107,686.678 374.178,686.321 373.063,686.321 C370.574,686.321 369.235,687.9 369.048,691.056 L366.594,691.056 "/>
<path class="Note" fill="#ffffff" fill-opacity="0.0" fill-rule="evenodd" d="M363.771,606.464 L382.479,606.464 L382.479,631.267 L363.771,631.267 L363.771,606.464 "/>
<path class="Note" d="M366.391,620.006 C366.391,618.35 366.532,616.886 366.813,615.615 C367.094,614.344 367.449,613.35 367.876,612.631 C368.303,611.912 368.816,611.329 369.415,610.881 C370.014,610.433 370.589,610.133 371.141,609.982 C371.693,609.831 372.277,609.756 372.891,609.756 C377.225,609.756 379.391,613.23 379.391,620.178 C379.391,623.448 378.834,625.946 377.719,627.67 C376.605,629.394 374.995,630.256 372.891,630.256 C370.766,630.256 369.152,629.383 368.048,627.639 C366.943,625.894 366.391,623.35 366.391,620.006 M376.86,619.959 C376.86,614.615 375.534,611.943 372.883,611.943 C370.232,611.943 368.907,614.641 368.907,620.037 C368.907,625.485 370.214,628.209 372.829,628.209 C374.214,628.209 375.232,627.537 375.883,626.193 C376.534,624.85 376.86,622.771 376.86,619.959"/>
<path class="Note" fill="#ffffff" fill-opacity="0.0" fill-rule="evenodd" d="M428.485,680.873 L447.194,680.873 L447.194,705.676 L428.485,705.676 L428.485,680.873 "/>
<path class="Note" d="M439.059,699.259 L430.684,699.259 L430.684,696.665 L439.699,684.165 L441.528,684.165 L441.528,697.056 L444.465,697.056 L444.465,699.259 L441.528,699.259 L441.528,704.025 L439.059,704.025 L439.059,699.259 M439.059,697.056 L439.059,688.368 L432.84,697.056 L439.059,697.056 "/>
<path class="Note" fill="#ffffff" fill-opacity="0.0" fill-rule="evenodd" d="M428.485,606.464 L447.194,606.464 L447.194,631.267 L428.485,631.267 L428.485,606.464 "/>
<path class="Note" d="M431.309,616.646 C431.434,612.053 433.616,609.756 437.856,609.756 C439.741,609.756 441.272,610.297 442.449,611.381 C443.627,612.464 444.215,613.865 444.215,615.584 C444.215,618.053 442.814,620.053 440.012,621.584 L437.215,623.084 C435.996,623.74 435.127,624.376 434.606,624.99 C434.085,625.605 433.757,626.334 433.621,627.178 L444.074,627.178 L444.074,629.615 L430.856,629.615 C430.97,627.428 431.41,625.743 432.176,624.56 C432.942,623.378 434.361,622.198 436.434,621.021 L438.996,619.568 C440.788,618.537 441.684,617.23 441.684,615.646 C441.684,614.584 441.311,613.696 440.567,612.982 C439.822,612.269 438.892,611.912 437.778,611.912 C435.288,611.912 433.949,613.49 433.762,616.646 L431.309,616.646 "/>
<path class="Note" fill="#ffffff" fill-opacity="0.0" fill-rule="evenodd" d="M493.2,656.07 L511.908,656.07 L511.908,680.873 L493.2,680.873 L493.2,656.07 "/>
<path class="Note" d="M495.82,669.612 C495.82,667.956 495.961,666.492 496.242,665.221 C496.523,663.951 496.877,662.956 497.305,662.237 C497.732,661.518 498.245,660.935 498.844,660.487 C499.443,660.039 500.018,659.74 500.57,659.589 C501.122,659.438 501.706,659.362 502.32,659.362 C506.654,659.362 508.82,662.836 508.82,669.784 C508.82,673.055 508.263,675.552 507.148,677.276 C506.034,679 504.424,679.862 502.32,679.862 C500.195,679.862 498.581,678.99 497.476,677.245 C496.372,675.5 495.82,672.956 495.82,669.612 M506.289,669.565 C506.289,664.221 504.963,661.55 502.312,661.55 C499.661,661.55 498.336,664.248 498.336,669.643 C498.336,675.091 499.643,677.815 502.258,677.815 C503.643,677.815 504.661,677.143 505.312,675.8 C505.963,674.456 506.289,672.378 506.289,669.565"/>
<path class="Note" fill="#ffffff" fill-opacity="0.0" fill-rule="evenodd" d="M493.2,606.464 L511.908,606.464 L511.908,631.267 L493.2,631.267 L493.2,606.464 "/>
<path class="Note" d="M502.18,611.912 C500.763,611.912 499.789,612.3 499.258,613.076 C498.726,613.852 498.44,614.886 498.398,616.178 L495.93,616.178 C496.023,611.896 498.096,609.756 502.148,609.756 C504.034,609.756 505.513,610.243 506.586,611.217 C507.659,612.191 508.195,613.527 508.195,615.225 C508.195,617.235 507.273,618.605 505.43,619.334 C506.617,619.751 507.474,620.326 508,621.06 C508.526,621.795 508.789,622.797 508.789,624.068 C508.789,625.954 508.177,627.456 506.953,628.576 C505.729,629.696 504.101,630.256 502.07,630.256 C497.997,630.256 495.81,628.12 495.508,623.85 L497.976,623.85 C498.07,625.287 498.453,626.35 499.125,627.037 C499.797,627.725 500.805,628.068 502.148,628.068 C503.44,628.068 504.448,627.719 505.172,627.021 C505.896,626.323 506.258,625.35 506.258,624.1 C506.258,621.693 504.888,620.49 502.148,620.49 L501.117,620.521 L500.805,620.521 L500.805,618.412 C502.575,618.381 503.831,618.159 504.57,617.748 C505.31,617.337 505.68,616.521 505.68,615.303 C505.68,614.261 505.367,613.435 504.742,612.826 C504.117,612.217 503.263,611.912 502.18,611.912"/>
<path class="Note" fill="#ffffff" fill-opacity="0.0" fill-rule="evenodd" d="M557.914,656.07 L576.623,656.07 L576.623,680.873 L557.914,680.873 L557.914,656.07 "/>
<path class="Note" d="M566.894,661.518 C565.477,661.518 564.503,661.906 563.972,662.682 C563.441,663.458 563.154,664.492 563.113,665.784 L560.644,665.784 C560.738,661.503 562.811,659.362 566.863,659.362 C568.748,659.362 570.227,659.849 571.3,660.823 C572.373,661.797 572.91,663.133 572.91,664.831 C572.91,666.841 571.988,668.211 570.144,668.94 C571.332,669.357 572.188,669.932 572.714,670.667 C573.24,671.401 573.503,672.404 573.503,673.675 C573.503,675.56 572.891,677.063 571.667,678.182 C570.444,679.302 568.816,679.862 566.785,679.862 C562.712,679.862 560.524,677.727 560.222,673.456 L562.691,673.456 C562.785,674.893 563.167,675.956 563.839,676.643 C564.511,677.331 565.519,677.675 566.863,677.675 C568.154,677.675 569.162,677.326 569.886,676.628 C570.61,675.93 570.972,674.956 570.972,673.706 C570.972,671.3 569.602,670.096 566.863,670.096 L565.832,670.128 L565.519,670.128 L565.519,668.018 C567.29,667.987 568.545,667.766 569.285,667.354 C570.024,666.943 570.394,666.128 570.394,664.909 C570.394,663.867 570.082,663.042 569.457,662.432 C568.832,661.823 567.977,661.518 566.894,661.518"/>
<path class="Note" fill="#ffffff" fill-opacity="0.0" fill-rule="evenodd" d="M557.914,581.66 L576.623,581.66 L576.623,606.464 L557.914,606.464 L557.914,581.66 "/>
<path class="Note" d="M566.582,590.671 L562.191,590.671 L562.191,588.906 C564.097,588.666 565.339,588.33 565.917,587.898 C566.496,587.466 566.998,586.484 567.425,584.953 L569.05,584.953 L569.05,604.812 L566.582,604.812 L566.582,590.671 "/>
<path class="Note" fill="#ffffff" fill-opacity="0.0" fill-rule="evenodd" d="M104.913,478.905 L123.622,478.905 L123.622,503.708 L104.913,503.708 L104.913,478.905 "/>
<path class="Note" d="M113.893,484.353 C112.476,484.353 111.502,484.741 110.971,485.517 C110.44,486.293 110.153,487.327 110.111,488.619 L107.643,488.619 C107.736,484.337 109.809,482.197 113.861,482.197 C115.747,482.197 117.226,482.684 118.299,483.658 C119.372,484.632 119.908,485.968 119.908,487.665 C119.908,489.676 118.986,491.046 117.143,491.775 C118.33,492.192 119.187,492.767 119.713,493.501 C120.239,494.236 120.502,495.238 120.502,496.509 C120.502,498.395 119.89,499.897 118.666,501.017 C117.442,502.137 115.815,502.697 113.783,502.697 C109.71,502.697 107.523,500.561 107.221,496.29 L109.69,496.29 C109.783,497.728 110.166,498.79 110.838,499.478 C111.51,500.165 112.518,500.509 113.861,500.509 C115.153,500.509 116.161,500.16 116.885,499.462 C117.609,498.764 117.971,497.79 117.971,496.54 C117.971,494.134 116.601,492.931 113.861,492.931 L112.83,492.962 L112.518,492.962 L112.518,490.853 C114.289,490.822 115.544,490.6 116.283,490.189 C117.023,489.777 117.393,488.962 117.393,487.744 C117.393,486.702 117.08,485.876 116.455,485.267 C115.83,484.658 114.976,484.353 113.893,484.353"/>
<path class="Note" fill="#ffffff" fill-opacity="0.0" fill-rule="evenodd" d="M169.627,478.905 L188.336,478.905 L188.336,503.708 L169.627,503.708 L169.627,478.905 "/>
<path class="Note" d="M180.201,497.29 L171.826,497.29 L171.826,494.697 L180.842,482.197 L182.67,482.197 L182.67,495.087 L185.607,495.087 L185.607,497.29 L182.67,497.29 L182.67,502.056 L180.201,502.056 L180.201,497.29 M180.201,495.087 L180.201,486.4 L173.982,495.087 L180.201,495.087 "/>
<path class="Note" fill="#ffffff" fill-opacity="0.0" fill-rule="evenodd" d="M234.342,478.905 L253.051,478.905 L253.051,503.708 L234.342,503.708 L234.342,478.905 "/>
<path class="Note" d="M236.962,493.009 C236.962,491.259 237.121,489.715 237.439,488.376 C237.757,487.038 238.152,485.988 238.626,485.228 C239.1,484.468 239.671,483.848 240.337,483.369 C241.004,482.889 241.632,482.574 242.22,482.423 C242.809,482.272 243.426,482.197 244.072,482.197 C245.582,482.197 246.837,482.655 247.837,483.572 C248.837,484.488 249.457,485.759 249.697,487.384 L247.244,487.384 C247.035,486.436 246.642,485.699 246.064,485.173 C245.486,484.647 244.764,484.384 243.9,484.384 C242.483,484.384 241.397,485.033 240.642,486.33 C239.887,487.626 239.499,489.488 239.478,491.915 C240.561,490.447 242.082,489.712 244.04,489.712 C245.822,489.712 247.28,490.301 248.415,491.478 C249.551,492.655 250.119,494.165 250.119,496.009 C250.119,497.947 249.509,499.546 248.29,500.806 C247.072,502.067 245.52,502.697 243.634,502.697 C239.186,502.697 236.962,499.468 236.962,493.009 M243.744,491.9 C242.525,491.9 241.533,492.285 240.767,493.056 C240.001,493.827 239.619,494.832 239.619,496.072 C239.619,497.332 240.001,498.387 240.767,499.236 C241.533,500.085 242.494,500.509 243.65,500.509 C244.796,500.509 245.741,500.106 246.486,499.298 C247.231,498.491 247.603,497.457 247.603,496.197 C247.603,494.874 247.257,493.827 246.564,493.056 C245.871,492.285 244.931,491.9 243.744,491.9"/>
<path class="Note" fill="#ffffff" fill-opacity="0.0" fill-rule="evenodd" d="M299.056,454.101 L317.765,454.101 L317.765,478.905 L299.056,478.905 L299.056,454.101 "/>
<path class="Note" d="M307.724,463.112 L303.333,463.112 L303.333,461.347 C305.239,461.107 306.481,460.771 307.06,460.339 C307.638,459.907 308.14,458.925 308.567,457.394 L310.192,457.394 L310.192,477.253 L307.724,477.253 L307.724,463.112 "/>
<path class="Note" fill="#ffffff" fill-opacity="0.0" fill-rule="evenodd" d="M363.771,454.101 L382.479,454.101 L382.479,478.905 L363.771,478.905 L363.771,454.101 "/>
<path class="Note" d="M366.594,464.284 C366.719,459.69 368.902,457.394 373.141,457.394 C375.027,457.394 376.558,457.935 377.735,459.019 C378.912,460.102 379.501,461.503 379.501,463.222 C379.501,465.69 378.1,467.69 375.298,469.222 L372.501,470.722 C371.282,471.378 370.412,472.013 369.891,472.628 C369.37,473.243 369.042,473.972 368.907,474.815 L379.36,474.815 L379.36,477.253 L366.141,477.253 C366.256,475.065 366.696,473.381 367.462,472.198 C368.227,471.016 369.646,469.836 371.719,468.659 L374.282,467.206 C376.074,466.175 376.969,464.868 376.969,463.284 C376.969,462.222 376.597,461.334 375.852,460.62 C375.107,459.907 374.178,459.55 373.063,459.55 C370.574,459.55 369.235,461.128 369.048,464.284 L366.594,464.284 "/>
<path class="Note" fill="#ffffff" fill-opacity="0.0" fill-rule="evenodd" d="M428.485,454.101 L447.194,454.101 L447.194,478.905 L428.485,478.905 L428.485,454.101 "/>
<path class="Note" d="M439.059,472.487 L430.684,472.487 L430.684,469.894 L439.699,457.394 L441.528,457.394 L441.528,470.284 L444.465,470.284 L444.465,472.487 L441.528,472.487 L441.528,477.253 L439.059,477.253 L439.059,472.487 M439.059,470.284 L439.059,461.597 L432.84,470.284 L439.059,470.284 "/>
<path class="Note" fill="#ffffff" fill-opacity="0.0" fill-rule="evenodd" d="M493.2,454.101 L511.908,454.101 L511.908,478.905 L493.2,478.905 L493.2,454.101 "/>
<path class="Note" d="M507.945,457.394 L507.945,459.831 L499.68,459.831 L498.898,465.378 C500.002,464.576 501.226,464.175 502.57,464.175 C504.476,464.175 506.021,464.787 507.203,466.011 C508.385,467.235 508.976,468.826 508.976,470.784 C508.976,472.878 508.344,474.586 507.078,475.909 C505.812,477.232 504.18,477.894 502.18,477.894 C501.409,477.894 500.703,477.81 500.062,477.644 C499.422,477.477 498.891,477.276 498.469,477.042 C498.047,476.808 497.664,476.5 497.32,476.12 C496.976,475.74 496.716,475.404 496.539,475.112 C496.362,474.821 496.193,474.456 496.031,474.019 C495.87,473.581 495.771,473.279 495.734,473.112 C495.698,472.946 495.654,472.701 495.601,472.378 L498.055,472.378 C498.638,474.597 499.992,475.706 502.117,475.706 C503.461,475.706 504.521,475.297 505.297,474.48 C506.073,473.662 506.461,472.545 506.461,471.128 C506.461,469.649 506.068,468.485 505.281,467.636 C504.495,466.787 503.44,466.362 502.117,466.362 C501.357,466.362 500.706,466.498 500.164,466.769 C499.622,467.039 499.06,467.519 498.476,468.206 L496.211,468.206 L497.695,457.394 L507.945,457.394 "/>
<path class="Note" fill="#ffffff" fill-opacity="0.0" fill-rule="evenodd" d="M557.914,429.298 L576.623,429.298 L576.623,454.101 L557.914,454.101 L557.914,429.298 "/>
<path class="Note" d="M566.582,438.309 L562.191,438.309 L562.191,436.544 C564.097,436.304 565.339,435.968 565.917,435.536 C566.496,435.103 566.998,434.122 567.425,432.59 L569.05,432.59 L569.05,452.45 L566.582,452.45 L566.582,438.309 "/>
<path class="Note" transform="matrix(0.566929,0,0,0.566929,103.637,370.834)" d="M21.9688,-13.7656 C25.0938,-13.7656 27.7344,-12.9531 29.8906,-11.3281 C31.901,-9.56771 32.9063,-7.35417 32.9063,-4.6875 C32.9063,-0.197917 30.599,4 25.9844,7.90625 C21.2969,11.8125 16.2813,13.7656 10.9375,13.7656 C7.8125,13.7656 5.17708,12.9531 3.03125,11.3281 C1.01042,9.56771 0,7.35417 0,4.6875 C0,0.197917 2.34375,-4 7.03125,-7.90625 C11.5938,-11.8125 16.5729,-13.7656 21.9688,-13.7656"/>
<path class="Note" transform="matrix(0.566929,0,0,0.566929,168.352,363.747)" d="M21.9688,-13.7656 C25.0938,-13.7656 27.7344,-12.9531 29.8906,-11.3281 C31.901,-9.56771 32.9063,-7.35417 32.9063,-4.6875 C32.9063,-0.197917 30.599,4 25.9844,7.90625 C21.2969,11.8125 16.2813,13.7656 10.9375,13.7656 C7.8125,13.7656 5.17708,12.9531 3.03125,11.3281 C1.01042,9.56771 0,7.35417 0,4.6875 C0,0.197917 2.34375,-4 7.03125,-7.90625 C11.5938,-11.8125 16.5729,-13.7656 21.9688,-13.7656"/>
<path class="Note" transform="matrix(0.566929,0,0,0.566929,233.066,356.66)" d="M21.9688,-13.7656 C25.0938,-13.7656 27.7344,-12.9531 29.8906,-11.3281 C31.901,-9.56771 32.9063,-7.35417 32.9063,-4.6875 C32.9063,-0.197917 30.599,4 25.9844,7.90625 C21.2969,11.8125 16.2813,13.7656 10.9375,13.7656 C7.8125,13.7656 5.17708,12.9531 3.03125,11.3281 C1.01042,9.56771 0,7.35417 0,4.6875 C0,0.197917 2.34375,-4 7.03125,-7.90625 C11.5938,-11.8125 16.5729,-13.7656 21.9688,-13.7656"/>
<path class="Note" transform="matrix(0.566929,0,0,0.566929,297.781,349.574)" d="M21.9688,-13.7656 C25.0938,-13.7656 27.7344,-12.9531 29.8906,-11.3281 C31.901,-9.56771 32.9063,-7.35417 32.9063,-4.6875 C32.9063,-0.197917 30.599,4 25.9844,7.90625 C21.2969,11.8125 16.2813,13.7656 10.9375,13.7656 C7.8125,13.7656 5.17708,12.9531 3.03125,11.3281 C1.01042,9.56771 0,7.35417 0,4.6875 C0,0.197917 2.34375,-4 7.03125,-7.90625 C11.5938,-11.8125 16.5729,-13.7656 21.9688,-13.7656"/>
<path class="Note" transform="matrix(0.566929,0,0,0.566929,362.495,342.487)" d="M21.9688,-13.7656 C25.0938,-13.7656 27.7344,-12.9531 29.8906,-11.3281 C31.901,-9.56771 32.9063,-7.35417 32.9063,-4.6875 C32.9063,-0.197917 30.599,4 25.9844,7.90625 C21.2969,11.8125 16.2813,13.7656 10.9375,13.7656 C7.8125,13.7656 5.17708,12.9531 3.03125,11.3281 C1.01042,9.56771 0,7.35417 0,4.6875 C0,0.197917 2.34375,-4 7.03125,-7.90625 C11.5938,-11.8125 16.5729,-13.7656 21.9688,-13.7656"/>
<path class="Note" transform="matrix(0.566929,0,0,0.566929,427.21,335.401)" d="M21.9688,-13.7656 C25.0938,-13.7656 27.7344,-12.9531 29.8906,-11.3281 C31.901,-9.56771 32.9063,-7.35417 32.9063,-4.6875 C32.9063,-0.197917 30.599,4 25.9844,7.90625 C21.2969,11.8125 16.2813,13.7656 10.9375,13.7656 C7.8125,13.7656 5.17708,12.9531 3.03125,11.3281 C1.01042,9.56771 0,7.35417 0,4.6875 C0,0.197917 2.34375,-4 7.03125,-7.90625 C11.5938,-11.8125 16.5729,-13.7656 21.9688,-13.7656"/>
<path class="Note" transform="matrix(0.566929,0,0,0.566929,491.924,328.314)" d="M21.9688,-13.7656 C25.0938,-13.7656 27.7344,-12.9531 29.8906,-11.3281 C31.901,-9.56771 32.9063,-7.35417 32.9063,-4.6875 C32.9063,-0.197917 30.599,4 25.9844,7.90625 C21.2969,11.8125 16.2813,13.7656 10.9375,13.7656 C7.8125,13.7656 5.17708,12.9531 3.03125,11.3281 C1.01042,9.56771 0,7.35417 0,4.6875 C0,0.197917 2.34375,-4 7.03125,-7.90625 C11.5938,-11.8125 16.5729,-13.7656 21.9688,-13.7656"/>
<path class="Note" transform="matrix(0.566929,0,0,0.566929,556.639,321.227)" d="M21.9688,-13.7656 C25.0938,-13.7656 27.7344,-12.9531 29.8906,-11.3281 C31.901,-9.56771 32.9063,-7.35417 32.9063,-4.6875 C32.9063,-0.197917 30.599,4 25.9844,7.90625 C21.2969,11.8125 16.2813,13.7656 10.9375,13.7656 C7.8125,13.7656 5.17708,12.9531 3.03125,11.3281 C1.01042,9.56771 0,7.35417 0,4.6875 C0,0.197917 2.34375,-4 7.03125,-7.90625 C11.5938,-11.8125 16.5729,-13.7656 21.9688,-13.7656"/>
<path class="Note" transform="matrix(0.566929,0,0,0.566929,103.637,229.101)" d="M21.9688,-13.7656 C25.0938,-13.7656 27.7344,-12.9531 29.8906,-11.3281 C31.901,-9.56771 32.9063,-7.35417 32.9063,-4.6875 C32.9063,-0.197917 30.599,4 25.9844,7.90625 C21.2969,11.8125 16.2813,13.7656 10.9375,13.7656 C7.8125,13.7656 5.17708,12.9531 3.03125,11.3281 C1.01042,9.56771 0,7.35417 0,4.6875 C0,0.197917 2.34375,-4 7.03125,-7.90625 C11.5938,-11.8125 16.5729,-13.7656 21.9688,-13.7656"/>
<path class="Note" transform="matrix(0.566929,0,0,0.566929,168.352,222.015)" d="M21.9688,-13.7656 C25.0938,-13.7656 27.7344,-12.9531 29.8906,-11.3281 C31.901,-9.56771 32.9063,-7.35417 32.9063,-4.6875 C32.9063,-0.197917 30.599,4 25.9844,7.90625 C21.2969,11.8125 16.2813,13.7656 10.9375,13.7656 C7.8125,13.7656 5.17708,12.9531 3.03125,11.3281 C1.01042,9.56771 0,7.35417 0,4.6875 C0,0.197917 2.34375,-4 7.03125,-7.90625 C11.5938,-11.8125 16.5729,-13.7656 21.9688,-13.7656"/>
<path class="Note" transform="matrix(0.566929,0,0,0.566929,233.066,214.928)" d="M21.9688,-13.7656 C25.0938,-13.7656 27.7344,-12.9531 29.8906,-11.3281 C31.901,-9.56771 32.9063,-7.35417 32.9063,-4.6875 C32.9063,-0.197917 30.599,4 25.9844,7.90625 C21.2969,11.8125 16.2813,13.7656 10.9375,13.7656 C7.8125,13.7656 5.17708,12.9531 3.03125,11.3281 C1.01042,9.56771 0,7.35417 0,4.6875 C0,0.197917 2.34375,-4 7.03125,-7.90625 C11.5938,-11.8125 16.5729,-13.7656 21.9688,-13.7656"/>
<path class="Note" transform="matrix(0.566929,0,0,0.566929,297.781,207.842)" d="M21.9688,-13.7656 C25.0938,-13.7656 27.7344,-12.9531 29.8906,-11.3281 C31.901,-9.56771 32.9063,-7.35417 32.9063,-4.6875 C32.9063,-0.197917 30.599,4 25.9844,7.90625 C21.2969,11.8125 16.2813,13.7656 10.9375,13.7656 C7.8125,13.7656 5.17708,12.9531 3.03125,11.3281 C1.01042,9.56771 0,7.35417 0,4.6875 C0,0.197917 2.34375,-4 7.03125,-7.90625 C11.5938,-11.8125 16.5729,-13.7656 21.9688,-13.7656"/>
<path class="Note" transform="matrix(0.566929,0,0,0.566929,362.495,200.755)" d="M21.9688,-13.7656 C25.0938,-13.7656 27.7344,-12.9531 29.8906,-11.3281 C31.901,-9.56771 32.9063,-7.35417 32.9063,-4.6875 C32.9063,-0.197917 30.599,4 25.9844,7.90625 C21.2969,11.8125 16.2813,13.7656 10.9375,13.7656 C7.8125,13.7656 5.17708,12.9531 3.03125,11.3281 C1.01042,9.56771 0,7.35417 0,4.6875 C0,0.197917 2.34375,-4 7.03125,-7.90625 C11.5938,-11.8125 16.5729,-13.7656 21.9688,-13.7656"/>
<path class="Note" transform="matrix(0.566929,0,0,0.566929,427.21,193.668)" d="M21.9688,-13.7656 C25.0938,-13.7656 27.7344,-12.9531 29.8906,-11.3281 C31.901,-9.56771 32.9063,-7.35417 32.9063,-4.6875 C32.9063,-0.197917 30.599,4 25.9844,7.90625 C21.2969,11.8125 16.2813,13.7656 10.9375,13.7656 C7.8125,13.7656 5.17708,12.9531 3.03125,11.3281 C1.01042,9.56771 0,7.35417 0,4.6875 C0,0.197917 2.34375,-4 7.03125,-7.90625 C11.5938,-11.8125 16.5729,-13.7656 21.9688,-13.7656"/>
<path class="Note" transform="matrix(0.566929,0,0,0.566929,491.924,186.582)" d="M21.9688,-13.7656 C25.0938,-13.7656 27.7344,-12.9531 29.8906,-11.3281 C31.901,-9.56771 32.9063,-7.35417 32.9063,-4.6875 C32.9063,-0.197917 30.599,4 25.9844,7.90625 C21.2969,11.8125 16.2813,13.7656 10.9375,13.7656 C7.8125,13.7656 5.17708,12.9531 3.03125,11.3281 C1.01042,9.56771 0,7.35417 0,4.6875 C0,0.197917 2.34375,-4 7.03125,-7.90625 C11.5938,-11.8125 16.5729,-13.7656 21.9688,-13.7656"/>
<path class="Note" transform="matrix(0.566929,0,0,0.566929,556.639,179.495)" d="M21.9688,-13.7656 C25.0938,-13.7656 27.7344,-12.9531 29.8906,-11.3281 C31.901,-9.56771 32.9063,-7.35417 32.9063,-4.6875 C32.9063,-0.197917 30.599,4 25.9844,7.90625 C21.2969,11.8125 16.2813,13.7656 10.9375,13.7656 C7.8125,13.7656 5.17708,12.9531 3.03125,11.3281 C1.01042,9.56771 0,7.35417 0,4.6875 C0,0.197917 2.34375,-4 7.03125,-7.90625 C11.5938,-11.8125 16.5729,-13.7656 21.9688,-13.7656"/>
<path class="Note" transform="matrix(0.566929,0,0,0.566929,103.637,87.3691)" d="M21.9688,-13.7656 C25.0938,-13.7656 27.7344,-12.9531 29.8906,-11.3281 C31.901,-9.56771 32.9063,-7.35417 32.9063,-4.6875 C32.9063,-0.197917 30.599,4 25.9844,7.90625 C21.2969,11.8125 16.2813,13.7656 10.9375,13.7656 C7.8125,13.7656 5.17708,12.9531 3.03125,11.3281 C1.01042,9.56771 0,7.35417 0,4.6875 C0,0.197917 2.34375,-4 7.03125,-7.90625 C11.5938,-11.8125 16.5729,-13.7656 21.9688,-13.7656"/>
<path class="Note" transform="matrix(0.566929,0,0,0.566929,168.352,80.2825)" d="M21.9688,-13.7656 C25.0938,-13.7656 27.7344,-12.9531 29.8906,-11.3281 C31.901,-9.56771 32.9063,-7.35417 32.9063,-4.6875 C32.9063,-0.197917 30.599,4 25.9844,7.90625 C21.2969,11.8125 16.2813,13.7656 10.9375,13.7656 C7.8125,13.7656 5.17708,12.9531 3.03125,11.3281 C1.01042,9.56771 0,7.35417 0,4.6875 C0,0.197917 2.34375,-4 7.03125,-7.90625 C11.5938,-11.8125 16.5729,-13.7656 21.9688,-13.7656"/>
<path class="Note" transform="matrix(0.566929,0,0,0.566929,233.066,73.1959)" d="M21.9688,-13.7656 C25.0938,-13.7656 27.7344,-12.9531 29.8906,-11.3281 C31.901,-9.56771 32.9063,-7.35417 32.9063,-4.6875 C32.9063,-0.197917 30.599,4 25.9844,7.90625 C21.2969,11.8125 16.2813,13.7656 10.9375,13.7656 C7.8125,13.7656 5.17708,12.9531 3.03125,11.3281 C1.01042,9.56771 0,7.35417 0,4.6875 C0,0.197917 2.34375,-4 7.03125,-7.90625 C11.5938,-11.8125 16.5729,-13.7656 21.9688,-13.7656"/>
<path class="Note" transform="matrix(0.566929,0,0,0.566929,297.781,66.1093)" d="M21.9688,-13.7656 C25.0938,-13.7656 27.7344,-12.9531 29.8906,-11.3281 C31.901,-9.56771 32.9063,-7.35417 32.9063,-4.6875 C32.9063,-0.197917 30.599,4 25.9844,7.90625 C21.2969,11.8125 16.2813,13.7656 10.9375,13.7656 C7.8125,13.7656 5.17708,12.9531 3.03125,11.3281 C1.01042,9.56771 0,7.35417 0,4.6875 C0,0.197917 2.34375,-4 7.03125,-7.90625 C11.5938,-11.8125 16.5729,-13.7656 21.9688,-13.7656"/>
<path class="Note" transform="matrix(0.566929,0,0,0.566929,362.495,59.0226)" d="M21.9688,-13.7656 C25.0938,-13.7656 27.7344,-12.9531 29.8906,-11.3281 C31.901,-9.56771 32.9063,-7.35417 32.9063,-4.6875 C32.9063,-0.197917 30.599,4 25.9844,7.90625 C21.2969,11.8125 16.2813,13.7656 10.9375,13.7656 C7.8125,13.7656 5.17708,12.9531 3.03125,11.3281 C1.01042,9.56771 0,7.35417 0,4.6875 C0,0.197917 2.34375,-4 7.03125,-7.90625 C11.5938,-11.8125 16.5729,-13.7656 21.9688,-13.7656"/>
<path class="Note" transform="matrix(0.566929,0,0,0.566929,427.21,51.936)" d="M21.9688,-13.7656 C25.0938,-13.7656 27.7344,-12.9531 29.8906,-11.3281 C31.901,-9.56771 32.9063,-7.35417 32.9063,-4.6875 C32.9063,-0.197917 30.599,4 25.9844,7.90625 C21.2969,11.8125 16.2813,13.7656 10.9375,13.7656 C7.8125,13.7656 5.17708,12.9531 3.03125,11.3281 C1.01042,9.56771 0,7.35417 0,4.6875 C0,0.197917 2.34375,-4 7.03125,-7.90625 C11.5938,-11.8125 16.5729,-13.7656 21.9688,-13.7656"/>
<path class="Note" transform="matrix(0.566929,0,0,0.566929,491.924,44.8494)" d="M21.9688,-13.7656 C25.0938,-13.7656 27.7344,-12.9531 29.8906,-11.3281 C31.901,-9.56771 32.9063,-7.35417 32.9063,-4.6875 C32.9063,-0.197917 30.599,4 25.9844,7.90625 C21.2969,11.8125 16.2813,13.7656 10.9375,13.7656 C7.8125,13.7656 5.17708,12.9531 3.03125,11.3281 C1.01042,9.56771 0,7.35417 0,4.6875 C0,0.197917 2.34375,-4 7.03125,-7.90625 C11.5938,-11.8125 16.5729,-13.7656 21.9688,-13.7656"/>
<path class="Note" transform="matrix(0.566929,0,0,0.566929,556.639,37.7628)" d="M21.9688,-13.7656 C25.0938,-13.7656 27.7344,-12.9531 29.8906,-11.3281 C31.901,-9.56771 32.9063,-7.35417 32.9063,-4.6875 C32.9063,-0.197917 30.599,4 25.9844,7.90625 C21.2969,11.8125 16.2813,13.7656 10.9375,13.7656 C7.8125,13.7656 5.17708,12.9531 3.03125,11.3281 C1.01042,9.56771 0,7.35417 0,4.6875 C0,0.197917 2.34375,-4 7.03125,-7.90625 C11.5938,-11.8125 16.5729,-13.7656 21.9688,-13.7656"/>
<path class="Clef" transform="matrix(0.566929,0,0,0.566929,28.5015,656.07)" d="M26.6563,42.4844 C26.6563,44.3073 25.224,45.2188 22.3594,45.2188 C20.0885,45.2188 18.1042,44.5365 16.4063,43.1719 C14.7813,41.7344 13.9688,39.9115 13.9688,37.7031 C13.9688,33.7969 16.3438,30.6719 21.0938,28.3281 C25.7188,25.9115 31.1563,24.7031 37.4063,24.7031 C39.8125,24.7031 42.3854,24.8698 45.125,25.2031 C47.1354,25.4635 49.3802,25.9844 51.8594,26.7656 C54.0677,27.474 55.7917,28.5443 57.0313,29.9766 C58.2708,31.4089 58.8906,33.0729 58.8906,34.9688 C58.8906,39.4583 56.5781,43.1354 51.9531,46 C58.724,47.2396 62.1406,50.2656 62.2031,55.0781 C62.2031,59.1198 60.3802,62.7682 56.7344,66.0234 C53.0885,69.2786 48.9583,70.9063 44.3438,70.9063 C42.3854,70.9063 40.3958,70.4479 38.375,69.5313 C36.4896,68.625 35.1563,67.7813 34.375,67 C33.5938,66.0833 33.2031,65.3958 33.2031,64.9375 C33.2031,64.2917 33.5313,63.7396 34.1875,63.2813 C34.7708,62.6979 35.3854,62.4063 36.0313,62.4063 C36.2917,62.4063 36.8464,62.8281 37.6953,63.6719 C38.5443,64.5156 39.7813,64.9375 41.4063,64.9375 C43.625,64.9375 45.776,63.9948 47.8594,62.1094 C49.8698,60.2865 50.875,58.1042 50.875,55.5625 C50.875,53.3542 49.9323,51.7604 48.0469,50.7813 C46.1615,49.8021 43.7552,49.3125 40.8281,49.3125 C40.3073,49.3125 40.0469,48.7604 40.0469,47.6563 C40.0469,46.0938 40.6302,45.3125 41.7969,45.3125 C43.6198,45.3125 45.25,44.5313 46.6875,42.9688 C48.0521,41.2813 48.7344,39.4896 48.7344,37.5938 C48.7344,37.0104 48.5729,36.1354 48.25,34.9688 C47.9896,34.1875 47.2083,33.2396 45.9063,32.125 C44.6667,31.0833 42.9375,30.3698 40.7188,29.9844 C40.1354,33.1719 39.4036,37.2396 38.5234,42.1875 C37.6432,47.1354 37.0417,50.3906 36.7188,51.9531 C35.6146,57.5573 33.599,62.276 30.6719,66.1094 C27.6094,70.151 24.3177,72.1719 20.7969,72.1719 C19.6927,72.1719 18.5573,71.9115 17.3906,71.3906 C16.474,70.9948 15.3021,70.1823 13.875,68.9531 C12.5729,67.9115 11.6927,67.224 11.2344,66.8906 C10.974,66.7031 10.8438,66.4115 10.8438,66.0156 C10.8438,65.3698 11.0729,64.7865 11.5313,64.2656 C12.0521,63.6719 12.6042,63.375 13.1875,63.375 C13.5729,63.375 14.4818,63.9948 15.9141,65.2344 C17.3464,66.474 18.8438,67.0938 20.4063,67.0938 C23.4063,67.0938 25.6563,65.1719 27.1563,61.3281 C28.5833,57.6198 29.2969,53.0313 29.2969,47.5625 L29.2969,46.7813 C29.2969,43.1354 29.8854,37.6979 31.0625,30.4688 C28.9792,31.125 27.3177,32.1042 26.0781,33.4063 C24.776,34.7083 24.125,36.0729 24.125,37.5 C24.125,38.6042 24.5469,39.5469 25.3906,40.3281 C26.2344,41.1094 26.6563,41.8281 26.6563,42.4844 M7.03125,11.9219 C7.35417,11.9219 8.13542,12.2448 9.375,12.8906 C10.6771,13.5469 11.7865,13.875 12.7031,13.875 C15.1719,13.875 18.1979,12.0833 21.7813,8.5 C32.1354,-2.05208 39.2656,-13.25 43.1719,-25.0938 C43.9531,-27.5729 45.8698,-28.8125 48.9219,-28.8125 C50.4844,-28.8125 51.8229,-28.4844 52.9375,-27.8281 C54.0417,-27.1198 54.5938,-26.4063 54.5938,-25.6875 L52.8281,10.8438 C52.8281,12.7917 53.5156,13.7656 54.8906,13.7656 C55.599,13.7656 56.6406,13.4427 58.0156,12.7969 C59.3177,12.1406 60.099,11.8125 60.3594,11.8125 C60.8802,11.8125 61.2031,12.3698 61.3281,13.4844 C61.3281,14.526 60.9063,15.1771 60.0625,15.4375 C59.4063,15.625 58.1042,16.2396 56.1563,17.2813 C54.1354,18.3229 52.5417,18.8438 51.375,18.8438 C48.8958,18.8438 47.1354,16.8906 46.0938,12.9844 C44.4688,6.86979 43.4271,0.520833 42.9688,-6.0625 C40.3646,-2.73958 37.4688,0.614583 34.2813,4 C35.4479,6.21875 37.5938,7.32813 40.7188,7.32813 C41.1771,7.32813 41.5365,7.29688 41.7969,7.23438 L41.8906,7.23438 C42.4115,7.23438 42.6719,7.71875 42.6719,8.6875 C42.6719,9.92708 42.25,10.6771 41.4063,10.9375 C40.0417,11.3958 38.6094,11.625 37.1094,11.625 C33.8594,11.625 31.5156,10.5156 30.0781,8.29688 L26.1719,11.8125 C20.7031,16.5 16.2448,18.8438 12.7969,18.8438 C11.8802,18.8438 10.9375,18.6823 9.96875,18.3594 C9.1875,18.0365 8.27604,17.5469 7.23438,16.8906 C6.83854,16.7031 6.39583,16.4609 5.90625,16.1641 C5.41667,15.8672 5.10938,15.6875 4.98438,15.625 C4.66146,15.5 4.5,15.2083 4.5,14.75 C4.5,14.2292 4.76042,13.6094 5.28125,12.8906 C5.72917,12.2448 6.3125,11.9219 7.03125,11.9219 M28.8125,-54 C28.8125,-52.375 27.4115,-51.5625 24.6094,-51.5625 C22.1406,-51.5625 19.9948,-52.375 18.1719,-54 C16.4115,-55.6354 15.5313,-57.625 15.5313,-59.9688 C15.5313,-62.2396 16.2448,-64.1927 17.6719,-65.8281 C19.1719,-67.5156 21.0938,-68.7813 23.4375,-69.625 C25.5833,-70.4063 27.9948,-71.026 30.6719,-71.4844 C33.4635,-71.8073 36.1302,-71.9688 38.6719,-71.9688 C40.1719,-71.9688 42.974,-71.2865 47.0781,-69.9219 C51.2448,-68.5573 54.1406,-67.875 55.7656,-67.875 C57.7865,-67.875 59.7083,-68.2344 61.5313,-68.9531 C63.0208,-69.599 64.4531,-70.3438 65.8281,-71.1875 C66.9323,-71.9063 67.5469,-72.2656 67.6719,-72.2656 C68.2656,-72.2656 68.7865,-72.0729 69.2344,-71.6875 C69.7552,-71.1667 70.0156,-70.7396 70.0156,-70.4063 C70.0156,-69.9583 69.401,-69.2135 68.1719,-68.1719 C66.8698,-66.9948 65.013,-65.8203 62.6016,-64.6484 C60.1901,-63.4766 57.651,-62.8906 54.9844,-62.8906 C53.8073,-62.8906 52.3438,-63.0885 50.5938,-63.4844 C49.4792,-56.2552 48.3073,-49.8385 47.0781,-44.2344 C46.0365,-39.2865 43.9531,-34.9583 40.8281,-31.25 C37.8281,-27.5417 34.474,-25.6875 30.7656,-25.6875 C29.2656,-25.6875 27.9323,-25.9792 26.7656,-26.5625 C25.4635,-27.2188 24.0938,-28.1979 22.6563,-29.5 C21.4896,-30.4688 20.3854,-31.3438 19.3438,-32.125 C19.0833,-32.3229 18.9531,-32.6198 18.9531,-33.0156 C18.9531,-33.4635 19.2135,-34.0469 19.7344,-34.7656 C20.2552,-35.349 20.7396,-35.6406 21.1875,-35.6406 C21.5833,-35.6406 22.6927,-34.8281 24.5156,-33.2031 C26.3385,-31.5781 27.9635,-30.7656 29.3906,-30.7656 C31.9948,-30.7656 34.0156,-32.2604 35.4531,-35.25 C36.8802,-38.1875 37.6927,-41.7031 37.8906,-45.7969 C38.2135,-52.5052 38.9635,-59.4427 40.1406,-66.6094 C38.7031,-66.9323 37.6302,-67.0938 36.9219,-67.0938 C33.7969,-67.0938 31.125,-66.4427 28.9063,-65.1406 C26.6979,-63.901 25.5938,-62.2083 25.5938,-60.0625 C25.5938,-58.5 26.1146,-57.2969 27.1563,-56.4531 C28.2604,-55.5365 28.8125,-54.7188 28.8125,-54"/>
<path class="Clef" transform="matrix(0.566929,0,0,0.566929,28.5015,478.905)" d="M21.2969,33.9844 C21.2969,35.4219 20.1875,36.1406 17.9688,36.1406 C16.1458,36.1406 14.5833,35.5833 13.2813,34.4688 C11.9167,33.3646 11.2344,31.9323 11.2344,30.1719 C11.2344,26.9844 13.0885,24.4792 16.7969,22.6563 C20.7031,20.7708 25.0677,19.8281 29.8906,19.8281 C34.5052,19.8281 38.6042,20.4479 42.1875,21.6875 C45.5104,23.0521 47.1719,25.1667 47.1719,28.0313 C47.1719,31.5417 45.3177,34.4688 41.6094,36.8125 C47.0781,37.9271 49.8125,40.3698 49.8125,44.1406 C49.8125,47.2656 48.3438,50.1615 45.4063,52.8281 C42.5417,55.4323 39.1927,56.7344 35.3594,56.7344 C33.7969,56.7344 32.2344,56.3802 30.6719,55.6719 C29.2344,55.0156 28.1927,54.2969 27.5469,53.5156 C26.8906,52.9323 26.5625,52.3802 26.5625,51.8594 C26.5625,51.3385 26.8229,50.9167 27.3438,50.5938 C27.8021,50.1354 28.2917,49.9063 28.8125,49.9063 C29.0729,49.9063 29.5599,50.2318 30.2734,50.8828 C30.987,51.5339 31.9635,51.8594 33.2031,51.8594 C35.0885,51.8594 36.849,51.1406 38.4844,49.7031 C40.0469,48.2135 40.8281,46.4896 40.8281,44.5313 C40.8281,42.8438 40.0469,41.5417 38.4844,40.625 C36.9844,39.7813 35.0625,39.3594 32.7188,39.3594 C32.2604,39.3594 32.0313,38.9688 32.0313,38.1875 C32.0313,36.8854 32.5208,36.2344 33.5,36.2344 C34.9271,36.2344 36.1979,35.6146 37.3125,34.375 C38.4167,32.9479 38.9688,31.4844 38.9688,29.9844 C38.9688,26.7969 36.8542,24.8125 32.625,24.0313 L29.3906,41.6094 C28.5469,45.9635 26.9531,49.7396 24.6094,52.9375 C22.2031,56.125 19.5677,57.7188 16.7031,57.7188 C15.724,57.7188 14.8125,57.5208 13.9688,57.125 C13.1875,56.8021 12.2083,56.151 11.0313,55.1719 C9.72917,54.1302 9.04688,53.5781 8.98438,53.5156 C8.72396,53.2552 8.59375,53.026 8.59375,52.8281 C8.59375,52.4427 8.79167,51.9583 9.1875,51.375 C9.63542,50.9167 10.0885,50.6875 10.5469,50.6875 C10.7448,50.6875 11.526,51.1771 12.8906,52.1563 C13.9948,53.1979 15.1667,53.7188 16.4063,53.7188 C18.8125,53.7188 20.6042,52.2188 21.7813,49.2188 C22.9479,46.0938 23.5313,42.3854 23.5313,38.0938 L23.5313,37.4063 C23.5313,34.7396 23.9896,30.4115 24.9063,24.4219 C23.2083,25.0052 21.875,25.7865 20.9063,26.7656 C19.8646,27.8073 19.3438,28.8802 19.3438,29.9844 C19.3438,30.8906 19.6667,31.6406 20.3125,32.2344 C20.9688,32.8802 21.2969,33.4635 21.2969,33.9844 M5.5625,9.46875 C5.82292,9.46875 6.47396,9.76563 7.51563,10.3594 C8.69271,10.8802 9.57292,11.1406 10.1563,11.1406 C13.0208,11.1406 17.1875,7.75521 22.6563,0.984375 C28.0625,-5.66146 32,-12.6979 34.4688,-20.125 C35.0625,-22.0729 36.5938,-23.0469 39.0625,-23.0469 C40.3021,-23.0469 41.3438,-22.7865 42.1875,-22.2656 C43.1042,-21.8802 43.5625,-21.3281 43.5625,-20.6094 L42.1875,8.59375 C42.1875,10.2917 42.776,11.1406 43.9531,11.1406 C44.3385,11.1406 45.151,10.8802 46.3906,10.3594 C47.5573,9.76563 48.2083,9.46875 48.3438,9.46875 C48.8021,9.46875 49.0313,9.92708 49.0313,10.8438 C49.0313,11.625 48.7344,12.1146 48.1406,12.3125 C47.4323,12.6354 46.3594,13.1563 44.9219,13.875 C43.2969,14.7188 42.026,15.1406 41.1094,15.1406 C40.1406,15.1406 39.2292,14.7188 38.375,13.875 C37.5313,12.8333 36.7865,10.8125 36.1406,7.8125 C35.3594,4.82292 34.7708,0.588542 34.375,-4.89063 C32.3542,-2.21354 30.0781,0.489583 27.5469,3.21875 C28.5156,4.91667 30.5,5.76563 33.5,5.76563 C33.8854,5.76563 34.0781,6.1875 34.0781,7.03125 C34.0781,8.53125 32.5833,9.28125 29.5938,9.28125 C27.0521,9.28125 25.2292,8.40104 24.125,6.64063 L21,9.375 C16.7708,13.0208 13.1563,14.9115 10.1563,15.0469 C9.11458,15.0469 7.75,14.5885 6.0625,13.6719 C4.42708,12.8281 3.60938,12.2083 3.60938,11.8125 C3.60938,11.3646 3.80729,10.8802 4.20313,10.3594 C4.58854,9.76563 5.04167,9.46875 5.5625,9.46875 M23.0469,-43.1719 C23.0469,-41.9323 21.9427,-41.3125 19.7344,-41.3125 C17.776,-41.3125 16.0469,-41.9635 14.5469,-43.2656 C13.1198,-44.5052 12.4063,-46.099 12.4063,-48.0469 C12.4063,-49.8698 12.9583,-51.4323 14.0625,-52.7344 C15.3646,-54.1719 16.9271,-55.151 18.75,-55.6719 C20.0521,-56.1927 22.0052,-56.7135 24.6094,-57.2344 C27.349,-57.4948 29.4635,-57.625 30.9531,-57.625 C32.0677,-57.625 34.2839,-57.0703 37.6016,-55.9609 C40.9193,-54.8516 43.2604,-54.2969 44.625,-54.2969 C46.2604,-54.2969 47.7917,-54.5573 49.2188,-55.0781 C50.5833,-55.6615 51.6927,-56.25 52.5469,-56.8438 C53.3906,-57.4896 53.9115,-57.8125 54.1094,-57.8125 C54.4948,-57.8125 54.9167,-57.651 55.375,-57.3281 C55.7604,-57.0052 55.9531,-56.6771 55.9531,-56.3438 C55.9531,-56.0833 55.4688,-55.4688 54.5,-54.5 C53.3229,-53.4583 51.8229,-52.5469 50,-51.7656 C48.0521,-50.7865 46.0677,-50.2969 44.0469,-50.2969 C43.0052,-50.2969 41.8333,-50.4583 40.5313,-50.7813 C39.6146,-44.4063 38.6719,-39.2292 37.7031,-35.25 C36.849,-31.2813 35.1875,-27.8333 32.7188,-24.9063 C30.3125,-21.9792 27.6406,-20.5156 24.7031,-20.5156 C23.401,-20.5156 22.3281,-20.776 21.4844,-21.2969 C20.3802,-21.8177 19.276,-22.5625 18.1719,-23.5313 C17.1302,-24.5104 16.25,-25.2292 15.5313,-25.6875 C15.2708,-25.9479 15.1406,-26.1771 15.1406,-26.375 C15.1406,-26.8229 15.3021,-27.276 15.625,-27.7344 C15.9479,-28.2552 16.3698,-28.5156 16.8906,-28.5156 C17.151,-28.5156 18.0313,-27.8646 19.5313,-26.5625 C21.0313,-25.2604 22.3646,-24.6094 23.5313,-24.6094 C25.0938,-24.6094 26.3021,-25.1302 27.1563,-26.1719 C28.0625,-27.2135 28.776,-28.776 29.2969,-30.8594 C29.7552,-32.7448 30.0833,-34.8594 30.2813,-37.2031 C30.5417,-39.1615 30.8333,-41.8333 31.1563,-45.2188 C31.3542,-47.1042 31.6771,-49.8073 32.125,-53.3281 C31.0208,-53.5885 30.1458,-53.7188 29.5,-53.7188 C27.1563,-53.7188 25.0365,-53.1979 23.1406,-52.1563 C21.3906,-50.9792 20.5156,-49.6406 20.5156,-48.1406 C20.5156,-47.0365 20.9375,-46.0625 21.7813,-45.2188 C22.625,-44.375 23.0469,-43.6927 23.0469,-43.1719"/>
<path class="Clef" transform="matrix(0.566929,0,0,0.566929,28.5015,321.227)" d="M57.1328,-8.89063 C56.1589,-9.86979 55.6719,-11.0755 55.6719,-12.5078 C55.6719,-13.9401 56.1589,-15.1432 57.1328,-16.1172 C58.1068,-17.0911 59.3099,-17.5781 60.7422,-17.5781 C62.1745,-17.5781 63.3802,-17.0911 64.3594,-16.1172 C65.3385,-15.1432 65.8281,-13.9401 65.8281,-12.5078 C65.8281,-11.0755 65.3385,-9.86979 64.3594,-8.89063 C63.3802,-7.91146 62.1745,-7.42188 60.7422,-7.42188 C59.3099,-7.42188 58.1068,-7.91146 57.1328,-8.89063 M57.1328,16.1172 C56.1589,15.1432 55.6719,13.9401 55.6719,12.5078 C55.6719,11.0755 56.1589,9.86979 57.1328,8.89063 C58.1068,7.91146 59.3099,7.42188 60.7422,7.42188 C62.1745,7.42188 63.3802,7.91146 64.3594,8.89063 C65.3385,9.86979 65.8281,11.0755 65.8281,12.5078 C65.8281,13.9401 65.3385,15.1432 64.3594,16.1172 C63.3802,17.0911 62.1745,17.5781 60.7422,17.5781 C59.3099,17.5781 58.1068,17.0911 57.1328,16.1172 M23.25,-26.2656 C31.9063,-26.2656 39,-24.0885 44.5313,-19.7344 C49.875,-15.1719 52.5469,-8.98438 52.5469,-1.17188 C52.5469,4.09896 51.5052,8.91667 49.4219,13.2813 C47.4635,17.8438 44.8906,21.8802 41.7031,25.3906 C38.4427,28.974 34.5052,32.3594 29.8906,35.5469 C25.3906,38.6719 20.7656,41.474 16.0156,43.9531 C6.31771,48.8281 0.979167,51.2656 0,51.2656 C-0.84375,51.2656 -1.26563,50.8438 -1.26563,50 C-1.26563,49.6771 -1.13542,49.3854 -0.875,49.125 C2.44792,47.1667 6.51563,44.6615 11.3281,41.6094 C14.4531,39.5885 18.099,36.7865 22.2656,33.2031 C26.3073,29.8177 29.4323,26.6302 31.6406,23.6406 C33.9219,20.7031 36.0052,17.0573 37.8906,12.7031 C39.5156,8.33854 40.3281,4.03646 40.3281,-0.203125 C40.3281,-6.51563 38.7656,-12.0156 35.6406,-16.7031 C32.5156,-21.3906 28.3854,-23.7344 23.25,-23.7344 C19.6042,-23.7344 16.4792,-22.5625 13.875,-20.2188 C11.0729,-17.8125 9.05208,-14.7865 7.8125,-11.1406 C9.05208,-11.6615 10.1927,-11.9219 11.2344,-11.9219 C13.9635,-11.9219 16.3073,-10.9427 18.2656,-8.98438 C20.2135,-6.90104 21.1875,-4.52604 21.1875,-1.85938 C21.1875,0.942708 20.2448,3.45313 18.3594,5.67188 C16.3385,7.68229 13.9635,8.6875 11.2344,8.6875 C8.30729,8.6875 5.67188,7.68229 3.32813,5.67188 C1.10938,3.45313 0,0.942708 0,-1.85938 C0,-8.56771 2.28125,-14.2969 6.84375,-19.0469 C11.3333,-23.8594 16.8021,-26.2656 23.25,-26.2656"/>
<path class="Clef" transform="matrix(0.566929,0,0,0.566929,28.5015,200.755)" d="M36.3281,-7.32813 C33.3385,-7.32813 31.8438,-4.88542 31.8438,0 C31.8438,4.88542 33.3385,7.32813 36.3281,7.32813 C37.3073,7.32813 38.7396,6.80729 40.625,5.76563 C42.4479,4.72396 43.9479,4.20313 45.125,4.20313 C51.3021,4.20313 56.6719,6.1875 61.2344,10.1563 C65.724,14.2604 67.9688,19.2083 67.9688,25 C67.9688,41.6667 59.1458,50 41.5,50 C37.2708,50 33.6615,48.6354 30.6719,45.9063 C27.7344,43.1667 26.2656,39.8125 26.2656,35.8438 C26.2656,33.6979 27.0156,31.875 28.5156,30.375 C30.0156,28.875 31.8073,28.125 33.8906,28.125 C35.974,28.125 37.763,28.875 39.2578,30.375 C40.7526,31.875 41.5,33.6979 41.5,35.8438 C41.5,37.1458 40.6875,38.4167 39.0625,39.6563 C37.4375,40.8229 36.625,42.0573 36.625,43.3594 C36.625,44.5365 37.1146,45.4479 38.0938,46.0938 C39,46.8125 40.1354,47.1719 41.5,47.1719 C46.9063,47.1719 50.5859,45.3151 52.5391,41.6016 C54.4922,37.888 55.4688,32.3542 55.4688,25 C55.4688,19.3333 54.8854,15.0365 53.7188,12.1094 C52.4792,8.72396 49.6146,7.03125 45.125,7.03125 C41.7396,7.03125 38.875,8.49479 36.5313,11.4219 C34.3125,14.4219 33.2031,17.9063 33.2031,21.875 C33.2031,22.8542 32.7474,23.3438 31.8359,23.3438 C30.9245,23.3438 30.4688,22.8542 30.4688,21.875 C30.4688,14.125 27.6719,7.45313 22.0781,1.85938 L22.0781,49.0313 C22.0781,49.6771 21.75,50 21.0938,50 L19.0469,50 C18.3281,50 17.9688,49.6771 17.9688,49.0313 L17.9688,-49.0313 C17.9688,-49.6771 18.3281,-50 19.0469,-50 L21.0938,-50 C21.75,-50 22.0781,-49.6771 22.0781,-49.0313 L22.0781,-1.85938 C27.6719,-7.45313 30.4688,-14.125 30.4688,-21.875 C30.4688,-22.8542 30.9245,-23.3438 31.8359,-23.3438 C32.7474,-23.3438 33.2031,-22.8542 33.2031,-21.875 C33.2031,-17.9063 34.3125,-14.4219 36.5313,-11.4219 C38.875,-8.49479 41.7396,-7.03125 45.125,-7.03125 C49.6146,-7.03125 52.4792,-8.72396 53.7188,-12.1094 C54.8854,-15.0365 55.4688,-19.3333 55.4688,-25 C55.4688,-32.3542 54.4922,-37.888 52.5391,-41.6016 C50.5859,-45.3151 46.9063,-47.1719 41.5,-47.1719 C40.1354,-47.1719 39,-46.8125 38.0938,-46.0938 C37.1146,-45.5104 36.625,-44.599 36.625,-43.3594 C36.625,-42.0573 37.4375,-40.8229 39.0625,-39.6563 C40.6875,-38.4167 41.5,-37.1458 41.5,-35.8438 C41.5,-33.6979 40.7526,-31.875 39.2578,-30.375 C37.763,-28.875 35.974,-28.125 33.8906,-28.125 C31.8073,-28.125 30.0156,-28.875 28.5156,-30.375 C27.0156,-31.875 26.2656,-33.6979 26.2656,-35.8438 C26.2656,-39.8125 27.7344,-43.1667 30.6719,-45.9063 C33.6615,-48.6354 37.2708,-50 41.5,-50 C59.1458,-50 67.9688,-41.6667 67.9688,-25 C67.9688,-19.2083 65.724,-14.2604 61.2344,-10.1563 C56.6719,-6.1875 51.3021,-4.20313 45.125,-4.20313 C44.0104,-4.20313 42.5104,-4.72396 40.625,-5.76563 C38.7396,-6.80729 37.3073,-7.32813 36.3281,-7.32813 M12.8906,50 L0.984375,50 C0.328125,50 0,49.6771 0,49.0313 L0,-49.0313 C0,-49.6771 0.328125,-50 0.984375,-50 L12.8906,-50 C13.5469,-50 13.875,-49.6771 13.875,-49.0313 L13.875,49.0313 C13.875,49.6771 13.5469,50 12.8906,50"/>
<path class="Clef" transform="matrix(0.566929,0,0,0.566929,28.5015,80.2825)" d="M36.7188,-25.5938 C36.7188,-25.5938 36.9167,-25.5938 37.3125,-25.5938 C37.5729,-25.6563 37.7969,-25.6875 37.9844,-25.6875 C45.276,-25.6875 51.2656,-23.1146 55.9531,-17.9688 C60.6406,-12.8958 62.9844,-6.97396 62.9844,-0.203125 C62.9844,8.20313 59.5052,15.0417 52.5469,20.3125 C50.724,21.75 48.3438,22.9219 45.4063,23.8281 C45.7396,28.0573 45.9063,31.474 45.9063,34.0781 C45.9063,34.599 45.8385,36.4896 45.7031,39.75 C45.4427,45.8021 43.3594,51.0417 39.4531,55.4688 C35.6823,59.8333 30.9948,62.0156 25.3906,62.0156 C20.1198,62.0156 15.6302,60.1615 11.9219,56.4531 C8.20313,52.6719 6.34375,48.1146 6.34375,42.7813 C6.34375,39.9792 7.42188,37.599 9.57813,35.6406 C11.7865,33.6927 14.3542,32.7188 17.2813,32.7188 C19.8854,32.7188 22.0677,33.7292 23.8281,35.75 C25.651,37.6354 26.5625,39.9792 26.5625,42.7813 C26.5625,45.3125 25.651,47.4896 23.8281,49.3125 C22.0052,51.1354 19.8229,52.0469 17.2813,52.0469 C16.2396,52.0469 15.2344,51.8542 14.2656,51.4688 C17.1302,55.6979 20.9375,57.8125 25.6875,57.8125 C30.1771,57.8125 33.8542,55.9896 36.7188,52.3438 C39.7188,48.5729 41.349,44.1771 41.6094,39.1563 C41.7344,36.0313 41.7969,34.2448 41.7969,33.7969 C41.7969,30.151 41.6667,27.1563 41.4063,24.8125 C38.1563,25.3333 35.2604,25.5938 32.7188,25.5938 C23.6667,25.5938 15.9531,22.0104 9.57813,14.8438 C3.32813,7.61458 0.203125,-0.979167 0.203125,-10.9375 C0.203125,-13.0208 0.395833,-15.1354 0.78125,-17.2813 C1.17708,-19.0417 1.66667,-20.9635 2.25,-23.0469 C2.57292,-24.224 3.45313,-26.1146 4.89063,-28.7188 C5.41146,-29.5 5.9974,-30.4766 6.64844,-31.6484 C7.29948,-32.8203 7.75521,-33.599 8.01563,-33.9844 C8.66146,-35.2865 9.92708,-37.0469 11.8125,-39.2656 C12.3333,-39.849 12.8724,-40.4974 13.4297,-41.2109 C13.987,-41.9245 14.4609,-42.5104 14.8516,-42.9688 C15.2422,-43.4271 15.5339,-43.7865 15.7266,-44.0469 C15.9193,-44.3073 17.3854,-46.0313 20.125,-49.2188 C20.7708,-49.875 21.4036,-50.5755 22.0234,-51.3203 C22.6432,-52.0651 23.1484,-52.651 23.5391,-53.0781 C23.9297,-53.5052 24.224,-53.8125 24.4219,-54 C22.0781,-61.75 20.6094,-67.9375 20.0156,-72.5625 C19.5677,-76.2708 19.3438,-81.349 19.3438,-87.7969 C19.3438,-93.4635 20.6458,-98.7708 23.25,-103.719 C25.7813,-108.854 29.3281,-113.052 33.8906,-116.313 C34.151,-116.51 34.474,-116.609 34.8594,-116.609 C35.3177,-116.609 35.6458,-116.51 35.8438,-116.313 C39.3542,-112.083 42.3802,-106.583 44.9219,-99.8125 C47.526,-93.0417 48.8281,-86.8854 48.8281,-81.3438 C48.8281,-75.0938 47.3333,-69.2344 44.3438,-63.7656 C40.9583,-57.974 36.5938,-51.9844 31.25,-45.7969 C32.6146,-41.5052 34.4375,-34.7708 36.7188,-25.5938 M45.0156,19.8281 C48.401,18.5885 51.0417,16.474 52.9375,13.4844 C55.0208,10.6198 56.0625,7.39583 56.0625,3.8125 C56.0625,-0.8125 54.5,-4.91667 51.375,-8.5 C48.1771,-12.2083 44.1042,-14.2917 39.1563,-14.75 C41.9583,-1.01042 43.9115,10.5156 45.0156,19.8281 M7.23438,-2.73438 C7.23438,3.71354 9.83854,9.38021 15.0469,14.2656 C20.3802,19.0156 26.3698,21.3906 33.0156,21.3906 C35.7448,21.3906 38.4115,21.1927 41.0156,20.7969 C39.974,10.901 37.9219,-0.947917 34.8594,-14.75 C31.151,-14.3542 28.1927,-13.0521 25.9844,-10.8438 C23.8281,-8.5625 22.75,-5.98958 22.75,-3.125 C22.75,1.82292 25.3906,5.82813 30.6719,8.89063 C31.1198,9.34896 31.3438,9.83854 31.3438,10.3594 C31.3438,10.8802 31.1198,11.3646 30.6719,11.8125 C30.276,12.2708 29.7865,12.5 29.2031,12.5 C29.1406,12.5 28.849,12.4375 28.3281,12.3125 C24.6094,10.2917 21.7448,7.6875 19.7344,4.5 C17.8385,1.10417 16.8906,-2.31771 16.8906,-5.76563 C16.8906,-10.2552 18.2917,-14.3229 21.0938,-17.9688 C24.0208,-21.6146 27.8281,-23.9583 32.5156,-25 C30.6927,-32.2917 29.1979,-37.9896 28.0313,-42.0938 C26.9896,-40.9167 25.737,-39.5 24.2734,-37.8438 C22.8099,-36.1875 21.9479,-35.1927 21.6875,-34.8594 C19.3438,-31.8073 17.5521,-29.4323 16.3125,-27.7344 C14.0938,-24.6719 12.4635,-22.0365 11.4219,-19.8281 C10.3177,-17.349 9.34375,-14.6458 8.5,-11.7188 C7.65625,-8.91667 7.23438,-5.92188 7.23438,-2.73438 M39.8438,-102.047 C34.9583,-99.6406 31.1198,-96.1927 28.3281,-91.7031 C25.4635,-87.0781 24.0313,-82.099 24.0313,-76.7656 C24.0313,-72.0781 25.2031,-65.7604 27.5469,-57.8125 C32.2344,-63.4792 35.75,-68.7188 38.0938,-73.5313 C40.5625,-78.6146 41.7969,-83.9219 41.7969,-89.4531 C41.7969,-93.6198 41.1458,-97.8177 39.8438,-102.047"/>
</svg>
