<?xml version="1.0" encoding="UTF-8" standalone="no"?>
<svg width="637.794px" height="765.353px" viewBox="0 0 637.794 765.353"
 xmlns="http://www.w3.org/2000/svg" xmlns:xlink="http://www.w3.org/1999/xlink" version="1.2" baseProfile="tiny">
<title>harmonicminor (37)</title>
<desc>Generated by MuseScore 3.4.2</desc>
<polyline class="StaffLines" fill="none" stroke="#000000" stroke-width="1.13" stroke-linejoin="bevel" points="14.1732,37.7628 623.621,37.7628"/>
<polyline class="StaffLines" fill="none" stroke="#000000" stroke-width="1.13" stroke-linejoin="bevel" points="14.1732,51.936 623.621,51.936"/>
<polyline class="StaffLines" fill="none" stroke="#000000" stroke-width="1.13" stroke-linejoin="bevel" points="14.1732,66.1093 623.621,66.1093"/>
<polyline class="StaffLines" fill="none" stroke="#000000" stroke-width="1.13" stroke-linejoin="bevel" points="14.1732,80.2825 623.621,80.2825"/>
<polyline class="StaffLines" fill="none" stroke="#000000" stroke-width="1.13" stroke-linejoin="bevel" points="14.1732,94.4557 623.621,94.4557"/>
<polyline class="StaffLines" fill="none" stroke="#000000" stroke-width="1.13" stroke-linejoin="bevel" points="14.1732,172.408 623.621,172.408"/>
<polyline class="StaffLines" fill="none" stroke="#000000" stroke-width="1.13" stroke-linejoin="bevel" points="14.1732,186.582 623.621,186.582"/>
<polyline class="StaffLines" fill="none" stroke="#000000" stroke-width="1.13" stroke-linejoin="bevel" points="14.1732,200.755 623.621,200.755"/>
<polyline class="StaffLines" fill="none" stroke="#000000" stroke-width="1.13" stroke-linejoin="bevel" points="14.1732,214.928 623.621,214.928"/>
<polyline class="StaffLines" fill="none" stroke="#000000" stroke-width="1.13" stroke-linejoin="bevel" points="14.1732,229.101 623.621,229.101"/>
<polyline class="StaffLines" fill="none" stroke="#000000" stroke-width="1.13" stroke-linejoin="bevel" points="14.1732,307.054 623.621,307.054"/>
<polyline class="StaffLines" fill="none" stroke="#000000" stroke-width="1.13" stroke-linejoin="bevel" points="14.1732,321.227 623.621,321.227"/>
<polyline class="StaffLines" fill="none" stroke="#000000" stroke-width="1.13" stroke-linejoin="bevel" points="14.1732,335.401 623.621,335.401"/>
<polyline class="StaffLines" fill="none" stroke="#000000" stroke-width="1.13" stroke-linejoin="bevel" points="14.1732,349.574 623.621,349.574"/>
<polyline class="StaffLines" fill="none" stroke="#000000" stroke-width="1.13" stroke-linejoin="bevel" points="14.1732,363.747 623.621,363.747"/>
<polyline class="StaffLines" fill="none" stroke="#000000" stroke-width="1.13" stroke-linejoin="bevel" points="14.1732,441.7 623.621,441.7"/>
<polyline class="StaffLines" fill="none" stroke="#000000" stroke-width="1.13" stroke-linejoin="bevel" points="14.1732,466.503 623.621,466.503"/>
<polyline class="StaffLines" fill="none" stroke="#000000" stroke-width="1.13" stroke-linejoin="bevel" points="14.1732,491.306 623.621,491.306"/>
<polyline class="StaffLines" fill="none" stroke="#000000" stroke-width="1.13" stroke-linejoin="bevel" points="14.1732,516.109 623.621,516.109"/>
<polyline class="StaffLines" fill="none" stroke="#000000" stroke-width="1.13" stroke-linejoin="bevel" points="14.1732,594.062 623.621,594.062"/>
<polyline class="StaffLines" fill="none" stroke="#000000" stroke-width="1.13" stroke-linejoin="bevel" points="14.1732,618.865 623.621,618.865"/>
<polyline class="StaffLines" fill="none" stroke="#000000" stroke-width="1.13" stroke-linejoin="bevel" points="14.1732,643.668 623.621,643.668"/>
<polyline class="StaffLines" fill="none" stroke="#000000" stroke-width="1.13" stroke-linejoin="bevel" points="14.1732,668.471 623.621,668.471"/>
<polyline class="StaffLines" fill="none" stroke="#000000" stroke-width="1.13" stroke-linejoin="bevel" points="14.1732,693.275 623.621,693.275"/>
<polyline class="StaffLines" fill="none" stroke="#000000" stroke-width="1.13" stroke-linejoin="bevel" points="14.1732,718.078 623.621,718.078"/>
<path class="Accidental" transform="matrix(0.566929,0,0,0.566929,99.9833,377.92)" d="M4.59375,-4.10938 L4.59375,3.60938 C4.59375,6.34896 4.72396,8.53125 4.98438,10.1563 C7.13021,8.33333 8.66146,6.96875 9.57813,6.0625 C10.6198,5.02083 11.6615,3.58594 12.7031,1.75781 C13.7448,-0.0703125 14.2656,-1.89583 14.2656,-3.71875 C14.2656,-5.54167 13.875,-7.10417 13.0938,-8.40625 C12.3125,-9.70833 11.2708,-10.3594 9.96875,-10.3594 C8.40625,-10.3594 7.10417,-9.77083 6.0625,-8.59375 C5.08333,-7.29167 4.59375,-5.79688 4.59375,-4.10938 M0.484375,13.7656 L-0.78125,-45.7031 C0.135417,-46.224 1.04948,-46.4844 1.96094,-46.4844 C2.8724,-46.4844 3.78125,-46.224 4.6875,-45.7031 L3.90625,-11.2344 C6.57292,-13.5156 9.63542,-14.6563 13.0938,-14.6563 C15.625,-14.6563 17.737,-13.6146 19.4297,-11.5313 C21.1224,-9.44792 21.9688,-7.06771 21.9688,-4.39063 C21.9688,-2.70313 21.4167,-0.911458 20.3125,0.984375 C19.2708,2.73438 18.1667,4.09896 17,5.07813 C16.3438,5.59896 14.6823,6.90104 12.0156,8.98438 C11.2344,9.56771 10.3073,10.25 9.23438,11.0313 C8.16146,11.8125 7.49479,12.3021 7.23438,12.5 C6.77604,12.7604 6.34896,13.2813 5.95313,14.0625 C5.50521,14.7188 4.98438,15.2708 4.39063,15.7188 C3.94271,16.1146 3.39323,16.3125 2.74219,16.3125 C2.09115,16.3125 1.56771,16.0833 1.17188,15.625 C0.713542,15.1667 0.484375,14.5469 0.484375,13.7656"/>
<path class="Accidental" transform="matrix(0.566929,0,0,0.566929,228.53,363.747)" d="M4.59375,-4.10938 L4.59375,3.60938 C4.59375,6.34896 4.72396,8.53125 4.98438,10.1563 C7.13021,8.33333 8.66146,6.96875 9.57813,6.0625 C10.6198,5.02083 11.6615,3.58594 12.7031,1.75781 C13.7448,-0.0703125 14.2656,-1.89583 14.2656,-3.71875 C14.2656,-5.54167 13.875,-7.10417 13.0938,-8.40625 C12.3125,-9.70833 11.2708,-10.3594 9.96875,-10.3594 C8.40625,-10.3594 7.10417,-9.77083 6.0625,-8.59375 C5.08333,-7.29167 4.59375,-5.79688 4.59375,-4.10938 M0.484375,13.7656 L-0.78125,-45.7031 C0.135417,-46.224 1.04948,-46.4844 1.96094,-46.4844 C2.8724,-46.4844 3.78125,-46.224 4.6875,-45.7031 L3.90625,-11.2344 C6.57292,-13.5156 9.63542,-14.6563 13.0938,-14.6563 C15.625,-14.6563 17.737,-13.6146 19.4297,-11.5313 C21.1224,-9.44792 21.9688,-7.06771 21.9688,-4.39063 C21.9688,-2.70313 21.4167,-0.911458 20.3125,0.984375 C19.2708,2.73438 18.1667,4.09896 17,5.07813 C16.3438,5.59896 14.6823,6.90104 12.0156,8.98438 C11.2344,9.56771 10.3073,10.25 9.23438,11.0313 C8.16146,11.8125 7.49479,12.3021 7.23438,12.5 C6.77604,12.7604 6.34896,13.2813 5.95313,14.0625 C5.50521,14.7188 4.98438,15.2708 4.39063,15.7188 C3.94271,16.1146 3.39323,16.3125 2.74219,16.3125 C2.09115,16.3125 1.56771,16.0833 1.17188,15.625 C0.713542,15.1667 0.484375,14.5469 0.484375,13.7656"/>
<path class="Accidental" transform="matrix(0.566929,0,0,0.566929,291.386,356.66)" d="M4.59375,-4.10938 L4.59375,3.60938 C4.59375,6.34896 4.72396,8.53125 4.98438,10.1563 C7.13021,8.33333 8.66146,6.96875 9.57813,6.0625 C10.6198,5.02083 11.6615,3.58594 12.7031,1.75781 C13.7448,-0.0703125 14.2656,-1.89583 14.2656,-3.71875 C14.2656,-5.54167 13.875,-7.10417 13.0938,-8.40625 C12.3125,-9.70833 11.2708,-10.3594 9.96875,-10.3594 C8.40625,-10.3594 7.10417,-9.77083 6.0625,-8.59375 C5.08333,-7.29167 4.59375,-5.79688 4.59375,-4.10938 M0.484375,13.7656 L-0.78125,-45.7031 C0.135417,-46.224 1.04948,-46.4844 1.96094,-46.4844 C2.8724,-46.4844 3.78125,-46.224 4.6875,-45.7031 L3.90625,-11.2344 C6.57292,-13.5156 9.63542,-14.6563 13.0938,-14.6563 C15.625,-14.6563 17.737,-13.6146 19.4297,-11.5313 C21.1224,-9.44792 21.9688,-7.06771 21.9688,-4.39063 C21.9688,-2.70313 21.4167,-0.911458 20.3125,0.984375 C19.2708,2.73438 18.1667,4.09896 17,5.07813 C16.3438,5.59896 14.6823,6.90104 12.0156,8.98438 C11.2344,9.56771 10.3073,10.25 9.23438,11.0313 C8.16146,11.8125 7.49479,12.3021 7.23438,12.5 C6.77604,12.7604 6.34896,13.2813 5.95313,14.0625 C5.50521,14.7188 4.98438,15.2708 4.39063,15.7188 C3.94271,16.1146 3.39323,16.3125 2.74219,16.3125 C2.09115,16.3125 1.56771,16.0833 1.17188,15.625 C0.713542,15.1667 0.484375,14.5469 0.484375,13.7656"/>
<path class="Accidental" transform="matrix(0.566929,0,0,0.566929,354.242,349.574)" d="M4.59375,-4.10938 L4.59375,3.60938 C4.59375,6.34896 4.72396,8.53125 4.98438,10.1563 C7.13021,8.33333 8.66146,6.96875 9.57813,6.0625 C10.6198,5.02083 11.6615,3.58594 12.7031,1.75781 C13.7448,-0.0703125 14.2656,-1.89583 14.2656,-3.71875 C14.2656,-5.54167 13.875,-7.10417 13.0938,-8.40625 C12.3125,-9.70833 11.2708,-10.3594 9.96875,-10.3594 C8.40625,-10.3594 7.10417,-9.77083 6.0625,-8.59375 C5.08333,-7.29167 4.59375,-5.79688 4.59375,-4.10938 M0.484375,13.7656 L-0.78125,-45.7031 C0.135417,-46.224 1.04948,-46.4844 1.96094,-46.4844 C2.8724,-46.4844 3.78125,-46.224 4.6875,-45.7031 L3.90625,-11.2344 C6.57292,-13.5156 9.63542,-14.6563 13.0938,-14.6563 C15.625,-14.6563 17.737,-13.6146 19.4297,-11.5313 C21.1224,-9.44792 21.9688,-7.06771 21.9688,-4.39063 C21.9688,-2.70313 21.4167,-0.911458 20.3125,0.984375 C19.2708,2.73438 18.1667,4.09896 17,5.07813 C16.3438,5.59896 14.6823,6.90104 12.0156,8.98438 C11.2344,9.56771 10.3073,10.25 9.23438,11.0313 C8.16146,11.8125 7.49479,12.3021 7.23438,12.5 C6.77604,12.7604 6.34896,13.2813 5.95313,14.0625 C5.50521,14.7188 4.98438,15.2708 4.39063,15.7188 C3.94271,16.1146 3.39323,16.3125 2.74219,16.3125 C2.09115,16.3125 1.56771,16.0833 1.17188,15.625 C0.713542,15.1667 0.484375,14.5469 0.484375,13.7656"/>
<path class="Accidental" transform="matrix(0.566929,0,0,0.566929,417.097,342.487)" d="M4.59375,-4.10938 L4.59375,3.60938 C4.59375,6.34896 4.72396,8.53125 4.98438,10.1563 C7.13021,8.33333 8.66146,6.96875 9.57813,6.0625 C10.6198,5.02083 11.6615,3.58594 12.7031,1.75781 C13.7448,-0.0703125 14.2656,-1.89583 14.2656,-3.71875 C14.2656,-5.54167 13.875,-7.10417 13.0938,-8.40625 C12.3125,-9.70833 11.2708,-10.3594 9.96875,-10.3594 C8.40625,-10.3594 7.10417,-9.77083 6.0625,-8.59375 C5.08333,-7.29167 4.59375,-5.79688 4.59375,-4.10938 M0.484375,13.7656 L-0.78125,-45.7031 C0.135417,-46.224 1.04948,-46.4844 1.96094,-46.4844 C2.8724,-46.4844 3.78125,-46.224 4.6875,-45.7031 L3.90625,-11.2344 C6.57292,-13.5156 9.63542,-14.6563 13.0938,-14.6563 C15.625,-14.6563 17.737,-13.6146 19.4297,-11.5313 C21.1224,-9.44792 21.9688,-7.06771 21.9688,-4.39063 C21.9688,-2.70313 21.4167,-0.911458 20.3125,0.984375 C19.2708,2.73438 18.1667,4.09896 17,5.07813 C16.3438,5.59896 14.6823,6.90104 12.0156,8.98438 C11.2344,9.56771 10.3073,10.25 9.23438,11.0313 C8.16146,11.8125 7.49479,12.3021 7.23438,12.5 C6.77604,12.7604 6.34896,13.2813 5.95313,14.0625 C5.50521,14.7188 4.98438,15.2708 4.39063,15.7188 C3.94271,16.1146 3.39323,16.3125 2.74219,16.3125 C2.09115,16.3125 1.56771,16.0833 1.17188,15.625 C0.713542,15.1667 0.484375,14.5469 0.484375,13.7656"/>
<path class="Accidental" transform="matrix(0.566929,0,0,0.566929,542.809,328.314)" d="M4.59375,-4.10938 L4.59375,3.60938 C4.59375,6.34896 4.72396,8.53125 4.98438,10.1563 C7.13021,8.33333 8.66146,6.96875 9.57813,6.0625 C10.6198,5.02083 11.6615,3.58594 12.7031,1.75781 C13.7448,-0.0703125 14.2656,-1.89583 14.2656,-3.71875 C14.2656,-5.54167 13.875,-7.10417 13.0938,-8.40625 C12.3125,-9.70833 11.2708,-10.3594 9.96875,-10.3594 C8.40625,-10.3594 7.10417,-9.77083 6.0625,-8.59375 C5.08333,-7.29167 4.59375,-5.79688 4.59375,-4.10938 M0.484375,13.7656 L-0.78125,-45.7031 C0.135417,-46.224 1.04948,-46.4844 1.96094,-46.4844 C2.8724,-46.4844 3.78125,-46.224 4.6875,-45.7031 L3.90625,-11.2344 C6.57292,-13.5156 9.63542,-14.6563 13.0938,-14.6563 C15.625,-14.6563 17.737,-13.6146 19.4297,-11.5313 C21.1224,-9.44792 21.9688,-7.06771 21.9688,-4.39063 C21.9688,-2.70313 21.4167,-0.911458 20.3125,0.984375 C19.2708,2.73438 18.1667,4.09896 17,5.07813 C16.3438,5.59896 14.6823,6.90104 12.0156,8.98438 C11.2344,9.56771 10.3073,10.25 9.23438,11.0313 C8.16146,11.8125 7.49479,12.3021 7.23438,12.5 C6.77604,12.7604 6.34896,13.2813 5.95313,14.0625 C5.50521,14.7188 4.98438,15.2708 4.39063,15.7188 C3.94271,16.1146 3.39323,16.3125 2.74219,16.3125 C2.09115,16.3125 1.56771,16.0833 1.17188,15.625 C0.713542,15.1667 0.484375,14.5469 0.484375,13.7656"/>
<path class="Accidental" transform="matrix(0.566929,0,0,0.566929,102.818,236.188)" d="M4.59375,-4.10938 L4.59375,3.60938 C4.59375,6.34896 4.72396,8.53125 4.98438,10.1563 C7.13021,8.33333 8.66146,6.96875 9.57813,6.0625 C10.6198,5.02083 11.6615,3.58594 12.7031,1.75781 C13.7448,-0.0703125 14.2656,-1.89583 14.2656,-3.71875 C14.2656,-5.54167 13.875,-7.10417 13.0938,-8.40625 C12.3125,-9.70833 11.2708,-10.3594 9.96875,-10.3594 C8.40625,-10.3594 7.10417,-9.77083 6.0625,-8.59375 C5.08333,-7.29167 4.59375,-5.79688 4.59375,-4.10938 M0.484375,13.7656 L-0.78125,-45.7031 C0.135417,-46.224 1.04948,-46.4844 1.96094,-46.4844 C2.8724,-46.4844 3.78125,-46.224 4.6875,-45.7031 L3.90625,-11.2344 C6.57292,-13.5156 9.63542,-14.6563 13.0938,-14.6563 C15.625,-14.6563 17.737,-13.6146 19.4297,-11.5313 C21.1224,-9.44792 21.9688,-7.06771 21.9688,-4.39063 C21.9688,-2.70313 21.4167,-0.911458 20.3125,0.984375 C19.2708,2.73438 18.1667,4.09896 17,5.07813 C16.3438,5.59896 14.6823,6.90104 12.0156,8.98438 C11.2344,9.56771 10.3073,10.25 9.23438,11.0313 C8.16146,11.8125 7.49479,12.3021 7.23438,12.5 C6.77604,12.7604 6.34896,13.2813 5.95313,14.0625 C5.50521,14.7188 4.98438,15.2708 4.39063,15.7188 C3.94271,16.1146 3.39323,16.3125 2.74219,16.3125 C2.09115,16.3125 1.56771,16.0833 1.17188,15.625 C0.713542,15.1667 0.484375,14.5469 0.484375,13.7656"/>
<path class="Accidental" transform="matrix(0.566929,0,0,0.566929,228.53,222.015)" d="M4.59375,-4.10938 L4.59375,3.60938 C4.59375,6.34896 4.72396,8.53125 4.98438,10.1563 C7.13021,8.33333 8.66146,6.96875 9.57813,6.0625 C10.6198,5.02083 11.6615,3.58594 12.7031,1.75781 C13.7448,-0.0703125 14.2656,-1.89583 14.2656,-3.71875 C14.2656,-5.54167 13.875,-7.10417 13.0938,-8.40625 C12.3125,-9.70833 11.2708,-10.3594 9.96875,-10.3594 C8.40625,-10.3594 7.10417,-9.77083 6.0625,-8.59375 C5.08333,-7.29167 4.59375,-5.79688 4.59375,-4.10938 M0.484375,13.7656 L-0.78125,-45.7031 C0.135417,-46.224 1.04948,-46.4844 1.96094,-46.4844 C2.8724,-46.4844 3.78125,-46.224 4.6875,-45.7031 L3.90625,-11.2344 C6.57292,-13.5156 9.63542,-14.6563 13.0938,-14.6563 C15.625,-14.6563 17.737,-13.6146 19.4297,-11.5313 C21.1224,-9.44792 21.9688,-7.06771 21.9688,-4.39063 C21.9688,-2.70313 21.4167,-0.911458 20.3125,0.984375 C19.2708,2.73438 18.1667,4.09896 17,5.07813 C16.3438,5.59896 14.6823,6.90104 12.0156,8.98438 C11.2344,9.56771 10.3073,10.25 9.23438,11.0313 C8.16146,11.8125 7.49479,12.3021 7.23438,12.5 C6.77604,12.7604 6.34896,13.2813 5.95313,14.0625 C5.50521,14.7188 4.98438,15.2708 4.39063,15.7188 C3.94271,16.1146 3.39323,16.3125 2.74219,16.3125 C2.09115,16.3125 1.56771,16.0833 1.17188,15.625 C0.713542,15.1667 0.484375,14.5469 0.484375,13.7656"/>
<path class="Accidental" transform="matrix(0.566929,0,0,0.566929,291.386,214.928)" d="M4.59375,-4.10938 L4.59375,3.60938 C4.59375,6.34896 4.72396,8.53125 4.98438,10.1563 C7.13021,8.33333 8.66146,6.96875 9.57813,6.0625 C10.6198,5.02083 11.6615,3.58594 12.7031,1.75781 C13.7448,-0.0703125 14.2656,-1.89583 14.2656,-3.71875 C14.2656,-5.54167 13.875,-7.10417 13.0938,-8.40625 C12.3125,-9.70833 11.2708,-10.3594 9.96875,-10.3594 C8.40625,-10.3594 7.10417,-9.77083 6.0625,-8.59375 C5.08333,-7.29167 4.59375,-5.79688 4.59375,-4.10938 M0.484375,13.7656 L-0.78125,-45.7031 C0.135417,-46.224 1.04948,-46.4844 1.96094,-46.4844 C2.8724,-46.4844 3.78125,-46.224 4.6875,-45.7031 L3.90625,-11.2344 C6.57292,-13.5156 9.63542,-14.6563 13.0938,-14.6563 C15.625,-14.6563 17.737,-13.6146 19.4297,-11.5313 C21.1224,-9.44792 21.9688,-7.06771 21.9688,-4.39063 C21.9688,-2.70313 21.4167,-0.911458 20.3125,0.984375 C19.2708,2.73438 18.1667,4.09896 17,5.07813 C16.3438,5.59896 14.6823,6.90104 12.0156,8.98438 C11.2344,9.56771 10.3073,10.25 9.23438,11.0313 C8.16146,11.8125 7.49479,12.3021 7.23438,12.5 C6.77604,12.7604 6.34896,13.2813 5.95313,14.0625 C5.50521,14.7188 4.98438,15.2708 4.39063,15.7188 C3.94271,16.1146 3.39323,16.3125 2.74219,16.3125 C2.09115,16.3125 1.56771,16.0833 1.17188,15.625 C0.713542,15.1667 0.484375,14.5469 0.484375,13.7656"/>
<path class="Accidental" transform="matrix(0.566929,0,0,0.566929,354.242,207.842)" d="M4.59375,-4.10938 L4.59375,3.60938 C4.59375,6.34896 4.72396,8.53125 4.98438,10.1563 C7.13021,8.33333 8.66146,6.96875 9.57813,6.0625 C10.6198,5.02083 11.6615,3.58594 12.7031,1.75781 C13.7448,-0.0703125 14.2656,-1.89583 14.2656,-3.71875 C14.2656,-5.54167 13.875,-7.10417 13.0938,-8.40625 C12.3125,-9.70833 11.2708,-10.3594 9.96875,-10.3594 C8.40625,-10.3594 7.10417,-9.77083 6.0625,-8.59375 C5.08333,-7.29167 4.59375,-5.79688 4.59375,-4.10938 M0.484375,13.7656 L-0.78125,-45.7031 C0.135417,-46.224 1.04948,-46.4844 1.96094,-46.4844 C2.8724,-46.4844 3.78125,-46.224 4.6875,-45.7031 L3.90625,-11.2344 C6.57292,-13.5156 9.63542,-14.6563 13.0938,-14.6563 C15.625,-14.6563 17.737,-13.6146 19.4297,-11.5313 C21.1224,-9.44792 21.9688,-7.06771 21.9688,-4.39063 C21.9688,-2.70313 21.4167,-0.911458 20.3125,0.984375 C19.2708,2.73438 18.1667,4.09896 17,5.07813 C16.3438,5.59896 14.6823,6.90104 12.0156,8.98438 C11.2344,9.56771 10.3073,10.25 9.23438,11.0313 C8.16146,11.8125 7.49479,12.3021 7.23438,12.5 C6.77604,12.7604 6.34896,13.2813 5.95313,14.0625 C5.50521,14.7188 4.98438,15.2708 4.39063,15.7188 C3.94271,16.1146 3.39323,16.3125 2.74219,16.3125 C2.09115,16.3125 1.56771,16.0833 1.17188,15.625 C0.713542,15.1667 0.484375,14.5469 0.484375,13.7656"/>
<path class="Accidental" transform="matrix(0.566929,0,0,0.566929,417.097,200.755)" d="M4.59375,-4.10938 L4.59375,3.60938 C4.59375,6.34896 4.72396,8.53125 4.98438,10.1563 C7.13021,8.33333 8.66146,6.96875 9.57813,6.0625 C10.6198,5.02083 11.6615,3.58594 12.7031,1.75781 C13.7448,-0.0703125 14.2656,-1.89583 14.2656,-3.71875 C14.2656,-5.54167 13.875,-7.10417 13.0938,-8.40625 C12.3125,-9.70833 11.2708,-10.3594 9.96875,-10.3594 C8.40625,-10.3594 7.10417,-9.77083 6.0625,-8.59375 C5.08333,-7.29167 4.59375,-5.79688 4.59375,-4.10938 M0.484375,13.7656 L-0.78125,-45.7031 C0.135417,-46.224 1.04948,-46.4844 1.96094,-46.4844 C2.8724,-46.4844 3.78125,-46.224 4.6875,-45.7031 L3.90625,-11.2344 C6.57292,-13.5156 9.63542,-14.6563 13.0938,-14.6563 C15.625,-14.6563 17.737,-13.6146 19.4297,-11.5313 C21.1224,-9.44792 21.9688,-7.06771 21.9688,-4.39063 C21.9688,-2.70313 21.4167,-0.911458 20.3125,0.984375 C19.2708,2.73438 18.1667,4.09896 17,5.07813 C16.3438,5.59896 14.6823,6.90104 12.0156,8.98438 C11.2344,9.56771 10.3073,10.25 9.23438,11.0313 C8.16146,11.8125 7.49479,12.3021 7.23438,12.5 C6.77604,12.7604 6.34896,13.2813 5.95313,14.0625 C5.50521,14.7188 4.98438,15.2708 4.39063,15.7188 C3.94271,16.1146 3.39323,16.3125 2.74219,16.3125 C2.09115,16.3125 1.56771,16.0833 1.17188,15.625 C0.713542,15.1667 0.484375,14.5469 0.484375,13.7656"/>
<path class="Accidental" transform="matrix(0.566929,0,0,0.566929,542.809,186.582)" d="M4.59375,-4.10938 L4.59375,3.60938 C4.59375,6.34896 4.72396,8.53125 4.98438,10.1563 C7.13021,8.33333 8.66146,6.96875 9.57813,6.0625 C10.6198,5.02083 11.6615,3.58594 12.7031,1.75781 C13.7448,-0.0703125 14.2656,-1.89583 14.2656,-3.71875 C14.2656,-5.54167 13.875,-7.10417 13.0938,-8.40625 C12.3125,-9.70833 11.2708,-10.3594 9.96875,-10.3594 C8.40625,-10.3594 7.10417,-9.77083 6.0625,-8.59375 C5.08333,-7.29167 4.59375,-5.79688 4.59375,-4.10938 M0.484375,13.7656 L-0.78125,-45.7031 C0.135417,-46.224 1.04948,-46.4844 1.96094,-46.4844 C2.8724,-46.4844 3.78125,-46.224 4.6875,-45.7031 L3.90625,-11.2344 C6.57292,-13.5156 9.63542,-14.6563 13.0938,-14.6563 C15.625,-14.6563 17.737,-13.6146 19.4297,-11.5313 C21.1224,-9.44792 21.9688,-7.06771 21.9688,-4.39063 C21.9688,-2.70313 21.4167,-0.911458 20.3125,0.984375 C19.2708,2.73438 18.1667,4.09896 17,5.07813 C16.3438,5.59896 14.6823,6.90104 12.0156,8.98438 C11.2344,9.56771 10.3073,10.25 9.23438,11.0313 C8.16146,11.8125 7.49479,12.3021 7.23438,12.5 C6.77604,12.7604 6.34896,13.2813 5.95313,14.0625 C5.50521,14.7188 4.98438,15.2708 4.39063,15.7188 C3.94271,16.1146 3.39323,16.3125 2.74219,16.3125 C2.09115,16.3125 1.56771,16.0833 1.17188,15.625 C0.713542,15.1667 0.484375,14.5469 0.484375,13.7656"/>
<path class="Accidental" transform="matrix(0.566929,0,0,0.566929,102.818,94.4557)" d="M4.59375,-4.10938 L4.59375,3.60938 C4.59375,6.34896 4.72396,8.53125 4.98438,10.1563 C7.13021,8.33333 8.66146,6.96875 9.57813,6.0625 C10.6198,5.02083 11.6615,3.58594 12.7031,1.75781 C13.7448,-0.0703125 14.2656,-1.89583 14.2656,-3.71875 C14.2656,-5.54167 13.875,-7.10417 13.0938,-8.40625 C12.3125,-9.70833 11.2708,-10.3594 9.96875,-10.3594 C8.40625,-10.3594 7.10417,-9.77083 6.0625,-8.59375 C5.08333,-7.29167 4.59375,-5.79688 4.59375,-4.10938 M0.484375,13.7656 L-0.78125,-45.7031 C0.135417,-46.224 1.04948,-46.4844 1.96094,-46.4844 C2.8724,-46.4844 3.78125,-46.224 4.6875,-45.7031 L3.90625,-11.2344 C6.57292,-13.5156 9.63542,-14.6563 13.0938,-14.6563 C15.625,-14.6563 17.737,-13.6146 19.4297,-11.5313 C21.1224,-9.44792 21.9688,-7.06771 21.9688,-4.39063 C21.9688,-2.70313 21.4167,-0.911458 20.3125,0.984375 C19.2708,2.73438 18.1667,4.09896 17,5.07813 C16.3438,5.59896 14.6823,6.90104 12.0156,8.98438 C11.2344,9.56771 10.3073,10.25 9.23438,11.0313 C8.16146,11.8125 7.49479,12.3021 7.23438,12.5 C6.77604,12.7604 6.34896,13.2813 5.95313,14.0625 C5.50521,14.7188 4.98438,15.2708 4.39063,15.7188 C3.94271,16.1146 3.39323,16.3125 2.74219,16.3125 C2.09115,16.3125 1.56771,16.0833 1.17188,15.625 C0.713542,15.1667 0.484375,14.5469 0.484375,13.7656"/>
<path class="Accidental" transform="matrix(0.566929,0,0,0.566929,228.53,80.2825)" d="M4.59375,-4.10938 L4.59375,3.60938 C4.59375,6.34896 4.72396,8.53125 4.98438,10.1563 C7.13021,8.33333 8.66146,6.96875 9.57813,6.0625 C10.6198,5.02083 11.6615,3.58594 12.7031,1.75781 C13.7448,-0.0703125 14.2656,-1.89583 14.2656,-3.71875 C14.2656,-5.54167 13.875,-7.10417 13.0938,-8.40625 C12.3125,-9.70833 11.2708,-10.3594 9.96875,-10.3594 C8.40625,-10.3594 7.10417,-9.77083 6.0625,-8.59375 C5.08333,-7.29167 4.59375,-5.79688 4.59375,-4.10938 M0.484375,13.7656 L-0.78125,-45.7031 C0.135417,-46.224 1.04948,-46.4844 1.96094,-46.4844 C2.8724,-46.4844 3.78125,-46.224 4.6875,-45.7031 L3.90625,-11.2344 C6.57292,-13.5156 9.63542,-14.6563 13.0938,-14.6563 C15.625,-14.6563 17.737,-13.6146 19.4297,-11.5313 C21.1224,-9.44792 21.9688,-7.06771 21.9688,-4.39063 C21.9688,-2.70313 21.4167,-0.911458 20.3125,0.984375 C19.2708,2.73438 18.1667,4.09896 17,5.07813 C16.3438,5.59896 14.6823,6.90104 12.0156,8.98438 C11.2344,9.56771 10.3073,10.25 9.23438,11.0313 C8.16146,11.8125 7.49479,12.3021 7.23438,12.5 C6.77604,12.7604 6.34896,13.2813 5.95313,14.0625 C5.50521,14.7188 4.98438,15.2708 4.39063,15.7188 C3.94271,16.1146 3.39323,16.3125 2.74219,16.3125 C2.09115,16.3125 1.56771,16.0833 1.17188,15.625 C0.713542,15.1667 0.484375,14.5469 0.484375,13.7656"/>
<path class="Accidental" transform="matrix(0.566929,0,0,0.566929,291.386,73.1959)" d="M4.59375,-4.10938 L4.59375,3.60938 C4.59375,6.34896 4.72396,8.53125 4.98438,10.1563 C7.13021,8.33333 8.66146,6.96875 9.57813,6.0625 C10.6198,5.02083 11.6615,3.58594 12.7031,1.75781 C13.7448,-0.0703125 14.2656,-1.89583 14.2656,-3.71875 C14.2656,-5.54167 13.875,-7.10417 13.0938,-8.40625 C12.3125,-9.70833 11.2708,-10.3594 9.96875,-10.3594 C8.40625,-10.3594 7.10417,-9.77083 6.0625,-8.59375 C5.08333,-7.29167 4.59375,-5.79688 4.59375,-4.10938 M0.484375,13.7656 L-0.78125,-45.7031 C0.135417,-46.224 1.04948,-46.4844 1.96094,-46.4844 C2.8724,-46.4844 3.78125,-46.224 4.6875,-45.7031 L3.90625,-11.2344 C6.57292,-13.5156 9.63542,-14.6563 13.0938,-14.6563 C15.625,-14.6563 17.737,-13.6146 19.4297,-11.5313 C21.1224,-9.44792 21.9688,-7.06771 21.9688,-4.39063 C21.9688,-2.70313 21.4167,-0.911458 20.3125,0.984375 C19.2708,2.73438 18.1667,4.09896 17,5.07813 C16.3438,5.59896 14.6823,6.90104 12.0156,8.98438 C11.2344,9.56771 10.3073,10.25 9.23438,11.0313 C8.16146,11.8125 7.49479,12.3021 7.23438,12.5 C6.77604,12.7604 6.34896,13.2813 5.95313,14.0625 C5.50521,14.7188 4.98438,15.2708 4.39063,15.7188 C3.94271,16.1146 3.39323,16.3125 2.74219,16.3125 C2.09115,16.3125 1.56771,16.0833 1.17188,15.625 C0.713542,15.1667 0.484375,14.5469 0.484375,13.7656"/>
<path class="Accidental" transform="matrix(0.566929,0,0,0.566929,354.242,66.1093)" d="M4.59375,-4.10938 L4.59375,3.60938 C4.59375,6.34896 4.72396,8.53125 4.98438,10.1563 C7.13021,8.33333 8.66146,6.96875 9.57813,6.0625 C10.6198,5.02083 11.6615,3.58594 12.7031,1.75781 C13.7448,-0.0703125 14.2656,-1.89583 14.2656,-3.71875 C14.2656,-5.54167 13.875,-7.10417 13.0938,-8.40625 C12.3125,-9.70833 11.2708,-10.3594 9.96875,-10.3594 C8.40625,-10.3594 7.10417,-9.77083 6.0625,-8.59375 C5.08333,-7.29167 4.59375,-5.79688 4.59375,-4.10938 M0.484375,13.7656 L-0.78125,-45.7031 C0.135417,-46.224 1.04948,-46.4844 1.96094,-46.4844 C2.8724,-46.4844 3.78125,-46.224 4.6875,-45.7031 L3.90625,-11.2344 C6.57292,-13.5156 9.63542,-14.6563 13.0938,-14.6563 C15.625,-14.6563 17.737,-13.6146 19.4297,-11.5313 C21.1224,-9.44792 21.9688,-7.06771 21.9688,-4.39063 C21.9688,-2.70313 21.4167,-0.911458 20.3125,0.984375 C19.2708,2.73438 18.1667,4.09896 17,5.07813 C16.3438,5.59896 14.6823,6.90104 12.0156,8.98438 C11.2344,9.56771 10.3073,10.25 9.23438,11.0313 C8.16146,11.8125 7.49479,12.3021 7.23438,12.5 C6.77604,12.7604 6.34896,13.2813 5.95313,14.0625 C5.50521,14.7188 4.98438,15.2708 4.39063,15.7188 C3.94271,16.1146 3.39323,16.3125 2.74219,16.3125 C2.09115,16.3125 1.56771,16.0833 1.17188,15.625 C0.713542,15.1667 0.484375,14.5469 0.484375,13.7656"/>
<path class="Accidental" transform="matrix(0.566929,0,0,0.566929,417.097,59.0226)" d="M4.59375,-4.10938 L4.59375,3.60938 C4.59375,6.34896 4.72396,8.53125 4.98438,10.1563 C7.13021,8.33333 8.66146,6.96875 9.57813,6.0625 C10.6198,5.02083 11.6615,3.58594 12.7031,1.75781 C13.7448,-0.0703125 14.2656,-1.89583 14.2656,-3.71875 C14.2656,-5.54167 13.875,-7.10417 13.0938,-8.40625 C12.3125,-9.70833 11.2708,-10.3594 9.96875,-10.3594 C8.40625,-10.3594 7.10417,-9.77083 6.0625,-8.59375 C5.08333,-7.29167 4.59375,-5.79688 4.59375,-4.10938 M0.484375,13.7656 L-0.78125,-45.7031 C0.135417,-46.224 1.04948,-46.4844 1.96094,-46.4844 C2.8724,-46.4844 3.78125,-46.224 4.6875,-45.7031 L3.90625,-11.2344 C6.57292,-13.5156 9.63542,-14.6563 13.0938,-14.6563 C15.625,-14.6563 17.737,-13.6146 19.4297,-11.5313 C21.1224,-9.44792 21.9688,-7.06771 21.9688,-4.39063 C21.9688,-2.70313 21.4167,-0.911458 20.3125,0.984375 C19.2708,2.73438 18.1667,4.09896 17,5.07813 C16.3438,5.59896 14.6823,6.90104 12.0156,8.98438 C11.2344,9.56771 10.3073,10.25 9.23438,11.0313 C8.16146,11.8125 7.49479,12.3021 7.23438,12.5 C6.77604,12.7604 6.34896,13.2813 5.95313,14.0625 C5.50521,14.7188 4.98438,15.2708 4.39063,15.7188 C3.94271,16.1146 3.39323,16.3125 2.74219,16.3125 C2.09115,16.3125 1.56771,16.0833 1.17188,15.625 C0.713542,15.1667 0.484375,14.5469 0.484375,13.7656"/>
<path class="Accidental" transform="matrix(0.566929,0,0,0.566929,542.809,44.8494)" d="M4.59375,-4.10938 L4.59375,3.60938 C4.59375,6.34896 4.72396,8.53125 4.98438,10.1563 C7.13021,8.33333 8.66146,6.96875 9.57813,6.0625 C10.6198,5.02083 11.6615,3.58594 12.7031,1.75781 C13.7448,-0.0703125 14.2656,-1.89583 14.2656,-3.71875 C14.2656,-5.54167 13.875,-7.10417 13.0938,-8.40625 C12.3125,-9.70833 11.2708,-10.3594 9.96875,-10.3594 C8.40625,-10.3594 7.10417,-9.77083 6.0625,-8.59375 C5.08333,-7.29167 4.59375,-5.79688 4.59375,-4.10938 M0.484375,13.7656 L-0.78125,-45.7031 C0.135417,-46.224 1.04948,-46.4844 1.96094,-46.4844 C2.8724,-46.4844 3.78125,-46.224 4.6875,-45.7031 L3.90625,-11.2344 C6.57292,-13.5156 9.63542,-14.6563 13.0938,-14.6563 C15.625,-14.6563 17.737,-13.6146 19.4297,-11.5313 C21.1224,-9.44792 21.9688,-7.06771 21.9688,-4.39063 C21.9688,-2.70313 21.4167,-0.911458 20.3125,0.984375 C19.2708,2.73438 18.1667,4.09896 17,5.07813 C16.3438,5.59896 14.6823,6.90104 12.0156,8.98438 C11.2344,9.56771 10.3073,10.25 9.23438,11.0313 C8.16146,11.8125 7.49479,12.3021 7.23438,12.5 C6.77604,12.7604 6.34896,13.2813 5.95313,14.0625 C5.50521,14.7188 4.98438,15.2708 4.39063,15.7188 C3.94271,16.1146 3.39323,16.3125 2.74219,16.3125 C2.09115,16.3125 1.56771,16.0833 1.17188,15.625 C0.713542,15.1667 0.484375,14.5469 0.484375,13.7656"/>
<polyline class="LedgerLine" fill="none" stroke="#000000" stroke-width="2.27" stroke-linecap="square" stroke-linejoin="bevel" points="114.254,377.92 141.418,377.92"/>
<path class="Note" fill="#ffffff" fill-opacity="0.0" fill-rule="evenodd" d="M119.782,656.07 L138.49,656.07 L138.49,680.873 L119.782,680.873 L119.782,656.07 "/>
<path class="Note" d="M128.449,665.081 L124.058,665.081 L124.058,663.315 C125.964,663.076 127.207,662.74 127.785,662.307 C128.363,661.875 128.865,660.893 129.293,659.362 L130.918,659.362 L130.918,679.221 L128.449,679.221 L128.449,665.081 "/>
<path class="Note" fill="#ffffff" fill-opacity="0.0" fill-rule="evenodd" d="M182.637,656.07 L201.346,656.07 L201.346,680.873 L182.637,680.873 L182.637,656.07 "/>
<path class="Note" d="M191.617,661.518 C190.201,661.518 189.227,661.906 188.695,662.682 C188.164,663.458 187.878,664.492 187.836,665.784 L185.367,665.784 C185.461,661.503 187.534,659.362 191.586,659.362 C193.471,659.362 194.951,659.849 196.023,660.823 C197.096,661.797 197.633,663.133 197.633,664.831 C197.633,666.841 196.711,668.211 194.867,668.94 C196.055,669.357 196.911,669.932 197.438,670.667 C197.964,671.401 198.227,672.404 198.227,673.675 C198.227,675.56 197.615,677.063 196.391,678.182 C195.167,679.302 193.539,679.862 191.508,679.862 C187.435,679.862 185.247,677.727 184.945,673.456 L187.414,673.456 C187.508,674.893 187.891,675.956 188.563,676.643 C189.234,677.331 190.242,677.675 191.586,677.675 C192.878,677.675 193.885,677.326 194.609,676.628 C195.333,675.93 195.695,674.956 195.695,673.706 C195.695,671.3 194.326,670.096 191.586,670.096 L190.555,670.128 L190.242,670.128 L190.242,668.018 C192.013,667.987 193.268,667.766 194.008,667.354 C194.747,666.943 195.117,666.128 195.117,664.909 C195.117,663.867 194.805,663.042 194.18,662.432 C193.555,661.823 192.701,661.518 191.617,661.518"/>
<path class="Note" fill="#ffffff" fill-opacity="0.0" fill-rule="evenodd" d="M245.493,656.07 L264.202,656.07 L264.202,680.873 L245.493,680.873 L245.493,656.07 "/>
<path class="Note" d="M256.067,674.456 L247.692,674.456 L247.692,671.862 L256.708,659.362 L258.536,659.362 L258.536,672.253 L261.473,672.253 L261.473,674.456 L258.536,674.456 L258.536,679.221 L256.067,679.221 L256.067,674.456 M256.067,672.253 L256.067,663.565 L249.848,672.253 L256.067,672.253 "/>
<path class="Note" fill="#ffffff" fill-opacity="0.0" fill-rule="evenodd" d="M308.349,631.267 L327.058,631.267 L327.058,656.07 L308.349,656.07 L308.349,631.267 "/>
<path class="Note" d="M317.017,640.278 L312.626,640.278 L312.626,638.512 C314.532,638.272 315.774,637.937 316.352,637.504 C316.931,637.072 317.433,636.09 317.86,634.559 L319.485,634.559 L319.485,654.418 L317.017,654.418 L317.017,640.278 "/>
<path class="Note" fill="#ffffff" fill-opacity="0.0" fill-rule="evenodd" d="M371.205,631.267 L389.914,631.267 L389.914,656.07 L371.205,656.07 L371.205,631.267 "/>
<path class="Note" d="M380.185,636.715 C378.768,636.715 377.794,637.103 377.263,637.879 C376.732,638.655 376.445,639.689 376.404,640.981 L373.935,640.981 C374.029,636.7 376.102,634.559 380.154,634.559 C382.039,634.559 383.518,635.046 384.591,636.02 C385.664,636.994 386.201,638.33 386.201,640.028 C386.201,642.038 385.279,643.408 383.435,644.137 C384.622,644.554 385.479,645.129 386.005,645.864 C386.531,646.598 386.794,647.601 386.794,648.871 C386.794,650.757 386.182,652.259 384.958,653.379 C383.734,654.499 382.107,655.059 380.076,655.059 C376.003,655.059 373.815,652.924 373.513,648.653 L375.982,648.653 C376.076,650.09 376.458,651.153 377.13,651.84 C377.802,652.528 378.81,652.871 380.154,652.871 C381.445,652.871 382.453,652.522 383.177,651.825 C383.901,651.127 384.263,650.153 384.263,648.903 C384.263,646.496 382.893,645.293 380.154,645.293 L379.122,645.325 L378.81,645.325 L378.81,643.215 C380.581,643.184 381.836,642.963 382.576,642.551 C383.315,642.14 383.685,641.325 383.685,640.106 C383.685,639.064 383.372,638.239 382.747,637.629 C382.122,637.02 381.268,636.715 380.185,636.715"/>
<path class="Note" fill="#ffffff" fill-opacity="0.0" fill-rule="evenodd" d="M434.061,606.464 L452.77,606.464 L452.77,631.267 L434.061,631.267 L434.061,606.464 "/>
<path class="Note" d="M436.681,620.006 C436.681,618.35 436.822,616.886 437.103,615.615 C437.385,614.344 437.739,613.35 438.166,612.631 C438.593,611.912 439.106,611.329 439.705,610.881 C440.304,610.433 440.879,610.133 441.431,609.982 C441.984,609.831 442.567,609.756 443.181,609.756 C447.515,609.756 449.681,613.23 449.681,620.178 C449.681,623.448 449.124,625.946 448.01,627.67 C446.895,629.394 445.286,630.256 443.181,630.256 C441.056,630.256 439.442,629.383 438.338,627.639 C437.234,625.894 436.681,623.35 436.681,620.006 M447.15,619.959 C447.15,614.615 445.825,611.943 443.174,611.943 C440.523,611.943 439.197,614.641 439.197,620.037 C439.197,625.485 440.504,628.209 443.119,628.209 C444.504,628.209 445.523,627.537 446.174,626.193 C446.825,624.85 447.15,622.771 447.15,619.959"/>
<path class="Note" fill="#ffffff" fill-opacity="0.0" fill-rule="evenodd" d="M496.917,606.464 L515.626,606.464 L515.626,631.267 L496.917,631.267 L496.917,606.464 "/>
<path class="Note" d="M505.897,611.912 C504.48,611.912 503.506,612.3 502.975,613.076 C502.444,613.852 502.157,614.886 502.115,616.178 L499.647,616.178 C499.74,611.896 501.813,609.756 505.865,609.756 C507.751,609.756 509.23,610.243 510.303,611.217 C511.376,612.191 511.912,613.527 511.912,615.225 C511.912,617.235 510.99,618.605 509.147,619.334 C510.334,619.751 511.191,620.326 511.717,621.06 C512.243,621.795 512.506,622.797 512.506,624.068 C512.506,625.954 511.894,627.456 510.67,628.576 C509.446,629.696 507.819,630.256 505.787,630.256 C501.714,630.256 499.527,628.12 499.225,623.85 L501.694,623.85 C501.787,625.287 502.17,626.35 502.842,627.037 C503.514,627.725 504.522,628.068 505.865,628.068 C507.157,628.068 508.165,627.719 508.889,627.021 C509.613,626.323 509.975,625.35 509.975,624.1 C509.975,621.693 508.605,620.49 505.865,620.49 L504.834,620.521 L504.522,620.521 L504.522,618.412 C506.293,618.381 507.548,618.159 508.287,617.748 C509.027,617.337 509.397,616.521 509.397,615.303 C509.397,614.261 509.084,613.435 508.459,612.826 C507.834,612.217 506.98,611.912 505.897,611.912"/>
<path class="Note" fill="#ffffff" fill-opacity="0.0" fill-rule="evenodd" d="M559.773,606.464 L578.481,606.464 L578.481,631.267 L559.773,631.267 L559.773,606.464 "/>
<path class="Note" d="M570.346,624.85 L561.971,624.85 L561.971,622.256 L570.987,609.756 L572.815,609.756 L572.815,622.646 L575.753,622.646 L575.753,624.85 L572.815,624.85 L572.815,629.615 L570.346,629.615 L570.346,624.85 M570.346,622.646 L570.346,613.959 L564.128,622.646 L570.346,622.646 "/>
<path class="Note" fill="#ffffff" fill-opacity="0.0" fill-rule="evenodd" d="M119.782,478.905 L138.49,478.905 L138.49,503.708 L119.782,503.708 L119.782,478.905 "/>
<path class="Note" d="M128.449,487.915 L124.058,487.915 L124.058,486.15 C125.964,485.91 127.207,485.574 127.785,485.142 C128.363,484.71 128.865,483.728 129.293,482.197 L130.918,482.197 L130.918,502.056 L128.449,502.056 L128.449,487.915 "/>
<path class="Note" fill="#ffffff" fill-opacity="0.0" fill-rule="evenodd" d="M182.637,478.905 L201.346,478.905 L201.346,503.708 L182.637,503.708 L182.637,478.905 "/>
<path class="Note" d="M191.617,484.353 C190.201,484.353 189.227,484.741 188.695,485.517 C188.164,486.293 187.878,487.327 187.836,488.619 L185.367,488.619 C185.461,484.337 187.534,482.197 191.586,482.197 C193.471,482.197 194.951,482.684 196.023,483.658 C197.096,484.632 197.633,485.968 197.633,487.665 C197.633,489.676 196.711,491.046 194.867,491.775 C196.055,492.192 196.911,492.767 197.438,493.501 C197.964,494.236 198.227,495.238 198.227,496.509 C198.227,498.395 197.615,499.897 196.391,501.017 C195.167,502.137 193.539,502.697 191.508,502.697 C187.435,502.697 185.247,500.561 184.945,496.29 L187.414,496.29 C187.508,497.728 187.891,498.79 188.563,499.478 C189.234,500.165 190.242,500.509 191.586,500.509 C192.878,500.509 193.885,500.16 194.609,499.462 C195.333,498.764 195.695,497.79 195.695,496.54 C195.695,494.134 194.326,492.931 191.586,492.931 L190.555,492.962 L190.242,492.962 L190.242,490.853 C192.013,490.822 193.268,490.6 194.008,490.189 C194.747,489.777 195.117,488.962 195.117,487.744 C195.117,486.702 194.805,485.876 194.18,485.267 C193.555,484.658 192.701,484.353 191.617,484.353"/>
<path class="Note" fill="#ffffff" fill-opacity="0.0" fill-rule="evenodd" d="M245.493,478.905 L264.202,478.905 L264.202,503.708 L245.493,503.708 L245.493,478.905 "/>
<path class="Note" d="M256.067,497.29 L247.692,497.29 L247.692,494.697 L256.708,482.197 L258.536,482.197 L258.536,495.087 L261.473,495.087 L261.473,497.29 L258.536,497.29 L258.536,502.056 L256.067,502.056 L256.067,497.29 M256.067,495.087 L256.067,486.4 L249.848,495.087 L256.067,495.087 "/>
<path class="Note" fill="#ffffff" fill-opacity="0.0" fill-rule="evenodd" d="M308.349,478.905 L327.058,478.905 L327.058,503.708 L308.349,503.708 L308.349,478.905 "/>
<path class="Note" d="M310.97,493.009 C310.97,491.259 311.129,489.715 311.446,488.376 C311.764,487.038 312.16,485.988 312.634,485.228 C313.108,484.468 313.678,483.848 314.345,483.369 C315.011,482.889 315.639,482.574 316.227,482.423 C316.816,482.272 317.433,482.197 318.079,482.197 C319.589,482.197 320.845,482.655 321.845,483.572 C322.845,484.488 323.464,485.759 323.704,487.384 L321.251,487.384 C321.043,486.436 320.649,485.699 320.071,485.173 C319.493,484.647 318.772,484.384 317.907,484.384 C316.49,484.384 315.405,485.033 314.649,486.33 C313.894,487.626 313.506,489.488 313.485,491.915 C314.569,490.447 316.089,489.712 318.048,489.712 C319.829,489.712 321.287,490.301 322.423,491.478 C323.558,492.655 324.126,494.165 324.126,496.009 C324.126,497.947 323.517,499.546 322.298,500.806 C321.079,502.067 319.527,502.697 317.642,502.697 C313.194,502.697 310.97,499.468 310.97,493.009 M317.751,491.9 C316.532,491.9 315.54,492.285 314.774,493.056 C314.009,493.827 313.626,494.832 313.626,496.072 C313.626,497.332 314.009,498.387 314.774,499.236 C315.54,500.085 316.501,500.509 317.657,500.509 C318.803,500.509 319.748,500.106 320.493,499.298 C321.238,498.491 321.61,497.457 321.61,496.197 C321.61,494.874 321.264,493.827 320.571,493.056 C319.879,492.285 318.938,491.9 317.751,491.9"/>
<path class="Note" fill="#ffffff" fill-opacity="0.0" fill-rule="evenodd" d="M371.205,454.101 L389.914,454.101 L389.914,478.905 L371.205,478.905 L371.205,454.101 "/>
<path class="Note" d="M379.872,463.112 L375.482,463.112 L375.482,461.347 C377.388,461.107 378.63,460.771 379.208,460.339 C379.786,459.907 380.289,458.925 380.716,457.394 L382.341,457.394 L382.341,477.253 L379.872,477.253 L379.872,463.112 "/>
<path class="Note" fill="#ffffff" fill-opacity="0.0" fill-rule="evenodd" d="M434.061,454.101 L452.77,454.101 L452.77,478.905 L434.061,478.905 L434.061,454.101 "/>
<path class="Note" d="M436.885,464.284 C437.01,459.69 439.192,457.394 443.431,457.394 C445.317,457.394 446.848,457.935 448.025,459.019 C449.202,460.102 449.791,461.503 449.791,463.222 C449.791,465.69 448.39,467.69 445.588,469.222 L442.791,470.722 C441.572,471.378 440.702,472.013 440.181,472.628 C439.661,473.243 439.332,473.972 439.197,474.815 L449.65,474.815 L449.65,477.253 L436.431,477.253 C436.546,475.065 436.986,473.381 437.752,472.198 C438.517,471.016 439.937,469.836 442.01,468.659 L444.572,467.206 C446.364,466.175 447.26,464.868 447.26,463.284 C447.26,462.222 446.887,461.334 446.142,460.62 C445.398,459.907 444.468,459.55 443.353,459.55 C440.864,459.55 439.525,461.128 439.338,464.284 L436.885,464.284 "/>
<path class="Note" fill="#ffffff" fill-opacity="0.0" fill-rule="evenodd" d="M496.917,454.101 L515.626,454.101 L515.626,478.905 L496.917,478.905 L496.917,454.101 "/>
<path class="Note" d="M511.662,457.394 L511.662,459.831 L503.397,459.831 L502.615,465.378 C503.72,464.576 504.944,464.175 506.287,464.175 C508.194,464.175 509.738,464.787 510.92,466.011 C512.102,467.235 512.694,468.826 512.694,470.784 C512.694,472.878 512.061,474.586 510.795,475.909 C509.53,477.232 507.897,477.894 505.897,477.894 C505.126,477.894 504.42,477.81 503.78,477.644 C503.139,477.477 502.608,477.276 502.186,477.042 C501.764,476.808 501.381,476.5 501.037,476.12 C500.694,475.74 500.433,475.404 500.256,475.112 C500.079,474.821 499.91,474.456 499.748,474.019 C499.587,473.581 499.488,473.279 499.451,473.112 C499.415,472.946 499.371,472.701 499.319,472.378 L501.772,472.378 C502.355,474.597 503.709,475.706 505.834,475.706 C507.178,475.706 508.238,475.297 509.014,474.48 C509.79,473.662 510.178,472.545 510.178,471.128 C510.178,469.649 509.785,468.485 508.998,467.636 C508.212,466.787 507.157,466.362 505.834,466.362 C505.074,466.362 504.423,466.498 503.881,466.769 C503.339,467.039 502.777,467.519 502.194,468.206 L499.928,468.206 L501.412,457.394 L511.662,457.394 "/>
<path class="Note" fill="#ffffff" fill-opacity="0.0" fill-rule="evenodd" d="M559.773,454.101 L578.481,454.101 L578.481,478.905 L559.773,478.905 L559.773,454.101 "/>
<path class="Note" d="M562.393,468.206 C562.393,466.456 562.552,464.912 562.87,463.573 C563.188,462.235 563.583,461.185 564.057,460.425 C564.531,459.664 565.102,459.045 565.768,458.565 C566.435,458.086 567.063,457.771 567.651,457.62 C568.24,457.469 568.857,457.394 569.503,457.394 C571.013,457.394 572.268,457.852 573.268,458.769 C574.268,459.685 574.888,460.956 575.128,462.581 L572.675,462.581 C572.466,461.633 572.073,460.896 571.495,460.37 C570.917,459.844 570.195,459.581 569.331,459.581 C567.914,459.581 566.828,460.23 566.073,461.526 C565.318,462.823 564.93,464.685 564.909,467.112 C565.992,465.644 567.513,464.909 569.471,464.909 C571.253,464.909 572.711,465.498 573.846,466.675 C574.982,467.852 575.55,469.362 575.55,471.206 C575.55,473.144 574.94,474.743 573.721,476.003 C572.503,477.263 570.951,477.894 569.065,477.894 C564.617,477.894 562.393,474.664 562.393,468.206 M569.175,467.097 C567.956,467.097 566.964,467.482 566.198,468.253 C565.432,469.024 565.05,470.029 565.05,471.269 C565.05,472.529 565.432,473.584 566.198,474.433 C566.964,475.282 567.925,475.706 569.081,475.706 C570.227,475.706 571.172,475.302 571.917,474.495 C572.661,473.688 573.034,472.654 573.034,471.394 C573.034,470.071 572.688,469.024 571.995,468.253 C571.302,467.482 570.362,467.097 569.175,467.097"/>
<path class="Note" transform="matrix(0.566929,0,0,0.566929,118.506,377.92)" d="M21.9688,-13.7656 C25.0938,-13.7656 27.7344,-12.9531 29.8906,-11.3281 C31.901,-9.56771 32.9063,-7.35417 32.9063,-4.6875 C32.9063,-0.197917 30.599,4 25.9844,7.90625 C21.2969,11.8125 16.2813,13.7656 10.9375,13.7656 C7.8125,13.7656 5.17708,12.9531 3.03125,11.3281 C1.01042,9.56771 0,7.35417 0,4.6875 C0,0.197917 2.34375,-4 7.03125,-7.90625 C11.5938,-11.8125 16.5729,-13.7656 21.9688,-13.7656"/>
<path class="Note" transform="matrix(0.566929,0,0,0.566929,181.362,370.834)" d="M21.9688,-13.7656 C25.0938,-13.7656 27.7344,-12.9531 29.8906,-11.3281 C31.901,-9.56771 32.9063,-7.35417 32.9063,-4.6875 C32.9063,-0.197917 30.599,4 25.9844,7.90625 C21.2969,11.8125 16.2813,13.7656 10.9375,13.7656 C7.8125,13.7656 5.17708,12.9531 3.03125,11.3281 C1.01042,9.56771 0,7.35417 0,4.6875 C0,0.197917 2.34375,-4 7.03125,-7.90625 C11.5938,-11.8125 16.5729,-13.7656 21.9688,-13.7656"/>
<path class="Note" transform="matrix(0.566929,0,0,0.566929,244.218,363.747)" d="M21.9688,-13.7656 C25.0938,-13.7656 27.7344,-12.9531 29.8906,-11.3281 C31.901,-9.56771 32.9063,-7.35417 32.9063,-4.6875 C32.9063,-0.197917 30.599,4 25.9844,7.90625 C21.2969,11.8125 16.2813,13.7656 10.9375,13.7656 C7.8125,13.7656 5.17708,12.9531 3.03125,11.3281 C1.01042,9.56771 0,7.35417 0,4.6875 C0,0.197917 2.34375,-4 7.03125,-7.90625 C11.5938,-11.8125 16.5729,-13.7656 21.9688,-13.7656"/>
<path class="Note" transform="matrix(0.566929,0,0,0.566929,307.074,356.66)" d="M21.9688,-13.7656 C25.0938,-13.7656 27.7344,-12.9531 29.8906,-11.3281 C31.901,-9.56771 32.9063,-7.35417 32.9063,-4.6875 C32.9063,-0.197917 30.599,4 25.9844,7.90625 C21.2969,11.8125 16.2813,13.7656 10.9375,13.7656 C7.8125,13.7656 5.17708,12.9531 3.03125,11.3281 C1.01042,9.56771 0,7.35417 0,4.6875 C0,0.197917 2.34375,-4 7.03125,-7.90625 C11.5938,-11.8125 16.5729,-13.7656 21.9688,-13.7656"/>
<path class="Note" transform="matrix(0.566929,0,0,0.566929,369.93,349.574)" d="M21.9688,-13.7656 C25.0938,-13.7656 27.7344,-12.9531 29.8906,-11.3281 C31.901,-9.56771 32.9063,-7.35417 32.9063,-4.6875 C32.9063,-0.197917 30.599,4 25.9844,7.90625 C21.2969,11.8125 16.2813,13.7656 10.9375,13.7656 C7.8125,13.7656 5.17708,12.9531 3.03125,11.3281 C1.01042,9.56771 0,7.35417 0,4.6875 C0,0.197917 2.34375,-4 7.03125,-7.90625 C11.5938,-11.8125 16.5729,-13.7656 21.9688,-13.7656"/>
<path class="Note" transform="matrix(0.566929,0,0,0.566929,432.785,342.487)" d="M21.9688,-13.7656 C25.0938,-13.7656 27.7344,-12.9531 29.8906,-11.3281 C31.901,-9.56771 32.9063,-7.35417 32.9063,-4.6875 C32.9063,-0.197917 30.599,4 25.9844,7.90625 C21.2969,11.8125 16.2813,13.7656 10.9375,13.7656 C7.8125,13.7656 5.17708,12.9531 3.03125,11.3281 C1.01042,9.56771 0,7.35417 0,4.6875 C0,0.197917 2.34375,-4 7.03125,-7.90625 C11.5938,-11.8125 16.5729,-13.7656 21.9688,-13.7656"/>
<path class="Note" transform="matrix(0.566929,0,0,0.566929,495.641,335.401)" d="M21.9688,-13.7656 C25.0938,-13.7656 27.7344,-12.9531 29.8906,-11.3281 C31.901,-9.56771 32.9063,-7.35417 32.9063,-4.6875 C32.9063,-0.197917 30.599,4 25.9844,7.90625 C21.2969,11.8125 16.2813,13.7656 10.9375,13.7656 C7.8125,13.7656 5.17708,12.9531 3.03125,11.3281 C1.01042,9.56771 0,7.35417 0,4.6875 C0,0.197917 2.34375,-4 7.03125,-7.90625 C11.5938,-11.8125 16.5729,-13.7656 21.9688,-13.7656"/>
<path class="Note" transform="matrix(0.566929,0,0,0.566929,558.497,328.314)" d="M21.9688,-13.7656 C25.0938,-13.7656 27.7344,-12.9531 29.8906,-11.3281 C31.901,-9.56771 32.9063,-7.35417 32.9063,-4.6875 C32.9063,-0.197917 30.599,4 25.9844,7.90625 C21.2969,11.8125 16.2813,13.7656 10.9375,13.7656 C7.8125,13.7656 5.17708,12.9531 3.03125,11.3281 C1.01042,9.56771 0,7.35417 0,4.6875 C0,0.197917 2.34375,-4 7.03125,-7.90625 C11.5938,-11.8125 16.5729,-13.7656 21.9688,-13.7656"/>
<path class="Note" transform="matrix(0.566929,0,0,0.566929,118.506,236.188)" d="M21.9688,-13.7656 C25.0938,-13.7656 27.7344,-12.9531 29.8906,-11.3281 C31.901,-9.56771 32.9063,-7.35417 32.9063,-4.6875 C32.9063,-0.197917 30.599,4 25.9844,7.90625 C21.2969,11.8125 16.2813,13.7656 10.9375,13.7656 C7.8125,13.7656 5.17708,12.9531 3.03125,11.3281 C1.01042,9.56771 0,7.35417 0,4.6875 C0,0.197917 2.34375,-4 7.03125,-7.90625 C11.5938,-11.8125 16.5729,-13.7656 21.9688,-13.7656"/>
<path class="Note" transform="matrix(0.566929,0,0,0.566929,181.362,229.101)" d="M21.9688,-13.7656 C25.0938,-13.7656 27.7344,-12.9531 29.8906,-11.3281 C31.901,-9.56771 32.9063,-7.35417 32.9063,-4.6875 C32.9063,-0.197917 30.599,4 25.9844,7.90625 C21.2969,11.8125 16.2813,13.7656 10.9375,13.7656 C7.8125,13.7656 5.17708,12.9531 3.03125,11.3281 C1.01042,9.56771 0,7.35417 0,4.6875 C0,0.197917 2.34375,-4 7.03125,-7.90625 C11.5938,-11.8125 16.5729,-13.7656 21.9688,-13.7656"/>
<path class="Note" transform="matrix(0.566929,0,0,0.566929,244.218,222.015)" d="M21.9688,-13.7656 C25.0938,-13.7656 27.7344,-12.9531 29.8906,-11.3281 C31.901,-9.56771 32.9063,-7.35417 32.9063,-4.6875 C32.9063,-0.197917 30.599,4 25.9844,7.90625 C21.2969,11.8125 16.2813,13.7656 10.9375,13.7656 C7.8125,13.7656 5.17708,12.9531 3.03125,11.3281 C1.01042,9.56771 0,7.35417 0,4.6875 C0,0.197917 2.34375,-4 7.03125,-7.90625 C11.5938,-11.8125 16.5729,-13.7656 21.9688,-13.7656"/>
<path class="Note" transform="matrix(0.566929,0,0,0.566929,307.074,214.928)" d="M21.9688,-13.7656 C25.0938,-13.7656 27.7344,-12.9531 29.8906,-11.3281 C31.901,-9.56771 32.9063,-7.35417 32.9063,-4.6875 C32.9063,-0.197917 30.599,4 25.9844,7.90625 C21.2969,11.8125 16.2813,13.7656 10.9375,13.7656 C7.8125,13.7656 5.17708,12.9531 3.03125,11.3281 C1.01042,9.56771 0,7.35417 0,4.6875 C0,0.197917 2.34375,-4 7.03125,-7.90625 C11.5938,-11.8125 16.5729,-13.7656 21.9688,-13.7656"/>
<path class="Note" transform="matrix(0.566929,0,0,0.566929,369.93,207.842)" d="M21.9688,-13.7656 C25.0938,-13.7656 27.7344,-12.9531 29.8906,-11.3281 C31.901,-9.56771 32.9063,-7.35417 32.9063,-4.6875 C32.9063,-0.197917 30.599,4 25.9844,7.90625 C21.2969,11.8125 16.2813,13.7656 10.9375,13.7656 C7.8125,13.7656 5.17708,12.9531 3.03125,11.3281 C1.01042,9.56771 0,7.35417 0,4.6875 C0,0.197917 2.34375,-4 7.03125,-7.90625 C11.5938,-11.8125 16.5729,-13.7656 21.9688,-13.7656"/>
<path class="Note" transform="matrix(0.566929,0,0,0.566929,432.785,200.755)" d="M21.9688,-13.7656 C25.0938,-13.7656 27.7344,-12.9531 29.8906,-11.3281 C31.901,-9.56771 32.9063,-7.35417 32.9063,-4.6875 C32.9063,-0.197917 30.599,4 25.9844,7.90625 C21.2969,11.8125 16.2813,13.7656 10.9375,13.7656 C7.8125,13.7656 5.17708,12.9531 3.03125,11.3281 C1.01042,9.56771 0,7.35417 0,4.6875 C0,0.197917 2.34375,-4 7.03125,-7.90625 C11.5938,-11.8125 16.5729,-13.7656 21.9688,-13.7656"/>
<path class="Note" transform="matrix(0.566929,0,0,0.566929,495.641,193.668)" d="M21.9688,-13.7656 C25.0938,-13.7656 27.7344,-12.9531 29.8906,-11.3281 C31.901,-9.56771 32.9063,-7.35417 32.9063,-4.6875 C32.9063,-0.197917 30.599,4 25.9844,7.90625 C21.2969,11.8125 16.2813,13.7656 10.9375,13.7656 C7.8125,13.7656 5.17708,12.9531 3.03125,11.3281 C1.01042,9.56771 0,7.35417 0,4.6875 C0,0.197917 2.34375,-4 7.03125,-7.90625 C11.5938,-11.8125 16.5729,-13.7656 21.9688,-13.7656"/>
<path class="Note" transform="matrix(0.566929,0,0,0.566929,558.497,186.582)" d="M21.9688,-13.7656 C25.0938,-13.7656 27.7344,-12.9531 29.8906,-11.3281 C31.901,-9.56771 32.9063,-7.35417 32.9063,-4.6875 C32.9063,-0.197917 30.599,4 25.9844,7.90625 C21.2969,11.8125 16.2813,13.7656 10.9375,13.7656 C7.8125,13.7656 5.17708,12.9531 3.03125,11.3281 C1.01042,9.56771 0,7.35417 0,4.6875 C0,0.197917 2.34375,-4 7.03125,-7.90625 C11.5938,-11.8125 16.5729,-13.7656 21.9688,-13.7656"/>
<path class="Note" transform="matrix(0.566929,0,0,0.566929,118.506,94.4557)" d="M21.9688,-13.7656 C25.0938,-13.7656 27.7344,-12.9531 29.8906,-11.3281 C31.901,-9.56771 32.9063,-7.35417 32.9063,-4.6875 C32.9063,-0.197917 30.599,4 25.9844,7.90625 C21.2969,11.8125 16.2813,13.7656 10.9375,13.7656 C7.8125,13.7656 5.17708,12.9531 3.03125,11.3281 C1.01042,9.56771 0,7.35417 0,4.6875 C0,0.197917 2.34375,-4 7.03125,-7.90625 C11.5938,-11.8125 16.5729,-13.7656 21.9688,-13.7656"/>
<path class="Note" transform="matrix(0.566929,0,0,0.566929,181.362,87.3691)" d="M21.9688,-13.7656 C25.0938,-13.7656 27.7344,-12.9531 29.8906,-11.3281 C31.901,-9.56771 32.9063,-7.35417 32.9063,-4.6875 C32.9063,-0.197917 30.599,4 25.9844,7.90625 C21.2969,11.8125 16.2813,13.7656 10.9375,13.7656 C7.8125,13.7656 5.17708,12.9531 3.03125,11.3281 C1.01042,9.56771 0,7.35417 0,4.6875 C0,0.197917 2.34375,-4 7.03125,-7.90625 C11.5938,-11.8125 16.5729,-13.7656 21.9688,-13.7656"/>
<path class="Note" transform="matrix(0.566929,0,0,0.566929,244.218,80.2825)" d="M21.9688,-13.7656 C25.0938,-13.7656 27.7344,-12.9531 29.8906,-11.3281 C31.901,-9.56771 32.9063,-7.35417 32.9063,-4.6875 C32.9063,-0.197917 30.599,4 25.9844,7.90625 C21.2969,11.8125 16.2813,13.7656 10.9375,13.7656 C7.8125,13.7656 5.17708,12.9531 3.03125,11.3281 C1.01042,9.56771 0,7.35417 0,4.6875 C0,0.197917 2.34375,-4 7.03125,-7.90625 C11.5938,-11.8125 16.5729,-13.7656 21.9688,-13.7656"/>
<path class="Note" transform="matrix(0.566929,0,0,0.566929,307.074,73.1959)" d="M21.9688,-13.7656 C25.0938,-13.7656 27.7344,-12.9531 29.8906,-11.3281 C31.901,-9.56771 32.9063,-7.35417 32.9063,-4.6875 C32.9063,-0.197917 30.599,4 25.9844,7.90625 C21.2969,11.8125 16.2813,13.7656 10.9375,13.7656 C7.8125,13.7656 5.17708,12.9531 3.03125,11.3281 C1.01042,9.56771 0,7.35417 0,4.6875 C0,0.197917 2.34375,-4 7.03125,-7.90625 C11.5938,-11.8125 16.5729,-13.7656 21.9688,-13.7656"/>
<path class="Note" transform="matrix(0.566929,0,0,0.566929,369.93,66.1093)" d="M21.9688,-13.7656 C25.0938,-13.7656 27.7344,-12.9531 29.8906,-11.3281 C31.901,-9.56771 32.9063,-7.35417 32.9063,-4.6875 C32.9063,-0.197917 30.599,4 25.9844,7.90625 C21.2969,11.8125 16.2813,13.7656 10.9375,13.7656 C7.8125,13.7656 5.17708,12.9531 3.03125,11.3281 C1.01042,9.56771 0,7.35417 0,4.6875 C0,0.197917 2.34375,-4 7.03125,-7.90625 C11.5938,-11.8125 16.5729,-13.7656 21.9688,-13.7656"/>
<path class="Note" transform="matrix(0.566929,0,0,0.566929,432.785,59.0226)" d="M21.9688,-13.7656 C25.0938,-13.7656 27.7344,-12.9531 29.8906,-11.3281 C31.901,-9.56771 32.9063,-7.35417 32.9063,-4.6875 C32.9063,-0.197917 30.599,4 25.9844,7.90625 C21.2969,11.8125 16.2813,13.7656 10.9375,13.7656 C7.8125,13.7656 5.17708,12.9531 3.03125,11.3281 C1.01042,9.56771 0,7.35417 0,4.6875 C0,0.197917 2.34375,-4 7.03125,-7.90625 C11.5938,-11.8125 16.5729,-13.7656 21.9688,-13.7656"/>
<path class="Note" transform="matrix(0.566929,0,0,0.566929,495.641,51.936)" d="M21.9688,-13.7656 C25.0938,-13.7656 27.7344,-12.9531 29.8906,-11.3281 C31.901,-9.56771 32.9063,-7.35417 32.9063,-4.6875 C32.9063,-0.197917 30.599,4 25.9844,7.90625 C21.2969,11.8125 16.2813,13.7656 10.9375,13.7656 C7.8125,13.7656 5.17708,12.9531 3.03125,11.3281 C1.01042,9.56771 0,7.35417 0,4.6875 C0,0.197917 2.34375,-4 7.03125,-7.90625 C11.5938,-11.8125 16.5729,-13.7656 21.9688,-13.7656"/>
<path class="Note" transform="matrix(0.566929,0,0,0.566929,558.497,44.8494)" d="M21.9688,-13.7656 C25.0938,-13.7656 27.7344,-12.9531 29.8906,-11.3281 C31.901,-9.56771 32.9063,-7.35417 32.9063,-4.6875 C32.9063,-0.197917 30.599,4 25.9844,7.90625 C21.2969,11.8125 16.2813,13.7656 10.9375,13.7656 C7.8125,13.7656 5.17708,12.9531 3.03125,11.3281 C1.01042,9.56771 0,7.35417 0,4.6875 C0,0.197917 2.34375,-4 7.03125,-7.90625 C11.5938,-11.8125 16.5729,-13.7656 21.9688,-13.7656"/>
<path class="Clef" transform="matrix(0.566929,0,0,0.566929,28.5015,656.07)" d="M26.6563,42.4844 C26.6563,44.3073 25.224,45.2188 22.3594,45.2188 C20.0885,45.2188 18.1042,44.5365 16.4063,43.1719 C14.7813,41.7344 13.9688,39.9115 13.9688,37.7031 C13.9688,33.7969 16.3438,30.6719 21.0938,28.3281 C25.7188,25.9115 31.1563,24.7031 37.4063,24.7031 C39.8125,24.7031 42.3854,24.8698 45.125,25.2031 C47.1354,25.4635 49.3802,25.9844 51.8594,26.7656 C54.0677,27.474 55.7917,28.5443 57.0313,29.9766 C58.2708,31.4089 58.8906,33.0729 58.8906,34.9688 C58.8906,39.4583 56.5781,43.1354 51.9531,46 C58.724,47.2396 62.1406,50.2656 62.2031,55.0781 C62.2031,59.1198 60.3802,62.7682 56.7344,66.0234 C53.0885,69.2786 48.9583,70.9063 44.3438,70.9063 C42.3854,70.9063 40.3958,70.4479 38.375,69.5313 C36.4896,68.625 35.1563,67.7813 34.375,67 C33.5938,66.0833 33.2031,65.3958 33.2031,64.9375 C33.2031,64.2917 33.5313,63.7396 34.1875,63.2813 C34.7708,62.6979 35.3854,62.4063 36.0313,62.4063 C36.2917,62.4063 36.8464,62.8281 37.6953,63.6719 C38.5443,64.5156 39.7813,64.9375 41.4063,64.9375 C43.625,64.9375 45.776,63.9948 47.8594,62.1094 C49.8698,60.2865 50.875,58.1042 50.875,55.5625 C50.875,53.3542 49.9323,51.7604 48.0469,50.7813 C46.1615,49.8021 43.7552,49.3125 40.8281,49.3125 C40.3073,49.3125 40.0469,48.7604 40.0469,47.6563 C40.0469,46.0938 40.6302,45.3125 41.7969,45.3125 C43.6198,45.3125 45.25,44.5313 46.6875,42.9688 C48.0521,41.2813 48.7344,39.4896 48.7344,37.5938 C48.7344,37.0104 48.5729,36.1354 48.25,34.9688 C47.9896,34.1875 47.2083,33.2396 45.9063,32.125 C44.6667,31.0833 42.9375,30.3698 40.7188,29.9844 C40.1354,33.1719 39.4036,37.2396 38.5234,42.1875 C37.6432,47.1354 37.0417,50.3906 36.7188,51.9531 C35.6146,57.5573 33.599,62.276 30.6719,66.1094 C27.6094,70.151 24.3177,72.1719 20.7969,72.1719 C19.6927,72.1719 18.5573,71.9115 17.3906,71.3906 C16.474,70.9948 15.3021,70.1823 13.875,68.9531 C12.5729,67.9115 11.6927,67.224 11.2344,66.8906 C10.974,66.7031 10.8438,66.4115 10.8438,66.0156 C10.8438,65.3698 11.0729,64.7865 11.5313,64.2656 C12.0521,63.6719 12.6042,63.375 13.1875,63.375 C13.5729,63.375 14.4818,63.9948 15.9141,65.2344 C17.3464,66.474 18.8438,67.0938 20.4063,67.0938 C23.4063,67.0938 25.6563,65.1719 27.1563,61.3281 C28.5833,57.6198 29.2969,53.0313 29.2969,47.5625 L29.2969,46.7813 C29.2969,43.1354 29.8854,37.6979 31.0625,30.4688 C28.9792,31.125 27.3177,32.1042 26.0781,33.4063 C24.776,34.7083 24.125,36.0729 24.125,37.5 C24.125,38.6042 24.5469,39.5469 25.3906,40.3281 C26.2344,41.1094 26.6563,41.8281 26.6563,42.4844 M7.03125,11.9219 C7.35417,11.9219 8.13542,12.2448 9.375,12.8906 C10.6771,13.5469 11.7865,13.875 12.7031,13.875 C15.1719,13.875 18.1979,12.0833 21.7813,8.5 C32.1354,-2.05208 39.2656,-13.25 43.1719,-25.0938 C43.9531,-27.5729 45.8698,-28.8125 48.9219,-28.8125 C50.4844,-28.8125 51.8229,-28.4844 52.9375,-27.8281 C54.0417,-27.1198 54.5938,-26.4063 54.5938,-25.6875 L52.8281,10.8438 C52.8281,12.7917 53.5156,13.7656 54.8906,13.7656 C55.599,13.7656 56.6406,13.4427 58.0156,12.7969 C59.3177,12.1406 60.099,11.8125 60.3594,11.8125 C60.8802,11.8125 61.2031,12.3698 61.3281,13.4844 C61.3281,14.526 60.9063,15.1771 60.0625,15.4375 C59.4063,15.625 58.1042,16.2396 56.1563,17.2813 C54.1354,18.3229 52.5417,18.8438 51.375,18.8438 C48.8958,18.8438 47.1354,16.8906 46.0938,12.9844 C44.4688,6.86979 43.4271,0.520833 42.9688,-6.0625 C40.3646,-2.73958 37.4688,0.614583 34.2813,4 C35.4479,6.21875 37.5938,7.32813 40.7188,7.32813 C41.1771,7.32813 41.5365,7.29688 41.7969,7.23438 L41.8906,7.23438 C42.4115,7.23438 42.6719,7.71875 42.6719,8.6875 C42.6719,9.92708 42.25,10.6771 41.4063,10.9375 C40.0417,11.3958 38.6094,11.625 37.1094,11.625 C33.8594,11.625 31.5156,10.5156 30.0781,8.29688 L26.1719,11.8125 C20.7031,16.5 16.2448,18.8438 12.7969,18.8438 C11.8802,18.8438 10.9375,18.6823 9.96875,18.3594 C9.1875,18.0365 8.27604,17.5469 7.23438,16.8906 C6.83854,16.7031 6.39583,16.4609 5.90625,16.1641 C5.41667,15.8672 5.10938,15.6875 4.98438,15.625 C4.66146,15.5 4.5,15.2083 4.5,14.75 C4.5,14.2292 4.76042,13.6094 5.28125,12.8906 C5.72917,12.2448 6.3125,11.9219 7.03125,11.9219 M28.8125,-54 C28.8125,-52.375 27.4115,-51.5625 24.6094,-51.5625 C22.1406,-51.5625 19.9948,-52.375 18.1719,-54 C16.4115,-55.6354 15.5313,-57.625 15.5313,-59.9688 C15.5313,-62.2396 16.2448,-64.1927 17.6719,-65.8281 C19.1719,-67.5156 21.0938,-68.7813 23.4375,-69.625 C25.5833,-70.4063 27.9948,-71.026 30.6719,-71.4844 C33.4635,-71.8073 36.1302,-71.9688 38.6719,-71.9688 C40.1719,-71.9688 42.974,-71.2865 47.0781,-69.9219 C51.2448,-68.5573 54.1406,-67.875 55.7656,-67.875 C57.7865,-67.875 59.7083,-68.2344 61.5313,-68.9531 C63.0208,-69.599 64.4531,-70.3438 65.8281,-71.1875 C66.9323,-71.9063 67.5469,-72.2656 67.6719,-72.2656 C68.2656,-72.2656 68.7865,-72.0729 69.2344,-71.6875 C69.7552,-71.1667 70.0156,-70.7396 70.0156,-70.4063 C70.0156,-69.9583 69.401,-69.2135 68.1719,-68.1719 C66.8698,-66.9948 65.013,-65.8203 62.6016,-64.6484 C60.1901,-63.4766 57.651,-62.8906 54.9844,-62.8906 C53.8073,-62.8906 52.3438,-63.0885 50.5938,-63.4844 C49.4792,-56.2552 48.3073,-49.8385 47.0781,-44.2344 C46.0365,-39.2865 43.9531,-34.9583 40.8281,-31.25 C37.8281,-27.5417 34.474,-25.6875 30.7656,-25.6875 C29.2656,-25.6875 27.9323,-25.9792 26.7656,-26.5625 C25.4635,-27.2188 24.0938,-28.1979 22.6563,-29.5 C21.4896,-30.4688 20.3854,-31.3438 19.3438,-32.125 C19.0833,-32.3229 18.9531,-32.6198 18.9531,-33.0156 C18.9531,-33.4635 19.2135,-34.0469 19.7344,-34.7656 C20.2552,-35.349 20.7396,-35.6406 21.1875,-35.6406 C21.5833,-35.6406 22.6927,-34.8281 24.5156,-33.2031 C26.3385,-31.5781 27.9635,-30.7656 29.3906,-30.7656 C31.9948,-30.7656 34.0156,-32.2604 35.4531,-35.25 C36.8802,-38.1875 37.6927,-41.7031 37.8906,-45.7969 C38.2135,-52.5052 38.9635,-59.4427 40.1406,-66.6094 C38.7031,-66.9323 37.6302,-67.0938 36.9219,-67.0938 C33.7969,-67.0938 31.125,-66.4427 28.9063,-65.1406 C26.6979,-63.901 25.5938,-62.2083 25.5938,-60.0625 C25.5938,-58.5 26.1146,-57.2969 27.1563,-56.4531 C28.2604,-55.5365 28.8125,-54.7188 28.8125,-54"/>
<path class="Clef" transform="matrix(0.566929,0,0,0.566929,28.5015,478.905)" d="M21.2969,33.9844 C21.2969,35.4219 20.1875,36.1406 17.9688,36.1406 C16.1458,36.1406 14.5833,35.5833 13.2813,34.4688 C11.9167,33.3646 11.2344,31.9323 11.2344,30.1719 C11.2344,26.9844 13.0885,24.4792 16.7969,22.6563 C20.7031,20.7708 25.0677,19.8281 29.8906,19.8281 C34.5052,19.8281 38.6042,20.4479 42.1875,21.6875 C45.5104,23.0521 47.1719,25.1667 47.1719,28.0313 C47.1719,31.5417 45.3177,34.4688 41.6094,36.8125 C47.0781,37.9271 49.8125,40.3698 49.8125,44.1406 C49.8125,47.2656 48.3438,50.1615 45.4063,52.8281 C42.5417,55.4323 39.1927,56.7344 35.3594,56.7344 C33.7969,56.7344 32.2344,56.3802 30.6719,55.6719 C29.2344,55.0156 28.1927,54.2969 27.5469,53.5156 C26.8906,52.9323 26.5625,52.3802 26.5625,51.8594 C26.5625,51.3385 26.8229,50.9167 27.3438,50.5938 C27.8021,50.1354 28.2917,49.9063 28.8125,49.9063 C29.0729,49.9063 29.5599,50.2318 30.2734,50.8828 C30.987,51.5339 31.9635,51.8594 33.2031,51.8594 C35.0885,51.8594 36.849,51.1406 38.4844,49.7031 C40.0469,48.2135 40.8281,46.4896 40.8281,44.5313 C40.8281,42.8438 40.0469,41.5417 38.4844,40.625 C36.9844,39.7813 35.0625,39.3594 32.7188,39.3594 C32.2604,39.3594 32.0313,38.9688 32.0313,38.1875 C32.0313,36.8854 32.5208,36.2344 33.5,36.2344 C34.9271,36.2344 36.1979,35.6146 37.3125,34.375 C38.4167,32.9479 38.9688,31.4844 38.9688,29.9844 C38.9688,26.7969 36.8542,24.8125 32.625,24.0313 L29.3906,41.6094 C28.5469,45.9635 26.9531,49.7396 24.6094,52.9375 C22.2031,56.125 19.5677,57.7188 16.7031,57.7188 C15.724,57.7188 14.8125,57.5208 13.9688,57.125 C13.1875,56.8021 12.2083,56.151 11.0313,55.1719 C9.72917,54.1302 9.04688,53.5781 8.98438,53.5156 C8.72396,53.2552 8.59375,53.026 8.59375,52.8281 C8.59375,52.4427 8.79167,51.9583 9.1875,51.375 C9.63542,50.9167 10.0885,50.6875 10.5469,50.6875 C10.7448,50.6875 11.526,51.1771 12.8906,52.1563 C13.9948,53.1979 15.1667,53.7188 16.4063,53.7188 C18.8125,53.7188 20.6042,52.2188 21.7813,49.2188 C22.9479,46.0938 23.5313,42.3854 23.5313,38.0938 L23.5313,37.4063 C23.5313,34.7396 23.9896,30.4115 24.9063,24.4219 C23.2083,25.0052 21.875,25.7865 20.9063,26.7656 C19.8646,27.8073 19.3438,28.8802 19.3438,29.9844 C19.3438,30.8906 19.6667,31.6406 20.3125,32.2344 C20.9688,32.8802 21.2969,33.4635 21.2969,33.9844 M5.5625,9.46875 C5.82292,9.46875 6.47396,9.76563 7.51563,10.3594 C8.69271,10.8802 9.57292,11.1406 10.1563,11.1406 C13.0208,11.1406 17.1875,7.75521 22.6563,0.984375 C28.0625,-5.66146 32,-12.6979 34.4688,-20.125 C35.0625,-22.0729 36.5938,-23.0469 39.0625,-23.0469 C40.3021,-23.0469 41.3438,-22.7865 42.1875,-22.2656 C43.1042,-21.8802 43.5625,-21.3281 43.5625,-20.6094 L42.1875,8.59375 C42.1875,10.2917 42.776,11.1406 43.9531,11.1406 C44.3385,11.1406 45.151,10.8802 46.3906,10.3594 C47.5573,9.76563 48.2083,9.46875 48.3438,9.46875 C48.8021,9.46875 49.0313,9.92708 49.0313,10.8438 C49.0313,11.625 48.7344,12.1146 48.1406,12.3125 C47.4323,12.6354 46.3594,13.1563 44.9219,13.875 C43.2969,14.7188 42.026,15.1406 41.1094,15.1406 C40.1406,15.1406 39.2292,14.7188 38.375,13.875 C37.5313,12.8333 36.7865,10.8125 36.1406,7.8125 C35.3594,4.82292 34.7708,0.588542 34.375,-4.89063 C32.3542,-2.21354 30.0781,0.489583 27.5469,3.21875 C28.5156,4.91667 30.5,5.76563 33.5,5.76563 C33.8854,5.76563 34.0781,6.1875 34.0781,7.03125 C34.0781,8.53125 32.5833,9.28125 29.5938,9.28125 C27.0521,9.28125 25.2292,8.40104 24.125,6.64063 L21,9.375 C16.7708,13.0208 13.1563,14.9115 10.1563,15.0469 C9.11458,15.0469 7.75,14.5885 6.0625,13.6719 C4.42708,12.8281 3.60938,12.2083 3.60938,11.8125 C3.60938,11.3646 3.80729,10.8802 4.20313,10.3594 C4.58854,9.76563 5.04167,9.46875 5.5625,9.46875 M23.0469,-43.1719 C23.0469,-41.9323 21.9427,-41.3125 19.7344,-41.3125 C17.776,-41.3125 16.0469,-41.9635 14.5469,-43.2656 C13.1198,-44.5052 12.4063,-46.099 12.4063,-48.0469 C12.4063,-49.8698 12.9583,-51.4323 14.0625,-52.7344 C15.3646,-54.1719 16.9271,-55.151 18.75,-55.6719 C20.0521,-56.1927 22.0052,-56.7135 24.6094,-57.2344 C27.349,-57.4948 29.4635,-57.625 30.9531,-57.625 C32.0677,-57.625 34.2839,-57.0703 37.6016,-55.9609 C40.9193,-54.8516 43.2604,-54.2969 44.625,-54.2969 C46.2604,-54.2969 47.7917,-54.5573 49.2188,-55.0781 C50.5833,-55.6615 51.6927,-56.25 52.5469,-56.8438 C53.3906,-57.4896 53.9115,-57.8125 54.1094,-57.8125 C54.4948,-57.8125 54.9167,-57.651 55.375,-57.3281 C55.7604,-57.0052 55.9531,-56.6771 55.9531,-56.3438 C55.9531,-56.0833 55.4688,-55.4688 54.5,-54.5 C53.3229,-53.4583 51.8229,-52.5469 50,-51.7656 C48.0521,-50.7865 46.0677,-50.2969 44.0469,-50.2969 C43.0052,-50.2969 41.8333,-50.4583 40.5313,-50.7813 C39.6146,-44.4063 38.6719,-39.2292 37.7031,-35.25 C36.849,-31.2813 35.1875,-27.8333 32.7188,-24.9063 C30.3125,-21.9792 27.6406,-20.5156 24.7031,-20.5156 C23.401,-20.5156 22.3281,-20.776 21.4844,-21.2969 C20.3802,-21.8177 19.276,-22.5625 18.1719,-23.5313 C17.1302,-24.5104 16.25,-25.2292 15.5313,-25.6875 C15.2708,-25.9479 15.1406,-26.1771 15.1406,-26.375 C15.1406,-26.8229 15.3021,-27.276 15.625,-27.7344 C15.9479,-28.2552 16.3698,-28.5156 16.8906,-28.5156 C17.151,-28.5156 18.0313,-27.8646 19.5313,-26.5625 C21.0313,-25.2604 22.3646,-24.6094 23.5313,-24.6094 C25.0938,-24.6094 26.3021,-25.1302 27.1563,-26.1719 C28.0625,-27.2135 28.776,-28.776 29.2969,-30.8594 C29.7552,-32.7448 30.0833,-34.8594 30.2813,-37.2031 C30.5417,-39.1615 30.8333,-41.8333 31.1563,-45.2188 C31.3542,-47.1042 31.6771,-49.8073 32.125,-53.3281 C31.0208,-53.5885 30.1458,-53.7188 29.5,-53.7188 C27.1563,-53.7188 25.0365,-53.1979 23.1406,-52.1563 C21.3906,-50.9792 20.5156,-49.6406 20.5156,-48.1406 C20.5156,-47.0365 20.9375,-46.0625 21.7813,-45.2188 C22.625,-44.375 23.0469,-43.6927 23.0469,-43.1719"/>
<path class="Clef" transform="matrix(0.566929,0,0,0.566929,28.5015,321.227)" d="M57.1328,-8.89063 C56.1589,-9.86979 55.6719,-11.0755 55.6719,-12.5078 C55.6719,-13.9401 56.1589,-15.1432 57.1328,-16.1172 C58.1068,-17.0911 59.3099,-17.5781 60.7422,-17.5781 C62.1745,-17.5781 63.3802,-17.0911 64.3594,-16.1172 C65.3385,-15.1432 65.8281,-13.9401 65.8281,-12.5078 C65.8281,-11.0755 65.3385,-9.86979 64.3594,-8.89063 C63.3802,-7.91146 62.1745,-7.42188 60.7422,-7.42188 C59.3099,-7.42188 58.1068,-7.91146 57.1328,-8.89063 M57.1328,16.1172 C56.1589,15.1432 55.6719,13.9401 55.6719,12.5078 C55.6719,11.0755 56.1589,9.86979 57.1328,8.89063 C58.1068,7.91146 59.3099,7.42188 60.7422,7.42188 C62.1745,7.42188 63.3802,7.91146 64.3594,8.89063 C65.3385,9.86979 65.8281,11.0755 65.8281,12.5078 C65.8281,13.9401 65.3385,15.1432 64.3594,16.1172 C63.3802,17.0911 62.1745,17.5781 60.7422,17.5781 C59.3099,17.5781 58.1068,17.0911 57.1328,16.1172 M23.25,-26.2656 C31.9063,-26.2656 39,-24.0885 44.5313,-19.7344 C49.875,-15.1719 52.5469,-8.98438 52.5469,-1.17188 C52.5469,4.09896 51.5052,8.91667 49.4219,13.2813 C47.4635,17.8438 44.8906,21.8802 41.7031,25.3906 C38.4427,28.974 34.5052,32.3594 29.8906,35.5469 C25.3906,38.6719 20.7656,41.474 16.0156,43.9531 C6.31771,48.8281 0.979167,51.2656 0,51.2656 C-0.84375,51.2656 -1.26563,50.8438 -1.26563,50 C-1.26563,49.6771 -1.13542,49.3854 -0.875,49.125 C2.44792,47.1667 6.51563,44.6615 11.3281,41.6094 C14.4531,39.5885 18.099,36.7865 22.2656,33.2031 C26.3073,29.8177 29.4323,26.6302 31.6406,23.6406 C33.9219,20.7031 36.0052,17.0573 37.8906,12.7031 C39.5156,8.33854 40.3281,4.03646 40.3281,-0.203125 C40.3281,-6.51563 38.7656,-12.0156 35.6406,-16.7031 C32.5156,-21.3906 28.3854,-23.7344 23.25,-23.7344 C19.6042,-23.7344 16.4792,-22.5625 13.875,-20.2188 C11.0729,-17.8125 9.05208,-14.7865 7.8125,-11.1406 C9.05208,-11.6615 10.1927,-11.9219 11.2344,-11.9219 C13.9635,-11.9219 16.3073,-10.9427 18.2656,-8.98438 C20.2135,-6.90104 21.1875,-4.52604 21.1875,-1.85938 C21.1875,0.942708 20.2448,3.45313 18.3594,5.67188 C16.3385,7.68229 13.9635,8.6875 11.2344,8.6875 C8.30729,8.6875 5.67188,7.68229 3.32813,5.67188 C1.10938,3.45313 0,0.942708 0,-1.85938 C0,-8.56771 2.28125,-14.2969 6.84375,-19.0469 C11.3333,-23.8594 16.8021,-26.2656 23.25,-26.2656"/>
<path class="Clef" transform="matrix(0.566929,0,0,0.566929,28.5015,200.755)" d="M36.3281,-7.32813 C33.3385,-7.32813 31.8438,-4.88542 31.8438,0 C31.8438,4.88542 33.3385,7.32813 36.3281,7.32813 C37.3073,7.32813 38.7396,6.80729 40.625,5.76563 C42.4479,4.72396 43.9479,4.20313 45.125,4.20313 C51.3021,4.20313 56.6719,6.1875 61.2344,10.1563 C65.724,14.2604 67.9688,19.2083 67.9688,25 C67.9688,41.6667 59.1458,50 41.5,50 C37.2708,50 33.6615,48.6354 30.6719,45.9063 C27.7344,43.1667 26.2656,39.8125 26.2656,35.8438 C26.2656,33.6979 27.0156,31.875 28.5156,30.375 C30.0156,28.875 31.8073,28.125 33.8906,28.125 C35.974,28.125 37.763,28.875 39.2578,30.375 C40.7526,31.875 41.5,33.6979 41.5,35.8438 C41.5,37.1458 40.6875,38.4167 39.0625,39.6563 C37.4375,40.8229 36.625,42.0573 36.625,43.3594 C36.625,44.5365 37.1146,45.4479 38.0938,46.0938 C39,46.8125 40.1354,47.1719 41.5,47.1719 C46.9063,47.1719 50.5859,45.3151 52.5391,41.6016 C54.4922,37.888 55.4688,32.3542 55.4688,25 C55.4688,19.3333 54.8854,15.0365 53.7188,12.1094 C52.4792,8.72396 49.6146,7.03125 45.125,7.03125 C41.7396,7.03125 38.875,8.49479 36.5313,11.4219 C34.3125,14.4219 33.2031,17.9063 33.2031,21.875 C33.2031,22.8542 32.7474,23.3438 31.8359,23.3438 C30.9245,23.3438 30.4688,22.8542 30.4688,21.875 C30.4688,14.125 27.6719,7.45313 22.0781,1.85938 L22.0781,49.0313 C22.0781,49.6771 21.75,50 21.0938,50 L19.0469,50 C18.3281,50 17.9688,49.6771 17.9688,49.0313 L17.9688,-49.0313 C17.9688,-49.6771 18.3281,-50 19.0469,-50 L21.0938,-50 C21.75,-50 22.0781,-49.6771 22.0781,-49.0313 L22.0781,-1.85938 C27.6719,-7.45313 30.4688,-14.125 30.4688,-21.875 C30.4688,-22.8542 30.9245,-23.3438 31.8359,-23.3438 C32.7474,-23.3438 33.2031,-22.8542 33.2031,-21.875 C33.2031,-17.9063 34.3125,-14.4219 36.5313,-11.4219 C38.875,-8.49479 41.7396,-7.03125 45.125,-7.03125 C49.6146,-7.03125 52.4792,-8.72396 53.7188,-12.1094 C54.8854,-15.0365 55.4688,-19.3333 55.4688,-25 C55.4688,-32.3542 54.4922,-37.888 52.5391,-41.6016 C50.5859,-45.3151 46.9063,-47.1719 41.5,-47.1719 C40.1354,-47.1719 39,-46.8125 38.0938,-46.0938 C37.1146,-45.5104 36.625,-44.599 36.625,-43.3594 C36.625,-42.0573 37.4375,-40.8229 39.0625,-39.6563 C40.6875,-38.4167 41.5,-37.1458 41.5,-35.8438 C41.5,-33.6979 40.7526,-31.875 39.2578,-30.375 C37.763,-28.875 35.974,-28.125 33.8906,-28.125 C31.8073,-28.125 30.0156,-28.875 28.5156,-30.375 C27.0156,-31.875 26.2656,-33.6979 26.2656,-35.8438 C26.2656,-39.8125 27.7344,-43.1667 30.6719,-45.9063 C33.6615,-48.6354 37.2708,-50 41.5,-50 C59.1458,-50 67.9688,-41.6667 67.9688,-25 C67.9688,-19.2083 65.724,-14.2604 61.2344,-10.1563 C56.6719,-6.1875 51.3021,-4.20313 45.125,-4.20313 C44.0104,-4.20313 42.5104,-4.72396 40.625,-5.76563 C38.7396,-6.80729 37.3073,-7.32813 36.3281,-7.32813 M12.8906,50 L0.984375,50 C0.328125,50 0,49.6771 0,49.0313 L0,-49.0313 C0,-49.6771 0.328125,-50 0.984375,-50 L12.8906,-50 C13.5469,-50 13.875,-49.6771 13.875,-49.0313 L13.875,49.0313 C13.875,49.6771 13.5469,50 12.8906,50"/>
<path class="Clef" transform="matrix(0.566929,0,0,0.566929,28.5015,80.2825)" d="M36.7188,-25.5938 C36.7188,-25.5938 36.9167,-25.5938 37.3125,-25.5938 C37.5729,-25.6563 37.7969,-25.6875 37.9844,-25.6875 C45.276,-25.6875 51.2656,-23.1146 55.9531,-17.9688 C60.6406,-12.8958 62.9844,-6.97396 62.9844,-0.203125 C62.9844,8.20313 59.5052,15.0417 52.5469,20.3125 C50.724,21.75 48.3438,22.9219 45.4063,23.8281 C45.7396,28.0573 45.9063,31.474 45.9063,34.0781 C45.9063,34.599 45.8385,36.4896 45.7031,39.75 C45.4427,45.8021 43.3594,51.0417 39.4531,55.4688 C35.6823,59.8333 30.9948,62.0156 25.3906,62.0156 C20.1198,62.0156 15.6302,60.1615 11.9219,56.4531 C8.20313,52.6719 6.34375,48.1146 6.34375,42.7813 C6.34375,39.9792 7.42188,37.599 9.57813,35.6406 C11.7865,33.6927 14.3542,32.7188 17.2813,32.7188 C19.8854,32.7188 22.0677,33.7292 23.8281,35.75 C25.651,37.6354 26.5625,39.9792 26.5625,42.7813 C26.5625,45.3125 25.651,47.4896 23.8281,49.3125 C22.0052,51.1354 19.8229,52.0469 17.2813,52.0469 C16.2396,52.0469 15.2344,51.8542 14.2656,51.4688 C17.1302,55.6979 20.9375,57.8125 25.6875,57.8125 C30.1771,57.8125 33.8542,55.9896 36.7188,52.3438 C39.7188,48.5729 41.349,44.1771 41.6094,39.1563 C41.7344,36.0313 41.7969,34.2448 41.7969,33.7969 C41.7969,30.151 41.6667,27.1563 41.4063,24.8125 C38.1563,25.3333 35.2604,25.5938 32.7188,25.5938 C23.6667,25.5938 15.9531,22.0104 9.57813,14.8438 C3.32813,7.61458 0.203125,-0.979167 0.203125,-10.9375 C0.203125,-13.0208 0.395833,-15.1354 0.78125,-17.2813 C1.17708,-19.0417 1.66667,-20.9635 2.25,-23.0469 C2.57292,-24.224 3.45313,-26.1146 4.89063,-28.7188 C5.41146,-29.5 5.9974,-30.4766 6.64844,-31.6484 C7.29948,-32.8203 7.75521,-33.599 8.01563,-33.9844 C8.66146,-35.2865 9.92708,-37.0469 11.8125,-39.2656 C12.3333,-39.849 12.8724,-40.4974 13.4297,-41.2109 C13.987,-41.9245 14.4609,-42.5104 14.8516,-42.9688 C15.2422,-43.4271 15.5339,-43.7865 15.7266,-44.0469 C15.9193,-44.3073 17.3854,-46.0313 20.125,-49.2188 C20.7708,-49.875 21.4036,-50.5755 22.0234,-51.3203 C22.6432,-52.0651 23.1484,-52.651 23.5391,-53.0781 C23.9297,-53.5052 24.224,-53.8125 24.4219,-54 C22.0781,-61.75 20.6094,-67.9375 20.0156,-72.5625 C19.5677,-76.2708 19.3438,-81.349 19.3438,-87.7969 C19.3438,-93.4635 20.6458,-98.7708 23.25,-103.719 C25.7813,-108.854 29.3281,-113.052 33.8906,-116.313 C34.151,-116.51 34.474,-116.609 34.8594,-116.609 C35.3177,-116.609 35.6458,-116.51 35.8438,-116.313 C39.3542,-112.083 42.3802,-106.583 44.9219,-99.8125 C47.526,-93.0417 48.8281,-86.8854 48.8281,-81.3438 C48.8281,-75.0938 47.3333,-69.2344 44.3438,-63.7656 C40.9583,-57.974 36.5938,-51.9844 31.25,-45.7969 C32.6146,-41.5052 34.4375,-34.7708 36.7188,-25.5938 M45.0156,19.8281 C48.401,18.5885 51.0417,16.474 52.9375,13.4844 C55.0208,10.6198 56.0625,7.39583 56.0625,3.8125 C56.0625,-0.8125 54.5,-4.91667 51.375,-8.5 C48.1771,-12.2083 44.1042,-14.2917 39.1563,-14.75 C41.9583,-1.01042 43.9115,10.5156 45.0156,19.8281 M7.23438,-2.73438 C7.23438,3.71354 9.83854,9.38021 15.0469,14.2656 C20.3802,19.0156 26.3698,21.3906 33.0156,21.3906 C35.7448,21.3906 38.4115,21.1927 41.0156,20.7969 C39.974,10.901 37.9219,-0.947917 34.8594,-14.75 C31.151,-14.3542 28.1927,-13.0521 25.9844,-10.8438 C23.8281,-8.5625 22.75,-5.98958 22.75,-3.125 C22.75,1.82292 25.3906,5.82813 30.6719,8.89063 C31.1198,9.34896 31.3438,9.83854 31.3438,10.3594 C31.3438,10.8802 31.1198,11.3646 30.6719,11.8125 C30.276,12.2708 29.7865,12.5 29.2031,12.5 C29.1406,12.5 28.849,12.4375 28.3281,12.3125 C24.6094,10.2917 21.7448,7.6875 19.7344,4.5 C17.8385,1.10417 16.8906,-2.31771 16.8906,-5.76563 C16.8906,-10.2552 18.2917,-14.3229 21.0938,-17.9688 C24.0208,-21.6146 27.8281,-23.9583 32.5156,-25 C30.6927,-32.2917 29.1979,-37.9896 28.0313,-42.0938 C26.9896,-40.9167 25.737,-39.5 24.2734,-37.8438 C22.8099,-36.1875 21.9479,-35.1927 21.6875,-34.8594 C19.3438,-31.8073 17.5521,-29.4323 16.3125,-27.7344 C14.0938,-24.6719 12.4635,-22.0365 11.4219,-19.8281 C10.3177,-17.349 9.34375,-14.6458 8.5,-11.7188 C7.65625,-8.91667 7.23438,-5.92188 7.23438,-2.73438 M39.8438,-102.047 C34.9583,-99.6406 31.1198,-96.1927 28.3281,-91.7031 C25.4635,-87.0781 24.0313,-82.099 24.0313,-76.7656 C24.0313,-72.0781 25.2031,-65.7604 27.5469,-57.8125 C32.2344,-63.4792 35.75,-68.7188 38.0938,-73.5313 C40.5625,-78.6146 41.7969,-83.9219 41.7969,-89.4531 C41.7969,-93.6198 41.1458,-97.8177 39.8438,-102.047"/>
</svg>
