<?xml version="1.0" encoding="UTF-8" standalone="no"?>
<svg width="637.794px" height="765.353px" viewBox="0 0 637.794 765.353"
 xmlns="http://www.w3.org/2000/svg" xmlns:xlink="http://www.w3.org/1999/xlink" version="1.2" baseProfile="tiny">
<title>harmonicminor (93)</title>
<desc>Generated by MuseScore 3.4.2</desc>
<polyline class="StaffLines" fill="none" stroke="#000000" stroke-width="1.13" stroke-linejoin="bevel" points="14.1732,42.5197 623.621,42.5197"/>
<polyline class="StaffLines" fill="none" stroke="#000000" stroke-width="1.13" stroke-linejoin="bevel" points="14.1732,56.6929 623.621,56.6929"/>
<polyline class="StaffLines" fill="none" stroke="#000000" stroke-width="1.13" stroke-linejoin="bevel" points="14.1732,70.8661 623.621,70.8661"/>
<polyline class="StaffLines" fill="none" stroke="#000000" stroke-width="1.13" stroke-linejoin="bevel" points="14.1732,85.0394 623.621,85.0394"/>
<polyline class="StaffLines" fill="none" stroke="#000000" stroke-width="1.13" stroke-linejoin="bevel" points="14.1732,99.2126 623.621,99.2126"/>
<polyline class="StaffLines" fill="none" stroke="#000000" stroke-width="1.13" stroke-linejoin="bevel" points="14.1732,177.165 623.621,177.165"/>
<polyline class="StaffLines" fill="none" stroke="#000000" stroke-width="1.13" stroke-linejoin="bevel" points="14.1732,191.339 623.621,191.339"/>
<polyline class="StaffLines" fill="none" stroke="#000000" stroke-width="1.13" stroke-linejoin="bevel" points="14.1732,205.512 623.621,205.512"/>
<polyline class="StaffLines" fill="none" stroke="#000000" stroke-width="1.13" stroke-linejoin="bevel" points="14.1732,219.685 623.621,219.685"/>
<polyline class="StaffLines" fill="none" stroke="#000000" stroke-width="1.13" stroke-linejoin="bevel" points="14.1732,233.858 623.621,233.858"/>
<polyline class="StaffLines" fill="none" stroke="#000000" stroke-width="1.13" stroke-linejoin="bevel" points="14.1732,311.811 623.621,311.811"/>
<polyline class="StaffLines" fill="none" stroke="#000000" stroke-width="1.13" stroke-linejoin="bevel" points="14.1732,325.984 623.621,325.984"/>
<polyline class="StaffLines" fill="none" stroke="#000000" stroke-width="1.13" stroke-linejoin="bevel" points="14.1732,340.157 623.621,340.157"/>
<polyline class="StaffLines" fill="none" stroke="#000000" stroke-width="1.13" stroke-linejoin="bevel" points="14.1732,354.331 623.621,354.331"/>
<polyline class="StaffLines" fill="none" stroke="#000000" stroke-width="1.13" stroke-linejoin="bevel" points="14.1732,368.504 623.621,368.504"/>
<polyline class="StaffLines" fill="none" stroke="#000000" stroke-width="1.13" stroke-linejoin="bevel" points="14.1732,446.457 623.621,446.457"/>
<polyline class="StaffLines" fill="none" stroke="#000000" stroke-width="1.13" stroke-linejoin="bevel" points="14.1732,471.26 623.621,471.26"/>
<polyline class="StaffLines" fill="none" stroke="#000000" stroke-width="1.13" stroke-linejoin="bevel" points="14.1732,496.063 623.621,496.063"/>
<polyline class="StaffLines" fill="none" stroke="#000000" stroke-width="1.13" stroke-linejoin="bevel" points="14.1732,520.866 623.621,520.866"/>
<polyline class="StaffLines" fill="none" stroke="#000000" stroke-width="1.13" stroke-linejoin="bevel" points="14.1732,598.819 623.621,598.819"/>
<polyline class="StaffLines" fill="none" stroke="#000000" stroke-width="1.13" stroke-linejoin="bevel" points="14.1732,623.622 623.621,623.622"/>
<polyline class="StaffLines" fill="none" stroke="#000000" stroke-width="1.13" stroke-linejoin="bevel" points="14.1732,648.425 623.621,648.425"/>
<polyline class="StaffLines" fill="none" stroke="#000000" stroke-width="1.13" stroke-linejoin="bevel" points="14.1732,673.228 623.621,673.228"/>
<polyline class="StaffLines" fill="none" stroke="#000000" stroke-width="1.13" stroke-linejoin="bevel" points="14.1732,698.032 623.621,698.032"/>
<polyline class="StaffLines" fill="none" stroke="#000000" stroke-width="1.13" stroke-linejoin="bevel" points="14.1732,722.835 623.621,722.835"/>
<path class="Accidental" transform="matrix(0.566929,0,0,0.566929,473.193,318.898)" d="M21.5781,31.1563 C21.5781,32.3958 20.9609,33.0156 19.7266,33.0156 C18.4922,33.0156 17.875,32.3958 17.875,31.1563 L17.875,16.7031 L9.57813,19.8281 L9.57813,35.6406 C9.57813,36.8802 8.95833,37.5 7.71875,37.5 C6.47917,37.5 5.85938,36.8802 5.85938,35.6406 L5.85938,21.0938 L2.73438,22.2656 C2.67188,22.3281 2.41146,22.3594 1.95313,22.3594 C1.43229,22.3594 0.976563,22.1641 0.585938,21.7734 C0.195313,21.3828 0,20.9271 0,20.4063 L0,14.3594 C0,13.3802 0.421875,12.7604 1.26563,12.5 L5.85938,10.9375 L5.85938,-5.07813 L2.73438,-4 C2.67188,-3.9375 2.41146,-3.90625 1.95313,-3.90625 C1.43229,-3.90625 0.976563,-4.10156 0.585938,-4.49219 C0.195313,-4.88281 0,-5.33854 0,-5.85938 L0,-11.9219 C0,-12.8281 0.421875,-13.4115 1.26563,-13.6719 L5.85938,-15.4375 L5.85938,-31.1563 C5.85938,-32.3958 6.47917,-33.0156 7.71875,-33.0156 C8.95833,-33.0156 9.57813,-32.3958 9.57813,-31.1563 L9.57813,-16.7031 L17.875,-19.8281 L17.875,-35.6406 C17.875,-36.8802 18.4922,-37.5 19.7266,-37.5 C20.9609,-37.5 21.5781,-36.8802 21.5781,-35.6406 L21.5781,-21.0938 L24.8125,-22.2656 C24.875,-22.3281 25.099,-22.3594 25.4844,-22.3594 C25.9427,-22.3594 26.4323,-22.1667 26.9531,-21.7813 C27.349,-21.3854 27.5469,-20.9271 27.5469,-20.4063 L27.5469,-14.3594 C27.5469,-13.4427 27.0885,-12.8229 26.1719,-12.5 L21.5781,-10.9375 L21.5781,5.07813 L24.8125,4 C24.875,3.9375 25.099,3.90625 25.4844,3.90625 C25.9427,3.90625 26.4323,4.10417 26.9531,4.5 C27.349,4.88542 27.5469,5.33854 27.5469,5.85938 L27.5469,11.9219 C27.5469,12.7656 27.0885,13.349 26.1719,13.6719 L21.5781,15.4375 L21.5781,31.1563 M17.875,-9.46875 L9.57813,-6.54688 L9.57813,9.46875 L17.875,6.54688 L17.875,-9.46875 "/>
<path class="Accidental" transform="matrix(0.566929,0,0,0.566929,473.193,177.165)" d="M21.5781,31.1563 C21.5781,32.3958 20.9609,33.0156 19.7266,33.0156 C18.4922,33.0156 17.875,32.3958 17.875,31.1563 L17.875,16.7031 L9.57813,19.8281 L9.57813,35.6406 C9.57813,36.8802 8.95833,37.5 7.71875,37.5 C6.47917,37.5 5.85938,36.8802 5.85938,35.6406 L5.85938,21.0938 L2.73438,22.2656 C2.67188,22.3281 2.41146,22.3594 1.95313,22.3594 C1.43229,22.3594 0.976563,22.1641 0.585938,21.7734 C0.195313,21.3828 0,20.9271 0,20.4063 L0,14.3594 C0,13.3802 0.421875,12.7604 1.26563,12.5 L5.85938,10.9375 L5.85938,-5.07813 L2.73438,-4 C2.67188,-3.9375 2.41146,-3.90625 1.95313,-3.90625 C1.43229,-3.90625 0.976563,-4.10156 0.585938,-4.49219 C0.195313,-4.88281 0,-5.33854 0,-5.85938 L0,-11.9219 C0,-12.8281 0.421875,-13.4115 1.26563,-13.6719 L5.85938,-15.4375 L5.85938,-31.1563 C5.85938,-32.3958 6.47917,-33.0156 7.71875,-33.0156 C8.95833,-33.0156 9.57813,-32.3958 9.57813,-31.1563 L9.57813,-16.7031 L17.875,-19.8281 L17.875,-35.6406 C17.875,-36.8802 18.4922,-37.5 19.7266,-37.5 C20.9609,-37.5 21.5781,-36.8802 21.5781,-35.6406 L21.5781,-21.0938 L24.8125,-22.2656 C24.875,-22.3281 25.099,-22.3594 25.4844,-22.3594 C25.9427,-22.3594 26.4323,-22.1667 26.9531,-21.7813 C27.349,-21.3854 27.5469,-20.9271 27.5469,-20.4063 L27.5469,-14.3594 C27.5469,-13.4427 27.0885,-12.8229 26.1719,-12.5 L21.5781,-10.9375 L21.5781,5.07813 L24.8125,4 C24.875,3.9375 25.099,3.90625 25.4844,3.90625 C25.9427,3.90625 26.4323,4.10417 26.9531,4.5 C27.349,4.88542 27.5469,5.33854 27.5469,5.85938 L27.5469,11.9219 C27.5469,12.7656 27.0885,13.349 26.1719,13.6719 L21.5781,15.4375 L21.5781,31.1563 M17.875,-9.46875 L9.57813,-6.54688 L9.57813,9.46875 L17.875,6.54688 L17.875,-9.46875 "/>
<path class="Accidental" transform="matrix(0.566929,0,0,0.566929,473.193,35.4331)" d="M21.5781,31.1563 C21.5781,32.3958 20.9609,33.0156 19.7266,33.0156 C18.4922,33.0156 17.875,32.3958 17.875,31.1563 L17.875,16.7031 L9.57813,19.8281 L9.57813,35.6406 C9.57813,36.8802 8.95833,37.5 7.71875,37.5 C6.47917,37.5 5.85938,36.8802 5.85938,35.6406 L5.85938,21.0938 L2.73438,22.2656 C2.67188,22.3281 2.41146,22.3594 1.95313,22.3594 C1.43229,22.3594 0.976563,22.1641 0.585938,21.7734 C0.195313,21.3828 0,20.9271 0,20.4063 L0,14.3594 C0,13.3802 0.421875,12.7604 1.26563,12.5 L5.85938,10.9375 L5.85938,-5.07813 L2.73438,-4 C2.67188,-3.9375 2.41146,-3.90625 1.95313,-3.90625 C1.43229,-3.90625 0.976563,-4.10156 0.585938,-4.49219 C0.195313,-4.88281 0,-5.33854 0,-5.85938 L0,-11.9219 C0,-12.8281 0.421875,-13.4115 1.26563,-13.6719 L5.85938,-15.4375 L5.85938,-31.1563 C5.85938,-32.3958 6.47917,-33.0156 7.71875,-33.0156 C8.95833,-33.0156 9.57813,-32.3958 9.57813,-31.1563 L9.57813,-16.7031 L17.875,-19.8281 L17.875,-35.6406 C17.875,-36.8802 18.4922,-37.5 19.7266,-37.5 C20.9609,-37.5 21.5781,-36.8802 21.5781,-35.6406 L21.5781,-21.0938 L24.8125,-22.2656 C24.875,-22.3281 25.099,-22.3594 25.4844,-22.3594 C25.9427,-22.3594 26.4323,-22.1667 26.9531,-21.7813 C27.349,-21.3854 27.5469,-20.9271 27.5469,-20.4063 L27.5469,-14.3594 C27.5469,-13.4427 27.0885,-12.8229 26.1719,-12.5 L21.5781,-10.9375 L21.5781,5.07813 L24.8125,4 C24.875,3.9375 25.099,3.90625 25.4844,3.90625 C25.9427,3.90625 26.4323,4.10417 26.9531,4.5 C27.349,4.88542 27.5469,5.33854 27.5469,5.85938 L27.5469,11.9219 C27.5469,12.7656 27.0885,13.349 26.1719,13.6719 L21.5781,15.4375 L21.5781,31.1563 M17.875,-9.46875 L9.57813,-6.54688 L9.57813,9.46875 L17.875,6.54688 L17.875,-9.46875 "/>
<polyline class="LedgerLine" fill="none" stroke="#000000" stroke-width="2.27" stroke-linecap="square" stroke-linejoin="bevel" points="552.387,28.3465 579.551,28.3465"/>
<path class="Note" fill="#ffffff" fill-opacity="0.0" fill-rule="evenodd" d="M104.913,685.63 L123.622,685.63 L123.622,710.433 L104.913,710.433 L104.913,685.63 "/>
<path class="Note" d="M107.533,699.172 C107.533,697.516 107.674,696.052 107.955,694.782 C108.236,693.511 108.591,692.516 109.018,691.797 C109.445,691.078 109.958,690.495 110.557,690.047 C111.156,689.599 111.731,689.3 112.283,689.149 C112.835,688.998 113.419,688.922 114.033,688.922 C118.367,688.922 120.533,692.396 120.533,699.344 C120.533,702.615 119.976,705.112 118.861,706.836 C117.747,708.56 116.138,709.422 114.033,709.422 C111.908,709.422 110.294,708.55 109.19,706.805 C108.085,705.06 107.533,702.516 107.533,699.172 M118.002,699.125 C118.002,693.782 116.677,691.11 114.026,691.11 C111.374,691.11 110.049,693.808 110.049,699.203 C110.049,704.651 111.356,707.375 113.971,707.375 C115.356,707.375 116.374,706.703 117.026,705.36 C117.677,704.016 118.002,701.938 118.002,699.125"/>
<path class="Note" fill="#ffffff" fill-opacity="0.0" fill-rule="evenodd" d="M104.913,636.024 L123.622,636.024 L123.622,660.827 L104.913,660.827 L104.913,636.024 "/>
<path class="Note" d="M107.736,646.206 C107.861,641.613 110.044,639.316 114.283,639.316 C116.169,639.316 117.7,639.857 118.877,640.941 C120.054,642.024 120.643,643.425 120.643,645.144 C120.643,647.613 119.242,649.613 116.44,651.144 L113.643,652.644 C112.424,653.3 111.554,653.936 111.033,654.55 C110.513,655.165 110.184,655.894 110.049,656.738 L120.502,656.738 L120.502,659.175 L107.283,659.175 C107.398,656.988 107.838,655.303 108.604,654.121 C109.369,652.938 110.789,651.759 112.861,650.581 L115.424,649.128 C117.216,648.097 118.111,646.79 118.111,645.206 C118.111,644.144 117.739,643.256 116.994,642.542 C116.249,641.829 115.32,641.472 114.205,641.472 C111.716,641.472 110.377,643.05 110.19,646.206 L107.736,646.206 "/>
<path class="Note" fill="#ffffff" fill-opacity="0.0" fill-rule="evenodd" d="M169.627,685.63 L188.336,685.63 L188.336,710.433 L169.627,710.433 L169.627,685.63 "/>
<path class="Note" d="M172.451,695.813 C172.576,691.219 174.758,688.922 178.998,688.922 C180.883,688.922 182.414,689.464 183.592,690.547 C184.769,691.63 185.357,693.032 185.357,694.75 C185.357,697.219 183.956,699.219 181.154,700.75 L178.357,702.25 C177.138,702.907 176.269,703.542 175.748,704.157 C175.227,704.771 174.899,705.5 174.763,706.344 L185.217,706.344 L185.217,708.782 L171.998,708.782 C172.112,706.594 172.553,704.909 173.318,703.727 C174.084,702.545 175.503,701.365 177.576,700.188 L180.138,698.735 C181.93,697.703 182.826,696.396 182.826,694.813 C182.826,693.75 182.454,692.862 181.709,692.149 C180.964,691.435 180.034,691.078 178.92,691.078 C176.43,691.078 175.092,692.657 174.904,695.813 L172.451,695.813 "/>
<path class="Note" fill="#ffffff" fill-opacity="0.0" fill-rule="evenodd" d="M169.627,611.22 L188.336,611.22 L188.336,636.024 L169.627,636.024 L169.627,611.22 "/>
<path class="Note" d="M172.248,624.763 C172.248,623.106 172.388,621.643 172.67,620.372 C172.951,619.101 173.305,618.106 173.732,617.388 C174.159,616.669 174.672,616.086 175.271,615.638 C175.87,615.19 176.446,614.89 176.998,614.739 C177.55,614.588 178.133,614.513 178.748,614.513 C183.081,614.513 185.248,617.987 185.248,624.935 C185.248,628.205 184.691,630.703 183.576,632.427 C182.461,634.151 180.852,635.013 178.748,635.013 C176.623,635.013 175.008,634.14 173.904,632.395 C172.8,630.651 172.248,628.106 172.248,624.763 M182.717,624.716 C182.717,619.372 181.391,616.7 178.74,616.7 C176.089,616.7 174.763,619.398 174.763,624.794 C174.763,630.242 176.071,632.966 178.685,632.966 C180.071,632.966 181.089,632.294 181.74,630.95 C182.391,629.606 182.717,627.528 182.717,624.716"/>
<path class="Note" fill="#ffffff" fill-opacity="0.0" fill-rule="evenodd" d="M234.342,685.63 L253.051,685.63 L253.051,710.433 L234.342,710.433 L234.342,685.63 "/>
<path class="Note" d="M243.322,691.078 C241.905,691.078 240.931,691.466 240.4,692.242 C239.869,693.018 239.582,694.052 239.54,695.344 L237.072,695.344 C237.165,691.063 239.238,688.922 243.29,688.922 C245.176,688.922 246.655,689.409 247.728,690.383 C248.801,691.357 249.337,692.693 249.337,694.391 C249.337,696.401 248.415,697.771 246.572,698.5 C247.759,698.917 248.616,699.492 249.142,700.227 C249.668,700.961 249.931,701.964 249.931,703.235 C249.931,705.12 249.319,706.623 248.095,707.742 C246.871,708.862 245.244,709.422 243.212,709.422 C239.139,709.422 236.952,707.287 236.65,703.016 L239.119,703.016 C239.212,704.453 239.595,705.516 240.267,706.203 C240.939,706.891 241.947,707.235 243.29,707.235 C244.582,707.235 245.59,706.886 246.314,706.188 C247.038,705.49 247.4,704.516 247.4,703.266 C247.4,700.86 246.03,699.657 243.29,699.657 L242.259,699.688 L241.947,699.688 L241.947,697.578 C243.718,697.547 244.973,697.326 245.712,696.914 C246.452,696.503 246.822,695.688 246.822,694.469 C246.822,693.427 246.509,692.602 245.884,691.992 C245.259,691.383 244.405,691.078 243.322,691.078"/>
<path class="Note" fill="#ffffff" fill-opacity="0.0" fill-rule="evenodd" d="M234.342,611.22 L253.051,611.22 L253.051,636.024 L234.342,636.024 L234.342,611.22 "/>
<path class="Note" d="M243.009,620.231 L238.619,620.231 L238.619,618.466 C240.525,618.226 241.767,617.89 242.345,617.458 C242.923,617.026 243.426,616.044 243.853,614.513 L245.478,614.513 L245.478,634.372 L243.009,634.372 L243.009,620.231 "/>
<path class="Note" fill="#ffffff" fill-opacity="0.0" fill-rule="evenodd" d="M299.056,660.827 L317.765,660.827 L317.765,685.63 L299.056,685.63 L299.056,660.827 "/>
<path class="Note" d="M301.677,674.369 C301.677,672.713 301.817,671.249 302.099,669.978 C302.38,668.708 302.734,667.713 303.161,666.994 C303.588,666.275 304.101,665.692 304.7,665.244 C305.299,664.796 305.875,664.497 306.427,664.346 C306.979,664.194 307.562,664.119 308.177,664.119 C312.51,664.119 314.677,667.593 314.677,674.541 C314.677,677.812 314.119,680.309 313.005,682.033 C311.89,683.757 310.281,684.619 308.177,684.619 C306.052,684.619 304.437,683.747 303.333,682.002 C302.229,680.257 301.677,677.713 301.677,674.369 M312.146,674.322 C312.146,668.978 310.82,666.306 308.169,666.306 C305.518,666.306 304.192,669.004 304.192,674.4 C304.192,679.848 305.5,682.572 308.114,682.572 C309.5,682.572 310.518,681.9 311.169,680.556 C311.82,679.213 312.146,677.135 312.146,674.322"/>
<path class="Note" fill="#ffffff" fill-opacity="0.0" fill-rule="evenodd" d="M299.056,611.22 L317.765,611.22 L317.765,636.024 L299.056,636.024 L299.056,611.22 "/>
<path class="Note" d="M308.036,616.669 C306.619,616.669 305.646,617.057 305.114,617.833 C304.583,618.609 304.297,619.643 304.255,620.935 L301.786,620.935 C301.88,616.653 303.953,614.513 308.005,614.513 C309.89,614.513 311.369,615 312.442,615.974 C313.515,616.948 314.052,618.284 314.052,619.981 C314.052,621.992 313.13,623.362 311.286,624.091 C312.474,624.507 313.33,625.083 313.856,625.817 C314.383,626.552 314.646,627.554 314.646,628.825 C314.646,630.711 314.034,632.213 312.81,633.333 C311.586,634.453 309.958,635.013 307.927,635.013 C303.854,635.013 301.666,632.877 301.364,628.606 L303.833,628.606 C303.927,630.044 304.31,631.106 304.981,631.794 C305.653,632.481 306.661,632.825 308.005,632.825 C309.297,632.825 310.304,632.476 311.028,631.778 C311.752,631.08 312.114,630.106 312.114,628.856 C312.114,626.45 310.744,625.247 308.005,625.247 L306.974,625.278 L306.661,625.278 L306.661,623.169 C308.432,623.138 309.687,622.916 310.427,622.505 C311.166,622.093 311.536,621.278 311.536,620.06 C311.536,619.018 311.224,618.192 310.599,617.583 C309.974,616.974 309.119,616.669 308.036,616.669"/>
<path class="Note" fill="#ffffff" fill-opacity="0.0" fill-rule="evenodd" d="M363.771,660.827 L382.479,660.827 L382.479,685.63 L363.771,685.63 L363.771,660.827 "/>
<path class="Note" d="M366.594,671.01 C366.719,666.416 368.902,664.119 373.141,664.119 C375.027,664.119 376.558,664.661 377.735,665.744 C378.912,666.827 379.501,668.228 379.501,669.947 C379.501,672.416 378.1,674.416 375.298,675.947 L372.501,677.447 C371.282,678.103 370.412,678.739 369.891,679.353 C369.37,679.968 369.042,680.697 368.907,681.541 L379.36,681.541 L379.36,683.978 L366.141,683.978 C366.256,681.791 366.696,680.106 367.462,678.924 C368.227,677.741 369.646,676.562 371.719,675.385 L374.282,673.931 C376.074,672.9 376.969,671.593 376.969,670.01 C376.969,668.947 376.597,668.059 375.852,667.346 C375.107,666.632 374.178,666.275 373.063,666.275 C370.574,666.275 369.235,667.853 369.048,671.01 L366.594,671.01 "/>
<path class="Note" fill="#ffffff" fill-opacity="0.0" fill-rule="evenodd" d="M363.771,586.417 L382.479,586.417 L382.479,611.22 L363.771,611.22 L363.771,586.417 "/>
<path class="Note" d="M366.391,599.96 C366.391,598.303 366.532,596.84 366.813,595.569 C367.094,594.298 367.449,593.303 367.876,592.585 C368.303,591.866 368.816,591.282 369.415,590.835 C370.014,590.387 370.589,590.087 371.141,589.936 C371.693,589.785 372.277,589.71 372.891,589.71 C377.225,589.71 379.391,593.183 379.391,600.131 C379.391,603.402 378.834,605.9 377.719,607.624 C376.605,609.348 374.995,610.21 372.891,610.21 C370.766,610.21 369.152,609.337 368.048,607.592 C366.943,605.848 366.391,603.303 366.391,599.96 M376.86,599.913 C376.86,594.569 375.534,591.897 372.883,591.897 C370.232,591.897 368.907,594.595 368.907,599.991 C368.907,605.439 370.214,608.163 372.829,608.163 C374.214,608.163 375.232,607.491 375.883,606.147 C376.534,604.803 376.86,602.725 376.86,599.913"/>
<path class="Note" fill="#ffffff" fill-opacity="0.0" fill-rule="evenodd" d="M428.485,660.827 L447.194,660.827 L447.194,685.63 L428.485,685.63 L428.485,660.827 "/>
<path class="Note" d="M437.465,666.275 C436.048,666.275 435.074,666.663 434.543,667.439 C434.012,668.215 433.726,669.249 433.684,670.541 L431.215,670.541 C431.309,666.26 433.382,664.119 437.434,664.119 C439.319,664.119 440.798,664.606 441.871,665.58 C442.944,666.554 443.481,667.89 443.481,669.588 C443.481,671.598 442.559,672.968 440.715,673.697 C441.903,674.114 442.759,674.689 443.285,675.424 C443.811,676.158 444.074,677.161 444.074,678.431 C444.074,680.317 443.463,681.819 442.239,682.939 C441.015,684.059 439.387,684.619 437.356,684.619 C433.283,684.619 431.095,682.484 430.793,678.213 L433.262,678.213 C433.356,679.65 433.739,680.713 434.41,681.4 C435.082,682.088 436.09,682.431 437.434,682.431 C438.726,682.431 439.733,682.083 440.457,681.385 C441.181,680.687 441.543,679.713 441.543,678.463 C441.543,676.056 440.173,674.853 437.434,674.853 L436.403,674.885 L436.09,674.885 L436.09,672.775 C437.861,672.744 439.116,672.523 439.856,672.111 C440.595,671.7 440.965,670.885 440.965,669.666 C440.965,668.624 440.653,667.799 440.028,667.189 C439.403,666.58 438.548,666.275 437.465,666.275"/>
<path class="Note" fill="#ffffff" fill-opacity="0.0" fill-rule="evenodd" d="M428.485,586.417 L447.194,586.417 L447.194,611.22 L428.485,611.22 L428.485,586.417 "/>
<path class="Note" d="M437.153,595.428 L432.762,595.428 L432.762,593.663 C434.668,593.423 435.91,593.087 436.489,592.655 C437.067,592.223 437.569,591.241 437.996,589.71 L439.621,589.71 L439.621,609.569 L437.153,609.569 L437.153,595.428 "/>
<path class="Note" fill="#ffffff" fill-opacity="0.0" fill-rule="evenodd" d="M493.2,636.024 L511.908,636.024 L511.908,660.827 L493.2,660.827 L493.2,636.024 "/>
<path class="Note" d="M501.867,645.035 L497.476,645.035 L497.476,643.269 C499.383,643.029 500.625,642.693 501.203,642.261 C501.781,641.829 502.284,640.847 502.711,639.316 L504.336,639.316 L504.336,659.175 L501.867,659.175 L501.867,645.035 "/>
<path class="Note" fill="#ffffff" fill-opacity="0.0" fill-rule="evenodd" d="M493.2,586.417 L511.908,586.417 L511.908,611.22 L493.2,611.22 L493.2,586.417 "/>
<path class="Note" d="M503.773,604.803 L495.398,604.803 L495.398,602.21 L504.414,589.71 L506.242,589.71 L506.242,602.6 L509.18,602.6 L509.18,604.803 L506.242,604.803 L506.242,609.569 L503.773,609.569 L503.773,604.803 M503.773,602.6 L503.773,593.913 L497.555,602.6 L503.773,602.6 "/>
<path class="Note" fill="#ffffff" fill-opacity="0.0" fill-rule="evenodd" d="M557.914,636.024 L576.623,636.024 L576.623,660.827 L557.914,660.827 L557.914,636.024 "/>
<path class="Note" d="M560.738,646.206 C560.863,641.613 563.045,639.316 567.285,639.316 C569.17,639.316 570.701,639.857 571.878,640.941 C573.056,642.024 573.644,643.425 573.644,645.144 C573.644,647.613 572.243,649.613 569.441,651.144 L566.644,652.644 C565.425,653.3 564.556,653.936 564.035,654.55 C563.514,655.165 563.186,655.894 563.05,656.738 L573.503,656.738 L573.503,659.175 L560.285,659.175 C560.399,656.988 560.839,655.303 561.605,654.121 C562.371,652.938 563.79,651.759 565.863,650.581 L568.425,649.128 C570.217,648.097 571.113,646.79 571.113,645.206 C571.113,644.144 570.74,643.256 569.996,642.542 C569.251,641.829 568.321,641.472 567.207,641.472 C564.717,641.472 563.378,643.05 563.191,646.206 L560.738,646.206 "/>
<path class="Note" fill="#ffffff" fill-opacity="0.0" fill-rule="evenodd" d="M557.914,586.417 L576.623,586.417 L576.623,611.22 L557.914,611.22 L557.914,586.417 "/>
<path class="Note" d="M572.66,589.71 L572.66,592.147 L564.394,592.147 L563.613,597.694 C564.717,596.892 565.941,596.491 567.285,596.491 C569.191,596.491 570.735,597.103 571.917,598.327 C573.1,599.551 573.691,601.142 573.691,603.1 C573.691,605.194 573.058,606.902 571.792,608.225 C570.527,609.548 568.894,610.21 566.894,610.21 C566.123,610.21 565.417,610.126 564.777,609.96 C564.136,609.793 563.605,609.592 563.183,609.358 C562.761,609.124 562.378,608.816 562.035,608.436 C561.691,608.056 561.431,607.72 561.253,607.428 C561.076,607.137 560.907,606.772 560.746,606.335 C560.584,605.897 560.485,605.595 560.449,605.428 C560.412,605.262 560.368,605.017 560.316,604.694 L562.769,604.694 C563.352,606.913 564.707,608.022 566.832,608.022 C568.175,608.022 569.235,607.613 570.011,606.795 C570.787,605.978 571.175,604.861 571.175,603.444 C571.175,601.965 570.782,600.801 569.996,599.952 C569.209,599.103 568.154,598.678 566.832,598.678 C566.071,598.678 565.42,598.814 564.878,599.085 C564.337,599.355 563.774,599.835 563.191,600.522 L560.925,600.522 L562.41,589.71 L572.66,589.71 "/>
<path class="Note" fill="#ffffff" fill-opacity="0.0" fill-rule="evenodd" d="M104.913,508.465 L123.622,508.465 L123.622,533.268 L104.913,533.268 L104.913,508.465 "/>
<path class="Note" d="M107.736,518.647 C107.861,514.054 110.044,511.757 114.283,511.757 C116.169,511.757 117.7,512.298 118.877,513.382 C120.054,514.465 120.643,515.866 120.643,517.585 C120.643,520.054 119.242,522.054 116.44,523.585 L113.643,525.085 C112.424,525.741 111.554,526.377 111.033,526.991 C110.513,527.606 110.184,528.335 110.049,529.179 L120.502,529.179 L120.502,531.616 L107.283,531.616 C107.398,529.429 107.838,527.744 108.604,526.561 C109.369,525.379 110.789,524.199 112.861,523.022 L115.424,521.569 C117.216,520.538 118.111,519.231 118.111,517.647 C118.111,516.585 117.739,515.697 116.994,514.983 C116.249,514.27 115.32,513.913 114.205,513.913 C111.716,513.913 110.377,515.491 110.19,518.647 L107.736,518.647 "/>
<path class="Note" fill="#ffffff" fill-opacity="0.0" fill-rule="evenodd" d="M104.913,458.858 L123.622,458.858 L123.622,483.661 L104.913,483.661 L104.913,458.858 "/>
<path class="Note" d="M107.533,472.4 C107.533,470.744 107.674,469.281 107.955,468.01 C108.236,466.739 108.591,465.744 109.018,465.025 C109.445,464.307 109.958,463.723 110.557,463.275 C111.156,462.828 111.731,462.528 112.283,462.377 C112.835,462.226 113.419,462.15 114.033,462.15 C118.367,462.15 120.533,465.624 120.533,472.572 C120.533,475.843 119.976,478.341 118.861,480.065 C117.747,481.788 116.138,482.65 114.033,482.65 C111.908,482.65 110.294,481.778 109.19,480.033 C108.085,478.288 107.533,475.744 107.533,472.4 M118.002,472.354 C118.002,467.01 116.677,464.338 114.026,464.338 C111.374,464.338 110.049,467.036 110.049,472.432 C110.049,477.88 111.356,480.604 113.971,480.604 C115.356,480.604 116.374,479.932 117.026,478.588 C117.677,477.244 118.002,475.166 118.002,472.354"/>
<path class="Note" fill="#ffffff" fill-opacity="0.0" fill-rule="evenodd" d="M169.627,508.465 L188.336,508.465 L188.336,533.268 L169.627,533.268 L169.627,508.465 "/>
<path class="Note" d="M180.201,526.851 L171.826,526.851 L171.826,524.257 L180.842,511.757 L182.67,511.757 L182.67,524.647 L185.607,524.647 L185.607,526.851 L182.67,526.851 L182.67,531.616 L180.201,531.616 L180.201,526.851 M180.201,524.647 L180.201,515.96 L173.982,524.647 L180.201,524.647 "/>
<path class="Note" fill="#ffffff" fill-opacity="0.0" fill-rule="evenodd" d="M169.627,458.858 L188.336,458.858 L188.336,483.661 L169.627,483.661 L169.627,458.858 "/>
<path class="Note" d="M172.451,469.041 C172.576,464.447 174.758,462.15 178.998,462.15 C180.883,462.15 182.414,462.692 183.592,463.775 C184.769,464.859 185.357,466.26 185.357,467.979 C185.357,470.447 183.956,472.447 181.154,473.979 L178.357,475.479 C177.138,476.135 176.269,476.77 175.748,477.385 C175.227,477.999 174.899,478.729 174.763,479.572 L185.217,479.572 L185.217,482.01 L171.998,482.01 C172.112,479.822 172.553,478.137 173.318,476.955 C174.084,475.773 175.503,474.593 177.576,473.416 L180.138,471.963 C181.93,470.932 182.826,469.624 182.826,468.041 C182.826,466.979 182.454,466.091 181.709,465.377 C180.964,464.663 180.034,464.307 178.92,464.307 C176.43,464.307 175.092,465.885 174.904,469.041 L172.451,469.041 "/>
<path class="Note" fill="#ffffff" fill-opacity="0.0" fill-rule="evenodd" d="M234.342,508.465 L253.051,508.465 L253.051,533.268 L234.342,533.268 L234.342,508.465 "/>
<path class="Note" d="M249.087,511.757 L249.087,514.194 L240.822,514.194 L240.04,519.741 C241.145,518.939 242.369,518.538 243.712,518.538 C245.619,518.538 247.163,519.15 248.345,520.374 C249.527,521.598 250.119,523.189 250.119,525.147 C250.119,527.241 249.486,528.949 248.22,530.272 C246.954,531.595 245.322,532.257 243.322,532.257 C242.551,532.257 241.845,532.173 241.204,532.007 C240.564,531.84 240.033,531.64 239.611,531.405 C239.189,531.171 238.806,530.864 238.462,530.483 C238.119,530.103 237.858,529.767 237.681,529.476 C237.504,529.184 237.335,528.819 237.173,528.382 C237.012,527.944 236.913,527.642 236.876,527.476 C236.84,527.309 236.796,527.064 236.744,526.741 L239.197,526.741 C239.78,528.96 241.134,530.069 243.259,530.069 C244.603,530.069 245.663,529.66 246.439,528.843 C247.215,528.025 247.603,526.908 247.603,525.491 C247.603,524.012 247.21,522.848 246.423,521.999 C245.637,521.15 244.582,520.726 243.259,520.726 C242.499,520.726 241.848,520.861 241.306,521.132 C240.764,521.403 240.202,521.882 239.619,522.569 L237.353,522.569 L238.837,511.757 L249.087,511.757 "/>
<path class="Note" fill="#ffffff" fill-opacity="0.0" fill-rule="evenodd" d="M234.342,458.858 L253.051,458.858 L253.051,483.661 L234.342,483.661 L234.342,458.858 "/>
<path class="Note" d="M243.322,464.307 C241.905,464.307 240.931,464.695 240.4,465.471 C239.869,466.247 239.582,467.281 239.54,468.572 L237.072,468.572 C237.165,464.291 239.238,462.15 243.29,462.15 C245.176,462.15 246.655,462.637 247.728,463.611 C248.801,464.585 249.337,465.921 249.337,467.619 C249.337,469.63 248.415,470.999 246.572,471.729 C247.759,472.145 248.616,472.721 249.142,473.455 C249.668,474.19 249.931,475.192 249.931,476.463 C249.931,478.348 249.319,479.851 248.095,480.971 C246.871,482.091 245.244,482.65 243.212,482.65 C239.139,482.65 236.952,480.515 236.65,476.244 L239.119,476.244 C239.212,477.682 239.595,478.744 240.267,479.432 C240.939,480.119 241.947,480.463 243.29,480.463 C244.582,480.463 245.59,480.114 246.314,479.416 C247.038,478.718 247.4,477.744 247.4,476.494 C247.4,474.088 246.03,472.885 243.29,472.885 L242.259,472.916 L241.947,472.916 L241.947,470.807 C243.718,470.775 244.973,470.554 245.712,470.143 C246.452,469.731 246.822,468.916 246.822,467.697 C246.822,466.656 246.509,465.83 245.884,465.221 C245.259,464.611 244.405,464.307 243.322,464.307"/>
<path class="Note" fill="#ffffff" fill-opacity="0.0" fill-rule="evenodd" d="M299.056,483.661 L317.765,483.661 L317.765,508.465 L299.056,508.465 L299.056,483.661 "/>
<path class="Note" d="M301.677,497.204 C301.677,495.547 301.817,494.084 302.099,492.813 C302.38,491.542 302.734,490.547 303.161,489.829 C303.588,489.11 304.101,488.527 304.7,488.079 C305.299,487.631 305.875,487.331 306.427,487.18 C306.979,487.029 307.562,486.954 308.177,486.954 C312.51,486.954 314.677,490.428 314.677,497.375 C314.677,500.646 314.119,503.144 313.005,504.868 C311.89,506.592 310.281,507.454 308.177,507.454 C306.052,507.454 304.437,506.581 303.333,504.836 C302.229,503.092 301.677,500.547 301.677,497.204 M312.146,497.157 C312.146,491.813 310.82,489.141 308.169,489.141 C305.518,489.141 304.192,491.839 304.192,497.235 C304.192,502.683 305.5,505.407 308.114,505.407 C309.5,505.407 310.518,504.735 311.169,503.391 C311.82,502.047 312.146,499.969 312.146,497.157"/>
<path class="Note" fill="#ffffff" fill-opacity="0.0" fill-rule="evenodd" d="M299.056,458.858 L317.765,458.858 L317.765,483.661 L299.056,483.661 L299.056,458.858 "/>
<path class="Note" d="M313.802,462.15 L313.802,464.588 L305.536,464.588 L304.755,470.135 C305.859,469.333 307.083,468.932 308.427,468.932 C310.333,468.932 311.877,469.544 313.06,470.768 C314.242,471.992 314.833,473.583 314.833,475.541 C314.833,477.635 314.2,479.343 312.935,480.666 C311.669,481.989 310.036,482.65 308.036,482.65 C307.265,482.65 306.56,482.567 305.919,482.4 C305.278,482.234 304.747,482.033 304.325,481.799 C303.903,481.565 303.521,481.257 303.177,480.877 C302.833,480.497 302.573,480.161 302.396,479.869 C302.218,479.578 302.049,479.213 301.888,478.775 C301.726,478.338 301.627,478.036 301.591,477.869 C301.554,477.703 301.51,477.458 301.458,477.135 L303.911,477.135 C304.494,479.354 305.849,480.463 307.974,480.463 C309.317,480.463 310.377,480.054 311.153,479.236 C311.929,478.419 312.317,477.302 312.317,475.885 C312.317,474.406 311.924,473.242 311.138,472.393 C310.351,471.544 309.297,471.119 307.974,471.119 C307.213,471.119 306.562,471.255 306.021,471.525 C305.479,471.796 304.916,472.275 304.333,472.963 L302.067,472.963 L303.552,462.15 L313.802,462.15 "/>
<path class="Note" fill="#ffffff" fill-opacity="0.0" fill-rule="evenodd" d="M363.771,483.661 L382.479,483.661 L382.479,508.465 L363.771,508.465 L363.771,483.661 "/>
<path class="Note" d="M366.594,493.844 C366.719,489.25 368.902,486.954 373.141,486.954 C375.027,486.954 376.558,487.495 377.735,488.579 C378.912,489.662 379.501,491.063 379.501,492.782 C379.501,495.25 378.1,497.25 375.298,498.782 L372.501,500.282 C371.282,500.938 370.412,501.573 369.891,502.188 C369.37,502.803 369.042,503.532 368.907,504.375 L379.36,504.375 L379.36,506.813 L366.141,506.813 C366.256,504.625 366.696,502.941 367.462,501.758 C368.227,500.576 369.646,499.396 371.719,498.219 L374.282,496.766 C376.074,495.735 376.969,494.428 376.969,492.844 C376.969,491.782 376.597,490.894 375.852,490.18 C375.107,489.467 374.178,489.11 373.063,489.11 C370.574,489.11 369.235,490.688 369.048,493.844 L366.594,493.844 "/>
<path class="Note" fill="#ffffff" fill-opacity="0.0" fill-rule="evenodd" d="M363.771,434.055 L382.479,434.055 L382.479,458.858 L363.771,458.858 L363.771,434.055 "/>
<path class="Note" d="M366.391,447.597 C366.391,445.941 366.532,444.478 366.813,443.207 C367.094,441.936 367.449,440.941 367.876,440.222 C368.303,439.504 368.816,438.92 369.415,438.472 C370.014,438.024 370.589,437.725 371.141,437.574 C371.693,437.423 372.277,437.347 372.891,437.347 C377.225,437.347 379.391,440.821 379.391,447.769 C379.391,451.04 378.834,453.537 377.719,455.261 C376.605,456.985 374.995,457.847 372.891,457.847 C370.766,457.847 369.152,456.975 368.048,455.23 C366.943,453.485 366.391,450.941 366.391,447.597 M376.86,447.55 C376.86,442.207 375.534,439.535 372.883,439.535 C370.232,439.535 368.907,442.233 368.907,447.629 C368.907,453.076 370.214,455.8 372.829,455.8 C374.214,455.8 375.232,455.129 375.883,453.785 C376.534,452.441 376.86,450.363 376.86,447.55"/>
<path class="Note" fill="#ffffff" fill-opacity="0.0" fill-rule="evenodd" d="M428.485,483.661 L447.194,483.661 L447.194,508.465 L428.485,508.465 L428.485,483.661 "/>
<path class="Note" d="M437.465,489.11 C436.048,489.11 435.074,489.498 434.543,490.274 C434.012,491.05 433.726,492.084 433.684,493.375 L431.215,493.375 C431.309,489.094 433.382,486.954 437.434,486.954 C439.319,486.954 440.798,487.441 441.871,488.415 C442.944,489.389 443.481,490.724 443.481,492.422 C443.481,494.433 442.559,495.803 440.715,496.532 C441.903,496.948 442.759,497.524 443.285,498.258 C443.811,498.993 444.074,499.995 444.074,501.266 C444.074,503.152 443.463,504.654 442.239,505.774 C441.015,506.894 439.387,507.454 437.356,507.454 C433.283,507.454 431.095,505.318 430.793,501.047 L433.262,501.047 C433.356,502.485 433.739,503.547 434.41,504.235 C435.082,504.922 436.09,505.266 437.434,505.266 C438.726,505.266 439.733,504.917 440.457,504.219 C441.181,503.521 441.543,502.547 441.543,501.297 C441.543,498.891 440.173,497.688 437.434,497.688 L436.403,497.719 L436.09,497.719 L436.09,495.61 C437.861,495.579 439.116,495.357 439.856,494.946 C440.595,494.534 440.965,493.719 440.965,492.5 C440.965,491.459 440.653,490.633 440.028,490.024 C439.403,489.415 438.548,489.11 437.465,489.11"/>
<path class="Note" fill="#ffffff" fill-opacity="0.0" fill-rule="evenodd" d="M428.485,434.055 L447.194,434.055 L447.194,458.858 L428.485,458.858 L428.485,434.055 "/>
<path class="Note" d="M437.153,443.066 L432.762,443.066 L432.762,441.3 C434.668,441.061 435.91,440.725 436.489,440.293 C437.067,439.86 437.569,438.879 437.996,437.347 L439.621,437.347 L439.621,457.207 L437.153,457.207 L437.153,443.066 "/>
<path class="Note" fill="#ffffff" fill-opacity="0.0" fill-rule="evenodd" d="M493.2,483.661 L511.908,483.661 L511.908,508.465 L493.2,508.465 L493.2,483.661 "/>
<path class="Note" d="M495.82,497.766 C495.82,496.016 495.979,494.472 496.297,493.133 C496.614,491.795 497.01,490.745 497.484,489.985 C497.958,489.224 498.529,488.605 499.195,488.125 C499.862,487.646 500.489,487.331 501.078,487.18 C501.667,487.029 502.284,486.954 502.93,486.954 C504.44,486.954 505.695,487.412 506.695,488.329 C507.695,489.245 508.315,490.516 508.555,492.141 L506.101,492.141 C505.893,491.193 505.5,490.456 504.922,489.93 C504.344,489.404 503.622,489.141 502.758,489.141 C501.341,489.141 500.255,489.79 499.5,491.086 C498.745,492.383 498.357,494.245 498.336,496.672 C499.419,495.204 500.94,494.469 502.898,494.469 C504.68,494.469 506.138,495.058 507.273,496.235 C508.409,497.412 508.976,498.922 508.976,500.766 C508.976,502.704 508.367,504.303 507.148,505.563 C505.93,506.823 504.377,507.454 502.492,507.454 C498.044,507.454 495.82,504.224 495.82,497.766 M502.601,496.657 C501.383,496.657 500.391,497.042 499.625,497.813 C498.859,498.584 498.476,499.589 498.476,500.829 C498.476,502.089 498.859,503.144 499.625,503.993 C500.391,504.842 501.351,505.266 502.508,505.266 C503.654,505.266 504.599,504.862 505.344,504.055 C506.088,503.248 506.461,502.214 506.461,500.954 C506.461,499.631 506.114,498.584 505.422,497.813 C504.729,497.042 503.789,496.657 502.601,496.657"/>
<path class="Note" fill="#ffffff" fill-opacity="0.0" fill-rule="evenodd" d="M493.2,434.055 L511.908,434.055 L511.908,458.858 L493.2,458.858 L493.2,434.055 "/>
<path class="Note" d="M503.773,452.441 L495.398,452.441 L495.398,449.847 L504.414,437.347 L506.242,437.347 L506.242,450.238 L509.18,450.238 L509.18,452.441 L506.242,452.441 L506.242,457.207 L503.773,457.207 L503.773,452.441 M503.773,450.238 L503.773,441.55 L497.555,450.238 L503.773,450.238 "/>
<path class="Note" fill="#ffffff" fill-opacity="0.0" fill-rule="evenodd" d="M557.914,458.858 L576.623,458.858 L576.623,483.661 L557.914,483.661 L557.914,458.858 "/>
<path class="Note" d="M560.535,472.4 C560.535,470.744 560.675,469.281 560.957,468.01 C561.238,466.739 561.592,465.744 562.019,465.025 C562.446,464.307 562.959,463.723 563.558,463.275 C564.157,462.828 564.733,462.528 565.285,462.377 C565.837,462.226 566.42,462.15 567.035,462.15 C571.368,462.15 573.535,465.624 573.535,472.572 C573.535,475.843 572.977,478.341 571.863,480.065 C570.748,481.788 569.139,482.65 567.035,482.65 C564.91,482.65 563.295,481.778 562.191,480.033 C561.087,478.288 560.535,475.744 560.535,472.4 M571.003,472.354 C571.003,467.01 569.678,464.338 567.027,464.338 C564.376,464.338 563.05,467.036 563.05,472.432 C563.05,477.88 564.358,480.604 566.972,480.604 C568.358,480.604 569.376,479.932 570.027,478.588 C570.678,477.244 571.003,475.166 571.003,472.354"/>
<path class="Note" fill="#ffffff" fill-opacity="0.0" fill-rule="evenodd" d="M557.914,434.055 L576.623,434.055 L576.623,458.858 L557.914,458.858 L557.914,434.055 "/>
<path class="Note" d="M572.66,437.347 L572.66,439.785 L564.394,439.785 L563.613,445.332 C564.717,444.53 565.941,444.129 567.285,444.129 C569.191,444.129 570.735,444.741 571.917,445.965 C573.1,447.188 573.691,448.78 573.691,450.738 C573.691,452.832 573.058,454.54 571.792,455.863 C570.527,457.186 568.894,457.847 566.894,457.847 C566.123,457.847 565.417,457.764 564.777,457.597 C564.136,457.431 563.605,457.23 563.183,456.996 C562.761,456.761 562.378,456.454 562.035,456.074 C561.691,455.694 561.431,455.358 561.253,455.066 C561.076,454.774 560.907,454.41 560.746,453.972 C560.584,453.535 560.485,453.233 560.449,453.066 C560.412,452.899 560.368,452.655 560.316,452.332 L562.769,452.332 C563.352,454.55 564.707,455.66 566.832,455.66 C568.175,455.66 569.235,455.251 570.011,454.433 C570.787,453.616 571.175,452.498 571.175,451.082 C571.175,449.603 570.782,448.438 569.996,447.59 C569.209,446.741 568.154,446.316 566.832,446.316 C566.071,446.316 565.42,446.451 564.878,446.722 C564.337,446.993 563.774,447.472 563.191,448.16 L560.925,448.16 L562.41,437.347 L572.66,437.347 "/>
<path class="Note" transform="matrix(0.566929,0,0,0.566929,103.637,361.417)" d="M21.9688,-13.7656 C25.0938,-13.7656 27.7344,-12.9531 29.8906,-11.3281 C31.901,-9.56771 32.9063,-7.35417 32.9063,-4.6875 C32.9063,-0.197917 30.599,4 25.9844,7.90625 C21.2969,11.8125 16.2813,13.7656 10.9375,13.7656 C7.8125,13.7656 5.17708,12.9531 3.03125,11.3281 C1.01042,9.56771 0,7.35417 0,4.6875 C0,0.197917 2.34375,-4 7.03125,-7.90625 C11.5938,-11.8125 16.5729,-13.7656 21.9688,-13.7656"/>
<path class="Note" transform="matrix(0.566929,0,0,0.566929,168.352,354.331)" d="M21.9688,-13.7656 C25.0938,-13.7656 27.7344,-12.9531 29.8906,-11.3281 C31.901,-9.56771 32.9063,-7.35417 32.9063,-4.6875 C32.9063,-0.197917 30.599,4 25.9844,7.90625 C21.2969,11.8125 16.2813,13.7656 10.9375,13.7656 C7.8125,13.7656 5.17708,12.9531 3.03125,11.3281 C1.01042,9.56771 0,7.35417 0,4.6875 C0,0.197917 2.34375,-4 7.03125,-7.90625 C11.5938,-11.8125 16.5729,-13.7656 21.9688,-13.7656"/>
<path class="Note" transform="matrix(0.566929,0,0,0.566929,233.066,347.244)" d="M21.9688,-13.7656 C25.0938,-13.7656 27.7344,-12.9531 29.8906,-11.3281 C31.901,-9.56771 32.9063,-7.35417 32.9063,-4.6875 C32.9063,-0.197917 30.599,4 25.9844,7.90625 C21.2969,11.8125 16.2813,13.7656 10.9375,13.7656 C7.8125,13.7656 5.17708,12.9531 3.03125,11.3281 C1.01042,9.56771 0,7.35417 0,4.6875 C0,0.197917 2.34375,-4 7.03125,-7.90625 C11.5938,-11.8125 16.5729,-13.7656 21.9688,-13.7656"/>
<path class="Note" transform="matrix(0.566929,0,0,0.566929,297.781,340.157)" d="M21.9688,-13.7656 C25.0938,-13.7656 27.7344,-12.9531 29.8906,-11.3281 C31.901,-9.56771 32.9063,-7.35417 32.9063,-4.6875 C32.9063,-0.197917 30.599,4 25.9844,7.90625 C21.2969,11.8125 16.2813,13.7656 10.9375,13.7656 C7.8125,13.7656 5.17708,12.9531 3.03125,11.3281 C1.01042,9.56771 0,7.35417 0,4.6875 C0,0.197917 2.34375,-4 7.03125,-7.90625 C11.5938,-11.8125 16.5729,-13.7656 21.9688,-13.7656"/>
<path class="Note" transform="matrix(0.566929,0,0,0.566929,362.495,333.071)" d="M21.9688,-13.7656 C25.0938,-13.7656 27.7344,-12.9531 29.8906,-11.3281 C31.901,-9.56771 32.9063,-7.35417 32.9063,-4.6875 C32.9063,-0.197917 30.599,4 25.9844,7.90625 C21.2969,11.8125 16.2813,13.7656 10.9375,13.7656 C7.8125,13.7656 5.17708,12.9531 3.03125,11.3281 C1.01042,9.56771 0,7.35417 0,4.6875 C0,0.197917 2.34375,-4 7.03125,-7.90625 C11.5938,-11.8125 16.5729,-13.7656 21.9688,-13.7656"/>
<path class="Note" transform="matrix(0.566929,0,0,0.566929,427.21,325.984)" d="M21.9688,-13.7656 C25.0938,-13.7656 27.7344,-12.9531 29.8906,-11.3281 C31.901,-9.56771 32.9063,-7.35417 32.9063,-4.6875 C32.9063,-0.197917 30.599,4 25.9844,7.90625 C21.2969,11.8125 16.2813,13.7656 10.9375,13.7656 C7.8125,13.7656 5.17708,12.9531 3.03125,11.3281 C1.01042,9.56771 0,7.35417 0,4.6875 C0,0.197917 2.34375,-4 7.03125,-7.90625 C11.5938,-11.8125 16.5729,-13.7656 21.9688,-13.7656"/>
<path class="Note" transform="matrix(0.566929,0,0,0.566929,491.924,318.898)" d="M21.9688,-13.7656 C25.0938,-13.7656 27.7344,-12.9531 29.8906,-11.3281 C31.901,-9.56771 32.9063,-7.35417 32.9063,-4.6875 C32.9063,-0.197917 30.599,4 25.9844,7.90625 C21.2969,11.8125 16.2813,13.7656 10.9375,13.7656 C7.8125,13.7656 5.17708,12.9531 3.03125,11.3281 C1.01042,9.56771 0,7.35417 0,4.6875 C0,0.197917 2.34375,-4 7.03125,-7.90625 C11.5938,-11.8125 16.5729,-13.7656 21.9688,-13.7656"/>
<path class="Note" transform="matrix(0.566929,0,0,0.566929,556.639,311.811)" d="M21.9688,-13.7656 C25.0938,-13.7656 27.7344,-12.9531 29.8906,-11.3281 C31.901,-9.56771 32.9063,-7.35417 32.9063,-4.6875 C32.9063,-0.197917 30.599,4 25.9844,7.90625 C21.2969,11.8125 16.2813,13.7656 10.9375,13.7656 C7.8125,13.7656 5.17708,12.9531 3.03125,11.3281 C1.01042,9.56771 0,7.35417 0,4.6875 C0,0.197917 2.34375,-4 7.03125,-7.90625 C11.5938,-11.8125 16.5729,-13.7656 21.9688,-13.7656"/>
<path class="Note" transform="matrix(0.566929,0,0,0.566929,103.637,219.685)" d="M21.9688,-13.7656 C25.0938,-13.7656 27.7344,-12.9531 29.8906,-11.3281 C31.901,-9.56771 32.9063,-7.35417 32.9063,-4.6875 C32.9063,-0.197917 30.599,4 25.9844,7.90625 C21.2969,11.8125 16.2813,13.7656 10.9375,13.7656 C7.8125,13.7656 5.17708,12.9531 3.03125,11.3281 C1.01042,9.56771 0,7.35417 0,4.6875 C0,0.197917 2.34375,-4 7.03125,-7.90625 C11.5938,-11.8125 16.5729,-13.7656 21.9688,-13.7656"/>
<path class="Note" transform="matrix(0.566929,0,0,0.566929,168.352,212.598)" d="M21.9688,-13.7656 C25.0938,-13.7656 27.7344,-12.9531 29.8906,-11.3281 C31.901,-9.56771 32.9063,-7.35417 32.9063,-4.6875 C32.9063,-0.197917 30.599,4 25.9844,7.90625 C21.2969,11.8125 16.2813,13.7656 10.9375,13.7656 C7.8125,13.7656 5.17708,12.9531 3.03125,11.3281 C1.01042,9.56771 0,7.35417 0,4.6875 C0,0.197917 2.34375,-4 7.03125,-7.90625 C11.5938,-11.8125 16.5729,-13.7656 21.9688,-13.7656"/>
<path class="Note" transform="matrix(0.566929,0,0,0.566929,233.066,205.512)" d="M21.9688,-13.7656 C25.0938,-13.7656 27.7344,-12.9531 29.8906,-11.3281 C31.901,-9.56771 32.9063,-7.35417 32.9063,-4.6875 C32.9063,-0.197917 30.599,4 25.9844,7.90625 C21.2969,11.8125 16.2813,13.7656 10.9375,13.7656 C7.8125,13.7656 5.17708,12.9531 3.03125,11.3281 C1.01042,9.56771 0,7.35417 0,4.6875 C0,0.197917 2.34375,-4 7.03125,-7.90625 C11.5938,-11.8125 16.5729,-13.7656 21.9688,-13.7656"/>
<path class="Note" transform="matrix(0.566929,0,0,0.566929,297.781,198.425)" d="M21.9688,-13.7656 C25.0938,-13.7656 27.7344,-12.9531 29.8906,-11.3281 C31.901,-9.56771 32.9063,-7.35417 32.9063,-4.6875 C32.9063,-0.197917 30.599,4 25.9844,7.90625 C21.2969,11.8125 16.2813,13.7656 10.9375,13.7656 C7.8125,13.7656 5.17708,12.9531 3.03125,11.3281 C1.01042,9.56771 0,7.35417 0,4.6875 C0,0.197917 2.34375,-4 7.03125,-7.90625 C11.5938,-11.8125 16.5729,-13.7656 21.9688,-13.7656"/>
<path class="Note" transform="matrix(0.566929,0,0,0.566929,362.495,191.339)" d="M21.9688,-13.7656 C25.0938,-13.7656 27.7344,-12.9531 29.8906,-11.3281 C31.901,-9.56771 32.9063,-7.35417 32.9063,-4.6875 C32.9063,-0.197917 30.599,4 25.9844,7.90625 C21.2969,11.8125 16.2813,13.7656 10.9375,13.7656 C7.8125,13.7656 5.17708,12.9531 3.03125,11.3281 C1.01042,9.56771 0,7.35417 0,4.6875 C0,0.197917 2.34375,-4 7.03125,-7.90625 C11.5938,-11.8125 16.5729,-13.7656 21.9688,-13.7656"/>
<path class="Note" transform="matrix(0.566929,0,0,0.566929,427.21,184.252)" d="M21.9688,-13.7656 C25.0938,-13.7656 27.7344,-12.9531 29.8906,-11.3281 C31.901,-9.56771 32.9063,-7.35417 32.9063,-4.6875 C32.9063,-0.197917 30.599,4 25.9844,7.90625 C21.2969,11.8125 16.2813,13.7656 10.9375,13.7656 C7.8125,13.7656 5.17708,12.9531 3.03125,11.3281 C1.01042,9.56771 0,7.35417 0,4.6875 C0,0.197917 2.34375,-4 7.03125,-7.90625 C11.5938,-11.8125 16.5729,-13.7656 21.9688,-13.7656"/>
<path class="Note" transform="matrix(0.566929,0,0,0.566929,491.924,177.165)" d="M21.9688,-13.7656 C25.0938,-13.7656 27.7344,-12.9531 29.8906,-11.3281 C31.901,-9.56771 32.9063,-7.35417 32.9063,-4.6875 C32.9063,-0.197917 30.599,4 25.9844,7.90625 C21.2969,11.8125 16.2813,13.7656 10.9375,13.7656 C7.8125,13.7656 5.17708,12.9531 3.03125,11.3281 C1.01042,9.56771 0,7.35417 0,4.6875 C0,0.197917 2.34375,-4 7.03125,-7.90625 C11.5938,-11.8125 16.5729,-13.7656 21.9688,-13.7656"/>
<path class="Note" transform="matrix(0.566929,0,0,0.566929,556.639,170.079)" d="M21.9688,-13.7656 C25.0938,-13.7656 27.7344,-12.9531 29.8906,-11.3281 C31.901,-9.56771 32.9063,-7.35417 32.9063,-4.6875 C32.9063,-0.197917 30.599,4 25.9844,7.90625 C21.2969,11.8125 16.2813,13.7656 10.9375,13.7656 C7.8125,13.7656 5.17708,12.9531 3.03125,11.3281 C1.01042,9.56771 0,7.35417 0,4.6875 C0,0.197917 2.34375,-4 7.03125,-7.90625 C11.5938,-11.8125 16.5729,-13.7656 21.9688,-13.7656"/>
<path class="Note" transform="matrix(0.566929,0,0,0.566929,103.637,77.9528)" d="M21.9688,-13.7656 C25.0938,-13.7656 27.7344,-12.9531 29.8906,-11.3281 C31.901,-9.56771 32.9063,-7.35417 32.9063,-4.6875 C32.9063,-0.197917 30.599,4 25.9844,7.90625 C21.2969,11.8125 16.2813,13.7656 10.9375,13.7656 C7.8125,13.7656 5.17708,12.9531 3.03125,11.3281 C1.01042,9.56771 0,7.35417 0,4.6875 C0,0.197917 2.34375,-4 7.03125,-7.90625 C11.5938,-11.8125 16.5729,-13.7656 21.9688,-13.7656"/>
<path class="Note" transform="matrix(0.566929,0,0,0.566929,168.352,70.8661)" d="M21.9688,-13.7656 C25.0938,-13.7656 27.7344,-12.9531 29.8906,-11.3281 C31.901,-9.56771 32.9063,-7.35417 32.9063,-4.6875 C32.9063,-0.197917 30.599,4 25.9844,7.90625 C21.2969,11.8125 16.2813,13.7656 10.9375,13.7656 C7.8125,13.7656 5.17708,12.9531 3.03125,11.3281 C1.01042,9.56771 0,7.35417 0,4.6875 C0,0.197917 2.34375,-4 7.03125,-7.90625 C11.5938,-11.8125 16.5729,-13.7656 21.9688,-13.7656"/>
<path class="Note" transform="matrix(0.566929,0,0,0.566929,233.066,63.7795)" d="M21.9688,-13.7656 C25.0938,-13.7656 27.7344,-12.9531 29.8906,-11.3281 C31.901,-9.56771 32.9063,-7.35417 32.9063,-4.6875 C32.9063,-0.197917 30.599,4 25.9844,7.90625 C21.2969,11.8125 16.2813,13.7656 10.9375,13.7656 C7.8125,13.7656 5.17708,12.9531 3.03125,11.3281 C1.01042,9.56771 0,7.35417 0,4.6875 C0,0.197917 2.34375,-4 7.03125,-7.90625 C11.5938,-11.8125 16.5729,-13.7656 21.9688,-13.7656"/>
<path class="Note" transform="matrix(0.566929,0,0,0.566929,297.781,56.6929)" d="M21.9688,-13.7656 C25.0938,-13.7656 27.7344,-12.9531 29.8906,-11.3281 C31.901,-9.56771 32.9063,-7.35417 32.9063,-4.6875 C32.9063,-0.197917 30.599,4 25.9844,7.90625 C21.2969,11.8125 16.2813,13.7656 10.9375,13.7656 C7.8125,13.7656 5.17708,12.9531 3.03125,11.3281 C1.01042,9.56771 0,7.35417 0,4.6875 C0,0.197917 2.34375,-4 7.03125,-7.90625 C11.5938,-11.8125 16.5729,-13.7656 21.9688,-13.7656"/>
<path class="Note" transform="matrix(0.566929,0,0,0.566929,362.495,49.6063)" d="M21.9688,-13.7656 C25.0938,-13.7656 27.7344,-12.9531 29.8906,-11.3281 C31.901,-9.56771 32.9063,-7.35417 32.9063,-4.6875 C32.9063,-0.197917 30.599,4 25.9844,7.90625 C21.2969,11.8125 16.2813,13.7656 10.9375,13.7656 C7.8125,13.7656 5.17708,12.9531 3.03125,11.3281 C1.01042,9.56771 0,7.35417 0,4.6875 C0,0.197917 2.34375,-4 7.03125,-7.90625 C11.5938,-11.8125 16.5729,-13.7656 21.9688,-13.7656"/>
<path class="Note" transform="matrix(0.566929,0,0,0.566929,427.21,42.5197)" d="M21.9688,-13.7656 C25.0938,-13.7656 27.7344,-12.9531 29.8906,-11.3281 C31.901,-9.56771 32.9063,-7.35417 32.9063,-4.6875 C32.9063,-0.197917 30.599,4 25.9844,7.90625 C21.2969,11.8125 16.2813,13.7656 10.9375,13.7656 C7.8125,13.7656 5.17708,12.9531 3.03125,11.3281 C1.01042,9.56771 0,7.35417 0,4.6875 C0,0.197917 2.34375,-4 7.03125,-7.90625 C11.5938,-11.8125 16.5729,-13.7656 21.9688,-13.7656"/>
<path class="Note" transform="matrix(0.566929,0,0,0.566929,491.924,35.4331)" d="M21.9688,-13.7656 C25.0938,-13.7656 27.7344,-12.9531 29.8906,-11.3281 C31.901,-9.56771 32.9063,-7.35417 32.9063,-4.6875 C32.9063,-0.197917 30.599,4 25.9844,7.90625 C21.2969,11.8125 16.2813,13.7656 10.9375,13.7656 C7.8125,13.7656 5.17708,12.9531 3.03125,11.3281 C1.01042,9.56771 0,7.35417 0,4.6875 C0,0.197917 2.34375,-4 7.03125,-7.90625 C11.5938,-11.8125 16.5729,-13.7656 21.9688,-13.7656"/>
<path class="Note" transform="matrix(0.566929,0,0,0.566929,556.639,28.3465)" d="M21.9688,-13.7656 C25.0938,-13.7656 27.7344,-12.9531 29.8906,-11.3281 C31.901,-9.56771 32.9063,-7.35417 32.9063,-4.6875 C32.9063,-0.197917 30.599,4 25.9844,7.90625 C21.2969,11.8125 16.2813,13.7656 10.9375,13.7656 C7.8125,13.7656 5.17708,12.9531 3.03125,11.3281 C1.01042,9.56771 0,7.35417 0,4.6875 C0,0.197917 2.34375,-4 7.03125,-7.90625 C11.5938,-11.8125 16.5729,-13.7656 21.9688,-13.7656"/>
<path class="Clef" transform="matrix(0.566929,0,0,0.566929,28.5015,660.827)" d="M26.6563,42.4844 C26.6563,44.3073 25.224,45.2188 22.3594,45.2188 C20.0885,45.2188 18.1042,44.5365 16.4063,43.1719 C14.7813,41.7344 13.9688,39.9115 13.9688,37.7031 C13.9688,33.7969 16.3438,30.6719 21.0938,28.3281 C25.7188,25.9115 31.1563,24.7031 37.4063,24.7031 C39.8125,24.7031 42.3854,24.8698 45.125,25.2031 C47.1354,25.4635 49.3802,25.9844 51.8594,26.7656 C54.0677,27.474 55.7917,28.5443 57.0313,29.9766 C58.2708,31.4089 58.8906,33.0729 58.8906,34.9688 C58.8906,39.4583 56.5781,43.1354 51.9531,46 C58.724,47.2396 62.1406,50.2656 62.2031,55.0781 C62.2031,59.1198 60.3802,62.7682 56.7344,66.0234 C53.0885,69.2786 48.9583,70.9063 44.3438,70.9063 C42.3854,70.9063 40.3958,70.4479 38.375,69.5313 C36.4896,68.625 35.1563,67.7813 34.375,67 C33.5938,66.0833 33.2031,65.3958 33.2031,64.9375 C33.2031,64.2917 33.5313,63.7396 34.1875,63.2813 C34.7708,62.6979 35.3854,62.4063 36.0313,62.4063 C36.2917,62.4063 36.8464,62.8281 37.6953,63.6719 C38.5443,64.5156 39.7813,64.9375 41.4063,64.9375 C43.625,64.9375 45.776,63.9948 47.8594,62.1094 C49.8698,60.2865 50.875,58.1042 50.875,55.5625 C50.875,53.3542 49.9323,51.7604 48.0469,50.7813 C46.1615,49.8021 43.7552,49.3125 40.8281,49.3125 C40.3073,49.3125 40.0469,48.7604 40.0469,47.6563 C40.0469,46.0938 40.6302,45.3125 41.7969,45.3125 C43.6198,45.3125 45.25,44.5313 46.6875,42.9688 C48.0521,41.2813 48.7344,39.4896 48.7344,37.5938 C48.7344,37.0104 48.5729,36.1354 48.25,34.9688 C47.9896,34.1875 47.2083,33.2396 45.9063,32.125 C44.6667,31.0833 42.9375,30.3698 40.7188,29.9844 C40.1354,33.1719 39.4036,37.2396 38.5234,42.1875 C37.6432,47.1354 37.0417,50.3906 36.7188,51.9531 C35.6146,57.5573 33.599,62.276 30.6719,66.1094 C27.6094,70.151 24.3177,72.1719 20.7969,72.1719 C19.6927,72.1719 18.5573,71.9115 17.3906,71.3906 C16.474,70.9948 15.3021,70.1823 13.875,68.9531 C12.5729,67.9115 11.6927,67.224 11.2344,66.8906 C10.974,66.7031 10.8438,66.4115 10.8438,66.0156 C10.8438,65.3698 11.0729,64.7865 11.5313,64.2656 C12.0521,63.6719 12.6042,63.375 13.1875,63.375 C13.5729,63.375 14.4818,63.9948 15.9141,65.2344 C17.3464,66.474 18.8438,67.0938 20.4063,67.0938 C23.4063,67.0938 25.6563,65.1719 27.1563,61.3281 C28.5833,57.6198 29.2969,53.0313 29.2969,47.5625 L29.2969,46.7813 C29.2969,43.1354 29.8854,37.6979 31.0625,30.4688 C28.9792,31.125 27.3177,32.1042 26.0781,33.4063 C24.776,34.7083 24.125,36.0729 24.125,37.5 C24.125,38.6042 24.5469,39.5469 25.3906,40.3281 C26.2344,41.1094 26.6563,41.8281 26.6563,42.4844 M7.03125,11.9219 C7.35417,11.9219 8.13542,12.2448 9.375,12.8906 C10.6771,13.5469 11.7865,13.875 12.7031,13.875 C15.1719,13.875 18.1979,12.0833 21.7813,8.5 C32.1354,-2.05208 39.2656,-13.25 43.1719,-25.0938 C43.9531,-27.5729 45.8698,-28.8125 48.9219,-28.8125 C50.4844,-28.8125 51.8229,-28.4844 52.9375,-27.8281 C54.0417,-27.1198 54.5938,-26.4063 54.5938,-25.6875 L52.8281,10.8438 C52.8281,12.7917 53.5156,13.7656 54.8906,13.7656 C55.599,13.7656 56.6406,13.4427 58.0156,12.7969 C59.3177,12.1406 60.099,11.8125 60.3594,11.8125 C60.8802,11.8125 61.2031,12.3698 61.3281,13.4844 C61.3281,14.526 60.9063,15.1771 60.0625,15.4375 C59.4063,15.625 58.1042,16.2396 56.1563,17.2813 C54.1354,18.3229 52.5417,18.8438 51.375,18.8438 C48.8958,18.8438 47.1354,16.8906 46.0938,12.9844 C44.4688,6.86979 43.4271,0.520833 42.9688,-6.0625 C40.3646,-2.73958 37.4688,0.614583 34.2813,4 C35.4479,6.21875 37.5938,7.32813 40.7188,7.32813 C41.1771,7.32813 41.5365,7.29688 41.7969,7.23438 L41.8906,7.23438 C42.4115,7.23438 42.6719,7.71875 42.6719,8.6875 C42.6719,9.92708 42.25,10.6771 41.4063,10.9375 C40.0417,11.3958 38.6094,11.625 37.1094,11.625 C33.8594,11.625 31.5156,10.5156 30.0781,8.29688 L26.1719,11.8125 C20.7031,16.5 16.2448,18.8438 12.7969,18.8438 C11.8802,18.8438 10.9375,18.6823 9.96875,18.3594 C9.1875,18.0365 8.27604,17.5469 7.23438,16.8906 C6.83854,16.7031 6.39583,16.4609 5.90625,16.1641 C5.41667,15.8672 5.10938,15.6875 4.98438,15.625 C4.66146,15.5 4.5,15.2083 4.5,14.75 C4.5,14.2292 4.76042,13.6094 5.28125,12.8906 C5.72917,12.2448 6.3125,11.9219 7.03125,11.9219 M28.8125,-54 C28.8125,-52.375 27.4115,-51.5625 24.6094,-51.5625 C22.1406,-51.5625 19.9948,-52.375 18.1719,-54 C16.4115,-55.6354 15.5313,-57.625 15.5313,-59.9688 C15.5313,-62.2396 16.2448,-64.1927 17.6719,-65.8281 C19.1719,-67.5156 21.0938,-68.7813 23.4375,-69.625 C25.5833,-70.4063 27.9948,-71.026 30.6719,-71.4844 C33.4635,-71.8073 36.1302,-71.9688 38.6719,-71.9688 C40.1719,-71.9688 42.974,-71.2865 47.0781,-69.9219 C51.2448,-68.5573 54.1406,-67.875 55.7656,-67.875 C57.7865,-67.875 59.7083,-68.2344 61.5313,-68.9531 C63.0208,-69.599 64.4531,-70.3438 65.8281,-71.1875 C66.9323,-71.9063 67.5469,-72.2656 67.6719,-72.2656 C68.2656,-72.2656 68.7865,-72.0729 69.2344,-71.6875 C69.7552,-71.1667 70.0156,-70.7396 70.0156,-70.4063 C70.0156,-69.9583 69.401,-69.2135 68.1719,-68.1719 C66.8698,-66.9948 65.013,-65.8203 62.6016,-64.6484 C60.1901,-63.4766 57.651,-62.8906 54.9844,-62.8906 C53.8073,-62.8906 52.3438,-63.0885 50.5938,-63.4844 C49.4792,-56.2552 48.3073,-49.8385 47.0781,-44.2344 C46.0365,-39.2865 43.9531,-34.9583 40.8281,-31.25 C37.8281,-27.5417 34.474,-25.6875 30.7656,-25.6875 C29.2656,-25.6875 27.9323,-25.9792 26.7656,-26.5625 C25.4635,-27.2188 24.0938,-28.1979 22.6563,-29.5 C21.4896,-30.4688 20.3854,-31.3438 19.3438,-32.125 C19.0833,-32.3229 18.9531,-32.6198 18.9531,-33.0156 C18.9531,-33.4635 19.2135,-34.0469 19.7344,-34.7656 C20.2552,-35.349 20.7396,-35.6406 21.1875,-35.6406 C21.5833,-35.6406 22.6927,-34.8281 24.5156,-33.2031 C26.3385,-31.5781 27.9635,-30.7656 29.3906,-30.7656 C31.9948,-30.7656 34.0156,-32.2604 35.4531,-35.25 C36.8802,-38.1875 37.6927,-41.7031 37.8906,-45.7969 C38.2135,-52.5052 38.9635,-59.4427 40.1406,-66.6094 C38.7031,-66.9323 37.6302,-67.0938 36.9219,-67.0938 C33.7969,-67.0938 31.125,-66.4427 28.9063,-65.1406 C26.6979,-63.901 25.5938,-62.2083 25.5938,-60.0625 C25.5938,-58.5 26.1146,-57.2969 27.1563,-56.4531 C28.2604,-55.5365 28.8125,-54.7188 28.8125,-54"/>
<path class="Clef" transform="matrix(0.566929,0,0,0.566929,28.5015,483.661)" d="M21.2969,33.9844 C21.2969,35.4219 20.1875,36.1406 17.9688,36.1406 C16.1458,36.1406 14.5833,35.5833 13.2813,34.4688 C11.9167,33.3646 11.2344,31.9323 11.2344,30.1719 C11.2344,26.9844 13.0885,24.4792 16.7969,22.6563 C20.7031,20.7708 25.0677,19.8281 29.8906,19.8281 C34.5052,19.8281 38.6042,20.4479 42.1875,21.6875 C45.5104,23.0521 47.1719,25.1667 47.1719,28.0313 C47.1719,31.5417 45.3177,34.4688 41.6094,36.8125 C47.0781,37.9271 49.8125,40.3698 49.8125,44.1406 C49.8125,47.2656 48.3438,50.1615 45.4063,52.8281 C42.5417,55.4323 39.1927,56.7344 35.3594,56.7344 C33.7969,56.7344 32.2344,56.3802 30.6719,55.6719 C29.2344,55.0156 28.1927,54.2969 27.5469,53.5156 C26.8906,52.9323 26.5625,52.3802 26.5625,51.8594 C26.5625,51.3385 26.8229,50.9167 27.3438,50.5938 C27.8021,50.1354 28.2917,49.9063 28.8125,49.9063 C29.0729,49.9063 29.5599,50.2318 30.2734,50.8828 C30.987,51.5339 31.9635,51.8594 33.2031,51.8594 C35.0885,51.8594 36.849,51.1406 38.4844,49.7031 C40.0469,48.2135 40.8281,46.4896 40.8281,44.5313 C40.8281,42.8438 40.0469,41.5417 38.4844,40.625 C36.9844,39.7813 35.0625,39.3594 32.7188,39.3594 C32.2604,39.3594 32.0313,38.9688 32.0313,38.1875 C32.0313,36.8854 32.5208,36.2344 33.5,36.2344 C34.9271,36.2344 36.1979,35.6146 37.3125,34.375 C38.4167,32.9479 38.9688,31.4844 38.9688,29.9844 C38.9688,26.7969 36.8542,24.8125 32.625,24.0313 L29.3906,41.6094 C28.5469,45.9635 26.9531,49.7396 24.6094,52.9375 C22.2031,56.125 19.5677,57.7188 16.7031,57.7188 C15.724,57.7188 14.8125,57.5208 13.9688,57.125 C13.1875,56.8021 12.2083,56.151 11.0313,55.1719 C9.72917,54.1302 9.04688,53.5781 8.98438,53.5156 C8.72396,53.2552 8.59375,53.026 8.59375,52.8281 C8.59375,52.4427 8.79167,51.9583 9.1875,51.375 C9.63542,50.9167 10.0885,50.6875 10.5469,50.6875 C10.7448,50.6875 11.526,51.1771 12.8906,52.1563 C13.9948,53.1979 15.1667,53.7188 16.4063,53.7188 C18.8125,53.7188 20.6042,52.2188 21.7813,49.2188 C22.9479,46.0938 23.5313,42.3854 23.5313,38.0938 L23.5313,37.4063 C23.5313,34.7396 23.9896,30.4115 24.9063,24.4219 C23.2083,25.0052 21.875,25.7865 20.9063,26.7656 C19.8646,27.8073 19.3438,28.8802 19.3438,29.9844 C19.3438,30.8906 19.6667,31.6406 20.3125,32.2344 C20.9688,32.8802 21.2969,33.4635 21.2969,33.9844 M5.5625,9.46875 C5.82292,9.46875 6.47396,9.76563 7.51563,10.3594 C8.69271,10.8802 9.57292,11.1406 10.1563,11.1406 C13.0208,11.1406 17.1875,7.75521 22.6563,0.984375 C28.0625,-5.66146 32,-12.6979 34.4688,-20.125 C35.0625,-22.0729 36.5938,-23.0469 39.0625,-23.0469 C40.3021,-23.0469 41.3438,-22.7865 42.1875,-22.2656 C43.1042,-21.8802 43.5625,-21.3281 43.5625,-20.6094 L42.1875,8.59375 C42.1875,10.2917 42.776,11.1406 43.9531,11.1406 C44.3385,11.1406 45.151,10.8802 46.3906,10.3594 C47.5573,9.76563 48.2083,9.46875 48.3438,9.46875 C48.8021,9.46875 49.0313,9.92708 49.0313,10.8438 C49.0313,11.625 48.7344,12.1146 48.1406,12.3125 C47.4323,12.6354 46.3594,13.1563 44.9219,13.875 C43.2969,14.7188 42.026,15.1406 41.1094,15.1406 C40.1406,15.1406 39.2292,14.7188 38.375,13.875 C37.5313,12.8333 36.7865,10.8125 36.1406,7.8125 C35.3594,4.82292 34.7708,0.588542 34.375,-4.89063 C32.3542,-2.21354 30.0781,0.489583 27.5469,3.21875 C28.5156,4.91667 30.5,5.76563 33.5,5.76563 C33.8854,5.76563 34.0781,6.1875 34.0781,7.03125 C34.0781,8.53125 32.5833,9.28125 29.5938,9.28125 C27.0521,9.28125 25.2292,8.40104 24.125,6.64063 L21,9.375 C16.7708,13.0208 13.1563,14.9115 10.1563,15.0469 C9.11458,15.0469 7.75,14.5885 6.0625,13.6719 C4.42708,12.8281 3.60938,12.2083 3.60938,11.8125 C3.60938,11.3646 3.80729,10.8802 4.20313,10.3594 C4.58854,9.76563 5.04167,9.46875 5.5625,9.46875 M23.0469,-43.1719 C23.0469,-41.9323 21.9427,-41.3125 19.7344,-41.3125 C17.776,-41.3125 16.0469,-41.9635 14.5469,-43.2656 C13.1198,-44.5052 12.4063,-46.099 12.4063,-48.0469 C12.4063,-49.8698 12.9583,-51.4323 14.0625,-52.7344 C15.3646,-54.1719 16.9271,-55.151 18.75,-55.6719 C20.0521,-56.1927 22.0052,-56.7135 24.6094,-57.2344 C27.349,-57.4948 29.4635,-57.625 30.9531,-57.625 C32.0677,-57.625 34.2839,-57.0703 37.6016,-55.9609 C40.9193,-54.8516 43.2604,-54.2969 44.625,-54.2969 C46.2604,-54.2969 47.7917,-54.5573 49.2188,-55.0781 C50.5833,-55.6615 51.6927,-56.25 52.5469,-56.8438 C53.3906,-57.4896 53.9115,-57.8125 54.1094,-57.8125 C54.4948,-57.8125 54.9167,-57.651 55.375,-57.3281 C55.7604,-57.0052 55.9531,-56.6771 55.9531,-56.3438 C55.9531,-56.0833 55.4688,-55.4688 54.5,-54.5 C53.3229,-53.4583 51.8229,-52.5469 50,-51.7656 C48.0521,-50.7865 46.0677,-50.2969 44.0469,-50.2969 C43.0052,-50.2969 41.8333,-50.4583 40.5313,-50.7813 C39.6146,-44.4063 38.6719,-39.2292 37.7031,-35.25 C36.849,-31.2813 35.1875,-27.8333 32.7188,-24.9063 C30.3125,-21.9792 27.6406,-20.5156 24.7031,-20.5156 C23.401,-20.5156 22.3281,-20.776 21.4844,-21.2969 C20.3802,-21.8177 19.276,-22.5625 18.1719,-23.5313 C17.1302,-24.5104 16.25,-25.2292 15.5313,-25.6875 C15.2708,-25.9479 15.1406,-26.1771 15.1406,-26.375 C15.1406,-26.8229 15.3021,-27.276 15.625,-27.7344 C15.9479,-28.2552 16.3698,-28.5156 16.8906,-28.5156 C17.151,-28.5156 18.0313,-27.8646 19.5313,-26.5625 C21.0313,-25.2604 22.3646,-24.6094 23.5313,-24.6094 C25.0938,-24.6094 26.3021,-25.1302 27.1563,-26.1719 C28.0625,-27.2135 28.776,-28.776 29.2969,-30.8594 C29.7552,-32.7448 30.0833,-34.8594 30.2813,-37.2031 C30.5417,-39.1615 30.8333,-41.8333 31.1563,-45.2188 C31.3542,-47.1042 31.6771,-49.8073 32.125,-53.3281 C31.0208,-53.5885 30.1458,-53.7188 29.5,-53.7188 C27.1563,-53.7188 25.0365,-53.1979 23.1406,-52.1563 C21.3906,-50.9792 20.5156,-49.6406 20.5156,-48.1406 C20.5156,-47.0365 20.9375,-46.0625 21.7813,-45.2188 C22.625,-44.375 23.0469,-43.6927 23.0469,-43.1719"/>
<path class="Clef" transform="matrix(0.566929,0,0,0.566929,28.5015,325.984)" d="M57.1328,-8.89063 C56.1589,-9.86979 55.6719,-11.0755 55.6719,-12.5078 C55.6719,-13.9401 56.1589,-15.1432 57.1328,-16.1172 C58.1068,-17.0911 59.3099,-17.5781 60.7422,-17.5781 C62.1745,-17.5781 63.3802,-17.0911 64.3594,-16.1172 C65.3385,-15.1432 65.8281,-13.9401 65.8281,-12.5078 C65.8281,-11.0755 65.3385,-9.86979 64.3594,-8.89063 C63.3802,-7.91146 62.1745,-7.42188 60.7422,-7.42188 C59.3099,-7.42188 58.1068,-7.91146 57.1328,-8.89063 M57.1328,16.1172 C56.1589,15.1432 55.6719,13.9401 55.6719,12.5078 C55.6719,11.0755 56.1589,9.86979 57.1328,8.89063 C58.1068,7.91146 59.3099,7.42188 60.7422,7.42188 C62.1745,7.42188 63.3802,7.91146 64.3594,8.89063 C65.3385,9.86979 65.8281,11.0755 65.8281,12.5078 C65.8281,13.9401 65.3385,15.1432 64.3594,16.1172 C63.3802,17.0911 62.1745,17.5781 60.7422,17.5781 C59.3099,17.5781 58.1068,17.0911 57.1328,16.1172 M23.25,-26.2656 C31.9063,-26.2656 39,-24.0885 44.5313,-19.7344 C49.875,-15.1719 52.5469,-8.98438 52.5469,-1.17188 C52.5469,4.09896 51.5052,8.91667 49.4219,13.2813 C47.4635,17.8438 44.8906,21.8802 41.7031,25.3906 C38.4427,28.974 34.5052,32.3594 29.8906,35.5469 C25.3906,38.6719 20.7656,41.474 16.0156,43.9531 C6.31771,48.8281 0.979167,51.2656 0,51.2656 C-0.84375,51.2656 -1.26563,50.8438 -1.26563,50 C-1.26563,49.6771 -1.13542,49.3854 -0.875,49.125 C2.44792,47.1667 6.51563,44.6615 11.3281,41.6094 C14.4531,39.5885 18.099,36.7865 22.2656,33.2031 C26.3073,29.8177 29.4323,26.6302 31.6406,23.6406 C33.9219,20.7031 36.0052,17.0573 37.8906,12.7031 C39.5156,8.33854 40.3281,4.03646 40.3281,-0.203125 C40.3281,-6.51563 38.7656,-12.0156 35.6406,-16.7031 C32.5156,-21.3906 28.3854,-23.7344 23.25,-23.7344 C19.6042,-23.7344 16.4792,-22.5625 13.875,-20.2188 C11.0729,-17.8125 9.05208,-14.7865 7.8125,-11.1406 C9.05208,-11.6615 10.1927,-11.9219 11.2344,-11.9219 C13.9635,-11.9219 16.3073,-10.9427 18.2656,-8.98438 C20.2135,-6.90104 21.1875,-4.52604 21.1875,-1.85938 C21.1875,0.942708 20.2448,3.45313 18.3594,5.67188 C16.3385,7.68229 13.9635,8.6875 11.2344,8.6875 C8.30729,8.6875 5.67188,7.68229 3.32813,5.67188 C1.10938,3.45313 0,0.942708 0,-1.85938 C0,-8.56771 2.28125,-14.2969 6.84375,-19.0469 C11.3333,-23.8594 16.8021,-26.2656 23.25,-26.2656"/>
<path class="Clef" transform="matrix(0.566929,0,0,0.566929,28.5015,205.512)" d="M36.3281,-7.32813 C33.3385,-7.32813 31.8438,-4.88542 31.8438,0 C31.8438,4.88542 33.3385,7.32813 36.3281,7.32813 C37.3073,7.32813 38.7396,6.80729 40.625,5.76563 C42.4479,4.72396 43.9479,4.20313 45.125,4.20313 C51.3021,4.20313 56.6719,6.1875 61.2344,10.1563 C65.724,14.2604 67.9688,19.2083 67.9688,25 C67.9688,41.6667 59.1458,50 41.5,50 C37.2708,50 33.6615,48.6354 30.6719,45.9063 C27.7344,43.1667 26.2656,39.8125 26.2656,35.8438 C26.2656,33.6979 27.0156,31.875 28.5156,30.375 C30.0156,28.875 31.8073,28.125 33.8906,28.125 C35.974,28.125 37.763,28.875 39.2578,30.375 C40.7526,31.875 41.5,33.6979 41.5,35.8438 C41.5,37.1458 40.6875,38.4167 39.0625,39.6563 C37.4375,40.8229 36.625,42.0573 36.625,43.3594 C36.625,44.5365 37.1146,45.4479 38.0938,46.0938 C39,46.8125 40.1354,47.1719 41.5,47.1719 C46.9063,47.1719 50.5859,45.3151 52.5391,41.6016 C54.4922,37.888 55.4688,32.3542 55.4688,25 C55.4688,19.3333 54.8854,15.0365 53.7188,12.1094 C52.4792,8.72396 49.6146,7.03125 45.125,7.03125 C41.7396,7.03125 38.875,8.49479 36.5313,11.4219 C34.3125,14.4219 33.2031,17.9063 33.2031,21.875 C33.2031,22.8542 32.7474,23.3438 31.8359,23.3438 C30.9245,23.3438 30.4688,22.8542 30.4688,21.875 C30.4688,14.125 27.6719,7.45313 22.0781,1.85938 L22.0781,49.0313 C22.0781,49.6771 21.75,50 21.0938,50 L19.0469,50 C18.3281,50 17.9688,49.6771 17.9688,49.0313 L17.9688,-49.0313 C17.9688,-49.6771 18.3281,-50 19.0469,-50 L21.0938,-50 C21.75,-50 22.0781,-49.6771 22.0781,-49.0313 L22.0781,-1.85938 C27.6719,-7.45313 30.4688,-14.125 30.4688,-21.875 C30.4688,-22.8542 30.9245,-23.3438 31.8359,-23.3438 C32.7474,-23.3438 33.2031,-22.8542 33.2031,-21.875 C33.2031,-17.9063 34.3125,-14.4219 36.5313,-11.4219 C38.875,-8.49479 41.7396,-7.03125 45.125,-7.03125 C49.6146,-7.03125 52.4792,-8.72396 53.7188,-12.1094 C54.8854,-15.0365 55.4688,-19.3333 55.4688,-25 C55.4688,-32.3542 54.4922,-37.888 52.5391,-41.6016 C50.5859,-45.3151 46.9063,-47.1719 41.5,-47.1719 C40.1354,-47.1719 39,-46.8125 38.0938,-46.0938 C37.1146,-45.5104 36.625,-44.599 36.625,-43.3594 C36.625,-42.0573 37.4375,-40.8229 39.0625,-39.6563 C40.6875,-38.4167 41.5,-37.1458 41.5,-35.8438 C41.5,-33.6979 40.7526,-31.875 39.2578,-30.375 C37.763,-28.875 35.974,-28.125 33.8906,-28.125 C31.8073,-28.125 30.0156,-28.875 28.5156,-30.375 C27.0156,-31.875 26.2656,-33.6979 26.2656,-35.8438 C26.2656,-39.8125 27.7344,-43.1667 30.6719,-45.9063 C33.6615,-48.6354 37.2708,-50 41.5,-50 C59.1458,-50 67.9688,-41.6667 67.9688,-25 C67.9688,-19.2083 65.724,-14.2604 61.2344,-10.1563 C56.6719,-6.1875 51.3021,-4.20313 45.125,-4.20313 C44.0104,-4.20313 42.5104,-4.72396 40.625,-5.76563 C38.7396,-6.80729 37.3073,-7.32813 36.3281,-7.32813 M12.8906,50 L0.984375,50 C0.328125,50 0,49.6771 0,49.0313 L0,-49.0313 C0,-49.6771 0.328125,-50 0.984375,-50 L12.8906,-50 C13.5469,-50 13.875,-49.6771 13.875,-49.0313 L13.875,49.0313 C13.875,49.6771 13.5469,50 12.8906,50"/>
<path class="Clef" transform="matrix(0.566929,0,0,0.566929,28.5015,85.0394)" d="M36.7188,-25.5938 C36.7188,-25.5938 36.9167,-25.5938 37.3125,-25.5938 C37.5729,-25.6563 37.7969,-25.6875 37.9844,-25.6875 C45.276,-25.6875 51.2656,-23.1146 55.9531,-17.9688 C60.6406,-12.8958 62.9844,-6.97396 62.9844,-0.203125 C62.9844,8.20313 59.5052,15.0417 52.5469,20.3125 C50.724,21.75 48.3438,22.9219 45.4063,23.8281 C45.7396,28.0573 45.9063,31.474 45.9063,34.0781 C45.9063,34.599 45.8385,36.4896 45.7031,39.75 C45.4427,45.8021 43.3594,51.0417 39.4531,55.4688 C35.6823,59.8333 30.9948,62.0156 25.3906,62.0156 C20.1198,62.0156 15.6302,60.1615 11.9219,56.4531 C8.20313,52.6719 6.34375,48.1146 6.34375,42.7813 C6.34375,39.9792 7.42188,37.599 9.57813,35.6406 C11.7865,33.6927 14.3542,32.7188 17.2813,32.7188 C19.8854,32.7188 22.0677,33.7292 23.8281,35.75 C25.651,37.6354 26.5625,39.9792 26.5625,42.7813 C26.5625,45.3125 25.651,47.4896 23.8281,49.3125 C22.0052,51.1354 19.8229,52.0469 17.2813,52.0469 C16.2396,52.0469 15.2344,51.8542 14.2656,51.4688 C17.1302,55.6979 20.9375,57.8125 25.6875,57.8125 C30.1771,57.8125 33.8542,55.9896 36.7188,52.3438 C39.7188,48.5729 41.349,44.1771 41.6094,39.1563 C41.7344,36.0313 41.7969,34.2448 41.7969,33.7969 C41.7969,30.151 41.6667,27.1563 41.4063,24.8125 C38.1563,25.3333 35.2604,25.5938 32.7188,25.5938 C23.6667,25.5938 15.9531,22.0104 9.57813,14.8438 C3.32813,7.61458 0.203125,-0.979167 0.203125,-10.9375 C0.203125,-13.0208 0.395833,-15.1354 0.78125,-17.2813 C1.17708,-19.0417 1.66667,-20.9635 2.25,-23.0469 C2.57292,-24.224 3.45313,-26.1146 4.89063,-28.7188 C5.41146,-29.5 5.9974,-30.4766 6.64844,-31.6484 C7.29948,-32.8203 7.75521,-33.599 8.01563,-33.9844 C8.66146,-35.2865 9.92708,-37.0469 11.8125,-39.2656 C12.3333,-39.849 12.8724,-40.4974 13.4297,-41.2109 C13.987,-41.9245 14.4609,-42.5104 14.8516,-42.9688 C15.2422,-43.4271 15.5339,-43.7865 15.7266,-44.0469 C15.9193,-44.3073 17.3854,-46.0313 20.125,-49.2188 C20.7708,-49.875 21.4036,-50.5755 22.0234,-51.3203 C22.6432,-52.0651 23.1484,-52.651 23.5391,-53.0781 C23.9297,-53.5052 24.224,-53.8125 24.4219,-54 C22.0781,-61.75 20.6094,-67.9375 20.0156,-72.5625 C19.5677,-76.2708 19.3438,-81.349 19.3438,-87.7969 C19.3438,-93.4635 20.6458,-98.7708 23.25,-103.719 C25.7813,-108.854 29.3281,-113.052 33.8906,-116.313 C34.151,-116.51 34.474,-116.609 34.8594,-116.609 C35.3177,-116.609 35.6458,-116.51 35.8438,-116.313 C39.3542,-112.083 42.3802,-106.583 44.9219,-99.8125 C47.526,-93.0417 48.8281,-86.8854 48.8281,-81.3438 C48.8281,-75.0938 47.3333,-69.2344 44.3438,-63.7656 C40.9583,-57.974 36.5938,-51.9844 31.25,-45.7969 C32.6146,-41.5052 34.4375,-34.7708 36.7188,-25.5938 M45.0156,19.8281 C48.401,18.5885 51.0417,16.474 52.9375,13.4844 C55.0208,10.6198 56.0625,7.39583 56.0625,3.8125 C56.0625,-0.8125 54.5,-4.91667 51.375,-8.5 C48.1771,-12.2083 44.1042,-14.2917 39.1563,-14.75 C41.9583,-1.01042 43.9115,10.5156 45.0156,19.8281 M7.23438,-2.73438 C7.23438,3.71354 9.83854,9.38021 15.0469,14.2656 C20.3802,19.0156 26.3698,21.3906 33.0156,21.3906 C35.7448,21.3906 38.4115,21.1927 41.0156,20.7969 C39.974,10.901 37.9219,-0.947917 34.8594,-14.75 C31.151,-14.3542 28.1927,-13.0521 25.9844,-10.8438 C23.8281,-8.5625 22.75,-5.98958 22.75,-3.125 C22.75,1.82292 25.3906,5.82813 30.6719,8.89063 C31.1198,9.34896 31.3438,9.83854 31.3438,10.3594 C31.3438,10.8802 31.1198,11.3646 30.6719,11.8125 C30.276,12.2708 29.7865,12.5 29.2031,12.5 C29.1406,12.5 28.849,12.4375 28.3281,12.3125 C24.6094,10.2917 21.7448,7.6875 19.7344,4.5 C17.8385,1.10417 16.8906,-2.31771 16.8906,-5.76563 C16.8906,-10.2552 18.2917,-14.3229 21.0938,-17.9688 C24.0208,-21.6146 27.8281,-23.9583 32.5156,-25 C30.6927,-32.2917 29.1979,-37.9896 28.0313,-42.0938 C26.9896,-40.9167 25.737,-39.5 24.2734,-37.8438 C22.8099,-36.1875 21.9479,-35.1927 21.6875,-34.8594 C19.3438,-31.8073 17.5521,-29.4323 16.3125,-27.7344 C14.0938,-24.6719 12.4635,-22.0365 11.4219,-19.8281 C10.3177,-17.349 9.34375,-14.6458 8.5,-11.7188 C7.65625,-8.91667 7.23438,-5.92188 7.23438,-2.73438 M39.8438,-102.047 C34.9583,-99.6406 31.1198,-96.1927 28.3281,-91.7031 C25.4635,-87.0781 24.0313,-82.099 24.0313,-76.7656 C24.0313,-72.0781 25.2031,-65.7604 27.5469,-57.8125 C32.2344,-63.4792 35.75,-68.7188 38.0938,-73.5313 C40.5625,-78.6146 41.7969,-83.9219 41.7969,-89.4531 C41.7969,-93.6198 41.1458,-97.8177 39.8438,-102.047"/>
</svg>
