<?xml version="1.0" encoding="UTF-8" standalone="no"?>
<svg width="637.794px" height="765.353px" viewBox="0 0 637.794 765.353"
 xmlns="http://www.w3.org/2000/svg" xmlns:xlink="http://www.w3.org/1999/xlink" version="1.2" baseProfile="tiny">
<title>harmonicmajor (76)</title>
<desc>Generated by MuseScore 3.4.2</desc>
<polyline class="StaffLines" fill="none" stroke="#000000" stroke-width="1.13" stroke-linejoin="bevel" points="14.1732,37.7628 623.621,37.7628"/>
<polyline class="StaffLines" fill="none" stroke="#000000" stroke-width="1.13" stroke-linejoin="bevel" points="14.1732,51.936 623.621,51.936"/>
<polyline class="StaffLines" fill="none" stroke="#000000" stroke-width="1.13" stroke-linejoin="bevel" points="14.1732,66.1093 623.621,66.1093"/>
<polyline class="StaffLines" fill="none" stroke="#000000" stroke-width="1.13" stroke-linejoin="bevel" points="14.1732,80.2825 623.621,80.2825"/>
<polyline class="StaffLines" fill="none" stroke="#000000" stroke-width="1.13" stroke-linejoin="bevel" points="14.1732,94.4557 623.621,94.4557"/>
<polyline class="StaffLines" fill="none" stroke="#000000" stroke-width="1.13" stroke-linejoin="bevel" points="14.1732,172.408 623.621,172.408"/>
<polyline class="StaffLines" fill="none" stroke="#000000" stroke-width="1.13" stroke-linejoin="bevel" points="14.1732,186.582 623.621,186.582"/>
<polyline class="StaffLines" fill="none" stroke="#000000" stroke-width="1.13" stroke-linejoin="bevel" points="14.1732,200.755 623.621,200.755"/>
<polyline class="StaffLines" fill="none" stroke="#000000" stroke-width="1.13" stroke-linejoin="bevel" points="14.1732,214.928 623.621,214.928"/>
<polyline class="StaffLines" fill="none" stroke="#000000" stroke-width="1.13" stroke-linejoin="bevel" points="14.1732,229.101 623.621,229.101"/>
<polyline class="StaffLines" fill="none" stroke="#000000" stroke-width="1.13" stroke-linejoin="bevel" points="14.1732,307.054 623.621,307.054"/>
<polyline class="StaffLines" fill="none" stroke="#000000" stroke-width="1.13" stroke-linejoin="bevel" points="14.1732,321.227 623.621,321.227"/>
<polyline class="StaffLines" fill="none" stroke="#000000" stroke-width="1.13" stroke-linejoin="bevel" points="14.1732,335.401 623.621,335.401"/>
<polyline class="StaffLines" fill="none" stroke="#000000" stroke-width="1.13" stroke-linejoin="bevel" points="14.1732,349.574 623.621,349.574"/>
<polyline class="StaffLines" fill="none" stroke="#000000" stroke-width="1.13" stroke-linejoin="bevel" points="14.1732,363.747 623.621,363.747"/>
<polyline class="StaffLines" fill="none" stroke="#000000" stroke-width="1.13" stroke-linejoin="bevel" points="14.1732,441.7 623.621,441.7"/>
<polyline class="StaffLines" fill="none" stroke="#000000" stroke-width="1.13" stroke-linejoin="bevel" points="14.1732,466.503 623.621,466.503"/>
<polyline class="StaffLines" fill="none" stroke="#000000" stroke-width="1.13" stroke-linejoin="bevel" points="14.1732,491.306 623.621,491.306"/>
<polyline class="StaffLines" fill="none" stroke="#000000" stroke-width="1.13" stroke-linejoin="bevel" points="14.1732,516.109 623.621,516.109"/>
<polyline class="StaffLines" fill="none" stroke="#000000" stroke-width="1.13" stroke-linejoin="bevel" points="14.1732,594.062 623.621,594.062"/>
<polyline class="StaffLines" fill="none" stroke="#000000" stroke-width="1.13" stroke-linejoin="bevel" points="14.1732,618.865 623.621,618.865"/>
<polyline class="StaffLines" fill="none" stroke="#000000" stroke-width="1.13" stroke-linejoin="bevel" points="14.1732,643.668 623.621,643.668"/>
<polyline class="StaffLines" fill="none" stroke="#000000" stroke-width="1.13" stroke-linejoin="bevel" points="14.1732,668.471 623.621,668.471"/>
<polyline class="StaffLines" fill="none" stroke="#000000" stroke-width="1.13" stroke-linejoin="bevel" points="14.1732,693.275 623.621,693.275"/>
<polyline class="StaffLines" fill="none" stroke="#000000" stroke-width="1.13" stroke-linejoin="bevel" points="14.1732,718.078 623.621,718.078"/>
<path class="Accidental" transform="matrix(0.566929,0,0,0.566929,152.664,356.66)" d="M4.59375,-4.10938 L4.59375,3.60938 C4.59375,6.34896 4.72396,8.53125 4.98438,10.1563 C7.13021,8.33333 8.66146,6.96875 9.57813,6.0625 C10.6198,5.02083 11.6615,3.58594 12.7031,1.75781 C13.7448,-0.0703125 14.2656,-1.89583 14.2656,-3.71875 C14.2656,-5.54167 13.875,-7.10417 13.0938,-8.40625 C12.3125,-9.70833 11.2708,-10.3594 9.96875,-10.3594 C8.40625,-10.3594 7.10417,-9.77083 6.0625,-8.59375 C5.08333,-7.29167 4.59375,-5.79688 4.59375,-4.10938 M0.484375,13.7656 L-0.78125,-45.7031 C0.135417,-46.224 1.04948,-46.4844 1.96094,-46.4844 C2.8724,-46.4844 3.78125,-46.224 4.6875,-45.7031 L3.90625,-11.2344 C6.57292,-13.5156 9.63542,-14.6563 13.0938,-14.6563 C15.625,-14.6563 17.737,-13.6146 19.4297,-11.5313 C21.1224,-9.44792 21.9688,-7.06771 21.9688,-4.39063 C21.9688,-2.70313 21.4167,-0.911458 20.3125,0.984375 C19.2708,2.73438 18.1667,4.09896 17,5.07813 C16.3438,5.59896 14.6823,6.90104 12.0156,8.98438 C11.2344,9.56771 10.3073,10.25 9.23438,11.0313 C8.16146,11.8125 7.49479,12.3021 7.23438,12.5 C6.77604,12.7604 6.34896,13.2813 5.95313,14.0625 C5.50521,14.7188 4.98438,15.2708 4.39063,15.7188 C3.94271,16.1146 3.39323,16.3125 2.74219,16.3125 C2.09115,16.3125 1.56771,16.0833 1.17188,15.625 C0.713542,15.1667 0.484375,14.5469 0.484375,13.7656"/>
<path class="Accidental" transform="matrix(0.566929,0,0,0.566929,152.664,214.928)" d="M4.59375,-4.10938 L4.59375,3.60938 C4.59375,6.34896 4.72396,8.53125 4.98438,10.1563 C7.13021,8.33333 8.66146,6.96875 9.57813,6.0625 C10.6198,5.02083 11.6615,3.58594 12.7031,1.75781 C13.7448,-0.0703125 14.2656,-1.89583 14.2656,-3.71875 C14.2656,-5.54167 13.875,-7.10417 13.0938,-8.40625 C12.3125,-9.70833 11.2708,-10.3594 9.96875,-10.3594 C8.40625,-10.3594 7.10417,-9.77083 6.0625,-8.59375 C5.08333,-7.29167 4.59375,-5.79688 4.59375,-4.10938 M0.484375,13.7656 L-0.78125,-45.7031 C0.135417,-46.224 1.04948,-46.4844 1.96094,-46.4844 C2.8724,-46.4844 3.78125,-46.224 4.6875,-45.7031 L3.90625,-11.2344 C6.57292,-13.5156 9.63542,-14.6563 13.0938,-14.6563 C15.625,-14.6563 17.737,-13.6146 19.4297,-11.5313 C21.1224,-9.44792 21.9688,-7.06771 21.9688,-4.39063 C21.9688,-2.70313 21.4167,-0.911458 20.3125,0.984375 C19.2708,2.73438 18.1667,4.09896 17,5.07813 C16.3438,5.59896 14.6823,6.90104 12.0156,8.98438 C11.2344,9.56771 10.3073,10.25 9.23438,11.0313 C8.16146,11.8125 7.49479,12.3021 7.23438,12.5 C6.77604,12.7604 6.34896,13.2813 5.95313,14.0625 C5.50521,14.7188 4.98438,15.2708 4.39063,15.7188 C3.94271,16.1146 3.39323,16.3125 2.74219,16.3125 C2.09115,16.3125 1.56771,16.0833 1.17188,15.625 C0.713542,15.1667 0.484375,14.5469 0.484375,13.7656"/>
<path class="Accidental" transform="matrix(0.566929,0,0,0.566929,152.664,73.1959)" d="M4.59375,-4.10938 L4.59375,3.60938 C4.59375,6.34896 4.72396,8.53125 4.98438,10.1563 C7.13021,8.33333 8.66146,6.96875 9.57813,6.0625 C10.6198,5.02083 11.6615,3.58594 12.7031,1.75781 C13.7448,-0.0703125 14.2656,-1.89583 14.2656,-3.71875 C14.2656,-5.54167 13.875,-7.10417 13.0938,-8.40625 C12.3125,-9.70833 11.2708,-10.3594 9.96875,-10.3594 C8.40625,-10.3594 7.10417,-9.77083 6.0625,-8.59375 C5.08333,-7.29167 4.59375,-5.79688 4.59375,-4.10938 M0.484375,13.7656 L-0.78125,-45.7031 C0.135417,-46.224 1.04948,-46.4844 1.96094,-46.4844 C2.8724,-46.4844 3.78125,-46.224 4.6875,-45.7031 L3.90625,-11.2344 C6.57292,-13.5156 9.63542,-14.6563 13.0938,-14.6563 C15.625,-14.6563 17.737,-13.6146 19.4297,-11.5313 C21.1224,-9.44792 21.9688,-7.06771 21.9688,-4.39063 C21.9688,-2.70313 21.4167,-0.911458 20.3125,0.984375 C19.2708,2.73438 18.1667,4.09896 17,5.07813 C16.3438,5.59896 14.6823,6.90104 12.0156,8.98438 C11.2344,9.56771 10.3073,10.25 9.23438,11.0313 C8.16146,11.8125 7.49479,12.3021 7.23438,12.5 C6.77604,12.7604 6.34896,13.2813 5.95313,14.0625 C5.50521,14.7188 4.98438,15.2708 4.39063,15.7188 C3.94271,16.1146 3.39323,16.3125 2.74219,16.3125 C2.09115,16.3125 1.56771,16.0833 1.17188,15.625 C0.713542,15.1667 0.484375,14.5469 0.484375,13.7656"/>
<path class="Note" fill="#ffffff" fill-opacity="0.0" fill-rule="evenodd" d="M104.913,705.676 L123.622,705.676 L123.622,730.479 L104.913,730.479 L104.913,705.676 "/>
<path class="Note" d="M113.893,711.125 C112.476,711.125 111.502,711.513 110.971,712.289 C110.44,713.065 110.153,714.099 110.111,715.39 L107.643,715.39 C107.736,711.109 109.809,708.968 113.861,708.968 C115.747,708.968 117.226,709.455 118.299,710.429 C119.372,711.403 119.908,712.739 119.908,714.437 C119.908,716.448 118.986,717.817 117.143,718.547 C118.33,718.963 119.187,719.539 119.713,720.273 C120.239,721.007 120.502,722.01 120.502,723.281 C120.502,725.166 119.89,726.669 118.666,727.789 C117.442,728.908 115.815,729.468 113.783,729.468 C109.71,729.468 107.523,727.333 107.221,723.062 L109.69,723.062 C109.783,724.5 110.166,725.562 110.838,726.25 C111.51,726.937 112.518,727.281 113.861,727.281 C115.153,727.281 116.161,726.932 116.885,726.234 C117.609,725.536 117.971,724.562 117.971,723.312 C117.971,720.906 116.601,719.703 113.861,719.703 L112.83,719.734 L112.518,719.734 L112.518,717.625 C114.289,717.593 115.544,717.372 116.283,716.961 C117.023,716.549 117.393,715.734 117.393,714.515 C117.393,713.474 117.08,712.648 116.455,712.039 C115.83,711.429 114.976,711.125 113.893,711.125"/>
<path class="Note" fill="#ffffff" fill-opacity="0.0" fill-rule="evenodd" d="M104.913,631.267 L123.622,631.267 L123.622,656.07 L104.913,656.07 L104.913,631.267 "/>
<path class="Note" d="M107.533,644.809 C107.533,643.153 107.674,641.689 107.955,640.418 C108.236,639.147 108.591,638.153 109.018,637.434 C109.445,636.715 109.958,636.132 110.557,635.684 C111.156,635.236 111.731,634.937 112.283,634.786 C112.835,634.634 113.419,634.559 114.033,634.559 C118.367,634.559 120.533,638.033 120.533,644.981 C120.533,648.252 119.976,650.749 118.861,652.473 C117.747,654.197 116.138,655.059 114.033,655.059 C111.908,655.059 110.294,654.187 109.19,652.442 C108.085,650.697 107.533,648.153 107.533,644.809 M118.002,644.762 C118.002,639.418 116.677,636.746 114.026,636.746 C111.374,636.746 110.049,639.444 110.049,644.84 C110.049,650.288 111.356,653.012 113.971,653.012 C115.356,653.012 116.374,652.34 117.026,650.996 C117.677,649.653 118.002,647.575 118.002,644.762"/>
<path class="Note" fill="#ffffff" fill-opacity="0.0" fill-rule="evenodd" d="M169.627,705.676 L188.336,705.676 L188.336,730.479 L169.627,730.479 L169.627,705.676 "/>
<path class="Note" d="M180.201,724.062 L171.826,724.062 L171.826,721.468 L180.842,708.968 L182.67,708.968 L182.67,721.859 L185.607,721.859 L185.607,724.062 L182.67,724.062 L182.67,728.828 L180.201,728.828 L180.201,724.062 M180.201,721.859 L180.201,713.172 L173.982,721.859 L180.201,721.859 "/>
<path class="Note" fill="#ffffff" fill-opacity="0.0" fill-rule="evenodd" d="M169.627,631.267 L188.336,631.267 L188.336,656.07 L169.627,656.07 L169.627,631.267 "/>
<path class="Note" d="M178.295,640.278 L173.904,640.278 L173.904,638.512 C175.81,638.272 177.053,637.937 177.631,637.504 C178.209,637.072 178.711,636.09 179.138,634.559 L180.763,634.559 L180.763,654.418 L178.295,654.418 L178.295,640.278 "/>
<path class="Note" fill="#ffffff" fill-opacity="0.0" fill-rule="evenodd" d="M234.342,680.873 L253.051,680.873 L253.051,705.676 L234.342,705.676 L234.342,680.873 "/>
<path class="Note" d="M237.165,691.056 C237.29,686.462 239.473,684.165 243.712,684.165 C245.598,684.165 247.129,684.707 248.306,685.79 C249.483,686.874 250.072,688.275 250.072,689.993 C250.072,692.462 248.671,694.462 245.869,695.993 L243.072,697.493 C241.853,698.15 240.983,698.785 240.462,699.4 C239.941,700.014 239.613,700.743 239.478,701.587 L249.931,701.587 L249.931,704.025 L236.712,704.025 C236.827,701.837 237.267,700.152 238.033,698.97 C238.798,697.788 240.218,696.608 242.29,695.431 L244.853,693.978 C246.645,692.946 247.54,691.639 247.54,690.056 C247.54,688.993 247.168,688.105 246.423,687.392 C245.678,686.678 244.749,686.321 243.634,686.321 C241.145,686.321 239.806,687.9 239.619,691.056 L237.165,691.056 "/>
<path class="Note" fill="#ffffff" fill-opacity="0.0" fill-rule="evenodd" d="M234.342,606.464 L253.051,606.464 L253.051,631.267 L234.342,631.267 L234.342,606.464 "/>
<path class="Note" d="M236.962,620.006 C236.962,618.35 237.103,616.886 237.384,615.615 C237.665,614.344 238.02,613.35 238.447,612.631 C238.874,611.912 239.387,611.329 239.986,610.881 C240.585,610.433 241.16,610.133 241.712,609.982 C242.264,609.831 242.848,609.756 243.462,609.756 C247.796,609.756 249.962,613.23 249.962,620.178 C249.962,623.448 249.405,625.946 248.29,627.67 C247.176,629.394 245.566,630.256 243.462,630.256 C241.337,630.256 239.723,629.383 238.619,627.639 C237.514,625.894 236.962,623.35 236.962,620.006 M247.431,619.959 C247.431,614.615 246.106,611.943 243.454,611.943 C240.803,611.943 239.478,614.641 239.478,620.037 C239.478,625.485 240.785,628.209 243.4,628.209 C244.785,628.209 245.803,627.537 246.454,626.193 C247.106,624.85 247.431,622.771 247.431,619.959"/>
<path class="Note" fill="#ffffff" fill-opacity="0.0" fill-rule="evenodd" d="M299.056,680.873 L317.765,680.873 L317.765,705.676 L299.056,705.676 L299.056,680.873 "/>
<path class="Note" d="M308.036,686.321 C306.619,686.321 305.646,686.71 305.114,687.486 C304.583,688.262 304.297,689.295 304.255,690.587 L301.786,690.587 C301.88,686.306 303.953,684.165 308.005,684.165 C309.89,684.165 311.369,684.652 312.442,685.626 C313.515,686.6 314.052,687.936 314.052,689.634 C314.052,691.644 313.13,693.014 311.286,693.743 C312.474,694.16 313.33,694.736 313.856,695.47 C314.383,696.204 314.646,697.207 314.646,698.478 C314.646,700.363 314.034,701.866 312.81,702.986 C311.586,704.105 309.958,704.665 307.927,704.665 C303.854,704.665 301.666,702.53 301.364,698.259 L303.833,698.259 C303.927,699.696 304.31,700.759 304.981,701.446 C305.653,702.134 306.661,702.478 308.005,702.478 C309.297,702.478 310.304,702.129 311.028,701.431 C311.752,700.733 312.114,699.759 312.114,698.509 C312.114,696.103 310.744,694.9 308.005,694.9 L306.974,694.931 L306.661,694.931 L306.661,692.821 C308.432,692.79 309.687,692.569 310.427,692.157 C311.166,691.746 311.536,690.931 311.536,689.712 C311.536,688.67 311.224,687.845 310.599,687.236 C309.974,686.626 309.119,686.321 308.036,686.321"/>
<path class="Note" fill="#ffffff" fill-opacity="0.0" fill-rule="evenodd" d="M299.056,606.464 L317.765,606.464 L317.765,631.267 L299.056,631.267 L299.056,606.464 "/>
<path class="Note" d="M307.724,615.475 L303.333,615.475 L303.333,613.709 C305.239,613.469 306.481,613.133 307.06,612.701 C307.638,612.269 308.14,611.287 308.567,609.756 L310.192,609.756 L310.192,629.615 L307.724,629.615 L307.724,615.475 "/>
<path class="Note" fill="#ffffff" fill-opacity="0.0" fill-rule="evenodd" d="M363.771,656.07 L382.479,656.07 L382.479,680.873 L363.771,680.873 L363.771,656.07 "/>
<path class="Note" d="M366.391,669.612 C366.391,667.956 366.532,666.492 366.813,665.221 C367.094,663.951 367.449,662.956 367.876,662.237 C368.303,661.518 368.816,660.935 369.415,660.487 C370.014,660.039 370.589,659.74 371.141,659.589 C371.693,659.438 372.277,659.362 372.891,659.362 C377.225,659.362 379.391,662.836 379.391,669.784 C379.391,673.055 378.834,675.552 377.719,677.276 C376.605,679 374.995,679.862 372.891,679.862 C370.766,679.862 369.152,678.99 368.048,677.245 C366.943,675.5 366.391,672.956 366.391,669.612 M376.86,669.565 C376.86,664.221 375.534,661.55 372.883,661.55 C370.232,661.55 368.907,664.248 368.907,669.643 C368.907,675.091 370.214,677.815 372.829,677.815 C374.214,677.815 375.232,677.143 375.883,675.8 C376.534,674.456 376.86,672.378 376.86,669.565"/>
<path class="Note" fill="#ffffff" fill-opacity="0.0" fill-rule="evenodd" d="M363.771,606.464 L382.479,606.464 L382.479,631.267 L363.771,631.267 L363.771,606.464 "/>
<path class="Note" d="M372.751,611.912 C371.334,611.912 370.36,612.3 369.829,613.076 C369.298,613.852 369.011,614.886 368.969,616.178 L366.501,616.178 C366.594,611.896 368.667,609.756 372.719,609.756 C374.605,609.756 376.084,610.243 377.157,611.217 C378.23,612.191 378.766,613.527 378.766,615.225 C378.766,617.235 377.844,618.605 376.001,619.334 C377.188,619.751 378.045,620.326 378.571,621.06 C379.097,621.795 379.36,622.797 379.36,624.068 C379.36,625.954 378.748,627.456 377.524,628.576 C376.3,629.696 374.673,630.256 372.641,630.256 C368.568,630.256 366.381,628.12 366.079,623.85 L368.548,623.85 C368.641,625.287 369.024,626.35 369.696,627.037 C370.368,627.725 371.376,628.068 372.719,628.068 C374.011,628.068 375.019,627.719 375.743,627.021 C376.467,626.323 376.829,625.35 376.829,624.1 C376.829,621.693 375.459,620.49 372.719,620.49 L371.688,620.521 L371.376,620.521 L371.376,618.412 C373.146,618.381 374.402,618.159 375.141,617.748 C375.881,617.337 376.251,616.521 376.251,615.303 C376.251,614.261 375.938,613.435 375.313,612.826 C374.688,612.217 373.834,611.912 372.751,611.912"/>
<path class="Note" fill="#ffffff" fill-opacity="0.0" fill-rule="evenodd" d="M428.485,656.07 L447.194,656.07 L447.194,680.873 L428.485,680.873 L428.485,656.07 "/>
<path class="Note" d="M431.309,666.253 C431.434,661.659 433.616,659.362 437.856,659.362 C439.741,659.362 441.272,659.904 442.449,660.987 C443.627,662.07 444.215,663.471 444.215,665.19 C444.215,667.659 442.814,669.659 440.012,671.19 L437.215,672.69 C435.996,673.346 435.127,673.982 434.606,674.596 C434.085,675.211 433.757,675.94 433.621,676.784 L444.074,676.784 L444.074,679.221 L430.856,679.221 C430.97,677.034 431.41,675.349 432.176,674.167 C432.942,672.984 434.361,671.805 436.434,670.628 L438.996,669.175 C440.788,668.143 441.684,666.836 441.684,665.253 C441.684,664.19 441.311,663.302 440.567,662.589 C439.822,661.875 438.892,661.518 437.778,661.518 C435.288,661.518 433.949,663.096 433.762,666.253 L431.309,666.253 "/>
<path class="Note" fill="#ffffff" fill-opacity="0.0" fill-rule="evenodd" d="M428.485,581.66 L447.194,581.66 L447.194,606.464 L428.485,606.464 L428.485,581.66 "/>
<path class="Note" d="M431.106,595.203 C431.106,593.546 431.246,592.083 431.528,590.812 C431.809,589.541 432.163,588.546 432.59,587.828 C433.017,587.109 433.53,586.526 434.129,586.078 C434.728,585.63 435.304,585.33 435.856,585.179 C436.408,585.028 436.991,584.953 437.606,584.953 C441.939,584.953 444.106,588.427 444.106,595.375 C444.106,598.645 443.548,601.143 442.434,602.867 C441.319,604.591 439.71,605.453 437.606,605.453 C435.481,605.453 433.866,604.58 432.762,602.835 C431.658,601.091 431.106,598.546 431.106,595.203 M441.574,595.156 C441.574,589.812 440.249,587.14 437.598,587.14 C434.947,587.14 433.621,589.838 433.621,595.234 C433.621,600.682 434.929,603.406 437.543,603.406 C438.929,603.406 439.947,602.734 440.598,601.39 C441.249,600.046 441.574,597.968 441.574,595.156"/>
<path class="Note" fill="#ffffff" fill-opacity="0.0" fill-rule="evenodd" d="M493.2,656.07 L511.908,656.07 L511.908,680.873 L493.2,680.873 L493.2,656.07 "/>
<path class="Note" d="M502.18,661.518 C500.763,661.518 499.789,661.906 499.258,662.682 C498.726,663.458 498.44,664.492 498.398,665.784 L495.93,665.784 C496.023,661.503 498.096,659.362 502.148,659.362 C504.034,659.362 505.513,659.849 506.586,660.823 C507.659,661.797 508.195,663.133 508.195,664.831 C508.195,666.841 507.273,668.211 505.43,668.94 C506.617,669.357 507.474,669.932 508,670.667 C508.526,671.401 508.789,672.404 508.789,673.675 C508.789,675.56 508.177,677.063 506.953,678.182 C505.729,679.302 504.101,679.862 502.07,679.862 C497.997,679.862 495.81,677.727 495.508,673.456 L497.976,673.456 C498.07,674.893 498.453,675.956 499.125,676.643 C499.797,677.331 500.805,677.675 502.148,677.675 C503.44,677.675 504.448,677.326 505.172,676.628 C505.896,675.93 506.258,674.956 506.258,673.706 C506.258,671.3 504.888,670.096 502.148,670.096 L501.117,670.128 L500.805,670.128 L500.805,668.018 C502.575,667.987 503.831,667.766 504.57,667.354 C505.31,666.943 505.68,666.128 505.68,664.909 C505.68,663.867 505.367,663.042 504.742,662.432 C504.117,661.823 503.263,661.518 502.18,661.518"/>
<path class="Note" fill="#ffffff" fill-opacity="0.0" fill-rule="evenodd" d="M493.2,581.66 L511.908,581.66 L511.908,606.464 L493.2,606.464 L493.2,581.66 "/>
<path class="Note" d="M501.867,590.671 L497.476,590.671 L497.476,588.906 C499.383,588.666 500.625,588.33 501.203,587.898 C501.781,587.466 502.284,586.484 502.711,584.953 L504.336,584.953 L504.336,604.812 L501.867,604.812 L501.867,590.671 "/>
<path class="Note" fill="#ffffff" fill-opacity="0.0" fill-rule="evenodd" d="M557.914,631.267 L576.623,631.267 L576.623,656.07 L557.914,656.07 L557.914,631.267 "/>
<path class="Note" d="M560.535,644.809 C560.535,643.153 560.675,641.689 560.957,640.418 C561.238,639.147 561.592,638.153 562.019,637.434 C562.446,636.715 562.959,636.132 563.558,635.684 C564.157,635.236 564.733,634.937 565.285,634.786 C565.837,634.634 566.42,634.559 567.035,634.559 C571.368,634.559 573.535,638.033 573.535,644.981 C573.535,648.252 572.977,650.749 571.863,652.473 C570.748,654.197 569.139,655.059 567.035,655.059 C564.91,655.059 563.295,654.187 562.191,652.442 C561.087,650.697 560.535,648.153 560.535,644.809 M571.003,644.762 C571.003,639.418 569.678,636.746 567.027,636.746 C564.376,636.746 563.05,639.444 563.05,644.84 C563.05,650.288 564.358,653.012 566.972,653.012 C568.358,653.012 569.376,652.34 570.027,650.996 C570.678,649.653 571.003,647.575 571.003,644.762"/>
<path class="Note" fill="#ffffff" fill-opacity="0.0" fill-rule="evenodd" d="M557.914,581.66 L576.623,581.66 L576.623,606.464 L557.914,606.464 L557.914,581.66 "/>
<path class="Note" d="M566.894,587.109 C565.477,587.109 564.503,587.497 563.972,588.273 C563.441,589.049 563.154,590.083 563.113,591.375 L560.644,591.375 C560.738,587.093 562.811,584.953 566.863,584.953 C568.748,584.953 570.227,585.44 571.3,586.414 C572.373,587.388 572.91,588.723 572.91,590.421 C572.91,592.432 571.988,593.802 570.144,594.531 C571.332,594.947 572.188,595.523 572.714,596.257 C573.24,596.992 573.503,597.994 573.503,599.265 C573.503,601.151 572.891,602.653 571.667,603.773 C570.444,604.893 568.816,605.453 566.785,605.453 C562.712,605.453 560.524,603.317 560.222,599.046 L562.691,599.046 C562.785,600.484 563.167,601.546 563.839,602.234 C564.511,602.921 565.519,603.265 566.863,603.265 C568.154,603.265 569.162,602.916 569.886,602.218 C570.61,601.52 570.972,600.546 570.972,599.296 C570.972,596.89 569.602,595.687 566.863,595.687 L565.832,595.718 L565.519,595.718 L565.519,593.609 C567.29,593.578 568.545,593.356 569.285,592.945 C570.024,592.533 570.394,591.718 570.394,590.5 C570.394,589.458 570.082,588.632 569.457,588.023 C568.832,587.414 567.977,587.109 566.894,587.109"/>
<path class="Note" fill="#ffffff" fill-opacity="0.0" fill-rule="evenodd" d="M104.913,503.708 L123.622,503.708 L123.622,528.511 L104.913,528.511 L104.913,503.708 "/>
<path class="Note" d="M107.533,517.25 C107.533,515.594 107.674,514.13 107.955,512.859 C108.236,511.588 108.591,510.594 109.018,509.875 C109.445,509.156 109.958,508.573 110.557,508.125 C111.156,507.677 111.731,507.377 112.283,507.226 C112.835,507.075 113.419,507 114.033,507 C118.367,507 120.533,510.474 120.533,517.422 C120.533,520.693 119.976,523.19 118.861,524.914 C117.747,526.638 116.138,527.5 114.033,527.5 C111.908,527.5 110.294,526.627 109.19,524.883 C108.085,523.138 107.533,520.594 107.533,517.25 M118.002,517.203 C118.002,511.859 116.677,509.187 114.026,509.187 C111.374,509.187 110.049,511.885 110.049,517.281 C110.049,522.729 111.356,525.453 113.971,525.453 C115.356,525.453 116.374,524.781 117.026,523.437 C117.677,522.094 118.002,520.016 118.002,517.203"/>
<path class="Note" fill="#ffffff" fill-opacity="0.0" fill-rule="evenodd" d="M104.913,478.905 L123.622,478.905 L123.622,503.708 L104.913,503.708 L104.913,478.905 "/>
<path class="Note" d="M119.658,482.197 L119.658,484.634 L111.393,484.634 L110.611,490.181 C111.716,489.379 112.94,488.978 114.283,488.978 C116.19,488.978 117.734,489.59 118.916,490.814 C120.098,492.038 120.69,493.629 120.69,495.587 C120.69,497.681 120.057,499.389 118.791,500.712 C117.526,502.035 115.893,502.697 113.893,502.697 C113.122,502.697 112.416,502.613 111.776,502.447 C111.135,502.28 110.604,502.08 110.182,501.845 C109.76,501.611 109.377,501.304 109.033,500.923 C108.69,500.543 108.429,500.207 108.252,499.915 C108.075,499.624 107.906,499.259 107.744,498.822 C107.583,498.384 107.484,498.082 107.447,497.915 C107.411,497.749 107.367,497.504 107.315,497.181 L109.768,497.181 C110.351,499.4 111.705,500.509 113.83,500.509 C115.174,500.509 116.234,500.1 117.01,499.283 C117.786,498.465 118.174,497.348 118.174,495.931 C118.174,494.452 117.781,493.288 116.994,492.439 C116.208,491.59 115.153,491.165 113.83,491.165 C113.07,491.165 112.419,491.301 111.877,491.572 C111.335,491.843 110.773,492.322 110.19,493.009 L107.924,493.009 L109.408,482.197 L119.658,482.197 "/>
<path class="Note" fill="#ffffff" fill-opacity="0.0" fill-rule="evenodd" d="M169.627,503.708 L188.336,503.708 L188.336,528.511 L169.627,528.511 L169.627,503.708 "/>
<path class="Note" d="M178.295,512.719 L173.904,512.719 L173.904,510.953 C175.81,510.713 177.053,510.377 177.631,509.945 C178.209,509.513 178.711,508.531 179.138,507 L180.763,507 L180.763,526.859 L178.295,526.859 L178.295,512.719 "/>
<path class="Note" fill="#ffffff" fill-opacity="0.0" fill-rule="evenodd" d="M169.627,478.905 L188.336,478.905 L188.336,503.708 L169.627,503.708 L169.627,478.905 "/>
<path class="Note" d="M172.248,493.009 C172.248,491.259 172.407,489.715 172.724,488.376 C173.042,487.038 173.438,485.988 173.912,485.228 C174.386,484.468 174.956,483.848 175.623,483.369 C176.289,482.889 176.917,482.574 177.506,482.423 C178.094,482.272 178.711,482.197 179.357,482.197 C180.868,482.197 182.123,482.655 183.123,483.572 C184.123,484.488 184.743,485.759 184.982,487.384 L182.529,487.384 C182.321,486.436 181.928,485.699 181.349,485.173 C180.771,484.647 180.05,484.384 179.185,484.384 C177.769,484.384 176.683,485.033 175.928,486.33 C175.172,487.626 174.784,489.488 174.763,491.915 C175.847,490.447 177.368,489.712 179.326,489.712 C181.107,489.712 182.566,490.301 183.701,491.478 C184.836,492.655 185.404,494.165 185.404,496.009 C185.404,497.947 184.795,499.546 183.576,500.806 C182.357,502.067 180.805,502.697 178.92,502.697 C174.472,502.697 172.248,499.468 172.248,493.009 M179.029,491.9 C177.81,491.9 176.818,492.285 176.053,493.056 C175.287,493.827 174.904,494.832 174.904,496.072 C174.904,497.332 175.287,498.387 176.053,499.236 C176.818,500.085 177.779,500.509 178.935,500.509 C180.081,500.509 181.026,500.106 181.771,499.298 C182.516,498.491 182.888,497.457 182.888,496.197 C182.888,494.874 182.542,493.827 181.849,493.056 C181.157,492.285 180.217,491.9 179.029,491.9"/>
<path class="Note" fill="#ffffff" fill-opacity="0.0" fill-rule="evenodd" d="M234.342,503.708 L253.051,503.708 L253.051,528.511 L234.342,528.511 L234.342,503.708 "/>
<path class="Note" d="M244.915,522.094 L236.54,522.094 L236.54,519.5 L245.556,507 L247.384,507 L247.384,519.891 L250.322,519.891 L250.322,522.094 L247.384,522.094 L247.384,526.859 L244.915,526.859 L244.915,522.094 M244.915,519.891 L244.915,511.203 L238.697,519.891 L244.915,519.891 "/>
<path class="Note" fill="#ffffff" fill-opacity="0.0" fill-rule="evenodd" d="M234.342,454.101 L253.051,454.101 L253.051,478.905 L234.342,478.905 L234.342,454.101 "/>
<path class="Note" d="M237.165,464.284 C237.29,459.69 239.473,457.394 243.712,457.394 C245.598,457.394 247.129,457.935 248.306,459.019 C249.483,460.102 250.072,461.503 250.072,463.222 C250.072,465.69 248.671,467.69 245.869,469.222 L243.072,470.722 C241.853,471.378 240.983,472.013 240.462,472.628 C239.941,473.243 239.613,473.972 239.478,474.815 L249.931,474.815 L249.931,477.253 L236.712,477.253 C236.827,475.065 237.267,473.381 238.033,472.198 C238.798,471.016 240.218,469.836 242.29,468.659 L244.853,467.206 C246.645,466.175 247.54,464.868 247.54,463.284 C247.54,462.222 247.168,461.334 246.423,460.62 C245.678,459.907 244.749,459.55 243.634,459.55 C241.145,459.55 239.806,461.128 239.619,464.284 L237.165,464.284 "/>
<path class="Note" fill="#ffffff" fill-opacity="0.0" fill-rule="evenodd" d="M299.056,503.708 L317.765,503.708 L317.765,528.511 L299.056,528.511 L299.056,503.708 "/>
<path class="Note" d="M313.802,507 L313.802,509.437 L305.536,509.437 L304.755,514.984 C305.859,514.182 307.083,513.781 308.427,513.781 C310.333,513.781 311.877,514.393 313.06,515.617 C314.242,516.841 314.833,518.432 314.833,520.391 C314.833,522.484 314.2,524.193 312.935,525.516 C311.669,526.838 310.036,527.5 308.036,527.5 C307.265,527.5 306.56,527.417 305.919,527.25 C305.278,527.083 304.747,526.883 304.325,526.648 C303.903,526.414 303.521,526.107 303.177,525.726 C302.833,525.346 302.573,525.01 302.396,524.719 C302.218,524.427 302.049,524.062 301.888,523.625 C301.726,523.187 301.627,522.885 301.591,522.719 C301.554,522.552 301.51,522.307 301.458,521.984 L303.911,521.984 C304.494,524.203 305.849,525.312 307.974,525.312 C309.317,525.312 310.377,524.904 311.153,524.086 C311.929,523.268 312.317,522.151 312.317,520.734 C312.317,519.255 311.924,518.091 311.138,517.242 C310.351,516.393 309.297,515.969 307.974,515.969 C307.213,515.969 306.562,516.104 306.021,516.375 C305.479,516.646 304.916,517.125 304.333,517.812 L302.067,517.812 L303.552,507 L313.802,507 "/>
<path class="Note" fill="#ffffff" fill-opacity="0.0" fill-rule="evenodd" d="M299.056,454.101 L317.765,454.101 L317.765,478.905 L299.056,478.905 L299.056,454.101 "/>
<path class="Note" d="M308.036,459.55 C306.619,459.55 305.646,459.938 305.114,460.714 C304.583,461.49 304.297,462.524 304.255,463.815 L301.786,463.815 C301.88,459.534 303.953,457.394 308.005,457.394 C309.89,457.394 311.369,457.881 312.442,458.855 C313.515,459.828 314.052,461.164 314.052,462.862 C314.052,464.873 313.13,466.243 311.286,466.972 C312.474,467.388 313.33,467.964 313.856,468.698 C314.383,469.433 314.646,470.435 314.646,471.706 C314.646,473.592 314.034,475.094 312.81,476.214 C311.586,477.334 309.958,477.894 307.927,477.894 C303.854,477.894 301.666,475.758 301.364,471.487 L303.833,471.487 C303.927,472.925 304.31,473.987 304.981,474.675 C305.653,475.362 306.661,475.706 308.005,475.706 C309.297,475.706 310.304,475.357 311.028,474.659 C311.752,473.961 312.114,472.987 312.114,471.737 C312.114,469.331 310.744,468.128 308.005,468.128 L306.974,468.159 L306.661,468.159 L306.661,466.05 C308.432,466.019 309.687,465.797 310.427,465.386 C311.166,464.974 311.536,464.159 311.536,462.94 C311.536,461.899 311.224,461.073 310.599,460.464 C309.974,459.855 309.119,459.55 308.036,459.55"/>
<path class="Note" fill="#ffffff" fill-opacity="0.0" fill-rule="evenodd" d="M363.771,478.905 L382.479,478.905 L382.479,503.708 L363.771,503.708 L363.771,478.905 "/>
<path class="Note" d="M366.391,492.447 C366.391,490.79 366.532,489.327 366.813,488.056 C367.094,486.785 367.449,485.79 367.876,485.072 C368.303,484.353 368.816,483.77 369.415,483.322 C370.014,482.874 370.589,482.574 371.141,482.423 C371.693,482.272 372.277,482.197 372.891,482.197 C377.225,482.197 379.391,485.671 379.391,492.619 C379.391,495.889 378.834,498.387 377.719,500.111 C376.605,501.835 374.995,502.697 372.891,502.697 C370.766,502.697 369.152,501.824 368.048,500.08 C366.943,498.335 366.391,495.79 366.391,492.447 M376.86,492.4 C376.86,487.056 375.534,484.384 372.883,484.384 C370.232,484.384 368.907,487.082 368.907,492.478 C368.907,497.926 370.214,500.65 372.829,500.65 C374.214,500.65 375.232,499.978 375.883,498.634 C376.534,497.29 376.86,495.212 376.86,492.4"/>
<path class="Note" fill="#ffffff" fill-opacity="0.0" fill-rule="evenodd" d="M363.771,454.101 L382.479,454.101 L382.479,478.905 L363.771,478.905 L363.771,454.101 "/>
<path class="Note" d="M378.516,457.394 L378.516,459.831 L370.251,459.831 L369.469,465.378 C370.574,464.576 371.798,464.175 373.141,464.175 C375.048,464.175 376.592,464.787 377.774,466.011 C378.956,467.235 379.548,468.826 379.548,470.784 C379.548,472.878 378.915,474.586 377.649,475.909 C376.383,477.232 374.751,477.894 372.751,477.894 C371.98,477.894 371.274,477.81 370.633,477.644 C369.993,477.477 369.462,477.276 369.04,477.042 C368.618,476.808 368.235,476.5 367.891,476.12 C367.548,475.74 367.287,475.404 367.11,475.112 C366.933,474.821 366.764,474.456 366.602,474.019 C366.441,473.581 366.342,473.279 366.305,473.112 C366.269,472.946 366.225,472.701 366.173,472.378 L368.626,472.378 C369.209,474.597 370.563,475.706 372.688,475.706 C374.032,475.706 375.092,475.297 375.868,474.48 C376.644,473.662 377.032,472.545 377.032,471.128 C377.032,469.649 376.639,468.485 375.852,467.636 C375.066,466.787 374.011,466.362 372.688,466.362 C371.928,466.362 371.277,466.498 370.735,466.769 C370.193,467.039 369.631,467.519 369.048,468.206 L366.782,468.206 L368.266,457.394 L378.516,457.394 "/>
<path class="Note" fill="#ffffff" fill-opacity="0.0" fill-rule="evenodd" d="M428.485,478.905 L447.194,478.905 L447.194,503.708 L428.485,503.708 L428.485,478.905 "/>
<path class="Note" d="M431.309,489.087 C431.434,484.494 433.616,482.197 437.856,482.197 C439.741,482.197 441.272,482.738 442.449,483.822 C443.627,484.905 444.215,486.306 444.215,488.025 C444.215,490.494 442.814,492.494 440.012,494.025 L437.215,495.525 C435.996,496.181 435.127,496.817 434.606,497.431 C434.085,498.046 433.757,498.775 433.621,499.619 L444.074,499.619 L444.074,502.056 L430.856,502.056 C430.97,499.869 431.41,498.184 432.176,497.001 C432.942,495.819 434.361,494.639 436.434,493.462 L438.996,492.009 C440.788,490.978 441.684,489.671 441.684,488.087 C441.684,487.025 441.311,486.137 440.567,485.423 C439.822,484.71 438.892,484.353 437.778,484.353 C435.288,484.353 433.949,485.931 433.762,489.087 L431.309,489.087 "/>
<path class="Note" fill="#ffffff" fill-opacity="0.0" fill-rule="evenodd" d="M428.485,429.298 L447.194,429.298 L447.194,454.101 L428.485,454.101 L428.485,429.298 "/>
<path class="Note" d="M431.106,442.84 C431.106,441.184 431.246,439.721 431.528,438.45 C431.809,437.179 432.163,436.184 432.59,435.465 C433.017,434.747 433.53,434.163 434.129,433.715 C434.728,433.268 435.304,432.968 435.856,432.817 C436.408,432.666 436.991,432.59 437.606,432.59 C441.939,432.59 444.106,436.064 444.106,443.012 C444.106,446.283 443.548,448.781 442.434,450.504 C441.319,452.228 439.71,453.09 437.606,453.09 C435.481,453.09 433.866,452.218 432.762,450.473 C431.658,448.728 431.106,446.184 431.106,442.84 M441.574,442.794 C441.574,437.45 440.249,434.778 437.598,434.778 C434.947,434.778 433.621,437.476 433.621,442.872 C433.621,448.32 434.929,451.044 437.543,451.044 C438.929,451.044 439.947,450.372 440.598,449.028 C441.249,447.684 441.574,445.606 441.574,442.794"/>
<path class="Note" fill="#ffffff" fill-opacity="0.0" fill-rule="evenodd" d="M493.2,478.905 L511.908,478.905 L511.908,503.708 L493.2,503.708 L493.2,478.905 "/>
<path class="Note" d="M502.18,484.353 C500.763,484.353 499.789,484.741 499.258,485.517 C498.726,486.293 498.44,487.327 498.398,488.619 L495.93,488.619 C496.023,484.337 498.096,482.197 502.148,482.197 C504.034,482.197 505.513,482.684 506.586,483.658 C507.659,484.632 508.195,485.968 508.195,487.665 C508.195,489.676 507.273,491.046 505.43,491.775 C506.617,492.192 507.474,492.767 508,493.501 C508.526,494.236 508.789,495.238 508.789,496.509 C508.789,498.395 508.177,499.897 506.953,501.017 C505.729,502.137 504.101,502.697 502.07,502.697 C497.997,502.697 495.81,500.561 495.508,496.29 L497.976,496.29 C498.07,497.728 498.453,498.79 499.125,499.478 C499.797,500.165 500.805,500.509 502.148,500.509 C503.44,500.509 504.448,500.16 505.172,499.462 C505.896,498.764 506.258,497.79 506.258,496.54 C506.258,494.134 504.888,492.931 502.148,492.931 L501.117,492.962 L500.805,492.962 L500.805,490.853 C502.575,490.822 503.831,490.6 504.57,490.189 C505.31,489.777 505.68,488.962 505.68,487.744 C505.68,486.702 505.367,485.876 504.742,485.267 C504.117,484.658 503.263,484.353 502.18,484.353"/>
<path class="Note" fill="#ffffff" fill-opacity="0.0" fill-rule="evenodd" d="M493.2,429.298 L511.908,429.298 L511.908,454.101 L493.2,454.101 L493.2,429.298 "/>
<path class="Note" d="M501.867,438.309 L497.476,438.309 L497.476,436.544 C499.383,436.304 500.625,435.968 501.203,435.536 C501.781,435.103 502.284,434.122 502.711,432.59 L504.336,432.59 L504.336,452.45 L501.867,452.45 L501.867,438.309 "/>
<path class="Note" fill="#ffffff" fill-opacity="0.0" fill-rule="evenodd" d="M557.914,478.905 L576.623,478.905 L576.623,503.708 L557.914,503.708 L557.914,478.905 "/>
<path class="Note" d="M572.66,482.197 L572.66,484.634 L564.394,484.634 L563.613,490.181 C564.717,489.379 565.941,488.978 567.285,488.978 C569.191,488.978 570.735,489.59 571.917,490.814 C573.1,492.038 573.691,493.629 573.691,495.587 C573.691,497.681 573.058,499.389 571.792,500.712 C570.527,502.035 568.894,502.697 566.894,502.697 C566.123,502.697 565.417,502.613 564.777,502.447 C564.136,502.28 563.605,502.08 563.183,501.845 C562.761,501.611 562.378,501.304 562.035,500.923 C561.691,500.543 561.431,500.207 561.253,499.915 C561.076,499.624 560.907,499.259 560.746,498.822 C560.584,498.384 560.485,498.082 560.449,497.915 C560.412,497.749 560.368,497.504 560.316,497.181 L562.769,497.181 C563.352,499.4 564.707,500.509 566.832,500.509 C568.175,500.509 569.235,500.1 570.011,499.283 C570.787,498.465 571.175,497.348 571.175,495.931 C571.175,494.452 570.782,493.288 569.996,492.439 C569.209,491.59 568.154,491.165 566.832,491.165 C566.071,491.165 565.42,491.301 564.878,491.572 C564.337,491.843 563.774,492.322 563.191,493.009 L560.925,493.009 L562.41,482.197 L572.66,482.197 "/>
<path class="Note" fill="#ffffff" fill-opacity="0.0" fill-rule="evenodd" d="M557.914,429.298 L576.623,429.298 L576.623,454.101 L557.914,454.101 L557.914,429.298 "/>
<path class="Note" d="M566.894,434.747 C565.477,434.747 564.503,435.135 563.972,435.911 C563.441,436.687 563.154,437.721 563.113,439.012 L560.644,439.012 C560.738,434.731 562.811,432.59 566.863,432.59 C568.748,432.59 570.227,433.077 571.3,434.051 C572.373,435.025 572.91,436.361 572.91,438.059 C572.91,440.07 571.988,441.439 570.144,442.169 C571.332,442.585 572.188,443.161 572.714,443.895 C573.24,444.629 573.503,445.632 573.503,446.903 C573.503,448.788 572.891,450.291 571.667,451.411 C570.444,452.531 568.816,453.09 566.785,453.09 C562.712,453.09 560.524,450.955 560.222,446.684 L562.691,446.684 C562.785,448.122 563.167,449.184 563.839,449.872 C564.511,450.559 565.519,450.903 566.863,450.903 C568.154,450.903 569.162,450.554 569.886,449.856 C570.61,449.158 570.972,448.184 570.972,446.934 C570.972,444.528 569.602,443.325 566.863,443.325 L565.832,443.356 L565.519,443.356 L565.519,441.247 C567.29,441.215 568.545,440.994 569.285,440.583 C570.024,440.171 570.394,439.356 570.394,438.137 C570.394,437.096 570.082,436.27 569.457,435.661 C568.832,435.051 567.977,434.747 566.894,434.747"/>
<path class="Note" transform="matrix(0.566929,0,0,0.566929,103.637,363.747)" d="M21.9688,-13.7656 C25.0938,-13.7656 27.7344,-12.9531 29.8906,-11.3281 C31.901,-9.56771 32.9063,-7.35417 32.9063,-4.6875 C32.9063,-0.197917 30.599,4 25.9844,7.90625 C21.2969,11.8125 16.2813,13.7656 10.9375,13.7656 C7.8125,13.7656 5.17708,12.9531 3.03125,11.3281 C1.01042,9.56771 0,7.35417 0,4.6875 C0,0.197917 2.34375,-4 7.03125,-7.90625 C11.5938,-11.8125 16.5729,-13.7656 21.9688,-13.7656"/>
<path class="Note" transform="matrix(0.566929,0,0,0.566929,168.352,356.66)" d="M21.9688,-13.7656 C25.0938,-13.7656 27.7344,-12.9531 29.8906,-11.3281 C31.901,-9.56771 32.9063,-7.35417 32.9063,-4.6875 C32.9063,-0.197917 30.599,4 25.9844,7.90625 C21.2969,11.8125 16.2813,13.7656 10.9375,13.7656 C7.8125,13.7656 5.17708,12.9531 3.03125,11.3281 C1.01042,9.56771 0,7.35417 0,4.6875 C0,0.197917 2.34375,-4 7.03125,-7.90625 C11.5938,-11.8125 16.5729,-13.7656 21.9688,-13.7656"/>
<path class="Note" transform="matrix(0.566929,0,0,0.566929,233.066,349.574)" d="M21.9688,-13.7656 C25.0938,-13.7656 27.7344,-12.9531 29.8906,-11.3281 C31.901,-9.56771 32.9063,-7.35417 32.9063,-4.6875 C32.9063,-0.197917 30.599,4 25.9844,7.90625 C21.2969,11.8125 16.2813,13.7656 10.9375,13.7656 C7.8125,13.7656 5.17708,12.9531 3.03125,11.3281 C1.01042,9.56771 0,7.35417 0,4.6875 C0,0.197917 2.34375,-4 7.03125,-7.90625 C11.5938,-11.8125 16.5729,-13.7656 21.9688,-13.7656"/>
<path class="Note" transform="matrix(0.566929,0,0,0.566929,297.781,342.487)" d="M21.9688,-13.7656 C25.0938,-13.7656 27.7344,-12.9531 29.8906,-11.3281 C31.901,-9.56771 32.9063,-7.35417 32.9063,-4.6875 C32.9063,-0.197917 30.599,4 25.9844,7.90625 C21.2969,11.8125 16.2813,13.7656 10.9375,13.7656 C7.8125,13.7656 5.17708,12.9531 3.03125,11.3281 C1.01042,9.56771 0,7.35417 0,4.6875 C0,0.197917 2.34375,-4 7.03125,-7.90625 C11.5938,-11.8125 16.5729,-13.7656 21.9688,-13.7656"/>
<path class="Note" transform="matrix(0.566929,0,0,0.566929,362.495,335.401)" d="M21.9688,-13.7656 C25.0938,-13.7656 27.7344,-12.9531 29.8906,-11.3281 C31.901,-9.56771 32.9063,-7.35417 32.9063,-4.6875 C32.9063,-0.197917 30.599,4 25.9844,7.90625 C21.2969,11.8125 16.2813,13.7656 10.9375,13.7656 C7.8125,13.7656 5.17708,12.9531 3.03125,11.3281 C1.01042,9.56771 0,7.35417 0,4.6875 C0,0.197917 2.34375,-4 7.03125,-7.90625 C11.5938,-11.8125 16.5729,-13.7656 21.9688,-13.7656"/>
<path class="Note" transform="matrix(0.566929,0,0,0.566929,427.21,328.314)" d="M21.9688,-13.7656 C25.0938,-13.7656 27.7344,-12.9531 29.8906,-11.3281 C31.901,-9.56771 32.9063,-7.35417 32.9063,-4.6875 C32.9063,-0.197917 30.599,4 25.9844,7.90625 C21.2969,11.8125 16.2813,13.7656 10.9375,13.7656 C7.8125,13.7656 5.17708,12.9531 3.03125,11.3281 C1.01042,9.56771 0,7.35417 0,4.6875 C0,0.197917 2.34375,-4 7.03125,-7.90625 C11.5938,-11.8125 16.5729,-13.7656 21.9688,-13.7656"/>
<path class="Note" transform="matrix(0.566929,0,0,0.566929,491.924,321.227)" d="M21.9688,-13.7656 C25.0938,-13.7656 27.7344,-12.9531 29.8906,-11.3281 C31.901,-9.56771 32.9063,-7.35417 32.9063,-4.6875 C32.9063,-0.197917 30.599,4 25.9844,7.90625 C21.2969,11.8125 16.2813,13.7656 10.9375,13.7656 C7.8125,13.7656 5.17708,12.9531 3.03125,11.3281 C1.01042,9.56771 0,7.35417 0,4.6875 C0,0.197917 2.34375,-4 7.03125,-7.90625 C11.5938,-11.8125 16.5729,-13.7656 21.9688,-13.7656"/>
<path class="Note" transform="matrix(0.566929,0,0,0.566929,556.639,314.141)" d="M21.9688,-13.7656 C25.0938,-13.7656 27.7344,-12.9531 29.8906,-11.3281 C31.901,-9.56771 32.9063,-7.35417 32.9063,-4.6875 C32.9063,-0.197917 30.599,4 25.9844,7.90625 C21.2969,11.8125 16.2813,13.7656 10.9375,13.7656 C7.8125,13.7656 5.17708,12.9531 3.03125,11.3281 C1.01042,9.56771 0,7.35417 0,4.6875 C0,0.197917 2.34375,-4 7.03125,-7.90625 C11.5938,-11.8125 16.5729,-13.7656 21.9688,-13.7656"/>
<path class="Note" transform="matrix(0.566929,0,0,0.566929,103.637,222.015)" d="M21.9688,-13.7656 C25.0938,-13.7656 27.7344,-12.9531 29.8906,-11.3281 C31.901,-9.56771 32.9063,-7.35417 32.9063,-4.6875 C32.9063,-0.197917 30.599,4 25.9844,7.90625 C21.2969,11.8125 16.2813,13.7656 10.9375,13.7656 C7.8125,13.7656 5.17708,12.9531 3.03125,11.3281 C1.01042,9.56771 0,7.35417 0,4.6875 C0,0.197917 2.34375,-4 7.03125,-7.90625 C11.5938,-11.8125 16.5729,-13.7656 21.9688,-13.7656"/>
<path class="Note" transform="matrix(0.566929,0,0,0.566929,168.352,214.928)" d="M21.9688,-13.7656 C25.0938,-13.7656 27.7344,-12.9531 29.8906,-11.3281 C31.901,-9.56771 32.9063,-7.35417 32.9063,-4.6875 C32.9063,-0.197917 30.599,4 25.9844,7.90625 C21.2969,11.8125 16.2813,13.7656 10.9375,13.7656 C7.8125,13.7656 5.17708,12.9531 3.03125,11.3281 C1.01042,9.56771 0,7.35417 0,4.6875 C0,0.197917 2.34375,-4 7.03125,-7.90625 C11.5938,-11.8125 16.5729,-13.7656 21.9688,-13.7656"/>
<path class="Note" transform="matrix(0.566929,0,0,0.566929,233.066,207.842)" d="M21.9688,-13.7656 C25.0938,-13.7656 27.7344,-12.9531 29.8906,-11.3281 C31.901,-9.56771 32.9063,-7.35417 32.9063,-4.6875 C32.9063,-0.197917 30.599,4 25.9844,7.90625 C21.2969,11.8125 16.2813,13.7656 10.9375,13.7656 C7.8125,13.7656 5.17708,12.9531 3.03125,11.3281 C1.01042,9.56771 0,7.35417 0,4.6875 C0,0.197917 2.34375,-4 7.03125,-7.90625 C11.5938,-11.8125 16.5729,-13.7656 21.9688,-13.7656"/>
<path class="Note" transform="matrix(0.566929,0,0,0.566929,297.781,200.755)" d="M21.9688,-13.7656 C25.0938,-13.7656 27.7344,-12.9531 29.8906,-11.3281 C31.901,-9.56771 32.9063,-7.35417 32.9063,-4.6875 C32.9063,-0.197917 30.599,4 25.9844,7.90625 C21.2969,11.8125 16.2813,13.7656 10.9375,13.7656 C7.8125,13.7656 5.17708,12.9531 3.03125,11.3281 C1.01042,9.56771 0,7.35417 0,4.6875 C0,0.197917 2.34375,-4 7.03125,-7.90625 C11.5938,-11.8125 16.5729,-13.7656 21.9688,-13.7656"/>
<path class="Note" transform="matrix(0.566929,0,0,0.566929,362.495,193.668)" d="M21.9688,-13.7656 C25.0938,-13.7656 27.7344,-12.9531 29.8906,-11.3281 C31.901,-9.56771 32.9063,-7.35417 32.9063,-4.6875 C32.9063,-0.197917 30.599,4 25.9844,7.90625 C21.2969,11.8125 16.2813,13.7656 10.9375,13.7656 C7.8125,13.7656 5.17708,12.9531 3.03125,11.3281 C1.01042,9.56771 0,7.35417 0,4.6875 C0,0.197917 2.34375,-4 7.03125,-7.90625 C11.5938,-11.8125 16.5729,-13.7656 21.9688,-13.7656"/>
<path class="Note" transform="matrix(0.566929,0,0,0.566929,427.21,186.582)" d="M21.9688,-13.7656 C25.0938,-13.7656 27.7344,-12.9531 29.8906,-11.3281 C31.901,-9.56771 32.9063,-7.35417 32.9063,-4.6875 C32.9063,-0.197917 30.599,4 25.9844,7.90625 C21.2969,11.8125 16.2813,13.7656 10.9375,13.7656 C7.8125,13.7656 5.17708,12.9531 3.03125,11.3281 C1.01042,9.56771 0,7.35417 0,4.6875 C0,0.197917 2.34375,-4 7.03125,-7.90625 C11.5938,-11.8125 16.5729,-13.7656 21.9688,-13.7656"/>
<path class="Note" transform="matrix(0.566929,0,0,0.566929,491.924,179.495)" d="M21.9688,-13.7656 C25.0938,-13.7656 27.7344,-12.9531 29.8906,-11.3281 C31.901,-9.56771 32.9063,-7.35417 32.9063,-4.6875 C32.9063,-0.197917 30.599,4 25.9844,7.90625 C21.2969,11.8125 16.2813,13.7656 10.9375,13.7656 C7.8125,13.7656 5.17708,12.9531 3.03125,11.3281 C1.01042,9.56771 0,7.35417 0,4.6875 C0,0.197917 2.34375,-4 7.03125,-7.90625 C11.5938,-11.8125 16.5729,-13.7656 21.9688,-13.7656"/>
<path class="Note" transform="matrix(0.566929,0,0,0.566929,556.639,172.408)" d="M21.9688,-13.7656 C25.0938,-13.7656 27.7344,-12.9531 29.8906,-11.3281 C31.901,-9.56771 32.9063,-7.35417 32.9063,-4.6875 C32.9063,-0.197917 30.599,4 25.9844,7.90625 C21.2969,11.8125 16.2813,13.7656 10.9375,13.7656 C7.8125,13.7656 5.17708,12.9531 3.03125,11.3281 C1.01042,9.56771 0,7.35417 0,4.6875 C0,0.197917 2.34375,-4 7.03125,-7.90625 C11.5938,-11.8125 16.5729,-13.7656 21.9688,-13.7656"/>
<path class="Note" transform="matrix(0.566929,0,0,0.566929,103.637,80.2825)" d="M21.9688,-13.7656 C25.0938,-13.7656 27.7344,-12.9531 29.8906,-11.3281 C31.901,-9.56771 32.9063,-7.35417 32.9063,-4.6875 C32.9063,-0.197917 30.599,4 25.9844,7.90625 C21.2969,11.8125 16.2813,13.7656 10.9375,13.7656 C7.8125,13.7656 5.17708,12.9531 3.03125,11.3281 C1.01042,9.56771 0,7.35417 0,4.6875 C0,0.197917 2.34375,-4 7.03125,-7.90625 C11.5938,-11.8125 16.5729,-13.7656 21.9688,-13.7656"/>
<path class="Note" transform="matrix(0.566929,0,0,0.566929,168.352,73.1959)" d="M21.9688,-13.7656 C25.0938,-13.7656 27.7344,-12.9531 29.8906,-11.3281 C31.901,-9.56771 32.9063,-7.35417 32.9063,-4.6875 C32.9063,-0.197917 30.599,4 25.9844,7.90625 C21.2969,11.8125 16.2813,13.7656 10.9375,13.7656 C7.8125,13.7656 5.17708,12.9531 3.03125,11.3281 C1.01042,9.56771 0,7.35417 0,4.6875 C0,0.197917 2.34375,-4 7.03125,-7.90625 C11.5938,-11.8125 16.5729,-13.7656 21.9688,-13.7656"/>
<path class="Note" transform="matrix(0.566929,0,0,0.566929,233.066,66.1093)" d="M21.9688,-13.7656 C25.0938,-13.7656 27.7344,-12.9531 29.8906,-11.3281 C31.901,-9.56771 32.9063,-7.35417 32.9063,-4.6875 C32.9063,-0.197917 30.599,4 25.9844,7.90625 C21.2969,11.8125 16.2813,13.7656 10.9375,13.7656 C7.8125,13.7656 5.17708,12.9531 3.03125,11.3281 C1.01042,9.56771 0,7.35417 0,4.6875 C0,0.197917 2.34375,-4 7.03125,-7.90625 C11.5938,-11.8125 16.5729,-13.7656 21.9688,-13.7656"/>
<path class="Note" transform="matrix(0.566929,0,0,0.566929,297.781,59.0226)" d="M21.9688,-13.7656 C25.0938,-13.7656 27.7344,-12.9531 29.8906,-11.3281 C31.901,-9.56771 32.9063,-7.35417 32.9063,-4.6875 C32.9063,-0.197917 30.599,4 25.9844,7.90625 C21.2969,11.8125 16.2813,13.7656 10.9375,13.7656 C7.8125,13.7656 5.17708,12.9531 3.03125,11.3281 C1.01042,9.56771 0,7.35417 0,4.6875 C0,0.197917 2.34375,-4 7.03125,-7.90625 C11.5938,-11.8125 16.5729,-13.7656 21.9688,-13.7656"/>
<path class="Note" transform="matrix(0.566929,0,0,0.566929,362.495,51.936)" d="M21.9688,-13.7656 C25.0938,-13.7656 27.7344,-12.9531 29.8906,-11.3281 C31.901,-9.56771 32.9063,-7.35417 32.9063,-4.6875 C32.9063,-0.197917 30.599,4 25.9844,7.90625 C21.2969,11.8125 16.2813,13.7656 10.9375,13.7656 C7.8125,13.7656 5.17708,12.9531 3.03125,11.3281 C1.01042,9.56771 0,7.35417 0,4.6875 C0,0.197917 2.34375,-4 7.03125,-7.90625 C11.5938,-11.8125 16.5729,-13.7656 21.9688,-13.7656"/>
<path class="Note" transform="matrix(0.566929,0,0,0.566929,427.21,44.8494)" d="M21.9688,-13.7656 C25.0938,-13.7656 27.7344,-12.9531 29.8906,-11.3281 C31.901,-9.56771 32.9063,-7.35417 32.9063,-4.6875 C32.9063,-0.197917 30.599,4 25.9844,7.90625 C21.2969,11.8125 16.2813,13.7656 10.9375,13.7656 C7.8125,13.7656 5.17708,12.9531 3.03125,11.3281 C1.01042,9.56771 0,7.35417 0,4.6875 C0,0.197917 2.34375,-4 7.03125,-7.90625 C11.5938,-11.8125 16.5729,-13.7656 21.9688,-13.7656"/>
<path class="Note" transform="matrix(0.566929,0,0,0.566929,491.924,37.7628)" d="M21.9688,-13.7656 C25.0938,-13.7656 27.7344,-12.9531 29.8906,-11.3281 C31.901,-9.56771 32.9063,-7.35417 32.9063,-4.6875 C32.9063,-0.197917 30.599,4 25.9844,7.90625 C21.2969,11.8125 16.2813,13.7656 10.9375,13.7656 C7.8125,13.7656 5.17708,12.9531 3.03125,11.3281 C1.01042,9.56771 0,7.35417 0,4.6875 C0,0.197917 2.34375,-4 7.03125,-7.90625 C11.5938,-11.8125 16.5729,-13.7656 21.9688,-13.7656"/>
<path class="Note" transform="matrix(0.566929,0,0,0.566929,556.639,30.6762)" d="M21.9688,-13.7656 C25.0938,-13.7656 27.7344,-12.9531 29.8906,-11.3281 C31.901,-9.56771 32.9063,-7.35417 32.9063,-4.6875 C32.9063,-0.197917 30.599,4 25.9844,7.90625 C21.2969,11.8125 16.2813,13.7656 10.9375,13.7656 C7.8125,13.7656 5.17708,12.9531 3.03125,11.3281 C1.01042,9.56771 0,7.35417 0,4.6875 C0,0.197917 2.34375,-4 7.03125,-7.90625 C11.5938,-11.8125 16.5729,-13.7656 21.9688,-13.7656"/>
<path class="Clef" transform="matrix(0.566929,0,0,0.566929,28.5015,656.07)" d="M26.6563,42.4844 C26.6563,44.3073 25.224,45.2188 22.3594,45.2188 C20.0885,45.2188 18.1042,44.5365 16.4063,43.1719 C14.7813,41.7344 13.9688,39.9115 13.9688,37.7031 C13.9688,33.7969 16.3438,30.6719 21.0938,28.3281 C25.7188,25.9115 31.1563,24.7031 37.4063,24.7031 C39.8125,24.7031 42.3854,24.8698 45.125,25.2031 C47.1354,25.4635 49.3802,25.9844 51.8594,26.7656 C54.0677,27.474 55.7917,28.5443 57.0313,29.9766 C58.2708,31.4089 58.8906,33.0729 58.8906,34.9688 C58.8906,39.4583 56.5781,43.1354 51.9531,46 C58.724,47.2396 62.1406,50.2656 62.2031,55.0781 C62.2031,59.1198 60.3802,62.7682 56.7344,66.0234 C53.0885,69.2786 48.9583,70.9063 44.3438,70.9063 C42.3854,70.9063 40.3958,70.4479 38.375,69.5313 C36.4896,68.625 35.1563,67.7813 34.375,67 C33.5938,66.0833 33.2031,65.3958 33.2031,64.9375 C33.2031,64.2917 33.5313,63.7396 34.1875,63.2813 C34.7708,62.6979 35.3854,62.4063 36.0313,62.4063 C36.2917,62.4063 36.8464,62.8281 37.6953,63.6719 C38.5443,64.5156 39.7813,64.9375 41.4063,64.9375 C43.625,64.9375 45.776,63.9948 47.8594,62.1094 C49.8698,60.2865 50.875,58.1042 50.875,55.5625 C50.875,53.3542 49.9323,51.7604 48.0469,50.7813 C46.1615,49.8021 43.7552,49.3125 40.8281,49.3125 C40.3073,49.3125 40.0469,48.7604 40.0469,47.6563 C40.0469,46.0938 40.6302,45.3125 41.7969,45.3125 C43.6198,45.3125 45.25,44.5313 46.6875,42.9688 C48.0521,41.2813 48.7344,39.4896 48.7344,37.5938 C48.7344,37.0104 48.5729,36.1354 48.25,34.9688 C47.9896,34.1875 47.2083,33.2396 45.9063,32.125 C44.6667,31.0833 42.9375,30.3698 40.7188,29.9844 C40.1354,33.1719 39.4036,37.2396 38.5234,42.1875 C37.6432,47.1354 37.0417,50.3906 36.7188,51.9531 C35.6146,57.5573 33.599,62.276 30.6719,66.1094 C27.6094,70.151 24.3177,72.1719 20.7969,72.1719 C19.6927,72.1719 18.5573,71.9115 17.3906,71.3906 C16.474,70.9948 15.3021,70.1823 13.875,68.9531 C12.5729,67.9115 11.6927,67.224 11.2344,66.8906 C10.974,66.7031 10.8438,66.4115 10.8438,66.0156 C10.8438,65.3698 11.0729,64.7865 11.5313,64.2656 C12.0521,63.6719 12.6042,63.375 13.1875,63.375 C13.5729,63.375 14.4818,63.9948 15.9141,65.2344 C17.3464,66.474 18.8438,67.0938 20.4063,67.0938 C23.4063,67.0938 25.6563,65.1719 27.1563,61.3281 C28.5833,57.6198 29.2969,53.0313 29.2969,47.5625 L29.2969,46.7813 C29.2969,43.1354 29.8854,37.6979 31.0625,30.4688 C28.9792,31.125 27.3177,32.1042 26.0781,33.4063 C24.776,34.7083 24.125,36.0729 24.125,37.5 C24.125,38.6042 24.5469,39.5469 25.3906,40.3281 C26.2344,41.1094 26.6563,41.8281 26.6563,42.4844 M7.03125,11.9219 C7.35417,11.9219 8.13542,12.2448 9.375,12.8906 C10.6771,13.5469 11.7865,13.875 12.7031,13.875 C15.1719,13.875 18.1979,12.0833 21.7813,8.5 C32.1354,-2.05208 39.2656,-13.25 43.1719,-25.0938 C43.9531,-27.5729 45.8698,-28.8125 48.9219,-28.8125 C50.4844,-28.8125 51.8229,-28.4844 52.9375,-27.8281 C54.0417,-27.1198 54.5938,-26.4063 54.5938,-25.6875 L52.8281,10.8438 C52.8281,12.7917 53.5156,13.7656 54.8906,13.7656 C55.599,13.7656 56.6406,13.4427 58.0156,12.7969 C59.3177,12.1406 60.099,11.8125 60.3594,11.8125 C60.8802,11.8125 61.2031,12.3698 61.3281,13.4844 C61.3281,14.526 60.9063,15.1771 60.0625,15.4375 C59.4063,15.625 58.1042,16.2396 56.1563,17.2813 C54.1354,18.3229 52.5417,18.8438 51.375,18.8438 C48.8958,18.8438 47.1354,16.8906 46.0938,12.9844 C44.4688,6.86979 43.4271,0.520833 42.9688,-6.0625 C40.3646,-2.73958 37.4688,0.614583 34.2813,4 C35.4479,6.21875 37.5938,7.32813 40.7188,7.32813 C41.1771,7.32813 41.5365,7.29688 41.7969,7.23438 L41.8906,7.23438 C42.4115,7.23438 42.6719,7.71875 42.6719,8.6875 C42.6719,9.92708 42.25,10.6771 41.4063,10.9375 C40.0417,11.3958 38.6094,11.625 37.1094,11.625 C33.8594,11.625 31.5156,10.5156 30.0781,8.29688 L26.1719,11.8125 C20.7031,16.5 16.2448,18.8438 12.7969,18.8438 C11.8802,18.8438 10.9375,18.6823 9.96875,18.3594 C9.1875,18.0365 8.27604,17.5469 7.23438,16.8906 C6.83854,16.7031 6.39583,16.4609 5.90625,16.1641 C5.41667,15.8672 5.10938,15.6875 4.98438,15.625 C4.66146,15.5 4.5,15.2083 4.5,14.75 C4.5,14.2292 4.76042,13.6094 5.28125,12.8906 C5.72917,12.2448 6.3125,11.9219 7.03125,11.9219 M28.8125,-54 C28.8125,-52.375 27.4115,-51.5625 24.6094,-51.5625 C22.1406,-51.5625 19.9948,-52.375 18.1719,-54 C16.4115,-55.6354 15.5313,-57.625 15.5313,-59.9688 C15.5313,-62.2396 16.2448,-64.1927 17.6719,-65.8281 C19.1719,-67.5156 21.0938,-68.7813 23.4375,-69.625 C25.5833,-70.4063 27.9948,-71.026 30.6719,-71.4844 C33.4635,-71.8073 36.1302,-71.9688 38.6719,-71.9688 C40.1719,-71.9688 42.974,-71.2865 47.0781,-69.9219 C51.2448,-68.5573 54.1406,-67.875 55.7656,-67.875 C57.7865,-67.875 59.7083,-68.2344 61.5313,-68.9531 C63.0208,-69.599 64.4531,-70.3438 65.8281,-71.1875 C66.9323,-71.9063 67.5469,-72.2656 67.6719,-72.2656 C68.2656,-72.2656 68.7865,-72.0729 69.2344,-71.6875 C69.7552,-71.1667 70.0156,-70.7396 70.0156,-70.4063 C70.0156,-69.9583 69.401,-69.2135 68.1719,-68.1719 C66.8698,-66.9948 65.013,-65.8203 62.6016,-64.6484 C60.1901,-63.4766 57.651,-62.8906 54.9844,-62.8906 C53.8073,-62.8906 52.3438,-63.0885 50.5938,-63.4844 C49.4792,-56.2552 48.3073,-49.8385 47.0781,-44.2344 C46.0365,-39.2865 43.9531,-34.9583 40.8281,-31.25 C37.8281,-27.5417 34.474,-25.6875 30.7656,-25.6875 C29.2656,-25.6875 27.9323,-25.9792 26.7656,-26.5625 C25.4635,-27.2188 24.0938,-28.1979 22.6563,-29.5 C21.4896,-30.4688 20.3854,-31.3438 19.3438,-32.125 C19.0833,-32.3229 18.9531,-32.6198 18.9531,-33.0156 C18.9531,-33.4635 19.2135,-34.0469 19.7344,-34.7656 C20.2552,-35.349 20.7396,-35.6406 21.1875,-35.6406 C21.5833,-35.6406 22.6927,-34.8281 24.5156,-33.2031 C26.3385,-31.5781 27.9635,-30.7656 29.3906,-30.7656 C31.9948,-30.7656 34.0156,-32.2604 35.4531,-35.25 C36.8802,-38.1875 37.6927,-41.7031 37.8906,-45.7969 C38.2135,-52.5052 38.9635,-59.4427 40.1406,-66.6094 C38.7031,-66.9323 37.6302,-67.0938 36.9219,-67.0938 C33.7969,-67.0938 31.125,-66.4427 28.9063,-65.1406 C26.6979,-63.901 25.5938,-62.2083 25.5938,-60.0625 C25.5938,-58.5 26.1146,-57.2969 27.1563,-56.4531 C28.2604,-55.5365 28.8125,-54.7188 28.8125,-54"/>
<path class="Clef" transform="matrix(0.566929,0,0,0.566929,28.5015,478.905)" d="M21.2969,33.9844 C21.2969,35.4219 20.1875,36.1406 17.9688,36.1406 C16.1458,36.1406 14.5833,35.5833 13.2813,34.4688 C11.9167,33.3646 11.2344,31.9323 11.2344,30.1719 C11.2344,26.9844 13.0885,24.4792 16.7969,22.6563 C20.7031,20.7708 25.0677,19.8281 29.8906,19.8281 C34.5052,19.8281 38.6042,20.4479 42.1875,21.6875 C45.5104,23.0521 47.1719,25.1667 47.1719,28.0313 C47.1719,31.5417 45.3177,34.4688 41.6094,36.8125 C47.0781,37.9271 49.8125,40.3698 49.8125,44.1406 C49.8125,47.2656 48.3438,50.1615 45.4063,52.8281 C42.5417,55.4323 39.1927,56.7344 35.3594,56.7344 C33.7969,56.7344 32.2344,56.3802 30.6719,55.6719 C29.2344,55.0156 28.1927,54.2969 27.5469,53.5156 C26.8906,52.9323 26.5625,52.3802 26.5625,51.8594 C26.5625,51.3385 26.8229,50.9167 27.3438,50.5938 C27.8021,50.1354 28.2917,49.9063 28.8125,49.9063 C29.0729,49.9063 29.5599,50.2318 30.2734,50.8828 C30.987,51.5339 31.9635,51.8594 33.2031,51.8594 C35.0885,51.8594 36.849,51.1406 38.4844,49.7031 C40.0469,48.2135 40.8281,46.4896 40.8281,44.5313 C40.8281,42.8438 40.0469,41.5417 38.4844,40.625 C36.9844,39.7813 35.0625,39.3594 32.7188,39.3594 C32.2604,39.3594 32.0313,38.9688 32.0313,38.1875 C32.0313,36.8854 32.5208,36.2344 33.5,36.2344 C34.9271,36.2344 36.1979,35.6146 37.3125,34.375 C38.4167,32.9479 38.9688,31.4844 38.9688,29.9844 C38.9688,26.7969 36.8542,24.8125 32.625,24.0313 L29.3906,41.6094 C28.5469,45.9635 26.9531,49.7396 24.6094,52.9375 C22.2031,56.125 19.5677,57.7188 16.7031,57.7188 C15.724,57.7188 14.8125,57.5208 13.9688,57.125 C13.1875,56.8021 12.2083,56.151 11.0313,55.1719 C9.72917,54.1302 9.04688,53.5781 8.98438,53.5156 C8.72396,53.2552 8.59375,53.026 8.59375,52.8281 C8.59375,52.4427 8.79167,51.9583 9.1875,51.375 C9.63542,50.9167 10.0885,50.6875 10.5469,50.6875 C10.7448,50.6875 11.526,51.1771 12.8906,52.1563 C13.9948,53.1979 15.1667,53.7188 16.4063,53.7188 C18.8125,53.7188 20.6042,52.2188 21.7813,49.2188 C22.9479,46.0938 23.5313,42.3854 23.5313,38.0938 L23.5313,37.4063 C23.5313,34.7396 23.9896,30.4115 24.9063,24.4219 C23.2083,25.0052 21.875,25.7865 20.9063,26.7656 C19.8646,27.8073 19.3438,28.8802 19.3438,29.9844 C19.3438,30.8906 19.6667,31.6406 20.3125,32.2344 C20.9688,32.8802 21.2969,33.4635 21.2969,33.9844 M5.5625,9.46875 C5.82292,9.46875 6.47396,9.76563 7.51563,10.3594 C8.69271,10.8802 9.57292,11.1406 10.1563,11.1406 C13.0208,11.1406 17.1875,7.75521 22.6563,0.984375 C28.0625,-5.66146 32,-12.6979 34.4688,-20.125 C35.0625,-22.0729 36.5938,-23.0469 39.0625,-23.0469 C40.3021,-23.0469 41.3438,-22.7865 42.1875,-22.2656 C43.1042,-21.8802 43.5625,-21.3281 43.5625,-20.6094 L42.1875,8.59375 C42.1875,10.2917 42.776,11.1406 43.9531,11.1406 C44.3385,11.1406 45.151,10.8802 46.3906,10.3594 C47.5573,9.76563 48.2083,9.46875 48.3438,9.46875 C48.8021,9.46875 49.0313,9.92708 49.0313,10.8438 C49.0313,11.625 48.7344,12.1146 48.1406,12.3125 C47.4323,12.6354 46.3594,13.1563 44.9219,13.875 C43.2969,14.7188 42.026,15.1406 41.1094,15.1406 C40.1406,15.1406 39.2292,14.7188 38.375,13.875 C37.5313,12.8333 36.7865,10.8125 36.1406,7.8125 C35.3594,4.82292 34.7708,0.588542 34.375,-4.89063 C32.3542,-2.21354 30.0781,0.489583 27.5469,3.21875 C28.5156,4.91667 30.5,5.76563 33.5,5.76563 C33.8854,5.76563 34.0781,6.1875 34.0781,7.03125 C34.0781,8.53125 32.5833,9.28125 29.5938,9.28125 C27.0521,9.28125 25.2292,8.40104 24.125,6.64063 L21,9.375 C16.7708,13.0208 13.1563,14.9115 10.1563,15.0469 C9.11458,15.0469 7.75,14.5885 6.0625,13.6719 C4.42708,12.8281 3.60938,12.2083 3.60938,11.8125 C3.60938,11.3646 3.80729,10.8802 4.20313,10.3594 C4.58854,9.76563 5.04167,9.46875 5.5625,9.46875 M23.0469,-43.1719 C23.0469,-41.9323 21.9427,-41.3125 19.7344,-41.3125 C17.776,-41.3125 16.0469,-41.9635 14.5469,-43.2656 C13.1198,-44.5052 12.4063,-46.099 12.4063,-48.0469 C12.4063,-49.8698 12.9583,-51.4323 14.0625,-52.7344 C15.3646,-54.1719 16.9271,-55.151 18.75,-55.6719 C20.0521,-56.1927 22.0052,-56.7135 24.6094,-57.2344 C27.349,-57.4948 29.4635,-57.625 30.9531,-57.625 C32.0677,-57.625 34.2839,-57.0703 37.6016,-55.9609 C40.9193,-54.8516 43.2604,-54.2969 44.625,-54.2969 C46.2604,-54.2969 47.7917,-54.5573 49.2188,-55.0781 C50.5833,-55.6615 51.6927,-56.25 52.5469,-56.8438 C53.3906,-57.4896 53.9115,-57.8125 54.1094,-57.8125 C54.4948,-57.8125 54.9167,-57.651 55.375,-57.3281 C55.7604,-57.0052 55.9531,-56.6771 55.9531,-56.3438 C55.9531,-56.0833 55.4688,-55.4688 54.5,-54.5 C53.3229,-53.4583 51.8229,-52.5469 50,-51.7656 C48.0521,-50.7865 46.0677,-50.2969 44.0469,-50.2969 C43.0052,-50.2969 41.8333,-50.4583 40.5313,-50.7813 C39.6146,-44.4063 38.6719,-39.2292 37.7031,-35.25 C36.849,-31.2813 35.1875,-27.8333 32.7188,-24.9063 C30.3125,-21.9792 27.6406,-20.5156 24.7031,-20.5156 C23.401,-20.5156 22.3281,-20.776 21.4844,-21.2969 C20.3802,-21.8177 19.276,-22.5625 18.1719,-23.5313 C17.1302,-24.5104 16.25,-25.2292 15.5313,-25.6875 C15.2708,-25.9479 15.1406,-26.1771 15.1406,-26.375 C15.1406,-26.8229 15.3021,-27.276 15.625,-27.7344 C15.9479,-28.2552 16.3698,-28.5156 16.8906,-28.5156 C17.151,-28.5156 18.0313,-27.8646 19.5313,-26.5625 C21.0313,-25.2604 22.3646,-24.6094 23.5313,-24.6094 C25.0938,-24.6094 26.3021,-25.1302 27.1563,-26.1719 C28.0625,-27.2135 28.776,-28.776 29.2969,-30.8594 C29.7552,-32.7448 30.0833,-34.8594 30.2813,-37.2031 C30.5417,-39.1615 30.8333,-41.8333 31.1563,-45.2188 C31.3542,-47.1042 31.6771,-49.8073 32.125,-53.3281 C31.0208,-53.5885 30.1458,-53.7188 29.5,-53.7188 C27.1563,-53.7188 25.0365,-53.1979 23.1406,-52.1563 C21.3906,-50.9792 20.5156,-49.6406 20.5156,-48.1406 C20.5156,-47.0365 20.9375,-46.0625 21.7813,-45.2188 C22.625,-44.375 23.0469,-43.6927 23.0469,-43.1719"/>
<path class="Clef" transform="matrix(0.566929,0,0,0.566929,28.5015,321.227)" d="M57.1328,-8.89063 C56.1589,-9.86979 55.6719,-11.0755 55.6719,-12.5078 C55.6719,-13.9401 56.1589,-15.1432 57.1328,-16.1172 C58.1068,-17.0911 59.3099,-17.5781 60.7422,-17.5781 C62.1745,-17.5781 63.3802,-17.0911 64.3594,-16.1172 C65.3385,-15.1432 65.8281,-13.9401 65.8281,-12.5078 C65.8281,-11.0755 65.3385,-9.86979 64.3594,-8.89063 C63.3802,-7.91146 62.1745,-7.42188 60.7422,-7.42188 C59.3099,-7.42188 58.1068,-7.91146 57.1328,-8.89063 M57.1328,16.1172 C56.1589,15.1432 55.6719,13.9401 55.6719,12.5078 C55.6719,11.0755 56.1589,9.86979 57.1328,8.89063 C58.1068,7.91146 59.3099,7.42188 60.7422,7.42188 C62.1745,7.42188 63.3802,7.91146 64.3594,8.89063 C65.3385,9.86979 65.8281,11.0755 65.8281,12.5078 C65.8281,13.9401 65.3385,15.1432 64.3594,16.1172 C63.3802,17.0911 62.1745,17.5781 60.7422,17.5781 C59.3099,17.5781 58.1068,17.0911 57.1328,16.1172 M23.25,-26.2656 C31.9063,-26.2656 39,-24.0885 44.5313,-19.7344 C49.875,-15.1719 52.5469,-8.98438 52.5469,-1.17188 C52.5469,4.09896 51.5052,8.91667 49.4219,13.2813 C47.4635,17.8438 44.8906,21.8802 41.7031,25.3906 C38.4427,28.974 34.5052,32.3594 29.8906,35.5469 C25.3906,38.6719 20.7656,41.474 16.0156,43.9531 C6.31771,48.8281 0.979167,51.2656 0,51.2656 C-0.84375,51.2656 -1.26563,50.8438 -1.26563,50 C-1.26563,49.6771 -1.13542,49.3854 -0.875,49.125 C2.44792,47.1667 6.51563,44.6615 11.3281,41.6094 C14.4531,39.5885 18.099,36.7865 22.2656,33.2031 C26.3073,29.8177 29.4323,26.6302 31.6406,23.6406 C33.9219,20.7031 36.0052,17.0573 37.8906,12.7031 C39.5156,8.33854 40.3281,4.03646 40.3281,-0.203125 C40.3281,-6.51563 38.7656,-12.0156 35.6406,-16.7031 C32.5156,-21.3906 28.3854,-23.7344 23.25,-23.7344 C19.6042,-23.7344 16.4792,-22.5625 13.875,-20.2188 C11.0729,-17.8125 9.05208,-14.7865 7.8125,-11.1406 C9.05208,-11.6615 10.1927,-11.9219 11.2344,-11.9219 C13.9635,-11.9219 16.3073,-10.9427 18.2656,-8.98438 C20.2135,-6.90104 21.1875,-4.52604 21.1875,-1.85938 C21.1875,0.942708 20.2448,3.45313 18.3594,5.67188 C16.3385,7.68229 13.9635,8.6875 11.2344,8.6875 C8.30729,8.6875 5.67188,7.68229 3.32813,5.67188 C1.10938,3.45313 0,0.942708 0,-1.85938 C0,-8.56771 2.28125,-14.2969 6.84375,-19.0469 C11.3333,-23.8594 16.8021,-26.2656 23.25,-26.2656"/>
<path class="Clef" transform="matrix(0.566929,0,0,0.566929,28.5015,200.755)" d="M36.3281,-7.32813 C33.3385,-7.32813 31.8438,-4.88542 31.8438,0 C31.8438,4.88542 33.3385,7.32813 36.3281,7.32813 C37.3073,7.32813 38.7396,6.80729 40.625,5.76563 C42.4479,4.72396 43.9479,4.20313 45.125,4.20313 C51.3021,4.20313 56.6719,6.1875 61.2344,10.1563 C65.724,14.2604 67.9688,19.2083 67.9688,25 C67.9688,41.6667 59.1458,50 41.5,50 C37.2708,50 33.6615,48.6354 30.6719,45.9063 C27.7344,43.1667 26.2656,39.8125 26.2656,35.8438 C26.2656,33.6979 27.0156,31.875 28.5156,30.375 C30.0156,28.875 31.8073,28.125 33.8906,28.125 C35.974,28.125 37.763,28.875 39.2578,30.375 C40.7526,31.875 41.5,33.6979 41.5,35.8438 C41.5,37.1458 40.6875,38.4167 39.0625,39.6563 C37.4375,40.8229 36.625,42.0573 36.625,43.3594 C36.625,44.5365 37.1146,45.4479 38.0938,46.0938 C39,46.8125 40.1354,47.1719 41.5,47.1719 C46.9063,47.1719 50.5859,45.3151 52.5391,41.6016 C54.4922,37.888 55.4688,32.3542 55.4688,25 C55.4688,19.3333 54.8854,15.0365 53.7188,12.1094 C52.4792,8.72396 49.6146,7.03125 45.125,7.03125 C41.7396,7.03125 38.875,8.49479 36.5313,11.4219 C34.3125,14.4219 33.2031,17.9063 33.2031,21.875 C33.2031,22.8542 32.7474,23.3438 31.8359,23.3438 C30.9245,23.3438 30.4688,22.8542 30.4688,21.875 C30.4688,14.125 27.6719,7.45313 22.0781,1.85938 L22.0781,49.0313 C22.0781,49.6771 21.75,50 21.0938,50 L19.0469,50 C18.3281,50 17.9688,49.6771 17.9688,49.0313 L17.9688,-49.0313 C17.9688,-49.6771 18.3281,-50 19.0469,-50 L21.0938,-50 C21.75,-50 22.0781,-49.6771 22.0781,-49.0313 L22.0781,-1.85938 C27.6719,-7.45313 30.4688,-14.125 30.4688,-21.875 C30.4688,-22.8542 30.9245,-23.3438 31.8359,-23.3438 C32.7474,-23.3438 33.2031,-22.8542 33.2031,-21.875 C33.2031,-17.9063 34.3125,-14.4219 36.5313,-11.4219 C38.875,-8.49479 41.7396,-7.03125 45.125,-7.03125 C49.6146,-7.03125 52.4792,-8.72396 53.7188,-12.1094 C54.8854,-15.0365 55.4688,-19.3333 55.4688,-25 C55.4688,-32.3542 54.4922,-37.888 52.5391,-41.6016 C50.5859,-45.3151 46.9063,-47.1719 41.5,-47.1719 C40.1354,-47.1719 39,-46.8125 38.0938,-46.0938 C37.1146,-45.5104 36.625,-44.599 36.625,-43.3594 C36.625,-42.0573 37.4375,-40.8229 39.0625,-39.6563 C40.6875,-38.4167 41.5,-37.1458 41.5,-35.8438 C41.5,-33.6979 40.7526,-31.875 39.2578,-30.375 C37.763,-28.875 35.974,-28.125 33.8906,-28.125 C31.8073,-28.125 30.0156,-28.875 28.5156,-30.375 C27.0156,-31.875 26.2656,-33.6979 26.2656,-35.8438 C26.2656,-39.8125 27.7344,-43.1667 30.6719,-45.9063 C33.6615,-48.6354 37.2708,-50 41.5,-50 C59.1458,-50 67.9688,-41.6667 67.9688,-25 C67.9688,-19.2083 65.724,-14.2604 61.2344,-10.1563 C56.6719,-6.1875 51.3021,-4.20313 45.125,-4.20313 C44.0104,-4.20313 42.5104,-4.72396 40.625,-5.76563 C38.7396,-6.80729 37.3073,-7.32813 36.3281,-7.32813 M12.8906,50 L0.984375,50 C0.328125,50 0,49.6771 0,49.0313 L0,-49.0313 C0,-49.6771 0.328125,-50 0.984375,-50 L12.8906,-50 C13.5469,-50 13.875,-49.6771 13.875,-49.0313 L13.875,49.0313 C13.875,49.6771 13.5469,50 12.8906,50"/>
<path class="Clef" transform="matrix(0.566929,0,0,0.566929,28.5015,80.2825)" d="M36.7188,-25.5938 C36.7188,-25.5938 36.9167,-25.5938 37.3125,-25.5938 C37.5729,-25.6563 37.7969,-25.6875 37.9844,-25.6875 C45.276,-25.6875 51.2656,-23.1146 55.9531,-17.9688 C60.6406,-12.8958 62.9844,-6.97396 62.9844,-0.203125 C62.9844,8.20313 59.5052,15.0417 52.5469,20.3125 C50.724,21.75 48.3438,22.9219 45.4063,23.8281 C45.7396,28.0573 45.9063,31.474 45.9063,34.0781 C45.9063,34.599 45.8385,36.4896 45.7031,39.75 C45.4427,45.8021 43.3594,51.0417 39.4531,55.4688 C35.6823,59.8333 30.9948,62.0156 25.3906,62.0156 C20.1198,62.0156 15.6302,60.1615 11.9219,56.4531 C8.20313,52.6719 6.34375,48.1146 6.34375,42.7813 C6.34375,39.9792 7.42188,37.599 9.57813,35.6406 C11.7865,33.6927 14.3542,32.7188 17.2813,32.7188 C19.8854,32.7188 22.0677,33.7292 23.8281,35.75 C25.651,37.6354 26.5625,39.9792 26.5625,42.7813 C26.5625,45.3125 25.651,47.4896 23.8281,49.3125 C22.0052,51.1354 19.8229,52.0469 17.2813,52.0469 C16.2396,52.0469 15.2344,51.8542 14.2656,51.4688 C17.1302,55.6979 20.9375,57.8125 25.6875,57.8125 C30.1771,57.8125 33.8542,55.9896 36.7188,52.3438 C39.7188,48.5729 41.349,44.1771 41.6094,39.1563 C41.7344,36.0313 41.7969,34.2448 41.7969,33.7969 C41.7969,30.151 41.6667,27.1563 41.4063,24.8125 C38.1563,25.3333 35.2604,25.5938 32.7188,25.5938 C23.6667,25.5938 15.9531,22.0104 9.57813,14.8438 C3.32813,7.61458 0.203125,-0.979167 0.203125,-10.9375 C0.203125,-13.0208 0.395833,-15.1354 0.78125,-17.2813 C1.17708,-19.0417 1.66667,-20.9635 2.25,-23.0469 C2.57292,-24.224 3.45313,-26.1146 4.89063,-28.7188 C5.41146,-29.5 5.9974,-30.4766 6.64844,-31.6484 C7.29948,-32.8203 7.75521,-33.599 8.01563,-33.9844 C8.66146,-35.2865 9.92708,-37.0469 11.8125,-39.2656 C12.3333,-39.849 12.8724,-40.4974 13.4297,-41.2109 C13.987,-41.9245 14.4609,-42.5104 14.8516,-42.9688 C15.2422,-43.4271 15.5339,-43.7865 15.7266,-44.0469 C15.9193,-44.3073 17.3854,-46.0313 20.125,-49.2188 C20.7708,-49.875 21.4036,-50.5755 22.0234,-51.3203 C22.6432,-52.0651 23.1484,-52.651 23.5391,-53.0781 C23.9297,-53.5052 24.224,-53.8125 24.4219,-54 C22.0781,-61.75 20.6094,-67.9375 20.0156,-72.5625 C19.5677,-76.2708 19.3438,-81.349 19.3438,-87.7969 C19.3438,-93.4635 20.6458,-98.7708 23.25,-103.719 C25.7813,-108.854 29.3281,-113.052 33.8906,-116.313 C34.151,-116.51 34.474,-116.609 34.8594,-116.609 C35.3177,-116.609 35.6458,-116.51 35.8438,-116.313 C39.3542,-112.083 42.3802,-106.583 44.9219,-99.8125 C47.526,-93.0417 48.8281,-86.8854 48.8281,-81.3438 C48.8281,-75.0938 47.3333,-69.2344 44.3438,-63.7656 C40.9583,-57.974 36.5938,-51.9844 31.25,-45.7969 C32.6146,-41.5052 34.4375,-34.7708 36.7188,-25.5938 M45.0156,19.8281 C48.401,18.5885 51.0417,16.474 52.9375,13.4844 C55.0208,10.6198 56.0625,7.39583 56.0625,3.8125 C56.0625,-0.8125 54.5,-4.91667 51.375,-8.5 C48.1771,-12.2083 44.1042,-14.2917 39.1563,-14.75 C41.9583,-1.01042 43.9115,10.5156 45.0156,19.8281 M7.23438,-2.73438 C7.23438,3.71354 9.83854,9.38021 15.0469,14.2656 C20.3802,19.0156 26.3698,21.3906 33.0156,21.3906 C35.7448,21.3906 38.4115,21.1927 41.0156,20.7969 C39.974,10.901 37.9219,-0.947917 34.8594,-14.75 C31.151,-14.3542 28.1927,-13.0521 25.9844,-10.8438 C23.8281,-8.5625 22.75,-5.98958 22.75,-3.125 C22.75,1.82292 25.3906,5.82813 30.6719,8.89063 C31.1198,9.34896 31.3438,9.83854 31.3438,10.3594 C31.3438,10.8802 31.1198,11.3646 30.6719,11.8125 C30.276,12.2708 29.7865,12.5 29.2031,12.5 C29.1406,12.5 28.849,12.4375 28.3281,12.3125 C24.6094,10.2917 21.7448,7.6875 19.7344,4.5 C17.8385,1.10417 16.8906,-2.31771 16.8906,-5.76563 C16.8906,-10.2552 18.2917,-14.3229 21.0938,-17.9688 C24.0208,-21.6146 27.8281,-23.9583 32.5156,-25 C30.6927,-32.2917 29.1979,-37.9896 28.0313,-42.0938 C26.9896,-40.9167 25.737,-39.5 24.2734,-37.8438 C22.8099,-36.1875 21.9479,-35.1927 21.6875,-34.8594 C19.3438,-31.8073 17.5521,-29.4323 16.3125,-27.7344 C14.0938,-24.6719 12.4635,-22.0365 11.4219,-19.8281 C10.3177,-17.349 9.34375,-14.6458 8.5,-11.7188 C7.65625,-8.91667 7.23438,-5.92188 7.23438,-2.73438 M39.8438,-102.047 C34.9583,-99.6406 31.1198,-96.1927 28.3281,-91.7031 C25.4635,-87.0781 24.0313,-82.099 24.0313,-76.7656 C24.0313,-72.0781 25.2031,-65.7604 27.5469,-57.8125 C32.2344,-63.4792 35.75,-68.7188 38.0938,-73.5313 C40.5625,-78.6146 41.7969,-83.9219 41.7969,-89.4531 C41.7969,-93.6198 41.1458,-97.8177 39.8438,-102.047"/>
</svg>
