<?xml version="1.0" encoding="UTF-8" standalone="no"?>
<svg width="637.794px" height="765.353px" viewBox="0 0 637.794 765.353"
 xmlns="http://www.w3.org/2000/svg" xmlns:xlink="http://www.w3.org/1999/xlink" version="1.2" baseProfile="tiny">
<title>harmonicminor (1)</title>
<desc>Generated by MuseScore 3.4.2</desc>
<polyline class="StaffLines" fill="none" stroke="#000000" stroke-width="1.13" stroke-linejoin="bevel" points="14.1732,65.5197 623.621,65.5197"/>
<polyline class="StaffLines" fill="none" stroke="#000000" stroke-width="1.13" stroke-linejoin="bevel" points="14.1732,79.6929 623.621,79.6929"/>
<polyline class="StaffLines" fill="none" stroke="#000000" stroke-width="1.13" stroke-linejoin="bevel" points="14.1732,93.8661 623.621,93.8661"/>
<polyline class="StaffLines" fill="none" stroke="#000000" stroke-width="1.13" stroke-linejoin="bevel" points="14.1732,108.039 623.621,108.039"/>
<polyline class="StaffLines" fill="none" stroke="#000000" stroke-width="1.13" stroke-linejoin="bevel" points="14.1732,122.213 623.621,122.213"/>
<polyline class="StaffLines" fill="none" stroke="#000000" stroke-width="1.13" stroke-linejoin="bevel" points="14.1732,200.165 623.621,200.165"/>
<polyline class="StaffLines" fill="none" stroke="#000000" stroke-width="1.13" stroke-linejoin="bevel" points="14.1732,214.339 623.621,214.339"/>
<polyline class="StaffLines" fill="none" stroke="#000000" stroke-width="1.13" stroke-linejoin="bevel" points="14.1732,228.512 623.621,228.512"/>
<polyline class="StaffLines" fill="none" stroke="#000000" stroke-width="1.13" stroke-linejoin="bevel" points="14.1732,242.685 623.621,242.685"/>
<polyline class="StaffLines" fill="none" stroke="#000000" stroke-width="1.13" stroke-linejoin="bevel" points="14.1732,256.858 623.621,256.858"/>
<polyline class="StaffLines" fill="none" stroke="#000000" stroke-width="1.13" stroke-linejoin="bevel" points="14.1732,334.811 623.621,334.811"/>
<polyline class="StaffLines" fill="none" stroke="#000000" stroke-width="1.13" stroke-linejoin="bevel" points="14.1732,348.984 623.621,348.984"/>
<polyline class="StaffLines" fill="none" stroke="#000000" stroke-width="1.13" stroke-linejoin="bevel" points="14.1732,363.157 623.621,363.157"/>
<polyline class="StaffLines" fill="none" stroke="#000000" stroke-width="1.13" stroke-linejoin="bevel" points="14.1732,377.331 623.621,377.331"/>
<polyline class="StaffLines" fill="none" stroke="#000000" stroke-width="1.13" stroke-linejoin="bevel" points="14.1732,391.504 623.621,391.504"/>
<polyline class="StaffLines" fill="none" stroke="#000000" stroke-width="1.13" stroke-linejoin="bevel" points="14.1732,469.457 623.621,469.457"/>
<polyline class="StaffLines" fill="none" stroke="#000000" stroke-width="1.13" stroke-linejoin="bevel" points="14.1732,494.26 623.621,494.26"/>
<polyline class="StaffLines" fill="none" stroke="#000000" stroke-width="1.13" stroke-linejoin="bevel" points="14.1732,519.063 623.621,519.063"/>
<polyline class="StaffLines" fill="none" stroke="#000000" stroke-width="1.13" stroke-linejoin="bevel" points="14.1732,543.866 623.621,543.866"/>
<polyline class="StaffLines" fill="none" stroke="#000000" stroke-width="1.13" stroke-linejoin="bevel" points="14.1732,621.819 623.621,621.819"/>
<polyline class="StaffLines" fill="none" stroke="#000000" stroke-width="1.13" stroke-linejoin="bevel" points="14.1732,646.622 623.621,646.622"/>
<polyline class="StaffLines" fill="none" stroke="#000000" stroke-width="1.13" stroke-linejoin="bevel" points="14.1732,671.425 623.621,671.425"/>
<polyline class="StaffLines" fill="none" stroke="#000000" stroke-width="1.13" stroke-linejoin="bevel" points="14.1732,696.228 623.621,696.228"/>
<polyline class="StaffLines" fill="none" stroke="#000000" stroke-width="1.13" stroke-linejoin="bevel" points="14.1732,721.032 623.621,721.032"/>
<polyline class="StaffLines" fill="none" stroke="#000000" stroke-width="1.13" stroke-linejoin="bevel" points="14.1732,745.835 623.621,745.835"/>
<path class="Clef" transform="matrix(0.566929,0,0,0.566929,28.5015,683.827)" d="M26.6563,42.4844 C26.6563,44.3073 25.224,45.2188 22.3594,45.2188 C20.0885,45.2188 18.1042,44.5365 16.4063,43.1719 C14.7813,41.7344 13.9688,39.9115 13.9688,37.7031 C13.9688,33.7969 16.3438,30.6719 21.0938,28.3281 C25.7188,25.9115 31.1563,24.7031 37.4063,24.7031 C39.8125,24.7031 42.3854,24.8698 45.125,25.2031 C47.1354,25.4635 49.3802,25.9844 51.8594,26.7656 C54.0677,27.474 55.7917,28.5443 57.0313,29.9766 C58.2708,31.4089 58.8906,33.0729 58.8906,34.9688 C58.8906,39.4583 56.5781,43.1354 51.9531,46 C58.724,47.2396 62.1406,50.2656 62.2031,55.0781 C62.2031,59.1198 60.3802,62.7682 56.7344,66.0234 C53.0885,69.2786 48.9583,70.9063 44.3438,70.9063 C42.3854,70.9063 40.3958,70.4479 38.375,69.5313 C36.4896,68.625 35.1563,67.7813 34.375,67 C33.5938,66.0833 33.2031,65.3958 33.2031,64.9375 C33.2031,64.2917 33.5313,63.7396 34.1875,63.2813 C34.7708,62.6979 35.3854,62.4063 36.0313,62.4063 C36.2917,62.4063 36.8464,62.8281 37.6953,63.6719 C38.5443,64.5156 39.7813,64.9375 41.4063,64.9375 C43.625,64.9375 45.776,63.9948 47.8594,62.1094 C49.8698,60.2865 50.875,58.1042 50.875,55.5625 C50.875,53.3542 49.9323,51.7604 48.0469,50.7813 C46.1615,49.8021 43.7552,49.3125 40.8281,49.3125 C40.3073,49.3125 40.0469,48.7604 40.0469,47.6563 C40.0469,46.0938 40.6302,45.3125 41.7969,45.3125 C43.6198,45.3125 45.25,44.5313 46.6875,42.9688 C48.0521,41.2813 48.7344,39.4896 48.7344,37.5938 C48.7344,37.0104 48.5729,36.1354 48.25,34.9688 C47.9896,34.1875 47.2083,33.2396 45.9063,32.125 C44.6667,31.0833 42.9375,30.3698 40.7188,29.9844 C40.1354,33.1719 39.4036,37.2396 38.5234,42.1875 C37.6432,47.1354 37.0417,50.3906 36.7188,51.9531 C35.6146,57.5573 33.599,62.276 30.6719,66.1094 C27.6094,70.151 24.3177,72.1719 20.7969,72.1719 C19.6927,72.1719 18.5573,71.9115 17.3906,71.3906 C16.474,70.9948 15.3021,70.1823 13.875,68.9531 C12.5729,67.9115 11.6927,67.224 11.2344,66.8906 C10.974,66.7031 10.8438,66.4115 10.8438,66.0156 C10.8438,65.3698 11.0729,64.7865 11.5313,64.2656 C12.0521,63.6719 12.6042,63.375 13.1875,63.375 C13.5729,63.375 14.4818,63.9948 15.9141,65.2344 C17.3464,66.474 18.8438,67.0938 20.4063,67.0938 C23.4063,67.0938 25.6563,65.1719 27.1563,61.3281 C28.5833,57.6198 29.2969,53.0313 29.2969,47.5625 L29.2969,46.7813 C29.2969,43.1354 29.8854,37.6979 31.0625,30.4688 C28.9792,31.125 27.3177,32.1042 26.0781,33.4063 C24.776,34.7083 24.125,36.0729 24.125,37.5 C24.125,38.6042 24.5469,39.5469 25.3906,40.3281 C26.2344,41.1094 26.6563,41.8281 26.6563,42.4844 M7.03125,11.9219 C7.35417,11.9219 8.13542,12.2448 9.375,12.8906 C10.6771,13.5469 11.7865,13.875 12.7031,13.875 C15.1719,13.875 18.1979,12.0833 21.7813,8.5 C32.1354,-2.05208 39.2656,-13.25 43.1719,-25.0938 C43.9531,-27.5729 45.8698,-28.8125 48.9219,-28.8125 C50.4844,-28.8125 51.8229,-28.4844 52.9375,-27.8281 C54.0417,-27.1198 54.5938,-26.4063 54.5938,-25.6875 L52.8281,10.8438 C52.8281,12.7917 53.5156,13.7656 54.8906,13.7656 C55.599,13.7656 56.6406,13.4427 58.0156,12.7969 C59.3177,12.1406 60.099,11.8125 60.3594,11.8125 C60.8802,11.8125 61.2031,12.3698 61.3281,13.4844 C61.3281,14.526 60.9063,15.1771 60.0625,15.4375 C59.4063,15.625 58.1042,16.2396 56.1563,17.2813 C54.1354,18.3229 52.5417,18.8438 51.375,18.8438 C48.8958,18.8438 47.1354,16.8906 46.0938,12.9844 C44.4688,6.86979 43.4271,0.520833 42.9688,-6.0625 C40.3646,-2.73958 37.4688,0.614583 34.2813,4 C35.4479,6.21875 37.5938,7.32813 40.7188,7.32813 C41.1771,7.32813 41.5365,7.29688 41.7969,7.23438 L41.8906,7.23438 C42.4115,7.23438 42.6719,7.71875 42.6719,8.6875 C42.6719,9.92708 42.25,10.6771 41.4063,10.9375 C40.0417,11.3958 38.6094,11.625 37.1094,11.625 C33.8594,11.625 31.5156,10.5156 30.0781,8.29688 L26.1719,11.8125 C20.7031,16.5 16.2448,18.8438 12.7969,18.8438 C11.8802,18.8438 10.9375,18.6823 9.96875,18.3594 C9.1875,18.0365 8.27604,17.5469 7.23438,16.8906 C6.83854,16.7031 6.39583,16.4609 5.90625,16.1641 C5.41667,15.8672 5.10938,15.6875 4.98438,15.625 C4.66146,15.5 4.5,15.2083 4.5,14.75 C4.5,14.2292 4.76042,13.6094 5.28125,12.8906 C5.72917,12.2448 6.3125,11.9219 7.03125,11.9219 M28.8125,-54 C28.8125,-52.375 27.4115,-51.5625 24.6094,-51.5625 C22.1406,-51.5625 19.9948,-52.375 18.1719,-54 C16.4115,-55.6354 15.5313,-57.625 15.5313,-59.9688 C15.5313,-62.2396 16.2448,-64.1927 17.6719,-65.8281 C19.1719,-67.5156 21.0938,-68.7813 23.4375,-69.625 C25.5833,-70.4063 27.9948,-71.026 30.6719,-71.4844 C33.4635,-71.8073 36.1302,-71.9688 38.6719,-71.9688 C40.1719,-71.9688 42.974,-71.2865 47.0781,-69.9219 C51.2448,-68.5573 54.1406,-67.875 55.7656,-67.875 C57.7865,-67.875 59.7083,-68.2344 61.5313,-68.9531 C63.0208,-69.599 64.4531,-70.3438 65.8281,-71.1875 C66.9323,-71.9063 67.5469,-72.2656 67.6719,-72.2656 C68.2656,-72.2656 68.7865,-72.0729 69.2344,-71.6875 C69.7552,-71.1667 70.0156,-70.7396 70.0156,-70.4063 C70.0156,-69.9583 69.401,-69.2135 68.1719,-68.1719 C66.8698,-66.9948 65.013,-65.8203 62.6016,-64.6484 C60.1901,-63.4766 57.651,-62.8906 54.9844,-62.8906 C53.8073,-62.8906 52.3438,-63.0885 50.5938,-63.4844 C49.4792,-56.2552 48.3073,-49.8385 47.0781,-44.2344 C46.0365,-39.2865 43.9531,-34.9583 40.8281,-31.25 C37.8281,-27.5417 34.474,-25.6875 30.7656,-25.6875 C29.2656,-25.6875 27.9323,-25.9792 26.7656,-26.5625 C25.4635,-27.2188 24.0938,-28.1979 22.6563,-29.5 C21.4896,-30.4688 20.3854,-31.3438 19.3438,-32.125 C19.0833,-32.3229 18.9531,-32.6198 18.9531,-33.0156 C18.9531,-33.4635 19.2135,-34.0469 19.7344,-34.7656 C20.2552,-35.349 20.7396,-35.6406 21.1875,-35.6406 C21.5833,-35.6406 22.6927,-34.8281 24.5156,-33.2031 C26.3385,-31.5781 27.9635,-30.7656 29.3906,-30.7656 C31.9948,-30.7656 34.0156,-32.2604 35.4531,-35.25 C36.8802,-38.1875 37.6927,-41.7031 37.8906,-45.7969 C38.2135,-52.5052 38.9635,-59.4427 40.1406,-66.6094 C38.7031,-66.9323 37.6302,-67.0938 36.9219,-67.0938 C33.7969,-67.0938 31.125,-66.4427 28.9063,-65.1406 C26.6979,-63.901 25.5938,-62.2083 25.5938,-60.0625 C25.5938,-58.5 26.1146,-57.2969 27.1563,-56.4531 C28.2604,-55.5365 28.8125,-54.7188 28.8125,-54"/>
<path class="Clef" transform="matrix(0.566929,0,0,0.566929,28.5015,506.661)" d="M21.2969,33.9844 C21.2969,35.4219 20.1875,36.1406 17.9688,36.1406 C16.1458,36.1406 14.5833,35.5833 13.2813,34.4688 C11.9167,33.3646 11.2344,31.9323 11.2344,30.1719 C11.2344,26.9844 13.0885,24.4792 16.7969,22.6563 C20.7031,20.7708 25.0677,19.8281 29.8906,19.8281 C34.5052,19.8281 38.6042,20.4479 42.1875,21.6875 C45.5104,23.0521 47.1719,25.1667 47.1719,28.0313 C47.1719,31.5417 45.3177,34.4688 41.6094,36.8125 C47.0781,37.9271 49.8125,40.3698 49.8125,44.1406 C49.8125,47.2656 48.3438,50.1615 45.4063,52.8281 C42.5417,55.4323 39.1927,56.7344 35.3594,56.7344 C33.7969,56.7344 32.2344,56.3802 30.6719,55.6719 C29.2344,55.0156 28.1927,54.2969 27.5469,53.5156 C26.8906,52.9323 26.5625,52.3802 26.5625,51.8594 C26.5625,51.3385 26.8229,50.9167 27.3438,50.5938 C27.8021,50.1354 28.2917,49.9063 28.8125,49.9063 C29.0729,49.9063 29.5599,50.2318 30.2734,50.8828 C30.987,51.5339 31.9635,51.8594 33.2031,51.8594 C35.0885,51.8594 36.849,51.1406 38.4844,49.7031 C40.0469,48.2135 40.8281,46.4896 40.8281,44.5313 C40.8281,42.8438 40.0469,41.5417 38.4844,40.625 C36.9844,39.7813 35.0625,39.3594 32.7188,39.3594 C32.2604,39.3594 32.0313,38.9688 32.0313,38.1875 C32.0313,36.8854 32.5208,36.2344 33.5,36.2344 C34.9271,36.2344 36.1979,35.6146 37.3125,34.375 C38.4167,32.9479 38.9688,31.4844 38.9688,29.9844 C38.9688,26.7969 36.8542,24.8125 32.625,24.0313 L29.3906,41.6094 C28.5469,45.9635 26.9531,49.7396 24.6094,52.9375 C22.2031,56.125 19.5677,57.7188 16.7031,57.7188 C15.724,57.7188 14.8125,57.5208 13.9688,57.125 C13.1875,56.8021 12.2083,56.151 11.0313,55.1719 C9.72917,54.1302 9.04688,53.5781 8.98438,53.5156 C8.72396,53.2552 8.59375,53.026 8.59375,52.8281 C8.59375,52.4427 8.79167,51.9583 9.1875,51.375 C9.63542,50.9167 10.0885,50.6875 10.5469,50.6875 C10.7448,50.6875 11.526,51.1771 12.8906,52.1563 C13.9948,53.1979 15.1667,53.7188 16.4063,53.7188 C18.8125,53.7188 20.6042,52.2188 21.7813,49.2188 C22.9479,46.0938 23.5313,42.3854 23.5313,38.0938 L23.5313,37.4063 C23.5313,34.7396 23.9896,30.4115 24.9063,24.4219 C23.2083,25.0052 21.875,25.7865 20.9063,26.7656 C19.8646,27.8073 19.3438,28.8802 19.3438,29.9844 C19.3438,30.8906 19.6667,31.6406 20.3125,32.2344 C20.9688,32.8802 21.2969,33.4635 21.2969,33.9844 M5.5625,9.46875 C5.82292,9.46875 6.47396,9.76563 7.51563,10.3594 C8.69271,10.8802 9.57292,11.1406 10.1563,11.1406 C13.0208,11.1406 17.1875,7.75521 22.6563,0.984375 C28.0625,-5.66146 32,-12.6979 34.4688,-20.125 C35.0625,-22.0729 36.5938,-23.0469 39.0625,-23.0469 C40.3021,-23.0469 41.3438,-22.7865 42.1875,-22.2656 C43.1042,-21.8802 43.5625,-21.3281 43.5625,-20.6094 L42.1875,8.59375 C42.1875,10.2917 42.776,11.1406 43.9531,11.1406 C44.3385,11.1406 45.151,10.8802 46.3906,10.3594 C47.5573,9.76563 48.2083,9.46875 48.3438,9.46875 C48.8021,9.46875 49.0313,9.92708 49.0313,10.8438 C49.0313,11.625 48.7344,12.1146 48.1406,12.3125 C47.4323,12.6354 46.3594,13.1563 44.9219,13.875 C43.2969,14.7188 42.026,15.1406 41.1094,15.1406 C40.1406,15.1406 39.2292,14.7188 38.375,13.875 C37.5313,12.8333 36.7865,10.8125 36.1406,7.8125 C35.3594,4.82292 34.7708,0.588542 34.375,-4.89063 C32.3542,-2.21354 30.0781,0.489583 27.5469,3.21875 C28.5156,4.91667 30.5,5.76563 33.5,5.76563 C33.8854,5.76563 34.0781,6.1875 34.0781,7.03125 C34.0781,8.53125 32.5833,9.28125 29.5938,9.28125 C27.0521,9.28125 25.2292,8.40104 24.125,6.64063 L21,9.375 C16.7708,13.0208 13.1563,14.9115 10.1563,15.0469 C9.11458,15.0469 7.75,14.5885 6.0625,13.6719 C4.42708,12.8281 3.60938,12.2083 3.60938,11.8125 C3.60938,11.3646 3.80729,10.8802 4.20313,10.3594 C4.58854,9.76563 5.04167,9.46875 5.5625,9.46875 M23.0469,-43.1719 C23.0469,-41.9323 21.9427,-41.3125 19.7344,-41.3125 C17.776,-41.3125 16.0469,-41.9635 14.5469,-43.2656 C13.1198,-44.5052 12.4063,-46.099 12.4063,-48.0469 C12.4063,-49.8698 12.9583,-51.4323 14.0625,-52.7344 C15.3646,-54.1719 16.9271,-55.151 18.75,-55.6719 C20.0521,-56.1927 22.0052,-56.7135 24.6094,-57.2344 C27.349,-57.4948 29.4635,-57.625 30.9531,-57.625 C32.0677,-57.625 34.2839,-57.0703 37.6016,-55.9609 C40.9193,-54.8516 43.2604,-54.2969 44.625,-54.2969 C46.2604,-54.2969 47.7917,-54.5573 49.2188,-55.0781 C50.5833,-55.6615 51.6927,-56.25 52.5469,-56.8438 C53.3906,-57.4896 53.9115,-57.8125 54.1094,-57.8125 C54.4948,-57.8125 54.9167,-57.651 55.375,-57.3281 C55.7604,-57.0052 55.9531,-56.6771 55.9531,-56.3438 C55.9531,-56.0833 55.4688,-55.4688 54.5,-54.5 C53.3229,-53.4583 51.8229,-52.5469 50,-51.7656 C48.0521,-50.7865 46.0677,-50.2969 44.0469,-50.2969 C43.0052,-50.2969 41.8333,-50.4583 40.5313,-50.7813 C39.6146,-44.4063 38.6719,-39.2292 37.7031,-35.25 C36.849,-31.2813 35.1875,-27.8333 32.7188,-24.9063 C30.3125,-21.9792 27.6406,-20.5156 24.7031,-20.5156 C23.401,-20.5156 22.3281,-20.776 21.4844,-21.2969 C20.3802,-21.8177 19.276,-22.5625 18.1719,-23.5313 C17.1302,-24.5104 16.25,-25.2292 15.5313,-25.6875 C15.2708,-25.9479 15.1406,-26.1771 15.1406,-26.375 C15.1406,-26.8229 15.3021,-27.276 15.625,-27.7344 C15.9479,-28.2552 16.3698,-28.5156 16.8906,-28.5156 C17.151,-28.5156 18.0313,-27.8646 19.5313,-26.5625 C21.0313,-25.2604 22.3646,-24.6094 23.5313,-24.6094 C25.0938,-24.6094 26.3021,-25.1302 27.1563,-26.1719 C28.0625,-27.2135 28.776,-28.776 29.2969,-30.8594 C29.7552,-32.7448 30.0833,-34.8594 30.2813,-37.2031 C30.5417,-39.1615 30.8333,-41.8333 31.1563,-45.2188 C31.3542,-47.1042 31.6771,-49.8073 32.125,-53.3281 C31.0208,-53.5885 30.1458,-53.7188 29.5,-53.7188 C27.1563,-53.7188 25.0365,-53.1979 23.1406,-52.1563 C21.3906,-50.9792 20.5156,-49.6406 20.5156,-48.1406 C20.5156,-47.0365 20.9375,-46.0625 21.7813,-45.2188 C22.625,-44.375 23.0469,-43.6927 23.0469,-43.1719"/>
<path class="Clef" transform="matrix(0.566929,0,0,0.566929,28.5015,348.984)" d="M57.1328,-8.89063 C56.1589,-9.86979 55.6719,-11.0755 55.6719,-12.5078 C55.6719,-13.9401 56.1589,-15.1432 57.1328,-16.1172 C58.1068,-17.0911 59.3099,-17.5781 60.7422,-17.5781 C62.1745,-17.5781 63.3802,-17.0911 64.3594,-16.1172 C65.3385,-15.1432 65.8281,-13.9401 65.8281,-12.5078 C65.8281,-11.0755 65.3385,-9.86979 64.3594,-8.89063 C63.3802,-7.91146 62.1745,-7.42188 60.7422,-7.42188 C59.3099,-7.42188 58.1068,-7.91146 57.1328,-8.89063 M57.1328,16.1172 C56.1589,15.1432 55.6719,13.9401 55.6719,12.5078 C55.6719,11.0755 56.1589,9.86979 57.1328,8.89063 C58.1068,7.91146 59.3099,7.42188 60.7422,7.42188 C62.1745,7.42188 63.3802,7.91146 64.3594,8.89063 C65.3385,9.86979 65.8281,11.0755 65.8281,12.5078 C65.8281,13.9401 65.3385,15.1432 64.3594,16.1172 C63.3802,17.0911 62.1745,17.5781 60.7422,17.5781 C59.3099,17.5781 58.1068,17.0911 57.1328,16.1172 M23.25,-26.2656 C31.9063,-26.2656 39,-24.0885 44.5313,-19.7344 C49.875,-15.1719 52.5469,-8.98438 52.5469,-1.17188 C52.5469,4.09896 51.5052,8.91667 49.4219,13.2813 C47.4635,17.8438 44.8906,21.8802 41.7031,25.3906 C38.4427,28.974 34.5052,32.3594 29.8906,35.5469 C25.3906,38.6719 20.7656,41.474 16.0156,43.9531 C6.31771,48.8281 0.979167,51.2656 0,51.2656 C-0.84375,51.2656 -1.26563,50.8438 -1.26563,50 C-1.26563,49.6771 -1.13542,49.3854 -0.875,49.125 C2.44792,47.1667 6.51563,44.6615 11.3281,41.6094 C14.4531,39.5885 18.099,36.7865 22.2656,33.2031 C26.3073,29.8177 29.4323,26.6302 31.6406,23.6406 C33.9219,20.7031 36.0052,17.0573 37.8906,12.7031 C39.5156,8.33854 40.3281,4.03646 40.3281,-0.203125 C40.3281,-6.51563 38.7656,-12.0156 35.6406,-16.7031 C32.5156,-21.3906 28.3854,-23.7344 23.25,-23.7344 C19.6042,-23.7344 16.4792,-22.5625 13.875,-20.2188 C11.0729,-17.8125 9.05208,-14.7865 7.8125,-11.1406 C9.05208,-11.6615 10.1927,-11.9219 11.2344,-11.9219 C13.9635,-11.9219 16.3073,-10.9427 18.2656,-8.98438 C20.2135,-6.90104 21.1875,-4.52604 21.1875,-1.85938 C21.1875,0.942708 20.2448,3.45313 18.3594,5.67188 C16.3385,7.68229 13.9635,8.6875 11.2344,8.6875 C8.30729,8.6875 5.67188,7.68229 3.32813,5.67188 C1.10938,3.45313 0,0.942708 0,-1.85938 C0,-8.56771 2.28125,-14.2969 6.84375,-19.0469 C11.3333,-23.8594 16.8021,-26.2656 23.25,-26.2656"/>
<path class="Clef" transform="matrix(0.566929,0,0,0.566929,28.5015,228.512)" d="M36.3281,-7.32813 C33.3385,-7.32813 31.8438,-4.88542 31.8438,0 C31.8438,4.88542 33.3385,7.32813 36.3281,7.32813 C37.3073,7.32813 38.7396,6.80729 40.625,5.76563 C42.4479,4.72396 43.9479,4.20313 45.125,4.20313 C51.3021,4.20313 56.6719,6.1875 61.2344,10.1563 C65.724,14.2604 67.9688,19.2083 67.9688,25 C67.9688,41.6667 59.1458,50 41.5,50 C37.2708,50 33.6615,48.6354 30.6719,45.9063 C27.7344,43.1667 26.2656,39.8125 26.2656,35.8438 C26.2656,33.6979 27.0156,31.875 28.5156,30.375 C30.0156,28.875 31.8073,28.125 33.8906,28.125 C35.974,28.125 37.763,28.875 39.2578,30.375 C40.7526,31.875 41.5,33.6979 41.5,35.8438 C41.5,37.1458 40.6875,38.4167 39.0625,39.6563 C37.4375,40.8229 36.625,42.0573 36.625,43.3594 C36.625,44.5365 37.1146,45.4479 38.0938,46.0938 C39,46.8125 40.1354,47.1719 41.5,47.1719 C46.9063,47.1719 50.5859,45.3151 52.5391,41.6016 C54.4922,37.888 55.4688,32.3542 55.4688,25 C55.4688,19.3333 54.8854,15.0365 53.7188,12.1094 C52.4792,8.72396 49.6146,7.03125 45.125,7.03125 C41.7396,7.03125 38.875,8.49479 36.5313,11.4219 C34.3125,14.4219 33.2031,17.9063 33.2031,21.875 C33.2031,22.8542 32.7474,23.3438 31.8359,23.3438 C30.9245,23.3438 30.4688,22.8542 30.4688,21.875 C30.4688,14.125 27.6719,7.45313 22.0781,1.85938 L22.0781,49.0313 C22.0781,49.6771 21.75,50 21.0938,50 L19.0469,50 C18.3281,50 17.9688,49.6771 17.9688,49.0313 L17.9688,-49.0313 C17.9688,-49.6771 18.3281,-50 19.0469,-50 L21.0938,-50 C21.75,-50 22.0781,-49.6771 22.0781,-49.0313 L22.0781,-1.85938 C27.6719,-7.45313 30.4688,-14.125 30.4688,-21.875 C30.4688,-22.8542 30.9245,-23.3438 31.8359,-23.3438 C32.7474,-23.3438 33.2031,-22.8542 33.2031,-21.875 C33.2031,-17.9063 34.3125,-14.4219 36.5313,-11.4219 C38.875,-8.49479 41.7396,-7.03125 45.125,-7.03125 C49.6146,-7.03125 52.4792,-8.72396 53.7188,-12.1094 C54.8854,-15.0365 55.4688,-19.3333 55.4688,-25 C55.4688,-32.3542 54.4922,-37.888 52.5391,-41.6016 C50.5859,-45.3151 46.9063,-47.1719 41.5,-47.1719 C40.1354,-47.1719 39,-46.8125 38.0938,-46.0938 C37.1146,-45.5104 36.625,-44.599 36.625,-43.3594 C36.625,-42.0573 37.4375,-40.8229 39.0625,-39.6563 C40.6875,-38.4167 41.5,-37.1458 41.5,-35.8438 C41.5,-33.6979 40.7526,-31.875 39.2578,-30.375 C37.763,-28.875 35.974,-28.125 33.8906,-28.125 C31.8073,-28.125 30.0156,-28.875 28.5156,-30.375 C27.0156,-31.875 26.2656,-33.6979 26.2656,-35.8438 C26.2656,-39.8125 27.7344,-43.1667 30.6719,-45.9063 C33.6615,-48.6354 37.2708,-50 41.5,-50 C59.1458,-50 67.9688,-41.6667 67.9688,-25 C67.9688,-19.2083 65.724,-14.2604 61.2344,-10.1563 C56.6719,-6.1875 51.3021,-4.20313 45.125,-4.20313 C44.0104,-4.20313 42.5104,-4.72396 40.625,-5.76563 C38.7396,-6.80729 37.3073,-7.32813 36.3281,-7.32813 M12.8906,50 L0.984375,50 C0.328125,50 0,49.6771 0,49.0313 L0,-49.0313 C0,-49.6771 0.328125,-50 0.984375,-50 L12.8906,-50 C13.5469,-50 13.875,-49.6771 13.875,-49.0313 L13.875,49.0313 C13.875,49.6771 13.5469,50 12.8906,50"/>
<path class="Clef" transform="matrix(0.566929,0,0,0.566929,28.5015,108.039)" d="M36.7188,-25.5938 C36.7188,-25.5938 36.9167,-25.5938 37.3125,-25.5938 C37.5729,-25.6563 37.7969,-25.6875 37.9844,-25.6875 C45.276,-25.6875 51.2656,-23.1146 55.9531,-17.9688 C60.6406,-12.8958 62.9844,-6.97396 62.9844,-0.203125 C62.9844,8.20313 59.5052,15.0417 52.5469,20.3125 C50.724,21.75 48.3438,22.9219 45.4063,23.8281 C45.7396,28.0573 45.9063,31.474 45.9063,34.0781 C45.9063,34.599 45.8385,36.4896 45.7031,39.75 C45.4427,45.8021 43.3594,51.0417 39.4531,55.4688 C35.6823,59.8333 30.9948,62.0156 25.3906,62.0156 C20.1198,62.0156 15.6302,60.1615 11.9219,56.4531 C8.20313,52.6719 6.34375,48.1146 6.34375,42.7813 C6.34375,39.9792 7.42188,37.599 9.57813,35.6406 C11.7865,33.6927 14.3542,32.7188 17.2813,32.7188 C19.8854,32.7188 22.0677,33.7292 23.8281,35.75 C25.651,37.6354 26.5625,39.9792 26.5625,42.7813 C26.5625,45.3125 25.651,47.4896 23.8281,49.3125 C22.0052,51.1354 19.8229,52.0469 17.2813,52.0469 C16.2396,52.0469 15.2344,51.8542 14.2656,51.4688 C17.1302,55.6979 20.9375,57.8125 25.6875,57.8125 C30.1771,57.8125 33.8542,55.9896 36.7188,52.3438 C39.7188,48.5729 41.349,44.1771 41.6094,39.1563 C41.7344,36.0313 41.7969,34.2448 41.7969,33.7969 C41.7969,30.151 41.6667,27.1563 41.4063,24.8125 C38.1563,25.3333 35.2604,25.5938 32.7188,25.5938 C23.6667,25.5938 15.9531,22.0104 9.57813,14.8438 C3.32813,7.61458 0.203125,-0.979167 0.203125,-10.9375 C0.203125,-13.0208 0.395833,-15.1354 0.78125,-17.2813 C1.17708,-19.0417 1.66667,-20.9635 2.25,-23.0469 C2.57292,-24.224 3.45313,-26.1146 4.89063,-28.7188 C5.41146,-29.5 5.9974,-30.4766 6.64844,-31.6484 C7.29948,-32.8203 7.75521,-33.599 8.01563,-33.9844 C8.66146,-35.2865 9.92708,-37.0469 11.8125,-39.2656 C12.3333,-39.849 12.8724,-40.4974 13.4297,-41.2109 C13.987,-41.9245 14.4609,-42.5104 14.8516,-42.9688 C15.2422,-43.4271 15.5339,-43.7865 15.7266,-44.0469 C15.9193,-44.3073 17.3854,-46.0313 20.125,-49.2188 C20.7708,-49.875 21.4036,-50.5755 22.0234,-51.3203 C22.6432,-52.0651 23.1484,-52.651 23.5391,-53.0781 C23.9297,-53.5052 24.224,-53.8125 24.4219,-54 C22.0781,-61.75 20.6094,-67.9375 20.0156,-72.5625 C19.5677,-76.2708 19.3438,-81.349 19.3438,-87.7969 C19.3438,-93.4635 20.6458,-98.7708 23.25,-103.719 C25.7813,-108.854 29.3281,-113.052 33.8906,-116.313 C34.151,-116.51 34.474,-116.609 34.8594,-116.609 C35.3177,-116.609 35.6458,-116.51 35.8438,-116.313 C39.3542,-112.083 42.3802,-106.583 44.9219,-99.8125 C47.526,-93.0417 48.8281,-86.8854 48.8281,-81.3438 C48.8281,-75.0938 47.3333,-69.2344 44.3438,-63.7656 C40.9583,-57.974 36.5938,-51.9844 31.25,-45.7969 C32.6146,-41.5052 34.4375,-34.7708 36.7188,-25.5938 M45.0156,19.8281 C48.401,18.5885 51.0417,16.474 52.9375,13.4844 C55.0208,10.6198 56.0625,7.39583 56.0625,3.8125 C56.0625,-0.8125 54.5,-4.91667 51.375,-8.5 C48.1771,-12.2083 44.1042,-14.2917 39.1563,-14.75 C41.9583,-1.01042 43.9115,10.5156 45.0156,19.8281 M7.23438,-2.73438 C7.23438,3.71354 9.83854,9.38021 15.0469,14.2656 C20.3802,19.0156 26.3698,21.3906 33.0156,21.3906 C35.7448,21.3906 38.4115,21.1927 41.0156,20.7969 C39.974,10.901 37.9219,-0.947917 34.8594,-14.75 C31.151,-14.3542 28.1927,-13.0521 25.9844,-10.8438 C23.8281,-8.5625 22.75,-5.98958 22.75,-3.125 C22.75,1.82292 25.3906,5.82813 30.6719,8.89063 C31.1198,9.34896 31.3438,9.83854 31.3438,10.3594 C31.3438,10.8802 31.1198,11.3646 30.6719,11.8125 C30.276,12.2708 29.7865,12.5 29.2031,12.5 C29.1406,12.5 28.849,12.4375 28.3281,12.3125 C24.6094,10.2917 21.7448,7.6875 19.7344,4.5 C17.8385,1.10417 16.8906,-2.31771 16.8906,-5.76563 C16.8906,-10.2552 18.2917,-14.3229 21.0938,-17.9688 C24.0208,-21.6146 27.8281,-23.9583 32.5156,-25 C30.6927,-32.2917 29.1979,-37.9896 28.0313,-42.0938 C26.9896,-40.9167 25.737,-39.5 24.2734,-37.8438 C22.8099,-36.1875 21.9479,-35.1927 21.6875,-34.8594 C19.3438,-31.8073 17.5521,-29.4323 16.3125,-27.7344 C14.0938,-24.6719 12.4635,-22.0365 11.4219,-19.8281 C10.3177,-17.349 9.34375,-14.6458 8.5,-11.7188 C7.65625,-8.91667 7.23438,-5.92188 7.23438,-2.73438 M39.8438,-102.047 C34.9583,-99.6406 31.1198,-96.1927 28.3281,-91.7031 C25.4635,-87.0781 24.0313,-82.099 24.0313,-76.7656 C24.0313,-72.0781 25.2031,-65.7604 27.5469,-57.8125 C32.2344,-63.4792 35.75,-68.7188 38.0938,-73.5313 C40.5625,-78.6146 41.7969,-83.9219 41.7969,-89.4531 C41.7969,-93.6198 41.1458,-97.8177 39.8438,-102.047"/>
<path class="TimeSig" transform="matrix(0.566929,0,0,0.566929,82.3775,348.936)" d="M22.4688,-23.7344 C24.4167,-23.7344 26.0755,-23.9609 27.4453,-24.4141 C28.8151,-24.8672 29.6927,-25.0938 30.0781,-25.0938 C30.5365,-25.0938 30.8958,-24.9635 31.1563,-24.7031 C31.3542,-24.5156 31.4844,-24.2917 31.5469,-24.0313 C31.5469,-23.8958 31.4792,-23.6979 31.3438,-23.4375 L2.9375,9.57813 L19.625,9.57813 L19.625,-3.51563 C19.625,-4.35938 19.8542,-5.07813 20.3125,-5.67188 C21.0938,-6.31771 21.7448,-6.70833 22.2656,-6.84375 C23.1094,-7.22917 24.151,-8.14063 25.3906,-9.57813 C26.4323,-10.7448 27.6719,-12.7917 29.1094,-15.7188 C29.2969,-16.1146 29.5885,-16.3125 29.9844,-16.3125 C30.7656,-16.3125 31.2188,-15.8542 31.3438,-14.9375 L31.3438,9.57813 L38.4844,9.57813 C39.3906,9.57813 39.9115,10.0625 40.0469,11.0313 C40.0469,12.0104 39.526,12.5 38.4844,12.5 L31.3438,12.5 L31.3438,13.2813 C31.3438,15.8854 31.9948,18.099 33.2969,19.9219 C34.7969,21.7448 36.5573,22.6563 38.5781,22.6563 C39.3594,22.6563 39.75,23.0469 39.75,23.8281 C39.75,24.6094 39.3594,25 38.5781,25 C37.2135,25 35,24.8073 31.9375,24.4219 C29.1354,23.9635 26.9531,23.7344 25.3906,23.7344 C23.7656,23.7344 21.5833,23.9635 18.8438,24.4219 C15.9167,24.8073 13.7396,25 12.3125,25 C11.5313,25 11.1406,24.6094 11.1406,23.8281 C11.1406,23.0469 11.5313,22.6563 12.3125,22.6563 C14.3229,22.6563 16.0781,21.7448 17.5781,19.9219 C18.9427,18.0365 19.625,15.8229 19.625,13.2813 L19.625,12.5 L2.9375,12.5 C1.82292,12.5 1.04167,12.2396 0.59375,11.7188 C0.0625,11.3333 -0.203125,10.8125 -0.203125,10.1563 C-0.203125,9.95833 0.286458,9.27604 1.26563,8.10938 C2.38021,6.80729 3.55208,5.21354 4.78125,3.32813 C6.21875,1.10938 7.58854,-1.17188 8.89063,-3.51563 C10.3177,-6.18229 11.4583,-9.24479 12.3125,-12.7031 C13.2813,-16.2135 13.7656,-19.7917 13.7656,-23.4375 C13.7656,-24.4792 14.224,-25 15.1406,-25 C15.3385,-25 15.7604,-24.901 16.4063,-24.7031 C16.6042,-24.6406 17.013,-24.5443 17.6328,-24.4141 C18.2526,-24.2839 18.7552,-24.1563 19.1406,-24.0313 C20.3177,-23.8333 21.4271,-23.7344 22.4688,-23.7344"/>
<path class="TimeSig" transform="matrix(0.566929,0,0,0.566929,83.3962,377.331)" d="M22.8594,25 C20.901,25 19.1406,24.6432 17.5781,23.9297 C16.0156,23.2161 14.9115,22.4688 14.2656,21.6875 C13.4115,20.7083 12.5625,19.9583 11.7188,19.4375 C10.6771,18.7188 9.60417,18.3594 8.5,18.3594 C6.80208,18.3594 5.40104,18.8802 4.29688,19.9219 C3.13021,20.901 2.47917,22.2344 2.34375,23.9219 C2.21875,24.6406 1.82813,25 1.17188,25 C0.390625,25 0,24.6406 0,23.9219 C0,21.3906 0.588542,19.1146 1.76563,17.0938 C2.93229,15.0104 4.36458,13.2865 6.0625,11.9219 C7.48958,10.6823 9.375,9.18229 11.7188,7.42188 C12.1146,7.09896 12.9453,6.41667 14.2109,5.375 C15.4766,4.33333 16.5365,3.45313 17.3906,2.73438 C19.0781,1.30729 20.5417,-0.583333 21.7813,-2.9375 C22.9479,-5.28125 23.5313,-7.81771 23.5313,-10.5469 C23.5313,-13.8698 22.9792,-16.7344 21.875,-19.1406 C20.7083,-21.4844 18.9167,-22.6563 16.5,-22.6563 C15.0104,-22.6563 13.8073,-22.3333 12.8906,-21.6875 C11.9115,-21.0313 11.4219,-20.151 11.4219,-19.0469 C11.4219,-18.1302 12.0078,-16.9896 13.1797,-15.625 C14.3516,-14.2604 14.9375,-13.1198 14.9375,-12.2031 C14.9375,-10.2552 14.2552,-8.59896 12.8906,-7.23438 C11.5885,-5.93229 9.99479,-5.28125 8.10938,-5.28125 C6.15104,-5.28125 4.48958,-5.96354 3.125,-7.32813 C1.82292,-8.75521 1.17188,-10.3802 1.17188,-12.2031 C1.17188,-15.9219 2.66927,-18.9844 5.66406,-21.3906 C8.65885,-23.7969 12.2708,-25 16.5,-25 C21.5208,-25 25.8854,-23.6354 29.5938,-20.9063 C33.3021,-18.3021 35.1563,-14.849 35.1563,-10.5469 C35.1563,-7.61979 34.6354,-5.11458 33.5938,-3.03125 C32.6146,-0.8125 31.151,0.916667 29.2031,2.15625 C26.9844,3.58333 25.0625,4.6875 23.4375,5.46875 C21.1563,6.51042 18.8802,7.48958 16.6094,8.40625 C13.8698,9.51042 11.75,10.5521 10.25,11.5313 C11.1042,11.3333 11.9844,11.2344 12.8906,11.2344 C15.8906,11.2344 19.0156,12.2083 22.2656,14.1563 C25.5885,16.1146 28.1615,17.0938 29.9844,17.0938 C31.0885,17.0938 31.9688,16.8958 32.625,16.5 C33.2708,16.1146 33.6927,15.6927 33.8906,15.2344 C34.151,14.5885 34.3802,14.1354 34.5781,13.875 C34.8385,13.4792 35.1615,13.2813 35.5469,13.2813 C36.3281,13.2813 36.7188,13.6719 36.7188,14.4531 C36.7188,16.276 35.4167,18.4896 32.8125,21.0938 C30.2708,23.6979 26.9531,25 22.8594,25"/>
<path class="TimeSig" transform="matrix(0.566929,0,0,0.566929,82.3775,214.29)" d="M22.4688,-23.7344 C24.4167,-23.7344 26.0755,-23.9609 27.4453,-24.4141 C28.8151,-24.8672 29.6927,-25.0938 30.0781,-25.0938 C30.5365,-25.0938 30.8958,-24.9635 31.1563,-24.7031 C31.3542,-24.5156 31.4844,-24.2917 31.5469,-24.0313 C31.5469,-23.8958 31.4792,-23.6979 31.3438,-23.4375 L2.9375,9.57813 L19.625,9.57813 L19.625,-3.51563 C19.625,-4.35938 19.8542,-5.07813 20.3125,-5.67188 C21.0938,-6.31771 21.7448,-6.70833 22.2656,-6.84375 C23.1094,-7.22917 24.151,-8.14063 25.3906,-9.57813 C26.4323,-10.7448 27.6719,-12.7917 29.1094,-15.7188 C29.2969,-16.1146 29.5885,-16.3125 29.9844,-16.3125 C30.7656,-16.3125 31.2188,-15.8542 31.3438,-14.9375 L31.3438,9.57813 L38.4844,9.57813 C39.3906,9.57813 39.9115,10.0625 40.0469,11.0313 C40.0469,12.0104 39.526,12.5 38.4844,12.5 L31.3438,12.5 L31.3438,13.2813 C31.3438,15.8854 31.9948,18.099 33.2969,19.9219 C34.7969,21.7448 36.5573,22.6563 38.5781,22.6563 C39.3594,22.6563 39.75,23.0469 39.75,23.8281 C39.75,24.6094 39.3594,25 38.5781,25 C37.2135,25 35,24.8073 31.9375,24.4219 C29.1354,23.9635 26.9531,23.7344 25.3906,23.7344 C23.7656,23.7344 21.5833,23.9635 18.8438,24.4219 C15.9167,24.8073 13.7396,25 12.3125,25 C11.5313,25 11.1406,24.6094 11.1406,23.8281 C11.1406,23.0469 11.5313,22.6563 12.3125,22.6563 C14.3229,22.6563 16.0781,21.7448 17.5781,19.9219 C18.9427,18.0365 19.625,15.8229 19.625,13.2813 L19.625,12.5 L2.9375,12.5 C1.82292,12.5 1.04167,12.2396 0.59375,11.7188 C0.0625,11.3333 -0.203125,10.8125 -0.203125,10.1563 C-0.203125,9.95833 0.286458,9.27604 1.26563,8.10938 C2.38021,6.80729 3.55208,5.21354 4.78125,3.32813 C6.21875,1.10938 7.58854,-1.17188 8.89063,-3.51563 C10.3177,-6.18229 11.4583,-9.24479 12.3125,-12.7031 C13.2813,-16.2135 13.7656,-19.7917 13.7656,-23.4375 C13.7656,-24.4792 14.224,-25 15.1406,-25 C15.3385,-25 15.7604,-24.901 16.4063,-24.7031 C16.6042,-24.6406 17.013,-24.5443 17.6328,-24.4141 C18.2526,-24.2839 18.7552,-24.1563 19.1406,-24.0313 C20.3177,-23.8333 21.4271,-23.7344 22.4688,-23.7344"/>
<path class="TimeSig" transform="matrix(0.566929,0,0,0.566929,83.3962,242.685)" d="M22.8594,25 C20.901,25 19.1406,24.6432 17.5781,23.9297 C16.0156,23.2161 14.9115,22.4688 14.2656,21.6875 C13.4115,20.7083 12.5625,19.9583 11.7188,19.4375 C10.6771,18.7188 9.60417,18.3594 8.5,18.3594 C6.80208,18.3594 5.40104,18.8802 4.29688,19.9219 C3.13021,20.901 2.47917,22.2344 2.34375,23.9219 C2.21875,24.6406 1.82813,25 1.17188,25 C0.390625,25 0,24.6406 0,23.9219 C0,21.3906 0.588542,19.1146 1.76563,17.0938 C2.93229,15.0104 4.36458,13.2865 6.0625,11.9219 C7.48958,10.6823 9.375,9.18229 11.7188,7.42188 C12.1146,7.09896 12.9453,6.41667 14.2109,5.375 C15.4766,4.33333 16.5365,3.45313 17.3906,2.73438 C19.0781,1.30729 20.5417,-0.583333 21.7813,-2.9375 C22.9479,-5.28125 23.5313,-7.81771 23.5313,-10.5469 C23.5313,-13.8698 22.9792,-16.7344 21.875,-19.1406 C20.7083,-21.4844 18.9167,-22.6563 16.5,-22.6563 C15.0104,-22.6563 13.8073,-22.3333 12.8906,-21.6875 C11.9115,-21.0313 11.4219,-20.151 11.4219,-19.0469 C11.4219,-18.1302 12.0078,-16.9896 13.1797,-15.625 C14.3516,-14.2604 14.9375,-13.1198 14.9375,-12.2031 C14.9375,-10.2552 14.2552,-8.59896 12.8906,-7.23438 C11.5885,-5.93229 9.99479,-5.28125 8.10938,-5.28125 C6.15104,-5.28125 4.48958,-5.96354 3.125,-7.32813 C1.82292,-8.75521 1.17188,-10.3802 1.17188,-12.2031 C1.17188,-15.9219 2.66927,-18.9844 5.66406,-21.3906 C8.65885,-23.7969 12.2708,-25 16.5,-25 C21.5208,-25 25.8854,-23.6354 29.5938,-20.9063 C33.3021,-18.3021 35.1563,-14.849 35.1563,-10.5469 C35.1563,-7.61979 34.6354,-5.11458 33.5938,-3.03125 C32.6146,-0.8125 31.151,0.916667 29.2031,2.15625 C26.9844,3.58333 25.0625,4.6875 23.4375,5.46875 C21.1563,6.51042 18.8802,7.48958 16.6094,8.40625 C13.8698,9.51042 11.75,10.5521 10.25,11.5313 C11.1042,11.3333 11.9844,11.2344 12.8906,11.2344 C15.8906,11.2344 19.0156,12.2083 22.2656,14.1563 C25.5885,16.1146 28.1615,17.0938 29.9844,17.0938 C31.0885,17.0938 31.9688,16.8958 32.625,16.5 C33.2708,16.1146 33.6927,15.6927 33.8906,15.2344 C34.151,14.5885 34.3802,14.1354 34.5781,13.875 C34.8385,13.4792 35.1615,13.2813 35.5469,13.2813 C36.3281,13.2813 36.7188,13.6719 36.7188,14.4531 C36.7188,16.276 35.4167,18.4896 32.8125,21.0938 C30.2708,23.6979 26.9531,25 22.8594,25"/>
<path class="TimeSig" transform="matrix(0.566929,0,0,0.566929,82.3775,79.6442)" d="M22.4688,-23.7344 C24.4167,-23.7344 26.0755,-23.9609 27.4453,-24.4141 C28.8151,-24.8672 29.6927,-25.0938 30.0781,-25.0938 C30.5365,-25.0938 30.8958,-24.9635 31.1563,-24.7031 C31.3542,-24.5156 31.4844,-24.2917 31.5469,-24.0313 C31.5469,-23.8958 31.4792,-23.6979 31.3438,-23.4375 L2.9375,9.57813 L19.625,9.57813 L19.625,-3.51563 C19.625,-4.35938 19.8542,-5.07813 20.3125,-5.67188 C21.0938,-6.31771 21.7448,-6.70833 22.2656,-6.84375 C23.1094,-7.22917 24.151,-8.14063 25.3906,-9.57813 C26.4323,-10.7448 27.6719,-12.7917 29.1094,-15.7188 C29.2969,-16.1146 29.5885,-16.3125 29.9844,-16.3125 C30.7656,-16.3125 31.2188,-15.8542 31.3438,-14.9375 L31.3438,9.57813 L38.4844,9.57813 C39.3906,9.57813 39.9115,10.0625 40.0469,11.0313 C40.0469,12.0104 39.526,12.5 38.4844,12.5 L31.3438,12.5 L31.3438,13.2813 C31.3438,15.8854 31.9948,18.099 33.2969,19.9219 C34.7969,21.7448 36.5573,22.6563 38.5781,22.6563 C39.3594,22.6563 39.75,23.0469 39.75,23.8281 C39.75,24.6094 39.3594,25 38.5781,25 C37.2135,25 35,24.8073 31.9375,24.4219 C29.1354,23.9635 26.9531,23.7344 25.3906,23.7344 C23.7656,23.7344 21.5833,23.9635 18.8438,24.4219 C15.9167,24.8073 13.7396,25 12.3125,25 C11.5313,25 11.1406,24.6094 11.1406,23.8281 C11.1406,23.0469 11.5313,22.6563 12.3125,22.6563 C14.3229,22.6563 16.0781,21.7448 17.5781,19.9219 C18.9427,18.0365 19.625,15.8229 19.625,13.2813 L19.625,12.5 L2.9375,12.5 C1.82292,12.5 1.04167,12.2396 0.59375,11.7188 C0.0625,11.3333 -0.203125,10.8125 -0.203125,10.1563 C-0.203125,9.95833 0.286458,9.27604 1.26563,8.10938 C2.38021,6.80729 3.55208,5.21354 4.78125,3.32813 C6.21875,1.10938 7.58854,-1.17188 8.89063,-3.51563 C10.3177,-6.18229 11.4583,-9.24479 12.3125,-12.7031 C13.2813,-16.2135 13.7656,-19.7917 13.7656,-23.4375 C13.7656,-24.4792 14.224,-25 15.1406,-25 C15.3385,-25 15.7604,-24.901 16.4063,-24.7031 C16.6042,-24.6406 17.013,-24.5443 17.6328,-24.4141 C18.2526,-24.2839 18.7552,-24.1563 19.1406,-24.0313 C20.3177,-23.8333 21.4271,-23.7344 22.4688,-23.7344"/>
<path class="TimeSig" transform="matrix(0.566929,0,0,0.566929,83.3962,108.039)" d="M22.8594,25 C20.901,25 19.1406,24.6432 17.5781,23.9297 C16.0156,23.2161 14.9115,22.4688 14.2656,21.6875 C13.4115,20.7083 12.5625,19.9583 11.7188,19.4375 C10.6771,18.7188 9.60417,18.3594 8.5,18.3594 C6.80208,18.3594 5.40104,18.8802 4.29688,19.9219 C3.13021,20.901 2.47917,22.2344 2.34375,23.9219 C2.21875,24.6406 1.82813,25 1.17188,25 C0.390625,25 0,24.6406 0,23.9219 C0,21.3906 0.588542,19.1146 1.76563,17.0938 C2.93229,15.0104 4.36458,13.2865 6.0625,11.9219 C7.48958,10.6823 9.375,9.18229 11.7188,7.42188 C12.1146,7.09896 12.9453,6.41667 14.2109,5.375 C15.4766,4.33333 16.5365,3.45313 17.3906,2.73438 C19.0781,1.30729 20.5417,-0.583333 21.7813,-2.9375 C22.9479,-5.28125 23.5313,-7.81771 23.5313,-10.5469 C23.5313,-13.8698 22.9792,-16.7344 21.875,-19.1406 C20.7083,-21.4844 18.9167,-22.6563 16.5,-22.6563 C15.0104,-22.6563 13.8073,-22.3333 12.8906,-21.6875 C11.9115,-21.0313 11.4219,-20.151 11.4219,-19.0469 C11.4219,-18.1302 12.0078,-16.9896 13.1797,-15.625 C14.3516,-14.2604 14.9375,-13.1198 14.9375,-12.2031 C14.9375,-10.2552 14.2552,-8.59896 12.8906,-7.23438 C11.5885,-5.93229 9.99479,-5.28125 8.10938,-5.28125 C6.15104,-5.28125 4.48958,-5.96354 3.125,-7.32813 C1.82292,-8.75521 1.17188,-10.3802 1.17188,-12.2031 C1.17188,-15.9219 2.66927,-18.9844 5.66406,-21.3906 C8.65885,-23.7969 12.2708,-25 16.5,-25 C21.5208,-25 25.8854,-23.6354 29.5938,-20.9063 C33.3021,-18.3021 35.1563,-14.849 35.1563,-10.5469 C35.1563,-7.61979 34.6354,-5.11458 33.5938,-3.03125 C32.6146,-0.8125 31.151,0.916667 29.2031,2.15625 C26.9844,3.58333 25.0625,4.6875 23.4375,5.46875 C21.1563,6.51042 18.8802,7.48958 16.6094,8.40625 C13.8698,9.51042 11.75,10.5521 10.25,11.5313 C11.1042,11.3333 11.9844,11.2344 12.8906,11.2344 C15.8906,11.2344 19.0156,12.2083 22.2656,14.1563 C25.5885,16.1146 28.1615,17.0938 29.9844,17.0938 C31.0885,17.0938 31.9688,16.8958 32.625,16.5 C33.2708,16.1146 33.6927,15.6927 33.8906,15.2344 C34.151,14.5885 34.3802,14.1354 34.5781,13.875 C34.8385,13.4792 35.1615,13.2813 35.5469,13.2813 C36.3281,13.2813 36.7188,13.6719 36.7188,14.4531 C36.7188,16.276 35.4167,18.4896 32.8125,21.0938 C30.2708,23.6979 26.9531,25 22.8594,25"/>
<path class="Rest" transform="matrix(0.566929,0,0,0.566929,358.914,363.157)" d="M13.9688,0 L0.984375,0 C0.328125,0 0,-0.328125 0,-0.984375 L0,-24.0313 C0,-24.6771 0.328125,-25 0.984375,-25 L13.9688,-25 C14.6875,-25 15.0469,-24.6771 15.0469,-24.0313 L15.0469,-0.984375 C15.0469,-0.328125 14.6875,0 13.9688,0"/>
<path class="Rest" transform="matrix(0.566929,0,0,0.566929,358.914,228.512)" d="M13.9688,0 L0.984375,0 C0.328125,0 0,-0.328125 0,-0.984375 L0,-24.0313 C0,-24.6771 0.328125,-25 0.984375,-25 L13.9688,-25 C14.6875,-25 15.0469,-24.6771 15.0469,-24.0313 L15.0469,-0.984375 C15.0469,-0.328125 14.6875,0 13.9688,0"/>
<path class="Rest" transform="matrix(0.566929,0,0,0.566929,358.914,93.8661)" d="M13.9688,0 L0.984375,0 C0.328125,0 0,-0.328125 0,-0.984375 L0,-24.0313 C0,-24.6771 0.328125,-25 0.984375,-25 L13.9688,-25 C14.6875,-25 15.0469,-24.6771 15.0469,-24.0313 L15.0469,-0.984375 C15.0469,-0.328125 14.6875,0 13.9688,0"/>
<path class="Tempo" d="M86.1587,31.5639 C87.7212,30.6732 88.7056,30.3451 89.3462,30.3451 C89.9243,30.3451 90.2681,30.6107 90.4712,30.9857 C90.6118,31.1889 90.6743,31.392 90.6743,31.5951 C90.6743,32.2045 90.0337,32.9857 87.815,34.4232 C86.3931,35.3764 85.44,35.7045 84.7525,35.7045 C84.0806,35.7045 83.7056,35.3764 83.5025,35.0014 C83.3931,34.7982 83.2993,34.5951 83.2993,34.392 C83.2993,33.7045 83.9712,32.8139 86.1587,31.5639 M91.6587,14.392 L90.8462,14.392 L90.8462,29.767 C90.2993,29.3139 89.5181,29.0482 88.565,29.0482 C83.8462,29.0482 82.3775,32.6889 82.3775,34.3139 C82.3775,35.9857 83.7056,36.9389 85.44,36.9389 C90.6118,36.9389 91.6587,32.7514 91.6587,31.6732 L91.6587,14.392 "/>
<path class="Tempo" d="M121.252,25.9232 L102.487,25.9232 L102.487,22.6576 L121.252,22.6576 L121.252,25.9232 M121.252,34.2201 L102.487,34.2201 L102.487,30.9545 L121.252,30.9545 L121.252,34.2201 M137.471,17.517 C137.2,17.517 136.877,17.5743 136.502,17.6889 C136.127,17.8034 135.732,17.9415 135.315,18.1029 C134.898,18.2644 134.654,18.3555 134.581,18.3764 L134.581,17.4857 L143.159,13.7826 L143.737,13.7826 L143.737,33.1576 C143.737,34.4701 143.963,35.3269 144.417,35.7279 C144.87,36.129 145.867,36.3399 147.409,36.3607 L147.409,37.1732 L134.659,37.1732 L134.659,36.3607 C136.336,36.3399 137.43,36.1185 137.94,35.6967 C138.45,35.2748 138.706,34.3607 138.706,32.9545 L138.706,19.8764 C138.706,18.3034 138.294,17.517 137.471,17.517 M150.331,31.8139 C150.331,30.2514 150.779,29.0508 151.674,28.2123 C152.57,27.3738 153.82,26.6837 155.424,26.142 C153.747,25.142 152.542,24.1394 151.807,23.1342 C151.073,22.129 150.706,20.9909 150.706,19.7201 C150.706,17.9389 151.401,16.504 152.792,15.4154 C154.182,14.3269 156.023,13.7826 158.315,13.7826 C160.336,13.7826 161.948,14.2253 163.151,15.1107 C164.354,15.9962 164.956,17.1941 164.956,18.7045 C164.956,19.7878 164.591,20.7045 163.862,21.4545 C163.133,22.2045 161.956,22.8607 160.331,23.4232 C162.143,24.5795 163.445,25.7279 164.237,26.8685 C165.029,28.0092 165.424,29.3191 165.424,30.7982 C165.424,32.8399 164.698,34.4857 163.245,35.7357 C161.792,36.9857 159.888,37.6107 157.534,37.6107 C155.377,37.6107 153.638,37.0769 152.315,36.0092 C150.992,34.9415 150.331,33.543 150.331,31.8139 M159.502,22.8139 C160.075,22.0639 160.453,21.4284 160.635,20.9076 C160.818,20.3868 160.909,19.7305 160.909,18.9389 C160.909,17.6055 160.648,16.5769 160.127,15.8529 C159.607,15.129 158.867,14.767 157.909,14.767 C157.117,14.767 156.45,15.0378 155.909,15.5795 C155.367,16.1212 155.096,16.7878 155.096,17.5795 C155.096,19.5482 156.565,21.293 159.502,22.8139 M156.174,26.7514 C155.497,27.7514 155.039,28.5899 154.799,29.267 C154.56,29.9441 154.44,30.7462 154.44,31.6732 C154.44,33.1941 154.729,34.3764 155.307,35.2201 C155.885,36.0639 156.695,36.4857 157.737,36.4857 C158.643,36.4857 159.364,36.1576 159.901,35.5014 C160.437,34.8451 160.706,33.9545 160.706,32.8295 C160.706,31.5795 160.417,30.5639 159.838,29.7826 C159.26,29.0014 158.039,27.9909 156.174,26.7514 M167.19,25.6107 C167.19,22.2774 167.927,19.4727 169.401,17.1967 C170.875,14.9206 172.7,13.7826 174.877,13.7826 C177.075,13.7826 178.906,14.9206 180.37,17.1967 C181.833,19.4727 182.565,22.3139 182.565,25.7201 C182.565,29.1368 181.838,31.9727 180.385,34.2279 C178.932,36.4831 177.107,37.6107 174.909,37.6107 C172.648,37.6107 170.797,36.4883 169.354,34.2435 C167.911,31.9988 167.19,29.1212 167.19,25.6107 M174.909,36.6576 C175.659,36.6576 176.226,36.1498 176.612,35.1342 C176.997,34.1185 177.19,32.2826 177.19,29.6264 L177.19,21.8451 C177.19,19.3243 177.008,17.5092 176.643,16.3998 C176.279,15.2904 175.68,14.7357 174.846,14.7357 C174.023,14.7357 173.437,15.28 173.088,16.3685 C172.739,17.4571 172.565,19.2826 172.565,21.8451 L172.565,29.6264 C172.565,32.1368 172.747,33.9363 173.112,35.0248 C173.476,36.1133 174.075,36.6576 174.909,36.6576"/>
</svg>
