<?xml version="1.0" encoding="UTF-8" standalone="no"?>
<svg width="637.794px" height="765.353px" viewBox="0 0 637.794 765.353"
 xmlns="http://www.w3.org/2000/svg" xmlns:xlink="http://www.w3.org/1999/xlink" version="1.2" baseProfile="tiny">
<title>harmonicminor (86)</title>
<desc>Generated by MuseScore 3.4.2</desc>
<polyline class="StaffLines" fill="none" stroke="#000000" stroke-width="1.13" stroke-linejoin="bevel" points="14.1732,54.7087 623.621,54.7087"/>
<polyline class="StaffLines" fill="none" stroke="#000000" stroke-width="1.13" stroke-linejoin="bevel" points="14.1732,68.8819 623.621,68.8819"/>
<polyline class="StaffLines" fill="none" stroke="#000000" stroke-width="1.13" stroke-linejoin="bevel" points="14.1732,83.0551 623.621,83.0551"/>
<polyline class="StaffLines" fill="none" stroke="#000000" stroke-width="1.13" stroke-linejoin="bevel" points="14.1732,97.2284 623.621,97.2284"/>
<polyline class="StaffLines" fill="none" stroke="#000000" stroke-width="1.13" stroke-linejoin="bevel" points="14.1732,111.402 623.621,111.402"/>
<polyline class="StaffLines" fill="none" stroke="#000000" stroke-width="1.13" stroke-linejoin="bevel" points="14.1732,189.354 623.621,189.354"/>
<polyline class="StaffLines" fill="none" stroke="#000000" stroke-width="1.13" stroke-linejoin="bevel" points="14.1732,203.528 623.621,203.528"/>
<polyline class="StaffLines" fill="none" stroke="#000000" stroke-width="1.13" stroke-linejoin="bevel" points="14.1732,217.701 623.621,217.701"/>
<polyline class="StaffLines" fill="none" stroke="#000000" stroke-width="1.13" stroke-linejoin="bevel" points="14.1732,231.874 623.621,231.874"/>
<polyline class="StaffLines" fill="none" stroke="#000000" stroke-width="1.13" stroke-linejoin="bevel" points="14.1732,246.047 623.621,246.047"/>
<polyline class="StaffLines" fill="none" stroke="#000000" stroke-width="1.13" stroke-linejoin="bevel" points="14.1732,324 623.621,324"/>
<polyline class="StaffLines" fill="none" stroke="#000000" stroke-width="1.13" stroke-linejoin="bevel" points="14.1732,338.173 623.621,338.173"/>
<polyline class="StaffLines" fill="none" stroke="#000000" stroke-width="1.13" stroke-linejoin="bevel" points="14.1732,352.346 623.621,352.346"/>
<polyline class="StaffLines" fill="none" stroke="#000000" stroke-width="1.13" stroke-linejoin="bevel" points="14.1732,366.52 623.621,366.52"/>
<polyline class="StaffLines" fill="none" stroke="#000000" stroke-width="1.13" stroke-linejoin="bevel" points="14.1732,380.693 623.621,380.693"/>
<polyline class="StaffLines" fill="none" stroke="#000000" stroke-width="1.13" stroke-linejoin="bevel" points="14.1732,458.646 623.621,458.646"/>
<polyline class="StaffLines" fill="none" stroke="#000000" stroke-width="1.13" stroke-linejoin="bevel" points="14.1732,483.449 623.621,483.449"/>
<polyline class="StaffLines" fill="none" stroke="#000000" stroke-width="1.13" stroke-linejoin="bevel" points="14.1732,508.252 623.621,508.252"/>
<polyline class="StaffLines" fill="none" stroke="#000000" stroke-width="1.13" stroke-linejoin="bevel" points="14.1732,533.055 623.621,533.055"/>
<polyline class="StaffLines" fill="none" stroke="#000000" stroke-width="1.13" stroke-linejoin="bevel" points="14.1732,611.008 623.621,611.008"/>
<polyline class="StaffLines" fill="none" stroke="#000000" stroke-width="1.13" stroke-linejoin="bevel" points="14.1732,635.811 623.621,635.811"/>
<polyline class="StaffLines" fill="none" stroke="#000000" stroke-width="1.13" stroke-linejoin="bevel" points="14.1732,660.614 623.621,660.614"/>
<polyline class="StaffLines" fill="none" stroke="#000000" stroke-width="1.13" stroke-linejoin="bevel" points="14.1732,685.417 623.621,685.417"/>
<polyline class="StaffLines" fill="none" stroke="#000000" stroke-width="1.13" stroke-linejoin="bevel" points="14.1732,710.22 623.621,710.22"/>
<polyline class="StaffLines" fill="none" stroke="#000000" stroke-width="1.13" stroke-linejoin="bevel" points="14.1732,735.024 623.621,735.024"/>
<path class="Accidental" transform="matrix(0.566929,0,0,0.566929,102.818,373.606)" d="M4.59375,-4.10938 L4.59375,3.60938 C4.59375,6.34896 4.72396,8.53125 4.98438,10.1563 C7.13021,8.33333 8.66146,6.96875 9.57813,6.0625 C10.6198,5.02083 11.6615,3.58594 12.7031,1.75781 C13.7448,-0.0703125 14.2656,-1.89583 14.2656,-3.71875 C14.2656,-5.54167 13.875,-7.10417 13.0938,-8.40625 C12.3125,-9.70833 11.2708,-10.3594 9.96875,-10.3594 C8.40625,-10.3594 7.10417,-9.77083 6.0625,-8.59375 C5.08333,-7.29167 4.59375,-5.79688 4.59375,-4.10938 M0.484375,13.7656 L-0.78125,-45.7031 C0.135417,-46.224 1.04948,-46.4844 1.96094,-46.4844 C2.8724,-46.4844 3.78125,-46.224 4.6875,-45.7031 L3.90625,-11.2344 C6.57292,-13.5156 9.63542,-14.6563 13.0938,-14.6563 C15.625,-14.6563 17.737,-13.6146 19.4297,-11.5313 C21.1224,-9.44792 21.9688,-7.06771 21.9688,-4.39063 C21.9688,-2.70313 21.4167,-0.911458 20.3125,0.984375 C19.2708,2.73438 18.1667,4.09896 17,5.07813 C16.3438,5.59896 14.6823,6.90104 12.0156,8.98438 C11.2344,9.56771 10.3073,10.25 9.23438,11.0313 C8.16146,11.8125 7.49479,12.3021 7.23438,12.5 C6.77604,12.7604 6.34896,13.2813 5.95313,14.0625 C5.50521,14.7188 4.98438,15.2708 4.39063,15.7188 C3.94271,16.1146 3.39323,16.3125 2.74219,16.3125 C2.09115,16.3125 1.56771,16.0833 1.17188,15.625 C0.713542,15.1667 0.484375,14.5469 0.484375,13.7656"/>
<path class="Accidental" transform="matrix(0.566929,0,0,0.566929,165.674,366.52)" d="M4.59375,-4.10938 L4.59375,3.60938 C4.59375,6.34896 4.72396,8.53125 4.98438,10.1563 C7.13021,8.33333 8.66146,6.96875 9.57813,6.0625 C10.6198,5.02083 11.6615,3.58594 12.7031,1.75781 C13.7448,-0.0703125 14.2656,-1.89583 14.2656,-3.71875 C14.2656,-5.54167 13.875,-7.10417 13.0938,-8.40625 C12.3125,-9.70833 11.2708,-10.3594 9.96875,-10.3594 C8.40625,-10.3594 7.10417,-9.77083 6.0625,-8.59375 C5.08333,-7.29167 4.59375,-5.79688 4.59375,-4.10938 M0.484375,13.7656 L-0.78125,-45.7031 C0.135417,-46.224 1.04948,-46.4844 1.96094,-46.4844 C2.8724,-46.4844 3.78125,-46.224 4.6875,-45.7031 L3.90625,-11.2344 C6.57292,-13.5156 9.63542,-14.6563 13.0938,-14.6563 C15.625,-14.6563 17.737,-13.6146 19.4297,-11.5313 C21.1224,-9.44792 21.9688,-7.06771 21.9688,-4.39063 C21.9688,-2.70313 21.4167,-0.911458 20.3125,0.984375 C19.2708,2.73438 18.1667,4.09896 17,5.07813 C16.3438,5.59896 14.6823,6.90104 12.0156,8.98438 C11.2344,9.56771 10.3073,10.25 9.23438,11.0313 C8.16146,11.8125 7.49479,12.3021 7.23438,12.5 C6.77604,12.7604 6.34896,13.2813 5.95313,14.0625 C5.50521,14.7188 4.98438,15.2708 4.39063,15.7188 C3.94271,16.1146 3.39323,16.3125 2.74219,16.3125 C2.09115,16.3125 1.56771,16.0833 1.17188,15.625 C0.713542,15.1667 0.484375,14.5469 0.484375,13.7656"/>
<path class="Accidental" transform="matrix(0.566929,0,0,0.566929,228.53,359.433)" d="M4.59375,-4.10938 L4.59375,3.60938 C4.59375,6.34896 4.72396,8.53125 4.98438,10.1563 C7.13021,8.33333 8.66146,6.96875 9.57813,6.0625 C10.6198,5.02083 11.6615,3.58594 12.7031,1.75781 C13.7448,-0.0703125 14.2656,-1.89583 14.2656,-3.71875 C14.2656,-5.54167 13.875,-7.10417 13.0938,-8.40625 C12.3125,-9.70833 11.2708,-10.3594 9.96875,-10.3594 C8.40625,-10.3594 7.10417,-9.77083 6.0625,-8.59375 C5.08333,-7.29167 4.59375,-5.79688 4.59375,-4.10938 M0.484375,13.7656 L-0.78125,-45.7031 C0.135417,-46.224 1.04948,-46.4844 1.96094,-46.4844 C2.8724,-46.4844 3.78125,-46.224 4.6875,-45.7031 L3.90625,-11.2344 C6.57292,-13.5156 9.63542,-14.6563 13.0938,-14.6563 C15.625,-14.6563 17.737,-13.6146 19.4297,-11.5313 C21.1224,-9.44792 21.9688,-7.06771 21.9688,-4.39063 C21.9688,-2.70313 21.4167,-0.911458 20.3125,0.984375 C19.2708,2.73438 18.1667,4.09896 17,5.07813 C16.3438,5.59896 14.6823,6.90104 12.0156,8.98438 C11.2344,9.56771 10.3073,10.25 9.23438,11.0313 C8.16146,11.8125 7.49479,12.3021 7.23438,12.5 C6.77604,12.7604 6.34896,13.2813 5.95313,14.0625 C5.50521,14.7188 4.98438,15.2708 4.39063,15.7188 C3.94271,16.1146 3.39323,16.3125 2.74219,16.3125 C2.09115,16.3125 1.56771,16.0833 1.17188,15.625 C0.713542,15.1667 0.484375,14.5469 0.484375,13.7656"/>
<path class="Accidental" transform="matrix(0.566929,0,0,0.566929,291.386,352.346)" d="M4.59375,-4.10938 L4.59375,3.60938 C4.59375,6.34896 4.72396,8.53125 4.98438,10.1563 C7.13021,8.33333 8.66146,6.96875 9.57813,6.0625 C10.6198,5.02083 11.6615,3.58594 12.7031,1.75781 C13.7448,-0.0703125 14.2656,-1.89583 14.2656,-3.71875 C14.2656,-5.54167 13.875,-7.10417 13.0938,-8.40625 C12.3125,-9.70833 11.2708,-10.3594 9.96875,-10.3594 C8.40625,-10.3594 7.10417,-9.77083 6.0625,-8.59375 C5.08333,-7.29167 4.59375,-5.79688 4.59375,-4.10938 M0.484375,13.7656 L-0.78125,-45.7031 C0.135417,-46.224 1.04948,-46.4844 1.96094,-46.4844 C2.8724,-46.4844 3.78125,-46.224 4.6875,-45.7031 L3.90625,-11.2344 C6.57292,-13.5156 9.63542,-14.6563 13.0938,-14.6563 C15.625,-14.6563 17.737,-13.6146 19.4297,-11.5313 C21.1224,-9.44792 21.9688,-7.06771 21.9688,-4.39063 C21.9688,-2.70313 21.4167,-0.911458 20.3125,0.984375 C19.2708,2.73438 18.1667,4.09896 17,5.07813 C16.3438,5.59896 14.6823,6.90104 12.0156,8.98438 C11.2344,9.56771 10.3073,10.25 9.23438,11.0313 C8.16146,11.8125 7.49479,12.3021 7.23438,12.5 C6.77604,12.7604 6.34896,13.2813 5.95313,14.0625 C5.50521,14.7188 4.98438,15.2708 4.39063,15.7188 C3.94271,16.1146 3.39323,16.3125 2.74219,16.3125 C2.09115,16.3125 1.56771,16.0833 1.17188,15.625 C0.713542,15.1667 0.484375,14.5469 0.484375,13.7656"/>
<path class="Accidental" transform="matrix(0.566929,0,0,0.566929,354.242,345.26)" d="M4.59375,-4.10938 L4.59375,3.60938 C4.59375,6.34896 4.72396,8.53125 4.98438,10.1563 C7.13021,8.33333 8.66146,6.96875 9.57813,6.0625 C10.6198,5.02083 11.6615,3.58594 12.7031,1.75781 C13.7448,-0.0703125 14.2656,-1.89583 14.2656,-3.71875 C14.2656,-5.54167 13.875,-7.10417 13.0938,-8.40625 C12.3125,-9.70833 11.2708,-10.3594 9.96875,-10.3594 C8.40625,-10.3594 7.10417,-9.77083 6.0625,-8.59375 C5.08333,-7.29167 4.59375,-5.79688 4.59375,-4.10938 M0.484375,13.7656 L-0.78125,-45.7031 C0.135417,-46.224 1.04948,-46.4844 1.96094,-46.4844 C2.8724,-46.4844 3.78125,-46.224 4.6875,-45.7031 L3.90625,-11.2344 C6.57292,-13.5156 9.63542,-14.6563 13.0938,-14.6563 C15.625,-14.6563 17.737,-13.6146 19.4297,-11.5313 C21.1224,-9.44792 21.9688,-7.06771 21.9688,-4.39063 C21.9688,-2.70313 21.4167,-0.911458 20.3125,0.984375 C19.2708,2.73438 18.1667,4.09896 17,5.07813 C16.3438,5.59896 14.6823,6.90104 12.0156,8.98438 C11.2344,9.56771 10.3073,10.25 9.23438,11.0313 C8.16146,11.8125 7.49479,12.3021 7.23438,12.5 C6.77604,12.7604 6.34896,13.2813 5.95313,14.0625 C5.50521,14.7188 4.98438,15.2708 4.39063,15.7188 C3.94271,16.1146 3.39323,16.3125 2.74219,16.3125 C2.09115,16.3125 1.56771,16.0833 1.17188,15.625 C0.713542,15.1667 0.484375,14.5469 0.484375,13.7656"/>
<path class="Accidental" transform="matrix(0.566929,0,0,0.566929,417.097,338.173)" d="M4.59375,-4.10938 L4.59375,3.60938 C4.59375,6.34896 4.72396,8.53125 4.98438,10.1563 C7.13021,8.33333 8.66146,6.96875 9.57813,6.0625 C10.6198,5.02083 11.6615,3.58594 12.7031,1.75781 C13.7448,-0.0703125 14.2656,-1.89583 14.2656,-3.71875 C14.2656,-5.54167 13.875,-7.10417 13.0938,-8.40625 C12.3125,-9.70833 11.2708,-10.3594 9.96875,-10.3594 C8.40625,-10.3594 7.10417,-9.77083 6.0625,-8.59375 C5.08333,-7.29167 4.59375,-5.79688 4.59375,-4.10938 M0.484375,13.7656 L-0.78125,-45.7031 C0.135417,-46.224 1.04948,-46.4844 1.96094,-46.4844 C2.8724,-46.4844 3.78125,-46.224 4.6875,-45.7031 L3.90625,-11.2344 C6.57292,-13.5156 9.63542,-14.6563 13.0938,-14.6563 C15.625,-14.6563 17.737,-13.6146 19.4297,-11.5313 C21.1224,-9.44792 21.9688,-7.06771 21.9688,-4.39063 C21.9688,-2.70313 21.4167,-0.911458 20.3125,0.984375 C19.2708,2.73438 18.1667,4.09896 17,5.07813 C16.3438,5.59896 14.6823,6.90104 12.0156,8.98438 C11.2344,9.56771 10.3073,10.25 9.23438,11.0313 C8.16146,11.8125 7.49479,12.3021 7.23438,12.5 C6.77604,12.7604 6.34896,13.2813 5.95313,14.0625 C5.50521,14.7188 4.98438,15.2708 4.39063,15.7188 C3.94271,16.1146 3.39323,16.3125 2.74219,16.3125 C2.09115,16.3125 1.56771,16.0833 1.17188,15.625 C0.713542,15.1667 0.484375,14.5469 0.484375,13.7656"/>
<path class="Accidental" transform="matrix(0.566929,0,0,0.566929,542.809,324)" d="M4.59375,-4.10938 L4.59375,3.60938 C4.59375,6.34896 4.72396,8.53125 4.98438,10.1563 C7.13021,8.33333 8.66146,6.96875 9.57813,6.0625 C10.6198,5.02083 11.6615,3.58594 12.7031,1.75781 C13.7448,-0.0703125 14.2656,-1.89583 14.2656,-3.71875 C14.2656,-5.54167 13.875,-7.10417 13.0938,-8.40625 C12.3125,-9.70833 11.2708,-10.3594 9.96875,-10.3594 C8.40625,-10.3594 7.10417,-9.77083 6.0625,-8.59375 C5.08333,-7.29167 4.59375,-5.79688 4.59375,-4.10938 M0.484375,13.7656 L-0.78125,-45.7031 C0.135417,-46.224 1.04948,-46.4844 1.96094,-46.4844 C2.8724,-46.4844 3.78125,-46.224 4.6875,-45.7031 L3.90625,-11.2344 C6.57292,-13.5156 9.63542,-14.6563 13.0938,-14.6563 C15.625,-14.6563 17.737,-13.6146 19.4297,-11.5313 C21.1224,-9.44792 21.9688,-7.06771 21.9688,-4.39063 C21.9688,-2.70313 21.4167,-0.911458 20.3125,0.984375 C19.2708,2.73438 18.1667,4.09896 17,5.07813 C16.3438,5.59896 14.6823,6.90104 12.0156,8.98438 C11.2344,9.56771 10.3073,10.25 9.23438,11.0313 C8.16146,11.8125 7.49479,12.3021 7.23438,12.5 C6.77604,12.7604 6.34896,13.2813 5.95313,14.0625 C5.50521,14.7188 4.98438,15.2708 4.39063,15.7188 C3.94271,16.1146 3.39323,16.3125 2.74219,16.3125 C2.09115,16.3125 1.56771,16.0833 1.17188,15.625 C0.713542,15.1667 0.484375,14.5469 0.484375,13.7656"/>
<path class="Accidental" transform="matrix(0.566929,0,0,0.566929,102.818,231.874)" d="M4.59375,-4.10938 L4.59375,3.60938 C4.59375,6.34896 4.72396,8.53125 4.98438,10.1563 C7.13021,8.33333 8.66146,6.96875 9.57813,6.0625 C10.6198,5.02083 11.6615,3.58594 12.7031,1.75781 C13.7448,-0.0703125 14.2656,-1.89583 14.2656,-3.71875 C14.2656,-5.54167 13.875,-7.10417 13.0938,-8.40625 C12.3125,-9.70833 11.2708,-10.3594 9.96875,-10.3594 C8.40625,-10.3594 7.10417,-9.77083 6.0625,-8.59375 C5.08333,-7.29167 4.59375,-5.79688 4.59375,-4.10938 M0.484375,13.7656 L-0.78125,-45.7031 C0.135417,-46.224 1.04948,-46.4844 1.96094,-46.4844 C2.8724,-46.4844 3.78125,-46.224 4.6875,-45.7031 L3.90625,-11.2344 C6.57292,-13.5156 9.63542,-14.6563 13.0938,-14.6563 C15.625,-14.6563 17.737,-13.6146 19.4297,-11.5313 C21.1224,-9.44792 21.9688,-7.06771 21.9688,-4.39063 C21.9688,-2.70313 21.4167,-0.911458 20.3125,0.984375 C19.2708,2.73438 18.1667,4.09896 17,5.07813 C16.3438,5.59896 14.6823,6.90104 12.0156,8.98438 C11.2344,9.56771 10.3073,10.25 9.23438,11.0313 C8.16146,11.8125 7.49479,12.3021 7.23438,12.5 C6.77604,12.7604 6.34896,13.2813 5.95313,14.0625 C5.50521,14.7188 4.98438,15.2708 4.39063,15.7188 C3.94271,16.1146 3.39323,16.3125 2.74219,16.3125 C2.09115,16.3125 1.56771,16.0833 1.17188,15.625 C0.713542,15.1667 0.484375,14.5469 0.484375,13.7656"/>
<path class="Accidental" transform="matrix(0.566929,0,0,0.566929,165.674,224.787)" d="M4.59375,-4.10938 L4.59375,3.60938 C4.59375,6.34896 4.72396,8.53125 4.98438,10.1563 C7.13021,8.33333 8.66146,6.96875 9.57813,6.0625 C10.6198,5.02083 11.6615,3.58594 12.7031,1.75781 C13.7448,-0.0703125 14.2656,-1.89583 14.2656,-3.71875 C14.2656,-5.54167 13.875,-7.10417 13.0938,-8.40625 C12.3125,-9.70833 11.2708,-10.3594 9.96875,-10.3594 C8.40625,-10.3594 7.10417,-9.77083 6.0625,-8.59375 C5.08333,-7.29167 4.59375,-5.79688 4.59375,-4.10938 M0.484375,13.7656 L-0.78125,-45.7031 C0.135417,-46.224 1.04948,-46.4844 1.96094,-46.4844 C2.8724,-46.4844 3.78125,-46.224 4.6875,-45.7031 L3.90625,-11.2344 C6.57292,-13.5156 9.63542,-14.6563 13.0938,-14.6563 C15.625,-14.6563 17.737,-13.6146 19.4297,-11.5313 C21.1224,-9.44792 21.9688,-7.06771 21.9688,-4.39063 C21.9688,-2.70313 21.4167,-0.911458 20.3125,0.984375 C19.2708,2.73438 18.1667,4.09896 17,5.07813 C16.3438,5.59896 14.6823,6.90104 12.0156,8.98438 C11.2344,9.56771 10.3073,10.25 9.23438,11.0313 C8.16146,11.8125 7.49479,12.3021 7.23438,12.5 C6.77604,12.7604 6.34896,13.2813 5.95313,14.0625 C5.50521,14.7188 4.98438,15.2708 4.39063,15.7188 C3.94271,16.1146 3.39323,16.3125 2.74219,16.3125 C2.09115,16.3125 1.56771,16.0833 1.17188,15.625 C0.713542,15.1667 0.484375,14.5469 0.484375,13.7656"/>
<path class="Accidental" transform="matrix(0.566929,0,0,0.566929,228.53,217.701)" d="M4.59375,-4.10938 L4.59375,3.60938 C4.59375,6.34896 4.72396,8.53125 4.98438,10.1563 C7.13021,8.33333 8.66146,6.96875 9.57813,6.0625 C10.6198,5.02083 11.6615,3.58594 12.7031,1.75781 C13.7448,-0.0703125 14.2656,-1.89583 14.2656,-3.71875 C14.2656,-5.54167 13.875,-7.10417 13.0938,-8.40625 C12.3125,-9.70833 11.2708,-10.3594 9.96875,-10.3594 C8.40625,-10.3594 7.10417,-9.77083 6.0625,-8.59375 C5.08333,-7.29167 4.59375,-5.79688 4.59375,-4.10938 M0.484375,13.7656 L-0.78125,-45.7031 C0.135417,-46.224 1.04948,-46.4844 1.96094,-46.4844 C2.8724,-46.4844 3.78125,-46.224 4.6875,-45.7031 L3.90625,-11.2344 C6.57292,-13.5156 9.63542,-14.6563 13.0938,-14.6563 C15.625,-14.6563 17.737,-13.6146 19.4297,-11.5313 C21.1224,-9.44792 21.9688,-7.06771 21.9688,-4.39063 C21.9688,-2.70313 21.4167,-0.911458 20.3125,0.984375 C19.2708,2.73438 18.1667,4.09896 17,5.07813 C16.3438,5.59896 14.6823,6.90104 12.0156,8.98438 C11.2344,9.56771 10.3073,10.25 9.23438,11.0313 C8.16146,11.8125 7.49479,12.3021 7.23438,12.5 C6.77604,12.7604 6.34896,13.2813 5.95313,14.0625 C5.50521,14.7188 4.98438,15.2708 4.39063,15.7188 C3.94271,16.1146 3.39323,16.3125 2.74219,16.3125 C2.09115,16.3125 1.56771,16.0833 1.17188,15.625 C0.713542,15.1667 0.484375,14.5469 0.484375,13.7656"/>
<path class="Accidental" transform="matrix(0.566929,0,0,0.566929,291.386,210.614)" d="M4.59375,-4.10938 L4.59375,3.60938 C4.59375,6.34896 4.72396,8.53125 4.98438,10.1563 C7.13021,8.33333 8.66146,6.96875 9.57813,6.0625 C10.6198,5.02083 11.6615,3.58594 12.7031,1.75781 C13.7448,-0.0703125 14.2656,-1.89583 14.2656,-3.71875 C14.2656,-5.54167 13.875,-7.10417 13.0938,-8.40625 C12.3125,-9.70833 11.2708,-10.3594 9.96875,-10.3594 C8.40625,-10.3594 7.10417,-9.77083 6.0625,-8.59375 C5.08333,-7.29167 4.59375,-5.79688 4.59375,-4.10938 M0.484375,13.7656 L-0.78125,-45.7031 C0.135417,-46.224 1.04948,-46.4844 1.96094,-46.4844 C2.8724,-46.4844 3.78125,-46.224 4.6875,-45.7031 L3.90625,-11.2344 C6.57292,-13.5156 9.63542,-14.6563 13.0938,-14.6563 C15.625,-14.6563 17.737,-13.6146 19.4297,-11.5313 C21.1224,-9.44792 21.9688,-7.06771 21.9688,-4.39063 C21.9688,-2.70313 21.4167,-0.911458 20.3125,0.984375 C19.2708,2.73438 18.1667,4.09896 17,5.07813 C16.3438,5.59896 14.6823,6.90104 12.0156,8.98438 C11.2344,9.56771 10.3073,10.25 9.23438,11.0313 C8.16146,11.8125 7.49479,12.3021 7.23438,12.5 C6.77604,12.7604 6.34896,13.2813 5.95313,14.0625 C5.50521,14.7188 4.98438,15.2708 4.39063,15.7188 C3.94271,16.1146 3.39323,16.3125 2.74219,16.3125 C2.09115,16.3125 1.56771,16.0833 1.17188,15.625 C0.713542,15.1667 0.484375,14.5469 0.484375,13.7656"/>
<path class="Accidental" transform="matrix(0.566929,0,0,0.566929,354.242,203.528)" d="M4.59375,-4.10938 L4.59375,3.60938 C4.59375,6.34896 4.72396,8.53125 4.98438,10.1563 C7.13021,8.33333 8.66146,6.96875 9.57813,6.0625 C10.6198,5.02083 11.6615,3.58594 12.7031,1.75781 C13.7448,-0.0703125 14.2656,-1.89583 14.2656,-3.71875 C14.2656,-5.54167 13.875,-7.10417 13.0938,-8.40625 C12.3125,-9.70833 11.2708,-10.3594 9.96875,-10.3594 C8.40625,-10.3594 7.10417,-9.77083 6.0625,-8.59375 C5.08333,-7.29167 4.59375,-5.79688 4.59375,-4.10938 M0.484375,13.7656 L-0.78125,-45.7031 C0.135417,-46.224 1.04948,-46.4844 1.96094,-46.4844 C2.8724,-46.4844 3.78125,-46.224 4.6875,-45.7031 L3.90625,-11.2344 C6.57292,-13.5156 9.63542,-14.6563 13.0938,-14.6563 C15.625,-14.6563 17.737,-13.6146 19.4297,-11.5313 C21.1224,-9.44792 21.9688,-7.06771 21.9688,-4.39063 C21.9688,-2.70313 21.4167,-0.911458 20.3125,0.984375 C19.2708,2.73438 18.1667,4.09896 17,5.07813 C16.3438,5.59896 14.6823,6.90104 12.0156,8.98438 C11.2344,9.56771 10.3073,10.25 9.23438,11.0313 C8.16146,11.8125 7.49479,12.3021 7.23438,12.5 C6.77604,12.7604 6.34896,13.2813 5.95313,14.0625 C5.50521,14.7188 4.98438,15.2708 4.39063,15.7188 C3.94271,16.1146 3.39323,16.3125 2.74219,16.3125 C2.09115,16.3125 1.56771,16.0833 1.17188,15.625 C0.713542,15.1667 0.484375,14.5469 0.484375,13.7656"/>
<path class="Accidental" transform="matrix(0.566929,0,0,0.566929,417.097,196.441)" d="M4.59375,-4.10938 L4.59375,3.60938 C4.59375,6.34896 4.72396,8.53125 4.98438,10.1563 C7.13021,8.33333 8.66146,6.96875 9.57813,6.0625 C10.6198,5.02083 11.6615,3.58594 12.7031,1.75781 C13.7448,-0.0703125 14.2656,-1.89583 14.2656,-3.71875 C14.2656,-5.54167 13.875,-7.10417 13.0938,-8.40625 C12.3125,-9.70833 11.2708,-10.3594 9.96875,-10.3594 C8.40625,-10.3594 7.10417,-9.77083 6.0625,-8.59375 C5.08333,-7.29167 4.59375,-5.79688 4.59375,-4.10938 M0.484375,13.7656 L-0.78125,-45.7031 C0.135417,-46.224 1.04948,-46.4844 1.96094,-46.4844 C2.8724,-46.4844 3.78125,-46.224 4.6875,-45.7031 L3.90625,-11.2344 C6.57292,-13.5156 9.63542,-14.6563 13.0938,-14.6563 C15.625,-14.6563 17.737,-13.6146 19.4297,-11.5313 C21.1224,-9.44792 21.9688,-7.06771 21.9688,-4.39063 C21.9688,-2.70313 21.4167,-0.911458 20.3125,0.984375 C19.2708,2.73438 18.1667,4.09896 17,5.07813 C16.3438,5.59896 14.6823,6.90104 12.0156,8.98438 C11.2344,9.56771 10.3073,10.25 9.23438,11.0313 C8.16146,11.8125 7.49479,12.3021 7.23438,12.5 C6.77604,12.7604 6.34896,13.2813 5.95313,14.0625 C5.50521,14.7188 4.98438,15.2708 4.39063,15.7188 C3.94271,16.1146 3.39323,16.3125 2.74219,16.3125 C2.09115,16.3125 1.56771,16.0833 1.17188,15.625 C0.713542,15.1667 0.484375,14.5469 0.484375,13.7656"/>
<path class="Accidental" transform="matrix(0.566929,0,0,0.566929,542.809,182.268)" d="M4.59375,-4.10938 L4.59375,3.60938 C4.59375,6.34896 4.72396,8.53125 4.98438,10.1563 C7.13021,8.33333 8.66146,6.96875 9.57813,6.0625 C10.6198,5.02083 11.6615,3.58594 12.7031,1.75781 C13.7448,-0.0703125 14.2656,-1.89583 14.2656,-3.71875 C14.2656,-5.54167 13.875,-7.10417 13.0938,-8.40625 C12.3125,-9.70833 11.2708,-10.3594 9.96875,-10.3594 C8.40625,-10.3594 7.10417,-9.77083 6.0625,-8.59375 C5.08333,-7.29167 4.59375,-5.79688 4.59375,-4.10938 M0.484375,13.7656 L-0.78125,-45.7031 C0.135417,-46.224 1.04948,-46.4844 1.96094,-46.4844 C2.8724,-46.4844 3.78125,-46.224 4.6875,-45.7031 L3.90625,-11.2344 C6.57292,-13.5156 9.63542,-14.6563 13.0938,-14.6563 C15.625,-14.6563 17.737,-13.6146 19.4297,-11.5313 C21.1224,-9.44792 21.9688,-7.06771 21.9688,-4.39063 C21.9688,-2.70313 21.4167,-0.911458 20.3125,0.984375 C19.2708,2.73438 18.1667,4.09896 17,5.07813 C16.3438,5.59896 14.6823,6.90104 12.0156,8.98438 C11.2344,9.56771 10.3073,10.25 9.23438,11.0313 C8.16146,11.8125 7.49479,12.3021 7.23438,12.5 C6.77604,12.7604 6.34896,13.2813 5.95313,14.0625 C5.50521,14.7188 4.98438,15.2708 4.39063,15.7188 C3.94271,16.1146 3.39323,16.3125 2.74219,16.3125 C2.09115,16.3125 1.56771,16.0833 1.17188,15.625 C0.713542,15.1667 0.484375,14.5469 0.484375,13.7656"/>
<path class="Accidental" transform="matrix(0.566929,0,0,0.566929,102.818,90.1417)" d="M4.59375,-4.10938 L4.59375,3.60938 C4.59375,6.34896 4.72396,8.53125 4.98438,10.1563 C7.13021,8.33333 8.66146,6.96875 9.57813,6.0625 C10.6198,5.02083 11.6615,3.58594 12.7031,1.75781 C13.7448,-0.0703125 14.2656,-1.89583 14.2656,-3.71875 C14.2656,-5.54167 13.875,-7.10417 13.0938,-8.40625 C12.3125,-9.70833 11.2708,-10.3594 9.96875,-10.3594 C8.40625,-10.3594 7.10417,-9.77083 6.0625,-8.59375 C5.08333,-7.29167 4.59375,-5.79688 4.59375,-4.10938 M0.484375,13.7656 L-0.78125,-45.7031 C0.135417,-46.224 1.04948,-46.4844 1.96094,-46.4844 C2.8724,-46.4844 3.78125,-46.224 4.6875,-45.7031 L3.90625,-11.2344 C6.57292,-13.5156 9.63542,-14.6563 13.0938,-14.6563 C15.625,-14.6563 17.737,-13.6146 19.4297,-11.5313 C21.1224,-9.44792 21.9688,-7.06771 21.9688,-4.39063 C21.9688,-2.70313 21.4167,-0.911458 20.3125,0.984375 C19.2708,2.73438 18.1667,4.09896 17,5.07813 C16.3438,5.59896 14.6823,6.90104 12.0156,8.98438 C11.2344,9.56771 10.3073,10.25 9.23438,11.0313 C8.16146,11.8125 7.49479,12.3021 7.23438,12.5 C6.77604,12.7604 6.34896,13.2813 5.95313,14.0625 C5.50521,14.7188 4.98438,15.2708 4.39063,15.7188 C3.94271,16.1146 3.39323,16.3125 2.74219,16.3125 C2.09115,16.3125 1.56771,16.0833 1.17188,15.625 C0.713542,15.1667 0.484375,14.5469 0.484375,13.7656"/>
<path class="Accidental" transform="matrix(0.566929,0,0,0.566929,165.674,83.0551)" d="M4.59375,-4.10938 L4.59375,3.60938 C4.59375,6.34896 4.72396,8.53125 4.98438,10.1563 C7.13021,8.33333 8.66146,6.96875 9.57813,6.0625 C10.6198,5.02083 11.6615,3.58594 12.7031,1.75781 C13.7448,-0.0703125 14.2656,-1.89583 14.2656,-3.71875 C14.2656,-5.54167 13.875,-7.10417 13.0938,-8.40625 C12.3125,-9.70833 11.2708,-10.3594 9.96875,-10.3594 C8.40625,-10.3594 7.10417,-9.77083 6.0625,-8.59375 C5.08333,-7.29167 4.59375,-5.79688 4.59375,-4.10938 M0.484375,13.7656 L-0.78125,-45.7031 C0.135417,-46.224 1.04948,-46.4844 1.96094,-46.4844 C2.8724,-46.4844 3.78125,-46.224 4.6875,-45.7031 L3.90625,-11.2344 C6.57292,-13.5156 9.63542,-14.6563 13.0938,-14.6563 C15.625,-14.6563 17.737,-13.6146 19.4297,-11.5313 C21.1224,-9.44792 21.9688,-7.06771 21.9688,-4.39063 C21.9688,-2.70313 21.4167,-0.911458 20.3125,0.984375 C19.2708,2.73438 18.1667,4.09896 17,5.07813 C16.3438,5.59896 14.6823,6.90104 12.0156,8.98438 C11.2344,9.56771 10.3073,10.25 9.23438,11.0313 C8.16146,11.8125 7.49479,12.3021 7.23438,12.5 C6.77604,12.7604 6.34896,13.2813 5.95313,14.0625 C5.50521,14.7188 4.98438,15.2708 4.39063,15.7188 C3.94271,16.1146 3.39323,16.3125 2.74219,16.3125 C2.09115,16.3125 1.56771,16.0833 1.17188,15.625 C0.713542,15.1667 0.484375,14.5469 0.484375,13.7656"/>
<path class="Accidental" transform="matrix(0.566929,0,0,0.566929,228.53,75.9685)" d="M4.59375,-4.10938 L4.59375,3.60938 C4.59375,6.34896 4.72396,8.53125 4.98438,10.1563 C7.13021,8.33333 8.66146,6.96875 9.57813,6.0625 C10.6198,5.02083 11.6615,3.58594 12.7031,1.75781 C13.7448,-0.0703125 14.2656,-1.89583 14.2656,-3.71875 C14.2656,-5.54167 13.875,-7.10417 13.0938,-8.40625 C12.3125,-9.70833 11.2708,-10.3594 9.96875,-10.3594 C8.40625,-10.3594 7.10417,-9.77083 6.0625,-8.59375 C5.08333,-7.29167 4.59375,-5.79688 4.59375,-4.10938 M0.484375,13.7656 L-0.78125,-45.7031 C0.135417,-46.224 1.04948,-46.4844 1.96094,-46.4844 C2.8724,-46.4844 3.78125,-46.224 4.6875,-45.7031 L3.90625,-11.2344 C6.57292,-13.5156 9.63542,-14.6563 13.0938,-14.6563 C15.625,-14.6563 17.737,-13.6146 19.4297,-11.5313 C21.1224,-9.44792 21.9688,-7.06771 21.9688,-4.39063 C21.9688,-2.70313 21.4167,-0.911458 20.3125,0.984375 C19.2708,2.73438 18.1667,4.09896 17,5.07813 C16.3438,5.59896 14.6823,6.90104 12.0156,8.98438 C11.2344,9.56771 10.3073,10.25 9.23438,11.0313 C8.16146,11.8125 7.49479,12.3021 7.23438,12.5 C6.77604,12.7604 6.34896,13.2813 5.95313,14.0625 C5.50521,14.7188 4.98438,15.2708 4.39063,15.7188 C3.94271,16.1146 3.39323,16.3125 2.74219,16.3125 C2.09115,16.3125 1.56771,16.0833 1.17188,15.625 C0.713542,15.1667 0.484375,14.5469 0.484375,13.7656"/>
<path class="Accidental" transform="matrix(0.566929,0,0,0.566929,291.386,68.8819)" d="M4.59375,-4.10938 L4.59375,3.60938 C4.59375,6.34896 4.72396,8.53125 4.98438,10.1563 C7.13021,8.33333 8.66146,6.96875 9.57813,6.0625 C10.6198,5.02083 11.6615,3.58594 12.7031,1.75781 C13.7448,-0.0703125 14.2656,-1.89583 14.2656,-3.71875 C14.2656,-5.54167 13.875,-7.10417 13.0938,-8.40625 C12.3125,-9.70833 11.2708,-10.3594 9.96875,-10.3594 C8.40625,-10.3594 7.10417,-9.77083 6.0625,-8.59375 C5.08333,-7.29167 4.59375,-5.79688 4.59375,-4.10938 M0.484375,13.7656 L-0.78125,-45.7031 C0.135417,-46.224 1.04948,-46.4844 1.96094,-46.4844 C2.8724,-46.4844 3.78125,-46.224 4.6875,-45.7031 L3.90625,-11.2344 C6.57292,-13.5156 9.63542,-14.6563 13.0938,-14.6563 C15.625,-14.6563 17.737,-13.6146 19.4297,-11.5313 C21.1224,-9.44792 21.9688,-7.06771 21.9688,-4.39063 C21.9688,-2.70313 21.4167,-0.911458 20.3125,0.984375 C19.2708,2.73438 18.1667,4.09896 17,5.07813 C16.3438,5.59896 14.6823,6.90104 12.0156,8.98438 C11.2344,9.56771 10.3073,10.25 9.23438,11.0313 C8.16146,11.8125 7.49479,12.3021 7.23438,12.5 C6.77604,12.7604 6.34896,13.2813 5.95313,14.0625 C5.50521,14.7188 4.98438,15.2708 4.39063,15.7188 C3.94271,16.1146 3.39323,16.3125 2.74219,16.3125 C2.09115,16.3125 1.56771,16.0833 1.17188,15.625 C0.713542,15.1667 0.484375,14.5469 0.484375,13.7656"/>
<path class="Accidental" transform="matrix(0.566929,0,0,0.566929,354.242,61.7953)" d="M4.59375,-4.10938 L4.59375,3.60938 C4.59375,6.34896 4.72396,8.53125 4.98438,10.1563 C7.13021,8.33333 8.66146,6.96875 9.57813,6.0625 C10.6198,5.02083 11.6615,3.58594 12.7031,1.75781 C13.7448,-0.0703125 14.2656,-1.89583 14.2656,-3.71875 C14.2656,-5.54167 13.875,-7.10417 13.0938,-8.40625 C12.3125,-9.70833 11.2708,-10.3594 9.96875,-10.3594 C8.40625,-10.3594 7.10417,-9.77083 6.0625,-8.59375 C5.08333,-7.29167 4.59375,-5.79688 4.59375,-4.10938 M0.484375,13.7656 L-0.78125,-45.7031 C0.135417,-46.224 1.04948,-46.4844 1.96094,-46.4844 C2.8724,-46.4844 3.78125,-46.224 4.6875,-45.7031 L3.90625,-11.2344 C6.57292,-13.5156 9.63542,-14.6563 13.0938,-14.6563 C15.625,-14.6563 17.737,-13.6146 19.4297,-11.5313 C21.1224,-9.44792 21.9688,-7.06771 21.9688,-4.39063 C21.9688,-2.70313 21.4167,-0.911458 20.3125,0.984375 C19.2708,2.73438 18.1667,4.09896 17,5.07813 C16.3438,5.59896 14.6823,6.90104 12.0156,8.98438 C11.2344,9.56771 10.3073,10.25 9.23438,11.0313 C8.16146,11.8125 7.49479,12.3021 7.23438,12.5 C6.77604,12.7604 6.34896,13.2813 5.95313,14.0625 C5.50521,14.7188 4.98438,15.2708 4.39063,15.7188 C3.94271,16.1146 3.39323,16.3125 2.74219,16.3125 C2.09115,16.3125 1.56771,16.0833 1.17188,15.625 C0.713542,15.1667 0.484375,14.5469 0.484375,13.7656"/>
<path class="Accidental" transform="matrix(0.566929,0,0,0.566929,417.097,54.7087)" d="M4.59375,-4.10938 L4.59375,3.60938 C4.59375,6.34896 4.72396,8.53125 4.98438,10.1563 C7.13021,8.33333 8.66146,6.96875 9.57813,6.0625 C10.6198,5.02083 11.6615,3.58594 12.7031,1.75781 C13.7448,-0.0703125 14.2656,-1.89583 14.2656,-3.71875 C14.2656,-5.54167 13.875,-7.10417 13.0938,-8.40625 C12.3125,-9.70833 11.2708,-10.3594 9.96875,-10.3594 C8.40625,-10.3594 7.10417,-9.77083 6.0625,-8.59375 C5.08333,-7.29167 4.59375,-5.79688 4.59375,-4.10938 M0.484375,13.7656 L-0.78125,-45.7031 C0.135417,-46.224 1.04948,-46.4844 1.96094,-46.4844 C2.8724,-46.4844 3.78125,-46.224 4.6875,-45.7031 L3.90625,-11.2344 C6.57292,-13.5156 9.63542,-14.6563 13.0938,-14.6563 C15.625,-14.6563 17.737,-13.6146 19.4297,-11.5313 C21.1224,-9.44792 21.9688,-7.06771 21.9688,-4.39063 C21.9688,-2.70313 21.4167,-0.911458 20.3125,0.984375 C19.2708,2.73438 18.1667,4.09896 17,5.07813 C16.3438,5.59896 14.6823,6.90104 12.0156,8.98438 C11.2344,9.56771 10.3073,10.25 9.23438,11.0313 C8.16146,11.8125 7.49479,12.3021 7.23438,12.5 C6.77604,12.7604 6.34896,13.2813 5.95313,14.0625 C5.50521,14.7188 4.98438,15.2708 4.39063,15.7188 C3.94271,16.1146 3.39323,16.3125 2.74219,16.3125 C2.09115,16.3125 1.56771,16.0833 1.17188,15.625 C0.713542,15.1667 0.484375,14.5469 0.484375,13.7656"/>
<path class="Accidental" transform="matrix(0.566929,0,0,0.566929,539.975,40.5354)" d="M4.59375,-4.10938 L4.59375,3.60938 C4.59375,6.34896 4.72396,8.53125 4.98438,10.1563 C7.13021,8.33333 8.66146,6.96875 9.57813,6.0625 C10.6198,5.02083 11.6615,3.58594 12.7031,1.75781 C13.7448,-0.0703125 14.2656,-1.89583 14.2656,-3.71875 C14.2656,-5.54167 13.875,-7.10417 13.0938,-8.40625 C12.3125,-9.70833 11.2708,-10.3594 9.96875,-10.3594 C8.40625,-10.3594 7.10417,-9.77083 6.0625,-8.59375 C5.08333,-7.29167 4.59375,-5.79688 4.59375,-4.10938 M0.484375,13.7656 L-0.78125,-45.7031 C0.135417,-46.224 1.04948,-46.4844 1.96094,-46.4844 C2.8724,-46.4844 3.78125,-46.224 4.6875,-45.7031 L3.90625,-11.2344 C6.57292,-13.5156 9.63542,-14.6563 13.0938,-14.6563 C15.625,-14.6563 17.737,-13.6146 19.4297,-11.5313 C21.1224,-9.44792 21.9688,-7.06771 21.9688,-4.39063 C21.9688,-2.70313 21.4167,-0.911458 20.3125,0.984375 C19.2708,2.73438 18.1667,4.09896 17,5.07813 C16.3438,5.59896 14.6823,6.90104 12.0156,8.98438 C11.2344,9.56771 10.3073,10.25 9.23438,11.0313 C8.16146,11.8125 7.49479,12.3021 7.23438,12.5 C6.77604,12.7604 6.34896,13.2813 5.95313,14.0625 C5.50521,14.7188 4.98438,15.2708 4.39063,15.7188 C3.94271,16.1146 3.39323,16.3125 2.74219,16.3125 C2.09115,16.3125 1.56771,16.0833 1.17188,15.625 C0.713542,15.1667 0.484375,14.5469 0.484375,13.7656"/>
<polyline class="LedgerLine" fill="none" stroke="#000000" stroke-width="2.27" stroke-linecap="square" stroke-linejoin="bevel" points="554.245,40.5354 581.409,40.5354"/>
<path class="Note" fill="#ffffff" fill-opacity="0.0" fill-rule="evenodd" d="M119.782,722.622 L138.49,722.622 L138.49,747.425 L119.782,747.425 L119.782,722.622 "/>
<path class="Note" d="M130.355,741.008 L121.98,741.008 L121.98,738.414 L130.996,725.914 L132.824,725.914 L132.824,738.805 L135.761,738.805 L135.761,741.008 L132.824,741.008 L132.824,745.774 L130.355,745.774 L130.355,741.008 M130.355,738.805 L130.355,730.117 L124.136,738.805 L130.355,738.805 "/>
<path class="Note" fill="#ffffff" fill-opacity="0.0" fill-rule="evenodd" d="M119.782,648.213 L138.49,648.213 L138.49,673.016 L119.782,673.016 L119.782,648.213 "/>
<path class="Note" d="M128.449,657.224 L124.058,657.224 L124.058,655.458 C125.964,655.218 127.207,654.882 127.785,654.45 C128.363,654.018 128.865,653.036 129.293,651.505 L130.918,651.505 L130.918,671.364 L128.449,671.364 L128.449,657.224 "/>
<path class="Note" fill="#ffffff" fill-opacity="0.0" fill-rule="evenodd" d="M182.637,697.819 L201.346,697.819 L201.346,722.622 L182.637,722.622 L182.637,697.819 "/>
<path class="Note" d="M191.305,706.83 L186.914,706.83 L186.914,705.064 C188.82,704.825 190.063,704.489 190.641,704.056 C191.219,703.624 191.721,702.642 192.148,701.111 L193.773,701.111 L193.773,720.97 L191.305,720.97 L191.305,706.83 "/>
<path class="Note" fill="#ffffff" fill-opacity="0.0" fill-rule="evenodd" d="M182.637,648.213 L201.346,648.213 L201.346,673.016 L182.637,673.016 L182.637,648.213 "/>
<path class="Note" d="M191.617,653.661 C190.201,653.661 189.227,654.049 188.695,654.825 C188.164,655.601 187.878,656.635 187.836,657.927 L185.367,657.927 C185.461,653.645 187.534,651.505 191.586,651.505 C193.471,651.505 194.951,651.992 196.023,652.966 C197.096,653.94 197.633,655.276 197.633,656.974 C197.633,658.984 196.711,660.354 194.867,661.083 C196.055,661.5 196.911,662.075 197.438,662.809 C197.964,663.544 198.227,664.546 198.227,665.817 C198.227,667.703 197.615,669.205 196.391,670.325 C195.167,671.445 193.539,672.005 191.508,672.005 C187.435,672.005 185.247,669.869 184.945,665.599 L187.414,665.599 C187.508,667.036 187.891,668.099 188.563,668.786 C189.234,669.474 190.242,669.817 191.586,669.817 C192.878,669.817 193.885,669.468 194.609,668.77 C195.333,668.073 195.695,667.099 195.695,665.849 C195.695,663.442 194.326,662.239 191.586,662.239 L190.555,662.27 L190.242,662.27 L190.242,660.161 C192.013,660.13 193.268,659.908 194.008,659.497 C194.747,659.086 195.117,658.27 195.117,657.052 C195.117,656.01 194.805,655.184 194.18,654.575 C193.555,653.966 192.701,653.661 191.617,653.661"/>
<path class="Note" fill="#ffffff" fill-opacity="0.0" fill-rule="evenodd" d="M245.493,697.819 L264.202,697.819 L264.202,722.622 L245.493,722.622 L245.493,697.819 "/>
<path class="Note" d="M248.317,708.002 C248.442,703.408 250.624,701.111 254.864,701.111 C256.749,701.111 258.28,701.653 259.458,702.736 C260.635,703.819 261.223,705.22 261.223,706.939 C261.223,709.408 259.822,711.408 257.02,712.939 L254.223,714.439 C253.004,715.095 252.135,715.731 251.614,716.345 C251.093,716.96 250.765,717.689 250.629,718.533 L261.083,718.533 L261.083,720.97 L247.864,720.97 C247.978,718.783 248.418,717.098 249.184,715.916 C249.95,714.734 251.369,713.554 253.442,712.377 L256.004,710.924 C257.796,709.892 258.692,708.585 258.692,707.002 C258.692,705.939 258.319,705.051 257.575,704.338 C256.83,703.624 255.9,703.267 254.786,703.267 C252.296,703.267 250.958,704.845 250.77,708.002 L248.317,708.002 "/>
<path class="Note" fill="#ffffff" fill-opacity="0.0" fill-rule="evenodd" d="M245.493,623.409 L264.202,623.409 L264.202,648.213 L245.493,648.213 L245.493,623.409 "/>
<path class="Note" d="M248.114,636.952 C248.114,635.295 248.254,633.832 248.536,632.561 C248.817,631.29 249.171,630.295 249.598,629.577 C250.025,628.858 250.538,628.275 251.137,627.827 C251.736,627.379 252.312,627.079 252.864,626.928 C253.416,626.777 253.999,626.702 254.614,626.702 C258.947,626.702 261.114,630.176 261.114,637.124 C261.114,640.394 260.556,642.892 259.442,644.616 C258.327,646.34 256.718,647.202 254.614,647.202 C252.489,647.202 250.874,646.329 249.77,644.584 C248.666,642.84 248.114,640.295 248.114,636.952 M258.583,636.905 C258.583,631.561 257.257,628.889 254.606,628.889 C251.955,628.889 250.629,631.587 250.629,636.983 C250.629,642.431 251.937,645.155 254.551,645.155 C255.937,645.155 256.955,644.483 257.606,643.139 C258.257,641.795 258.583,639.717 258.583,636.905"/>
<path class="Note" fill="#ffffff" fill-opacity="0.0" fill-rule="evenodd" d="M308.349,697.819 L327.058,697.819 L327.058,722.622 L308.349,722.622 L308.349,697.819 "/>
<path class="Note" d="M318.923,716.205 L310.548,716.205 L310.548,713.611 L319.563,701.111 L321.392,701.111 L321.392,714.002 L324.329,714.002 L324.329,716.205 L321.392,716.205 L321.392,720.97 L318.923,720.97 L318.923,716.205 M318.923,714.002 L318.923,705.314 L312.704,714.002 L318.923,714.002 "/>
<path class="Note" fill="#ffffff" fill-opacity="0.0" fill-rule="evenodd" d="M308.349,623.409 L327.058,623.409 L327.058,648.213 L308.349,648.213 L308.349,623.409 "/>
<path class="Note" d="M311.173,633.592 C311.298,628.999 313.48,626.702 317.72,626.702 C319.605,626.702 321.136,627.243 322.313,628.327 C323.49,629.41 324.079,630.811 324.079,632.53 C324.079,634.999 322.678,636.999 319.876,638.53 L317.079,640.03 C315.86,640.686 314.99,641.321 314.47,641.936 C313.949,642.551 313.621,643.28 313.485,644.124 L323.938,644.124 L323.938,646.561 L310.72,646.561 C310.834,644.374 311.274,642.689 312.04,641.506 C312.806,640.324 314.225,639.144 316.298,637.967 L318.86,636.514 C320.652,635.483 321.548,634.176 321.548,632.592 C321.548,631.53 321.175,630.642 320.431,629.928 C319.686,629.215 318.756,628.858 317.642,628.858 C315.152,628.858 313.813,630.436 313.626,633.592 L311.173,633.592 "/>
<path class="Note" fill="#ffffff" fill-opacity="0.0" fill-rule="evenodd" d="M371.205,673.016 L389.914,673.016 L389.914,697.819 L371.205,697.819 L371.205,673.016 "/>
<path class="Note" d="M379.872,682.027 L375.482,682.027 L375.482,680.261 C377.388,680.021 378.63,679.686 379.208,679.253 C379.786,678.821 380.289,677.839 380.716,676.308 L382.341,676.308 L382.341,696.167 L379.872,696.167 L379.872,682.027 "/>
<path class="Note" fill="#ffffff" fill-opacity="0.0" fill-rule="evenodd" d="M371.205,623.409 L389.914,623.409 L389.914,648.213 L371.205,648.213 L371.205,623.409 "/>
<path class="Note" d="M381.779,641.795 L373.404,641.795 L373.404,639.202 L382.419,626.702 L384.247,626.702 L384.247,639.592 L387.185,639.592 L387.185,641.795 L384.247,641.795 L384.247,646.561 L381.779,646.561 L381.779,641.795 M381.779,639.592 L381.779,630.905 L375.56,639.592 L381.779,639.592 "/>
<path class="Note" fill="#ffffff" fill-opacity="0.0" fill-rule="evenodd" d="M434.061,673.016 L452.77,673.016 L452.77,697.819 L434.061,697.819 L434.061,673.016 "/>
<path class="Note" d="M436.885,683.199 C437.01,678.605 439.192,676.308 443.431,676.308 C445.317,676.308 446.848,676.85 448.025,677.933 C449.202,679.016 449.791,680.417 449.791,682.136 C449.791,684.605 448.39,686.605 445.588,688.136 L442.791,689.636 C441.572,690.292 440.702,690.928 440.181,691.542 C439.661,692.157 439.332,692.886 439.197,693.73 L449.65,693.73 L449.65,696.167 L436.431,696.167 C436.546,693.98 436.986,692.295 437.752,691.113 C438.517,689.93 439.937,688.751 442.01,687.574 L444.572,686.12 C446.364,685.089 447.26,683.782 447.26,682.199 C447.26,681.136 446.887,680.248 446.142,679.535 C445.398,678.821 444.468,678.464 443.353,678.464 C440.864,678.464 439.525,680.042 439.338,683.199 L436.885,683.199 "/>
<path class="Note" fill="#ffffff" fill-opacity="0.0" fill-rule="evenodd" d="M434.061,598.606 L452.77,598.606 L452.77,623.409 L434.061,623.409 L434.061,598.606 "/>
<path class="Note" d="M436.681,612.149 C436.681,610.492 436.822,609.029 437.103,607.758 C437.385,606.487 437.739,605.492 438.166,604.774 C438.593,604.055 439.106,603.471 439.705,603.024 C440.304,602.576 440.879,602.276 441.431,602.125 C441.984,601.974 442.567,601.899 443.181,601.899 C447.515,601.899 449.681,605.372 449.681,612.32 C449.681,615.591 449.124,618.089 448.01,619.813 C446.895,621.537 445.286,622.399 443.181,622.399 C441.056,622.399 439.442,621.526 438.338,619.781 C437.234,618.037 436.681,615.492 436.681,612.149 M447.15,612.102 C447.15,606.758 445.825,604.086 443.174,604.086 C440.523,604.086 439.197,606.784 439.197,612.18 C439.197,617.628 440.504,620.352 443.119,620.352 C444.504,620.352 445.523,619.68 446.174,618.336 C446.825,616.992 447.15,614.914 447.15,612.102"/>
<path class="Note" fill="#ffffff" fill-opacity="0.0" fill-rule="evenodd" d="M496.917,648.213 L515.626,648.213 L515.626,673.016 L496.917,673.016 L496.917,648.213 "/>
<path class="Note" d="M499.537,661.755 C499.537,660.099 499.678,658.635 499.959,657.364 C500.24,656.093 500.595,655.099 501.022,654.38 C501.449,653.661 501.962,653.078 502.561,652.63 C503.16,652.182 503.735,651.882 504.287,651.731 C504.839,651.58 505.423,651.505 506.037,651.505 C510.371,651.505 512.537,654.979 512.537,661.927 C512.537,665.198 511.98,667.695 510.865,669.419 C509.751,671.143 508.142,672.005 506.037,672.005 C503.912,672.005 502.298,671.132 501.194,669.388 C500.089,667.643 499.537,665.099 499.537,661.755 M510.006,661.708 C510.006,656.364 508.681,653.692 506.03,653.692 C503.379,653.692 502.053,656.39 502.053,661.786 C502.053,667.234 503.36,669.958 505.975,669.958 C507.36,669.958 508.379,669.286 509.03,667.942 C509.681,666.599 510.006,664.52 510.006,661.708"/>
<path class="Note" fill="#ffffff" fill-opacity="0.0" fill-rule="evenodd" d="M496.917,598.606 L515.626,598.606 L515.626,623.409 L496.917,623.409 L496.917,598.606 "/>
<path class="Note" d="M505.897,604.055 C504.48,604.055 503.506,604.443 502.975,605.219 C502.444,605.995 502.157,607.029 502.115,608.32 L499.647,608.32 C499.74,604.039 501.813,601.899 505.865,601.899 C507.751,601.899 509.23,602.385 510.303,603.359 C511.376,604.333 511.912,605.669 511.912,607.367 C511.912,609.378 510.99,610.747 509.147,611.477 C510.334,611.893 511.191,612.469 511.717,613.203 C512.243,613.938 512.506,614.94 512.506,616.211 C512.506,618.096 511.894,619.599 510.67,620.719 C509.446,621.839 507.819,622.399 505.787,622.399 C501.714,622.399 499.527,620.263 499.225,615.992 L501.694,615.992 C501.787,617.43 502.17,618.492 502.842,619.18 C503.514,619.867 504.522,620.211 505.865,620.211 C507.157,620.211 508.165,619.862 508.889,619.164 C509.613,618.466 509.975,617.492 509.975,616.242 C509.975,613.836 508.605,612.633 505.865,612.633 L504.834,612.664 L504.522,612.664 L504.522,610.555 C506.293,610.524 507.548,610.302 508.287,609.891 C509.027,609.479 509.397,608.664 509.397,607.445 C509.397,606.404 509.084,605.578 508.459,604.969 C507.834,604.359 506.98,604.055 505.897,604.055"/>
<path class="Note" fill="#ffffff" fill-opacity="0.0" fill-rule="evenodd" d="M559.773,648.213 L578.481,648.213 L578.481,673.016 L559.773,673.016 L559.773,648.213 "/>
<path class="Note" d="M568.44,657.224 L564.05,657.224 L564.05,655.458 C565.956,655.218 567.198,654.882 567.776,654.45 C568.354,654.018 568.857,653.036 569.284,651.505 L570.909,651.505 L570.909,671.364 L568.44,671.364 L568.44,657.224 "/>
<path class="Note" fill="#ffffff" fill-opacity="0.0" fill-rule="evenodd" d="M559.773,598.606 L578.481,598.606 L578.481,623.409 L559.773,623.409 L559.773,598.606 "/>
<path class="Note" d="M570.346,616.992 L561.971,616.992 L561.971,614.399 L570.987,601.899 L572.815,601.899 L572.815,614.789 L575.753,614.789 L575.753,616.992 L572.815,616.992 L572.815,621.758 L570.346,621.758 L570.346,616.992 M570.346,614.789 L570.346,606.102 L564.128,614.789 L570.346,614.789 "/>
<path class="Note" fill="#ffffff" fill-opacity="0.0" fill-rule="evenodd" d="M119.782,520.654 L138.49,520.654 L138.49,545.457 L119.782,545.457 L119.782,520.654 "/>
<path class="Note" d="M128.449,529.665 L124.058,529.665 L124.058,527.899 C125.964,527.659 127.207,527.323 127.785,526.891 C128.363,526.459 128.865,525.477 129.293,523.946 L130.918,523.946 L130.918,543.805 L128.449,543.805 L128.449,529.665 "/>
<path class="Note" fill="#ffffff" fill-opacity="0.0" fill-rule="evenodd" d="M119.782,495.85 L138.49,495.85 L138.49,520.654 L119.782,520.654 L119.782,495.85 "/>
<path class="Note" d="M122.402,509.955 C122.402,508.205 122.561,506.661 122.879,505.322 C123.196,503.984 123.592,502.934 124.066,502.174 C124.54,501.413 125.11,500.794 125.777,500.314 C126.444,499.835 127.071,499.52 127.66,499.369 C128.248,499.218 128.865,499.143 129.511,499.143 C131.022,499.143 132.277,499.601 133.277,500.518 C134.277,501.434 134.897,502.705 135.136,504.33 L132.683,504.33 C132.475,503.382 132.082,502.645 131.504,502.119 C130.925,501.593 130.204,501.33 129.339,501.33 C127.923,501.33 126.837,501.979 126.082,503.275 C125.326,504.572 124.938,506.434 124.918,508.861 C126.001,507.393 127.522,506.658 129.48,506.658 C131.261,506.658 132.72,507.247 133.855,508.424 C134.99,509.601 135.558,511.111 135.558,512.955 C135.558,514.893 134.949,516.492 133.73,517.752 C132.511,519.012 130.959,519.643 129.074,519.643 C124.626,519.643 122.402,516.413 122.402,509.955 M129.183,508.846 C127.964,508.846 126.972,509.231 126.207,510.002 C125.441,510.773 125.058,511.778 125.058,513.018 C125.058,514.278 125.441,515.333 126.207,516.182 C126.972,517.031 127.933,517.455 129.089,517.455 C130.235,517.455 131.181,517.051 131.925,516.244 C132.67,515.437 133.043,514.403 133.043,513.143 C133.043,511.82 132.696,510.773 132.004,510.002 C131.311,509.231 130.371,508.846 129.183,508.846"/>
<path class="Note" fill="#ffffff" fill-opacity="0.0" fill-rule="evenodd" d="M182.637,520.654 L201.346,520.654 L201.346,545.457 L182.637,545.457 L182.637,520.654 "/>
<path class="Note" d="M191.617,526.102 C190.201,526.102 189.227,526.49 188.695,527.266 C188.164,528.042 187.878,529.076 187.836,530.368 L185.367,530.368 C185.461,526.086 187.534,523.946 191.586,523.946 C193.471,523.946 194.951,524.433 196.023,525.407 C197.096,526.381 197.633,527.717 197.633,529.415 C197.633,531.425 196.711,532.795 194.867,533.524 C196.055,533.941 196.911,534.516 197.438,535.25 C197.964,535.985 198.227,536.987 198.227,538.258 C198.227,540.144 197.615,541.646 196.391,542.766 C195.167,543.886 193.539,544.446 191.508,544.446 C187.435,544.446 185.247,542.31 184.945,538.04 L187.414,538.04 C187.508,539.477 187.891,540.54 188.563,541.227 C189.234,541.915 190.242,542.258 191.586,542.258 C192.878,542.258 193.885,541.909 194.609,541.211 C195.333,540.513 195.695,539.54 195.695,538.29 C195.695,535.883 194.326,534.68 191.586,534.68 L190.555,534.711 L190.242,534.711 L190.242,532.602 C192.013,532.571 193.268,532.349 194.008,531.938 C194.747,531.526 195.117,530.711 195.117,529.493 C195.117,528.451 194.805,527.625 194.18,527.016 C193.555,526.407 192.701,526.102 191.617,526.102"/>
<path class="Note" fill="#ffffff" fill-opacity="0.0" fill-rule="evenodd" d="M182.637,471.047 L201.346,471.047 L201.346,495.85 L182.637,495.85 L182.637,471.047 "/>
<path class="Note" d="M191.305,480.058 L186.914,480.058 L186.914,478.293 C188.82,478.053 190.063,477.717 190.641,477.285 C191.219,476.852 191.721,475.871 192.148,474.339 L193.773,474.339 L193.773,494.199 L191.305,494.199 L191.305,480.058 "/>
<path class="Note" fill="#ffffff" fill-opacity="0.0" fill-rule="evenodd" d="M245.493,520.654 L264.202,520.654 L264.202,545.457 L245.493,545.457 L245.493,520.654 "/>
<path class="Note" d="M256.067,539.04 L247.692,539.04 L247.692,536.446 L256.708,523.946 L258.536,523.946 L258.536,536.836 L261.473,536.836 L261.473,539.04 L258.536,539.04 L258.536,543.805 L256.067,543.805 L256.067,539.04 M256.067,536.836 L256.067,528.149 L249.848,536.836 L256.067,536.836 "/>
<path class="Note" fill="#ffffff" fill-opacity="0.0" fill-rule="evenodd" d="M245.493,471.047 L264.202,471.047 L264.202,495.85 L245.493,495.85 L245.493,471.047 "/>
<path class="Note" d="M248.317,481.23 C248.442,476.636 250.624,474.339 254.864,474.339 C256.749,474.339 258.28,474.881 259.458,475.964 C260.635,477.048 261.223,478.449 261.223,480.168 C261.223,482.636 259.822,484.636 257.02,486.168 L254.223,487.668 C253.004,488.324 252.135,488.959 251.614,489.574 C251.093,490.188 250.765,490.918 250.629,491.761 L261.083,491.761 L261.083,494.199 L247.864,494.199 C247.978,492.011 248.418,490.326 249.184,489.144 C249.95,487.962 251.369,486.782 253.442,485.605 L256.004,484.152 C257.796,483.121 258.692,481.813 258.692,480.23 C258.692,479.168 258.319,478.28 257.575,477.566 C256.83,476.852 255.9,476.496 254.786,476.496 C252.296,476.496 250.958,478.074 250.77,481.23 L248.317,481.23 "/>
<path class="Note" fill="#ffffff" fill-opacity="0.0" fill-rule="evenodd" d="M308.349,520.654 L327.058,520.654 L327.058,545.457 L308.349,545.457 L308.349,520.654 "/>
<path class="Note" d="M310.97,534.758 C310.97,533.008 311.129,531.464 311.446,530.125 C311.764,528.787 312.16,527.737 312.634,526.977 C313.108,526.217 313.678,525.597 314.345,525.118 C315.011,524.638 315.639,524.323 316.227,524.172 C316.816,524.021 317.433,523.946 318.079,523.946 C319.589,523.946 320.845,524.404 321.845,525.321 C322.845,526.237 323.464,527.508 323.704,529.133 L321.251,529.133 C321.043,528.185 320.649,527.448 320.071,526.922 C319.493,526.396 318.772,526.133 317.907,526.133 C316.49,526.133 315.405,526.782 314.649,528.079 C313.894,529.375 313.506,531.237 313.485,533.665 C314.569,532.196 316.089,531.461 318.048,531.461 C319.829,531.461 321.287,532.05 322.423,533.227 C323.558,534.404 324.126,535.915 324.126,537.758 C324.126,539.696 323.517,541.295 322.298,542.555 C321.079,543.816 319.527,544.446 317.642,544.446 C313.194,544.446 310.97,541.217 310.97,534.758 M317.751,533.649 C316.532,533.649 315.54,534.034 314.774,534.805 C314.009,535.576 313.626,536.581 313.626,537.821 C313.626,539.081 314.009,540.136 314.774,540.985 C315.54,541.834 316.501,542.258 317.657,542.258 C318.803,542.258 319.748,541.855 320.493,541.047 C321.238,540.24 321.61,539.206 321.61,537.946 C321.61,536.623 321.264,535.576 320.571,534.805 C319.879,534.034 318.938,533.649 317.751,533.649"/>
<path class="Note" fill="#ffffff" fill-opacity="0.0" fill-rule="evenodd" d="M308.349,471.047 L327.058,471.047 L327.058,495.85 L308.349,495.85 L308.349,471.047 "/>
<path class="Note" d="M318.923,489.433 L310.548,489.433 L310.548,486.839 L319.563,474.339 L321.392,474.339 L321.392,487.23 L324.329,487.23 L324.329,489.433 L321.392,489.433 L321.392,494.199 L318.923,494.199 L318.923,489.433 M318.923,487.23 L318.923,478.543 L312.704,487.23 L318.923,487.23 "/>
<path class="Note" fill="#ffffff" fill-opacity="0.0" fill-rule="evenodd" d="M371.205,495.85 L389.914,495.85 L389.914,520.654 L371.205,520.654 L371.205,495.85 "/>
<path class="Note" d="M379.872,504.861 L375.482,504.861 L375.482,503.096 C377.388,502.856 378.63,502.52 379.208,502.088 C379.786,501.656 380.289,500.674 380.716,499.143 L382.341,499.143 L382.341,519.002 L379.872,519.002 L379.872,504.861 "/>
<path class="Note" fill="#ffffff" fill-opacity="0.0" fill-rule="evenodd" d="M371.205,471.047 L389.914,471.047 L389.914,495.85 L371.205,495.85 L371.205,471.047 "/>
<path class="Note" d="M373.826,485.152 C373.826,483.402 373.984,481.858 374.302,480.519 C374.62,479.181 375.016,478.131 375.49,477.371 C375.964,476.61 376.534,475.99 377.201,475.511 C377.867,475.032 378.495,474.717 379.083,474.566 C379.672,474.415 380.289,474.339 380.935,474.339 C382.445,474.339 383.701,474.798 384.701,475.714 C385.701,476.631 386.32,477.902 386.56,479.527 L384.107,479.527 C383.898,478.579 383.505,477.842 382.927,477.316 C382.349,476.79 381.628,476.527 380.763,476.527 C379.346,476.527 378.26,477.175 377.505,478.472 C376.75,479.769 376.362,481.631 376.341,484.058 C377.425,482.589 378.945,481.855 380.904,481.855 C382.685,481.855 384.143,482.444 385.279,483.621 C386.414,484.798 386.982,486.308 386.982,488.152 C386.982,490.089 386.372,491.688 385.154,492.949 C383.935,494.209 382.383,494.839 380.497,494.839 C376.05,494.839 373.826,491.61 373.826,485.152 M380.607,484.043 C379.388,484.043 378.396,484.428 377.63,485.199 C376.865,485.97 376.482,486.975 376.482,488.214 C376.482,489.475 376.865,490.53 377.63,491.379 C378.396,492.227 379.357,492.652 380.513,492.652 C381.659,492.652 382.604,492.248 383.349,491.441 C384.094,490.634 384.466,489.6 384.466,488.339 C384.466,487.017 384.12,485.97 383.427,485.199 C382.734,484.428 381.794,484.043 380.607,484.043"/>
<path class="Note" fill="#ffffff" fill-opacity="0.0" fill-rule="evenodd" d="M434.061,495.85 L452.77,495.85 L452.77,520.654 L434.061,520.654 L434.061,495.85 "/>
<path class="Note" d="M436.885,506.033 C437.01,501.439 439.192,499.143 443.431,499.143 C445.317,499.143 446.848,499.684 448.025,500.768 C449.202,501.851 449.791,503.252 449.791,504.971 C449.791,507.439 448.39,509.439 445.588,510.971 L442.791,512.471 C441.572,513.127 440.702,513.762 440.181,514.377 C439.661,514.992 439.332,515.721 439.197,516.564 L449.65,516.564 L449.65,519.002 L436.431,519.002 C436.546,516.814 436.986,515.13 437.752,513.947 C438.517,512.765 439.937,511.585 442.01,510.408 L444.572,508.955 C446.364,507.924 447.26,506.617 447.26,505.033 C447.26,503.971 446.887,503.083 446.142,502.369 C445.398,501.656 444.468,501.299 443.353,501.299 C440.864,501.299 439.525,502.877 439.338,506.033 L436.885,506.033 "/>
<path class="Note" fill="#ffffff" fill-opacity="0.0" fill-rule="evenodd" d="M434.061,446.244 L452.77,446.244 L452.77,471.047 L434.061,471.047 L434.061,446.244 "/>
<path class="Note" d="M436.681,459.786 C436.681,458.13 436.822,456.667 437.103,455.396 C437.385,454.125 437.739,453.13 438.166,452.411 C438.593,451.693 439.106,451.109 439.705,450.661 C440.304,450.213 440.879,449.914 441.431,449.763 C441.984,449.612 442.567,449.536 443.181,449.536 C447.515,449.536 449.681,453.01 449.681,459.958 C449.681,463.229 449.124,465.726 448.01,467.45 C446.895,469.174 445.286,470.036 443.181,470.036 C441.056,470.036 439.442,469.164 438.338,467.419 C437.234,465.674 436.681,463.13 436.681,459.786 M447.15,459.739 C447.15,454.396 445.825,451.724 443.174,451.724 C440.523,451.724 439.197,454.422 439.197,459.818 C439.197,465.265 440.504,467.989 443.119,467.989 C444.504,467.989 445.523,467.318 446.174,465.974 C446.825,464.63 447.15,462.552 447.15,459.739"/>
<path class="Note" fill="#ffffff" fill-opacity="0.0" fill-rule="evenodd" d="M496.917,495.85 L515.626,495.85 L515.626,520.654 L496.917,520.654 L496.917,495.85 "/>
<path class="Note" d="M511.662,499.143 L511.662,501.58 L503.397,501.58 L502.615,507.127 C503.72,506.325 504.944,505.924 506.287,505.924 C508.194,505.924 509.738,506.536 510.92,507.76 C512.102,508.984 512.694,510.575 512.694,512.533 C512.694,514.627 512.061,516.335 510.795,517.658 C509.53,518.981 507.897,519.643 505.897,519.643 C505.126,519.643 504.42,519.559 503.78,519.393 C503.139,519.226 502.608,519.025 502.186,518.791 C501.764,518.557 501.381,518.249 501.037,517.869 C500.694,517.489 500.433,517.153 500.256,516.861 C500.079,516.57 499.91,516.205 499.748,515.768 C499.587,515.33 499.488,515.028 499.451,514.861 C499.415,514.695 499.371,514.45 499.319,514.127 L501.772,514.127 C502.355,516.346 503.709,517.455 505.834,517.455 C507.178,517.455 508.238,517.046 509.014,516.229 C509.79,515.411 510.178,514.294 510.178,512.877 C510.178,511.398 509.785,510.234 508.998,509.385 C508.212,508.536 507.157,508.111 505.834,508.111 C505.074,508.111 504.423,508.247 503.881,508.518 C503.339,508.788 502.777,509.268 502.194,509.955 L499.928,509.955 L501.412,499.143 L511.662,499.143 "/>
<path class="Note" fill="#ffffff" fill-opacity="0.0" fill-rule="evenodd" d="M496.917,446.244 L515.626,446.244 L515.626,471.047 L496.917,471.047 L496.917,446.244 "/>
<path class="Note" d="M505.897,451.693 C504.48,451.693 503.506,452.081 502.975,452.857 C502.444,453.633 502.157,454.667 502.115,455.958 L499.647,455.958 C499.74,451.677 501.813,449.536 505.865,449.536 C507.751,449.536 509.23,450.023 510.303,450.997 C511.376,451.971 511.912,453.307 511.912,455.005 C511.912,457.015 510.99,458.385 509.147,459.114 C510.334,459.531 511.191,460.107 511.717,460.841 C512.243,461.575 512.506,462.578 512.506,463.849 C512.506,465.734 511.894,467.237 510.67,468.357 C509.446,469.476 507.819,470.036 505.787,470.036 C501.714,470.036 499.527,467.901 499.225,463.63 L501.694,463.63 C501.787,465.068 502.17,466.13 502.842,466.818 C503.514,467.505 504.522,467.849 505.865,467.849 C507.157,467.849 508.165,467.5 508.889,466.802 C509.613,466.104 509.975,465.13 509.975,463.88 C509.975,461.474 508.605,460.271 505.865,460.271 L504.834,460.302 L504.522,460.302 L504.522,458.193 C506.293,458.161 507.548,457.94 508.287,457.528 C509.027,457.117 509.397,456.302 509.397,455.083 C509.397,454.042 509.084,453.216 508.459,452.607 C507.834,451.997 506.98,451.693 505.897,451.693"/>
<path class="Note" fill="#ffffff" fill-opacity="0.0" fill-rule="evenodd" d="M559.773,495.85 L578.481,495.85 L578.481,520.654 L559.773,520.654 L559.773,495.85 "/>
<path class="Note" d="M562.393,509.955 C562.393,508.205 562.552,506.661 562.87,505.322 C563.188,503.984 563.583,502.934 564.057,502.174 C564.531,501.413 565.102,500.794 565.768,500.314 C566.435,499.835 567.063,499.52 567.651,499.369 C568.24,499.218 568.857,499.143 569.503,499.143 C571.013,499.143 572.268,499.601 573.268,500.518 C574.268,501.434 574.888,502.705 575.128,504.33 L572.675,504.33 C572.466,503.382 572.073,502.645 571.495,502.119 C570.917,501.593 570.195,501.33 569.331,501.33 C567.914,501.33 566.828,501.979 566.073,503.275 C565.318,504.572 564.93,506.434 564.909,508.861 C565.992,507.393 567.513,506.658 569.471,506.658 C571.253,506.658 572.711,507.247 573.846,508.424 C574.982,509.601 575.55,511.111 575.55,512.955 C575.55,514.893 574.94,516.492 573.721,517.752 C572.503,519.012 570.951,519.643 569.065,519.643 C564.617,519.643 562.393,516.413 562.393,509.955 M569.175,508.846 C567.956,508.846 566.964,509.231 566.198,510.002 C565.432,510.773 565.05,511.778 565.05,513.018 C565.05,514.278 565.432,515.333 566.198,516.182 C566.964,517.031 567.925,517.455 569.081,517.455 C570.227,517.455 571.172,517.051 571.917,516.244 C572.661,515.437 573.034,514.403 573.034,513.143 C573.034,511.82 572.688,510.773 571.995,510.002 C571.302,509.231 570.362,508.846 569.175,508.846"/>
<path class="Note" fill="#ffffff" fill-opacity="0.0" fill-rule="evenodd" d="M559.773,446.244 L578.481,446.244 L578.481,471.047 L559.773,471.047 L559.773,446.244 "/>
<path class="Note" d="M570.346,464.63 L561.971,464.63 L561.971,462.036 L570.987,449.536 L572.815,449.536 L572.815,462.427 L575.753,462.427 L575.753,464.63 L572.815,464.63 L572.815,469.396 L570.346,469.396 L570.346,464.63 M570.346,462.427 L570.346,453.739 L564.128,462.427 L570.346,462.427 "/>
<path class="Note" transform="matrix(0.566929,0,0,0.566929,118.506,373.606)" d="M21.9688,-13.7656 C25.0938,-13.7656 27.7344,-12.9531 29.8906,-11.3281 C31.901,-9.56771 32.9063,-7.35417 32.9063,-4.6875 C32.9063,-0.197917 30.599,4 25.9844,7.90625 C21.2969,11.8125 16.2813,13.7656 10.9375,13.7656 C7.8125,13.7656 5.17708,12.9531 3.03125,11.3281 C1.01042,9.56771 0,7.35417 0,4.6875 C0,0.197917 2.34375,-4 7.03125,-7.90625 C11.5938,-11.8125 16.5729,-13.7656 21.9688,-13.7656"/>
<path class="Note" transform="matrix(0.566929,0,0,0.566929,181.362,366.52)" d="M21.9688,-13.7656 C25.0938,-13.7656 27.7344,-12.9531 29.8906,-11.3281 C31.901,-9.56771 32.9063,-7.35417 32.9063,-4.6875 C32.9063,-0.197917 30.599,4 25.9844,7.90625 C21.2969,11.8125 16.2813,13.7656 10.9375,13.7656 C7.8125,13.7656 5.17708,12.9531 3.03125,11.3281 C1.01042,9.56771 0,7.35417 0,4.6875 C0,0.197917 2.34375,-4 7.03125,-7.90625 C11.5938,-11.8125 16.5729,-13.7656 21.9688,-13.7656"/>
<path class="Note" transform="matrix(0.566929,0,0,0.566929,244.218,359.433)" d="M21.9688,-13.7656 C25.0938,-13.7656 27.7344,-12.9531 29.8906,-11.3281 C31.901,-9.56771 32.9063,-7.35417 32.9063,-4.6875 C32.9063,-0.197917 30.599,4 25.9844,7.90625 C21.2969,11.8125 16.2813,13.7656 10.9375,13.7656 C7.8125,13.7656 5.17708,12.9531 3.03125,11.3281 C1.01042,9.56771 0,7.35417 0,4.6875 C0,0.197917 2.34375,-4 7.03125,-7.90625 C11.5938,-11.8125 16.5729,-13.7656 21.9688,-13.7656"/>
<path class="Note" transform="matrix(0.566929,0,0,0.566929,307.074,352.346)" d="M21.9688,-13.7656 C25.0938,-13.7656 27.7344,-12.9531 29.8906,-11.3281 C31.901,-9.56771 32.9063,-7.35417 32.9063,-4.6875 C32.9063,-0.197917 30.599,4 25.9844,7.90625 C21.2969,11.8125 16.2813,13.7656 10.9375,13.7656 C7.8125,13.7656 5.17708,12.9531 3.03125,11.3281 C1.01042,9.56771 0,7.35417 0,4.6875 C0,0.197917 2.34375,-4 7.03125,-7.90625 C11.5938,-11.8125 16.5729,-13.7656 21.9688,-13.7656"/>
<path class="Note" transform="matrix(0.566929,0,0,0.566929,369.93,345.26)" d="M21.9688,-13.7656 C25.0938,-13.7656 27.7344,-12.9531 29.8906,-11.3281 C31.901,-9.56771 32.9063,-7.35417 32.9063,-4.6875 C32.9063,-0.197917 30.599,4 25.9844,7.90625 C21.2969,11.8125 16.2813,13.7656 10.9375,13.7656 C7.8125,13.7656 5.17708,12.9531 3.03125,11.3281 C1.01042,9.56771 0,7.35417 0,4.6875 C0,0.197917 2.34375,-4 7.03125,-7.90625 C11.5938,-11.8125 16.5729,-13.7656 21.9688,-13.7656"/>
<path class="Note" transform="matrix(0.566929,0,0,0.566929,432.785,338.173)" d="M21.9688,-13.7656 C25.0938,-13.7656 27.7344,-12.9531 29.8906,-11.3281 C31.901,-9.56771 32.9063,-7.35417 32.9063,-4.6875 C32.9063,-0.197917 30.599,4 25.9844,7.90625 C21.2969,11.8125 16.2813,13.7656 10.9375,13.7656 C7.8125,13.7656 5.17708,12.9531 3.03125,11.3281 C1.01042,9.56771 0,7.35417 0,4.6875 C0,0.197917 2.34375,-4 7.03125,-7.90625 C11.5938,-11.8125 16.5729,-13.7656 21.9688,-13.7656"/>
<path class="Note" transform="matrix(0.566929,0,0,0.566929,495.641,331.087)" d="M21.9688,-13.7656 C25.0938,-13.7656 27.7344,-12.9531 29.8906,-11.3281 C31.901,-9.56771 32.9063,-7.35417 32.9063,-4.6875 C32.9063,-0.197917 30.599,4 25.9844,7.90625 C21.2969,11.8125 16.2813,13.7656 10.9375,13.7656 C7.8125,13.7656 5.17708,12.9531 3.03125,11.3281 C1.01042,9.56771 0,7.35417 0,4.6875 C0,0.197917 2.34375,-4 7.03125,-7.90625 C11.5938,-11.8125 16.5729,-13.7656 21.9688,-13.7656"/>
<path class="Note" transform="matrix(0.566929,0,0,0.566929,558.497,324)" d="M21.9688,-13.7656 C25.0938,-13.7656 27.7344,-12.9531 29.8906,-11.3281 C31.901,-9.56771 32.9063,-7.35417 32.9063,-4.6875 C32.9063,-0.197917 30.599,4 25.9844,7.90625 C21.2969,11.8125 16.2813,13.7656 10.9375,13.7656 C7.8125,13.7656 5.17708,12.9531 3.03125,11.3281 C1.01042,9.56771 0,7.35417 0,4.6875 C0,0.197917 2.34375,-4 7.03125,-7.90625 C11.5938,-11.8125 16.5729,-13.7656 21.9688,-13.7656"/>
<path class="Note" transform="matrix(0.566929,0,0,0.566929,118.506,231.874)" d="M21.9688,-13.7656 C25.0938,-13.7656 27.7344,-12.9531 29.8906,-11.3281 C31.901,-9.56771 32.9063,-7.35417 32.9063,-4.6875 C32.9063,-0.197917 30.599,4 25.9844,7.90625 C21.2969,11.8125 16.2813,13.7656 10.9375,13.7656 C7.8125,13.7656 5.17708,12.9531 3.03125,11.3281 C1.01042,9.56771 0,7.35417 0,4.6875 C0,0.197917 2.34375,-4 7.03125,-7.90625 C11.5938,-11.8125 16.5729,-13.7656 21.9688,-13.7656"/>
<path class="Note" transform="matrix(0.566929,0,0,0.566929,181.362,224.787)" d="M21.9688,-13.7656 C25.0938,-13.7656 27.7344,-12.9531 29.8906,-11.3281 C31.901,-9.56771 32.9063,-7.35417 32.9063,-4.6875 C32.9063,-0.197917 30.599,4 25.9844,7.90625 C21.2969,11.8125 16.2813,13.7656 10.9375,13.7656 C7.8125,13.7656 5.17708,12.9531 3.03125,11.3281 C1.01042,9.56771 0,7.35417 0,4.6875 C0,0.197917 2.34375,-4 7.03125,-7.90625 C11.5938,-11.8125 16.5729,-13.7656 21.9688,-13.7656"/>
<path class="Note" transform="matrix(0.566929,0,0,0.566929,244.218,217.701)" d="M21.9688,-13.7656 C25.0938,-13.7656 27.7344,-12.9531 29.8906,-11.3281 C31.901,-9.56771 32.9063,-7.35417 32.9063,-4.6875 C32.9063,-0.197917 30.599,4 25.9844,7.90625 C21.2969,11.8125 16.2813,13.7656 10.9375,13.7656 C7.8125,13.7656 5.17708,12.9531 3.03125,11.3281 C1.01042,9.56771 0,7.35417 0,4.6875 C0,0.197917 2.34375,-4 7.03125,-7.90625 C11.5938,-11.8125 16.5729,-13.7656 21.9688,-13.7656"/>
<path class="Note" transform="matrix(0.566929,0,0,0.566929,307.074,210.614)" d="M21.9688,-13.7656 C25.0938,-13.7656 27.7344,-12.9531 29.8906,-11.3281 C31.901,-9.56771 32.9063,-7.35417 32.9063,-4.6875 C32.9063,-0.197917 30.599,4 25.9844,7.90625 C21.2969,11.8125 16.2813,13.7656 10.9375,13.7656 C7.8125,13.7656 5.17708,12.9531 3.03125,11.3281 C1.01042,9.56771 0,7.35417 0,4.6875 C0,0.197917 2.34375,-4 7.03125,-7.90625 C11.5938,-11.8125 16.5729,-13.7656 21.9688,-13.7656"/>
<path class="Note" transform="matrix(0.566929,0,0,0.566929,369.93,203.528)" d="M21.9688,-13.7656 C25.0938,-13.7656 27.7344,-12.9531 29.8906,-11.3281 C31.901,-9.56771 32.9063,-7.35417 32.9063,-4.6875 C32.9063,-0.197917 30.599,4 25.9844,7.90625 C21.2969,11.8125 16.2813,13.7656 10.9375,13.7656 C7.8125,13.7656 5.17708,12.9531 3.03125,11.3281 C1.01042,9.56771 0,7.35417 0,4.6875 C0,0.197917 2.34375,-4 7.03125,-7.90625 C11.5938,-11.8125 16.5729,-13.7656 21.9688,-13.7656"/>
<path class="Note" transform="matrix(0.566929,0,0,0.566929,432.785,196.441)" d="M21.9688,-13.7656 C25.0938,-13.7656 27.7344,-12.9531 29.8906,-11.3281 C31.901,-9.56771 32.9063,-7.35417 32.9063,-4.6875 C32.9063,-0.197917 30.599,4 25.9844,7.90625 C21.2969,11.8125 16.2813,13.7656 10.9375,13.7656 C7.8125,13.7656 5.17708,12.9531 3.03125,11.3281 C1.01042,9.56771 0,7.35417 0,4.6875 C0,0.197917 2.34375,-4 7.03125,-7.90625 C11.5938,-11.8125 16.5729,-13.7656 21.9688,-13.7656"/>
<path class="Note" transform="matrix(0.566929,0,0,0.566929,495.641,189.354)" d="M21.9688,-13.7656 C25.0938,-13.7656 27.7344,-12.9531 29.8906,-11.3281 C31.901,-9.56771 32.9063,-7.35417 32.9063,-4.6875 C32.9063,-0.197917 30.599,4 25.9844,7.90625 C21.2969,11.8125 16.2813,13.7656 10.9375,13.7656 C7.8125,13.7656 5.17708,12.9531 3.03125,11.3281 C1.01042,9.56771 0,7.35417 0,4.6875 C0,0.197917 2.34375,-4 7.03125,-7.90625 C11.5938,-11.8125 16.5729,-13.7656 21.9688,-13.7656"/>
<path class="Note" transform="matrix(0.566929,0,0,0.566929,558.497,182.268)" d="M21.9688,-13.7656 C25.0938,-13.7656 27.7344,-12.9531 29.8906,-11.3281 C31.901,-9.56771 32.9063,-7.35417 32.9063,-4.6875 C32.9063,-0.197917 30.599,4 25.9844,7.90625 C21.2969,11.8125 16.2813,13.7656 10.9375,13.7656 C7.8125,13.7656 5.17708,12.9531 3.03125,11.3281 C1.01042,9.56771 0,7.35417 0,4.6875 C0,0.197917 2.34375,-4 7.03125,-7.90625 C11.5938,-11.8125 16.5729,-13.7656 21.9688,-13.7656"/>
<path class="Note" transform="matrix(0.566929,0,0,0.566929,118.506,90.1417)" d="M21.9688,-13.7656 C25.0938,-13.7656 27.7344,-12.9531 29.8906,-11.3281 C31.901,-9.56771 32.9063,-7.35417 32.9063,-4.6875 C32.9063,-0.197917 30.599,4 25.9844,7.90625 C21.2969,11.8125 16.2813,13.7656 10.9375,13.7656 C7.8125,13.7656 5.17708,12.9531 3.03125,11.3281 C1.01042,9.56771 0,7.35417 0,4.6875 C0,0.197917 2.34375,-4 7.03125,-7.90625 C11.5938,-11.8125 16.5729,-13.7656 21.9688,-13.7656"/>
<path class="Note" transform="matrix(0.566929,0,0,0.566929,181.362,83.0551)" d="M21.9688,-13.7656 C25.0938,-13.7656 27.7344,-12.9531 29.8906,-11.3281 C31.901,-9.56771 32.9063,-7.35417 32.9063,-4.6875 C32.9063,-0.197917 30.599,4 25.9844,7.90625 C21.2969,11.8125 16.2813,13.7656 10.9375,13.7656 C7.8125,13.7656 5.17708,12.9531 3.03125,11.3281 C1.01042,9.56771 0,7.35417 0,4.6875 C0,0.197917 2.34375,-4 7.03125,-7.90625 C11.5938,-11.8125 16.5729,-13.7656 21.9688,-13.7656"/>
<path class="Note" transform="matrix(0.566929,0,0,0.566929,244.218,75.9685)" d="M21.9688,-13.7656 C25.0938,-13.7656 27.7344,-12.9531 29.8906,-11.3281 C31.901,-9.56771 32.9063,-7.35417 32.9063,-4.6875 C32.9063,-0.197917 30.599,4 25.9844,7.90625 C21.2969,11.8125 16.2813,13.7656 10.9375,13.7656 C7.8125,13.7656 5.17708,12.9531 3.03125,11.3281 C1.01042,9.56771 0,7.35417 0,4.6875 C0,0.197917 2.34375,-4 7.03125,-7.90625 C11.5938,-11.8125 16.5729,-13.7656 21.9688,-13.7656"/>
<path class="Note" transform="matrix(0.566929,0,0,0.566929,307.074,68.8819)" d="M21.9688,-13.7656 C25.0938,-13.7656 27.7344,-12.9531 29.8906,-11.3281 C31.901,-9.56771 32.9063,-7.35417 32.9063,-4.6875 C32.9063,-0.197917 30.599,4 25.9844,7.90625 C21.2969,11.8125 16.2813,13.7656 10.9375,13.7656 C7.8125,13.7656 5.17708,12.9531 3.03125,11.3281 C1.01042,9.56771 0,7.35417 0,4.6875 C0,0.197917 2.34375,-4 7.03125,-7.90625 C11.5938,-11.8125 16.5729,-13.7656 21.9688,-13.7656"/>
<path class="Note" transform="matrix(0.566929,0,0,0.566929,369.93,61.7953)" d="M21.9688,-13.7656 C25.0938,-13.7656 27.7344,-12.9531 29.8906,-11.3281 C31.901,-9.56771 32.9063,-7.35417 32.9063,-4.6875 C32.9063,-0.197917 30.599,4 25.9844,7.90625 C21.2969,11.8125 16.2813,13.7656 10.9375,13.7656 C7.8125,13.7656 5.17708,12.9531 3.03125,11.3281 C1.01042,9.56771 0,7.35417 0,4.6875 C0,0.197917 2.34375,-4 7.03125,-7.90625 C11.5938,-11.8125 16.5729,-13.7656 21.9688,-13.7656"/>
<path class="Note" transform="matrix(0.566929,0,0,0.566929,432.785,54.7087)" d="M21.9688,-13.7656 C25.0938,-13.7656 27.7344,-12.9531 29.8906,-11.3281 C31.901,-9.56771 32.9063,-7.35417 32.9063,-4.6875 C32.9063,-0.197917 30.599,4 25.9844,7.90625 C21.2969,11.8125 16.2813,13.7656 10.9375,13.7656 C7.8125,13.7656 5.17708,12.9531 3.03125,11.3281 C1.01042,9.56771 0,7.35417 0,4.6875 C0,0.197917 2.34375,-4 7.03125,-7.90625 C11.5938,-11.8125 16.5729,-13.7656 21.9688,-13.7656"/>
<path class="Note" transform="matrix(0.566929,0,0,0.566929,495.641,47.6221)" d="M21.9688,-13.7656 C25.0938,-13.7656 27.7344,-12.9531 29.8906,-11.3281 C31.901,-9.56771 32.9063,-7.35417 32.9063,-4.6875 C32.9063,-0.197917 30.599,4 25.9844,7.90625 C21.2969,11.8125 16.2813,13.7656 10.9375,13.7656 C7.8125,13.7656 5.17708,12.9531 3.03125,11.3281 C1.01042,9.56771 0,7.35417 0,4.6875 C0,0.197917 2.34375,-4 7.03125,-7.90625 C11.5938,-11.8125 16.5729,-13.7656 21.9688,-13.7656"/>
<path class="Note" transform="matrix(0.566929,0,0,0.566929,558.497,40.5354)" d="M21.9688,-13.7656 C25.0938,-13.7656 27.7344,-12.9531 29.8906,-11.3281 C31.901,-9.56771 32.9063,-7.35417 32.9063,-4.6875 C32.9063,-0.197917 30.599,4 25.9844,7.90625 C21.2969,11.8125 16.2813,13.7656 10.9375,13.7656 C7.8125,13.7656 5.17708,12.9531 3.03125,11.3281 C1.01042,9.56771 0,7.35417 0,4.6875 C0,0.197917 2.34375,-4 7.03125,-7.90625 C11.5938,-11.8125 16.5729,-13.7656 21.9688,-13.7656"/>
<path class="Clef" transform="matrix(0.566929,0,0,0.566929,28.5015,673.016)" d="M26.6563,42.4844 C26.6563,44.3073 25.224,45.2188 22.3594,45.2188 C20.0885,45.2188 18.1042,44.5365 16.4063,43.1719 C14.7813,41.7344 13.9688,39.9115 13.9688,37.7031 C13.9688,33.7969 16.3438,30.6719 21.0938,28.3281 C25.7188,25.9115 31.1563,24.7031 37.4063,24.7031 C39.8125,24.7031 42.3854,24.8698 45.125,25.2031 C47.1354,25.4635 49.3802,25.9844 51.8594,26.7656 C54.0677,27.474 55.7917,28.5443 57.0313,29.9766 C58.2708,31.4089 58.8906,33.0729 58.8906,34.9688 C58.8906,39.4583 56.5781,43.1354 51.9531,46 C58.724,47.2396 62.1406,50.2656 62.2031,55.0781 C62.2031,59.1198 60.3802,62.7682 56.7344,66.0234 C53.0885,69.2786 48.9583,70.9063 44.3438,70.9063 C42.3854,70.9063 40.3958,70.4479 38.375,69.5313 C36.4896,68.625 35.1563,67.7813 34.375,67 C33.5938,66.0833 33.2031,65.3958 33.2031,64.9375 C33.2031,64.2917 33.5313,63.7396 34.1875,63.2813 C34.7708,62.6979 35.3854,62.4063 36.0313,62.4063 C36.2917,62.4063 36.8464,62.8281 37.6953,63.6719 C38.5443,64.5156 39.7813,64.9375 41.4063,64.9375 C43.625,64.9375 45.776,63.9948 47.8594,62.1094 C49.8698,60.2865 50.875,58.1042 50.875,55.5625 C50.875,53.3542 49.9323,51.7604 48.0469,50.7813 C46.1615,49.8021 43.7552,49.3125 40.8281,49.3125 C40.3073,49.3125 40.0469,48.7604 40.0469,47.6563 C40.0469,46.0938 40.6302,45.3125 41.7969,45.3125 C43.6198,45.3125 45.25,44.5313 46.6875,42.9688 C48.0521,41.2813 48.7344,39.4896 48.7344,37.5938 C48.7344,37.0104 48.5729,36.1354 48.25,34.9688 C47.9896,34.1875 47.2083,33.2396 45.9063,32.125 C44.6667,31.0833 42.9375,30.3698 40.7188,29.9844 C40.1354,33.1719 39.4036,37.2396 38.5234,42.1875 C37.6432,47.1354 37.0417,50.3906 36.7188,51.9531 C35.6146,57.5573 33.599,62.276 30.6719,66.1094 C27.6094,70.151 24.3177,72.1719 20.7969,72.1719 C19.6927,72.1719 18.5573,71.9115 17.3906,71.3906 C16.474,70.9948 15.3021,70.1823 13.875,68.9531 C12.5729,67.9115 11.6927,67.224 11.2344,66.8906 C10.974,66.7031 10.8438,66.4115 10.8438,66.0156 C10.8438,65.3698 11.0729,64.7865 11.5313,64.2656 C12.0521,63.6719 12.6042,63.375 13.1875,63.375 C13.5729,63.375 14.4818,63.9948 15.9141,65.2344 C17.3464,66.474 18.8438,67.0938 20.4063,67.0938 C23.4063,67.0938 25.6563,65.1719 27.1563,61.3281 C28.5833,57.6198 29.2969,53.0313 29.2969,47.5625 L29.2969,46.7813 C29.2969,43.1354 29.8854,37.6979 31.0625,30.4688 C28.9792,31.125 27.3177,32.1042 26.0781,33.4063 C24.776,34.7083 24.125,36.0729 24.125,37.5 C24.125,38.6042 24.5469,39.5469 25.3906,40.3281 C26.2344,41.1094 26.6563,41.8281 26.6563,42.4844 M7.03125,11.9219 C7.35417,11.9219 8.13542,12.2448 9.375,12.8906 C10.6771,13.5469 11.7865,13.875 12.7031,13.875 C15.1719,13.875 18.1979,12.0833 21.7813,8.5 C32.1354,-2.05208 39.2656,-13.25 43.1719,-25.0938 C43.9531,-27.5729 45.8698,-28.8125 48.9219,-28.8125 C50.4844,-28.8125 51.8229,-28.4844 52.9375,-27.8281 C54.0417,-27.1198 54.5938,-26.4063 54.5938,-25.6875 L52.8281,10.8438 C52.8281,12.7917 53.5156,13.7656 54.8906,13.7656 C55.599,13.7656 56.6406,13.4427 58.0156,12.7969 C59.3177,12.1406 60.099,11.8125 60.3594,11.8125 C60.8802,11.8125 61.2031,12.3698 61.3281,13.4844 C61.3281,14.526 60.9063,15.1771 60.0625,15.4375 C59.4063,15.625 58.1042,16.2396 56.1563,17.2813 C54.1354,18.3229 52.5417,18.8438 51.375,18.8438 C48.8958,18.8438 47.1354,16.8906 46.0938,12.9844 C44.4688,6.86979 43.4271,0.520833 42.9688,-6.0625 C40.3646,-2.73958 37.4688,0.614583 34.2813,4 C35.4479,6.21875 37.5938,7.32813 40.7188,7.32813 C41.1771,7.32813 41.5365,7.29688 41.7969,7.23438 L41.8906,7.23438 C42.4115,7.23438 42.6719,7.71875 42.6719,8.6875 C42.6719,9.92708 42.25,10.6771 41.4063,10.9375 C40.0417,11.3958 38.6094,11.625 37.1094,11.625 C33.8594,11.625 31.5156,10.5156 30.0781,8.29688 L26.1719,11.8125 C20.7031,16.5 16.2448,18.8438 12.7969,18.8438 C11.8802,18.8438 10.9375,18.6823 9.96875,18.3594 C9.1875,18.0365 8.27604,17.5469 7.23438,16.8906 C6.83854,16.7031 6.39583,16.4609 5.90625,16.1641 C5.41667,15.8672 5.10938,15.6875 4.98438,15.625 C4.66146,15.5 4.5,15.2083 4.5,14.75 C4.5,14.2292 4.76042,13.6094 5.28125,12.8906 C5.72917,12.2448 6.3125,11.9219 7.03125,11.9219 M28.8125,-54 C28.8125,-52.375 27.4115,-51.5625 24.6094,-51.5625 C22.1406,-51.5625 19.9948,-52.375 18.1719,-54 C16.4115,-55.6354 15.5313,-57.625 15.5313,-59.9688 C15.5313,-62.2396 16.2448,-64.1927 17.6719,-65.8281 C19.1719,-67.5156 21.0938,-68.7813 23.4375,-69.625 C25.5833,-70.4063 27.9948,-71.026 30.6719,-71.4844 C33.4635,-71.8073 36.1302,-71.9688 38.6719,-71.9688 C40.1719,-71.9688 42.974,-71.2865 47.0781,-69.9219 C51.2448,-68.5573 54.1406,-67.875 55.7656,-67.875 C57.7865,-67.875 59.7083,-68.2344 61.5313,-68.9531 C63.0208,-69.599 64.4531,-70.3438 65.8281,-71.1875 C66.9323,-71.9063 67.5469,-72.2656 67.6719,-72.2656 C68.2656,-72.2656 68.7865,-72.0729 69.2344,-71.6875 C69.7552,-71.1667 70.0156,-70.7396 70.0156,-70.4063 C70.0156,-69.9583 69.401,-69.2135 68.1719,-68.1719 C66.8698,-66.9948 65.013,-65.8203 62.6016,-64.6484 C60.1901,-63.4766 57.651,-62.8906 54.9844,-62.8906 C53.8073,-62.8906 52.3438,-63.0885 50.5938,-63.4844 C49.4792,-56.2552 48.3073,-49.8385 47.0781,-44.2344 C46.0365,-39.2865 43.9531,-34.9583 40.8281,-31.25 C37.8281,-27.5417 34.474,-25.6875 30.7656,-25.6875 C29.2656,-25.6875 27.9323,-25.9792 26.7656,-26.5625 C25.4635,-27.2188 24.0938,-28.1979 22.6563,-29.5 C21.4896,-30.4688 20.3854,-31.3438 19.3438,-32.125 C19.0833,-32.3229 18.9531,-32.6198 18.9531,-33.0156 C18.9531,-33.4635 19.2135,-34.0469 19.7344,-34.7656 C20.2552,-35.349 20.7396,-35.6406 21.1875,-35.6406 C21.5833,-35.6406 22.6927,-34.8281 24.5156,-33.2031 C26.3385,-31.5781 27.9635,-30.7656 29.3906,-30.7656 C31.9948,-30.7656 34.0156,-32.2604 35.4531,-35.25 C36.8802,-38.1875 37.6927,-41.7031 37.8906,-45.7969 C38.2135,-52.5052 38.9635,-59.4427 40.1406,-66.6094 C38.7031,-66.9323 37.6302,-67.0938 36.9219,-67.0938 C33.7969,-67.0938 31.125,-66.4427 28.9063,-65.1406 C26.6979,-63.901 25.5938,-62.2083 25.5938,-60.0625 C25.5938,-58.5 26.1146,-57.2969 27.1563,-56.4531 C28.2604,-55.5365 28.8125,-54.7188 28.8125,-54"/>
<path class="Clef" transform="matrix(0.566929,0,0,0.566929,28.5015,495.85)" d="M21.2969,33.9844 C21.2969,35.4219 20.1875,36.1406 17.9688,36.1406 C16.1458,36.1406 14.5833,35.5833 13.2813,34.4688 C11.9167,33.3646 11.2344,31.9323 11.2344,30.1719 C11.2344,26.9844 13.0885,24.4792 16.7969,22.6563 C20.7031,20.7708 25.0677,19.8281 29.8906,19.8281 C34.5052,19.8281 38.6042,20.4479 42.1875,21.6875 C45.5104,23.0521 47.1719,25.1667 47.1719,28.0313 C47.1719,31.5417 45.3177,34.4688 41.6094,36.8125 C47.0781,37.9271 49.8125,40.3698 49.8125,44.1406 C49.8125,47.2656 48.3438,50.1615 45.4063,52.8281 C42.5417,55.4323 39.1927,56.7344 35.3594,56.7344 C33.7969,56.7344 32.2344,56.3802 30.6719,55.6719 C29.2344,55.0156 28.1927,54.2969 27.5469,53.5156 C26.8906,52.9323 26.5625,52.3802 26.5625,51.8594 C26.5625,51.3385 26.8229,50.9167 27.3438,50.5938 C27.8021,50.1354 28.2917,49.9063 28.8125,49.9063 C29.0729,49.9063 29.5599,50.2318 30.2734,50.8828 C30.987,51.5339 31.9635,51.8594 33.2031,51.8594 C35.0885,51.8594 36.849,51.1406 38.4844,49.7031 C40.0469,48.2135 40.8281,46.4896 40.8281,44.5313 C40.8281,42.8438 40.0469,41.5417 38.4844,40.625 C36.9844,39.7813 35.0625,39.3594 32.7188,39.3594 C32.2604,39.3594 32.0313,38.9688 32.0313,38.1875 C32.0313,36.8854 32.5208,36.2344 33.5,36.2344 C34.9271,36.2344 36.1979,35.6146 37.3125,34.375 C38.4167,32.9479 38.9688,31.4844 38.9688,29.9844 C38.9688,26.7969 36.8542,24.8125 32.625,24.0313 L29.3906,41.6094 C28.5469,45.9635 26.9531,49.7396 24.6094,52.9375 C22.2031,56.125 19.5677,57.7188 16.7031,57.7188 C15.724,57.7188 14.8125,57.5208 13.9688,57.125 C13.1875,56.8021 12.2083,56.151 11.0313,55.1719 C9.72917,54.1302 9.04688,53.5781 8.98438,53.5156 C8.72396,53.2552 8.59375,53.026 8.59375,52.8281 C8.59375,52.4427 8.79167,51.9583 9.1875,51.375 C9.63542,50.9167 10.0885,50.6875 10.5469,50.6875 C10.7448,50.6875 11.526,51.1771 12.8906,52.1563 C13.9948,53.1979 15.1667,53.7188 16.4063,53.7188 C18.8125,53.7188 20.6042,52.2188 21.7813,49.2188 C22.9479,46.0938 23.5313,42.3854 23.5313,38.0938 L23.5313,37.4063 C23.5313,34.7396 23.9896,30.4115 24.9063,24.4219 C23.2083,25.0052 21.875,25.7865 20.9063,26.7656 C19.8646,27.8073 19.3438,28.8802 19.3438,29.9844 C19.3438,30.8906 19.6667,31.6406 20.3125,32.2344 C20.9688,32.8802 21.2969,33.4635 21.2969,33.9844 M5.5625,9.46875 C5.82292,9.46875 6.47396,9.76563 7.51563,10.3594 C8.69271,10.8802 9.57292,11.1406 10.1563,11.1406 C13.0208,11.1406 17.1875,7.75521 22.6563,0.984375 C28.0625,-5.66146 32,-12.6979 34.4688,-20.125 C35.0625,-22.0729 36.5938,-23.0469 39.0625,-23.0469 C40.3021,-23.0469 41.3438,-22.7865 42.1875,-22.2656 C43.1042,-21.8802 43.5625,-21.3281 43.5625,-20.6094 L42.1875,8.59375 C42.1875,10.2917 42.776,11.1406 43.9531,11.1406 C44.3385,11.1406 45.151,10.8802 46.3906,10.3594 C47.5573,9.76563 48.2083,9.46875 48.3438,9.46875 C48.8021,9.46875 49.0313,9.92708 49.0313,10.8438 C49.0313,11.625 48.7344,12.1146 48.1406,12.3125 C47.4323,12.6354 46.3594,13.1563 44.9219,13.875 C43.2969,14.7188 42.026,15.1406 41.1094,15.1406 C40.1406,15.1406 39.2292,14.7188 38.375,13.875 C37.5313,12.8333 36.7865,10.8125 36.1406,7.8125 C35.3594,4.82292 34.7708,0.588542 34.375,-4.89063 C32.3542,-2.21354 30.0781,0.489583 27.5469,3.21875 C28.5156,4.91667 30.5,5.76563 33.5,5.76563 C33.8854,5.76563 34.0781,6.1875 34.0781,7.03125 C34.0781,8.53125 32.5833,9.28125 29.5938,9.28125 C27.0521,9.28125 25.2292,8.40104 24.125,6.64063 L21,9.375 C16.7708,13.0208 13.1563,14.9115 10.1563,15.0469 C9.11458,15.0469 7.75,14.5885 6.0625,13.6719 C4.42708,12.8281 3.60938,12.2083 3.60938,11.8125 C3.60938,11.3646 3.80729,10.8802 4.20313,10.3594 C4.58854,9.76563 5.04167,9.46875 5.5625,9.46875 M23.0469,-43.1719 C23.0469,-41.9323 21.9427,-41.3125 19.7344,-41.3125 C17.776,-41.3125 16.0469,-41.9635 14.5469,-43.2656 C13.1198,-44.5052 12.4063,-46.099 12.4063,-48.0469 C12.4063,-49.8698 12.9583,-51.4323 14.0625,-52.7344 C15.3646,-54.1719 16.9271,-55.151 18.75,-55.6719 C20.0521,-56.1927 22.0052,-56.7135 24.6094,-57.2344 C27.349,-57.4948 29.4635,-57.625 30.9531,-57.625 C32.0677,-57.625 34.2839,-57.0703 37.6016,-55.9609 C40.9193,-54.8516 43.2604,-54.2969 44.625,-54.2969 C46.2604,-54.2969 47.7917,-54.5573 49.2188,-55.0781 C50.5833,-55.6615 51.6927,-56.25 52.5469,-56.8438 C53.3906,-57.4896 53.9115,-57.8125 54.1094,-57.8125 C54.4948,-57.8125 54.9167,-57.651 55.375,-57.3281 C55.7604,-57.0052 55.9531,-56.6771 55.9531,-56.3438 C55.9531,-56.0833 55.4688,-55.4688 54.5,-54.5 C53.3229,-53.4583 51.8229,-52.5469 50,-51.7656 C48.0521,-50.7865 46.0677,-50.2969 44.0469,-50.2969 C43.0052,-50.2969 41.8333,-50.4583 40.5313,-50.7813 C39.6146,-44.4063 38.6719,-39.2292 37.7031,-35.25 C36.849,-31.2813 35.1875,-27.8333 32.7188,-24.9063 C30.3125,-21.9792 27.6406,-20.5156 24.7031,-20.5156 C23.401,-20.5156 22.3281,-20.776 21.4844,-21.2969 C20.3802,-21.8177 19.276,-22.5625 18.1719,-23.5313 C17.1302,-24.5104 16.25,-25.2292 15.5313,-25.6875 C15.2708,-25.9479 15.1406,-26.1771 15.1406,-26.375 C15.1406,-26.8229 15.3021,-27.276 15.625,-27.7344 C15.9479,-28.2552 16.3698,-28.5156 16.8906,-28.5156 C17.151,-28.5156 18.0313,-27.8646 19.5313,-26.5625 C21.0313,-25.2604 22.3646,-24.6094 23.5313,-24.6094 C25.0938,-24.6094 26.3021,-25.1302 27.1563,-26.1719 C28.0625,-27.2135 28.776,-28.776 29.2969,-30.8594 C29.7552,-32.7448 30.0833,-34.8594 30.2813,-37.2031 C30.5417,-39.1615 30.8333,-41.8333 31.1563,-45.2188 C31.3542,-47.1042 31.6771,-49.8073 32.125,-53.3281 C31.0208,-53.5885 30.1458,-53.7188 29.5,-53.7188 C27.1563,-53.7188 25.0365,-53.1979 23.1406,-52.1563 C21.3906,-50.9792 20.5156,-49.6406 20.5156,-48.1406 C20.5156,-47.0365 20.9375,-46.0625 21.7813,-45.2188 C22.625,-44.375 23.0469,-43.6927 23.0469,-43.1719"/>
<path class="Clef" transform="matrix(0.566929,0,0,0.566929,28.5015,338.173)" d="M57.1328,-8.89063 C56.1589,-9.86979 55.6719,-11.0755 55.6719,-12.5078 C55.6719,-13.9401 56.1589,-15.1432 57.1328,-16.1172 C58.1068,-17.0911 59.3099,-17.5781 60.7422,-17.5781 C62.1745,-17.5781 63.3802,-17.0911 64.3594,-16.1172 C65.3385,-15.1432 65.8281,-13.9401 65.8281,-12.5078 C65.8281,-11.0755 65.3385,-9.86979 64.3594,-8.89063 C63.3802,-7.91146 62.1745,-7.42188 60.7422,-7.42188 C59.3099,-7.42188 58.1068,-7.91146 57.1328,-8.89063 M57.1328,16.1172 C56.1589,15.1432 55.6719,13.9401 55.6719,12.5078 C55.6719,11.0755 56.1589,9.86979 57.1328,8.89063 C58.1068,7.91146 59.3099,7.42188 60.7422,7.42188 C62.1745,7.42188 63.3802,7.91146 64.3594,8.89063 C65.3385,9.86979 65.8281,11.0755 65.8281,12.5078 C65.8281,13.9401 65.3385,15.1432 64.3594,16.1172 C63.3802,17.0911 62.1745,17.5781 60.7422,17.5781 C59.3099,17.5781 58.1068,17.0911 57.1328,16.1172 M23.25,-26.2656 C31.9063,-26.2656 39,-24.0885 44.5313,-19.7344 C49.875,-15.1719 52.5469,-8.98438 52.5469,-1.17188 C52.5469,4.09896 51.5052,8.91667 49.4219,13.2813 C47.4635,17.8438 44.8906,21.8802 41.7031,25.3906 C38.4427,28.974 34.5052,32.3594 29.8906,35.5469 C25.3906,38.6719 20.7656,41.474 16.0156,43.9531 C6.31771,48.8281 0.979167,51.2656 0,51.2656 C-0.84375,51.2656 -1.26563,50.8438 -1.26563,50 C-1.26563,49.6771 -1.13542,49.3854 -0.875,49.125 C2.44792,47.1667 6.51563,44.6615 11.3281,41.6094 C14.4531,39.5885 18.099,36.7865 22.2656,33.2031 C26.3073,29.8177 29.4323,26.6302 31.6406,23.6406 C33.9219,20.7031 36.0052,17.0573 37.8906,12.7031 C39.5156,8.33854 40.3281,4.03646 40.3281,-0.203125 C40.3281,-6.51563 38.7656,-12.0156 35.6406,-16.7031 C32.5156,-21.3906 28.3854,-23.7344 23.25,-23.7344 C19.6042,-23.7344 16.4792,-22.5625 13.875,-20.2188 C11.0729,-17.8125 9.05208,-14.7865 7.8125,-11.1406 C9.05208,-11.6615 10.1927,-11.9219 11.2344,-11.9219 C13.9635,-11.9219 16.3073,-10.9427 18.2656,-8.98438 C20.2135,-6.90104 21.1875,-4.52604 21.1875,-1.85938 C21.1875,0.942708 20.2448,3.45313 18.3594,5.67188 C16.3385,7.68229 13.9635,8.6875 11.2344,8.6875 C8.30729,8.6875 5.67188,7.68229 3.32813,5.67188 C1.10938,3.45313 0,0.942708 0,-1.85938 C0,-8.56771 2.28125,-14.2969 6.84375,-19.0469 C11.3333,-23.8594 16.8021,-26.2656 23.25,-26.2656"/>
<path class="Clef" transform="matrix(0.566929,0,0,0.566929,28.5015,217.701)" d="M36.3281,-7.32813 C33.3385,-7.32813 31.8438,-4.88542 31.8438,0 C31.8438,4.88542 33.3385,7.32813 36.3281,7.32813 C37.3073,7.32813 38.7396,6.80729 40.625,5.76563 C42.4479,4.72396 43.9479,4.20313 45.125,4.20313 C51.3021,4.20313 56.6719,6.1875 61.2344,10.1563 C65.724,14.2604 67.9688,19.2083 67.9688,25 C67.9688,41.6667 59.1458,50 41.5,50 C37.2708,50 33.6615,48.6354 30.6719,45.9063 C27.7344,43.1667 26.2656,39.8125 26.2656,35.8438 C26.2656,33.6979 27.0156,31.875 28.5156,30.375 C30.0156,28.875 31.8073,28.125 33.8906,28.125 C35.974,28.125 37.763,28.875 39.2578,30.375 C40.7526,31.875 41.5,33.6979 41.5,35.8438 C41.5,37.1458 40.6875,38.4167 39.0625,39.6563 C37.4375,40.8229 36.625,42.0573 36.625,43.3594 C36.625,44.5365 37.1146,45.4479 38.0938,46.0938 C39,46.8125 40.1354,47.1719 41.5,47.1719 C46.9063,47.1719 50.5859,45.3151 52.5391,41.6016 C54.4922,37.888 55.4688,32.3542 55.4688,25 C55.4688,19.3333 54.8854,15.0365 53.7188,12.1094 C52.4792,8.72396 49.6146,7.03125 45.125,7.03125 C41.7396,7.03125 38.875,8.49479 36.5313,11.4219 C34.3125,14.4219 33.2031,17.9063 33.2031,21.875 C33.2031,22.8542 32.7474,23.3438 31.8359,23.3438 C30.9245,23.3438 30.4688,22.8542 30.4688,21.875 C30.4688,14.125 27.6719,7.45313 22.0781,1.85938 L22.0781,49.0313 C22.0781,49.6771 21.75,50 21.0938,50 L19.0469,50 C18.3281,50 17.9688,49.6771 17.9688,49.0313 L17.9688,-49.0313 C17.9688,-49.6771 18.3281,-50 19.0469,-50 L21.0938,-50 C21.75,-50 22.0781,-49.6771 22.0781,-49.0313 L22.0781,-1.85938 C27.6719,-7.45313 30.4688,-14.125 30.4688,-21.875 C30.4688,-22.8542 30.9245,-23.3438 31.8359,-23.3438 C32.7474,-23.3438 33.2031,-22.8542 33.2031,-21.875 C33.2031,-17.9063 34.3125,-14.4219 36.5313,-11.4219 C38.875,-8.49479 41.7396,-7.03125 45.125,-7.03125 C49.6146,-7.03125 52.4792,-8.72396 53.7188,-12.1094 C54.8854,-15.0365 55.4688,-19.3333 55.4688,-25 C55.4688,-32.3542 54.4922,-37.888 52.5391,-41.6016 C50.5859,-45.3151 46.9063,-47.1719 41.5,-47.1719 C40.1354,-47.1719 39,-46.8125 38.0938,-46.0938 C37.1146,-45.5104 36.625,-44.599 36.625,-43.3594 C36.625,-42.0573 37.4375,-40.8229 39.0625,-39.6563 C40.6875,-38.4167 41.5,-37.1458 41.5,-35.8438 C41.5,-33.6979 40.7526,-31.875 39.2578,-30.375 C37.763,-28.875 35.974,-28.125 33.8906,-28.125 C31.8073,-28.125 30.0156,-28.875 28.5156,-30.375 C27.0156,-31.875 26.2656,-33.6979 26.2656,-35.8438 C26.2656,-39.8125 27.7344,-43.1667 30.6719,-45.9063 C33.6615,-48.6354 37.2708,-50 41.5,-50 C59.1458,-50 67.9688,-41.6667 67.9688,-25 C67.9688,-19.2083 65.724,-14.2604 61.2344,-10.1563 C56.6719,-6.1875 51.3021,-4.20313 45.125,-4.20313 C44.0104,-4.20313 42.5104,-4.72396 40.625,-5.76563 C38.7396,-6.80729 37.3073,-7.32813 36.3281,-7.32813 M12.8906,50 L0.984375,50 C0.328125,50 0,49.6771 0,49.0313 L0,-49.0313 C0,-49.6771 0.328125,-50 0.984375,-50 L12.8906,-50 C13.5469,-50 13.875,-49.6771 13.875,-49.0313 L13.875,49.0313 C13.875,49.6771 13.5469,50 12.8906,50"/>
<path class="Clef" transform="matrix(0.566929,0,0,0.566929,28.5015,97.2284)" d="M36.7188,-25.5938 C36.7188,-25.5938 36.9167,-25.5938 37.3125,-25.5938 C37.5729,-25.6563 37.7969,-25.6875 37.9844,-25.6875 C45.276,-25.6875 51.2656,-23.1146 55.9531,-17.9688 C60.6406,-12.8958 62.9844,-6.97396 62.9844,-0.203125 C62.9844,8.20313 59.5052,15.0417 52.5469,20.3125 C50.724,21.75 48.3438,22.9219 45.4063,23.8281 C45.7396,28.0573 45.9063,31.474 45.9063,34.0781 C45.9063,34.599 45.8385,36.4896 45.7031,39.75 C45.4427,45.8021 43.3594,51.0417 39.4531,55.4688 C35.6823,59.8333 30.9948,62.0156 25.3906,62.0156 C20.1198,62.0156 15.6302,60.1615 11.9219,56.4531 C8.20313,52.6719 6.34375,48.1146 6.34375,42.7813 C6.34375,39.9792 7.42188,37.599 9.57813,35.6406 C11.7865,33.6927 14.3542,32.7188 17.2813,32.7188 C19.8854,32.7188 22.0677,33.7292 23.8281,35.75 C25.651,37.6354 26.5625,39.9792 26.5625,42.7813 C26.5625,45.3125 25.651,47.4896 23.8281,49.3125 C22.0052,51.1354 19.8229,52.0469 17.2813,52.0469 C16.2396,52.0469 15.2344,51.8542 14.2656,51.4688 C17.1302,55.6979 20.9375,57.8125 25.6875,57.8125 C30.1771,57.8125 33.8542,55.9896 36.7188,52.3438 C39.7188,48.5729 41.349,44.1771 41.6094,39.1563 C41.7344,36.0313 41.7969,34.2448 41.7969,33.7969 C41.7969,30.151 41.6667,27.1563 41.4063,24.8125 C38.1563,25.3333 35.2604,25.5938 32.7188,25.5938 C23.6667,25.5938 15.9531,22.0104 9.57813,14.8438 C3.32813,7.61458 0.203125,-0.979167 0.203125,-10.9375 C0.203125,-13.0208 0.395833,-15.1354 0.78125,-17.2813 C1.17708,-19.0417 1.66667,-20.9635 2.25,-23.0469 C2.57292,-24.224 3.45313,-26.1146 4.89063,-28.7188 C5.41146,-29.5 5.9974,-30.4766 6.64844,-31.6484 C7.29948,-32.8203 7.75521,-33.599 8.01563,-33.9844 C8.66146,-35.2865 9.92708,-37.0469 11.8125,-39.2656 C12.3333,-39.849 12.8724,-40.4974 13.4297,-41.2109 C13.987,-41.9245 14.4609,-42.5104 14.8516,-42.9688 C15.2422,-43.4271 15.5339,-43.7865 15.7266,-44.0469 C15.9193,-44.3073 17.3854,-46.0313 20.125,-49.2188 C20.7708,-49.875 21.4036,-50.5755 22.0234,-51.3203 C22.6432,-52.0651 23.1484,-52.651 23.5391,-53.0781 C23.9297,-53.5052 24.224,-53.8125 24.4219,-54 C22.0781,-61.75 20.6094,-67.9375 20.0156,-72.5625 C19.5677,-76.2708 19.3438,-81.349 19.3438,-87.7969 C19.3438,-93.4635 20.6458,-98.7708 23.25,-103.719 C25.7813,-108.854 29.3281,-113.052 33.8906,-116.313 C34.151,-116.51 34.474,-116.609 34.8594,-116.609 C35.3177,-116.609 35.6458,-116.51 35.8438,-116.313 C39.3542,-112.083 42.3802,-106.583 44.9219,-99.8125 C47.526,-93.0417 48.8281,-86.8854 48.8281,-81.3438 C48.8281,-75.0938 47.3333,-69.2344 44.3438,-63.7656 C40.9583,-57.974 36.5938,-51.9844 31.25,-45.7969 C32.6146,-41.5052 34.4375,-34.7708 36.7188,-25.5938 M45.0156,19.8281 C48.401,18.5885 51.0417,16.474 52.9375,13.4844 C55.0208,10.6198 56.0625,7.39583 56.0625,3.8125 C56.0625,-0.8125 54.5,-4.91667 51.375,-8.5 C48.1771,-12.2083 44.1042,-14.2917 39.1563,-14.75 C41.9583,-1.01042 43.9115,10.5156 45.0156,19.8281 M7.23438,-2.73438 C7.23438,3.71354 9.83854,9.38021 15.0469,14.2656 C20.3802,19.0156 26.3698,21.3906 33.0156,21.3906 C35.7448,21.3906 38.4115,21.1927 41.0156,20.7969 C39.974,10.901 37.9219,-0.947917 34.8594,-14.75 C31.151,-14.3542 28.1927,-13.0521 25.9844,-10.8438 C23.8281,-8.5625 22.75,-5.98958 22.75,-3.125 C22.75,1.82292 25.3906,5.82813 30.6719,8.89063 C31.1198,9.34896 31.3438,9.83854 31.3438,10.3594 C31.3438,10.8802 31.1198,11.3646 30.6719,11.8125 C30.276,12.2708 29.7865,12.5 29.2031,12.5 C29.1406,12.5 28.849,12.4375 28.3281,12.3125 C24.6094,10.2917 21.7448,7.6875 19.7344,4.5 C17.8385,1.10417 16.8906,-2.31771 16.8906,-5.76563 C16.8906,-10.2552 18.2917,-14.3229 21.0938,-17.9688 C24.0208,-21.6146 27.8281,-23.9583 32.5156,-25 C30.6927,-32.2917 29.1979,-37.9896 28.0313,-42.0938 C26.9896,-40.9167 25.737,-39.5 24.2734,-37.8438 C22.8099,-36.1875 21.9479,-35.1927 21.6875,-34.8594 C19.3438,-31.8073 17.5521,-29.4323 16.3125,-27.7344 C14.0938,-24.6719 12.4635,-22.0365 11.4219,-19.8281 C10.3177,-17.349 9.34375,-14.6458 8.5,-11.7188 C7.65625,-8.91667 7.23438,-5.92188 7.23438,-2.73438 M39.8438,-102.047 C34.9583,-99.6406 31.1198,-96.1927 28.3281,-91.7031 C25.4635,-87.0781 24.0313,-82.099 24.0313,-76.7656 C24.0313,-72.0781 25.2031,-65.7604 27.5469,-57.8125 C32.2344,-63.4792 35.75,-68.7188 38.0938,-73.5313 C40.5625,-78.6146 41.7969,-83.9219 41.7969,-89.4531 C41.7969,-93.6198 41.1458,-97.8177 39.8438,-102.047"/>
</svg>
