<?xml version="1.0" encoding="UTF-8" standalone="no"?>
<svg width="637.794px" height="765.353px" viewBox="0 0 637.794 765.353"
 xmlns="http://www.w3.org/2000/svg" xmlns:xlink="http://www.w3.org/1999/xlink" version="1.2" baseProfile="tiny">
<title>major (99)</title>
<desc>Generated by MuseScore 3.4.2</desc>
<polyline class="StaffLines" fill="none" stroke="#000000" stroke-width="1.13" stroke-linejoin="bevel" points="14.1732,37.7628 623.621,37.7628"/>
<polyline class="StaffLines" fill="none" stroke="#000000" stroke-width="1.13" stroke-linejoin="bevel" points="14.1732,51.936 623.621,51.936"/>
<polyline class="StaffLines" fill="none" stroke="#000000" stroke-width="1.13" stroke-linejoin="bevel" points="14.1732,66.1093 623.621,66.1093"/>
<polyline class="StaffLines" fill="none" stroke="#000000" stroke-width="1.13" stroke-linejoin="bevel" points="14.1732,80.2825 623.621,80.2825"/>
<polyline class="StaffLines" fill="none" stroke="#000000" stroke-width="1.13" stroke-linejoin="bevel" points="14.1732,94.4557 623.621,94.4557"/>
<polyline class="StaffLines" fill="none" stroke="#000000" stroke-width="1.13" stroke-linejoin="bevel" points="14.1732,172.408 623.621,172.408"/>
<polyline class="StaffLines" fill="none" stroke="#000000" stroke-width="1.13" stroke-linejoin="bevel" points="14.1732,186.582 623.621,186.582"/>
<polyline class="StaffLines" fill="none" stroke="#000000" stroke-width="1.13" stroke-linejoin="bevel" points="14.1732,200.755 623.621,200.755"/>
<polyline class="StaffLines" fill="none" stroke="#000000" stroke-width="1.13" stroke-linejoin="bevel" points="14.1732,214.928 623.621,214.928"/>
<polyline class="StaffLines" fill="none" stroke="#000000" stroke-width="1.13" stroke-linejoin="bevel" points="14.1732,229.101 623.621,229.101"/>
<polyline class="StaffLines" fill="none" stroke="#000000" stroke-width="1.13" stroke-linejoin="bevel" points="14.1732,307.054 623.621,307.054"/>
<polyline class="StaffLines" fill="none" stroke="#000000" stroke-width="1.13" stroke-linejoin="bevel" points="14.1732,321.227 623.621,321.227"/>
<polyline class="StaffLines" fill="none" stroke="#000000" stroke-width="1.13" stroke-linejoin="bevel" points="14.1732,335.401 623.621,335.401"/>
<polyline class="StaffLines" fill="none" stroke="#000000" stroke-width="1.13" stroke-linejoin="bevel" points="14.1732,349.574 623.621,349.574"/>
<polyline class="StaffLines" fill="none" stroke="#000000" stroke-width="1.13" stroke-linejoin="bevel" points="14.1732,363.747 623.621,363.747"/>
<polyline class="StaffLines" fill="none" stroke="#000000" stroke-width="1.13" stroke-linejoin="bevel" points="14.1732,441.7 623.621,441.7"/>
<polyline class="StaffLines" fill="none" stroke="#000000" stroke-width="1.13" stroke-linejoin="bevel" points="14.1732,466.503 623.621,466.503"/>
<polyline class="StaffLines" fill="none" stroke="#000000" stroke-width="1.13" stroke-linejoin="bevel" points="14.1732,491.306 623.621,491.306"/>
<polyline class="StaffLines" fill="none" stroke="#000000" stroke-width="1.13" stroke-linejoin="bevel" points="14.1732,516.109 623.621,516.109"/>
<polyline class="StaffLines" fill="none" stroke="#000000" stroke-width="1.13" stroke-linejoin="bevel" points="14.1732,594.062 623.621,594.062"/>
<polyline class="StaffLines" fill="none" stroke="#000000" stroke-width="1.13" stroke-linejoin="bevel" points="14.1732,618.865 623.621,618.865"/>
<polyline class="StaffLines" fill="none" stroke="#000000" stroke-width="1.13" stroke-linejoin="bevel" points="14.1732,643.668 623.621,643.668"/>
<polyline class="StaffLines" fill="none" stroke="#000000" stroke-width="1.13" stroke-linejoin="bevel" points="14.1732,668.471 623.621,668.471"/>
<polyline class="StaffLines" fill="none" stroke="#000000" stroke-width="1.13" stroke-linejoin="bevel" points="14.1732,693.275 623.621,693.275"/>
<polyline class="StaffLines" fill="none" stroke="#000000" stroke-width="1.13" stroke-linejoin="bevel" points="14.1732,718.078 623.621,718.078"/>
<path class="Accidental" transform="matrix(0.566929,0,0,0.566929,152.664,349.574)" d="M4.59375,-4.10938 L4.59375,3.60938 C4.59375,6.34896 4.72396,8.53125 4.98438,10.1563 C7.13021,8.33333 8.66146,6.96875 9.57813,6.0625 C10.6198,5.02083 11.6615,3.58594 12.7031,1.75781 C13.7448,-0.0703125 14.2656,-1.89583 14.2656,-3.71875 C14.2656,-5.54167 13.875,-7.10417 13.0938,-8.40625 C12.3125,-9.70833 11.2708,-10.3594 9.96875,-10.3594 C8.40625,-10.3594 7.10417,-9.77083 6.0625,-8.59375 C5.08333,-7.29167 4.59375,-5.79688 4.59375,-4.10938 M0.484375,13.7656 L-0.78125,-45.7031 C0.135417,-46.224 1.04948,-46.4844 1.96094,-46.4844 C2.8724,-46.4844 3.78125,-46.224 4.6875,-45.7031 L3.90625,-11.2344 C6.57292,-13.5156 9.63542,-14.6563 13.0938,-14.6563 C15.625,-14.6563 17.737,-13.6146 19.4297,-11.5313 C21.1224,-9.44792 21.9688,-7.06771 21.9688,-4.39063 C21.9688,-2.70313 21.4167,-0.911458 20.3125,0.984375 C19.2708,2.73438 18.1667,4.09896 17,5.07813 C16.3438,5.59896 14.6823,6.90104 12.0156,8.98438 C11.2344,9.56771 10.3073,10.25 9.23438,11.0313 C8.16146,11.8125 7.49479,12.3021 7.23438,12.5 C6.77604,12.7604 6.34896,13.2813 5.95313,14.0625 C5.50521,14.7188 4.98438,15.2708 4.39063,15.7188 C3.94271,16.1146 3.39323,16.3125 2.74219,16.3125 C2.09115,16.3125 1.56771,16.0833 1.17188,15.625 C0.713542,15.1667 0.484375,14.5469 0.484375,13.7656"/>
<path class="Accidental" transform="matrix(0.566929,0,0,0.566929,346.807,328.314)" d="M4.59375,-4.10938 L4.59375,3.60938 C4.59375,6.34896 4.72396,8.53125 4.98438,10.1563 C7.13021,8.33333 8.66146,6.96875 9.57813,6.0625 C10.6198,5.02083 11.6615,3.58594 12.7031,1.75781 C13.7448,-0.0703125 14.2656,-1.89583 14.2656,-3.71875 C14.2656,-5.54167 13.875,-7.10417 13.0938,-8.40625 C12.3125,-9.70833 11.2708,-10.3594 9.96875,-10.3594 C8.40625,-10.3594 7.10417,-9.77083 6.0625,-8.59375 C5.08333,-7.29167 4.59375,-5.79688 4.59375,-4.10938 M0.484375,13.7656 L-0.78125,-45.7031 C0.135417,-46.224 1.04948,-46.4844 1.96094,-46.4844 C2.8724,-46.4844 3.78125,-46.224 4.6875,-45.7031 L3.90625,-11.2344 C6.57292,-13.5156 9.63542,-14.6563 13.0938,-14.6563 C15.625,-14.6563 17.737,-13.6146 19.4297,-11.5313 C21.1224,-9.44792 21.9688,-7.06771 21.9688,-4.39063 C21.9688,-2.70313 21.4167,-0.911458 20.3125,0.984375 C19.2708,2.73438 18.1667,4.09896 17,5.07813 C16.3438,5.59896 14.6823,6.90104 12.0156,8.98438 C11.2344,9.56771 10.3073,10.25 9.23438,11.0313 C8.16146,11.8125 7.49479,12.3021 7.23438,12.5 C6.77604,12.7604 6.34896,13.2813 5.95313,14.0625 C5.50521,14.7188 4.98438,15.2708 4.39063,15.7188 C3.94271,16.1146 3.39323,16.3125 2.74219,16.3125 C2.09115,16.3125 1.56771,16.0833 1.17188,15.625 C0.713542,15.1667 0.484375,14.5469 0.484375,13.7656"/>
<path class="Accidental" transform="matrix(0.566929,0,0,0.566929,152.664,207.842)" d="M4.59375,-4.10938 L4.59375,3.60938 C4.59375,6.34896 4.72396,8.53125 4.98438,10.1563 C7.13021,8.33333 8.66146,6.96875 9.57813,6.0625 C10.6198,5.02083 11.6615,3.58594 12.7031,1.75781 C13.7448,-0.0703125 14.2656,-1.89583 14.2656,-3.71875 C14.2656,-5.54167 13.875,-7.10417 13.0938,-8.40625 C12.3125,-9.70833 11.2708,-10.3594 9.96875,-10.3594 C8.40625,-10.3594 7.10417,-9.77083 6.0625,-8.59375 C5.08333,-7.29167 4.59375,-5.79688 4.59375,-4.10938 M0.484375,13.7656 L-0.78125,-45.7031 C0.135417,-46.224 1.04948,-46.4844 1.96094,-46.4844 C2.8724,-46.4844 3.78125,-46.224 4.6875,-45.7031 L3.90625,-11.2344 C6.57292,-13.5156 9.63542,-14.6563 13.0938,-14.6563 C15.625,-14.6563 17.737,-13.6146 19.4297,-11.5313 C21.1224,-9.44792 21.9688,-7.06771 21.9688,-4.39063 C21.9688,-2.70313 21.4167,-0.911458 20.3125,0.984375 C19.2708,2.73438 18.1667,4.09896 17,5.07813 C16.3438,5.59896 14.6823,6.90104 12.0156,8.98438 C11.2344,9.56771 10.3073,10.25 9.23438,11.0313 C8.16146,11.8125 7.49479,12.3021 7.23438,12.5 C6.77604,12.7604 6.34896,13.2813 5.95313,14.0625 C5.50521,14.7188 4.98438,15.2708 4.39063,15.7188 C3.94271,16.1146 3.39323,16.3125 2.74219,16.3125 C2.09115,16.3125 1.56771,16.0833 1.17188,15.625 C0.713542,15.1667 0.484375,14.5469 0.484375,13.7656"/>
<path class="Accidental" transform="matrix(0.566929,0,0,0.566929,346.807,186.582)" d="M4.59375,-4.10938 L4.59375,3.60938 C4.59375,6.34896 4.72396,8.53125 4.98438,10.1563 C7.13021,8.33333 8.66146,6.96875 9.57813,6.0625 C10.6198,5.02083 11.6615,3.58594 12.7031,1.75781 C13.7448,-0.0703125 14.2656,-1.89583 14.2656,-3.71875 C14.2656,-5.54167 13.875,-7.10417 13.0938,-8.40625 C12.3125,-9.70833 11.2708,-10.3594 9.96875,-10.3594 C8.40625,-10.3594 7.10417,-9.77083 6.0625,-8.59375 C5.08333,-7.29167 4.59375,-5.79688 4.59375,-4.10938 M0.484375,13.7656 L-0.78125,-45.7031 C0.135417,-46.224 1.04948,-46.4844 1.96094,-46.4844 C2.8724,-46.4844 3.78125,-46.224 4.6875,-45.7031 L3.90625,-11.2344 C6.57292,-13.5156 9.63542,-14.6563 13.0938,-14.6563 C15.625,-14.6563 17.737,-13.6146 19.4297,-11.5313 C21.1224,-9.44792 21.9688,-7.06771 21.9688,-4.39063 C21.9688,-2.70313 21.4167,-0.911458 20.3125,0.984375 C19.2708,2.73438 18.1667,4.09896 17,5.07813 C16.3438,5.59896 14.6823,6.90104 12.0156,8.98438 C11.2344,9.56771 10.3073,10.25 9.23438,11.0313 C8.16146,11.8125 7.49479,12.3021 7.23438,12.5 C6.77604,12.7604 6.34896,13.2813 5.95313,14.0625 C5.50521,14.7188 4.98438,15.2708 4.39063,15.7188 C3.94271,16.1146 3.39323,16.3125 2.74219,16.3125 C2.09115,16.3125 1.56771,16.0833 1.17188,15.625 C0.713542,15.1667 0.484375,14.5469 0.484375,13.7656"/>
<path class="Accidental" transform="matrix(0.566929,0,0,0.566929,152.664,66.1093)" d="M4.59375,-4.10938 L4.59375,3.60938 C4.59375,6.34896 4.72396,8.53125 4.98438,10.1563 C7.13021,8.33333 8.66146,6.96875 9.57813,6.0625 C10.6198,5.02083 11.6615,3.58594 12.7031,1.75781 C13.7448,-0.0703125 14.2656,-1.89583 14.2656,-3.71875 C14.2656,-5.54167 13.875,-7.10417 13.0938,-8.40625 C12.3125,-9.70833 11.2708,-10.3594 9.96875,-10.3594 C8.40625,-10.3594 7.10417,-9.77083 6.0625,-8.59375 C5.08333,-7.29167 4.59375,-5.79688 4.59375,-4.10938 M0.484375,13.7656 L-0.78125,-45.7031 C0.135417,-46.224 1.04948,-46.4844 1.96094,-46.4844 C2.8724,-46.4844 3.78125,-46.224 4.6875,-45.7031 L3.90625,-11.2344 C6.57292,-13.5156 9.63542,-14.6563 13.0938,-14.6563 C15.625,-14.6563 17.737,-13.6146 19.4297,-11.5313 C21.1224,-9.44792 21.9688,-7.06771 21.9688,-4.39063 C21.9688,-2.70313 21.4167,-0.911458 20.3125,0.984375 C19.2708,2.73438 18.1667,4.09896 17,5.07813 C16.3438,5.59896 14.6823,6.90104 12.0156,8.98438 C11.2344,9.56771 10.3073,10.25 9.23438,11.0313 C8.16146,11.8125 7.49479,12.3021 7.23438,12.5 C6.77604,12.7604 6.34896,13.2813 5.95313,14.0625 C5.50521,14.7188 4.98438,15.2708 4.39063,15.7188 C3.94271,16.1146 3.39323,16.3125 2.74219,16.3125 C2.09115,16.3125 1.56771,16.0833 1.17188,15.625 C0.713542,15.1667 0.484375,14.5469 0.484375,13.7656"/>
<path class="Accidental" transform="matrix(0.566929,0,0,0.566929,346.807,44.8494)" d="M4.59375,-4.10938 L4.59375,3.60938 C4.59375,6.34896 4.72396,8.53125 4.98438,10.1563 C7.13021,8.33333 8.66146,6.96875 9.57813,6.0625 C10.6198,5.02083 11.6615,3.58594 12.7031,1.75781 C13.7448,-0.0703125 14.2656,-1.89583 14.2656,-3.71875 C14.2656,-5.54167 13.875,-7.10417 13.0938,-8.40625 C12.3125,-9.70833 11.2708,-10.3594 9.96875,-10.3594 C8.40625,-10.3594 7.10417,-9.77083 6.0625,-8.59375 C5.08333,-7.29167 4.59375,-5.79688 4.59375,-4.10938 M0.484375,13.7656 L-0.78125,-45.7031 C0.135417,-46.224 1.04948,-46.4844 1.96094,-46.4844 C2.8724,-46.4844 3.78125,-46.224 4.6875,-45.7031 L3.90625,-11.2344 C6.57292,-13.5156 9.63542,-14.6563 13.0938,-14.6563 C15.625,-14.6563 17.737,-13.6146 19.4297,-11.5313 C21.1224,-9.44792 21.9688,-7.06771 21.9688,-4.39063 C21.9688,-2.70313 21.4167,-0.911458 20.3125,0.984375 C19.2708,2.73438 18.1667,4.09896 17,5.07813 C16.3438,5.59896 14.6823,6.90104 12.0156,8.98438 C11.2344,9.56771 10.3073,10.25 9.23438,11.0313 C8.16146,11.8125 7.49479,12.3021 7.23438,12.5 C6.77604,12.7604 6.34896,13.2813 5.95313,14.0625 C5.50521,14.7188 4.98438,15.2708 4.39063,15.7188 C3.94271,16.1146 3.39323,16.3125 2.74219,16.3125 C2.09115,16.3125 1.56771,16.0833 1.17188,15.625 C0.713542,15.1667 0.484375,14.5469 0.484375,13.7656"/>
<polyline class="LedgerLine" fill="none" stroke="#000000" stroke-width="2.27" stroke-linecap="square" stroke-linejoin="bevel" points="552.387,23.5896 579.551,23.5896"/>
<path class="Note" fill="#ffffff" fill-opacity="0.0" fill-rule="evenodd" d="M104.913,680.873 L123.622,680.873 L123.622,705.676 L104.913,705.676 L104.913,680.873 "/>
<path class="Note" d="M107.533,694.415 C107.533,692.759 107.674,691.295 107.955,690.025 C108.236,688.754 108.591,687.759 109.018,687.04 C109.445,686.321 109.958,685.738 110.557,685.29 C111.156,684.842 111.731,684.543 112.283,684.392 C112.835,684.241 113.419,684.165 114.033,684.165 C118.367,684.165 120.533,687.639 120.533,694.587 C120.533,697.858 119.976,700.355 118.861,702.079 C117.747,703.803 116.138,704.665 114.033,704.665 C111.908,704.665 110.294,703.793 109.19,702.048 C108.085,700.303 107.533,697.759 107.533,694.415 M118.002,694.368 C118.002,689.025 116.677,686.353 114.026,686.353 C111.374,686.353 110.049,689.051 110.049,694.446 C110.049,699.894 111.356,702.618 113.971,702.618 C115.356,702.618 116.374,701.946 117.026,700.603 C117.677,699.259 118.002,697.181 118.002,694.368"/>
<path class="Note" fill="#ffffff" fill-opacity="0.0" fill-rule="evenodd" d="M104.913,631.267 L123.622,631.267 L123.622,656.07 L104.913,656.07 L104.913,631.267 "/>
<path class="Note" d="M107.736,641.45 C107.861,636.856 110.044,634.559 114.283,634.559 C116.169,634.559 117.7,635.101 118.877,636.184 C120.054,637.267 120.643,638.668 120.643,640.387 C120.643,642.856 119.242,644.856 116.44,646.387 L113.643,647.887 C112.424,648.543 111.554,649.179 111.033,649.793 C110.513,650.408 110.184,651.137 110.049,651.981 L120.502,651.981 L120.502,654.418 L107.283,654.418 C107.398,652.231 107.838,650.546 108.604,649.364 C109.369,648.181 110.789,647.002 112.861,645.825 L115.424,644.371 C117.216,643.34 118.111,642.033 118.111,640.45 C118.111,639.387 117.739,638.499 116.994,637.786 C116.249,637.072 115.32,636.715 114.205,636.715 C111.716,636.715 110.377,638.293 110.19,641.45 L107.736,641.45 "/>
<path class="Note" fill="#ffffff" fill-opacity="0.0" fill-rule="evenodd" d="M169.627,680.873 L188.336,680.873 L188.336,705.676 L169.627,705.676 L169.627,680.873 "/>
<path class="Note" d="M178.295,689.884 L173.904,689.884 L173.904,688.118 C175.81,687.879 177.053,687.543 177.631,687.111 C178.209,686.678 178.711,685.696 179.138,684.165 L180.763,684.165 L180.763,704.025 L178.295,704.025 L178.295,689.884 "/>
<path class="Note" fill="#ffffff" fill-opacity="0.0" fill-rule="evenodd" d="M169.627,631.267 L188.336,631.267 L188.336,656.07 L169.627,656.07 L169.627,631.267 "/>
<path class="Note" d="M178.607,636.715 C177.191,636.715 176.217,637.103 175.685,637.879 C175.154,638.655 174.868,639.689 174.826,640.981 L172.357,640.981 C172.451,636.7 174.524,634.559 178.576,634.559 C180.461,634.559 181.941,635.046 183.013,636.02 C184.086,636.994 184.623,638.33 184.623,640.028 C184.623,642.038 183.701,643.408 181.857,644.137 C183.045,644.554 183.901,645.129 184.428,645.864 C184.954,646.598 185.217,647.601 185.217,648.871 C185.217,650.757 184.605,652.259 183.381,653.379 C182.157,654.499 180.529,655.059 178.498,655.059 C174.425,655.059 172.237,652.924 171.935,648.653 L174.404,648.653 C174.498,650.09 174.881,651.153 175.553,651.84 C176.224,652.528 177.232,652.871 178.576,652.871 C179.868,652.871 180.875,652.522 181.599,651.825 C182.323,651.127 182.685,650.153 182.685,648.903 C182.685,646.496 181.316,645.293 178.576,645.293 L177.545,645.325 L177.232,645.325 L177.232,643.215 C179.003,643.184 180.258,642.963 180.998,642.551 C181.737,642.14 182.107,641.325 182.107,640.106 C182.107,639.064 181.795,638.239 181.17,637.629 C180.545,637.02 179.691,636.715 178.607,636.715"/>
<path class="Note" fill="#ffffff" fill-opacity="0.0" fill-rule="evenodd" d="M234.342,680.873 L253.051,680.873 L253.051,705.676 L234.342,705.676 L234.342,680.873 "/>
<path class="Note" d="M243.322,686.321 C241.905,686.321 240.931,686.71 240.4,687.486 C239.869,688.262 239.582,689.295 239.54,690.587 L237.072,690.587 C237.165,686.306 239.238,684.165 243.29,684.165 C245.176,684.165 246.655,684.652 247.728,685.626 C248.801,686.6 249.337,687.936 249.337,689.634 C249.337,691.644 248.415,693.014 246.572,693.743 C247.759,694.16 248.616,694.736 249.142,695.47 C249.668,696.204 249.931,697.207 249.931,698.478 C249.931,700.363 249.319,701.866 248.095,702.986 C246.871,704.105 245.244,704.665 243.212,704.665 C239.139,704.665 236.952,702.53 236.65,698.259 L239.119,698.259 C239.212,699.696 239.595,700.759 240.267,701.446 C240.939,702.134 241.947,702.478 243.29,702.478 C244.582,702.478 245.59,702.129 246.314,701.431 C247.038,700.733 247.4,699.759 247.4,698.509 C247.4,696.103 246.03,694.9 243.29,694.9 L242.259,694.931 L241.947,694.931 L241.947,692.821 C243.718,692.79 244.973,692.569 245.712,692.157 C246.452,691.746 246.822,690.931 246.822,689.712 C246.822,688.67 246.509,687.845 245.884,687.236 C245.259,686.626 244.405,686.321 243.322,686.321"/>
<path class="Note" fill="#ffffff" fill-opacity="0.0" fill-rule="evenodd" d="M234.342,606.464 L253.051,606.464 L253.051,631.267 L234.342,631.267 L234.342,606.464 "/>
<path class="Note" d="M243.009,615.475 L238.619,615.475 L238.619,613.709 C240.525,613.469 241.767,613.133 242.345,612.701 C242.923,612.269 243.426,611.287 243.853,609.756 L245.478,609.756 L245.478,629.615 L243.009,629.615 L243.009,615.475 "/>
<path class="Note" fill="#ffffff" fill-opacity="0.0" fill-rule="evenodd" d="M299.056,656.07 L317.765,656.07 L317.765,680.873 L299.056,680.873 L299.056,656.07 "/>
<path class="Note" d="M301.677,669.612 C301.677,667.956 301.817,666.492 302.099,665.221 C302.38,663.951 302.734,662.956 303.161,662.237 C303.588,661.518 304.101,660.935 304.7,660.487 C305.299,660.039 305.875,659.74 306.427,659.589 C306.979,659.438 307.562,659.362 308.177,659.362 C312.51,659.362 314.677,662.836 314.677,669.784 C314.677,673.055 314.119,675.552 313.005,677.276 C311.89,679 310.281,679.862 308.177,679.862 C306.052,679.862 304.437,678.99 303.333,677.245 C302.229,675.5 301.677,672.956 301.677,669.612 M312.146,669.565 C312.146,664.221 310.82,661.55 308.169,661.55 C305.518,661.55 304.192,664.248 304.192,669.643 C304.192,675.091 305.5,677.815 308.114,677.815 C309.5,677.815 310.518,677.143 311.169,675.8 C311.82,674.456 312.146,672.378 312.146,669.565"/>
<path class="Note" fill="#ffffff" fill-opacity="0.0" fill-rule="evenodd" d="M299.056,606.464 L317.765,606.464 L317.765,631.267 L299.056,631.267 L299.056,606.464 "/>
<path class="Note" d="M308.036,611.912 C306.619,611.912 305.646,612.3 305.114,613.076 C304.583,613.852 304.297,614.886 304.255,616.178 L301.786,616.178 C301.88,611.896 303.953,609.756 308.005,609.756 C309.89,609.756 311.369,610.243 312.442,611.217 C313.515,612.191 314.052,613.527 314.052,615.225 C314.052,617.235 313.13,618.605 311.286,619.334 C312.474,619.751 313.33,620.326 313.856,621.06 C314.383,621.795 314.646,622.797 314.646,624.068 C314.646,625.954 314.034,627.456 312.81,628.576 C311.586,629.696 309.958,630.256 307.927,630.256 C303.854,630.256 301.666,628.12 301.364,623.85 L303.833,623.85 C303.927,625.287 304.31,626.35 304.981,627.037 C305.653,627.725 306.661,628.068 308.005,628.068 C309.297,628.068 310.304,627.719 311.028,627.021 C311.752,626.323 312.114,625.35 312.114,624.1 C312.114,621.693 310.744,620.49 308.005,620.49 L306.974,620.521 L306.661,620.521 L306.661,618.412 C308.432,618.381 309.687,618.159 310.427,617.748 C311.166,617.337 311.536,616.521 311.536,615.303 C311.536,614.261 311.224,613.435 310.599,612.826 C309.974,612.217 309.119,611.912 308.036,611.912"/>
<path class="Note" fill="#ffffff" fill-opacity="0.0" fill-rule="evenodd" d="M363.771,656.07 L382.479,656.07 L382.479,680.873 L363.771,680.873 L363.771,656.07 "/>
<path class="Note" d="M372.438,665.081 L368.048,665.081 L368.048,663.315 C369.954,663.076 371.196,662.74 371.774,662.307 C372.352,661.875 372.855,660.893 373.282,659.362 L374.907,659.362 L374.907,679.221 L372.438,679.221 L372.438,665.081 "/>
<path class="Note" fill="#ffffff" fill-opacity="0.0" fill-rule="evenodd" d="M363.771,606.464 L382.479,606.464 L382.479,631.267 L363.771,631.267 L363.771,606.464 "/>
<path class="Note" d="M374.344,624.85 L365.969,624.85 L365.969,622.256 L374.985,609.756 L376.813,609.756 L376.813,622.646 L379.751,622.646 L379.751,624.85 L376.813,624.85 L376.813,629.615 L374.344,629.615 L374.344,624.85 M374.344,622.646 L374.344,613.959 L368.126,622.646 L374.344,622.646 "/>
<path class="Note" fill="#ffffff" fill-opacity="0.0" fill-rule="evenodd" d="M428.485,656.07 L447.194,656.07 L447.194,680.873 L428.485,680.873 L428.485,656.07 "/>
<path class="Note" d="M437.465,661.518 C436.048,661.518 435.074,661.906 434.543,662.682 C434.012,663.458 433.726,664.492 433.684,665.784 L431.215,665.784 C431.309,661.503 433.382,659.362 437.434,659.362 C439.319,659.362 440.798,659.849 441.871,660.823 C442.944,661.797 443.481,663.133 443.481,664.831 C443.481,666.841 442.559,668.211 440.715,668.94 C441.903,669.357 442.759,669.932 443.285,670.667 C443.811,671.401 444.074,672.404 444.074,673.675 C444.074,675.56 443.463,677.063 442.239,678.182 C441.015,679.302 439.387,679.862 437.356,679.862 C433.283,679.862 431.095,677.727 430.793,673.456 L433.262,673.456 C433.356,674.893 433.739,675.956 434.41,676.643 C435.082,677.331 436.09,677.675 437.434,677.675 C438.726,677.675 439.733,677.326 440.457,676.628 C441.181,675.93 441.543,674.956 441.543,673.706 C441.543,671.3 440.173,670.096 437.434,670.096 L436.403,670.128 L436.09,670.128 L436.09,668.018 C437.861,667.987 439.116,667.766 439.856,667.354 C440.595,666.943 440.965,666.128 440.965,664.909 C440.965,663.867 440.653,663.042 440.028,662.432 C439.403,661.823 438.548,661.518 437.465,661.518"/>
<path class="Note" fill="#ffffff" fill-opacity="0.0" fill-rule="evenodd" d="M428.485,581.66 L447.194,581.66 L447.194,606.464 L428.485,606.464 L428.485,581.66 "/>
<path class="Note" d="M437.153,590.671 L432.762,590.671 L432.762,588.906 C434.668,588.666 435.91,588.33 436.489,587.898 C437.067,587.466 437.569,586.484 437.996,584.953 L439.621,584.953 L439.621,604.812 L437.153,604.812 L437.153,590.671 "/>
<path class="Note" fill="#ffffff" fill-opacity="0.0" fill-rule="evenodd" d="M493.2,631.267 L511.908,631.267 L511.908,656.07 L493.2,656.07 L493.2,631.267 "/>
<path class="Note" d="M495.82,644.809 C495.82,643.153 495.961,641.689 496.242,640.418 C496.523,639.147 496.877,638.153 497.305,637.434 C497.732,636.715 498.245,636.132 498.844,635.684 C499.443,635.236 500.018,634.937 500.57,634.786 C501.122,634.634 501.706,634.559 502.32,634.559 C506.654,634.559 508.82,638.033 508.82,644.981 C508.82,648.252 508.263,650.749 507.148,652.473 C506.034,654.197 504.424,655.059 502.32,655.059 C500.195,655.059 498.581,654.187 497.476,652.442 C496.372,650.697 495.82,648.153 495.82,644.809 M506.289,644.762 C506.289,639.418 504.963,636.746 502.312,636.746 C499.661,636.746 498.336,639.444 498.336,644.84 C498.336,650.288 499.643,653.012 502.258,653.012 C503.643,653.012 504.661,652.34 505.312,650.996 C505.963,649.653 506.289,647.575 506.289,644.762"/>
<path class="Note" fill="#ffffff" fill-opacity="0.0" fill-rule="evenodd" d="M493.2,581.66 L511.908,581.66 L511.908,606.464 L493.2,606.464 L493.2,581.66 "/>
<path class="Note" d="M502.18,587.109 C500.763,587.109 499.789,587.497 499.258,588.273 C498.726,589.049 498.44,590.083 498.398,591.375 L495.93,591.375 C496.023,587.093 498.096,584.953 502.148,584.953 C504.034,584.953 505.513,585.44 506.586,586.414 C507.659,587.388 508.195,588.723 508.195,590.421 C508.195,592.432 507.273,593.802 505.43,594.531 C506.617,594.947 507.474,595.523 508,596.257 C508.526,596.992 508.789,597.994 508.789,599.265 C508.789,601.151 508.177,602.653 506.953,603.773 C505.729,604.893 504.101,605.453 502.07,605.453 C497.997,605.453 495.81,603.317 495.508,599.046 L497.976,599.046 C498.07,600.484 498.453,601.546 499.125,602.234 C499.797,602.921 500.805,603.265 502.148,603.265 C503.44,603.265 504.448,602.916 505.172,602.218 C505.896,601.52 506.258,600.546 506.258,599.296 C506.258,596.89 504.888,595.687 502.148,595.687 L501.117,595.718 L500.805,595.718 L500.805,593.609 C502.575,593.578 503.831,593.356 504.57,592.945 C505.31,592.533 505.68,591.718 505.68,590.5 C505.68,589.458 505.367,588.632 504.742,588.023 C504.117,587.414 503.263,587.109 502.18,587.109"/>
<path class="Note" fill="#ffffff" fill-opacity="0.0" fill-rule="evenodd" d="M557.914,631.267 L576.623,631.267 L576.623,656.07 L557.914,656.07 L557.914,631.267 "/>
<path class="Note" d="M560.738,641.45 C560.863,636.856 563.045,634.559 567.285,634.559 C569.17,634.559 570.701,635.101 571.878,636.184 C573.056,637.267 573.644,638.668 573.644,640.387 C573.644,642.856 572.243,644.856 569.441,646.387 L566.644,647.887 C565.425,648.543 564.556,649.179 564.035,649.793 C563.514,650.408 563.186,651.137 563.05,651.981 L573.503,651.981 L573.503,654.418 L560.285,654.418 C560.399,652.231 560.839,650.546 561.605,649.364 C562.371,648.181 563.79,647.002 565.863,645.825 L568.425,644.371 C570.217,643.34 571.113,642.033 571.113,640.45 C571.113,639.387 570.74,638.499 569.996,637.786 C569.251,637.072 568.321,636.715 567.207,636.715 C564.717,636.715 563.378,638.293 563.191,641.45 L560.738,641.45 "/>
<path class="Note" fill="#ffffff" fill-opacity="0.0" fill-rule="evenodd" d="M557.914,581.66 L576.623,581.66 L576.623,606.464 L557.914,606.464 L557.914,581.66 "/>
<path class="Note" d="M572.66,584.953 L572.66,587.39 L564.394,587.39 L563.613,592.937 C564.717,592.135 565.941,591.734 567.285,591.734 C569.191,591.734 570.735,592.346 571.917,593.57 C573.1,594.794 573.691,596.385 573.691,598.343 C573.691,600.437 573.058,602.145 571.792,603.468 C570.527,604.791 568.894,605.453 566.894,605.453 C566.123,605.453 565.417,605.369 564.777,605.203 C564.136,605.036 563.605,604.835 563.183,604.601 C562.761,604.367 562.378,604.059 562.035,603.679 C561.691,603.299 561.431,602.963 561.253,602.671 C561.076,602.38 560.907,602.015 560.746,601.578 C560.584,601.14 560.485,600.838 560.449,600.671 C560.412,600.505 560.368,600.26 560.316,599.937 L562.769,599.937 C563.352,602.156 564.707,603.265 566.832,603.265 C568.175,603.265 569.235,602.856 570.011,602.039 C570.787,601.221 571.175,600.104 571.175,598.687 C571.175,597.208 570.782,596.044 569.996,595.195 C569.209,594.346 568.154,593.921 566.832,593.921 C566.071,593.921 565.42,594.057 564.878,594.328 C564.337,594.598 563.774,595.078 563.191,595.765 L560.925,595.765 L562.41,584.953 L572.66,584.953 "/>
<path class="Note" fill="#ffffff" fill-opacity="0.0" fill-rule="evenodd" d="M104.913,503.708 L123.622,503.708 L123.622,528.511 L104.913,528.511 L104.913,503.708 "/>
<path class="Note" d="M107.736,513.891 C107.861,509.297 110.044,507 114.283,507 C116.169,507 117.7,507.542 118.877,508.625 C120.054,509.708 120.643,511.109 120.643,512.828 C120.643,515.297 119.242,517.297 116.44,518.828 L113.643,520.328 C112.424,520.984 111.554,521.62 111.033,522.234 C110.513,522.849 110.184,523.578 110.049,524.422 L120.502,524.422 L120.502,526.859 L107.283,526.859 C107.398,524.672 107.838,522.987 108.604,521.805 C109.369,520.622 110.789,519.443 112.861,518.266 L115.424,516.812 C117.216,515.781 118.111,514.474 118.111,512.891 C118.111,511.828 117.739,510.94 116.994,510.226 C116.249,509.513 115.32,509.156 114.205,509.156 C111.716,509.156 110.377,510.734 110.19,513.891 L107.736,513.891 "/>
<path class="Note" fill="#ffffff" fill-opacity="0.0" fill-rule="evenodd" d="M104.913,454.101 L123.622,454.101 L123.622,478.905 L104.913,478.905 L104.913,454.101 "/>
<path class="Note" d="M107.533,467.644 C107.533,465.987 107.674,464.524 107.955,463.253 C108.236,461.982 108.591,460.987 109.018,460.269 C109.445,459.55 109.958,458.967 110.557,458.519 C111.156,458.071 111.731,457.771 112.283,457.62 C112.835,457.469 113.419,457.394 114.033,457.394 C118.367,457.394 120.533,460.868 120.533,467.815 C120.533,471.086 119.976,473.584 118.861,475.308 C117.747,477.032 116.138,477.894 114.033,477.894 C111.908,477.894 110.294,477.021 109.19,475.276 C108.085,473.532 107.533,470.987 107.533,467.644 M118.002,467.597 C118.002,462.253 116.677,459.581 114.026,459.581 C111.374,459.581 110.049,462.279 110.049,467.675 C110.049,473.123 111.356,475.847 113.971,475.847 C115.356,475.847 116.374,475.175 117.026,473.831 C117.677,472.487 118.002,470.409 118.002,467.597"/>
<path class="Note" fill="#ffffff" fill-opacity="0.0" fill-rule="evenodd" d="M169.627,503.708 L188.336,503.708 L188.336,528.511 L169.627,528.511 L169.627,503.708 "/>
<path class="Note" d="M178.607,509.156 C177.191,509.156 176.217,509.544 175.685,510.32 C175.154,511.096 174.868,512.13 174.826,513.422 L172.357,513.422 C172.451,509.141 174.524,507 178.576,507 C180.461,507 181.941,507.487 183.013,508.461 C184.086,509.435 184.623,510.771 184.623,512.469 C184.623,514.479 183.701,515.849 181.857,516.578 C183.045,516.995 183.901,517.57 184.428,518.305 C184.954,519.039 185.217,520.042 185.217,521.312 C185.217,523.198 184.605,524.7 183.381,525.82 C182.157,526.94 180.529,527.5 178.498,527.5 C174.425,527.5 172.237,525.364 171.935,521.094 L174.404,521.094 C174.498,522.531 174.881,523.594 175.553,524.281 C176.224,524.969 177.232,525.312 178.576,525.312 C179.868,525.312 180.875,524.963 181.599,524.266 C182.323,523.568 182.685,522.594 182.685,521.344 C182.685,518.937 181.316,517.734 178.576,517.734 L177.545,517.766 L177.232,517.766 L177.232,515.656 C179.003,515.625 180.258,515.404 180.998,514.992 C181.737,514.581 182.107,513.766 182.107,512.547 C182.107,511.505 181.795,510.68 181.17,510.07 C180.545,509.461 179.691,509.156 178.607,509.156"/>
<path class="Note" fill="#ffffff" fill-opacity="0.0" fill-rule="evenodd" d="M169.627,454.101 L188.336,454.101 L188.336,478.905 L169.627,478.905 L169.627,454.101 "/>
<path class="Note" d="M178.295,463.112 L173.904,463.112 L173.904,461.347 C175.81,461.107 177.053,460.771 177.631,460.339 C178.209,459.907 178.711,458.925 179.138,457.394 L180.763,457.394 L180.763,477.253 L178.295,477.253 L178.295,463.112 "/>
<path class="Note" fill="#ffffff" fill-opacity="0.0" fill-rule="evenodd" d="M234.342,503.708 L253.051,503.708 L253.051,528.511 L234.342,528.511 L234.342,503.708 "/>
<path class="Note" d="M249.087,507 L249.087,509.437 L240.822,509.437 L240.04,514.984 C241.145,514.182 242.369,513.781 243.712,513.781 C245.619,513.781 247.163,514.393 248.345,515.617 C249.527,516.841 250.119,518.432 250.119,520.391 C250.119,522.484 249.486,524.193 248.22,525.516 C246.954,526.838 245.322,527.5 243.322,527.5 C242.551,527.5 241.845,527.417 241.204,527.25 C240.564,527.083 240.033,526.883 239.611,526.648 C239.189,526.414 238.806,526.107 238.462,525.726 C238.119,525.346 237.858,525.01 237.681,524.719 C237.504,524.427 237.335,524.062 237.173,523.625 C237.012,523.187 236.913,522.885 236.876,522.719 C236.84,522.552 236.796,522.307 236.744,521.984 L239.197,521.984 C239.78,524.203 241.134,525.312 243.259,525.312 C244.603,525.312 245.663,524.904 246.439,524.086 C247.215,523.268 247.603,522.151 247.603,520.734 C247.603,519.255 247.21,518.091 246.423,517.242 C245.637,516.393 244.582,515.969 243.259,515.969 C242.499,515.969 241.848,516.104 241.306,516.375 C240.764,516.646 240.202,517.125 239.619,517.812 L237.353,517.812 L238.837,507 L249.087,507 "/>
<path class="Note" fill="#ffffff" fill-opacity="0.0" fill-rule="evenodd" d="M234.342,454.101 L253.051,454.101 L253.051,478.905 L234.342,478.905 L234.342,454.101 "/>
<path class="Note" d="M243.322,459.55 C241.905,459.55 240.931,459.938 240.4,460.714 C239.869,461.49 239.582,462.524 239.54,463.815 L237.072,463.815 C237.165,459.534 239.238,457.394 243.29,457.394 C245.176,457.394 246.655,457.881 247.728,458.855 C248.801,459.828 249.337,461.164 249.337,462.862 C249.337,464.873 248.415,466.243 246.572,466.972 C247.759,467.388 248.616,467.964 249.142,468.698 C249.668,469.433 249.931,470.435 249.931,471.706 C249.931,473.592 249.319,475.094 248.095,476.214 C246.871,477.334 245.244,477.894 243.212,477.894 C239.139,477.894 236.952,475.758 236.65,471.487 L239.119,471.487 C239.212,472.925 239.595,473.987 240.267,474.675 C240.939,475.362 241.947,475.706 243.29,475.706 C244.582,475.706 245.59,475.357 246.314,474.659 C247.038,473.961 247.4,472.987 247.4,471.737 C247.4,469.331 246.03,468.128 243.29,468.128 L242.259,468.159 L241.947,468.159 L241.947,466.05 C243.718,466.019 244.973,465.797 245.712,465.386 C246.452,464.974 246.822,464.159 246.822,462.94 C246.822,461.899 246.509,461.073 245.884,460.464 C245.259,459.855 244.405,459.55 243.322,459.55"/>
<path class="Note" fill="#ffffff" fill-opacity="0.0" fill-rule="evenodd" d="M299.056,478.905 L317.765,478.905 L317.765,503.708 L299.056,503.708 L299.056,478.905 "/>
<path class="Note" d="M301.677,492.447 C301.677,490.79 301.817,489.327 302.099,488.056 C302.38,486.785 302.734,485.79 303.161,485.072 C303.588,484.353 304.101,483.77 304.7,483.322 C305.299,482.874 305.875,482.574 306.427,482.423 C306.979,482.272 307.562,482.197 308.177,482.197 C312.51,482.197 314.677,485.671 314.677,492.619 C314.677,495.889 314.119,498.387 313.005,500.111 C311.89,501.835 310.281,502.697 308.177,502.697 C306.052,502.697 304.437,501.824 303.333,500.08 C302.229,498.335 301.677,495.79 301.677,492.447 M312.146,492.4 C312.146,487.056 310.82,484.384 308.169,484.384 C305.518,484.384 304.192,487.082 304.192,492.478 C304.192,497.926 305.5,500.65 308.114,500.65 C309.5,500.65 310.518,499.978 311.169,498.634 C311.82,497.29 312.146,495.212 312.146,492.4"/>
<path class="Note" fill="#ffffff" fill-opacity="0.0" fill-rule="evenodd" d="M299.056,454.101 L317.765,454.101 L317.765,478.905 L299.056,478.905 L299.056,454.101 "/>
<path class="Note" d="M313.802,457.394 L313.802,459.831 L305.536,459.831 L304.755,465.378 C305.859,464.576 307.083,464.175 308.427,464.175 C310.333,464.175 311.877,464.787 313.06,466.011 C314.242,467.235 314.833,468.826 314.833,470.784 C314.833,472.878 314.2,474.586 312.935,475.909 C311.669,477.232 310.036,477.894 308.036,477.894 C307.265,477.894 306.56,477.81 305.919,477.644 C305.278,477.477 304.747,477.276 304.325,477.042 C303.903,476.808 303.521,476.5 303.177,476.12 C302.833,475.74 302.573,475.404 302.396,475.112 C302.218,474.821 302.049,474.456 301.888,474.019 C301.726,473.581 301.627,473.279 301.591,473.112 C301.554,472.946 301.51,472.701 301.458,472.378 L303.911,472.378 C304.494,474.597 305.849,475.706 307.974,475.706 C309.317,475.706 310.377,475.297 311.153,474.48 C311.929,473.662 312.317,472.545 312.317,471.128 C312.317,469.649 311.924,468.485 311.138,467.636 C310.351,466.787 309.297,466.362 307.974,466.362 C307.213,466.362 306.562,466.498 306.021,466.769 C305.479,467.039 304.916,467.519 304.333,468.206 L302.067,468.206 L303.552,457.394 L313.802,457.394 "/>
<path class="Note" fill="#ffffff" fill-opacity="0.0" fill-rule="evenodd" d="M363.771,478.905 L382.479,478.905 L382.479,503.708 L363.771,503.708 L363.771,478.905 "/>
<path class="Note" d="M372.438,487.915 L368.048,487.915 L368.048,486.15 C369.954,485.91 371.196,485.574 371.774,485.142 C372.352,484.71 372.855,483.728 373.282,482.197 L374.907,482.197 L374.907,502.056 L372.438,502.056 L372.438,487.915 "/>
<path class="Note" fill="#ffffff" fill-opacity="0.0" fill-rule="evenodd" d="M363.771,454.101 L382.479,454.101 L382.479,478.905 L363.771,478.905 L363.771,454.101 "/>
<path class="Note" d="M366.391,468.206 C366.391,466.456 366.55,464.912 366.868,463.573 C367.186,462.235 367.581,461.185 368.055,460.425 C368.529,459.664 369.1,459.045 369.766,458.565 C370.433,458.086 371.061,457.771 371.649,457.62 C372.238,457.469 372.855,457.394 373.501,457.394 C375.011,457.394 376.266,457.852 377.266,458.769 C378.266,459.685 378.886,460.956 379.126,462.581 L376.673,462.581 C376.464,461.633 376.071,460.896 375.493,460.37 C374.915,459.844 374.193,459.581 373.329,459.581 C371.912,459.581 370.826,460.23 370.071,461.526 C369.316,462.823 368.928,464.685 368.907,467.112 C369.99,465.644 371.511,464.909 373.469,464.909 C375.251,464.909 376.709,465.498 377.844,466.675 C378.98,467.852 379.548,469.362 379.548,471.206 C379.548,473.144 378.938,474.743 377.719,476.003 C376.501,477.263 374.949,477.894 373.063,477.894 C368.615,477.894 366.391,474.664 366.391,468.206 M373.173,467.097 C371.954,467.097 370.962,467.482 370.196,468.253 C369.43,469.024 369.048,470.029 369.048,471.269 C369.048,472.529 369.43,473.584 370.196,474.433 C370.962,475.282 371.923,475.706 373.079,475.706 C374.225,475.706 375.17,475.302 375.915,474.495 C376.659,473.688 377.032,472.654 377.032,471.394 C377.032,470.071 376.686,469.024 375.993,468.253 C375.3,467.482 374.36,467.097 373.173,467.097"/>
<path class="Note" fill="#ffffff" fill-opacity="0.0" fill-rule="evenodd" d="M428.485,478.905 L447.194,478.905 L447.194,503.708 L428.485,503.708 L428.485,478.905 "/>
<path class="Note" d="M437.465,484.353 C436.048,484.353 435.074,484.741 434.543,485.517 C434.012,486.293 433.726,487.327 433.684,488.619 L431.215,488.619 C431.309,484.337 433.382,482.197 437.434,482.197 C439.319,482.197 440.798,482.684 441.871,483.658 C442.944,484.632 443.481,485.968 443.481,487.665 C443.481,489.676 442.559,491.046 440.715,491.775 C441.903,492.192 442.759,492.767 443.285,493.501 C443.811,494.236 444.074,495.238 444.074,496.509 C444.074,498.395 443.463,499.897 442.239,501.017 C441.015,502.137 439.387,502.697 437.356,502.697 C433.283,502.697 431.095,500.561 430.793,496.29 L433.262,496.29 C433.356,497.728 433.739,498.79 434.41,499.478 C435.082,500.165 436.09,500.509 437.434,500.509 C438.726,500.509 439.733,500.16 440.457,499.462 C441.181,498.764 441.543,497.79 441.543,496.54 C441.543,494.134 440.173,492.931 437.434,492.931 L436.403,492.962 L436.09,492.962 L436.09,490.853 C437.861,490.822 439.116,490.6 439.856,490.189 C440.595,489.777 440.965,488.962 440.965,487.744 C440.965,486.702 440.653,485.876 440.028,485.267 C439.403,484.658 438.548,484.353 437.465,484.353"/>
<path class="Note" fill="#ffffff" fill-opacity="0.0" fill-rule="evenodd" d="M428.485,429.298 L447.194,429.298 L447.194,454.101 L428.485,454.101 L428.485,429.298 "/>
<path class="Note" d="M437.153,438.309 L432.762,438.309 L432.762,436.544 C434.668,436.304 435.91,435.968 436.489,435.536 C437.067,435.103 437.569,434.122 437.996,432.59 L439.621,432.59 L439.621,452.45 L437.153,452.45 L437.153,438.309 "/>
<path class="Note" fill="#ffffff" fill-opacity="0.0" fill-rule="evenodd" d="M493.2,478.905 L511.908,478.905 L511.908,503.708 L493.2,503.708 L493.2,478.905 "/>
<path class="Note" d="M507.945,482.197 L507.945,484.634 L499.68,484.634 L498.898,490.181 C500.002,489.379 501.226,488.978 502.57,488.978 C504.476,488.978 506.021,489.59 507.203,490.814 C508.385,492.038 508.976,493.629 508.976,495.587 C508.976,497.681 508.344,499.389 507.078,500.712 C505.812,502.035 504.18,502.697 502.18,502.697 C501.409,502.697 500.703,502.613 500.062,502.447 C499.422,502.28 498.891,502.08 498.469,501.845 C498.047,501.611 497.664,501.304 497.32,500.923 C496.976,500.543 496.716,500.207 496.539,499.915 C496.362,499.624 496.193,499.259 496.031,498.822 C495.87,498.384 495.771,498.082 495.734,497.915 C495.698,497.749 495.654,497.504 495.601,497.181 L498.055,497.181 C498.638,499.4 499.992,500.509 502.117,500.509 C503.461,500.509 504.521,500.1 505.297,499.283 C506.073,498.465 506.461,497.348 506.461,495.931 C506.461,494.452 506.068,493.288 505.281,492.439 C504.495,491.59 503.44,491.165 502.117,491.165 C501.357,491.165 500.706,491.301 500.164,491.572 C499.622,491.843 499.06,492.322 498.476,493.009 L496.211,493.009 L497.695,482.197 L507.945,482.197 "/>
<path class="Note" fill="#ffffff" fill-opacity="0.0" fill-rule="evenodd" d="M493.2,429.298 L511.908,429.298 L511.908,454.101 L493.2,454.101 L493.2,429.298 "/>
<path class="Note" d="M502.18,434.747 C500.763,434.747 499.789,435.135 499.258,435.911 C498.726,436.687 498.44,437.721 498.398,439.012 L495.93,439.012 C496.023,434.731 498.096,432.59 502.148,432.59 C504.034,432.59 505.513,433.077 506.586,434.051 C507.659,435.025 508.195,436.361 508.195,438.059 C508.195,440.07 507.273,441.439 505.43,442.169 C506.617,442.585 507.474,443.161 508,443.895 C508.526,444.629 508.789,445.632 508.789,446.903 C508.789,448.788 508.177,450.291 506.953,451.411 C505.729,452.531 504.101,453.09 502.07,453.09 C497.997,453.09 495.81,450.955 495.508,446.684 L497.976,446.684 C498.07,448.122 498.453,449.184 499.125,449.872 C499.797,450.559 500.805,450.903 502.148,450.903 C503.44,450.903 504.448,450.554 505.172,449.856 C505.896,449.158 506.258,448.184 506.258,446.934 C506.258,444.528 504.888,443.325 502.148,443.325 L501.117,443.356 L500.805,443.356 L500.805,441.247 C502.575,441.215 503.831,440.994 504.57,440.583 C505.31,440.171 505.68,439.356 505.68,438.137 C505.68,437.096 505.367,436.27 504.742,435.661 C504.117,435.051 503.263,434.747 502.18,434.747"/>
<path class="Note" fill="#ffffff" fill-opacity="0.0" fill-rule="evenodd" d="M557.914,454.101 L576.623,454.101 L576.623,478.905 L557.914,478.905 L557.914,454.101 "/>
<path class="Note" d="M560.535,467.644 C560.535,465.987 560.675,464.524 560.957,463.253 C561.238,461.982 561.592,460.987 562.019,460.269 C562.446,459.55 562.959,458.967 563.558,458.519 C564.157,458.071 564.733,457.771 565.285,457.62 C565.837,457.469 566.42,457.394 567.035,457.394 C571.368,457.394 573.535,460.868 573.535,467.815 C573.535,471.086 572.977,473.584 571.863,475.308 C570.748,477.032 569.139,477.894 567.035,477.894 C564.91,477.894 563.295,477.021 562.191,475.276 C561.087,473.532 560.535,470.987 560.535,467.644 M571.003,467.597 C571.003,462.253 569.678,459.581 567.027,459.581 C564.376,459.581 563.05,462.279 563.05,467.675 C563.05,473.123 564.358,475.847 566.972,475.847 C568.358,475.847 569.376,475.175 570.027,473.831 C570.678,472.487 571.003,470.409 571.003,467.597"/>
<path class="Note" fill="#ffffff" fill-opacity="0.0" fill-rule="evenodd" d="M557.914,429.298 L576.623,429.298 L576.623,454.101 L557.914,454.101 L557.914,429.298 "/>
<path class="Note" d="M572.66,432.59 L572.66,435.028 L564.394,435.028 L563.613,440.575 C564.717,439.773 565.941,439.372 567.285,439.372 C569.191,439.372 570.735,439.984 571.917,441.208 C573.1,442.432 573.691,444.023 573.691,445.981 C573.691,448.075 573.058,449.783 571.792,451.106 C570.527,452.429 568.894,453.09 566.894,453.09 C566.123,453.09 565.417,453.007 564.777,452.84 C564.136,452.674 563.605,452.473 563.183,452.239 C562.761,452.004 562.378,451.697 562.035,451.317 C561.691,450.937 561.431,450.601 561.253,450.309 C561.076,450.018 560.907,449.653 560.746,449.215 C560.584,448.778 560.485,448.476 560.449,448.309 C560.412,448.143 560.368,447.898 560.316,447.575 L562.769,447.575 C563.352,449.794 564.707,450.903 566.832,450.903 C568.175,450.903 569.235,450.494 570.011,449.676 C570.787,448.859 571.175,447.741 571.175,446.325 C571.175,444.846 570.782,443.682 569.996,442.833 C569.209,441.984 568.154,441.559 566.832,441.559 C566.071,441.559 565.42,441.695 564.878,441.965 C564.337,442.236 563.774,442.715 563.191,443.403 L560.925,443.403 L562.41,432.59 L572.66,432.59 "/>
<path class="Note" transform="matrix(0.566929,0,0,0.566929,103.637,356.66)" d="M21.9688,-13.7656 C25.0938,-13.7656 27.7344,-12.9531 29.8906,-11.3281 C31.901,-9.56771 32.9063,-7.35417 32.9063,-4.6875 C32.9063,-0.197917 30.599,4 25.9844,7.90625 C21.2969,11.8125 16.2813,13.7656 10.9375,13.7656 C7.8125,13.7656 5.17708,12.9531 3.03125,11.3281 C1.01042,9.56771 0,7.35417 0,4.6875 C0,0.197917 2.34375,-4 7.03125,-7.90625 C11.5938,-11.8125 16.5729,-13.7656 21.9688,-13.7656"/>
<path class="Note" transform="matrix(0.566929,0,0,0.566929,168.352,349.574)" d="M21.9688,-13.7656 C25.0938,-13.7656 27.7344,-12.9531 29.8906,-11.3281 C31.901,-9.56771 32.9063,-7.35417 32.9063,-4.6875 C32.9063,-0.197917 30.599,4 25.9844,7.90625 C21.2969,11.8125 16.2813,13.7656 10.9375,13.7656 C7.8125,13.7656 5.17708,12.9531 3.03125,11.3281 C1.01042,9.56771 0,7.35417 0,4.6875 C0,0.197917 2.34375,-4 7.03125,-7.90625 C11.5938,-11.8125 16.5729,-13.7656 21.9688,-13.7656"/>
<path class="Note" transform="matrix(0.566929,0,0,0.566929,233.066,342.487)" d="M21.9688,-13.7656 C25.0938,-13.7656 27.7344,-12.9531 29.8906,-11.3281 C31.901,-9.56771 32.9063,-7.35417 32.9063,-4.6875 C32.9063,-0.197917 30.599,4 25.9844,7.90625 C21.2969,11.8125 16.2813,13.7656 10.9375,13.7656 C7.8125,13.7656 5.17708,12.9531 3.03125,11.3281 C1.01042,9.56771 0,7.35417 0,4.6875 C0,0.197917 2.34375,-4 7.03125,-7.90625 C11.5938,-11.8125 16.5729,-13.7656 21.9688,-13.7656"/>
<path class="Note" transform="matrix(0.566929,0,0,0.566929,297.781,335.401)" d="M21.9688,-13.7656 C25.0938,-13.7656 27.7344,-12.9531 29.8906,-11.3281 C31.901,-9.56771 32.9063,-7.35417 32.9063,-4.6875 C32.9063,-0.197917 30.599,4 25.9844,7.90625 C21.2969,11.8125 16.2813,13.7656 10.9375,13.7656 C7.8125,13.7656 5.17708,12.9531 3.03125,11.3281 C1.01042,9.56771 0,7.35417 0,4.6875 C0,0.197917 2.34375,-4 7.03125,-7.90625 C11.5938,-11.8125 16.5729,-13.7656 21.9688,-13.7656"/>
<path class="Note" transform="matrix(0.566929,0,0,0.566929,362.495,328.314)" d="M21.9688,-13.7656 C25.0938,-13.7656 27.7344,-12.9531 29.8906,-11.3281 C31.901,-9.56771 32.9063,-7.35417 32.9063,-4.6875 C32.9063,-0.197917 30.599,4 25.9844,7.90625 C21.2969,11.8125 16.2813,13.7656 10.9375,13.7656 C7.8125,13.7656 5.17708,12.9531 3.03125,11.3281 C1.01042,9.56771 0,7.35417 0,4.6875 C0,0.197917 2.34375,-4 7.03125,-7.90625 C11.5938,-11.8125 16.5729,-13.7656 21.9688,-13.7656"/>
<path class="Note" transform="matrix(0.566929,0,0,0.566929,427.21,321.227)" d="M21.9688,-13.7656 C25.0938,-13.7656 27.7344,-12.9531 29.8906,-11.3281 C31.901,-9.56771 32.9063,-7.35417 32.9063,-4.6875 C32.9063,-0.197917 30.599,4 25.9844,7.90625 C21.2969,11.8125 16.2813,13.7656 10.9375,13.7656 C7.8125,13.7656 5.17708,12.9531 3.03125,11.3281 C1.01042,9.56771 0,7.35417 0,4.6875 C0,0.197917 2.34375,-4 7.03125,-7.90625 C11.5938,-11.8125 16.5729,-13.7656 21.9688,-13.7656"/>
<path class="Note" transform="matrix(0.566929,0,0,0.566929,491.924,314.141)" d="M21.9688,-13.7656 C25.0938,-13.7656 27.7344,-12.9531 29.8906,-11.3281 C31.901,-9.56771 32.9063,-7.35417 32.9063,-4.6875 C32.9063,-0.197917 30.599,4 25.9844,7.90625 C21.2969,11.8125 16.2813,13.7656 10.9375,13.7656 C7.8125,13.7656 5.17708,12.9531 3.03125,11.3281 C1.01042,9.56771 0,7.35417 0,4.6875 C0,0.197917 2.34375,-4 7.03125,-7.90625 C11.5938,-11.8125 16.5729,-13.7656 21.9688,-13.7656"/>
<path class="Note" transform="matrix(0.566929,0,0,0.566929,556.639,307.054)" d="M21.9688,-13.7656 C25.0938,-13.7656 27.7344,-12.9531 29.8906,-11.3281 C31.901,-9.56771 32.9063,-7.35417 32.9063,-4.6875 C32.9063,-0.197917 30.599,4 25.9844,7.90625 C21.2969,11.8125 16.2813,13.7656 10.9375,13.7656 C7.8125,13.7656 5.17708,12.9531 3.03125,11.3281 C1.01042,9.56771 0,7.35417 0,4.6875 C0,0.197917 2.34375,-4 7.03125,-7.90625 C11.5938,-11.8125 16.5729,-13.7656 21.9688,-13.7656"/>
<path class="Note" transform="matrix(0.566929,0,0,0.566929,103.637,214.928)" d="M21.9688,-13.7656 C25.0938,-13.7656 27.7344,-12.9531 29.8906,-11.3281 C31.901,-9.56771 32.9063,-7.35417 32.9063,-4.6875 C32.9063,-0.197917 30.599,4 25.9844,7.90625 C21.2969,11.8125 16.2813,13.7656 10.9375,13.7656 C7.8125,13.7656 5.17708,12.9531 3.03125,11.3281 C1.01042,9.56771 0,7.35417 0,4.6875 C0,0.197917 2.34375,-4 7.03125,-7.90625 C11.5938,-11.8125 16.5729,-13.7656 21.9688,-13.7656"/>
<path class="Note" transform="matrix(0.566929,0,0,0.566929,168.352,207.842)" d="M21.9688,-13.7656 C25.0938,-13.7656 27.7344,-12.9531 29.8906,-11.3281 C31.901,-9.56771 32.9063,-7.35417 32.9063,-4.6875 C32.9063,-0.197917 30.599,4 25.9844,7.90625 C21.2969,11.8125 16.2813,13.7656 10.9375,13.7656 C7.8125,13.7656 5.17708,12.9531 3.03125,11.3281 C1.01042,9.56771 0,7.35417 0,4.6875 C0,0.197917 2.34375,-4 7.03125,-7.90625 C11.5938,-11.8125 16.5729,-13.7656 21.9688,-13.7656"/>
<path class="Note" transform="matrix(0.566929,0,0,0.566929,233.066,200.755)" d="M21.9688,-13.7656 C25.0938,-13.7656 27.7344,-12.9531 29.8906,-11.3281 C31.901,-9.56771 32.9063,-7.35417 32.9063,-4.6875 C32.9063,-0.197917 30.599,4 25.9844,7.90625 C21.2969,11.8125 16.2813,13.7656 10.9375,13.7656 C7.8125,13.7656 5.17708,12.9531 3.03125,11.3281 C1.01042,9.56771 0,7.35417 0,4.6875 C0,0.197917 2.34375,-4 7.03125,-7.90625 C11.5938,-11.8125 16.5729,-13.7656 21.9688,-13.7656"/>
<path class="Note" transform="matrix(0.566929,0,0,0.566929,297.781,193.668)" d="M21.9688,-13.7656 C25.0938,-13.7656 27.7344,-12.9531 29.8906,-11.3281 C31.901,-9.56771 32.9063,-7.35417 32.9063,-4.6875 C32.9063,-0.197917 30.599,4 25.9844,7.90625 C21.2969,11.8125 16.2813,13.7656 10.9375,13.7656 C7.8125,13.7656 5.17708,12.9531 3.03125,11.3281 C1.01042,9.56771 0,7.35417 0,4.6875 C0,0.197917 2.34375,-4 7.03125,-7.90625 C11.5938,-11.8125 16.5729,-13.7656 21.9688,-13.7656"/>
<path class="Note" transform="matrix(0.566929,0,0,0.566929,362.495,186.582)" d="M21.9688,-13.7656 C25.0938,-13.7656 27.7344,-12.9531 29.8906,-11.3281 C31.901,-9.56771 32.9063,-7.35417 32.9063,-4.6875 C32.9063,-0.197917 30.599,4 25.9844,7.90625 C21.2969,11.8125 16.2813,13.7656 10.9375,13.7656 C7.8125,13.7656 5.17708,12.9531 3.03125,11.3281 C1.01042,9.56771 0,7.35417 0,4.6875 C0,0.197917 2.34375,-4 7.03125,-7.90625 C11.5938,-11.8125 16.5729,-13.7656 21.9688,-13.7656"/>
<path class="Note" transform="matrix(0.566929,0,0,0.566929,427.21,179.495)" d="M21.9688,-13.7656 C25.0938,-13.7656 27.7344,-12.9531 29.8906,-11.3281 C31.901,-9.56771 32.9063,-7.35417 32.9063,-4.6875 C32.9063,-0.197917 30.599,4 25.9844,7.90625 C21.2969,11.8125 16.2813,13.7656 10.9375,13.7656 C7.8125,13.7656 5.17708,12.9531 3.03125,11.3281 C1.01042,9.56771 0,7.35417 0,4.6875 C0,0.197917 2.34375,-4 7.03125,-7.90625 C11.5938,-11.8125 16.5729,-13.7656 21.9688,-13.7656"/>
<path class="Note" transform="matrix(0.566929,0,0,0.566929,491.924,172.408)" d="M21.9688,-13.7656 C25.0938,-13.7656 27.7344,-12.9531 29.8906,-11.3281 C31.901,-9.56771 32.9063,-7.35417 32.9063,-4.6875 C32.9063,-0.197917 30.599,4 25.9844,7.90625 C21.2969,11.8125 16.2813,13.7656 10.9375,13.7656 C7.8125,13.7656 5.17708,12.9531 3.03125,11.3281 C1.01042,9.56771 0,7.35417 0,4.6875 C0,0.197917 2.34375,-4 7.03125,-7.90625 C11.5938,-11.8125 16.5729,-13.7656 21.9688,-13.7656"/>
<path class="Note" transform="matrix(0.566929,0,0,0.566929,556.639,165.322)" d="M21.9688,-13.7656 C25.0938,-13.7656 27.7344,-12.9531 29.8906,-11.3281 C31.901,-9.56771 32.9063,-7.35417 32.9063,-4.6875 C32.9063,-0.197917 30.599,4 25.9844,7.90625 C21.2969,11.8125 16.2813,13.7656 10.9375,13.7656 C7.8125,13.7656 5.17708,12.9531 3.03125,11.3281 C1.01042,9.56771 0,7.35417 0,4.6875 C0,0.197917 2.34375,-4 7.03125,-7.90625 C11.5938,-11.8125 16.5729,-13.7656 21.9688,-13.7656"/>
<path class="Note" transform="matrix(0.566929,0,0,0.566929,103.637,73.1959)" d="M21.9688,-13.7656 C25.0938,-13.7656 27.7344,-12.9531 29.8906,-11.3281 C31.901,-9.56771 32.9063,-7.35417 32.9063,-4.6875 C32.9063,-0.197917 30.599,4 25.9844,7.90625 C21.2969,11.8125 16.2813,13.7656 10.9375,13.7656 C7.8125,13.7656 5.17708,12.9531 3.03125,11.3281 C1.01042,9.56771 0,7.35417 0,4.6875 C0,0.197917 2.34375,-4 7.03125,-7.90625 C11.5938,-11.8125 16.5729,-13.7656 21.9688,-13.7656"/>
<path class="Note" transform="matrix(0.566929,0,0,0.566929,168.352,66.1093)" d="M21.9688,-13.7656 C25.0938,-13.7656 27.7344,-12.9531 29.8906,-11.3281 C31.901,-9.56771 32.9063,-7.35417 32.9063,-4.6875 C32.9063,-0.197917 30.599,4 25.9844,7.90625 C21.2969,11.8125 16.2813,13.7656 10.9375,13.7656 C7.8125,13.7656 5.17708,12.9531 3.03125,11.3281 C1.01042,9.56771 0,7.35417 0,4.6875 C0,0.197917 2.34375,-4 7.03125,-7.90625 C11.5938,-11.8125 16.5729,-13.7656 21.9688,-13.7656"/>
<path class="Note" transform="matrix(0.566929,0,0,0.566929,233.066,59.0226)" d="M21.9688,-13.7656 C25.0938,-13.7656 27.7344,-12.9531 29.8906,-11.3281 C31.901,-9.56771 32.9063,-7.35417 32.9063,-4.6875 C32.9063,-0.197917 30.599,4 25.9844,7.90625 C21.2969,11.8125 16.2813,13.7656 10.9375,13.7656 C7.8125,13.7656 5.17708,12.9531 3.03125,11.3281 C1.01042,9.56771 0,7.35417 0,4.6875 C0,0.197917 2.34375,-4 7.03125,-7.90625 C11.5938,-11.8125 16.5729,-13.7656 21.9688,-13.7656"/>
<path class="Note" transform="matrix(0.566929,0,0,0.566929,297.781,51.936)" d="M21.9688,-13.7656 C25.0938,-13.7656 27.7344,-12.9531 29.8906,-11.3281 C31.901,-9.56771 32.9063,-7.35417 32.9063,-4.6875 C32.9063,-0.197917 30.599,4 25.9844,7.90625 C21.2969,11.8125 16.2813,13.7656 10.9375,13.7656 C7.8125,13.7656 5.17708,12.9531 3.03125,11.3281 C1.01042,9.56771 0,7.35417 0,4.6875 C0,0.197917 2.34375,-4 7.03125,-7.90625 C11.5938,-11.8125 16.5729,-13.7656 21.9688,-13.7656"/>
<path class="Note" transform="matrix(0.566929,0,0,0.566929,362.495,44.8494)" d="M21.9688,-13.7656 C25.0938,-13.7656 27.7344,-12.9531 29.8906,-11.3281 C31.901,-9.56771 32.9063,-7.35417 32.9063,-4.6875 C32.9063,-0.197917 30.599,4 25.9844,7.90625 C21.2969,11.8125 16.2813,13.7656 10.9375,13.7656 C7.8125,13.7656 5.17708,12.9531 3.03125,11.3281 C1.01042,9.56771 0,7.35417 0,4.6875 C0,0.197917 2.34375,-4 7.03125,-7.90625 C11.5938,-11.8125 16.5729,-13.7656 21.9688,-13.7656"/>
<path class="Note" transform="matrix(0.566929,0,0,0.566929,427.21,37.7628)" d="M21.9688,-13.7656 C25.0938,-13.7656 27.7344,-12.9531 29.8906,-11.3281 C31.901,-9.56771 32.9063,-7.35417 32.9063,-4.6875 C32.9063,-0.197917 30.599,4 25.9844,7.90625 C21.2969,11.8125 16.2813,13.7656 10.9375,13.7656 C7.8125,13.7656 5.17708,12.9531 3.03125,11.3281 C1.01042,9.56771 0,7.35417 0,4.6875 C0,0.197917 2.34375,-4 7.03125,-7.90625 C11.5938,-11.8125 16.5729,-13.7656 21.9688,-13.7656"/>
<path class="Note" transform="matrix(0.566929,0,0,0.566929,491.924,30.6762)" d="M21.9688,-13.7656 C25.0938,-13.7656 27.7344,-12.9531 29.8906,-11.3281 C31.901,-9.56771 32.9063,-7.35417 32.9063,-4.6875 C32.9063,-0.197917 30.599,4 25.9844,7.90625 C21.2969,11.8125 16.2813,13.7656 10.9375,13.7656 C7.8125,13.7656 5.17708,12.9531 3.03125,11.3281 C1.01042,9.56771 0,7.35417 0,4.6875 C0,0.197917 2.34375,-4 7.03125,-7.90625 C11.5938,-11.8125 16.5729,-13.7656 21.9688,-13.7656"/>
<path class="Note" transform="matrix(0.566929,0,0,0.566929,556.639,23.5896)" d="M21.9688,-13.7656 C25.0938,-13.7656 27.7344,-12.9531 29.8906,-11.3281 C31.901,-9.56771 32.9063,-7.35417 32.9063,-4.6875 C32.9063,-0.197917 30.599,4 25.9844,7.90625 C21.2969,11.8125 16.2813,13.7656 10.9375,13.7656 C7.8125,13.7656 5.17708,12.9531 3.03125,11.3281 C1.01042,9.56771 0,7.35417 0,4.6875 C0,0.197917 2.34375,-4 7.03125,-7.90625 C11.5938,-11.8125 16.5729,-13.7656 21.9688,-13.7656"/>
<path class="Clef" transform="matrix(0.566929,0,0,0.566929,28.5015,656.07)" d="M26.6563,42.4844 C26.6563,44.3073 25.224,45.2188 22.3594,45.2188 C20.0885,45.2188 18.1042,44.5365 16.4063,43.1719 C14.7813,41.7344 13.9688,39.9115 13.9688,37.7031 C13.9688,33.7969 16.3438,30.6719 21.0938,28.3281 C25.7188,25.9115 31.1563,24.7031 37.4063,24.7031 C39.8125,24.7031 42.3854,24.8698 45.125,25.2031 C47.1354,25.4635 49.3802,25.9844 51.8594,26.7656 C54.0677,27.474 55.7917,28.5443 57.0313,29.9766 C58.2708,31.4089 58.8906,33.0729 58.8906,34.9688 C58.8906,39.4583 56.5781,43.1354 51.9531,46 C58.724,47.2396 62.1406,50.2656 62.2031,55.0781 C62.2031,59.1198 60.3802,62.7682 56.7344,66.0234 C53.0885,69.2786 48.9583,70.9063 44.3438,70.9063 C42.3854,70.9063 40.3958,70.4479 38.375,69.5313 C36.4896,68.625 35.1563,67.7813 34.375,67 C33.5938,66.0833 33.2031,65.3958 33.2031,64.9375 C33.2031,64.2917 33.5313,63.7396 34.1875,63.2813 C34.7708,62.6979 35.3854,62.4063 36.0313,62.4063 C36.2917,62.4063 36.8464,62.8281 37.6953,63.6719 C38.5443,64.5156 39.7813,64.9375 41.4063,64.9375 C43.625,64.9375 45.776,63.9948 47.8594,62.1094 C49.8698,60.2865 50.875,58.1042 50.875,55.5625 C50.875,53.3542 49.9323,51.7604 48.0469,50.7813 C46.1615,49.8021 43.7552,49.3125 40.8281,49.3125 C40.3073,49.3125 40.0469,48.7604 40.0469,47.6563 C40.0469,46.0938 40.6302,45.3125 41.7969,45.3125 C43.6198,45.3125 45.25,44.5313 46.6875,42.9688 C48.0521,41.2813 48.7344,39.4896 48.7344,37.5938 C48.7344,37.0104 48.5729,36.1354 48.25,34.9688 C47.9896,34.1875 47.2083,33.2396 45.9063,32.125 C44.6667,31.0833 42.9375,30.3698 40.7188,29.9844 C40.1354,33.1719 39.4036,37.2396 38.5234,42.1875 C37.6432,47.1354 37.0417,50.3906 36.7188,51.9531 C35.6146,57.5573 33.599,62.276 30.6719,66.1094 C27.6094,70.151 24.3177,72.1719 20.7969,72.1719 C19.6927,72.1719 18.5573,71.9115 17.3906,71.3906 C16.474,70.9948 15.3021,70.1823 13.875,68.9531 C12.5729,67.9115 11.6927,67.224 11.2344,66.8906 C10.974,66.7031 10.8438,66.4115 10.8438,66.0156 C10.8438,65.3698 11.0729,64.7865 11.5313,64.2656 C12.0521,63.6719 12.6042,63.375 13.1875,63.375 C13.5729,63.375 14.4818,63.9948 15.9141,65.2344 C17.3464,66.474 18.8438,67.0938 20.4063,67.0938 C23.4063,67.0938 25.6563,65.1719 27.1563,61.3281 C28.5833,57.6198 29.2969,53.0313 29.2969,47.5625 L29.2969,46.7813 C29.2969,43.1354 29.8854,37.6979 31.0625,30.4688 C28.9792,31.125 27.3177,32.1042 26.0781,33.4063 C24.776,34.7083 24.125,36.0729 24.125,37.5 C24.125,38.6042 24.5469,39.5469 25.3906,40.3281 C26.2344,41.1094 26.6563,41.8281 26.6563,42.4844 M7.03125,11.9219 C7.35417,11.9219 8.13542,12.2448 9.375,12.8906 C10.6771,13.5469 11.7865,13.875 12.7031,13.875 C15.1719,13.875 18.1979,12.0833 21.7813,8.5 C32.1354,-2.05208 39.2656,-13.25 43.1719,-25.0938 C43.9531,-27.5729 45.8698,-28.8125 48.9219,-28.8125 C50.4844,-28.8125 51.8229,-28.4844 52.9375,-27.8281 C54.0417,-27.1198 54.5938,-26.4063 54.5938,-25.6875 L52.8281,10.8438 C52.8281,12.7917 53.5156,13.7656 54.8906,13.7656 C55.599,13.7656 56.6406,13.4427 58.0156,12.7969 C59.3177,12.1406 60.099,11.8125 60.3594,11.8125 C60.8802,11.8125 61.2031,12.3698 61.3281,13.4844 C61.3281,14.526 60.9063,15.1771 60.0625,15.4375 C59.4063,15.625 58.1042,16.2396 56.1563,17.2813 C54.1354,18.3229 52.5417,18.8438 51.375,18.8438 C48.8958,18.8438 47.1354,16.8906 46.0938,12.9844 C44.4688,6.86979 43.4271,0.520833 42.9688,-6.0625 C40.3646,-2.73958 37.4688,0.614583 34.2813,4 C35.4479,6.21875 37.5938,7.32813 40.7188,7.32813 C41.1771,7.32813 41.5365,7.29688 41.7969,7.23438 L41.8906,7.23438 C42.4115,7.23438 42.6719,7.71875 42.6719,8.6875 C42.6719,9.92708 42.25,10.6771 41.4063,10.9375 C40.0417,11.3958 38.6094,11.625 37.1094,11.625 C33.8594,11.625 31.5156,10.5156 30.0781,8.29688 L26.1719,11.8125 C20.7031,16.5 16.2448,18.8438 12.7969,18.8438 C11.8802,18.8438 10.9375,18.6823 9.96875,18.3594 C9.1875,18.0365 8.27604,17.5469 7.23438,16.8906 C6.83854,16.7031 6.39583,16.4609 5.90625,16.1641 C5.41667,15.8672 5.10938,15.6875 4.98438,15.625 C4.66146,15.5 4.5,15.2083 4.5,14.75 C4.5,14.2292 4.76042,13.6094 5.28125,12.8906 C5.72917,12.2448 6.3125,11.9219 7.03125,11.9219 M28.8125,-54 C28.8125,-52.375 27.4115,-51.5625 24.6094,-51.5625 C22.1406,-51.5625 19.9948,-52.375 18.1719,-54 C16.4115,-55.6354 15.5313,-57.625 15.5313,-59.9688 C15.5313,-62.2396 16.2448,-64.1927 17.6719,-65.8281 C19.1719,-67.5156 21.0938,-68.7813 23.4375,-69.625 C25.5833,-70.4063 27.9948,-71.026 30.6719,-71.4844 C33.4635,-71.8073 36.1302,-71.9688 38.6719,-71.9688 C40.1719,-71.9688 42.974,-71.2865 47.0781,-69.9219 C51.2448,-68.5573 54.1406,-67.875 55.7656,-67.875 C57.7865,-67.875 59.7083,-68.2344 61.5313,-68.9531 C63.0208,-69.599 64.4531,-70.3438 65.8281,-71.1875 C66.9323,-71.9063 67.5469,-72.2656 67.6719,-72.2656 C68.2656,-72.2656 68.7865,-72.0729 69.2344,-71.6875 C69.7552,-71.1667 70.0156,-70.7396 70.0156,-70.4063 C70.0156,-69.9583 69.401,-69.2135 68.1719,-68.1719 C66.8698,-66.9948 65.013,-65.8203 62.6016,-64.6484 C60.1901,-63.4766 57.651,-62.8906 54.9844,-62.8906 C53.8073,-62.8906 52.3438,-63.0885 50.5938,-63.4844 C49.4792,-56.2552 48.3073,-49.8385 47.0781,-44.2344 C46.0365,-39.2865 43.9531,-34.9583 40.8281,-31.25 C37.8281,-27.5417 34.474,-25.6875 30.7656,-25.6875 C29.2656,-25.6875 27.9323,-25.9792 26.7656,-26.5625 C25.4635,-27.2188 24.0938,-28.1979 22.6563,-29.5 C21.4896,-30.4688 20.3854,-31.3438 19.3438,-32.125 C19.0833,-32.3229 18.9531,-32.6198 18.9531,-33.0156 C18.9531,-33.4635 19.2135,-34.0469 19.7344,-34.7656 C20.2552,-35.349 20.7396,-35.6406 21.1875,-35.6406 C21.5833,-35.6406 22.6927,-34.8281 24.5156,-33.2031 C26.3385,-31.5781 27.9635,-30.7656 29.3906,-30.7656 C31.9948,-30.7656 34.0156,-32.2604 35.4531,-35.25 C36.8802,-38.1875 37.6927,-41.7031 37.8906,-45.7969 C38.2135,-52.5052 38.9635,-59.4427 40.1406,-66.6094 C38.7031,-66.9323 37.6302,-67.0938 36.9219,-67.0938 C33.7969,-67.0938 31.125,-66.4427 28.9063,-65.1406 C26.6979,-63.901 25.5938,-62.2083 25.5938,-60.0625 C25.5938,-58.5 26.1146,-57.2969 27.1563,-56.4531 C28.2604,-55.5365 28.8125,-54.7188 28.8125,-54"/>
<path class="Clef" transform="matrix(0.566929,0,0,0.566929,28.5015,478.905)" d="M21.2969,33.9844 C21.2969,35.4219 20.1875,36.1406 17.9688,36.1406 C16.1458,36.1406 14.5833,35.5833 13.2813,34.4688 C11.9167,33.3646 11.2344,31.9323 11.2344,30.1719 C11.2344,26.9844 13.0885,24.4792 16.7969,22.6563 C20.7031,20.7708 25.0677,19.8281 29.8906,19.8281 C34.5052,19.8281 38.6042,20.4479 42.1875,21.6875 C45.5104,23.0521 47.1719,25.1667 47.1719,28.0313 C47.1719,31.5417 45.3177,34.4688 41.6094,36.8125 C47.0781,37.9271 49.8125,40.3698 49.8125,44.1406 C49.8125,47.2656 48.3438,50.1615 45.4063,52.8281 C42.5417,55.4323 39.1927,56.7344 35.3594,56.7344 C33.7969,56.7344 32.2344,56.3802 30.6719,55.6719 C29.2344,55.0156 28.1927,54.2969 27.5469,53.5156 C26.8906,52.9323 26.5625,52.3802 26.5625,51.8594 C26.5625,51.3385 26.8229,50.9167 27.3438,50.5938 C27.8021,50.1354 28.2917,49.9063 28.8125,49.9063 C29.0729,49.9063 29.5599,50.2318 30.2734,50.8828 C30.987,51.5339 31.9635,51.8594 33.2031,51.8594 C35.0885,51.8594 36.849,51.1406 38.4844,49.7031 C40.0469,48.2135 40.8281,46.4896 40.8281,44.5313 C40.8281,42.8438 40.0469,41.5417 38.4844,40.625 C36.9844,39.7813 35.0625,39.3594 32.7188,39.3594 C32.2604,39.3594 32.0313,38.9688 32.0313,38.1875 C32.0313,36.8854 32.5208,36.2344 33.5,36.2344 C34.9271,36.2344 36.1979,35.6146 37.3125,34.375 C38.4167,32.9479 38.9688,31.4844 38.9688,29.9844 C38.9688,26.7969 36.8542,24.8125 32.625,24.0313 L29.3906,41.6094 C28.5469,45.9635 26.9531,49.7396 24.6094,52.9375 C22.2031,56.125 19.5677,57.7188 16.7031,57.7188 C15.724,57.7188 14.8125,57.5208 13.9688,57.125 C13.1875,56.8021 12.2083,56.151 11.0313,55.1719 C9.72917,54.1302 9.04688,53.5781 8.98438,53.5156 C8.72396,53.2552 8.59375,53.026 8.59375,52.8281 C8.59375,52.4427 8.79167,51.9583 9.1875,51.375 C9.63542,50.9167 10.0885,50.6875 10.5469,50.6875 C10.7448,50.6875 11.526,51.1771 12.8906,52.1563 C13.9948,53.1979 15.1667,53.7188 16.4063,53.7188 C18.8125,53.7188 20.6042,52.2188 21.7813,49.2188 C22.9479,46.0938 23.5313,42.3854 23.5313,38.0938 L23.5313,37.4063 C23.5313,34.7396 23.9896,30.4115 24.9063,24.4219 C23.2083,25.0052 21.875,25.7865 20.9063,26.7656 C19.8646,27.8073 19.3438,28.8802 19.3438,29.9844 C19.3438,30.8906 19.6667,31.6406 20.3125,32.2344 C20.9688,32.8802 21.2969,33.4635 21.2969,33.9844 M5.5625,9.46875 C5.82292,9.46875 6.47396,9.76563 7.51563,10.3594 C8.69271,10.8802 9.57292,11.1406 10.1563,11.1406 C13.0208,11.1406 17.1875,7.75521 22.6563,0.984375 C28.0625,-5.66146 32,-12.6979 34.4688,-20.125 C35.0625,-22.0729 36.5938,-23.0469 39.0625,-23.0469 C40.3021,-23.0469 41.3438,-22.7865 42.1875,-22.2656 C43.1042,-21.8802 43.5625,-21.3281 43.5625,-20.6094 L42.1875,8.59375 C42.1875,10.2917 42.776,11.1406 43.9531,11.1406 C44.3385,11.1406 45.151,10.8802 46.3906,10.3594 C47.5573,9.76563 48.2083,9.46875 48.3438,9.46875 C48.8021,9.46875 49.0313,9.92708 49.0313,10.8438 C49.0313,11.625 48.7344,12.1146 48.1406,12.3125 C47.4323,12.6354 46.3594,13.1563 44.9219,13.875 C43.2969,14.7188 42.026,15.1406 41.1094,15.1406 C40.1406,15.1406 39.2292,14.7188 38.375,13.875 C37.5313,12.8333 36.7865,10.8125 36.1406,7.8125 C35.3594,4.82292 34.7708,0.588542 34.375,-4.89063 C32.3542,-2.21354 30.0781,0.489583 27.5469,3.21875 C28.5156,4.91667 30.5,5.76563 33.5,5.76563 C33.8854,5.76563 34.0781,6.1875 34.0781,7.03125 C34.0781,8.53125 32.5833,9.28125 29.5938,9.28125 C27.0521,9.28125 25.2292,8.40104 24.125,6.64063 L21,9.375 C16.7708,13.0208 13.1563,14.9115 10.1563,15.0469 C9.11458,15.0469 7.75,14.5885 6.0625,13.6719 C4.42708,12.8281 3.60938,12.2083 3.60938,11.8125 C3.60938,11.3646 3.80729,10.8802 4.20313,10.3594 C4.58854,9.76563 5.04167,9.46875 5.5625,9.46875 M23.0469,-43.1719 C23.0469,-41.9323 21.9427,-41.3125 19.7344,-41.3125 C17.776,-41.3125 16.0469,-41.9635 14.5469,-43.2656 C13.1198,-44.5052 12.4063,-46.099 12.4063,-48.0469 C12.4063,-49.8698 12.9583,-51.4323 14.0625,-52.7344 C15.3646,-54.1719 16.9271,-55.151 18.75,-55.6719 C20.0521,-56.1927 22.0052,-56.7135 24.6094,-57.2344 C27.349,-57.4948 29.4635,-57.625 30.9531,-57.625 C32.0677,-57.625 34.2839,-57.0703 37.6016,-55.9609 C40.9193,-54.8516 43.2604,-54.2969 44.625,-54.2969 C46.2604,-54.2969 47.7917,-54.5573 49.2188,-55.0781 C50.5833,-55.6615 51.6927,-56.25 52.5469,-56.8438 C53.3906,-57.4896 53.9115,-57.8125 54.1094,-57.8125 C54.4948,-57.8125 54.9167,-57.651 55.375,-57.3281 C55.7604,-57.0052 55.9531,-56.6771 55.9531,-56.3438 C55.9531,-56.0833 55.4688,-55.4688 54.5,-54.5 C53.3229,-53.4583 51.8229,-52.5469 50,-51.7656 C48.0521,-50.7865 46.0677,-50.2969 44.0469,-50.2969 C43.0052,-50.2969 41.8333,-50.4583 40.5313,-50.7813 C39.6146,-44.4063 38.6719,-39.2292 37.7031,-35.25 C36.849,-31.2813 35.1875,-27.8333 32.7188,-24.9063 C30.3125,-21.9792 27.6406,-20.5156 24.7031,-20.5156 C23.401,-20.5156 22.3281,-20.776 21.4844,-21.2969 C20.3802,-21.8177 19.276,-22.5625 18.1719,-23.5313 C17.1302,-24.5104 16.25,-25.2292 15.5313,-25.6875 C15.2708,-25.9479 15.1406,-26.1771 15.1406,-26.375 C15.1406,-26.8229 15.3021,-27.276 15.625,-27.7344 C15.9479,-28.2552 16.3698,-28.5156 16.8906,-28.5156 C17.151,-28.5156 18.0313,-27.8646 19.5313,-26.5625 C21.0313,-25.2604 22.3646,-24.6094 23.5313,-24.6094 C25.0938,-24.6094 26.3021,-25.1302 27.1563,-26.1719 C28.0625,-27.2135 28.776,-28.776 29.2969,-30.8594 C29.7552,-32.7448 30.0833,-34.8594 30.2813,-37.2031 C30.5417,-39.1615 30.8333,-41.8333 31.1563,-45.2188 C31.3542,-47.1042 31.6771,-49.8073 32.125,-53.3281 C31.0208,-53.5885 30.1458,-53.7188 29.5,-53.7188 C27.1563,-53.7188 25.0365,-53.1979 23.1406,-52.1563 C21.3906,-50.9792 20.5156,-49.6406 20.5156,-48.1406 C20.5156,-47.0365 20.9375,-46.0625 21.7813,-45.2188 C22.625,-44.375 23.0469,-43.6927 23.0469,-43.1719"/>
<path class="Clef" transform="matrix(0.566929,0,0,0.566929,28.5015,321.227)" d="M57.1328,-8.89063 C56.1589,-9.86979 55.6719,-11.0755 55.6719,-12.5078 C55.6719,-13.9401 56.1589,-15.1432 57.1328,-16.1172 C58.1068,-17.0911 59.3099,-17.5781 60.7422,-17.5781 C62.1745,-17.5781 63.3802,-17.0911 64.3594,-16.1172 C65.3385,-15.1432 65.8281,-13.9401 65.8281,-12.5078 C65.8281,-11.0755 65.3385,-9.86979 64.3594,-8.89063 C63.3802,-7.91146 62.1745,-7.42188 60.7422,-7.42188 C59.3099,-7.42188 58.1068,-7.91146 57.1328,-8.89063 M57.1328,16.1172 C56.1589,15.1432 55.6719,13.9401 55.6719,12.5078 C55.6719,11.0755 56.1589,9.86979 57.1328,8.89063 C58.1068,7.91146 59.3099,7.42188 60.7422,7.42188 C62.1745,7.42188 63.3802,7.91146 64.3594,8.89063 C65.3385,9.86979 65.8281,11.0755 65.8281,12.5078 C65.8281,13.9401 65.3385,15.1432 64.3594,16.1172 C63.3802,17.0911 62.1745,17.5781 60.7422,17.5781 C59.3099,17.5781 58.1068,17.0911 57.1328,16.1172 M23.25,-26.2656 C31.9063,-26.2656 39,-24.0885 44.5313,-19.7344 C49.875,-15.1719 52.5469,-8.98438 52.5469,-1.17188 C52.5469,4.09896 51.5052,8.91667 49.4219,13.2813 C47.4635,17.8438 44.8906,21.8802 41.7031,25.3906 C38.4427,28.974 34.5052,32.3594 29.8906,35.5469 C25.3906,38.6719 20.7656,41.474 16.0156,43.9531 C6.31771,48.8281 0.979167,51.2656 0,51.2656 C-0.84375,51.2656 -1.26563,50.8438 -1.26563,50 C-1.26563,49.6771 -1.13542,49.3854 -0.875,49.125 C2.44792,47.1667 6.51563,44.6615 11.3281,41.6094 C14.4531,39.5885 18.099,36.7865 22.2656,33.2031 C26.3073,29.8177 29.4323,26.6302 31.6406,23.6406 C33.9219,20.7031 36.0052,17.0573 37.8906,12.7031 C39.5156,8.33854 40.3281,4.03646 40.3281,-0.203125 C40.3281,-6.51563 38.7656,-12.0156 35.6406,-16.7031 C32.5156,-21.3906 28.3854,-23.7344 23.25,-23.7344 C19.6042,-23.7344 16.4792,-22.5625 13.875,-20.2188 C11.0729,-17.8125 9.05208,-14.7865 7.8125,-11.1406 C9.05208,-11.6615 10.1927,-11.9219 11.2344,-11.9219 C13.9635,-11.9219 16.3073,-10.9427 18.2656,-8.98438 C20.2135,-6.90104 21.1875,-4.52604 21.1875,-1.85938 C21.1875,0.942708 20.2448,3.45313 18.3594,5.67188 C16.3385,7.68229 13.9635,8.6875 11.2344,8.6875 C8.30729,8.6875 5.67188,7.68229 3.32813,5.67188 C1.10938,3.45313 0,0.942708 0,-1.85938 C0,-8.56771 2.28125,-14.2969 6.84375,-19.0469 C11.3333,-23.8594 16.8021,-26.2656 23.25,-26.2656"/>
<path class="Clef" transform="matrix(0.566929,0,0,0.566929,28.5015,200.755)" d="M36.3281,-7.32813 C33.3385,-7.32813 31.8438,-4.88542 31.8438,0 C31.8438,4.88542 33.3385,7.32813 36.3281,7.32813 C37.3073,7.32813 38.7396,6.80729 40.625,5.76563 C42.4479,4.72396 43.9479,4.20313 45.125,4.20313 C51.3021,4.20313 56.6719,6.1875 61.2344,10.1563 C65.724,14.2604 67.9688,19.2083 67.9688,25 C67.9688,41.6667 59.1458,50 41.5,50 C37.2708,50 33.6615,48.6354 30.6719,45.9063 C27.7344,43.1667 26.2656,39.8125 26.2656,35.8438 C26.2656,33.6979 27.0156,31.875 28.5156,30.375 C30.0156,28.875 31.8073,28.125 33.8906,28.125 C35.974,28.125 37.763,28.875 39.2578,30.375 C40.7526,31.875 41.5,33.6979 41.5,35.8438 C41.5,37.1458 40.6875,38.4167 39.0625,39.6563 C37.4375,40.8229 36.625,42.0573 36.625,43.3594 C36.625,44.5365 37.1146,45.4479 38.0938,46.0938 C39,46.8125 40.1354,47.1719 41.5,47.1719 C46.9063,47.1719 50.5859,45.3151 52.5391,41.6016 C54.4922,37.888 55.4688,32.3542 55.4688,25 C55.4688,19.3333 54.8854,15.0365 53.7188,12.1094 C52.4792,8.72396 49.6146,7.03125 45.125,7.03125 C41.7396,7.03125 38.875,8.49479 36.5313,11.4219 C34.3125,14.4219 33.2031,17.9063 33.2031,21.875 C33.2031,22.8542 32.7474,23.3438 31.8359,23.3438 C30.9245,23.3438 30.4688,22.8542 30.4688,21.875 C30.4688,14.125 27.6719,7.45313 22.0781,1.85938 L22.0781,49.0313 C22.0781,49.6771 21.75,50 21.0938,50 L19.0469,50 C18.3281,50 17.9688,49.6771 17.9688,49.0313 L17.9688,-49.0313 C17.9688,-49.6771 18.3281,-50 19.0469,-50 L21.0938,-50 C21.75,-50 22.0781,-49.6771 22.0781,-49.0313 L22.0781,-1.85938 C27.6719,-7.45313 30.4688,-14.125 30.4688,-21.875 C30.4688,-22.8542 30.9245,-23.3438 31.8359,-23.3438 C32.7474,-23.3438 33.2031,-22.8542 33.2031,-21.875 C33.2031,-17.9063 34.3125,-14.4219 36.5313,-11.4219 C38.875,-8.49479 41.7396,-7.03125 45.125,-7.03125 C49.6146,-7.03125 52.4792,-8.72396 53.7188,-12.1094 C54.8854,-15.0365 55.4688,-19.3333 55.4688,-25 C55.4688,-32.3542 54.4922,-37.888 52.5391,-41.6016 C50.5859,-45.3151 46.9063,-47.1719 41.5,-47.1719 C40.1354,-47.1719 39,-46.8125 38.0938,-46.0938 C37.1146,-45.5104 36.625,-44.599 36.625,-43.3594 C36.625,-42.0573 37.4375,-40.8229 39.0625,-39.6563 C40.6875,-38.4167 41.5,-37.1458 41.5,-35.8438 C41.5,-33.6979 40.7526,-31.875 39.2578,-30.375 C37.763,-28.875 35.974,-28.125 33.8906,-28.125 C31.8073,-28.125 30.0156,-28.875 28.5156,-30.375 C27.0156,-31.875 26.2656,-33.6979 26.2656,-35.8438 C26.2656,-39.8125 27.7344,-43.1667 30.6719,-45.9063 C33.6615,-48.6354 37.2708,-50 41.5,-50 C59.1458,-50 67.9688,-41.6667 67.9688,-25 C67.9688,-19.2083 65.724,-14.2604 61.2344,-10.1563 C56.6719,-6.1875 51.3021,-4.20313 45.125,-4.20313 C44.0104,-4.20313 42.5104,-4.72396 40.625,-5.76563 C38.7396,-6.80729 37.3073,-7.32813 36.3281,-7.32813 M12.8906,50 L0.984375,50 C0.328125,50 0,49.6771 0,49.0313 L0,-49.0313 C0,-49.6771 0.328125,-50 0.984375,-50 L12.8906,-50 C13.5469,-50 13.875,-49.6771 13.875,-49.0313 L13.875,49.0313 C13.875,49.6771 13.5469,50 12.8906,50"/>
<path class="Clef" transform="matrix(0.566929,0,0,0.566929,28.5015,80.2825)" d="M36.7188,-25.5938 C36.7188,-25.5938 36.9167,-25.5938 37.3125,-25.5938 C37.5729,-25.6563 37.7969,-25.6875 37.9844,-25.6875 C45.276,-25.6875 51.2656,-23.1146 55.9531,-17.9688 C60.6406,-12.8958 62.9844,-6.97396 62.9844,-0.203125 C62.9844,8.20313 59.5052,15.0417 52.5469,20.3125 C50.724,21.75 48.3438,22.9219 45.4063,23.8281 C45.7396,28.0573 45.9063,31.474 45.9063,34.0781 C45.9063,34.599 45.8385,36.4896 45.7031,39.75 C45.4427,45.8021 43.3594,51.0417 39.4531,55.4688 C35.6823,59.8333 30.9948,62.0156 25.3906,62.0156 C20.1198,62.0156 15.6302,60.1615 11.9219,56.4531 C8.20313,52.6719 6.34375,48.1146 6.34375,42.7813 C6.34375,39.9792 7.42188,37.599 9.57813,35.6406 C11.7865,33.6927 14.3542,32.7188 17.2813,32.7188 C19.8854,32.7188 22.0677,33.7292 23.8281,35.75 C25.651,37.6354 26.5625,39.9792 26.5625,42.7813 C26.5625,45.3125 25.651,47.4896 23.8281,49.3125 C22.0052,51.1354 19.8229,52.0469 17.2813,52.0469 C16.2396,52.0469 15.2344,51.8542 14.2656,51.4688 C17.1302,55.6979 20.9375,57.8125 25.6875,57.8125 C30.1771,57.8125 33.8542,55.9896 36.7188,52.3438 C39.7188,48.5729 41.349,44.1771 41.6094,39.1563 C41.7344,36.0313 41.7969,34.2448 41.7969,33.7969 C41.7969,30.151 41.6667,27.1563 41.4063,24.8125 C38.1563,25.3333 35.2604,25.5938 32.7188,25.5938 C23.6667,25.5938 15.9531,22.0104 9.57813,14.8438 C3.32813,7.61458 0.203125,-0.979167 0.203125,-10.9375 C0.203125,-13.0208 0.395833,-15.1354 0.78125,-17.2813 C1.17708,-19.0417 1.66667,-20.9635 2.25,-23.0469 C2.57292,-24.224 3.45313,-26.1146 4.89063,-28.7188 C5.41146,-29.5 5.9974,-30.4766 6.64844,-31.6484 C7.29948,-32.8203 7.75521,-33.599 8.01563,-33.9844 C8.66146,-35.2865 9.92708,-37.0469 11.8125,-39.2656 C12.3333,-39.849 12.8724,-40.4974 13.4297,-41.2109 C13.987,-41.9245 14.4609,-42.5104 14.8516,-42.9688 C15.2422,-43.4271 15.5339,-43.7865 15.7266,-44.0469 C15.9193,-44.3073 17.3854,-46.0313 20.125,-49.2188 C20.7708,-49.875 21.4036,-50.5755 22.0234,-51.3203 C22.6432,-52.0651 23.1484,-52.651 23.5391,-53.0781 C23.9297,-53.5052 24.224,-53.8125 24.4219,-54 C22.0781,-61.75 20.6094,-67.9375 20.0156,-72.5625 C19.5677,-76.2708 19.3438,-81.349 19.3438,-87.7969 C19.3438,-93.4635 20.6458,-98.7708 23.25,-103.719 C25.7813,-108.854 29.3281,-113.052 33.8906,-116.313 C34.151,-116.51 34.474,-116.609 34.8594,-116.609 C35.3177,-116.609 35.6458,-116.51 35.8438,-116.313 C39.3542,-112.083 42.3802,-106.583 44.9219,-99.8125 C47.526,-93.0417 48.8281,-86.8854 48.8281,-81.3438 C48.8281,-75.0938 47.3333,-69.2344 44.3438,-63.7656 C40.9583,-57.974 36.5938,-51.9844 31.25,-45.7969 C32.6146,-41.5052 34.4375,-34.7708 36.7188,-25.5938 M45.0156,19.8281 C48.401,18.5885 51.0417,16.474 52.9375,13.4844 C55.0208,10.6198 56.0625,7.39583 56.0625,3.8125 C56.0625,-0.8125 54.5,-4.91667 51.375,-8.5 C48.1771,-12.2083 44.1042,-14.2917 39.1563,-14.75 C41.9583,-1.01042 43.9115,10.5156 45.0156,19.8281 M7.23438,-2.73438 C7.23438,3.71354 9.83854,9.38021 15.0469,14.2656 C20.3802,19.0156 26.3698,21.3906 33.0156,21.3906 C35.7448,21.3906 38.4115,21.1927 41.0156,20.7969 C39.974,10.901 37.9219,-0.947917 34.8594,-14.75 C31.151,-14.3542 28.1927,-13.0521 25.9844,-10.8438 C23.8281,-8.5625 22.75,-5.98958 22.75,-3.125 C22.75,1.82292 25.3906,5.82813 30.6719,8.89063 C31.1198,9.34896 31.3438,9.83854 31.3438,10.3594 C31.3438,10.8802 31.1198,11.3646 30.6719,11.8125 C30.276,12.2708 29.7865,12.5 29.2031,12.5 C29.1406,12.5 28.849,12.4375 28.3281,12.3125 C24.6094,10.2917 21.7448,7.6875 19.7344,4.5 C17.8385,1.10417 16.8906,-2.31771 16.8906,-5.76563 C16.8906,-10.2552 18.2917,-14.3229 21.0938,-17.9688 C24.0208,-21.6146 27.8281,-23.9583 32.5156,-25 C30.6927,-32.2917 29.1979,-37.9896 28.0313,-42.0938 C26.9896,-40.9167 25.737,-39.5 24.2734,-37.8438 C22.8099,-36.1875 21.9479,-35.1927 21.6875,-34.8594 C19.3438,-31.8073 17.5521,-29.4323 16.3125,-27.7344 C14.0938,-24.6719 12.4635,-22.0365 11.4219,-19.8281 C10.3177,-17.349 9.34375,-14.6458 8.5,-11.7188 C7.65625,-8.91667 7.23438,-5.92188 7.23438,-2.73438 M39.8438,-102.047 C34.9583,-99.6406 31.1198,-96.1927 28.3281,-91.7031 C25.4635,-87.0781 24.0313,-82.099 24.0313,-76.7656 C24.0313,-72.0781 25.2031,-65.7604 27.5469,-57.8125 C32.2344,-63.4792 35.75,-68.7188 38.0938,-73.5313 C40.5625,-78.6146 41.7969,-83.9219 41.7969,-89.4531 C41.7969,-93.6198 41.1458,-97.8177 39.8438,-102.047"/>
</svg>
