<?xml version="1.0" encoding="UTF-8" standalone="no"?>
<svg width="637.794px" height="765.353px" viewBox="0 0 637.794 765.353"
 xmlns="http://www.w3.org/2000/svg" xmlns:xlink="http://www.w3.org/1999/xlink" version="1.2" baseProfile="tiny">
<title>melodicminor (109)</title>
<desc>Generated by MuseScore 3.4.2</desc>
<polyline class="StaffLines" fill="none" stroke="#000000" stroke-width="1.13" stroke-linejoin="bevel" points="14.1732,61.7953 623.621,61.7953"/>
<polyline class="StaffLines" fill="none" stroke="#000000" stroke-width="1.13" stroke-linejoin="bevel" points="14.1732,75.9685 623.621,75.9685"/>
<polyline class="StaffLines" fill="none" stroke="#000000" stroke-width="1.13" stroke-linejoin="bevel" points="14.1732,90.1417 623.621,90.1417"/>
<polyline class="StaffLines" fill="none" stroke="#000000" stroke-width="1.13" stroke-linejoin="bevel" points="14.1732,104.315 623.621,104.315"/>
<polyline class="StaffLines" fill="none" stroke="#000000" stroke-width="1.13" stroke-linejoin="bevel" points="14.1732,118.488 623.621,118.488"/>
<polyline class="StaffLines" fill="none" stroke="#000000" stroke-width="1.13" stroke-linejoin="bevel" points="14.1732,196.441 623.621,196.441"/>
<polyline class="StaffLines" fill="none" stroke="#000000" stroke-width="1.13" stroke-linejoin="bevel" points="14.1732,210.614 623.621,210.614"/>
<polyline class="StaffLines" fill="none" stroke="#000000" stroke-width="1.13" stroke-linejoin="bevel" points="14.1732,224.787 623.621,224.787"/>
<polyline class="StaffLines" fill="none" stroke="#000000" stroke-width="1.13" stroke-linejoin="bevel" points="14.1732,238.961 623.621,238.961"/>
<polyline class="StaffLines" fill="none" stroke="#000000" stroke-width="1.13" stroke-linejoin="bevel" points="14.1732,253.134 623.621,253.134"/>
<polyline class="StaffLines" fill="none" stroke="#000000" stroke-width="1.13" stroke-linejoin="bevel" points="14.1732,331.087 623.621,331.087"/>
<polyline class="StaffLines" fill="none" stroke="#000000" stroke-width="1.13" stroke-linejoin="bevel" points="14.1732,345.26 623.621,345.26"/>
<polyline class="StaffLines" fill="none" stroke="#000000" stroke-width="1.13" stroke-linejoin="bevel" points="14.1732,359.433 623.621,359.433"/>
<polyline class="StaffLines" fill="none" stroke="#000000" stroke-width="1.13" stroke-linejoin="bevel" points="14.1732,373.606 623.621,373.606"/>
<polyline class="StaffLines" fill="none" stroke="#000000" stroke-width="1.13" stroke-linejoin="bevel" points="14.1732,387.78 623.621,387.78"/>
<polyline class="StaffLines" fill="none" stroke="#000000" stroke-width="1.13" stroke-linejoin="bevel" points="14.1732,465.732 623.621,465.732"/>
<polyline class="StaffLines" fill="none" stroke="#000000" stroke-width="1.13" stroke-linejoin="bevel" points="14.1732,490.535 623.621,490.535"/>
<polyline class="StaffLines" fill="none" stroke="#000000" stroke-width="1.13" stroke-linejoin="bevel" points="14.1732,515.339 623.621,515.339"/>
<polyline class="StaffLines" fill="none" stroke="#000000" stroke-width="1.13" stroke-linejoin="bevel" points="14.1732,540.142 623.621,540.142"/>
<polyline class="StaffLines" fill="none" stroke="#000000" stroke-width="1.13" stroke-linejoin="bevel" points="14.1732,618.094 623.621,618.094"/>
<polyline class="StaffLines" fill="none" stroke="#000000" stroke-width="1.13" stroke-linejoin="bevel" points="14.1732,642.898 623.621,642.898"/>
<polyline class="StaffLines" fill="none" stroke="#000000" stroke-width="1.13" stroke-linejoin="bevel" points="14.1732,667.701 623.621,667.701"/>
<polyline class="StaffLines" fill="none" stroke="#000000" stroke-width="1.13" stroke-linejoin="bevel" points="14.1732,692.504 623.621,692.504"/>
<polyline class="StaffLines" fill="none" stroke="#000000" stroke-width="1.13" stroke-linejoin="bevel" points="14.1732,717.307 623.621,717.307"/>
<polyline class="StaffLines" fill="none" stroke="#000000" stroke-width="1.13" stroke-linejoin="bevel" points="14.1732,742.11 623.621,742.11"/>
<path class="Accidental" transform="matrix(0.566929,0,0,0.566929,102.818,373.606)" d="M4.59375,-4.10938 L4.59375,3.60938 C4.59375,6.34896 4.72396,8.53125 4.98438,10.1563 C7.13021,8.33333 8.66146,6.96875 9.57813,6.0625 C10.6198,5.02083 11.6615,3.58594 12.7031,1.75781 C13.7448,-0.0703125 14.2656,-1.89583 14.2656,-3.71875 C14.2656,-5.54167 13.875,-7.10417 13.0938,-8.40625 C12.3125,-9.70833 11.2708,-10.3594 9.96875,-10.3594 C8.40625,-10.3594 7.10417,-9.77083 6.0625,-8.59375 C5.08333,-7.29167 4.59375,-5.79688 4.59375,-4.10938 M0.484375,13.7656 L-0.78125,-45.7031 C0.135417,-46.224 1.04948,-46.4844 1.96094,-46.4844 C2.8724,-46.4844 3.78125,-46.224 4.6875,-45.7031 L3.90625,-11.2344 C6.57292,-13.5156 9.63542,-14.6563 13.0938,-14.6563 C15.625,-14.6563 17.737,-13.6146 19.4297,-11.5313 C21.1224,-9.44792 21.9688,-7.06771 21.9688,-4.39063 C21.9688,-2.70313 21.4167,-0.911458 20.3125,0.984375 C19.2708,2.73438 18.1667,4.09896 17,5.07813 C16.3438,5.59896 14.6823,6.90104 12.0156,8.98438 C11.2344,9.56771 10.3073,10.25 9.23438,11.0313 C8.16146,11.8125 7.49479,12.3021 7.23438,12.5 C6.77604,12.7604 6.34896,13.2813 5.95313,14.0625 C5.50521,14.7188 4.98438,15.2708 4.39063,15.7188 C3.94271,16.1146 3.39323,16.3125 2.74219,16.3125 C2.09115,16.3125 1.56771,16.0833 1.17188,15.625 C0.713542,15.1667 0.484375,14.5469 0.484375,13.7656"/>
<path class="Accidental" transform="matrix(0.566929,0,0,0.566929,351.199,345.26)" d="M21.5781,31.1563 C21.5781,32.3958 20.9609,33.0156 19.7266,33.0156 C18.4922,33.0156 17.875,32.3958 17.875,31.1563 L17.875,16.7031 L9.57813,19.8281 L9.57813,35.6406 C9.57813,36.8802 8.95833,37.5 7.71875,37.5 C6.47917,37.5 5.85938,36.8802 5.85938,35.6406 L5.85938,21.0938 L2.73438,22.2656 C2.67188,22.3281 2.41146,22.3594 1.95313,22.3594 C1.43229,22.3594 0.976563,22.1641 0.585938,21.7734 C0.195313,21.3828 0,20.9271 0,20.4063 L0,14.3594 C0,13.3802 0.421875,12.7604 1.26563,12.5 L5.85938,10.9375 L5.85938,-5.07813 L2.73438,-4 C2.67188,-3.9375 2.41146,-3.90625 1.95313,-3.90625 C1.43229,-3.90625 0.976563,-4.10156 0.585938,-4.49219 C0.195313,-4.88281 0,-5.33854 0,-5.85938 L0,-11.9219 C0,-12.8281 0.421875,-13.4115 1.26563,-13.6719 L5.85938,-15.4375 L5.85938,-31.1563 C5.85938,-32.3958 6.47917,-33.0156 7.71875,-33.0156 C8.95833,-33.0156 9.57813,-32.3958 9.57813,-31.1563 L9.57813,-16.7031 L17.875,-19.8281 L17.875,-35.6406 C17.875,-36.8802 18.4922,-37.5 19.7266,-37.5 C20.9609,-37.5 21.5781,-36.8802 21.5781,-35.6406 L21.5781,-21.0938 L24.8125,-22.2656 C24.875,-22.3281 25.099,-22.3594 25.4844,-22.3594 C25.9427,-22.3594 26.4323,-22.1667 26.9531,-21.7813 C27.349,-21.3854 27.5469,-20.9271 27.5469,-20.4063 L27.5469,-14.3594 C27.5469,-13.4427 27.0885,-12.8229 26.1719,-12.5 L21.5781,-10.9375 L21.5781,5.07813 L24.8125,4 C24.875,3.9375 25.099,3.90625 25.4844,3.90625 C25.9427,3.90625 26.4323,4.10417 26.9531,4.5 C27.349,4.88542 27.5469,5.33854 27.5469,5.85938 L27.5469,11.9219 C27.5469,12.7656 27.0885,13.349 26.1719,13.6719 L21.5781,15.4375 L21.5781,31.1563 M17.875,-9.46875 L9.57813,-6.54688 L9.57813,9.46875 L17.875,6.54688 L17.875,-9.46875 "/>
<path class="Accidental" transform="matrix(0.566929,0,0,0.566929,542.809,324)" d="M4.59375,-4.10938 L4.59375,3.60938 C4.59375,6.34896 4.72396,8.53125 4.98438,10.1563 C7.13021,8.33333 8.66146,6.96875 9.57813,6.0625 C10.6198,5.02083 11.6615,3.58594 12.7031,1.75781 C13.7448,-0.0703125 14.2656,-1.89583 14.2656,-3.71875 C14.2656,-5.54167 13.875,-7.10417 13.0938,-8.40625 C12.3125,-9.70833 11.2708,-10.3594 9.96875,-10.3594 C8.40625,-10.3594 7.10417,-9.77083 6.0625,-8.59375 C5.08333,-7.29167 4.59375,-5.79688 4.59375,-4.10938 M0.484375,13.7656 L-0.78125,-45.7031 C0.135417,-46.224 1.04948,-46.4844 1.96094,-46.4844 C2.8724,-46.4844 3.78125,-46.224 4.6875,-45.7031 L3.90625,-11.2344 C6.57292,-13.5156 9.63542,-14.6563 13.0938,-14.6563 C15.625,-14.6563 17.737,-13.6146 19.4297,-11.5313 C21.1224,-9.44792 21.9688,-7.06771 21.9688,-4.39063 C21.9688,-2.70313 21.4167,-0.911458 20.3125,0.984375 C19.2708,2.73438 18.1667,4.09896 17,5.07813 C16.3438,5.59896 14.6823,6.90104 12.0156,8.98438 C11.2344,9.56771 10.3073,10.25 9.23438,11.0313 C8.16146,11.8125 7.49479,12.3021 7.23438,12.5 C6.77604,12.7604 6.34896,13.2813 5.95313,14.0625 C5.50521,14.7188 4.98438,15.2708 4.39063,15.7188 C3.94271,16.1146 3.39323,16.3125 2.74219,16.3125 C2.09115,16.3125 1.56771,16.0833 1.17188,15.625 C0.713542,15.1667 0.484375,14.5469 0.484375,13.7656"/>
<path class="Accidental" transform="matrix(0.566929,0,0,0.566929,102.818,231.874)" d="M4.59375,-4.10938 L4.59375,3.60938 C4.59375,6.34896 4.72396,8.53125 4.98438,10.1563 C7.13021,8.33333 8.66146,6.96875 9.57813,6.0625 C10.6198,5.02083 11.6615,3.58594 12.7031,1.75781 C13.7448,-0.0703125 14.2656,-1.89583 14.2656,-3.71875 C14.2656,-5.54167 13.875,-7.10417 13.0938,-8.40625 C12.3125,-9.70833 11.2708,-10.3594 9.96875,-10.3594 C8.40625,-10.3594 7.10417,-9.77083 6.0625,-8.59375 C5.08333,-7.29167 4.59375,-5.79688 4.59375,-4.10938 M0.484375,13.7656 L-0.78125,-45.7031 C0.135417,-46.224 1.04948,-46.4844 1.96094,-46.4844 C2.8724,-46.4844 3.78125,-46.224 4.6875,-45.7031 L3.90625,-11.2344 C6.57292,-13.5156 9.63542,-14.6563 13.0938,-14.6563 C15.625,-14.6563 17.737,-13.6146 19.4297,-11.5313 C21.1224,-9.44792 21.9688,-7.06771 21.9688,-4.39063 C21.9688,-2.70313 21.4167,-0.911458 20.3125,0.984375 C19.2708,2.73438 18.1667,4.09896 17,5.07813 C16.3438,5.59896 14.6823,6.90104 12.0156,8.98438 C11.2344,9.56771 10.3073,10.25 9.23438,11.0313 C8.16146,11.8125 7.49479,12.3021 7.23438,12.5 C6.77604,12.7604 6.34896,13.2813 5.95313,14.0625 C5.50521,14.7188 4.98438,15.2708 4.39063,15.7188 C3.94271,16.1146 3.39323,16.3125 2.74219,16.3125 C2.09115,16.3125 1.56771,16.0833 1.17188,15.625 C0.713542,15.1667 0.484375,14.5469 0.484375,13.7656"/>
<path class="Accidental" transform="matrix(0.566929,0,0,0.566929,351.199,203.528)" d="M21.5781,31.1563 C21.5781,32.3958 20.9609,33.0156 19.7266,33.0156 C18.4922,33.0156 17.875,32.3958 17.875,31.1563 L17.875,16.7031 L9.57813,19.8281 L9.57813,35.6406 C9.57813,36.8802 8.95833,37.5 7.71875,37.5 C6.47917,37.5 5.85938,36.8802 5.85938,35.6406 L5.85938,21.0938 L2.73438,22.2656 C2.67188,22.3281 2.41146,22.3594 1.95313,22.3594 C1.43229,22.3594 0.976563,22.1641 0.585938,21.7734 C0.195313,21.3828 0,20.9271 0,20.4063 L0,14.3594 C0,13.3802 0.421875,12.7604 1.26563,12.5 L5.85938,10.9375 L5.85938,-5.07813 L2.73438,-4 C2.67188,-3.9375 2.41146,-3.90625 1.95313,-3.90625 C1.43229,-3.90625 0.976563,-4.10156 0.585938,-4.49219 C0.195313,-4.88281 0,-5.33854 0,-5.85938 L0,-11.9219 C0,-12.8281 0.421875,-13.4115 1.26563,-13.6719 L5.85938,-15.4375 L5.85938,-31.1563 C5.85938,-32.3958 6.47917,-33.0156 7.71875,-33.0156 C8.95833,-33.0156 9.57813,-32.3958 9.57813,-31.1563 L9.57813,-16.7031 L17.875,-19.8281 L17.875,-35.6406 C17.875,-36.8802 18.4922,-37.5 19.7266,-37.5 C20.9609,-37.5 21.5781,-36.8802 21.5781,-35.6406 L21.5781,-21.0938 L24.8125,-22.2656 C24.875,-22.3281 25.099,-22.3594 25.4844,-22.3594 C25.9427,-22.3594 26.4323,-22.1667 26.9531,-21.7813 C27.349,-21.3854 27.5469,-20.9271 27.5469,-20.4063 L27.5469,-14.3594 C27.5469,-13.4427 27.0885,-12.8229 26.1719,-12.5 L21.5781,-10.9375 L21.5781,5.07813 L24.8125,4 C24.875,3.9375 25.099,3.90625 25.4844,3.90625 C25.9427,3.90625 26.4323,4.10417 26.9531,4.5 C27.349,4.88542 27.5469,5.33854 27.5469,5.85938 L27.5469,11.9219 C27.5469,12.7656 27.0885,13.349 26.1719,13.6719 L21.5781,15.4375 L21.5781,31.1563 M17.875,-9.46875 L9.57813,-6.54688 L9.57813,9.46875 L17.875,6.54688 L17.875,-9.46875 "/>
<path class="Accidental" transform="matrix(0.566929,0,0,0.566929,539.975,182.268)" d="M4.59375,-4.10938 L4.59375,3.60938 C4.59375,6.34896 4.72396,8.53125 4.98438,10.1563 C7.13021,8.33333 8.66146,6.96875 9.57813,6.0625 C10.6198,5.02083 11.6615,3.58594 12.7031,1.75781 C13.7448,-0.0703125 14.2656,-1.89583 14.2656,-3.71875 C14.2656,-5.54167 13.875,-7.10417 13.0938,-8.40625 C12.3125,-9.70833 11.2708,-10.3594 9.96875,-10.3594 C8.40625,-10.3594 7.10417,-9.77083 6.0625,-8.59375 C5.08333,-7.29167 4.59375,-5.79688 4.59375,-4.10938 M0.484375,13.7656 L-0.78125,-45.7031 C0.135417,-46.224 1.04948,-46.4844 1.96094,-46.4844 C2.8724,-46.4844 3.78125,-46.224 4.6875,-45.7031 L3.90625,-11.2344 C6.57292,-13.5156 9.63542,-14.6563 13.0938,-14.6563 C15.625,-14.6563 17.737,-13.6146 19.4297,-11.5313 C21.1224,-9.44792 21.9688,-7.06771 21.9688,-4.39063 C21.9688,-2.70313 21.4167,-0.911458 20.3125,0.984375 C19.2708,2.73438 18.1667,4.09896 17,5.07813 C16.3438,5.59896 14.6823,6.90104 12.0156,8.98438 C11.2344,9.56771 10.3073,10.25 9.23438,11.0313 C8.16146,11.8125 7.49479,12.3021 7.23438,12.5 C6.77604,12.7604 6.34896,13.2813 5.95313,14.0625 C5.50521,14.7188 4.98438,15.2708 4.39063,15.7188 C3.94271,16.1146 3.39323,16.3125 2.74219,16.3125 C2.09115,16.3125 1.56771,16.0833 1.17188,15.625 C0.713542,15.1667 0.484375,14.5469 0.484375,13.7656"/>
<path class="Accidental" transform="matrix(0.566929,0,0,0.566929,102.818,90.1417)" d="M4.59375,-4.10938 L4.59375,3.60938 C4.59375,6.34896 4.72396,8.53125 4.98438,10.1563 C7.13021,8.33333 8.66146,6.96875 9.57813,6.0625 C10.6198,5.02083 11.6615,3.58594 12.7031,1.75781 C13.7448,-0.0703125 14.2656,-1.89583 14.2656,-3.71875 C14.2656,-5.54167 13.875,-7.10417 13.0938,-8.40625 C12.3125,-9.70833 11.2708,-10.3594 9.96875,-10.3594 C8.40625,-10.3594 7.10417,-9.77083 6.0625,-8.59375 C5.08333,-7.29167 4.59375,-5.79688 4.59375,-4.10938 M0.484375,13.7656 L-0.78125,-45.7031 C0.135417,-46.224 1.04948,-46.4844 1.96094,-46.4844 C2.8724,-46.4844 3.78125,-46.224 4.6875,-45.7031 L3.90625,-11.2344 C6.57292,-13.5156 9.63542,-14.6563 13.0938,-14.6563 C15.625,-14.6563 17.737,-13.6146 19.4297,-11.5313 C21.1224,-9.44792 21.9688,-7.06771 21.9688,-4.39063 C21.9688,-2.70313 21.4167,-0.911458 20.3125,0.984375 C19.2708,2.73438 18.1667,4.09896 17,5.07813 C16.3438,5.59896 14.6823,6.90104 12.0156,8.98438 C11.2344,9.56771 10.3073,10.25 9.23438,11.0313 C8.16146,11.8125 7.49479,12.3021 7.23438,12.5 C6.77604,12.7604 6.34896,13.2813 5.95313,14.0625 C5.50521,14.7188 4.98438,15.2708 4.39063,15.7188 C3.94271,16.1146 3.39323,16.3125 2.74219,16.3125 C2.09115,16.3125 1.56771,16.0833 1.17188,15.625 C0.713542,15.1667 0.484375,14.5469 0.484375,13.7656"/>
<path class="Accidental" transform="matrix(0.566929,0,0,0.566929,351.199,61.7953)" d="M21.5781,31.1563 C21.5781,32.3958 20.9609,33.0156 19.7266,33.0156 C18.4922,33.0156 17.875,32.3958 17.875,31.1563 L17.875,16.7031 L9.57813,19.8281 L9.57813,35.6406 C9.57813,36.8802 8.95833,37.5 7.71875,37.5 C6.47917,37.5 5.85938,36.8802 5.85938,35.6406 L5.85938,21.0938 L2.73438,22.2656 C2.67188,22.3281 2.41146,22.3594 1.95313,22.3594 C1.43229,22.3594 0.976563,22.1641 0.585938,21.7734 C0.195313,21.3828 0,20.9271 0,20.4063 L0,14.3594 C0,13.3802 0.421875,12.7604 1.26563,12.5 L5.85938,10.9375 L5.85938,-5.07813 L2.73438,-4 C2.67188,-3.9375 2.41146,-3.90625 1.95313,-3.90625 C1.43229,-3.90625 0.976563,-4.10156 0.585938,-4.49219 C0.195313,-4.88281 0,-5.33854 0,-5.85938 L0,-11.9219 C0,-12.8281 0.421875,-13.4115 1.26563,-13.6719 L5.85938,-15.4375 L5.85938,-31.1563 C5.85938,-32.3958 6.47917,-33.0156 7.71875,-33.0156 C8.95833,-33.0156 9.57813,-32.3958 9.57813,-31.1563 L9.57813,-16.7031 L17.875,-19.8281 L17.875,-35.6406 C17.875,-36.8802 18.4922,-37.5 19.7266,-37.5 C20.9609,-37.5 21.5781,-36.8802 21.5781,-35.6406 L21.5781,-21.0938 L24.8125,-22.2656 C24.875,-22.3281 25.099,-22.3594 25.4844,-22.3594 C25.9427,-22.3594 26.4323,-22.1667 26.9531,-21.7813 C27.349,-21.3854 27.5469,-20.9271 27.5469,-20.4063 L27.5469,-14.3594 C27.5469,-13.4427 27.0885,-12.8229 26.1719,-12.5 L21.5781,-10.9375 L21.5781,5.07813 L24.8125,4 C24.875,3.9375 25.099,3.90625 25.4844,3.90625 C25.9427,3.90625 26.4323,4.10417 26.9531,4.5 C27.349,4.88542 27.5469,5.33854 27.5469,5.85938 L27.5469,11.9219 C27.5469,12.7656 27.0885,13.349 26.1719,13.6719 L21.5781,15.4375 L21.5781,31.1563 M17.875,-9.46875 L9.57813,-6.54688 L9.57813,9.46875 L17.875,6.54688 L17.875,-9.46875 "/>
<path class="Accidental" transform="matrix(0.566929,0,0,0.566929,539.975,40.5354)" d="M4.59375,-4.10938 L4.59375,3.60938 C4.59375,6.34896 4.72396,8.53125 4.98438,10.1563 C7.13021,8.33333 8.66146,6.96875 9.57813,6.0625 C10.6198,5.02083 11.6615,3.58594 12.7031,1.75781 C13.7448,-0.0703125 14.2656,-1.89583 14.2656,-3.71875 C14.2656,-5.54167 13.875,-7.10417 13.0938,-8.40625 C12.3125,-9.70833 11.2708,-10.3594 9.96875,-10.3594 C8.40625,-10.3594 7.10417,-9.77083 6.0625,-8.59375 C5.08333,-7.29167 4.59375,-5.79688 4.59375,-4.10938 M0.484375,13.7656 L-0.78125,-45.7031 C0.135417,-46.224 1.04948,-46.4844 1.96094,-46.4844 C2.8724,-46.4844 3.78125,-46.224 4.6875,-45.7031 L3.90625,-11.2344 C6.57292,-13.5156 9.63542,-14.6563 13.0938,-14.6563 C15.625,-14.6563 17.737,-13.6146 19.4297,-11.5313 C21.1224,-9.44792 21.9688,-7.06771 21.9688,-4.39063 C21.9688,-2.70313 21.4167,-0.911458 20.3125,0.984375 C19.2708,2.73438 18.1667,4.09896 17,5.07813 C16.3438,5.59896 14.6823,6.90104 12.0156,8.98438 C11.2344,9.56771 10.3073,10.25 9.23438,11.0313 C8.16146,11.8125 7.49479,12.3021 7.23438,12.5 C6.77604,12.7604 6.34896,13.2813 5.95313,14.0625 C5.50521,14.7188 4.98438,15.2708 4.39063,15.7188 C3.94271,16.1146 3.39323,16.3125 2.74219,16.3125 C2.09115,16.3125 1.56771,16.0833 1.17188,15.625 C0.713542,15.1667 0.484375,14.5469 0.484375,13.7656"/>
<polyline class="LedgerLine" fill="none" stroke="#000000" stroke-width="2.27" stroke-linecap="square" stroke-linejoin="bevel" points="554.245,182.268 581.409,182.268"/>
<polyline class="LedgerLine" fill="none" stroke="#000000" stroke-width="2.27" stroke-linecap="square" stroke-linejoin="bevel" points="491.389,47.6221 518.553,47.6221"/>
<polyline class="LedgerLine" fill="none" stroke="#000000" stroke-width="2.27" stroke-linecap="square" stroke-linejoin="bevel" points="554.245,47.6221 581.409,47.6221"/>
<path class="Note" fill="#ffffff" fill-opacity="0.0" fill-rule="evenodd" d="M119.782,704.906 L138.49,704.906 L138.49,729.709 L119.782,729.709 L119.782,704.906 "/>
<path class="Note" d="M128.449,713.916 L124.058,713.916 L124.058,712.151 C125.964,711.911 127.207,711.575 127.785,711.143 C128.363,710.711 128.865,709.729 129.293,708.198 L130.918,708.198 L130.918,728.057 L128.449,728.057 L128.449,713.916 "/>
<path class="Note" fill="#ffffff" fill-opacity="0.0" fill-rule="evenodd" d="M119.782,655.299 L138.49,655.299 L138.49,680.102 L119.782,680.102 L119.782,655.299 "/>
<path class="Note" d="M128.761,660.748 C127.345,660.748 126.371,661.136 125.839,661.912 C125.308,662.688 125.022,663.722 124.98,665.013 L122.511,665.013 C122.605,660.732 124.678,658.591 128.73,658.591 C130.615,658.591 132.095,659.078 133.168,660.052 C134.24,661.026 134.777,662.362 134.777,664.06 C134.777,666.071 133.855,667.44 132.011,668.17 C133.199,668.586 134.056,669.162 134.582,669.896 C135.108,670.63 135.371,671.633 135.371,672.904 C135.371,674.789 134.759,676.292 133.535,677.412 C132.311,678.532 130.683,679.091 128.652,679.091 C124.579,679.091 122.392,676.956 122.089,672.685 L124.558,672.685 C124.652,674.123 125.035,675.185 125.707,675.873 C126.379,676.56 127.386,676.904 128.73,676.904 C130.022,676.904 131.03,676.555 131.754,675.857 C132.477,675.159 132.839,674.185 132.839,672.935 C132.839,670.529 131.47,669.326 128.73,669.326 L127.699,669.357 L127.386,669.357 L127.386,667.248 C129.157,667.216 130.412,666.995 131.152,666.584 C131.892,666.172 132.261,665.357 132.261,664.138 C132.261,663.097 131.949,662.271 131.324,661.662 C130.699,661.052 129.845,660.748 128.761,660.748"/>
<path class="Note" fill="#ffffff" fill-opacity="0.0" fill-rule="evenodd" d="M182.637,704.906 L201.346,704.906 L201.346,729.709 L182.637,729.709 L182.637,704.906 "/>
<path class="Note" d="M191.617,710.354 C190.201,710.354 189.227,710.742 188.695,711.518 C188.164,712.294 187.878,713.328 187.836,714.62 L185.367,714.62 C185.461,710.338 187.534,708.198 191.586,708.198 C193.471,708.198 194.951,708.685 196.023,709.659 C197.096,710.633 197.633,711.969 197.633,713.666 C197.633,715.677 196.711,717.047 194.867,717.776 C196.055,718.193 196.911,718.768 197.438,719.502 C197.964,720.237 198.227,721.239 198.227,722.51 C198.227,724.396 197.615,725.898 196.391,727.018 C195.167,728.138 193.539,728.698 191.508,728.698 C187.435,728.698 185.247,726.562 184.945,722.291 L187.414,722.291 C187.508,723.729 187.891,724.791 188.563,725.479 C189.234,726.166 190.242,726.51 191.586,726.51 C192.878,726.51 193.885,726.161 194.609,725.463 C195.333,724.765 195.695,723.791 195.695,722.541 C195.695,720.135 194.326,718.932 191.586,718.932 L190.555,718.963 L190.242,718.963 L190.242,716.854 C192.013,716.823 193.268,716.601 194.008,716.19 C194.747,715.778 195.117,714.963 195.117,713.745 C195.117,712.703 194.805,711.877 194.18,711.268 C193.555,710.659 192.701,710.354 191.617,710.354"/>
<path class="Note" fill="#ffffff" fill-opacity="0.0" fill-rule="evenodd" d="M182.637,630.496 L201.346,630.496 L201.346,655.299 L182.637,655.299 L182.637,630.496 "/>
<path class="Note" d="M191.305,639.507 L186.914,639.507 L186.914,637.741 C188.82,637.502 190.063,637.166 190.641,636.734 C191.219,636.301 191.721,635.32 192.148,633.788 L193.773,633.788 L193.773,653.648 L191.305,653.648 L191.305,639.507 "/>
<path class="Note" fill="#ffffff" fill-opacity="0.0" fill-rule="evenodd" d="M245.493,680.102 L264.202,680.102 L264.202,704.906 L245.493,704.906 L245.493,680.102 "/>
<path class="Note" d="M248.114,693.645 C248.114,691.988 248.254,690.525 248.536,689.254 C248.817,687.983 249.171,686.988 249.598,686.27 C250.025,685.551 250.538,684.967 251.137,684.52 C251.736,684.072 252.312,683.772 252.864,683.621 C253.416,683.47 253.999,683.395 254.614,683.395 C258.947,683.395 261.114,686.869 261.114,693.816 C261.114,697.087 260.556,699.585 259.442,701.309 C258.327,703.033 256.718,703.895 254.614,703.895 C252.489,703.895 250.874,703.022 249.77,701.277 C248.666,699.533 248.114,696.988 248.114,693.645 M258.583,693.598 C258.583,688.254 257.257,685.582 254.606,685.582 C251.955,685.582 250.629,688.28 250.629,693.676 C250.629,699.124 251.937,701.848 254.551,701.848 C255.937,701.848 256.955,701.176 257.606,699.832 C258.257,698.488 258.583,696.41 258.583,693.598"/>
<path class="Note" fill="#ffffff" fill-opacity="0.0" fill-rule="evenodd" d="M245.493,630.496 L264.202,630.496 L264.202,655.299 L245.493,655.299 L245.493,630.496 "/>
<path class="Note" d="M254.473,635.945 C253.056,635.945 252.083,636.333 251.551,637.109 C251.02,637.885 250.734,638.918 250.692,640.21 L248.223,640.21 C248.317,635.929 250.39,633.788 254.442,633.788 C256.327,633.788 257.806,634.275 258.879,635.249 C259.952,636.223 260.489,637.559 260.489,639.257 C260.489,641.267 259.567,642.637 257.723,643.366 C258.911,643.783 259.767,644.359 260.293,645.093 C260.819,645.827 261.083,646.83 261.083,648.101 C261.083,649.986 260.471,651.489 259.247,652.609 C258.023,653.728 256.395,654.288 254.364,654.288 C250.291,654.288 248.103,652.153 247.801,647.882 L250.27,647.882 C250.364,649.32 250.747,650.382 251.418,651.07 C252.09,651.757 253.098,652.101 254.442,652.101 C255.734,652.101 256.741,651.752 257.465,651.054 C258.189,650.356 258.551,649.382 258.551,648.132 C258.551,645.726 257.181,644.523 254.442,644.523 L253.411,644.554 L253.098,644.554 L253.098,642.445 C254.869,642.413 256.124,642.192 256.864,641.78 C257.603,641.369 257.973,640.554 257.973,639.335 C257.973,638.293 257.661,637.468 257.036,636.859 C256.411,636.249 255.556,635.945 254.473,635.945"/>
<path class="Note" fill="#ffffff" fill-opacity="0.0" fill-rule="evenodd" d="M308.349,680.102 L327.058,680.102 L327.058,704.906 L308.349,704.906 L308.349,680.102 "/>
<path class="Note" d="M311.173,690.285 C311.298,685.691 313.48,683.395 317.72,683.395 C319.605,683.395 321.136,683.936 322.313,685.02 C323.49,686.103 324.079,687.504 324.079,689.223 C324.079,691.691 322.678,693.691 319.876,695.223 L317.079,696.723 C315.86,697.379 314.99,698.014 314.47,698.629 C313.949,699.244 313.621,699.973 313.485,700.816 L323.938,700.816 L323.938,703.254 L310.72,703.254 C310.834,701.066 311.274,699.382 312.04,698.199 C312.806,697.017 314.225,695.837 316.298,694.66 L318.86,693.207 C320.652,692.176 321.548,690.869 321.548,689.285 C321.548,688.223 321.175,687.335 320.431,686.621 C319.686,685.908 318.756,685.551 317.642,685.551 C315.152,685.551 313.813,687.129 313.626,690.285 L311.173,690.285 "/>
<path class="Note" fill="#ffffff" fill-opacity="0.0" fill-rule="evenodd" d="M308.349,605.693 L327.058,605.693 L327.058,630.496 L308.349,630.496 L308.349,605.693 "/>
<path class="Note" d="M310.97,619.235 C310.97,617.579 311.11,616.115 311.392,614.844 C311.673,613.574 312.027,612.579 312.454,611.86 C312.881,611.141 313.394,610.558 313.993,610.11 C314.592,609.662 315.168,609.363 315.72,609.212 C316.272,609.061 316.855,608.985 317.47,608.985 C321.803,608.985 323.97,612.459 323.97,619.407 C323.97,622.678 323.412,625.175 322.298,626.899 C321.183,628.623 319.574,629.485 317.47,629.485 C315.345,629.485 313.73,628.613 312.626,626.868 C311.522,625.123 310.97,622.579 310.97,619.235 M321.438,619.188 C321.438,613.844 320.113,611.173 317.462,611.173 C314.811,611.173 313.485,613.871 313.485,619.266 C313.485,624.714 314.793,627.438 317.407,627.438 C318.793,627.438 319.811,626.766 320.462,625.423 C321.113,624.079 321.438,622.001 321.438,619.188"/>
<path class="Note" fill="#ffffff" fill-opacity="0.0" fill-rule="evenodd" d="M371.205,680.102 L389.914,680.102 L389.914,704.906 L371.205,704.906 L371.205,680.102 "/>
<path class="Note" d="M381.779,698.488 L373.404,698.488 L373.404,695.895 L382.419,683.395 L384.247,683.395 L384.247,696.285 L387.185,696.285 L387.185,698.488 L384.247,698.488 L384.247,703.254 L381.779,703.254 L381.779,698.488 M381.779,696.285 L381.779,687.598 L375.56,696.285 L381.779,696.285 "/>
<path class="Note" fill="#ffffff" fill-opacity="0.0" fill-rule="evenodd" d="M371.205,605.693 L389.914,605.693 L389.914,630.496 L371.205,630.496 L371.205,605.693 "/>
<path class="Note" d="M374.029,615.876 C374.154,611.282 376.336,608.985 380.576,608.985 C382.461,608.985 383.992,609.527 385.169,610.61 C386.346,611.693 386.935,613.094 386.935,614.813 C386.935,617.282 385.534,619.282 382.732,620.813 L379.935,622.313 C378.716,622.969 377.846,623.605 377.326,624.219 C376.805,624.834 376.477,625.563 376.341,626.407 L386.794,626.407 L386.794,628.844 L373.576,628.844 C373.69,626.657 374.13,624.972 374.896,623.79 C375.661,622.608 377.081,621.428 379.154,620.251 L381.716,618.798 C383.508,617.766 384.404,616.459 384.404,614.876 C384.404,613.813 384.031,612.925 383.286,612.212 C382.542,611.498 381.612,611.141 380.497,611.141 C378.008,611.141 376.669,612.719 376.482,615.876 L374.029,615.876 "/>
<path class="Note" fill="#ffffff" fill-opacity="0.0" fill-rule="evenodd" d="M434.061,655.299 L452.77,655.299 L452.77,680.102 L434.061,680.102 L434.061,655.299 "/>
<path class="Note" d="M436.681,668.841 C436.681,667.185 436.822,665.722 437.103,664.451 C437.385,663.18 437.739,662.185 438.166,661.466 C438.593,660.748 439.106,660.164 439.705,659.716 C440.304,659.269 440.879,658.969 441.431,658.818 C441.984,658.667 442.567,658.591 443.181,658.591 C447.515,658.591 449.681,662.065 449.681,669.013 C449.681,672.284 449.124,674.782 448.01,676.505 C446.895,678.229 445.286,679.091 443.181,679.091 C441.056,679.091 439.442,678.219 438.338,676.474 C437.234,674.729 436.681,672.185 436.681,668.841 M447.15,668.795 C447.15,663.451 445.825,660.779 443.174,660.779 C440.523,660.779 439.197,663.477 439.197,668.873 C439.197,674.321 440.504,677.045 443.119,677.045 C444.504,677.045 445.523,676.373 446.174,675.029 C446.825,673.685 447.15,671.607 447.15,668.795"/>
<path class="Note" fill="#ffffff" fill-opacity="0.0" fill-rule="evenodd" d="M434.061,605.693 L452.77,605.693 L452.77,630.496 L434.061,630.496 L434.061,605.693 "/>
<path class="Note" d="M443.041,611.141 C441.624,611.141 440.65,611.529 440.119,612.305 C439.588,613.081 439.301,614.115 439.26,615.407 L436.791,615.407 C436.885,611.126 438.957,608.985 443.01,608.985 C444.895,608.985 446.374,609.472 447.447,610.446 C448.52,611.42 449.056,612.756 449.056,614.454 C449.056,616.464 448.135,617.834 446.291,618.563 C447.478,618.98 448.335,619.555 448.861,620.29 C449.387,621.024 449.65,622.027 449.65,623.298 C449.65,625.183 449.038,626.686 447.814,627.805 C446.59,628.925 444.963,629.485 442.931,629.485 C438.859,629.485 436.671,627.35 436.369,623.079 L438.838,623.079 C438.931,624.516 439.314,625.579 439.986,626.266 C440.658,626.954 441.666,627.298 443.01,627.298 C444.301,627.298 445.309,626.949 446.033,626.251 C446.757,625.553 447.119,624.579 447.119,623.329 C447.119,620.923 445.749,619.719 443.01,619.719 L441.978,619.751 L441.666,619.751 L441.666,617.641 C443.437,617.61 444.692,617.389 445.431,616.977 C446.171,616.566 446.541,615.751 446.541,614.532 C446.541,613.49 446.228,612.665 445.603,612.055 C444.978,611.446 444.124,611.141 443.041,611.141"/>
<path class="Note" fill="#ffffff" fill-opacity="0.0" fill-rule="evenodd" d="M496.917,655.299 L515.626,655.299 L515.626,680.102 L496.917,680.102 L496.917,655.299 "/>
<path class="Note" d="M499.74,665.482 C499.865,660.888 502.048,658.591 506.287,658.591 C508.173,658.591 509.704,659.133 510.881,660.216 C512.058,661.3 512.647,662.701 512.647,664.42 C512.647,666.888 511.246,668.888 508.444,670.42 L505.647,671.92 C504.428,672.576 503.558,673.211 503.037,673.826 C502.517,674.44 502.188,675.17 502.053,676.013 L512.506,676.013 L512.506,678.451 L499.287,678.451 C499.402,676.263 499.842,674.578 500.608,673.396 C501.373,672.214 502.793,671.034 504.865,669.857 L507.428,668.404 C509.22,667.373 510.115,666.065 510.115,664.482 C510.115,663.42 509.743,662.532 508.998,661.818 C508.254,661.104 507.324,660.748 506.209,660.748 C503.72,660.748 502.381,662.326 502.194,665.482 L499.74,665.482 "/>
<path class="Note" fill="#ffffff" fill-opacity="0.0" fill-rule="evenodd" d="M496.917,605.693 L515.626,605.693 L515.626,630.496 L496.917,630.496 L496.917,605.693 "/>
<path class="Note" d="M511.662,608.985 L511.662,611.423 L503.397,611.423 L502.615,616.969 C503.72,616.167 504.944,615.766 506.287,615.766 C508.194,615.766 509.738,616.378 510.92,617.602 C512.102,618.826 512.694,620.417 512.694,622.376 C512.694,624.469 512.061,626.178 510.795,627.501 C509.53,628.824 507.897,629.485 505.897,629.485 C505.126,629.485 504.42,629.402 503.78,629.235 C503.139,629.068 502.608,628.868 502.186,628.634 C501.764,628.399 501.381,628.092 501.037,627.712 C500.694,627.331 500.433,626.996 500.256,626.704 C500.079,626.412 499.91,626.048 499.748,625.61 C499.587,625.173 499.488,624.871 499.451,624.704 C499.415,624.537 499.371,624.292 499.319,623.969 L501.772,623.969 C502.355,626.188 503.709,627.298 505.834,627.298 C507.178,627.298 508.238,626.889 509.014,626.071 C509.79,625.253 510.178,624.136 510.178,622.719 C510.178,621.24 509.785,620.076 508.998,619.227 C508.212,618.378 507.157,617.954 505.834,617.954 C505.074,617.954 504.423,618.089 503.881,618.36 C503.339,618.631 502.777,619.11 502.194,619.798 L499.928,619.798 L501.412,608.985 L511.662,608.985 "/>
<path class="Note" fill="#ffffff" fill-opacity="0.0" fill-rule="evenodd" d="M559.773,655.299 L578.481,655.299 L578.481,680.102 L559.773,680.102 L559.773,655.299 "/>
<path class="Note" d="M568.753,660.748 C567.336,660.748 566.362,661.136 565.831,661.912 C565.3,662.688 565.013,663.722 564.971,665.013 L562.503,665.013 C562.596,660.732 564.669,658.591 568.721,658.591 C570.607,658.591 572.086,659.078 573.159,660.052 C574.232,661.026 574.768,662.362 574.768,664.06 C574.768,666.071 573.846,667.44 572.003,668.17 C573.19,668.586 574.047,669.162 574.573,669.896 C575.099,670.63 575.362,671.633 575.362,672.904 C575.362,674.789 574.75,676.292 573.526,677.412 C572.302,678.532 570.675,679.091 568.643,679.091 C564.57,679.091 562.383,676.956 562.081,672.685 L564.55,672.685 C564.643,674.123 565.026,675.185 565.698,675.873 C566.37,676.56 567.378,676.904 568.721,676.904 C570.013,676.904 571.021,676.555 571.745,675.857 C572.469,675.159 572.831,674.185 572.831,672.935 C572.831,670.529 571.461,669.326 568.721,669.326 L567.69,669.357 L567.378,669.357 L567.378,667.248 C569.148,667.216 570.404,666.995 571.143,666.584 C571.883,666.172 572.253,665.357 572.253,664.138 C572.253,663.097 571.94,662.271 571.315,661.662 C570.69,661.052 569.836,660.748 568.753,660.748"/>
<path class="Note" fill="#ffffff" fill-opacity="0.0" fill-rule="evenodd" d="M559.773,605.693 L578.481,605.693 L578.481,630.496 L559.773,630.496 L559.773,605.693 "/>
<path class="Note" d="M562.393,619.798 C562.393,618.048 562.552,616.503 562.87,615.165 C563.188,613.826 563.583,612.777 564.057,612.016 C564.531,611.256 565.102,610.636 565.768,610.157 C566.435,609.678 567.063,609.363 567.651,609.212 C568.24,609.061 568.857,608.985 569.503,608.985 C571.013,608.985 572.268,609.443 573.268,610.36 C574.268,611.277 574.888,612.548 575.128,614.173 L572.675,614.173 C572.466,613.225 572.073,612.488 571.495,611.962 C570.917,611.436 570.195,611.173 569.331,611.173 C567.914,611.173 566.828,611.821 566.073,613.118 C565.318,614.415 564.93,616.277 564.909,618.704 C565.992,617.235 567.513,616.501 569.471,616.501 C571.253,616.501 572.711,617.089 573.846,618.266 C574.982,619.443 575.55,620.954 575.55,622.798 C575.55,624.735 574.94,626.334 573.721,627.594 C572.503,628.855 570.951,629.485 569.065,629.485 C564.617,629.485 562.393,626.256 562.393,619.798 M569.175,618.688 C567.956,618.688 566.964,619.074 566.198,619.844 C565.432,620.615 565.05,621.621 565.05,622.86 C565.05,624.121 565.432,625.175 566.198,626.024 C566.964,626.873 567.925,627.298 569.081,627.298 C570.227,627.298 571.172,626.894 571.917,626.087 C572.661,625.279 573.034,624.246 573.034,622.985 C573.034,621.662 572.688,620.615 571.995,619.844 C571.302,619.074 570.362,618.688 569.175,618.688"/>
<path class="Note" fill="#ffffff" fill-opacity="0.0" fill-rule="evenodd" d="M119.782,527.74 L138.49,527.74 L138.49,552.543 L119.782,552.543 L119.782,527.74 "/>
<path class="Note" d="M128.761,533.189 C127.345,533.189 126.371,533.577 125.839,534.353 C125.308,535.129 125.022,536.163 124.98,537.454 L122.511,537.454 C122.605,533.173 124.678,531.032 128.73,531.032 C130.615,531.032 132.095,531.519 133.168,532.493 C134.24,533.467 134.777,534.803 134.777,536.501 C134.777,538.512 133.855,539.881 132.011,540.61 C133.199,541.027 134.056,541.603 134.582,542.337 C135.108,543.071 135.371,544.074 135.371,545.345 C135.371,547.23 134.759,548.733 133.535,549.853 C132.311,550.972 130.683,551.532 128.652,551.532 C124.579,551.532 122.392,549.397 122.089,545.126 L124.558,545.126 C124.652,546.564 125.035,547.626 125.707,548.314 C126.379,549.001 127.386,549.345 128.73,549.345 C130.022,549.345 131.03,548.996 131.754,548.298 C132.477,547.6 132.839,546.626 132.839,545.376 C132.839,542.97 131.47,541.767 128.73,541.767 L127.699,541.798 L127.386,541.798 L127.386,539.689 C129.157,539.657 130.412,539.436 131.152,539.025 C131.892,538.613 132.261,537.798 132.261,536.579 C132.261,535.538 131.949,534.712 131.324,534.103 C130.699,533.493 129.845,533.189 128.761,533.189"/>
<path class="Note" fill="#ffffff" fill-opacity="0.0" fill-rule="evenodd" d="M119.782,478.134 L138.49,478.134 L138.49,502.937 L119.782,502.937 L119.782,478.134 "/>
<path class="Note" d="M128.449,487.145 L124.058,487.145 L124.058,485.379 C125.964,485.14 127.207,484.804 127.785,484.371 C128.363,483.939 128.865,482.957 129.293,481.426 L130.918,481.426 L130.918,501.285 L128.449,501.285 L128.449,487.145 "/>
<path class="Note" fill="#ffffff" fill-opacity="0.0" fill-rule="evenodd" d="M182.637,527.74 L201.346,527.74 L201.346,552.543 L182.637,552.543 L182.637,527.74 "/>
<path class="Note" d="M197.383,531.032 L197.383,533.47 L189.117,533.47 L188.336,539.017 C189.44,538.215 190.664,537.814 192.008,537.814 C193.914,537.814 195.458,538.426 196.641,539.65 C197.823,540.874 198.414,542.465 198.414,544.423 C198.414,546.517 197.781,548.225 196.516,549.548 C195.25,550.871 193.617,551.532 191.617,551.532 C190.846,551.532 190.141,551.449 189.5,551.282 C188.859,551.116 188.328,550.915 187.906,550.681 C187.484,550.446 187.102,550.139 186.758,549.759 C186.414,549.379 186.154,549.043 185.977,548.751 C185.8,548.459 185.63,548.095 185.469,547.657 C185.307,547.22 185.208,546.918 185.172,546.751 C185.135,546.584 185.091,546.34 185.039,546.017 L187.492,546.017 C188.076,548.235 189.43,549.345 191.555,549.345 C192.898,549.345 193.958,548.936 194.734,548.118 C195.51,547.301 195.898,546.183 195.898,544.767 C195.898,543.288 195.505,542.124 194.719,541.275 C193.932,540.426 192.878,540.001 191.555,540.001 C190.794,540.001 190.143,540.137 189.602,540.407 C189.06,540.678 188.497,541.157 187.914,541.845 L185.648,541.845 L187.133,531.032 L197.383,531.032 "/>
<path class="Note" fill="#ffffff" fill-opacity="0.0" fill-rule="evenodd" d="M182.637,478.134 L201.346,478.134 L201.346,502.937 L182.637,502.937 L182.637,478.134 "/>
<path class="Note" d="M191.617,483.582 C190.201,483.582 189.227,483.97 188.695,484.746 C188.164,485.522 187.878,486.556 187.836,487.848 L185.367,487.848 C185.461,483.567 187.534,481.426 191.586,481.426 C193.471,481.426 194.951,481.913 196.023,482.887 C197.096,483.861 197.633,485.197 197.633,486.895 C197.633,488.905 196.711,490.275 194.867,491.004 C196.055,491.421 196.911,491.996 197.438,492.731 C197.964,493.465 198.227,494.468 198.227,495.739 C198.227,497.624 197.615,499.127 196.391,500.246 C195.167,501.366 193.539,501.926 191.508,501.926 C187.435,501.926 185.247,499.791 184.945,495.52 L187.414,495.52 C187.508,496.957 187.891,498.02 188.563,498.707 C189.234,499.395 190.242,499.739 191.586,499.739 C192.878,499.739 193.885,499.39 194.609,498.692 C195.333,497.994 195.695,497.02 195.695,495.77 C195.695,493.364 194.326,492.16 191.586,492.16 L190.555,492.192 L190.242,492.192 L190.242,490.082 C192.013,490.051 193.268,489.83 194.008,489.418 C194.747,489.007 195.117,488.192 195.117,486.973 C195.117,485.931 194.805,485.106 194.18,484.496 C193.555,483.887 192.701,483.582 191.617,483.582"/>
<path class="Note" fill="#ffffff" fill-opacity="0.0" fill-rule="evenodd" d="M245.493,502.937 L264.202,502.937 L264.202,527.74 L245.493,527.74 L245.493,502.937 "/>
<path class="Note" d="M248.114,516.479 C248.114,514.823 248.254,513.359 248.536,512.089 C248.817,510.818 249.171,509.823 249.598,509.104 C250.025,508.385 250.538,507.802 251.137,507.354 C251.736,506.906 252.312,506.607 252.864,506.456 C253.416,506.305 253.999,506.229 254.614,506.229 C258.947,506.229 261.114,509.703 261.114,516.651 C261.114,519.922 260.556,522.419 259.442,524.143 C258.327,525.867 256.718,526.729 254.614,526.729 C252.489,526.729 250.874,525.857 249.77,524.112 C248.666,522.367 248.114,519.823 248.114,516.479 M258.583,516.432 C258.583,511.089 257.257,508.417 254.606,508.417 C251.955,508.417 250.629,511.115 250.629,516.51 C250.629,521.958 251.937,524.682 254.551,524.682 C255.937,524.682 256.955,524.01 257.606,522.667 C258.257,521.323 258.583,519.245 258.583,516.432"/>
<path class="Note" fill="#ffffff" fill-opacity="0.0" fill-rule="evenodd" d="M245.493,478.134 L264.202,478.134 L264.202,502.937 L245.493,502.937 L245.493,478.134 "/>
<path class="Note" d="M260.239,481.426 L260.239,483.864 L251.973,483.864 L251.192,489.41 C252.296,488.608 253.52,488.207 254.864,488.207 C256.77,488.207 258.314,488.819 259.497,490.043 C260.679,491.267 261.27,492.858 261.27,494.817 C261.27,496.91 260.637,498.619 259.372,499.942 C258.106,501.265 256.473,501.926 254.473,501.926 C253.702,501.926 252.997,501.843 252.356,501.676 C251.715,501.509 251.184,501.309 250.762,501.075 C250.34,500.84 249.958,500.533 249.614,500.153 C249.27,499.772 249.01,499.436 248.833,499.145 C248.655,498.853 248.486,498.489 248.325,498.051 C248.163,497.614 248.064,497.311 248.028,497.145 C247.991,496.978 247.947,496.733 247.895,496.41 L250.348,496.41 C250.931,498.629 252.286,499.739 254.411,499.739 C255.754,499.739 256.814,499.33 257.59,498.512 C258.366,497.694 258.754,496.577 258.754,495.16 C258.754,493.681 258.361,492.517 257.575,491.668 C256.788,490.819 255.734,490.395 254.411,490.395 C253.65,490.395 252.999,490.53 252.458,490.801 C251.916,491.072 251.353,491.551 250.77,492.239 L248.504,492.239 L249.989,481.426 L260.239,481.426 "/>
<path class="Note" fill="#ffffff" fill-opacity="0.0" fill-rule="evenodd" d="M308.349,502.937 L327.058,502.937 L327.058,527.74 L308.349,527.74 L308.349,502.937 "/>
<path class="Note" d="M311.173,513.12 C311.298,508.526 313.48,506.229 317.72,506.229 C319.605,506.229 321.136,506.771 322.313,507.854 C323.49,508.938 324.079,510.339 324.079,512.057 C324.079,514.526 322.678,516.526 319.876,518.057 L317.079,519.557 C315.86,520.214 314.99,520.849 314.47,521.464 C313.949,522.078 313.621,522.807 313.485,523.651 L323.938,523.651 L323.938,526.089 L310.72,526.089 C310.834,523.901 311.274,522.216 312.04,521.034 C312.806,519.852 314.225,518.672 316.298,517.495 L318.86,516.042 C320.652,515.01 321.548,513.703 321.548,512.12 C321.548,511.057 321.175,510.169 320.431,509.456 C319.686,508.742 318.756,508.385 317.642,508.385 C315.152,508.385 313.813,509.964 313.626,513.12 L311.173,513.12 "/>
<path class="Note" fill="#ffffff" fill-opacity="0.0" fill-rule="evenodd" d="M308.349,453.331 L327.058,453.331 L327.058,478.134 L308.349,478.134 L308.349,453.331 "/>
<path class="Note" d="M310.97,466.873 C310.97,465.217 311.11,463.753 311.392,462.482 C311.673,461.211 312.027,460.217 312.454,459.498 C312.881,458.779 313.394,458.196 313.993,457.748 C314.592,457.3 315.168,457.001 315.72,456.849 C316.272,456.698 316.855,456.623 317.47,456.623 C321.803,456.623 323.97,460.097 323.97,467.045 C323.97,470.316 323.412,472.813 322.298,474.537 C321.183,476.261 319.574,477.123 317.47,477.123 C315.345,477.123 313.73,476.251 312.626,474.506 C311.522,472.761 310.97,470.217 310.97,466.873 M321.438,466.826 C321.438,461.482 320.113,458.81 317.462,458.81 C314.811,458.81 313.485,461.508 313.485,466.904 C313.485,472.352 314.793,475.076 317.407,475.076 C318.793,475.076 319.811,474.404 320.462,473.06 C321.113,471.717 321.438,469.639 321.438,466.826"/>
<path class="Note" fill="#ffffff" fill-opacity="0.0" fill-rule="evenodd" d="M371.205,502.937 L389.914,502.937 L389.914,527.74 L371.205,527.74 L371.205,502.937 "/>
<path class="Note" d="M381.779,521.323 L373.404,521.323 L373.404,518.729 L382.419,506.229 L384.247,506.229 L384.247,519.12 L387.185,519.12 L387.185,521.323 L384.247,521.323 L384.247,526.089 L381.779,526.089 L381.779,521.323 M381.779,519.12 L381.779,510.432 L375.56,519.12 L381.779,519.12 "/>
<path class="Note" fill="#ffffff" fill-opacity="0.0" fill-rule="evenodd" d="M371.205,453.331 L389.914,453.331 L389.914,478.134 L371.205,478.134 L371.205,453.331 "/>
<path class="Note" d="M374.029,463.514 C374.154,458.92 376.336,456.623 380.576,456.623 C382.461,456.623 383.992,457.165 385.169,458.248 C386.346,459.331 386.935,460.732 386.935,462.451 C386.935,464.92 385.534,466.92 382.732,468.451 L379.935,469.951 C378.716,470.607 377.846,471.243 377.326,471.857 C376.805,472.472 376.477,473.201 376.341,474.045 L386.794,474.045 L386.794,476.482 L373.576,476.482 C373.69,474.295 374.13,472.61 374.896,471.428 C375.661,470.245 377.081,469.066 379.154,467.889 L381.716,466.435 C383.508,465.404 384.404,464.097 384.404,462.514 C384.404,461.451 384.031,460.563 383.286,459.849 C382.542,459.136 381.612,458.779 380.497,458.779 C378.008,458.779 376.669,460.357 376.482,463.514 L374.029,463.514 "/>
<path class="Note" fill="#ffffff" fill-opacity="0.0" fill-rule="evenodd" d="M434.061,502.937 L452.77,502.937 L452.77,527.74 L434.061,527.74 L434.061,502.937 "/>
<path class="Note" d="M448.806,506.229 L448.806,508.667 L440.541,508.667 L439.76,514.214 C440.864,513.412 442.088,513.01 443.431,513.01 C445.338,513.01 446.882,513.622 448.064,514.846 C449.247,516.07 449.838,517.662 449.838,519.62 C449.838,521.714 449.205,523.422 447.939,524.745 C446.674,526.068 445.041,526.729 443.041,526.729 C442.27,526.729 441.564,526.646 440.924,526.479 C440.283,526.313 439.752,526.112 439.33,525.878 C438.908,525.643 438.525,525.336 438.181,524.956 C437.838,524.576 437.577,524.24 437.4,523.948 C437.223,523.656 437.054,523.292 436.892,522.854 C436.731,522.417 436.632,522.115 436.596,521.948 C436.559,521.781 436.515,521.537 436.463,521.214 L438.916,521.214 C439.499,523.432 440.853,524.542 442.978,524.542 C444.322,524.542 445.382,524.133 446.158,523.315 C446.934,522.497 447.322,521.38 447.322,519.964 C447.322,518.484 446.929,517.32 446.142,516.471 C445.356,515.622 444.301,515.198 442.978,515.198 C442.218,515.198 441.567,515.333 441.025,515.604 C440.484,515.875 439.921,516.354 439.338,517.042 L437.072,517.042 L438.556,506.229 L448.806,506.229 "/>
<path class="Note" fill="#ffffff" fill-opacity="0.0" fill-rule="evenodd" d="M434.061,453.331 L452.77,453.331 L452.77,478.134 L434.061,478.134 L434.061,453.331 "/>
<path class="Note" d="M443.041,458.779 C441.624,458.779 440.65,459.167 440.119,459.943 C439.588,460.719 439.301,461.753 439.26,463.045 L436.791,463.045 C436.885,458.764 438.957,456.623 443.01,456.623 C444.895,456.623 446.374,457.11 447.447,458.084 C448.52,459.058 449.056,460.394 449.056,462.092 C449.056,464.102 448.135,465.472 446.291,466.201 C447.478,466.618 448.335,467.193 448.861,467.928 C449.387,468.662 449.65,469.665 449.65,470.935 C449.65,472.821 449.038,474.323 447.814,475.443 C446.59,476.563 444.963,477.123 442.931,477.123 C438.859,477.123 436.671,474.987 436.369,470.717 L438.838,470.717 C438.931,472.154 439.314,473.217 439.986,473.904 C440.658,474.592 441.666,474.935 443.01,474.935 C444.301,474.935 445.309,474.586 446.033,473.889 C446.757,473.191 447.119,472.217 447.119,470.967 C447.119,468.56 445.749,467.357 443.01,467.357 L441.978,467.389 L441.666,467.389 L441.666,465.279 C443.437,465.248 444.692,465.027 445.431,464.615 C446.171,464.204 446.541,463.389 446.541,462.17 C446.541,461.128 446.228,460.303 445.603,459.693 C444.978,459.084 444.124,458.779 443.041,458.779"/>
<path class="Note" fill="#ffffff" fill-opacity="0.0" fill-rule="evenodd" d="M496.917,478.134 L515.626,478.134 L515.626,502.937 L496.917,502.937 L496.917,478.134 "/>
<path class="Note" d="M499.537,491.676 C499.537,490.02 499.678,488.556 499.959,487.285 C500.24,486.015 500.595,485.02 501.022,484.301 C501.449,483.582 501.962,482.999 502.561,482.551 C503.16,482.103 503.735,481.804 504.287,481.653 C504.839,481.502 505.423,481.426 506.037,481.426 C510.371,481.426 512.537,484.9 512.537,491.848 C512.537,495.119 511.98,497.616 510.865,499.34 C509.751,501.064 508.142,501.926 506.037,501.926 C503.912,501.926 502.298,501.054 501.194,499.309 C500.089,497.564 499.537,495.02 499.537,491.676 M510.006,491.629 C510.006,486.285 508.681,483.614 506.03,483.614 C503.379,483.614 502.053,486.311 502.053,491.707 C502.053,497.155 503.36,499.879 505.975,499.879 C507.36,499.879 508.379,499.207 509.03,497.864 C509.681,496.52 510.006,494.442 510.006,491.629"/>
<path class="Note" fill="#ffffff" fill-opacity="0.0" fill-rule="evenodd" d="M496.917,453.331 L515.626,453.331 L515.626,478.134 L496.917,478.134 L496.917,453.331 "/>
<path class="Note" d="M511.662,456.623 L511.662,459.06 L503.397,459.06 L502.615,464.607 C503.72,463.805 504.944,463.404 506.287,463.404 C508.194,463.404 509.738,464.016 510.92,465.24 C512.102,466.464 512.694,468.055 512.694,470.014 C512.694,472.107 512.061,473.816 510.795,475.139 C509.53,476.461 507.897,477.123 505.897,477.123 C505.126,477.123 504.42,477.04 503.78,476.873 C503.139,476.706 502.608,476.506 502.186,476.271 C501.764,476.037 501.381,475.73 501.037,475.349 C500.694,474.969 500.433,474.633 500.256,474.342 C500.079,474.05 499.91,473.685 499.748,473.248 C499.587,472.81 499.488,472.508 499.451,472.342 C499.415,472.175 499.371,471.93 499.319,471.607 L501.772,471.607 C502.355,473.826 503.709,474.935 505.834,474.935 C507.178,474.935 508.238,474.527 509.014,473.709 C509.79,472.891 510.178,471.774 510.178,470.357 C510.178,468.878 509.785,467.714 508.998,466.865 C508.212,466.016 507.157,465.592 505.834,465.592 C505.074,465.592 504.423,465.727 503.881,465.998 C503.339,466.269 502.777,466.748 502.194,467.435 L499.928,467.435 L501.412,456.623 L511.662,456.623 "/>
<path class="Note" fill="#ffffff" fill-opacity="0.0" fill-rule="evenodd" d="M559.773,478.134 L578.481,478.134 L578.481,502.937 L559.773,502.937 L559.773,478.134 "/>
<path class="Note" d="M568.44,487.145 L564.05,487.145 L564.05,485.379 C565.956,485.14 567.198,484.804 567.776,484.371 C568.354,483.939 568.857,482.957 569.284,481.426 L570.909,481.426 L570.909,501.285 L568.44,501.285 L568.44,487.145 "/>
<path class="Note" fill="#ffffff" fill-opacity="0.0" fill-rule="evenodd" d="M559.773,453.331 L578.481,453.331 L578.481,478.134 L559.773,478.134 L559.773,453.331 "/>
<path class="Note" d="M562.393,467.435 C562.393,465.685 562.552,464.141 562.87,462.803 C563.188,461.464 563.583,460.415 564.057,459.654 C564.531,458.894 565.102,458.274 565.768,457.795 C566.435,457.316 567.063,457.001 567.651,456.849 C568.24,456.698 568.857,456.623 569.503,456.623 C571.013,456.623 572.268,457.081 573.268,457.998 C574.268,458.915 574.888,460.185 575.128,461.81 L572.675,461.81 C572.466,460.862 572.073,460.126 571.495,459.599 C570.917,459.073 570.195,458.81 569.331,458.81 C567.914,458.81 566.828,459.459 566.073,460.756 C565.318,462.053 564.93,463.915 564.909,466.342 C565.992,464.873 567.513,464.139 569.471,464.139 C571.253,464.139 572.711,464.727 573.846,465.904 C574.982,467.081 575.55,468.592 575.55,470.435 C575.55,472.373 574.94,473.972 573.721,475.232 C572.503,476.493 570.951,477.123 569.065,477.123 C564.617,477.123 562.393,473.894 562.393,467.435 M569.175,466.326 C567.956,466.326 566.964,466.711 566.198,467.482 C565.432,468.253 565.05,469.258 565.05,470.498 C565.05,471.758 565.432,472.813 566.198,473.662 C566.964,474.511 567.925,474.935 569.081,474.935 C570.227,474.935 571.172,474.532 571.917,473.724 C572.661,472.917 573.034,471.883 573.034,470.623 C573.034,469.3 572.688,468.253 571.995,467.482 C571.302,466.711 570.362,466.326 569.175,466.326"/>
<path class="Note" transform="matrix(0.566929,0,0,0.566929,118.506,373.606)" d="M21.9688,-13.7656 C25.0938,-13.7656 27.7344,-12.9531 29.8906,-11.3281 C31.901,-9.56771 32.9063,-7.35417 32.9063,-4.6875 C32.9063,-0.197917 30.599,4 25.9844,7.90625 C21.2969,11.8125 16.2813,13.7656 10.9375,13.7656 C7.8125,13.7656 5.17708,12.9531 3.03125,11.3281 C1.01042,9.56771 0,7.35417 0,4.6875 C0,0.197917 2.34375,-4 7.03125,-7.90625 C11.5938,-11.8125 16.5729,-13.7656 21.9688,-13.7656"/>
<path class="Note" transform="matrix(0.566929,0,0,0.566929,181.362,366.52)" d="M21.9688,-13.7656 C25.0938,-13.7656 27.7344,-12.9531 29.8906,-11.3281 C31.901,-9.56771 32.9063,-7.35417 32.9063,-4.6875 C32.9063,-0.197917 30.599,4 25.9844,7.90625 C21.2969,11.8125 16.2813,13.7656 10.9375,13.7656 C7.8125,13.7656 5.17708,12.9531 3.03125,11.3281 C1.01042,9.56771 0,7.35417 0,4.6875 C0,0.197917 2.34375,-4 7.03125,-7.90625 C11.5938,-11.8125 16.5729,-13.7656 21.9688,-13.7656"/>
<path class="Note" transform="matrix(0.566929,0,0,0.566929,244.218,359.433)" d="M21.9688,-13.7656 C25.0938,-13.7656 27.7344,-12.9531 29.8906,-11.3281 C31.901,-9.56771 32.9063,-7.35417 32.9063,-4.6875 C32.9063,-0.197917 30.599,4 25.9844,7.90625 C21.2969,11.8125 16.2813,13.7656 10.9375,13.7656 C7.8125,13.7656 5.17708,12.9531 3.03125,11.3281 C1.01042,9.56771 0,7.35417 0,4.6875 C0,0.197917 2.34375,-4 7.03125,-7.90625 C11.5938,-11.8125 16.5729,-13.7656 21.9688,-13.7656"/>
<path class="Note" transform="matrix(0.566929,0,0,0.566929,307.074,352.346)" d="M21.9688,-13.7656 C25.0938,-13.7656 27.7344,-12.9531 29.8906,-11.3281 C31.901,-9.56771 32.9063,-7.35417 32.9063,-4.6875 C32.9063,-0.197917 30.599,4 25.9844,7.90625 C21.2969,11.8125 16.2813,13.7656 10.9375,13.7656 C7.8125,13.7656 5.17708,12.9531 3.03125,11.3281 C1.01042,9.56771 0,7.35417 0,4.6875 C0,0.197917 2.34375,-4 7.03125,-7.90625 C11.5938,-11.8125 16.5729,-13.7656 21.9688,-13.7656"/>
<path class="Note" transform="matrix(0.566929,0,0,0.566929,369.93,345.26)" d="M21.9688,-13.7656 C25.0938,-13.7656 27.7344,-12.9531 29.8906,-11.3281 C31.901,-9.56771 32.9063,-7.35417 32.9063,-4.6875 C32.9063,-0.197917 30.599,4 25.9844,7.90625 C21.2969,11.8125 16.2813,13.7656 10.9375,13.7656 C7.8125,13.7656 5.17708,12.9531 3.03125,11.3281 C1.01042,9.56771 0,7.35417 0,4.6875 C0,0.197917 2.34375,-4 7.03125,-7.90625 C11.5938,-11.8125 16.5729,-13.7656 21.9688,-13.7656"/>
<path class="Note" transform="matrix(0.566929,0,0,0.566929,432.785,338.173)" d="M21.9688,-13.7656 C25.0938,-13.7656 27.7344,-12.9531 29.8906,-11.3281 C31.901,-9.56771 32.9063,-7.35417 32.9063,-4.6875 C32.9063,-0.197917 30.599,4 25.9844,7.90625 C21.2969,11.8125 16.2813,13.7656 10.9375,13.7656 C7.8125,13.7656 5.17708,12.9531 3.03125,11.3281 C1.01042,9.56771 0,7.35417 0,4.6875 C0,0.197917 2.34375,-4 7.03125,-7.90625 C11.5938,-11.8125 16.5729,-13.7656 21.9688,-13.7656"/>
<path class="Note" transform="matrix(0.566929,0,0,0.566929,495.641,331.087)" d="M21.9688,-13.7656 C25.0938,-13.7656 27.7344,-12.9531 29.8906,-11.3281 C31.901,-9.56771 32.9063,-7.35417 32.9063,-4.6875 C32.9063,-0.197917 30.599,4 25.9844,7.90625 C21.2969,11.8125 16.2813,13.7656 10.9375,13.7656 C7.8125,13.7656 5.17708,12.9531 3.03125,11.3281 C1.01042,9.56771 0,7.35417 0,4.6875 C0,0.197917 2.34375,-4 7.03125,-7.90625 C11.5938,-11.8125 16.5729,-13.7656 21.9688,-13.7656"/>
<path class="Note" transform="matrix(0.566929,0,0,0.566929,558.497,324)" d="M21.9688,-13.7656 C25.0938,-13.7656 27.7344,-12.9531 29.8906,-11.3281 C31.901,-9.56771 32.9063,-7.35417 32.9063,-4.6875 C32.9063,-0.197917 30.599,4 25.9844,7.90625 C21.2969,11.8125 16.2813,13.7656 10.9375,13.7656 C7.8125,13.7656 5.17708,12.9531 3.03125,11.3281 C1.01042,9.56771 0,7.35417 0,4.6875 C0,0.197917 2.34375,-4 7.03125,-7.90625 C11.5938,-11.8125 16.5729,-13.7656 21.9688,-13.7656"/>
<path class="Note" transform="matrix(0.566929,0,0,0.566929,118.506,231.874)" d="M21.9688,-13.7656 C25.0938,-13.7656 27.7344,-12.9531 29.8906,-11.3281 C31.901,-9.56771 32.9063,-7.35417 32.9063,-4.6875 C32.9063,-0.197917 30.599,4 25.9844,7.90625 C21.2969,11.8125 16.2813,13.7656 10.9375,13.7656 C7.8125,13.7656 5.17708,12.9531 3.03125,11.3281 C1.01042,9.56771 0,7.35417 0,4.6875 C0,0.197917 2.34375,-4 7.03125,-7.90625 C11.5938,-11.8125 16.5729,-13.7656 21.9688,-13.7656"/>
<path class="Note" transform="matrix(0.566929,0,0,0.566929,181.362,224.787)" d="M21.9688,-13.7656 C25.0938,-13.7656 27.7344,-12.9531 29.8906,-11.3281 C31.901,-9.56771 32.9063,-7.35417 32.9063,-4.6875 C32.9063,-0.197917 30.599,4 25.9844,7.90625 C21.2969,11.8125 16.2813,13.7656 10.9375,13.7656 C7.8125,13.7656 5.17708,12.9531 3.03125,11.3281 C1.01042,9.56771 0,7.35417 0,4.6875 C0,0.197917 2.34375,-4 7.03125,-7.90625 C11.5938,-11.8125 16.5729,-13.7656 21.9688,-13.7656"/>
<path class="Note" transform="matrix(0.566929,0,0,0.566929,244.218,217.701)" d="M21.9688,-13.7656 C25.0938,-13.7656 27.7344,-12.9531 29.8906,-11.3281 C31.901,-9.56771 32.9063,-7.35417 32.9063,-4.6875 C32.9063,-0.197917 30.599,4 25.9844,7.90625 C21.2969,11.8125 16.2813,13.7656 10.9375,13.7656 C7.8125,13.7656 5.17708,12.9531 3.03125,11.3281 C1.01042,9.56771 0,7.35417 0,4.6875 C0,0.197917 2.34375,-4 7.03125,-7.90625 C11.5938,-11.8125 16.5729,-13.7656 21.9688,-13.7656"/>
<path class="Note" transform="matrix(0.566929,0,0,0.566929,307.074,210.614)" d="M21.9688,-13.7656 C25.0938,-13.7656 27.7344,-12.9531 29.8906,-11.3281 C31.901,-9.56771 32.9063,-7.35417 32.9063,-4.6875 C32.9063,-0.197917 30.599,4 25.9844,7.90625 C21.2969,11.8125 16.2813,13.7656 10.9375,13.7656 C7.8125,13.7656 5.17708,12.9531 3.03125,11.3281 C1.01042,9.56771 0,7.35417 0,4.6875 C0,0.197917 2.34375,-4 7.03125,-7.90625 C11.5938,-11.8125 16.5729,-13.7656 21.9688,-13.7656"/>
<path class="Note" transform="matrix(0.566929,0,0,0.566929,369.93,203.528)" d="M21.9688,-13.7656 C25.0938,-13.7656 27.7344,-12.9531 29.8906,-11.3281 C31.901,-9.56771 32.9063,-7.35417 32.9063,-4.6875 C32.9063,-0.197917 30.599,4 25.9844,7.90625 C21.2969,11.8125 16.2813,13.7656 10.9375,13.7656 C7.8125,13.7656 5.17708,12.9531 3.03125,11.3281 C1.01042,9.56771 0,7.35417 0,4.6875 C0,0.197917 2.34375,-4 7.03125,-7.90625 C11.5938,-11.8125 16.5729,-13.7656 21.9688,-13.7656"/>
<path class="Note" transform="matrix(0.566929,0,0,0.566929,432.785,196.441)" d="M21.9688,-13.7656 C25.0938,-13.7656 27.7344,-12.9531 29.8906,-11.3281 C31.901,-9.56771 32.9063,-7.35417 32.9063,-4.6875 C32.9063,-0.197917 30.599,4 25.9844,7.90625 C21.2969,11.8125 16.2813,13.7656 10.9375,13.7656 C7.8125,13.7656 5.17708,12.9531 3.03125,11.3281 C1.01042,9.56771 0,7.35417 0,4.6875 C0,0.197917 2.34375,-4 7.03125,-7.90625 C11.5938,-11.8125 16.5729,-13.7656 21.9688,-13.7656"/>
<path class="Note" transform="matrix(0.566929,0,0,0.566929,495.641,189.354)" d="M21.9688,-13.7656 C25.0938,-13.7656 27.7344,-12.9531 29.8906,-11.3281 C31.901,-9.56771 32.9063,-7.35417 32.9063,-4.6875 C32.9063,-0.197917 30.599,4 25.9844,7.90625 C21.2969,11.8125 16.2813,13.7656 10.9375,13.7656 C7.8125,13.7656 5.17708,12.9531 3.03125,11.3281 C1.01042,9.56771 0,7.35417 0,4.6875 C0,0.197917 2.34375,-4 7.03125,-7.90625 C11.5938,-11.8125 16.5729,-13.7656 21.9688,-13.7656"/>
<path class="Note" transform="matrix(0.566929,0,0,0.566929,558.497,182.268)" d="M21.9688,-13.7656 C25.0938,-13.7656 27.7344,-12.9531 29.8906,-11.3281 C31.901,-9.56771 32.9063,-7.35417 32.9063,-4.6875 C32.9063,-0.197917 30.599,4 25.9844,7.90625 C21.2969,11.8125 16.2813,13.7656 10.9375,13.7656 C7.8125,13.7656 5.17708,12.9531 3.03125,11.3281 C1.01042,9.56771 0,7.35417 0,4.6875 C0,0.197917 2.34375,-4 7.03125,-7.90625 C11.5938,-11.8125 16.5729,-13.7656 21.9688,-13.7656"/>
<path class="Note" transform="matrix(0.566929,0,0,0.566929,118.506,90.1417)" d="M21.9688,-13.7656 C25.0938,-13.7656 27.7344,-12.9531 29.8906,-11.3281 C31.901,-9.56771 32.9063,-7.35417 32.9063,-4.6875 C32.9063,-0.197917 30.599,4 25.9844,7.90625 C21.2969,11.8125 16.2813,13.7656 10.9375,13.7656 C7.8125,13.7656 5.17708,12.9531 3.03125,11.3281 C1.01042,9.56771 0,7.35417 0,4.6875 C0,0.197917 2.34375,-4 7.03125,-7.90625 C11.5938,-11.8125 16.5729,-13.7656 21.9688,-13.7656"/>
<path class="Note" transform="matrix(0.566929,0,0,0.566929,181.362,83.0551)" d="M21.9688,-13.7656 C25.0938,-13.7656 27.7344,-12.9531 29.8906,-11.3281 C31.901,-9.56771 32.9063,-7.35417 32.9063,-4.6875 C32.9063,-0.197917 30.599,4 25.9844,7.90625 C21.2969,11.8125 16.2813,13.7656 10.9375,13.7656 C7.8125,13.7656 5.17708,12.9531 3.03125,11.3281 C1.01042,9.56771 0,7.35417 0,4.6875 C0,0.197917 2.34375,-4 7.03125,-7.90625 C11.5938,-11.8125 16.5729,-13.7656 21.9688,-13.7656"/>
<path class="Note" transform="matrix(0.566929,0,0,0.566929,244.218,75.9685)" d="M21.9688,-13.7656 C25.0938,-13.7656 27.7344,-12.9531 29.8906,-11.3281 C31.901,-9.56771 32.9063,-7.35417 32.9063,-4.6875 C32.9063,-0.197917 30.599,4 25.9844,7.90625 C21.2969,11.8125 16.2813,13.7656 10.9375,13.7656 C7.8125,13.7656 5.17708,12.9531 3.03125,11.3281 C1.01042,9.56771 0,7.35417 0,4.6875 C0,0.197917 2.34375,-4 7.03125,-7.90625 C11.5938,-11.8125 16.5729,-13.7656 21.9688,-13.7656"/>
<path class="Note" transform="matrix(0.566929,0,0,0.566929,307.074,68.8819)" d="M21.9688,-13.7656 C25.0938,-13.7656 27.7344,-12.9531 29.8906,-11.3281 C31.901,-9.56771 32.9063,-7.35417 32.9063,-4.6875 C32.9063,-0.197917 30.599,4 25.9844,7.90625 C21.2969,11.8125 16.2813,13.7656 10.9375,13.7656 C7.8125,13.7656 5.17708,12.9531 3.03125,11.3281 C1.01042,9.56771 0,7.35417 0,4.6875 C0,0.197917 2.34375,-4 7.03125,-7.90625 C11.5938,-11.8125 16.5729,-13.7656 21.9688,-13.7656"/>
<path class="Note" transform="matrix(0.566929,0,0,0.566929,369.93,61.7953)" d="M21.9688,-13.7656 C25.0938,-13.7656 27.7344,-12.9531 29.8906,-11.3281 C31.901,-9.56771 32.9063,-7.35417 32.9063,-4.6875 C32.9063,-0.197917 30.599,4 25.9844,7.90625 C21.2969,11.8125 16.2813,13.7656 10.9375,13.7656 C7.8125,13.7656 5.17708,12.9531 3.03125,11.3281 C1.01042,9.56771 0,7.35417 0,4.6875 C0,0.197917 2.34375,-4 7.03125,-7.90625 C11.5938,-11.8125 16.5729,-13.7656 21.9688,-13.7656"/>
<path class="Note" transform="matrix(0.566929,0,0,0.566929,432.785,54.7087)" d="M21.9688,-13.7656 C25.0938,-13.7656 27.7344,-12.9531 29.8906,-11.3281 C31.901,-9.56771 32.9063,-7.35417 32.9063,-4.6875 C32.9063,-0.197917 30.599,4 25.9844,7.90625 C21.2969,11.8125 16.2813,13.7656 10.9375,13.7656 C7.8125,13.7656 5.17708,12.9531 3.03125,11.3281 C1.01042,9.56771 0,7.35417 0,4.6875 C0,0.197917 2.34375,-4 7.03125,-7.90625 C11.5938,-11.8125 16.5729,-13.7656 21.9688,-13.7656"/>
<path class="Note" transform="matrix(0.566929,0,0,0.566929,495.641,47.6221)" d="M21.9688,-13.7656 C25.0938,-13.7656 27.7344,-12.9531 29.8906,-11.3281 C31.901,-9.56771 32.9063,-7.35417 32.9063,-4.6875 C32.9063,-0.197917 30.599,4 25.9844,7.90625 C21.2969,11.8125 16.2813,13.7656 10.9375,13.7656 C7.8125,13.7656 5.17708,12.9531 3.03125,11.3281 C1.01042,9.56771 0,7.35417 0,4.6875 C0,0.197917 2.34375,-4 7.03125,-7.90625 C11.5938,-11.8125 16.5729,-13.7656 21.9688,-13.7656"/>
<path class="Note" transform="matrix(0.566929,0,0,0.566929,558.497,40.5354)" d="M21.9688,-13.7656 C25.0938,-13.7656 27.7344,-12.9531 29.8906,-11.3281 C31.901,-9.56771 32.9063,-7.35417 32.9063,-4.6875 C32.9063,-0.197917 30.599,4 25.9844,7.90625 C21.2969,11.8125 16.2813,13.7656 10.9375,13.7656 C7.8125,13.7656 5.17708,12.9531 3.03125,11.3281 C1.01042,9.56771 0,7.35417 0,4.6875 C0,0.197917 2.34375,-4 7.03125,-7.90625 C11.5938,-11.8125 16.5729,-13.7656 21.9688,-13.7656"/>
<path class="Clef" transform="matrix(0.566929,0,0,0.566929,28.5015,680.102)" d="M26.6563,42.4844 C26.6563,44.3073 25.224,45.2188 22.3594,45.2188 C20.0885,45.2188 18.1042,44.5365 16.4063,43.1719 C14.7813,41.7344 13.9688,39.9115 13.9688,37.7031 C13.9688,33.7969 16.3438,30.6719 21.0938,28.3281 C25.7188,25.9115 31.1563,24.7031 37.4063,24.7031 C39.8125,24.7031 42.3854,24.8698 45.125,25.2031 C47.1354,25.4635 49.3802,25.9844 51.8594,26.7656 C54.0677,27.474 55.7917,28.5443 57.0313,29.9766 C58.2708,31.4089 58.8906,33.0729 58.8906,34.9688 C58.8906,39.4583 56.5781,43.1354 51.9531,46 C58.724,47.2396 62.1406,50.2656 62.2031,55.0781 C62.2031,59.1198 60.3802,62.7682 56.7344,66.0234 C53.0885,69.2786 48.9583,70.9063 44.3438,70.9063 C42.3854,70.9063 40.3958,70.4479 38.375,69.5313 C36.4896,68.625 35.1563,67.7813 34.375,67 C33.5938,66.0833 33.2031,65.3958 33.2031,64.9375 C33.2031,64.2917 33.5313,63.7396 34.1875,63.2813 C34.7708,62.6979 35.3854,62.4063 36.0313,62.4063 C36.2917,62.4063 36.8464,62.8281 37.6953,63.6719 C38.5443,64.5156 39.7813,64.9375 41.4063,64.9375 C43.625,64.9375 45.776,63.9948 47.8594,62.1094 C49.8698,60.2865 50.875,58.1042 50.875,55.5625 C50.875,53.3542 49.9323,51.7604 48.0469,50.7813 C46.1615,49.8021 43.7552,49.3125 40.8281,49.3125 C40.3073,49.3125 40.0469,48.7604 40.0469,47.6563 C40.0469,46.0938 40.6302,45.3125 41.7969,45.3125 C43.6198,45.3125 45.25,44.5313 46.6875,42.9688 C48.0521,41.2813 48.7344,39.4896 48.7344,37.5938 C48.7344,37.0104 48.5729,36.1354 48.25,34.9688 C47.9896,34.1875 47.2083,33.2396 45.9063,32.125 C44.6667,31.0833 42.9375,30.3698 40.7188,29.9844 C40.1354,33.1719 39.4036,37.2396 38.5234,42.1875 C37.6432,47.1354 37.0417,50.3906 36.7188,51.9531 C35.6146,57.5573 33.599,62.276 30.6719,66.1094 C27.6094,70.151 24.3177,72.1719 20.7969,72.1719 C19.6927,72.1719 18.5573,71.9115 17.3906,71.3906 C16.474,70.9948 15.3021,70.1823 13.875,68.9531 C12.5729,67.9115 11.6927,67.224 11.2344,66.8906 C10.974,66.7031 10.8438,66.4115 10.8438,66.0156 C10.8438,65.3698 11.0729,64.7865 11.5313,64.2656 C12.0521,63.6719 12.6042,63.375 13.1875,63.375 C13.5729,63.375 14.4818,63.9948 15.9141,65.2344 C17.3464,66.474 18.8438,67.0938 20.4063,67.0938 C23.4063,67.0938 25.6563,65.1719 27.1563,61.3281 C28.5833,57.6198 29.2969,53.0313 29.2969,47.5625 L29.2969,46.7813 C29.2969,43.1354 29.8854,37.6979 31.0625,30.4688 C28.9792,31.125 27.3177,32.1042 26.0781,33.4063 C24.776,34.7083 24.125,36.0729 24.125,37.5 C24.125,38.6042 24.5469,39.5469 25.3906,40.3281 C26.2344,41.1094 26.6563,41.8281 26.6563,42.4844 M7.03125,11.9219 C7.35417,11.9219 8.13542,12.2448 9.375,12.8906 C10.6771,13.5469 11.7865,13.875 12.7031,13.875 C15.1719,13.875 18.1979,12.0833 21.7813,8.5 C32.1354,-2.05208 39.2656,-13.25 43.1719,-25.0938 C43.9531,-27.5729 45.8698,-28.8125 48.9219,-28.8125 C50.4844,-28.8125 51.8229,-28.4844 52.9375,-27.8281 C54.0417,-27.1198 54.5938,-26.4063 54.5938,-25.6875 L52.8281,10.8438 C52.8281,12.7917 53.5156,13.7656 54.8906,13.7656 C55.599,13.7656 56.6406,13.4427 58.0156,12.7969 C59.3177,12.1406 60.099,11.8125 60.3594,11.8125 C60.8802,11.8125 61.2031,12.3698 61.3281,13.4844 C61.3281,14.526 60.9063,15.1771 60.0625,15.4375 C59.4063,15.625 58.1042,16.2396 56.1563,17.2813 C54.1354,18.3229 52.5417,18.8438 51.375,18.8438 C48.8958,18.8438 47.1354,16.8906 46.0938,12.9844 C44.4688,6.86979 43.4271,0.520833 42.9688,-6.0625 C40.3646,-2.73958 37.4688,0.614583 34.2813,4 C35.4479,6.21875 37.5938,7.32813 40.7188,7.32813 C41.1771,7.32813 41.5365,7.29688 41.7969,7.23438 L41.8906,7.23438 C42.4115,7.23438 42.6719,7.71875 42.6719,8.6875 C42.6719,9.92708 42.25,10.6771 41.4063,10.9375 C40.0417,11.3958 38.6094,11.625 37.1094,11.625 C33.8594,11.625 31.5156,10.5156 30.0781,8.29688 L26.1719,11.8125 C20.7031,16.5 16.2448,18.8438 12.7969,18.8438 C11.8802,18.8438 10.9375,18.6823 9.96875,18.3594 C9.1875,18.0365 8.27604,17.5469 7.23438,16.8906 C6.83854,16.7031 6.39583,16.4609 5.90625,16.1641 C5.41667,15.8672 5.10938,15.6875 4.98438,15.625 C4.66146,15.5 4.5,15.2083 4.5,14.75 C4.5,14.2292 4.76042,13.6094 5.28125,12.8906 C5.72917,12.2448 6.3125,11.9219 7.03125,11.9219 M28.8125,-54 C28.8125,-52.375 27.4115,-51.5625 24.6094,-51.5625 C22.1406,-51.5625 19.9948,-52.375 18.1719,-54 C16.4115,-55.6354 15.5313,-57.625 15.5313,-59.9688 C15.5313,-62.2396 16.2448,-64.1927 17.6719,-65.8281 C19.1719,-67.5156 21.0938,-68.7813 23.4375,-69.625 C25.5833,-70.4063 27.9948,-71.026 30.6719,-71.4844 C33.4635,-71.8073 36.1302,-71.9688 38.6719,-71.9688 C40.1719,-71.9688 42.974,-71.2865 47.0781,-69.9219 C51.2448,-68.5573 54.1406,-67.875 55.7656,-67.875 C57.7865,-67.875 59.7083,-68.2344 61.5313,-68.9531 C63.0208,-69.599 64.4531,-70.3438 65.8281,-71.1875 C66.9323,-71.9063 67.5469,-72.2656 67.6719,-72.2656 C68.2656,-72.2656 68.7865,-72.0729 69.2344,-71.6875 C69.7552,-71.1667 70.0156,-70.7396 70.0156,-70.4063 C70.0156,-69.9583 69.401,-69.2135 68.1719,-68.1719 C66.8698,-66.9948 65.013,-65.8203 62.6016,-64.6484 C60.1901,-63.4766 57.651,-62.8906 54.9844,-62.8906 C53.8073,-62.8906 52.3438,-63.0885 50.5938,-63.4844 C49.4792,-56.2552 48.3073,-49.8385 47.0781,-44.2344 C46.0365,-39.2865 43.9531,-34.9583 40.8281,-31.25 C37.8281,-27.5417 34.474,-25.6875 30.7656,-25.6875 C29.2656,-25.6875 27.9323,-25.9792 26.7656,-26.5625 C25.4635,-27.2188 24.0938,-28.1979 22.6563,-29.5 C21.4896,-30.4688 20.3854,-31.3438 19.3438,-32.125 C19.0833,-32.3229 18.9531,-32.6198 18.9531,-33.0156 C18.9531,-33.4635 19.2135,-34.0469 19.7344,-34.7656 C20.2552,-35.349 20.7396,-35.6406 21.1875,-35.6406 C21.5833,-35.6406 22.6927,-34.8281 24.5156,-33.2031 C26.3385,-31.5781 27.9635,-30.7656 29.3906,-30.7656 C31.9948,-30.7656 34.0156,-32.2604 35.4531,-35.25 C36.8802,-38.1875 37.6927,-41.7031 37.8906,-45.7969 C38.2135,-52.5052 38.9635,-59.4427 40.1406,-66.6094 C38.7031,-66.9323 37.6302,-67.0938 36.9219,-67.0938 C33.7969,-67.0938 31.125,-66.4427 28.9063,-65.1406 C26.6979,-63.901 25.5938,-62.2083 25.5938,-60.0625 C25.5938,-58.5 26.1146,-57.2969 27.1563,-56.4531 C28.2604,-55.5365 28.8125,-54.7188 28.8125,-54"/>
<path class="Clef" transform="matrix(0.566929,0,0,0.566929,28.5015,502.937)" d="M21.2969,33.9844 C21.2969,35.4219 20.1875,36.1406 17.9688,36.1406 C16.1458,36.1406 14.5833,35.5833 13.2813,34.4688 C11.9167,33.3646 11.2344,31.9323 11.2344,30.1719 C11.2344,26.9844 13.0885,24.4792 16.7969,22.6563 C20.7031,20.7708 25.0677,19.8281 29.8906,19.8281 C34.5052,19.8281 38.6042,20.4479 42.1875,21.6875 C45.5104,23.0521 47.1719,25.1667 47.1719,28.0313 C47.1719,31.5417 45.3177,34.4688 41.6094,36.8125 C47.0781,37.9271 49.8125,40.3698 49.8125,44.1406 C49.8125,47.2656 48.3438,50.1615 45.4063,52.8281 C42.5417,55.4323 39.1927,56.7344 35.3594,56.7344 C33.7969,56.7344 32.2344,56.3802 30.6719,55.6719 C29.2344,55.0156 28.1927,54.2969 27.5469,53.5156 C26.8906,52.9323 26.5625,52.3802 26.5625,51.8594 C26.5625,51.3385 26.8229,50.9167 27.3438,50.5938 C27.8021,50.1354 28.2917,49.9063 28.8125,49.9063 C29.0729,49.9063 29.5599,50.2318 30.2734,50.8828 C30.987,51.5339 31.9635,51.8594 33.2031,51.8594 C35.0885,51.8594 36.849,51.1406 38.4844,49.7031 C40.0469,48.2135 40.8281,46.4896 40.8281,44.5313 C40.8281,42.8438 40.0469,41.5417 38.4844,40.625 C36.9844,39.7813 35.0625,39.3594 32.7188,39.3594 C32.2604,39.3594 32.0313,38.9688 32.0313,38.1875 C32.0313,36.8854 32.5208,36.2344 33.5,36.2344 C34.9271,36.2344 36.1979,35.6146 37.3125,34.375 C38.4167,32.9479 38.9688,31.4844 38.9688,29.9844 C38.9688,26.7969 36.8542,24.8125 32.625,24.0313 L29.3906,41.6094 C28.5469,45.9635 26.9531,49.7396 24.6094,52.9375 C22.2031,56.125 19.5677,57.7188 16.7031,57.7188 C15.724,57.7188 14.8125,57.5208 13.9688,57.125 C13.1875,56.8021 12.2083,56.151 11.0313,55.1719 C9.72917,54.1302 9.04688,53.5781 8.98438,53.5156 C8.72396,53.2552 8.59375,53.026 8.59375,52.8281 C8.59375,52.4427 8.79167,51.9583 9.1875,51.375 C9.63542,50.9167 10.0885,50.6875 10.5469,50.6875 C10.7448,50.6875 11.526,51.1771 12.8906,52.1563 C13.9948,53.1979 15.1667,53.7188 16.4063,53.7188 C18.8125,53.7188 20.6042,52.2188 21.7813,49.2188 C22.9479,46.0938 23.5313,42.3854 23.5313,38.0938 L23.5313,37.4063 C23.5313,34.7396 23.9896,30.4115 24.9063,24.4219 C23.2083,25.0052 21.875,25.7865 20.9063,26.7656 C19.8646,27.8073 19.3438,28.8802 19.3438,29.9844 C19.3438,30.8906 19.6667,31.6406 20.3125,32.2344 C20.9688,32.8802 21.2969,33.4635 21.2969,33.9844 M5.5625,9.46875 C5.82292,9.46875 6.47396,9.76563 7.51563,10.3594 C8.69271,10.8802 9.57292,11.1406 10.1563,11.1406 C13.0208,11.1406 17.1875,7.75521 22.6563,0.984375 C28.0625,-5.66146 32,-12.6979 34.4688,-20.125 C35.0625,-22.0729 36.5938,-23.0469 39.0625,-23.0469 C40.3021,-23.0469 41.3438,-22.7865 42.1875,-22.2656 C43.1042,-21.8802 43.5625,-21.3281 43.5625,-20.6094 L42.1875,8.59375 C42.1875,10.2917 42.776,11.1406 43.9531,11.1406 C44.3385,11.1406 45.151,10.8802 46.3906,10.3594 C47.5573,9.76563 48.2083,9.46875 48.3438,9.46875 C48.8021,9.46875 49.0313,9.92708 49.0313,10.8438 C49.0313,11.625 48.7344,12.1146 48.1406,12.3125 C47.4323,12.6354 46.3594,13.1563 44.9219,13.875 C43.2969,14.7188 42.026,15.1406 41.1094,15.1406 C40.1406,15.1406 39.2292,14.7188 38.375,13.875 C37.5313,12.8333 36.7865,10.8125 36.1406,7.8125 C35.3594,4.82292 34.7708,0.588542 34.375,-4.89063 C32.3542,-2.21354 30.0781,0.489583 27.5469,3.21875 C28.5156,4.91667 30.5,5.76563 33.5,5.76563 C33.8854,5.76563 34.0781,6.1875 34.0781,7.03125 C34.0781,8.53125 32.5833,9.28125 29.5938,9.28125 C27.0521,9.28125 25.2292,8.40104 24.125,6.64063 L21,9.375 C16.7708,13.0208 13.1563,14.9115 10.1563,15.0469 C9.11458,15.0469 7.75,14.5885 6.0625,13.6719 C4.42708,12.8281 3.60938,12.2083 3.60938,11.8125 C3.60938,11.3646 3.80729,10.8802 4.20313,10.3594 C4.58854,9.76563 5.04167,9.46875 5.5625,9.46875 M23.0469,-43.1719 C23.0469,-41.9323 21.9427,-41.3125 19.7344,-41.3125 C17.776,-41.3125 16.0469,-41.9635 14.5469,-43.2656 C13.1198,-44.5052 12.4063,-46.099 12.4063,-48.0469 C12.4063,-49.8698 12.9583,-51.4323 14.0625,-52.7344 C15.3646,-54.1719 16.9271,-55.151 18.75,-55.6719 C20.0521,-56.1927 22.0052,-56.7135 24.6094,-57.2344 C27.349,-57.4948 29.4635,-57.625 30.9531,-57.625 C32.0677,-57.625 34.2839,-57.0703 37.6016,-55.9609 C40.9193,-54.8516 43.2604,-54.2969 44.625,-54.2969 C46.2604,-54.2969 47.7917,-54.5573 49.2188,-55.0781 C50.5833,-55.6615 51.6927,-56.25 52.5469,-56.8438 C53.3906,-57.4896 53.9115,-57.8125 54.1094,-57.8125 C54.4948,-57.8125 54.9167,-57.651 55.375,-57.3281 C55.7604,-57.0052 55.9531,-56.6771 55.9531,-56.3438 C55.9531,-56.0833 55.4688,-55.4688 54.5,-54.5 C53.3229,-53.4583 51.8229,-52.5469 50,-51.7656 C48.0521,-50.7865 46.0677,-50.2969 44.0469,-50.2969 C43.0052,-50.2969 41.8333,-50.4583 40.5313,-50.7813 C39.6146,-44.4063 38.6719,-39.2292 37.7031,-35.25 C36.849,-31.2813 35.1875,-27.8333 32.7188,-24.9063 C30.3125,-21.9792 27.6406,-20.5156 24.7031,-20.5156 C23.401,-20.5156 22.3281,-20.776 21.4844,-21.2969 C20.3802,-21.8177 19.276,-22.5625 18.1719,-23.5313 C17.1302,-24.5104 16.25,-25.2292 15.5313,-25.6875 C15.2708,-25.9479 15.1406,-26.1771 15.1406,-26.375 C15.1406,-26.8229 15.3021,-27.276 15.625,-27.7344 C15.9479,-28.2552 16.3698,-28.5156 16.8906,-28.5156 C17.151,-28.5156 18.0313,-27.8646 19.5313,-26.5625 C21.0313,-25.2604 22.3646,-24.6094 23.5313,-24.6094 C25.0938,-24.6094 26.3021,-25.1302 27.1563,-26.1719 C28.0625,-27.2135 28.776,-28.776 29.2969,-30.8594 C29.7552,-32.7448 30.0833,-34.8594 30.2813,-37.2031 C30.5417,-39.1615 30.8333,-41.8333 31.1563,-45.2188 C31.3542,-47.1042 31.6771,-49.8073 32.125,-53.3281 C31.0208,-53.5885 30.1458,-53.7188 29.5,-53.7188 C27.1563,-53.7188 25.0365,-53.1979 23.1406,-52.1563 C21.3906,-50.9792 20.5156,-49.6406 20.5156,-48.1406 C20.5156,-47.0365 20.9375,-46.0625 21.7813,-45.2188 C22.625,-44.375 23.0469,-43.6927 23.0469,-43.1719"/>
<path class="Clef" transform="matrix(0.566929,0,0,0.566929,28.5015,345.26)" d="M57.1328,-8.89063 C56.1589,-9.86979 55.6719,-11.0755 55.6719,-12.5078 C55.6719,-13.9401 56.1589,-15.1432 57.1328,-16.1172 C58.1068,-17.0911 59.3099,-17.5781 60.7422,-17.5781 C62.1745,-17.5781 63.3802,-17.0911 64.3594,-16.1172 C65.3385,-15.1432 65.8281,-13.9401 65.8281,-12.5078 C65.8281,-11.0755 65.3385,-9.86979 64.3594,-8.89063 C63.3802,-7.91146 62.1745,-7.42188 60.7422,-7.42188 C59.3099,-7.42188 58.1068,-7.91146 57.1328,-8.89063 M57.1328,16.1172 C56.1589,15.1432 55.6719,13.9401 55.6719,12.5078 C55.6719,11.0755 56.1589,9.86979 57.1328,8.89063 C58.1068,7.91146 59.3099,7.42188 60.7422,7.42188 C62.1745,7.42188 63.3802,7.91146 64.3594,8.89063 C65.3385,9.86979 65.8281,11.0755 65.8281,12.5078 C65.8281,13.9401 65.3385,15.1432 64.3594,16.1172 C63.3802,17.0911 62.1745,17.5781 60.7422,17.5781 C59.3099,17.5781 58.1068,17.0911 57.1328,16.1172 M23.25,-26.2656 C31.9063,-26.2656 39,-24.0885 44.5313,-19.7344 C49.875,-15.1719 52.5469,-8.98438 52.5469,-1.17188 C52.5469,4.09896 51.5052,8.91667 49.4219,13.2813 C47.4635,17.8438 44.8906,21.8802 41.7031,25.3906 C38.4427,28.974 34.5052,32.3594 29.8906,35.5469 C25.3906,38.6719 20.7656,41.474 16.0156,43.9531 C6.31771,48.8281 0.979167,51.2656 0,51.2656 C-0.84375,51.2656 -1.26563,50.8438 -1.26563,50 C-1.26563,49.6771 -1.13542,49.3854 -0.875,49.125 C2.44792,47.1667 6.51563,44.6615 11.3281,41.6094 C14.4531,39.5885 18.099,36.7865 22.2656,33.2031 C26.3073,29.8177 29.4323,26.6302 31.6406,23.6406 C33.9219,20.7031 36.0052,17.0573 37.8906,12.7031 C39.5156,8.33854 40.3281,4.03646 40.3281,-0.203125 C40.3281,-6.51563 38.7656,-12.0156 35.6406,-16.7031 C32.5156,-21.3906 28.3854,-23.7344 23.25,-23.7344 C19.6042,-23.7344 16.4792,-22.5625 13.875,-20.2188 C11.0729,-17.8125 9.05208,-14.7865 7.8125,-11.1406 C9.05208,-11.6615 10.1927,-11.9219 11.2344,-11.9219 C13.9635,-11.9219 16.3073,-10.9427 18.2656,-8.98438 C20.2135,-6.90104 21.1875,-4.52604 21.1875,-1.85938 C21.1875,0.942708 20.2448,3.45313 18.3594,5.67188 C16.3385,7.68229 13.9635,8.6875 11.2344,8.6875 C8.30729,8.6875 5.67188,7.68229 3.32813,5.67188 C1.10938,3.45313 0,0.942708 0,-1.85938 C0,-8.56771 2.28125,-14.2969 6.84375,-19.0469 C11.3333,-23.8594 16.8021,-26.2656 23.25,-26.2656"/>
<path class="Clef" transform="matrix(0.566929,0,0,0.566929,28.5015,224.787)" d="M36.3281,-7.32813 C33.3385,-7.32813 31.8438,-4.88542 31.8438,0 C31.8438,4.88542 33.3385,7.32813 36.3281,7.32813 C37.3073,7.32813 38.7396,6.80729 40.625,5.76563 C42.4479,4.72396 43.9479,4.20313 45.125,4.20313 C51.3021,4.20313 56.6719,6.1875 61.2344,10.1563 C65.724,14.2604 67.9688,19.2083 67.9688,25 C67.9688,41.6667 59.1458,50 41.5,50 C37.2708,50 33.6615,48.6354 30.6719,45.9063 C27.7344,43.1667 26.2656,39.8125 26.2656,35.8438 C26.2656,33.6979 27.0156,31.875 28.5156,30.375 C30.0156,28.875 31.8073,28.125 33.8906,28.125 C35.974,28.125 37.763,28.875 39.2578,30.375 C40.7526,31.875 41.5,33.6979 41.5,35.8438 C41.5,37.1458 40.6875,38.4167 39.0625,39.6563 C37.4375,40.8229 36.625,42.0573 36.625,43.3594 C36.625,44.5365 37.1146,45.4479 38.0938,46.0938 C39,46.8125 40.1354,47.1719 41.5,47.1719 C46.9063,47.1719 50.5859,45.3151 52.5391,41.6016 C54.4922,37.888 55.4688,32.3542 55.4688,25 C55.4688,19.3333 54.8854,15.0365 53.7188,12.1094 C52.4792,8.72396 49.6146,7.03125 45.125,7.03125 C41.7396,7.03125 38.875,8.49479 36.5313,11.4219 C34.3125,14.4219 33.2031,17.9063 33.2031,21.875 C33.2031,22.8542 32.7474,23.3438 31.8359,23.3438 C30.9245,23.3438 30.4688,22.8542 30.4688,21.875 C30.4688,14.125 27.6719,7.45313 22.0781,1.85938 L22.0781,49.0313 C22.0781,49.6771 21.75,50 21.0938,50 L19.0469,50 C18.3281,50 17.9688,49.6771 17.9688,49.0313 L17.9688,-49.0313 C17.9688,-49.6771 18.3281,-50 19.0469,-50 L21.0938,-50 C21.75,-50 22.0781,-49.6771 22.0781,-49.0313 L22.0781,-1.85938 C27.6719,-7.45313 30.4688,-14.125 30.4688,-21.875 C30.4688,-22.8542 30.9245,-23.3438 31.8359,-23.3438 C32.7474,-23.3438 33.2031,-22.8542 33.2031,-21.875 C33.2031,-17.9063 34.3125,-14.4219 36.5313,-11.4219 C38.875,-8.49479 41.7396,-7.03125 45.125,-7.03125 C49.6146,-7.03125 52.4792,-8.72396 53.7188,-12.1094 C54.8854,-15.0365 55.4688,-19.3333 55.4688,-25 C55.4688,-32.3542 54.4922,-37.888 52.5391,-41.6016 C50.5859,-45.3151 46.9063,-47.1719 41.5,-47.1719 C40.1354,-47.1719 39,-46.8125 38.0938,-46.0938 C37.1146,-45.5104 36.625,-44.599 36.625,-43.3594 C36.625,-42.0573 37.4375,-40.8229 39.0625,-39.6563 C40.6875,-38.4167 41.5,-37.1458 41.5,-35.8438 C41.5,-33.6979 40.7526,-31.875 39.2578,-30.375 C37.763,-28.875 35.974,-28.125 33.8906,-28.125 C31.8073,-28.125 30.0156,-28.875 28.5156,-30.375 C27.0156,-31.875 26.2656,-33.6979 26.2656,-35.8438 C26.2656,-39.8125 27.7344,-43.1667 30.6719,-45.9063 C33.6615,-48.6354 37.2708,-50 41.5,-50 C59.1458,-50 67.9688,-41.6667 67.9688,-25 C67.9688,-19.2083 65.724,-14.2604 61.2344,-10.1563 C56.6719,-6.1875 51.3021,-4.20313 45.125,-4.20313 C44.0104,-4.20313 42.5104,-4.72396 40.625,-5.76563 C38.7396,-6.80729 37.3073,-7.32813 36.3281,-7.32813 M12.8906,50 L0.984375,50 C0.328125,50 0,49.6771 0,49.0313 L0,-49.0313 C0,-49.6771 0.328125,-50 0.984375,-50 L12.8906,-50 C13.5469,-50 13.875,-49.6771 13.875,-49.0313 L13.875,49.0313 C13.875,49.6771 13.5469,50 12.8906,50"/>
<path class="Clef" transform="matrix(0.566929,0,0,0.566929,28.5015,104.315)" d="M36.7188,-25.5938 C36.7188,-25.5938 36.9167,-25.5938 37.3125,-25.5938 C37.5729,-25.6563 37.7969,-25.6875 37.9844,-25.6875 C45.276,-25.6875 51.2656,-23.1146 55.9531,-17.9688 C60.6406,-12.8958 62.9844,-6.97396 62.9844,-0.203125 C62.9844,8.20313 59.5052,15.0417 52.5469,20.3125 C50.724,21.75 48.3438,22.9219 45.4063,23.8281 C45.7396,28.0573 45.9063,31.474 45.9063,34.0781 C45.9063,34.599 45.8385,36.4896 45.7031,39.75 C45.4427,45.8021 43.3594,51.0417 39.4531,55.4688 C35.6823,59.8333 30.9948,62.0156 25.3906,62.0156 C20.1198,62.0156 15.6302,60.1615 11.9219,56.4531 C8.20313,52.6719 6.34375,48.1146 6.34375,42.7813 C6.34375,39.9792 7.42188,37.599 9.57813,35.6406 C11.7865,33.6927 14.3542,32.7188 17.2813,32.7188 C19.8854,32.7188 22.0677,33.7292 23.8281,35.75 C25.651,37.6354 26.5625,39.9792 26.5625,42.7813 C26.5625,45.3125 25.651,47.4896 23.8281,49.3125 C22.0052,51.1354 19.8229,52.0469 17.2813,52.0469 C16.2396,52.0469 15.2344,51.8542 14.2656,51.4688 C17.1302,55.6979 20.9375,57.8125 25.6875,57.8125 C30.1771,57.8125 33.8542,55.9896 36.7188,52.3438 C39.7188,48.5729 41.349,44.1771 41.6094,39.1563 C41.7344,36.0313 41.7969,34.2448 41.7969,33.7969 C41.7969,30.151 41.6667,27.1563 41.4063,24.8125 C38.1563,25.3333 35.2604,25.5938 32.7188,25.5938 C23.6667,25.5938 15.9531,22.0104 9.57813,14.8438 C3.32813,7.61458 0.203125,-0.979167 0.203125,-10.9375 C0.203125,-13.0208 0.395833,-15.1354 0.78125,-17.2813 C1.17708,-19.0417 1.66667,-20.9635 2.25,-23.0469 C2.57292,-24.224 3.45313,-26.1146 4.89063,-28.7188 C5.41146,-29.5 5.9974,-30.4766 6.64844,-31.6484 C7.29948,-32.8203 7.75521,-33.599 8.01563,-33.9844 C8.66146,-35.2865 9.92708,-37.0469 11.8125,-39.2656 C12.3333,-39.849 12.8724,-40.4974 13.4297,-41.2109 C13.987,-41.9245 14.4609,-42.5104 14.8516,-42.9688 C15.2422,-43.4271 15.5339,-43.7865 15.7266,-44.0469 C15.9193,-44.3073 17.3854,-46.0313 20.125,-49.2188 C20.7708,-49.875 21.4036,-50.5755 22.0234,-51.3203 C22.6432,-52.0651 23.1484,-52.651 23.5391,-53.0781 C23.9297,-53.5052 24.224,-53.8125 24.4219,-54 C22.0781,-61.75 20.6094,-67.9375 20.0156,-72.5625 C19.5677,-76.2708 19.3438,-81.349 19.3438,-87.7969 C19.3438,-93.4635 20.6458,-98.7708 23.25,-103.719 C25.7813,-108.854 29.3281,-113.052 33.8906,-116.313 C34.151,-116.51 34.474,-116.609 34.8594,-116.609 C35.3177,-116.609 35.6458,-116.51 35.8438,-116.313 C39.3542,-112.083 42.3802,-106.583 44.9219,-99.8125 C47.526,-93.0417 48.8281,-86.8854 48.8281,-81.3438 C48.8281,-75.0938 47.3333,-69.2344 44.3438,-63.7656 C40.9583,-57.974 36.5938,-51.9844 31.25,-45.7969 C32.6146,-41.5052 34.4375,-34.7708 36.7188,-25.5938 M45.0156,19.8281 C48.401,18.5885 51.0417,16.474 52.9375,13.4844 C55.0208,10.6198 56.0625,7.39583 56.0625,3.8125 C56.0625,-0.8125 54.5,-4.91667 51.375,-8.5 C48.1771,-12.2083 44.1042,-14.2917 39.1563,-14.75 C41.9583,-1.01042 43.9115,10.5156 45.0156,19.8281 M7.23438,-2.73438 C7.23438,3.71354 9.83854,9.38021 15.0469,14.2656 C20.3802,19.0156 26.3698,21.3906 33.0156,21.3906 C35.7448,21.3906 38.4115,21.1927 41.0156,20.7969 C39.974,10.901 37.9219,-0.947917 34.8594,-14.75 C31.151,-14.3542 28.1927,-13.0521 25.9844,-10.8438 C23.8281,-8.5625 22.75,-5.98958 22.75,-3.125 C22.75,1.82292 25.3906,5.82813 30.6719,8.89063 C31.1198,9.34896 31.3438,9.83854 31.3438,10.3594 C31.3438,10.8802 31.1198,11.3646 30.6719,11.8125 C30.276,12.2708 29.7865,12.5 29.2031,12.5 C29.1406,12.5 28.849,12.4375 28.3281,12.3125 C24.6094,10.2917 21.7448,7.6875 19.7344,4.5 C17.8385,1.10417 16.8906,-2.31771 16.8906,-5.76563 C16.8906,-10.2552 18.2917,-14.3229 21.0938,-17.9688 C24.0208,-21.6146 27.8281,-23.9583 32.5156,-25 C30.6927,-32.2917 29.1979,-37.9896 28.0313,-42.0938 C26.9896,-40.9167 25.737,-39.5 24.2734,-37.8438 C22.8099,-36.1875 21.9479,-35.1927 21.6875,-34.8594 C19.3438,-31.8073 17.5521,-29.4323 16.3125,-27.7344 C14.0938,-24.6719 12.4635,-22.0365 11.4219,-19.8281 C10.3177,-17.349 9.34375,-14.6458 8.5,-11.7188 C7.65625,-8.91667 7.23438,-5.92188 7.23438,-2.73438 M39.8438,-102.047 C34.9583,-99.6406 31.1198,-96.1927 28.3281,-91.7031 C25.4635,-87.0781 24.0313,-82.099 24.0313,-76.7656 C24.0313,-72.0781 25.2031,-65.7604 27.5469,-57.8125 C32.2344,-63.4792 35.75,-68.7188 38.0938,-73.5313 C40.5625,-78.6146 41.7969,-83.9219 41.7969,-89.4531 C41.7969,-93.6198 41.1458,-97.8177 39.8438,-102.047"/>
</svg>
