<?xml version="1.0" encoding="UTF-8" standalone="no"?>
<svg width="637.794px" height="765.353px" viewBox="0 0 637.794 765.353"
 xmlns="http://www.w3.org/2000/svg" xmlns:xlink="http://www.w3.org/1999/xlink" version="1.2" baseProfile="tiny">
<title>melodicminor (114)</title>
<desc>Generated by MuseScore 3.4.2</desc>
<polyline class="StaffLines" fill="none" stroke="#000000" stroke-width="1.13" stroke-linejoin="bevel" points="14.1732,49.6063 623.621,49.6063"/>
<polyline class="StaffLines" fill="none" stroke="#000000" stroke-width="1.13" stroke-linejoin="bevel" points="14.1732,63.7795 623.621,63.7795"/>
<polyline class="StaffLines" fill="none" stroke="#000000" stroke-width="1.13" stroke-linejoin="bevel" points="14.1732,77.9528 623.621,77.9528"/>
<polyline class="StaffLines" fill="none" stroke="#000000" stroke-width="1.13" stroke-linejoin="bevel" points="14.1732,92.126 623.621,92.126"/>
<polyline class="StaffLines" fill="none" stroke="#000000" stroke-width="1.13" stroke-linejoin="bevel" points="14.1732,106.299 623.621,106.299"/>
<polyline class="StaffLines" fill="none" stroke="#000000" stroke-width="1.13" stroke-linejoin="bevel" points="14.1732,184.252 623.621,184.252"/>
<polyline class="StaffLines" fill="none" stroke="#000000" stroke-width="1.13" stroke-linejoin="bevel" points="14.1732,198.425 623.621,198.425"/>
<polyline class="StaffLines" fill="none" stroke="#000000" stroke-width="1.13" stroke-linejoin="bevel" points="14.1732,212.598 623.621,212.598"/>
<polyline class="StaffLines" fill="none" stroke="#000000" stroke-width="1.13" stroke-linejoin="bevel" points="14.1732,226.772 623.621,226.772"/>
<polyline class="StaffLines" fill="none" stroke="#000000" stroke-width="1.13" stroke-linejoin="bevel" points="14.1732,240.945 623.621,240.945"/>
<polyline class="StaffLines" fill="none" stroke="#000000" stroke-width="1.13" stroke-linejoin="bevel" points="14.1732,318.898 623.621,318.898"/>
<polyline class="StaffLines" fill="none" stroke="#000000" stroke-width="1.13" stroke-linejoin="bevel" points="14.1732,333.071 623.621,333.071"/>
<polyline class="StaffLines" fill="none" stroke="#000000" stroke-width="1.13" stroke-linejoin="bevel" points="14.1732,347.244 623.621,347.244"/>
<polyline class="StaffLines" fill="none" stroke="#000000" stroke-width="1.13" stroke-linejoin="bevel" points="14.1732,361.417 623.621,361.417"/>
<polyline class="StaffLines" fill="none" stroke="#000000" stroke-width="1.13" stroke-linejoin="bevel" points="14.1732,375.591 623.621,375.591"/>
<polyline class="StaffLines" fill="none" stroke="#000000" stroke-width="1.13" stroke-linejoin="bevel" points="14.1732,453.543 623.621,453.543"/>
<polyline class="StaffLines" fill="none" stroke="#000000" stroke-width="1.13" stroke-linejoin="bevel" points="14.1732,478.346 623.621,478.346"/>
<polyline class="StaffLines" fill="none" stroke="#000000" stroke-width="1.13" stroke-linejoin="bevel" points="14.1732,503.15 623.621,503.15"/>
<polyline class="StaffLines" fill="none" stroke="#000000" stroke-width="1.13" stroke-linejoin="bevel" points="14.1732,527.953 623.621,527.953"/>
<polyline class="StaffLines" fill="none" stroke="#000000" stroke-width="1.13" stroke-linejoin="bevel" points="14.1732,605.906 623.621,605.906"/>
<polyline class="StaffLines" fill="none" stroke="#000000" stroke-width="1.13" stroke-linejoin="bevel" points="14.1732,630.709 623.621,630.709"/>
<polyline class="StaffLines" fill="none" stroke="#000000" stroke-width="1.13" stroke-linejoin="bevel" points="14.1732,655.512 623.621,655.512"/>
<polyline class="StaffLines" fill="none" stroke="#000000" stroke-width="1.13" stroke-linejoin="bevel" points="14.1732,680.315 623.621,680.315"/>
<polyline class="StaffLines" fill="none" stroke="#000000" stroke-width="1.13" stroke-linejoin="bevel" points="14.1732,705.118 623.621,705.118"/>
<polyline class="StaffLines" fill="none" stroke="#000000" stroke-width="1.13" stroke-linejoin="bevel" points="14.1732,729.921 623.621,729.921"/>
<path class="Accidental" transform="matrix(0.566929,0,0,0.566929,149.621,354.331)" d="M21.5781,31.1563 C21.5781,32.3958 20.9609,33.0156 19.7266,33.0156 C18.4922,33.0156 17.875,32.3958 17.875,31.1563 L17.875,16.7031 L9.57813,19.8281 L9.57813,35.6406 C9.57813,36.8802 8.95833,37.5 7.71875,37.5 C6.47917,37.5 5.85938,36.8802 5.85938,35.6406 L5.85938,21.0938 L2.73438,22.2656 C2.67188,22.3281 2.41146,22.3594 1.95313,22.3594 C1.43229,22.3594 0.976563,22.1641 0.585938,21.7734 C0.195313,21.3828 0,20.9271 0,20.4063 L0,14.3594 C0,13.3802 0.421875,12.7604 1.26563,12.5 L5.85938,10.9375 L5.85938,-5.07813 L2.73438,-4 C2.67188,-3.9375 2.41146,-3.90625 1.95313,-3.90625 C1.43229,-3.90625 0.976563,-4.10156 0.585938,-4.49219 C0.195313,-4.88281 0,-5.33854 0,-5.85938 L0,-11.9219 C0,-12.8281 0.421875,-13.4115 1.26563,-13.6719 L5.85938,-15.4375 L5.85938,-31.1563 C5.85938,-32.3958 6.47917,-33.0156 7.71875,-33.0156 C8.95833,-33.0156 9.57813,-32.3958 9.57813,-31.1563 L9.57813,-16.7031 L17.875,-19.8281 L17.875,-35.6406 C17.875,-36.8802 18.4922,-37.5 19.7266,-37.5 C20.9609,-37.5 21.5781,-36.8802 21.5781,-35.6406 L21.5781,-21.0938 L24.8125,-22.2656 C24.875,-22.3281 25.099,-22.3594 25.4844,-22.3594 C25.9427,-22.3594 26.4323,-22.1667 26.9531,-21.7813 C27.349,-21.3854 27.5469,-20.9271 27.5469,-20.4063 L27.5469,-14.3594 C27.5469,-13.4427 27.0885,-12.8229 26.1719,-12.5 L21.5781,-10.9375 L21.5781,5.07813 L24.8125,4 C24.875,3.9375 25.099,3.90625 25.4844,3.90625 C25.9427,3.90625 26.4323,4.10417 26.9531,4.5 C27.349,4.88542 27.5469,5.33854 27.5469,5.85938 L27.5469,11.9219 C27.5469,12.7656 27.0885,13.349 26.1719,13.6719 L21.5781,15.4375 L21.5781,31.1563 M17.875,-9.46875 L9.57813,-6.54688 L9.57813,9.46875 L17.875,6.54688 L17.875,-9.46875 "/>
<path class="Accidental" transform="matrix(0.566929,0,0,0.566929,343.764,333.071)" d="M21.5781,31.1563 C21.5781,32.3958 20.9609,33.0156 19.7266,33.0156 C18.4922,33.0156 17.875,32.3958 17.875,31.1563 L17.875,16.7031 L9.57813,19.8281 L9.57813,35.6406 C9.57813,36.8802 8.95833,37.5 7.71875,37.5 C6.47917,37.5 5.85938,36.8802 5.85938,35.6406 L5.85938,21.0938 L2.73438,22.2656 C2.67188,22.3281 2.41146,22.3594 1.95313,22.3594 C1.43229,22.3594 0.976563,22.1641 0.585938,21.7734 C0.195313,21.3828 0,20.9271 0,20.4063 L0,14.3594 C0,13.3802 0.421875,12.7604 1.26563,12.5 L5.85938,10.9375 L5.85938,-5.07813 L2.73438,-4 C2.67188,-3.9375 2.41146,-3.90625 1.95313,-3.90625 C1.43229,-3.90625 0.976563,-4.10156 0.585938,-4.49219 C0.195313,-4.88281 0,-5.33854 0,-5.85938 L0,-11.9219 C0,-12.8281 0.421875,-13.4115 1.26563,-13.6719 L5.85938,-15.4375 L5.85938,-31.1563 C5.85938,-32.3958 6.47917,-33.0156 7.71875,-33.0156 C8.95833,-33.0156 9.57813,-32.3958 9.57813,-31.1563 L9.57813,-16.7031 L17.875,-19.8281 L17.875,-35.6406 C17.875,-36.8802 18.4922,-37.5 19.7266,-37.5 C20.9609,-37.5 21.5781,-36.8802 21.5781,-35.6406 L21.5781,-21.0938 L24.8125,-22.2656 C24.875,-22.3281 25.099,-22.3594 25.4844,-22.3594 C25.9427,-22.3594 26.4323,-22.1667 26.9531,-21.7813 C27.349,-21.3854 27.5469,-20.9271 27.5469,-20.4063 L27.5469,-14.3594 C27.5469,-13.4427 27.0885,-12.8229 26.1719,-12.5 L21.5781,-10.9375 L21.5781,5.07813 L24.8125,4 C24.875,3.9375 25.099,3.90625 25.4844,3.90625 C25.9427,3.90625 26.4323,4.10417 26.9531,4.5 C27.349,4.88542 27.5469,5.33854 27.5469,5.85938 L27.5469,11.9219 C27.5469,12.7656 27.0885,13.349 26.1719,13.6719 L21.5781,15.4375 L21.5781,31.1563 M17.875,-9.46875 L9.57813,-6.54688 L9.57813,9.46875 L17.875,6.54688 L17.875,-9.46875 "/>
<path class="Accidental" transform="matrix(0.566929,0,0,0.566929,408.479,325.984)" d="M21.5781,31.1563 C21.5781,32.3958 20.9609,33.0156 19.7266,33.0156 C18.4922,33.0156 17.875,32.3958 17.875,31.1563 L17.875,16.7031 L9.57813,19.8281 L9.57813,35.6406 C9.57813,36.8802 8.95833,37.5 7.71875,37.5 C6.47917,37.5 5.85938,36.8802 5.85938,35.6406 L5.85938,21.0938 L2.73438,22.2656 C2.67188,22.3281 2.41146,22.3594 1.95313,22.3594 C1.43229,22.3594 0.976563,22.1641 0.585938,21.7734 C0.195313,21.3828 0,20.9271 0,20.4063 L0,14.3594 C0,13.3802 0.421875,12.7604 1.26563,12.5 L5.85938,10.9375 L5.85938,-5.07813 L2.73438,-4 C2.67188,-3.9375 2.41146,-3.90625 1.95313,-3.90625 C1.43229,-3.90625 0.976563,-4.10156 0.585938,-4.49219 C0.195313,-4.88281 0,-5.33854 0,-5.85938 L0,-11.9219 C0,-12.8281 0.421875,-13.4115 1.26563,-13.6719 L5.85938,-15.4375 L5.85938,-31.1563 C5.85938,-32.3958 6.47917,-33.0156 7.71875,-33.0156 C8.95833,-33.0156 9.57813,-32.3958 9.57813,-31.1563 L9.57813,-16.7031 L17.875,-19.8281 L17.875,-35.6406 C17.875,-36.8802 18.4922,-37.5 19.7266,-37.5 C20.9609,-37.5 21.5781,-36.8802 21.5781,-35.6406 L21.5781,-21.0938 L24.8125,-22.2656 C24.875,-22.3281 25.099,-22.3594 25.4844,-22.3594 C25.9427,-22.3594 26.4323,-22.1667 26.9531,-21.7813 C27.349,-21.3854 27.5469,-20.9271 27.5469,-20.4063 L27.5469,-14.3594 C27.5469,-13.4427 27.0885,-12.8229 26.1719,-12.5 L21.5781,-10.9375 L21.5781,5.07813 L24.8125,4 C24.875,3.9375 25.099,3.90625 25.4844,3.90625 C25.9427,3.90625 26.4323,4.10417 26.9531,4.5 C27.349,4.88542 27.5469,5.33854 27.5469,5.85938 L27.5469,11.9219 C27.5469,12.7656 27.0885,13.349 26.1719,13.6719 L21.5781,15.4375 L21.5781,31.1563 M17.875,-9.46875 L9.57813,-6.54688 L9.57813,9.46875 L17.875,6.54688 L17.875,-9.46875 "/>
<path class="Accidental" transform="matrix(0.566929,0,0,0.566929,473.193,318.898)" d="M21.5781,31.1563 C21.5781,32.3958 20.9609,33.0156 19.7266,33.0156 C18.4922,33.0156 17.875,32.3958 17.875,31.1563 L17.875,16.7031 L9.57813,19.8281 L9.57813,35.6406 C9.57813,36.8802 8.95833,37.5 7.71875,37.5 C6.47917,37.5 5.85938,36.8802 5.85938,35.6406 L5.85938,21.0938 L2.73438,22.2656 C2.67188,22.3281 2.41146,22.3594 1.95313,22.3594 C1.43229,22.3594 0.976563,22.1641 0.585938,21.7734 C0.195313,21.3828 0,20.9271 0,20.4063 L0,14.3594 C0,13.3802 0.421875,12.7604 1.26563,12.5 L5.85938,10.9375 L5.85938,-5.07813 L2.73438,-4 C2.67188,-3.9375 2.41146,-3.90625 1.95313,-3.90625 C1.43229,-3.90625 0.976563,-4.10156 0.585938,-4.49219 C0.195313,-4.88281 0,-5.33854 0,-5.85938 L0,-11.9219 C0,-12.8281 0.421875,-13.4115 1.26563,-13.6719 L5.85938,-15.4375 L5.85938,-31.1563 C5.85938,-32.3958 6.47917,-33.0156 7.71875,-33.0156 C8.95833,-33.0156 9.57813,-32.3958 9.57813,-31.1563 L9.57813,-16.7031 L17.875,-19.8281 L17.875,-35.6406 C17.875,-36.8802 18.4922,-37.5 19.7266,-37.5 C20.9609,-37.5 21.5781,-36.8802 21.5781,-35.6406 L21.5781,-21.0938 L24.8125,-22.2656 C24.875,-22.3281 25.099,-22.3594 25.4844,-22.3594 C25.9427,-22.3594 26.4323,-22.1667 26.9531,-21.7813 C27.349,-21.3854 27.5469,-20.9271 27.5469,-20.4063 L27.5469,-14.3594 C27.5469,-13.4427 27.0885,-12.8229 26.1719,-12.5 L21.5781,-10.9375 L21.5781,5.07813 L24.8125,4 C24.875,3.9375 25.099,3.90625 25.4844,3.90625 C25.9427,3.90625 26.4323,4.10417 26.9531,4.5 C27.349,4.88542 27.5469,5.33854 27.5469,5.85938 L27.5469,11.9219 C27.5469,12.7656 27.0885,13.349 26.1719,13.6719 L21.5781,15.4375 L21.5781,31.1563 M17.875,-9.46875 L9.57813,-6.54688 L9.57813,9.46875 L17.875,6.54688 L17.875,-9.46875 "/>
<path class="Accidental" transform="matrix(0.566929,0,0,0.566929,149.621,212.598)" d="M21.5781,31.1563 C21.5781,32.3958 20.9609,33.0156 19.7266,33.0156 C18.4922,33.0156 17.875,32.3958 17.875,31.1563 L17.875,16.7031 L9.57813,19.8281 L9.57813,35.6406 C9.57813,36.8802 8.95833,37.5 7.71875,37.5 C6.47917,37.5 5.85938,36.8802 5.85938,35.6406 L5.85938,21.0938 L2.73438,22.2656 C2.67188,22.3281 2.41146,22.3594 1.95313,22.3594 C1.43229,22.3594 0.976563,22.1641 0.585938,21.7734 C0.195313,21.3828 0,20.9271 0,20.4063 L0,14.3594 C0,13.3802 0.421875,12.7604 1.26563,12.5 L5.85938,10.9375 L5.85938,-5.07813 L2.73438,-4 C2.67188,-3.9375 2.41146,-3.90625 1.95313,-3.90625 C1.43229,-3.90625 0.976563,-4.10156 0.585938,-4.49219 C0.195313,-4.88281 0,-5.33854 0,-5.85938 L0,-11.9219 C0,-12.8281 0.421875,-13.4115 1.26563,-13.6719 L5.85938,-15.4375 L5.85938,-31.1563 C5.85938,-32.3958 6.47917,-33.0156 7.71875,-33.0156 C8.95833,-33.0156 9.57813,-32.3958 9.57813,-31.1563 L9.57813,-16.7031 L17.875,-19.8281 L17.875,-35.6406 C17.875,-36.8802 18.4922,-37.5 19.7266,-37.5 C20.9609,-37.5 21.5781,-36.8802 21.5781,-35.6406 L21.5781,-21.0938 L24.8125,-22.2656 C24.875,-22.3281 25.099,-22.3594 25.4844,-22.3594 C25.9427,-22.3594 26.4323,-22.1667 26.9531,-21.7813 C27.349,-21.3854 27.5469,-20.9271 27.5469,-20.4063 L27.5469,-14.3594 C27.5469,-13.4427 27.0885,-12.8229 26.1719,-12.5 L21.5781,-10.9375 L21.5781,5.07813 L24.8125,4 C24.875,3.9375 25.099,3.90625 25.4844,3.90625 C25.9427,3.90625 26.4323,4.10417 26.9531,4.5 C27.349,4.88542 27.5469,5.33854 27.5469,5.85938 L27.5469,11.9219 C27.5469,12.7656 27.0885,13.349 26.1719,13.6719 L21.5781,15.4375 L21.5781,31.1563 M17.875,-9.46875 L9.57813,-6.54688 L9.57813,9.46875 L17.875,6.54688 L17.875,-9.46875 "/>
<path class="Accidental" transform="matrix(0.566929,0,0,0.566929,343.764,191.339)" d="M21.5781,31.1563 C21.5781,32.3958 20.9609,33.0156 19.7266,33.0156 C18.4922,33.0156 17.875,32.3958 17.875,31.1563 L17.875,16.7031 L9.57813,19.8281 L9.57813,35.6406 C9.57813,36.8802 8.95833,37.5 7.71875,37.5 C6.47917,37.5 5.85938,36.8802 5.85938,35.6406 L5.85938,21.0938 L2.73438,22.2656 C2.67188,22.3281 2.41146,22.3594 1.95313,22.3594 C1.43229,22.3594 0.976563,22.1641 0.585938,21.7734 C0.195313,21.3828 0,20.9271 0,20.4063 L0,14.3594 C0,13.3802 0.421875,12.7604 1.26563,12.5 L5.85938,10.9375 L5.85938,-5.07813 L2.73438,-4 C2.67188,-3.9375 2.41146,-3.90625 1.95313,-3.90625 C1.43229,-3.90625 0.976563,-4.10156 0.585938,-4.49219 C0.195313,-4.88281 0,-5.33854 0,-5.85938 L0,-11.9219 C0,-12.8281 0.421875,-13.4115 1.26563,-13.6719 L5.85938,-15.4375 L5.85938,-31.1563 C5.85938,-32.3958 6.47917,-33.0156 7.71875,-33.0156 C8.95833,-33.0156 9.57813,-32.3958 9.57813,-31.1563 L9.57813,-16.7031 L17.875,-19.8281 L17.875,-35.6406 C17.875,-36.8802 18.4922,-37.5 19.7266,-37.5 C20.9609,-37.5 21.5781,-36.8802 21.5781,-35.6406 L21.5781,-21.0938 L24.8125,-22.2656 C24.875,-22.3281 25.099,-22.3594 25.4844,-22.3594 C25.9427,-22.3594 26.4323,-22.1667 26.9531,-21.7813 C27.349,-21.3854 27.5469,-20.9271 27.5469,-20.4063 L27.5469,-14.3594 C27.5469,-13.4427 27.0885,-12.8229 26.1719,-12.5 L21.5781,-10.9375 L21.5781,5.07813 L24.8125,4 C24.875,3.9375 25.099,3.90625 25.4844,3.90625 C25.9427,3.90625 26.4323,4.10417 26.9531,4.5 C27.349,4.88542 27.5469,5.33854 27.5469,5.85938 L27.5469,11.9219 C27.5469,12.7656 27.0885,13.349 26.1719,13.6719 L21.5781,15.4375 L21.5781,31.1563 M17.875,-9.46875 L9.57813,-6.54688 L9.57813,9.46875 L17.875,6.54688 L17.875,-9.46875 "/>
<path class="Accidental" transform="matrix(0.566929,0,0,0.566929,408.479,184.252)" d="M21.5781,31.1563 C21.5781,32.3958 20.9609,33.0156 19.7266,33.0156 C18.4922,33.0156 17.875,32.3958 17.875,31.1563 L17.875,16.7031 L9.57813,19.8281 L9.57813,35.6406 C9.57813,36.8802 8.95833,37.5 7.71875,37.5 C6.47917,37.5 5.85938,36.8802 5.85938,35.6406 L5.85938,21.0938 L2.73438,22.2656 C2.67188,22.3281 2.41146,22.3594 1.95313,22.3594 C1.43229,22.3594 0.976563,22.1641 0.585938,21.7734 C0.195313,21.3828 0,20.9271 0,20.4063 L0,14.3594 C0,13.3802 0.421875,12.7604 1.26563,12.5 L5.85938,10.9375 L5.85938,-5.07813 L2.73438,-4 C2.67188,-3.9375 2.41146,-3.90625 1.95313,-3.90625 C1.43229,-3.90625 0.976563,-4.10156 0.585938,-4.49219 C0.195313,-4.88281 0,-5.33854 0,-5.85938 L0,-11.9219 C0,-12.8281 0.421875,-13.4115 1.26563,-13.6719 L5.85938,-15.4375 L5.85938,-31.1563 C5.85938,-32.3958 6.47917,-33.0156 7.71875,-33.0156 C8.95833,-33.0156 9.57813,-32.3958 9.57813,-31.1563 L9.57813,-16.7031 L17.875,-19.8281 L17.875,-35.6406 C17.875,-36.8802 18.4922,-37.5 19.7266,-37.5 C20.9609,-37.5 21.5781,-36.8802 21.5781,-35.6406 L21.5781,-21.0938 L24.8125,-22.2656 C24.875,-22.3281 25.099,-22.3594 25.4844,-22.3594 C25.9427,-22.3594 26.4323,-22.1667 26.9531,-21.7813 C27.349,-21.3854 27.5469,-20.9271 27.5469,-20.4063 L27.5469,-14.3594 C27.5469,-13.4427 27.0885,-12.8229 26.1719,-12.5 L21.5781,-10.9375 L21.5781,5.07813 L24.8125,4 C24.875,3.9375 25.099,3.90625 25.4844,3.90625 C25.9427,3.90625 26.4323,4.10417 26.9531,4.5 C27.349,4.88542 27.5469,5.33854 27.5469,5.85938 L27.5469,11.9219 C27.5469,12.7656 27.0885,13.349 26.1719,13.6719 L21.5781,15.4375 L21.5781,31.1563 M17.875,-9.46875 L9.57813,-6.54688 L9.57813,9.46875 L17.875,6.54688 L17.875,-9.46875 "/>
<path class="Accidental" transform="matrix(0.566929,0,0,0.566929,473.193,177.165)" d="M21.5781,31.1563 C21.5781,32.3958 20.9609,33.0156 19.7266,33.0156 C18.4922,33.0156 17.875,32.3958 17.875,31.1563 L17.875,16.7031 L9.57813,19.8281 L9.57813,35.6406 C9.57813,36.8802 8.95833,37.5 7.71875,37.5 C6.47917,37.5 5.85938,36.8802 5.85938,35.6406 L5.85938,21.0938 L2.73438,22.2656 C2.67188,22.3281 2.41146,22.3594 1.95313,22.3594 C1.43229,22.3594 0.976563,22.1641 0.585938,21.7734 C0.195313,21.3828 0,20.9271 0,20.4063 L0,14.3594 C0,13.3802 0.421875,12.7604 1.26563,12.5 L5.85938,10.9375 L5.85938,-5.07813 L2.73438,-4 C2.67188,-3.9375 2.41146,-3.90625 1.95313,-3.90625 C1.43229,-3.90625 0.976563,-4.10156 0.585938,-4.49219 C0.195313,-4.88281 0,-5.33854 0,-5.85938 L0,-11.9219 C0,-12.8281 0.421875,-13.4115 1.26563,-13.6719 L5.85938,-15.4375 L5.85938,-31.1563 C5.85938,-32.3958 6.47917,-33.0156 7.71875,-33.0156 C8.95833,-33.0156 9.57813,-32.3958 9.57813,-31.1563 L9.57813,-16.7031 L17.875,-19.8281 L17.875,-35.6406 C17.875,-36.8802 18.4922,-37.5 19.7266,-37.5 C20.9609,-37.5 21.5781,-36.8802 21.5781,-35.6406 L21.5781,-21.0938 L24.8125,-22.2656 C24.875,-22.3281 25.099,-22.3594 25.4844,-22.3594 C25.9427,-22.3594 26.4323,-22.1667 26.9531,-21.7813 C27.349,-21.3854 27.5469,-20.9271 27.5469,-20.4063 L27.5469,-14.3594 C27.5469,-13.4427 27.0885,-12.8229 26.1719,-12.5 L21.5781,-10.9375 L21.5781,5.07813 L24.8125,4 C24.875,3.9375 25.099,3.90625 25.4844,3.90625 C25.9427,3.90625 26.4323,4.10417 26.9531,4.5 C27.349,4.88542 27.5469,5.33854 27.5469,5.85938 L27.5469,11.9219 C27.5469,12.7656 27.0885,13.349 26.1719,13.6719 L21.5781,15.4375 L21.5781,31.1563 M17.875,-9.46875 L9.57813,-6.54688 L9.57813,9.46875 L17.875,6.54688 L17.875,-9.46875 "/>
<path class="Accidental" transform="matrix(0.566929,0,0,0.566929,149.621,70.8661)" d="M21.5781,31.1563 C21.5781,32.3958 20.9609,33.0156 19.7266,33.0156 C18.4922,33.0156 17.875,32.3958 17.875,31.1563 L17.875,16.7031 L9.57813,19.8281 L9.57813,35.6406 C9.57813,36.8802 8.95833,37.5 7.71875,37.5 C6.47917,37.5 5.85938,36.8802 5.85938,35.6406 L5.85938,21.0938 L2.73438,22.2656 C2.67188,22.3281 2.41146,22.3594 1.95313,22.3594 C1.43229,22.3594 0.976563,22.1641 0.585938,21.7734 C0.195313,21.3828 0,20.9271 0,20.4063 L0,14.3594 C0,13.3802 0.421875,12.7604 1.26563,12.5 L5.85938,10.9375 L5.85938,-5.07813 L2.73438,-4 C2.67188,-3.9375 2.41146,-3.90625 1.95313,-3.90625 C1.43229,-3.90625 0.976563,-4.10156 0.585938,-4.49219 C0.195313,-4.88281 0,-5.33854 0,-5.85938 L0,-11.9219 C0,-12.8281 0.421875,-13.4115 1.26563,-13.6719 L5.85938,-15.4375 L5.85938,-31.1563 C5.85938,-32.3958 6.47917,-33.0156 7.71875,-33.0156 C8.95833,-33.0156 9.57813,-32.3958 9.57813,-31.1563 L9.57813,-16.7031 L17.875,-19.8281 L17.875,-35.6406 C17.875,-36.8802 18.4922,-37.5 19.7266,-37.5 C20.9609,-37.5 21.5781,-36.8802 21.5781,-35.6406 L21.5781,-21.0938 L24.8125,-22.2656 C24.875,-22.3281 25.099,-22.3594 25.4844,-22.3594 C25.9427,-22.3594 26.4323,-22.1667 26.9531,-21.7813 C27.349,-21.3854 27.5469,-20.9271 27.5469,-20.4063 L27.5469,-14.3594 C27.5469,-13.4427 27.0885,-12.8229 26.1719,-12.5 L21.5781,-10.9375 L21.5781,5.07813 L24.8125,4 C24.875,3.9375 25.099,3.90625 25.4844,3.90625 C25.9427,3.90625 26.4323,4.10417 26.9531,4.5 C27.349,4.88542 27.5469,5.33854 27.5469,5.85938 L27.5469,11.9219 C27.5469,12.7656 27.0885,13.349 26.1719,13.6719 L21.5781,15.4375 L21.5781,31.1563 M17.875,-9.46875 L9.57813,-6.54688 L9.57813,9.46875 L17.875,6.54688 L17.875,-9.46875 "/>
<path class="Accidental" transform="matrix(0.566929,0,0,0.566929,343.764,49.6063)" d="M21.5781,31.1563 C21.5781,32.3958 20.9609,33.0156 19.7266,33.0156 C18.4922,33.0156 17.875,32.3958 17.875,31.1563 L17.875,16.7031 L9.57813,19.8281 L9.57813,35.6406 C9.57813,36.8802 8.95833,37.5 7.71875,37.5 C6.47917,37.5 5.85938,36.8802 5.85938,35.6406 L5.85938,21.0938 L2.73438,22.2656 C2.67188,22.3281 2.41146,22.3594 1.95313,22.3594 C1.43229,22.3594 0.976563,22.1641 0.585938,21.7734 C0.195313,21.3828 0,20.9271 0,20.4063 L0,14.3594 C0,13.3802 0.421875,12.7604 1.26563,12.5 L5.85938,10.9375 L5.85938,-5.07813 L2.73438,-4 C2.67188,-3.9375 2.41146,-3.90625 1.95313,-3.90625 C1.43229,-3.90625 0.976563,-4.10156 0.585938,-4.49219 C0.195313,-4.88281 0,-5.33854 0,-5.85938 L0,-11.9219 C0,-12.8281 0.421875,-13.4115 1.26563,-13.6719 L5.85938,-15.4375 L5.85938,-31.1563 C5.85938,-32.3958 6.47917,-33.0156 7.71875,-33.0156 C8.95833,-33.0156 9.57813,-32.3958 9.57813,-31.1563 L9.57813,-16.7031 L17.875,-19.8281 L17.875,-35.6406 C17.875,-36.8802 18.4922,-37.5 19.7266,-37.5 C20.9609,-37.5 21.5781,-36.8802 21.5781,-35.6406 L21.5781,-21.0938 L24.8125,-22.2656 C24.875,-22.3281 25.099,-22.3594 25.4844,-22.3594 C25.9427,-22.3594 26.4323,-22.1667 26.9531,-21.7813 C27.349,-21.3854 27.5469,-20.9271 27.5469,-20.4063 L27.5469,-14.3594 C27.5469,-13.4427 27.0885,-12.8229 26.1719,-12.5 L21.5781,-10.9375 L21.5781,5.07813 L24.8125,4 C24.875,3.9375 25.099,3.90625 25.4844,3.90625 C25.9427,3.90625 26.4323,4.10417 26.9531,4.5 C27.349,4.88542 27.5469,5.33854 27.5469,5.85938 L27.5469,11.9219 C27.5469,12.7656 27.0885,13.349 26.1719,13.6719 L21.5781,15.4375 L21.5781,31.1563 M17.875,-9.46875 L9.57813,-6.54688 L9.57813,9.46875 L17.875,6.54688 L17.875,-9.46875 "/>
<path class="Accidental" transform="matrix(0.566929,0,0,0.566929,408.479,42.5197)" d="M21.5781,31.1563 C21.5781,32.3958 20.9609,33.0156 19.7266,33.0156 C18.4922,33.0156 17.875,32.3958 17.875,31.1563 L17.875,16.7031 L9.57813,19.8281 L9.57813,35.6406 C9.57813,36.8802 8.95833,37.5 7.71875,37.5 C6.47917,37.5 5.85938,36.8802 5.85938,35.6406 L5.85938,21.0938 L2.73438,22.2656 C2.67188,22.3281 2.41146,22.3594 1.95313,22.3594 C1.43229,22.3594 0.976563,22.1641 0.585938,21.7734 C0.195313,21.3828 0,20.9271 0,20.4063 L0,14.3594 C0,13.3802 0.421875,12.7604 1.26563,12.5 L5.85938,10.9375 L5.85938,-5.07813 L2.73438,-4 C2.67188,-3.9375 2.41146,-3.90625 1.95313,-3.90625 C1.43229,-3.90625 0.976563,-4.10156 0.585938,-4.49219 C0.195313,-4.88281 0,-5.33854 0,-5.85938 L0,-11.9219 C0,-12.8281 0.421875,-13.4115 1.26563,-13.6719 L5.85938,-15.4375 L5.85938,-31.1563 C5.85938,-32.3958 6.47917,-33.0156 7.71875,-33.0156 C8.95833,-33.0156 9.57813,-32.3958 9.57813,-31.1563 L9.57813,-16.7031 L17.875,-19.8281 L17.875,-35.6406 C17.875,-36.8802 18.4922,-37.5 19.7266,-37.5 C20.9609,-37.5 21.5781,-36.8802 21.5781,-35.6406 L21.5781,-21.0938 L24.8125,-22.2656 C24.875,-22.3281 25.099,-22.3594 25.4844,-22.3594 C25.9427,-22.3594 26.4323,-22.1667 26.9531,-21.7813 C27.349,-21.3854 27.5469,-20.9271 27.5469,-20.4063 L27.5469,-14.3594 C27.5469,-13.4427 27.0885,-12.8229 26.1719,-12.5 L21.5781,-10.9375 L21.5781,5.07813 L24.8125,4 C24.875,3.9375 25.099,3.90625 25.4844,3.90625 C25.9427,3.90625 26.4323,4.10417 26.9531,4.5 C27.349,4.88542 27.5469,5.33854 27.5469,5.85938 L27.5469,11.9219 C27.5469,12.7656 27.0885,13.349 26.1719,13.6719 L21.5781,15.4375 L21.5781,31.1563 M17.875,-9.46875 L9.57813,-6.54688 L9.57813,9.46875 L17.875,6.54688 L17.875,-9.46875 "/>
<path class="Accidental" transform="matrix(0.566929,0,0,0.566929,470.359,35.4331)" d="M21.5781,31.1563 C21.5781,32.3958 20.9609,33.0156 19.7266,33.0156 C18.4922,33.0156 17.875,32.3958 17.875,31.1563 L17.875,16.7031 L9.57813,19.8281 L9.57813,35.6406 C9.57813,36.8802 8.95833,37.5 7.71875,37.5 C6.47917,37.5 5.85938,36.8802 5.85938,35.6406 L5.85938,21.0938 L2.73438,22.2656 C2.67188,22.3281 2.41146,22.3594 1.95313,22.3594 C1.43229,22.3594 0.976563,22.1641 0.585938,21.7734 C0.195313,21.3828 0,20.9271 0,20.4063 L0,14.3594 C0,13.3802 0.421875,12.7604 1.26563,12.5 L5.85938,10.9375 L5.85938,-5.07813 L2.73438,-4 C2.67188,-3.9375 2.41146,-3.90625 1.95313,-3.90625 C1.43229,-3.90625 0.976563,-4.10156 0.585938,-4.49219 C0.195313,-4.88281 0,-5.33854 0,-5.85938 L0,-11.9219 C0,-12.8281 0.421875,-13.4115 1.26563,-13.6719 L5.85938,-15.4375 L5.85938,-31.1563 C5.85938,-32.3958 6.47917,-33.0156 7.71875,-33.0156 C8.95833,-33.0156 9.57813,-32.3958 9.57813,-31.1563 L9.57813,-16.7031 L17.875,-19.8281 L17.875,-35.6406 C17.875,-36.8802 18.4922,-37.5 19.7266,-37.5 C20.9609,-37.5 21.5781,-36.8802 21.5781,-35.6406 L21.5781,-21.0938 L24.8125,-22.2656 C24.875,-22.3281 25.099,-22.3594 25.4844,-22.3594 C25.9427,-22.3594 26.4323,-22.1667 26.9531,-21.7813 C27.349,-21.3854 27.5469,-20.9271 27.5469,-20.4063 L27.5469,-14.3594 C27.5469,-13.4427 27.0885,-12.8229 26.1719,-12.5 L21.5781,-10.9375 L21.5781,5.07813 L24.8125,4 C24.875,3.9375 25.099,3.90625 25.4844,3.90625 C25.9427,3.90625 26.4323,4.10417 26.9531,4.5 C27.349,4.88542 27.5469,5.33854 27.5469,5.85938 L27.5469,11.9219 C27.5469,12.7656 27.0885,13.349 26.1719,13.6719 L21.5781,15.4375 L21.5781,31.1563 M17.875,-9.46875 L9.57813,-6.54688 L9.57813,9.46875 L17.875,6.54688 L17.875,-9.46875 "/>
<polyline class="LedgerLine" fill="none" stroke="#000000" stroke-width="2.27" stroke-linecap="square" stroke-linejoin="bevel" points="552.387,170.079 579.551,170.079"/>
<polyline class="LedgerLine" fill="none" stroke="#000000" stroke-width="2.27" stroke-linecap="square" stroke-linejoin="bevel" points="487.672,35.4331 514.836,35.4331"/>
<polyline class="LedgerLine" fill="none" stroke="#000000" stroke-width="2.27" stroke-linecap="square" stroke-linejoin="bevel" points="552.387,35.4331 579.551,35.4331"/>
<path class="Note" fill="#ffffff" fill-opacity="0.0" fill-rule="evenodd" d="M104.913,692.717 L123.622,692.717 L123.622,717.52 L104.913,717.52 L104.913,692.717 "/>
<path class="Note" d="M107.736,702.899 C107.861,698.306 110.044,696.009 114.283,696.009 C116.169,696.009 117.7,696.55 118.877,697.634 C120.054,698.717 120.643,700.118 120.643,701.837 C120.643,704.306 119.242,706.306 116.44,707.837 L113.643,709.337 C112.424,709.993 111.554,710.629 111.033,711.243 C110.513,711.858 110.184,712.587 110.049,713.431 L120.502,713.431 L120.502,715.868 L107.283,715.868 C107.398,713.681 107.838,711.996 108.604,710.813 C109.369,709.631 110.789,708.451 112.861,707.274 L115.424,705.821 C117.216,704.79 118.111,703.483 118.111,701.899 C118.111,700.837 117.739,699.949 116.994,699.235 C116.249,698.522 115.32,698.165 114.205,698.165 C111.716,698.165 110.377,699.743 110.19,702.899 L107.736,702.899 "/>
<path class="Note" fill="#ffffff" fill-opacity="0.0" fill-rule="evenodd" d="M104.913,618.307 L123.622,618.307 L123.622,643.11 L104.913,643.11 L104.913,618.307 "/>
<path class="Note" d="M107.533,631.849 C107.533,630.193 107.674,628.73 107.955,627.459 C108.236,626.188 108.591,625.193 109.018,624.474 C109.445,623.756 109.958,623.172 110.557,622.724 C111.156,622.276 111.731,621.977 112.283,621.826 C112.835,621.675 113.419,621.599 114.033,621.599 C118.367,621.599 120.533,625.073 120.533,632.021 C120.533,635.292 119.976,637.789 118.861,639.513 C117.747,641.237 116.138,642.099 114.033,642.099 C111.908,642.099 110.294,641.227 109.19,639.482 C108.085,637.737 107.533,635.193 107.533,631.849 M118.002,631.802 C118.002,626.459 116.677,623.787 114.026,623.787 C111.374,623.787 110.049,626.485 110.049,631.881 C110.049,637.328 111.356,640.052 113.971,640.052 C115.356,640.052 116.374,639.381 117.026,638.037 C117.677,636.693 118.002,634.615 118.002,631.802"/>
<path class="Note" fill="#ffffff" fill-opacity="0.0" fill-rule="evenodd" d="M169.627,692.717 L188.336,692.717 L188.336,717.52 L169.627,717.52 L169.627,692.717 "/>
<path class="Note" d="M180.201,711.102 L171.826,711.102 L171.826,708.509 L180.842,696.009 L182.67,696.009 L182.67,708.899 L185.607,708.899 L185.607,711.102 L182.67,711.102 L182.67,715.868 L180.201,715.868 L180.201,711.102 M180.201,708.899 L180.201,700.212 L173.982,708.899 L180.201,708.899 "/>
<path class="Note" fill="#ffffff" fill-opacity="0.0" fill-rule="evenodd" d="M169.627,618.307 L188.336,618.307 L188.336,643.11 L169.627,643.11 L169.627,618.307 "/>
<path class="Note" d="M172.451,628.49 C172.576,623.896 174.758,621.599 178.998,621.599 C180.883,621.599 182.414,622.141 183.592,623.224 C184.769,624.308 185.357,625.709 185.357,627.427 C185.357,629.896 183.956,631.896 181.154,633.427 L178.357,634.927 C177.138,635.584 176.269,636.219 175.748,636.834 C175.227,637.448 174.899,638.177 174.763,639.021 L185.217,639.021 L185.217,641.459 L171.998,641.459 C172.112,639.271 172.553,637.586 173.318,636.404 C174.084,635.222 175.503,634.042 177.576,632.865 L180.138,631.412 C181.93,630.381 182.826,629.073 182.826,627.49 C182.826,626.427 182.454,625.539 181.709,624.826 C180.964,624.112 180.034,623.756 178.92,623.756 C176.43,623.756 175.092,625.334 174.904,628.49 L172.451,628.49 "/>
<path class="Note" fill="#ffffff" fill-opacity="0.0" fill-rule="evenodd" d="M234.342,667.913 L253.051,667.913 L253.051,692.717 L234.342,692.717 L234.342,667.913 "/>
<path class="Note" d="M236.962,681.456 C236.962,679.799 237.103,678.336 237.384,677.065 C237.665,675.794 238.02,674.799 238.447,674.081 C238.874,673.362 239.387,672.779 239.986,672.331 C240.585,671.883 241.16,671.583 241.712,671.432 C242.264,671.281 242.848,671.206 243.462,671.206 C247.796,671.206 249.962,674.68 249.962,681.627 C249.962,684.898 249.405,687.396 248.29,689.12 C247.176,690.844 245.566,691.706 243.462,691.706 C241.337,691.706 239.723,690.833 238.619,689.088 C237.514,687.344 236.962,684.799 236.962,681.456 M247.431,681.409 C247.431,676.065 246.106,673.393 243.454,673.393 C240.803,673.393 239.478,676.091 239.478,681.487 C239.478,686.935 240.785,689.659 243.4,689.659 C244.785,689.659 245.803,688.987 246.454,687.643 C247.106,686.299 247.431,684.221 247.431,681.409"/>
<path class="Note" fill="#ffffff" fill-opacity="0.0" fill-rule="evenodd" d="M234.342,618.307 L253.051,618.307 L253.051,643.11 L234.342,643.11 L234.342,618.307 "/>
<path class="Note" d="M243.322,623.756 C241.905,623.756 240.931,624.144 240.4,624.92 C239.869,625.696 239.582,626.73 239.54,628.021 L237.072,628.021 C237.165,623.74 239.238,621.599 243.29,621.599 C245.176,621.599 246.655,622.086 247.728,623.06 C248.801,624.034 249.337,625.37 249.337,627.068 C249.337,629.078 248.415,630.448 246.572,631.177 C247.759,631.594 248.616,632.17 249.142,632.904 C249.668,633.638 249.931,634.641 249.931,635.912 C249.931,637.797 249.319,639.3 248.095,640.42 C246.871,641.539 245.244,642.099 243.212,642.099 C239.139,642.099 236.952,639.964 236.65,635.693 L239.119,635.693 C239.212,637.131 239.595,638.193 240.267,638.881 C240.939,639.568 241.947,639.912 243.29,639.912 C244.582,639.912 245.59,639.563 246.314,638.865 C247.038,638.167 247.4,637.193 247.4,635.943 C247.4,633.537 246.03,632.334 243.29,632.334 L242.259,632.365 L241.947,632.365 L241.947,630.256 C243.718,630.224 244.973,630.003 245.712,629.591 C246.452,629.18 246.822,628.365 246.822,627.146 C246.822,626.105 246.509,625.279 245.884,624.67 C245.259,624.06 244.405,623.756 243.322,623.756"/>
<path class="Note" fill="#ffffff" fill-opacity="0.0" fill-rule="evenodd" d="M299.056,667.913 L317.765,667.913 L317.765,692.717 L299.056,692.717 L299.056,667.913 "/>
<path class="Note" d="M301.88,678.096 C302.005,673.502 304.187,671.206 308.427,671.206 C310.312,671.206 311.843,671.747 313.021,672.831 C314.198,673.914 314.786,675.315 314.786,677.034 C314.786,679.502 313.385,681.502 310.583,683.034 L307.786,684.534 C306.567,685.19 305.698,685.825 305.177,686.44 C304.656,687.055 304.328,687.784 304.192,688.627 L314.646,688.627 L314.646,691.065 L301.427,691.065 C301.541,688.877 301.981,687.193 302.747,686.01 C303.513,684.828 304.932,683.648 307.005,682.471 L309.567,681.018 C311.359,679.987 312.255,678.68 312.255,677.096 C312.255,676.034 311.883,675.146 311.138,674.432 C310.393,673.719 309.463,673.362 308.349,673.362 C305.859,673.362 304.521,674.94 304.333,678.096 L301.88,678.096 "/>
<path class="Note" fill="#ffffff" fill-opacity="0.0" fill-rule="evenodd" d="M299.056,593.504 L317.765,593.504 L317.765,618.307 L299.056,618.307 L299.056,593.504 "/>
<path class="Note" d="M301.677,607.046 C301.677,605.39 301.817,603.926 302.099,602.656 C302.38,601.385 302.734,600.39 303.161,599.671 C303.588,598.952 304.101,598.369 304.7,597.921 C305.299,597.473 305.875,597.174 306.427,597.023 C306.979,596.872 307.562,596.796 308.177,596.796 C312.51,596.796 314.677,600.27 314.677,607.218 C314.677,610.489 314.119,612.986 313.005,614.71 C311.89,616.434 310.281,617.296 308.177,617.296 C306.052,617.296 304.437,616.424 303.333,614.679 C302.229,612.934 301.677,610.39 301.677,607.046 M312.146,606.999 C312.146,601.656 310.82,598.984 308.169,598.984 C305.518,598.984 304.192,601.682 304.192,607.077 C304.192,612.525 305.5,615.249 308.114,615.249 C309.5,615.249 310.518,614.577 311.169,613.234 C311.82,611.89 312.146,609.812 312.146,606.999"/>
<path class="Note" fill="#ffffff" fill-opacity="0.0" fill-rule="evenodd" d="M363.771,667.913 L382.479,667.913 L382.479,692.717 L363.771,692.717 L363.771,667.913 "/>
<path class="Note" d="M374.344,686.299 L365.969,686.299 L365.969,683.706 L374.985,671.206 L376.813,671.206 L376.813,684.096 L379.751,684.096 L379.751,686.299 L376.813,686.299 L376.813,691.065 L374.344,691.065 L374.344,686.299 M374.344,684.096 L374.344,675.409 L368.126,684.096 L374.344,684.096 "/>
<path class="Note" fill="#ffffff" fill-opacity="0.0" fill-rule="evenodd" d="M363.771,593.504 L382.479,593.504 L382.479,618.307 L363.771,618.307 L363.771,593.504 "/>
<path class="Note" d="M366.594,603.687 C366.719,599.093 368.902,596.796 373.141,596.796 C375.027,596.796 376.558,597.338 377.735,598.421 C378.912,599.504 379.501,600.906 379.501,602.624 C379.501,605.093 378.1,607.093 375.298,608.624 L372.501,610.124 C371.282,610.781 370.412,611.416 369.891,612.031 C369.37,612.645 369.042,613.374 368.907,614.218 L379.36,614.218 L379.36,616.656 L366.141,616.656 C366.256,614.468 366.696,612.783 367.462,611.601 C368.227,610.419 369.646,609.239 371.719,608.062 L374.282,606.609 C376.074,605.577 376.969,604.27 376.969,602.687 C376.969,601.624 376.597,600.736 375.852,600.023 C375.107,599.309 374.178,598.952 373.063,598.952 C370.574,598.952 369.235,600.531 369.048,603.687 L366.594,603.687 "/>
<path class="Note" fill="#ffffff" fill-opacity="0.0" fill-rule="evenodd" d="M428.485,643.11 L447.194,643.11 L447.194,667.913 L428.485,667.913 L428.485,643.11 "/>
<path class="Note" d="M437.153,652.121 L432.762,652.121 L432.762,650.356 C434.668,650.116 435.91,649.78 436.489,649.348 C437.067,648.915 437.569,647.934 437.996,646.402 L439.621,646.402 L439.621,666.262 L437.153,666.262 L437.153,652.121 "/>
<path class="Note" fill="#ffffff" fill-opacity="0.0" fill-rule="evenodd" d="M428.485,593.504 L447.194,593.504 L447.194,618.307 L428.485,618.307 L428.485,593.504 "/>
<path class="Note" d="M439.059,611.89 L430.684,611.89 L430.684,609.296 L439.699,596.796 L441.528,596.796 L441.528,609.687 L444.465,609.687 L444.465,611.89 L441.528,611.89 L441.528,616.656 L439.059,616.656 L439.059,611.89 M439.059,609.687 L439.059,600.999 L432.84,609.687 L439.059,609.687 "/>
<path class="Note" fill="#ffffff" fill-opacity="0.0" fill-rule="evenodd" d="M493.2,643.11 L511.908,643.11 L511.908,667.913 L493.2,667.913 L493.2,643.11 "/>
<path class="Note" d="M502.18,648.559 C500.763,648.559 499.789,648.947 499.258,649.723 C498.726,650.499 498.44,651.533 498.398,652.824 L495.93,652.824 C496.023,648.543 498.096,646.402 502.148,646.402 C504.034,646.402 505.513,646.889 506.586,647.863 C507.659,648.837 508.195,650.173 508.195,651.871 C508.195,653.882 507.273,655.251 505.43,655.981 C506.617,656.397 507.474,656.973 508,657.707 C508.526,658.442 508.789,659.444 508.789,660.715 C508.789,662.6 508.177,664.103 506.953,665.223 C505.729,666.343 504.101,666.902 502.07,666.902 C497.997,666.902 495.81,664.767 495.508,660.496 L497.976,660.496 C498.07,661.934 498.453,662.996 499.125,663.684 C499.797,664.371 500.805,664.715 502.148,664.715 C503.44,664.715 504.448,664.366 505.172,663.668 C505.896,662.97 506.258,661.996 506.258,660.746 C506.258,658.34 504.888,657.137 502.148,657.137 L501.117,657.168 L500.805,657.168 L500.805,655.059 C502.575,655.027 503.831,654.806 504.57,654.395 C505.31,653.983 505.68,653.168 505.68,651.949 C505.68,650.908 505.367,650.082 504.742,649.473 C504.117,648.863 503.263,648.559 502.18,648.559"/>
<path class="Note" fill="#ffffff" fill-opacity="0.0" fill-rule="evenodd" d="M493.2,593.504 L511.908,593.504 L511.908,618.307 L493.2,618.307 L493.2,593.504 "/>
<path class="Note" d="M495.82,607.609 C495.82,605.859 495.979,604.314 496.297,602.976 C496.614,601.637 497.01,600.588 497.484,599.827 C497.958,599.067 498.529,598.447 499.195,597.968 C499.862,597.489 500.489,597.174 501.078,597.023 C501.667,596.872 502.284,596.796 502.93,596.796 C504.44,596.796 505.695,597.254 506.695,598.171 C507.695,599.088 508.315,600.359 508.555,601.984 L506.101,601.984 C505.893,601.036 505.5,600.299 504.922,599.773 C504.344,599.247 503.622,598.984 502.758,598.984 C501.341,598.984 500.255,599.632 499.5,600.929 C498.745,602.226 498.357,604.088 498.336,606.515 C499.419,605.046 500.94,604.312 502.898,604.312 C504.68,604.312 506.138,604.9 507.273,606.077 C508.409,607.254 508.976,608.765 508.976,610.609 C508.976,612.546 508.367,614.145 507.148,615.406 C505.93,616.666 504.377,617.296 502.492,617.296 C498.044,617.296 495.82,614.067 495.82,607.609 M502.601,606.499 C501.383,606.499 500.391,606.885 499.625,607.656 C498.859,608.426 498.476,609.432 498.476,610.671 C498.476,611.932 498.859,612.986 499.625,613.835 C500.391,614.684 501.351,615.109 502.508,615.109 C503.654,615.109 504.599,614.705 505.344,613.898 C506.088,613.09 506.461,612.057 506.461,610.796 C506.461,609.473 506.114,608.426 505.422,607.656 C504.729,606.885 503.789,606.499 502.601,606.499"/>
<path class="Note" fill="#ffffff" fill-opacity="0.0" fill-rule="evenodd" d="M557.914,618.307 L576.623,618.307 L576.623,643.11 L557.914,643.11 L557.914,618.307 "/>
<path class="Note" d="M560.535,631.849 C560.535,630.193 560.675,628.73 560.957,627.459 C561.238,626.188 561.592,625.193 562.019,624.474 C562.446,623.756 562.959,623.172 563.558,622.724 C564.157,622.276 564.733,621.977 565.285,621.826 C565.837,621.675 566.42,621.599 567.035,621.599 C571.368,621.599 573.535,625.073 573.535,632.021 C573.535,635.292 572.977,637.789 571.863,639.513 C570.748,641.237 569.139,642.099 567.035,642.099 C564.91,642.099 563.295,641.227 562.191,639.482 C561.087,637.737 560.535,635.193 560.535,631.849 M571.003,631.802 C571.003,626.459 569.678,623.787 567.027,623.787 C564.376,623.787 563.05,626.485 563.05,631.881 C563.05,637.328 564.358,640.052 566.972,640.052 C568.358,640.052 569.376,639.381 570.027,638.037 C570.678,636.693 571.003,634.615 571.003,631.802"/>
<path class="Note" fill="#ffffff" fill-opacity="0.0" fill-rule="evenodd" d="M557.914,593.504 L576.623,593.504 L576.623,618.307 L557.914,618.307 L557.914,593.504 "/>
<path class="Note" d="M573.894,596.796 L573.894,598.874 C571.654,601.864 569.886,604.781 568.589,607.624 C567.292,610.468 566.373,613.478 565.832,616.656 L563.191,616.656 C563.941,613.385 564.894,610.51 566.05,608.031 C567.207,605.551 568.972,602.619 571.347,599.234 L560.613,599.234 L560.613,596.796 L573.894,596.796 "/>
<path class="Note" fill="#ffffff" fill-opacity="0.0" fill-rule="evenodd" d="M104.913,515.551 L123.622,515.551 L123.622,540.354 L104.913,540.354 L104.913,515.551 "/>
<path class="Note" d="M115.486,533.937 L107.111,533.937 L107.111,531.343 L116.127,518.843 L117.955,518.843 L117.955,531.734 L120.893,531.734 L120.893,533.937 L117.955,533.937 L117.955,538.703 L115.486,538.703 L115.486,533.937 M115.486,531.734 L115.486,523.047 L109.268,531.734 L115.486,531.734 "/>
<path class="Note" fill="#ffffff" fill-opacity="0.0" fill-rule="evenodd" d="M104.913,465.945 L123.622,465.945 L123.622,490.748 L104.913,490.748 L104.913,465.945 "/>
<path class="Note" d="M107.736,476.128 C107.861,471.534 110.044,469.237 114.283,469.237 C116.169,469.237 117.7,469.779 118.877,470.862 C120.054,471.945 120.643,473.346 120.643,475.065 C120.643,477.534 119.242,479.534 116.44,481.065 L113.643,482.565 C112.424,483.221 111.554,483.857 111.033,484.471 C110.513,485.086 110.184,485.815 110.049,486.659 L120.502,486.659 L120.502,489.096 L107.283,489.096 C107.398,486.909 107.838,485.224 108.604,484.042 C109.369,482.859 110.789,481.68 112.861,480.503 L115.424,479.05 C117.216,478.018 118.111,476.711 118.111,475.128 C118.111,474.065 117.739,473.177 116.994,472.464 C116.249,471.75 115.32,471.393 114.205,471.393 C111.716,471.393 110.377,472.971 110.19,476.128 L107.736,476.128 "/>
<path class="Note" fill="#ffffff" fill-opacity="0.0" fill-rule="evenodd" d="M169.627,515.551 L188.336,515.551 L188.336,540.354 L169.627,540.354 L169.627,515.551 "/>
<path class="Note" d="M172.248,529.656 C172.248,527.906 172.407,526.362 172.724,525.023 C173.042,523.685 173.438,522.635 173.912,521.875 C174.386,521.114 174.956,520.494 175.623,520.015 C176.289,519.536 176.917,519.221 177.506,519.07 C178.094,518.919 178.711,518.843 179.357,518.843 C180.868,518.843 182.123,519.302 183.123,520.218 C184.123,521.135 184.743,522.406 184.982,524.031 L182.529,524.031 C182.321,523.083 181.928,522.346 181.349,521.82 C180.771,521.294 180.05,521.031 179.185,521.031 C177.769,521.031 176.683,521.679 175.928,522.976 C175.172,524.273 174.784,526.135 174.763,528.562 C175.847,527.093 177.368,526.359 179.326,526.359 C181.107,526.359 182.566,526.948 183.701,528.125 C184.836,529.302 185.404,530.812 185.404,532.656 C185.404,534.593 184.795,536.192 183.576,537.453 C182.357,538.713 180.805,539.343 178.92,539.343 C174.472,539.343 172.248,536.114 172.248,529.656 M179.029,528.547 C177.81,528.547 176.818,528.932 176.053,529.703 C175.287,530.474 174.904,531.479 174.904,532.718 C174.904,533.979 175.287,535.033 176.053,535.882 C176.818,536.731 177.779,537.156 178.935,537.156 C180.081,537.156 181.026,536.752 181.771,535.945 C182.516,535.138 182.888,534.104 182.888,532.843 C182.888,531.52 182.542,530.474 181.849,529.703 C181.157,528.932 180.217,528.547 179.029,528.547"/>
<path class="Note" fill="#ffffff" fill-opacity="0.0" fill-rule="evenodd" d="M169.627,465.945 L188.336,465.945 L188.336,490.748 L169.627,490.748 L169.627,465.945 "/>
<path class="Note" d="M180.201,484.331 L171.826,484.331 L171.826,481.737 L180.842,469.237 L182.67,469.237 L182.67,482.128 L185.607,482.128 L185.607,484.331 L182.67,484.331 L182.67,489.096 L180.201,489.096 L180.201,484.331 M180.201,482.128 L180.201,473.44 L173.982,482.128 L180.201,482.128 "/>
<path class="Note" fill="#ffffff" fill-opacity="0.0" fill-rule="evenodd" d="M234.342,490.748 L253.051,490.748 L253.051,515.551 L234.342,515.551 L234.342,490.748 "/>
<path class="Note" d="M236.962,504.29 C236.962,502.634 237.103,501.17 237.384,499.9 C237.665,498.629 238.02,497.634 238.447,496.915 C238.874,496.196 239.387,495.613 239.986,495.165 C240.585,494.717 241.16,494.418 241.712,494.267 C242.264,494.116 242.848,494.04 243.462,494.04 C247.796,494.04 249.962,497.514 249.962,504.462 C249.962,507.733 249.405,510.23 248.29,511.954 C247.176,513.678 245.566,514.54 243.462,514.54 C241.337,514.54 239.723,513.668 238.619,511.923 C237.514,510.178 236.962,507.634 236.962,504.29 M247.431,504.243 C247.431,498.9 246.106,496.228 243.454,496.228 C240.803,496.228 239.478,498.926 239.478,504.321 C239.478,509.769 240.785,512.493 243.4,512.493 C244.785,512.493 245.803,511.821 246.454,510.478 C247.106,509.134 247.431,507.056 247.431,504.243"/>
<path class="Note" fill="#ffffff" fill-opacity="0.0" fill-rule="evenodd" d="M234.342,465.945 L253.051,465.945 L253.051,490.748 L234.342,490.748 L234.342,465.945 "/>
<path class="Note" d="M249.087,469.237 L249.087,471.675 L240.822,471.675 L240.04,477.221 C241.145,476.419 242.369,476.018 243.712,476.018 C245.619,476.018 247.163,476.63 248.345,477.854 C249.527,479.078 250.119,480.669 250.119,482.628 C250.119,484.721 249.486,486.43 248.22,487.753 C246.954,489.076 245.322,489.737 243.322,489.737 C242.551,489.737 241.845,489.654 241.204,489.487 C240.564,489.32 240.033,489.12 239.611,488.886 C239.189,488.651 238.806,488.344 238.462,487.964 C238.119,487.583 237.858,487.248 237.681,486.956 C237.504,486.664 237.335,486.3 237.173,485.862 C237.012,485.425 236.913,485.123 236.876,484.956 C236.84,484.789 236.796,484.544 236.744,484.221 L239.197,484.221 C239.78,486.44 241.134,487.55 243.259,487.55 C244.603,487.55 245.663,487.141 246.439,486.323 C247.215,485.505 247.603,484.388 247.603,482.971 C247.603,481.492 247.21,480.328 246.423,479.479 C245.637,478.63 244.582,478.206 243.259,478.206 C242.499,478.206 241.848,478.341 241.306,478.612 C240.764,478.883 240.202,479.362 239.619,480.05 L237.353,480.05 L238.837,469.237 L249.087,469.237 "/>
<path class="Note" fill="#ffffff" fill-opacity="0.0" fill-rule="evenodd" d="M299.056,490.748 L317.765,490.748 L317.765,515.551 L299.056,515.551 L299.056,490.748 "/>
<path class="Note" d="M301.88,500.931 C302.005,496.337 304.187,494.04 308.427,494.04 C310.312,494.04 311.843,494.582 313.021,495.665 C314.198,496.749 314.786,498.15 314.786,499.868 C314.786,502.337 313.385,504.337 310.583,505.868 L307.786,507.368 C306.567,508.025 305.698,508.66 305.177,509.275 C304.656,509.889 304.328,510.618 304.192,511.462 L314.646,511.462 L314.646,513.9 L301.427,513.9 C301.541,511.712 301.981,510.027 302.747,508.845 C303.513,507.663 304.932,506.483 307.005,505.306 L309.567,503.853 C311.359,502.821 312.255,501.514 312.255,499.931 C312.255,498.868 311.883,497.98 311.138,497.267 C310.393,496.553 309.463,496.196 308.349,496.196 C305.859,496.196 304.521,497.775 304.333,500.931 L301.88,500.931 "/>
<path class="Note" fill="#ffffff" fill-opacity="0.0" fill-rule="evenodd" d="M299.056,441.142 L317.765,441.142 L317.765,465.945 L299.056,465.945 L299.056,441.142 "/>
<path class="Note" d="M301.677,454.684 C301.677,453.028 301.817,451.564 302.099,450.293 C302.38,449.022 302.734,448.028 303.161,447.309 C303.588,446.59 304.101,446.007 304.7,445.559 C305.299,445.111 305.875,444.812 306.427,444.661 C306.979,444.509 307.562,444.434 308.177,444.434 C312.51,444.434 314.677,447.908 314.677,454.856 C314.677,458.127 314.119,460.624 313.005,462.348 C311.89,464.072 310.281,464.934 308.177,464.934 C306.052,464.934 304.437,464.062 303.333,462.317 C302.229,460.572 301.677,458.028 301.677,454.684 M312.146,454.637 C312.146,449.293 310.82,446.621 308.169,446.621 C305.518,446.621 304.192,449.319 304.192,454.715 C304.192,460.163 305.5,462.887 308.114,462.887 C309.5,462.887 310.518,462.215 311.169,460.871 C311.82,459.528 312.146,457.45 312.146,454.637"/>
<path class="Note" fill="#ffffff" fill-opacity="0.0" fill-rule="evenodd" d="M363.771,490.748 L382.479,490.748 L382.479,515.551 L363.771,515.551 L363.771,490.748 "/>
<path class="Note" d="M374.344,509.134 L365.969,509.134 L365.969,506.54 L374.985,494.04 L376.813,494.04 L376.813,506.931 L379.751,506.931 L379.751,509.134 L376.813,509.134 L376.813,513.9 L374.344,513.9 L374.344,509.134 M374.344,506.931 L374.344,498.243 L368.126,506.931 L374.344,506.931 "/>
<path class="Note" fill="#ffffff" fill-opacity="0.0" fill-rule="evenodd" d="M363.771,441.142 L382.479,441.142 L382.479,465.945 L363.771,465.945 L363.771,441.142 "/>
<path class="Note" d="M366.594,451.325 C366.719,446.731 368.902,444.434 373.141,444.434 C375.027,444.434 376.558,444.976 377.735,446.059 C378.912,447.142 379.501,448.543 379.501,450.262 C379.501,452.731 378.1,454.731 375.298,456.262 L372.501,457.762 C371.282,458.418 370.412,459.054 369.891,459.668 C369.37,460.283 369.042,461.012 368.907,461.856 L379.36,461.856 L379.36,464.293 L366.141,464.293 C366.256,462.106 366.696,460.421 367.462,459.239 C368.227,458.056 369.646,456.877 371.719,455.7 L374.282,454.246 C376.074,453.215 376.969,451.908 376.969,450.325 C376.969,449.262 376.597,448.374 375.852,447.661 C375.107,446.947 374.178,446.59 373.063,446.59 C370.574,446.59 369.235,448.168 369.048,451.325 L366.594,451.325 "/>
<path class="Note" fill="#ffffff" fill-opacity="0.0" fill-rule="evenodd" d="M428.485,490.748 L447.194,490.748 L447.194,515.551 L428.485,515.551 L428.485,490.748 "/>
<path class="Note" d="M431.106,504.853 C431.106,503.103 431.265,501.558 431.582,500.22 C431.9,498.881 432.296,497.832 432.77,497.071 C433.244,496.311 433.814,495.691 434.481,495.212 C435.147,494.733 435.775,494.418 436.364,494.267 C436.952,494.116 437.569,494.04 438.215,494.04 C439.726,494.04 440.981,494.499 441.981,495.415 C442.981,496.332 443.601,497.603 443.84,499.228 L441.387,499.228 C441.179,498.28 440.785,497.543 440.207,497.017 C439.629,496.491 438.908,496.228 438.043,496.228 C436.627,496.228 435.541,496.876 434.785,498.173 C434.03,499.47 433.642,501.332 433.621,503.759 C434.705,502.29 436.226,501.556 438.184,501.556 C439.965,501.556 441.423,502.144 442.559,503.321 C443.694,504.499 444.262,506.009 444.262,507.853 C444.262,509.79 443.653,511.389 442.434,512.65 C441.215,513.91 439.663,514.54 437.778,514.54 C433.33,514.54 431.106,511.311 431.106,504.853 M437.887,503.743 C436.668,503.743 435.676,504.129 434.91,504.9 C434.145,505.67 433.762,506.676 433.762,507.915 C433.762,509.176 434.145,510.23 434.91,511.079 C435.676,511.928 436.637,512.353 437.793,512.353 C438.939,512.353 439.884,511.949 440.629,511.142 C441.374,510.335 441.746,509.301 441.746,508.04 C441.746,506.717 441.4,505.67 440.707,504.9 C440.015,504.129 439.074,503.743 437.887,503.743"/>
<path class="Note" fill="#ffffff" fill-opacity="0.0" fill-rule="evenodd" d="M428.485,441.142 L447.194,441.142 L447.194,465.945 L428.485,465.945 L428.485,441.142 "/>
<path class="Note" d="M439.059,459.528 L430.684,459.528 L430.684,456.934 L439.699,444.434 L441.528,444.434 L441.528,457.325 L444.465,457.325 L444.465,459.528 L441.528,459.528 L441.528,464.293 L439.059,464.293 L439.059,459.528 M439.059,457.325 L439.059,448.637 L432.84,457.325 L439.059,457.325 "/>
<path class="Note" fill="#ffffff" fill-opacity="0.0" fill-rule="evenodd" d="M493.2,465.945 L511.908,465.945 L511.908,490.748 L493.2,490.748 L493.2,465.945 "/>
<path class="Note" d="M501.867,474.956 L497.476,474.956 L497.476,473.19 C499.383,472.951 500.625,472.615 501.203,472.182 C501.781,471.75 502.284,470.768 502.711,469.237 L504.336,469.237 L504.336,489.096 L501.867,489.096 L501.867,474.956 "/>
<path class="Note" fill="#ffffff" fill-opacity="0.0" fill-rule="evenodd" d="M493.2,441.142 L511.908,441.142 L511.908,465.945 L493.2,465.945 L493.2,441.142 "/>
<path class="Note" d="M495.82,455.246 C495.82,453.496 495.979,451.952 496.297,450.614 C496.614,449.275 497.01,448.226 497.484,447.465 C497.958,446.705 498.529,446.085 499.195,445.606 C499.862,445.127 500.489,444.812 501.078,444.661 C501.667,444.509 502.284,444.434 502.93,444.434 C504.44,444.434 505.695,444.892 506.695,445.809 C507.695,446.726 508.315,447.996 508.555,449.621 L506.101,449.621 C505.893,448.674 505.5,447.937 504.922,447.411 C504.344,446.884 503.622,446.621 502.758,446.621 C501.341,446.621 500.255,447.27 499.5,448.567 C498.745,449.864 498.357,451.726 498.336,454.153 C499.419,452.684 500.94,451.95 502.898,451.95 C504.68,451.95 506.138,452.538 507.273,453.715 C508.409,454.892 508.976,456.403 508.976,458.246 C508.976,460.184 508.367,461.783 507.148,463.043 C505.93,464.304 504.377,464.934 502.492,464.934 C498.044,464.934 495.82,461.705 495.82,455.246 M502.601,454.137 C501.383,454.137 500.391,454.522 499.625,455.293 C498.859,456.064 498.476,457.069 498.476,458.309 C498.476,459.569 498.859,460.624 499.625,461.473 C500.391,462.322 501.351,462.746 502.508,462.746 C503.654,462.746 504.599,462.343 505.344,461.536 C506.088,460.728 506.461,459.694 506.461,458.434 C506.461,457.111 506.114,456.064 505.422,455.293 C504.729,454.522 503.789,454.137 502.601,454.137"/>
<path class="Note" fill="#ffffff" fill-opacity="0.0" fill-rule="evenodd" d="M557.914,465.945 L576.623,465.945 L576.623,490.748 L557.914,490.748 L557.914,465.945 "/>
<path class="Note" d="M560.738,476.128 C560.863,471.534 563.045,469.237 567.285,469.237 C569.17,469.237 570.701,469.779 571.878,470.862 C573.056,471.945 573.644,473.346 573.644,475.065 C573.644,477.534 572.243,479.534 569.441,481.065 L566.644,482.565 C565.425,483.221 564.556,483.857 564.035,484.471 C563.514,485.086 563.186,485.815 563.05,486.659 L573.503,486.659 L573.503,489.096 L560.285,489.096 C560.399,486.909 560.839,485.224 561.605,484.042 C562.371,482.859 563.79,481.68 565.863,480.503 L568.425,479.05 C570.217,478.018 571.113,476.711 571.113,475.128 C571.113,474.065 570.74,473.177 569.996,472.464 C569.251,471.75 568.321,471.393 567.207,471.393 C564.717,471.393 563.378,472.971 563.191,476.128 L560.738,476.128 "/>
<path class="Note" fill="#ffffff" fill-opacity="0.0" fill-rule="evenodd" d="M557.914,441.142 L576.623,441.142 L576.623,465.945 L557.914,465.945 L557.914,441.142 "/>
<path class="Note" d="M573.894,444.434 L573.894,446.512 C571.654,449.502 569.886,452.418 568.589,455.262 C567.292,458.106 566.373,461.116 565.832,464.293 L563.191,464.293 C563.941,461.022 564.894,458.147 566.05,455.668 C567.207,453.189 568.972,450.257 571.347,446.871 L560.613,446.871 L560.613,444.434 L573.894,444.434 "/>
<path class="Note" transform="matrix(0.566929,0,0,0.566929,103.637,361.417)" d="M21.9688,-13.7656 C25.0938,-13.7656 27.7344,-12.9531 29.8906,-11.3281 C31.901,-9.56771 32.9063,-7.35417 32.9063,-4.6875 C32.9063,-0.197917 30.599,4 25.9844,7.90625 C21.2969,11.8125 16.2813,13.7656 10.9375,13.7656 C7.8125,13.7656 5.17708,12.9531 3.03125,11.3281 C1.01042,9.56771 0,7.35417 0,4.6875 C0,0.197917 2.34375,-4 7.03125,-7.90625 C11.5938,-11.8125 16.5729,-13.7656 21.9688,-13.7656"/>
<path class="Note" transform="matrix(0.566929,0,0,0.566929,168.352,354.331)" d="M21.9688,-13.7656 C25.0938,-13.7656 27.7344,-12.9531 29.8906,-11.3281 C31.901,-9.56771 32.9063,-7.35417 32.9063,-4.6875 C32.9063,-0.197917 30.599,4 25.9844,7.90625 C21.2969,11.8125 16.2813,13.7656 10.9375,13.7656 C7.8125,13.7656 5.17708,12.9531 3.03125,11.3281 C1.01042,9.56771 0,7.35417 0,4.6875 C0,0.197917 2.34375,-4 7.03125,-7.90625 C11.5938,-11.8125 16.5729,-13.7656 21.9688,-13.7656"/>
<path class="Note" transform="matrix(0.566929,0,0,0.566929,233.066,347.244)" d="M21.9688,-13.7656 C25.0938,-13.7656 27.7344,-12.9531 29.8906,-11.3281 C31.901,-9.56771 32.9063,-7.35417 32.9063,-4.6875 C32.9063,-0.197917 30.599,4 25.9844,7.90625 C21.2969,11.8125 16.2813,13.7656 10.9375,13.7656 C7.8125,13.7656 5.17708,12.9531 3.03125,11.3281 C1.01042,9.56771 0,7.35417 0,4.6875 C0,0.197917 2.34375,-4 7.03125,-7.90625 C11.5938,-11.8125 16.5729,-13.7656 21.9688,-13.7656"/>
<path class="Note" transform="matrix(0.566929,0,0,0.566929,297.781,340.157)" d="M21.9688,-13.7656 C25.0938,-13.7656 27.7344,-12.9531 29.8906,-11.3281 C31.901,-9.56771 32.9063,-7.35417 32.9063,-4.6875 C32.9063,-0.197917 30.599,4 25.9844,7.90625 C21.2969,11.8125 16.2813,13.7656 10.9375,13.7656 C7.8125,13.7656 5.17708,12.9531 3.03125,11.3281 C1.01042,9.56771 0,7.35417 0,4.6875 C0,0.197917 2.34375,-4 7.03125,-7.90625 C11.5938,-11.8125 16.5729,-13.7656 21.9688,-13.7656"/>
<path class="Note" transform="matrix(0.566929,0,0,0.566929,362.495,333.071)" d="M21.9688,-13.7656 C25.0938,-13.7656 27.7344,-12.9531 29.8906,-11.3281 C31.901,-9.56771 32.9063,-7.35417 32.9063,-4.6875 C32.9063,-0.197917 30.599,4 25.9844,7.90625 C21.2969,11.8125 16.2813,13.7656 10.9375,13.7656 C7.8125,13.7656 5.17708,12.9531 3.03125,11.3281 C1.01042,9.56771 0,7.35417 0,4.6875 C0,0.197917 2.34375,-4 7.03125,-7.90625 C11.5938,-11.8125 16.5729,-13.7656 21.9688,-13.7656"/>
<path class="Note" transform="matrix(0.566929,0,0,0.566929,427.21,325.984)" d="M21.9688,-13.7656 C25.0938,-13.7656 27.7344,-12.9531 29.8906,-11.3281 C31.901,-9.56771 32.9063,-7.35417 32.9063,-4.6875 C32.9063,-0.197917 30.599,4 25.9844,7.90625 C21.2969,11.8125 16.2813,13.7656 10.9375,13.7656 C7.8125,13.7656 5.17708,12.9531 3.03125,11.3281 C1.01042,9.56771 0,7.35417 0,4.6875 C0,0.197917 2.34375,-4 7.03125,-7.90625 C11.5938,-11.8125 16.5729,-13.7656 21.9688,-13.7656"/>
<path class="Note" transform="matrix(0.566929,0,0,0.566929,491.924,318.898)" d="M21.9688,-13.7656 C25.0938,-13.7656 27.7344,-12.9531 29.8906,-11.3281 C31.901,-9.56771 32.9063,-7.35417 32.9063,-4.6875 C32.9063,-0.197917 30.599,4 25.9844,7.90625 C21.2969,11.8125 16.2813,13.7656 10.9375,13.7656 C7.8125,13.7656 5.17708,12.9531 3.03125,11.3281 C1.01042,9.56771 0,7.35417 0,4.6875 C0,0.197917 2.34375,-4 7.03125,-7.90625 C11.5938,-11.8125 16.5729,-13.7656 21.9688,-13.7656"/>
<path class="Note" transform="matrix(0.566929,0,0,0.566929,556.639,311.811)" d="M21.9688,-13.7656 C25.0938,-13.7656 27.7344,-12.9531 29.8906,-11.3281 C31.901,-9.56771 32.9063,-7.35417 32.9063,-4.6875 C32.9063,-0.197917 30.599,4 25.9844,7.90625 C21.2969,11.8125 16.2813,13.7656 10.9375,13.7656 C7.8125,13.7656 5.17708,12.9531 3.03125,11.3281 C1.01042,9.56771 0,7.35417 0,4.6875 C0,0.197917 2.34375,-4 7.03125,-7.90625 C11.5938,-11.8125 16.5729,-13.7656 21.9688,-13.7656"/>
<path class="Note" transform="matrix(0.566929,0,0,0.566929,103.637,219.685)" d="M21.9688,-13.7656 C25.0938,-13.7656 27.7344,-12.9531 29.8906,-11.3281 C31.901,-9.56771 32.9063,-7.35417 32.9063,-4.6875 C32.9063,-0.197917 30.599,4 25.9844,7.90625 C21.2969,11.8125 16.2813,13.7656 10.9375,13.7656 C7.8125,13.7656 5.17708,12.9531 3.03125,11.3281 C1.01042,9.56771 0,7.35417 0,4.6875 C0,0.197917 2.34375,-4 7.03125,-7.90625 C11.5938,-11.8125 16.5729,-13.7656 21.9688,-13.7656"/>
<path class="Note" transform="matrix(0.566929,0,0,0.566929,168.352,212.598)" d="M21.9688,-13.7656 C25.0938,-13.7656 27.7344,-12.9531 29.8906,-11.3281 C31.901,-9.56771 32.9063,-7.35417 32.9063,-4.6875 C32.9063,-0.197917 30.599,4 25.9844,7.90625 C21.2969,11.8125 16.2813,13.7656 10.9375,13.7656 C7.8125,13.7656 5.17708,12.9531 3.03125,11.3281 C1.01042,9.56771 0,7.35417 0,4.6875 C0,0.197917 2.34375,-4 7.03125,-7.90625 C11.5938,-11.8125 16.5729,-13.7656 21.9688,-13.7656"/>
<path class="Note" transform="matrix(0.566929,0,0,0.566929,233.066,205.512)" d="M21.9688,-13.7656 C25.0938,-13.7656 27.7344,-12.9531 29.8906,-11.3281 C31.901,-9.56771 32.9063,-7.35417 32.9063,-4.6875 C32.9063,-0.197917 30.599,4 25.9844,7.90625 C21.2969,11.8125 16.2813,13.7656 10.9375,13.7656 C7.8125,13.7656 5.17708,12.9531 3.03125,11.3281 C1.01042,9.56771 0,7.35417 0,4.6875 C0,0.197917 2.34375,-4 7.03125,-7.90625 C11.5938,-11.8125 16.5729,-13.7656 21.9688,-13.7656"/>
<path class="Note" transform="matrix(0.566929,0,0,0.566929,297.781,198.425)" d="M21.9688,-13.7656 C25.0938,-13.7656 27.7344,-12.9531 29.8906,-11.3281 C31.901,-9.56771 32.9063,-7.35417 32.9063,-4.6875 C32.9063,-0.197917 30.599,4 25.9844,7.90625 C21.2969,11.8125 16.2813,13.7656 10.9375,13.7656 C7.8125,13.7656 5.17708,12.9531 3.03125,11.3281 C1.01042,9.56771 0,7.35417 0,4.6875 C0,0.197917 2.34375,-4 7.03125,-7.90625 C11.5938,-11.8125 16.5729,-13.7656 21.9688,-13.7656"/>
<path class="Note" transform="matrix(0.566929,0,0,0.566929,362.495,191.339)" d="M21.9688,-13.7656 C25.0938,-13.7656 27.7344,-12.9531 29.8906,-11.3281 C31.901,-9.56771 32.9063,-7.35417 32.9063,-4.6875 C32.9063,-0.197917 30.599,4 25.9844,7.90625 C21.2969,11.8125 16.2813,13.7656 10.9375,13.7656 C7.8125,13.7656 5.17708,12.9531 3.03125,11.3281 C1.01042,9.56771 0,7.35417 0,4.6875 C0,0.197917 2.34375,-4 7.03125,-7.90625 C11.5938,-11.8125 16.5729,-13.7656 21.9688,-13.7656"/>
<path class="Note" transform="matrix(0.566929,0,0,0.566929,427.21,184.252)" d="M21.9688,-13.7656 C25.0938,-13.7656 27.7344,-12.9531 29.8906,-11.3281 C31.901,-9.56771 32.9063,-7.35417 32.9063,-4.6875 C32.9063,-0.197917 30.599,4 25.9844,7.90625 C21.2969,11.8125 16.2813,13.7656 10.9375,13.7656 C7.8125,13.7656 5.17708,12.9531 3.03125,11.3281 C1.01042,9.56771 0,7.35417 0,4.6875 C0,0.197917 2.34375,-4 7.03125,-7.90625 C11.5938,-11.8125 16.5729,-13.7656 21.9688,-13.7656"/>
<path class="Note" transform="matrix(0.566929,0,0,0.566929,491.924,177.165)" d="M21.9688,-13.7656 C25.0938,-13.7656 27.7344,-12.9531 29.8906,-11.3281 C31.901,-9.56771 32.9063,-7.35417 32.9063,-4.6875 C32.9063,-0.197917 30.599,4 25.9844,7.90625 C21.2969,11.8125 16.2813,13.7656 10.9375,13.7656 C7.8125,13.7656 5.17708,12.9531 3.03125,11.3281 C1.01042,9.56771 0,7.35417 0,4.6875 C0,0.197917 2.34375,-4 7.03125,-7.90625 C11.5938,-11.8125 16.5729,-13.7656 21.9688,-13.7656"/>
<path class="Note" transform="matrix(0.566929,0,0,0.566929,556.639,170.079)" d="M21.9688,-13.7656 C25.0938,-13.7656 27.7344,-12.9531 29.8906,-11.3281 C31.901,-9.56771 32.9063,-7.35417 32.9063,-4.6875 C32.9063,-0.197917 30.599,4 25.9844,7.90625 C21.2969,11.8125 16.2813,13.7656 10.9375,13.7656 C7.8125,13.7656 5.17708,12.9531 3.03125,11.3281 C1.01042,9.56771 0,7.35417 0,4.6875 C0,0.197917 2.34375,-4 7.03125,-7.90625 C11.5938,-11.8125 16.5729,-13.7656 21.9688,-13.7656"/>
<path class="Note" transform="matrix(0.566929,0,0,0.566929,103.637,77.9528)" d="M21.9688,-13.7656 C25.0938,-13.7656 27.7344,-12.9531 29.8906,-11.3281 C31.901,-9.56771 32.9063,-7.35417 32.9063,-4.6875 C32.9063,-0.197917 30.599,4 25.9844,7.90625 C21.2969,11.8125 16.2813,13.7656 10.9375,13.7656 C7.8125,13.7656 5.17708,12.9531 3.03125,11.3281 C1.01042,9.56771 0,7.35417 0,4.6875 C0,0.197917 2.34375,-4 7.03125,-7.90625 C11.5938,-11.8125 16.5729,-13.7656 21.9688,-13.7656"/>
<path class="Note" transform="matrix(0.566929,0,0,0.566929,168.352,70.8661)" d="M21.9688,-13.7656 C25.0938,-13.7656 27.7344,-12.9531 29.8906,-11.3281 C31.901,-9.56771 32.9063,-7.35417 32.9063,-4.6875 C32.9063,-0.197917 30.599,4 25.9844,7.90625 C21.2969,11.8125 16.2813,13.7656 10.9375,13.7656 C7.8125,13.7656 5.17708,12.9531 3.03125,11.3281 C1.01042,9.56771 0,7.35417 0,4.6875 C0,0.197917 2.34375,-4 7.03125,-7.90625 C11.5938,-11.8125 16.5729,-13.7656 21.9688,-13.7656"/>
<path class="Note" transform="matrix(0.566929,0,0,0.566929,233.066,63.7795)" d="M21.9688,-13.7656 C25.0938,-13.7656 27.7344,-12.9531 29.8906,-11.3281 C31.901,-9.56771 32.9063,-7.35417 32.9063,-4.6875 C32.9063,-0.197917 30.599,4 25.9844,7.90625 C21.2969,11.8125 16.2813,13.7656 10.9375,13.7656 C7.8125,13.7656 5.17708,12.9531 3.03125,11.3281 C1.01042,9.56771 0,7.35417 0,4.6875 C0,0.197917 2.34375,-4 7.03125,-7.90625 C11.5938,-11.8125 16.5729,-13.7656 21.9688,-13.7656"/>
<path class="Note" transform="matrix(0.566929,0,0,0.566929,297.781,56.6929)" d="M21.9688,-13.7656 C25.0938,-13.7656 27.7344,-12.9531 29.8906,-11.3281 C31.901,-9.56771 32.9063,-7.35417 32.9063,-4.6875 C32.9063,-0.197917 30.599,4 25.9844,7.90625 C21.2969,11.8125 16.2813,13.7656 10.9375,13.7656 C7.8125,13.7656 5.17708,12.9531 3.03125,11.3281 C1.01042,9.56771 0,7.35417 0,4.6875 C0,0.197917 2.34375,-4 7.03125,-7.90625 C11.5938,-11.8125 16.5729,-13.7656 21.9688,-13.7656"/>
<path class="Note" transform="matrix(0.566929,0,0,0.566929,362.495,49.6063)" d="M21.9688,-13.7656 C25.0938,-13.7656 27.7344,-12.9531 29.8906,-11.3281 C31.901,-9.56771 32.9063,-7.35417 32.9063,-4.6875 C32.9063,-0.197917 30.599,4 25.9844,7.90625 C21.2969,11.8125 16.2813,13.7656 10.9375,13.7656 C7.8125,13.7656 5.17708,12.9531 3.03125,11.3281 C1.01042,9.56771 0,7.35417 0,4.6875 C0,0.197917 2.34375,-4 7.03125,-7.90625 C11.5938,-11.8125 16.5729,-13.7656 21.9688,-13.7656"/>
<path class="Note" transform="matrix(0.566929,0,0,0.566929,427.21,42.5197)" d="M21.9688,-13.7656 C25.0938,-13.7656 27.7344,-12.9531 29.8906,-11.3281 C31.901,-9.56771 32.9063,-7.35417 32.9063,-4.6875 C32.9063,-0.197917 30.599,4 25.9844,7.90625 C21.2969,11.8125 16.2813,13.7656 10.9375,13.7656 C7.8125,13.7656 5.17708,12.9531 3.03125,11.3281 C1.01042,9.56771 0,7.35417 0,4.6875 C0,0.197917 2.34375,-4 7.03125,-7.90625 C11.5938,-11.8125 16.5729,-13.7656 21.9688,-13.7656"/>
<path class="Note" transform="matrix(0.566929,0,0,0.566929,491.924,35.4331)" d="M21.9688,-13.7656 C25.0938,-13.7656 27.7344,-12.9531 29.8906,-11.3281 C31.901,-9.56771 32.9063,-7.35417 32.9063,-4.6875 C32.9063,-0.197917 30.599,4 25.9844,7.90625 C21.2969,11.8125 16.2813,13.7656 10.9375,13.7656 C7.8125,13.7656 5.17708,12.9531 3.03125,11.3281 C1.01042,9.56771 0,7.35417 0,4.6875 C0,0.197917 2.34375,-4 7.03125,-7.90625 C11.5938,-11.8125 16.5729,-13.7656 21.9688,-13.7656"/>
<path class="Note" transform="matrix(0.566929,0,0,0.566929,556.639,28.3465)" d="M21.9688,-13.7656 C25.0938,-13.7656 27.7344,-12.9531 29.8906,-11.3281 C31.901,-9.56771 32.9063,-7.35417 32.9063,-4.6875 C32.9063,-0.197917 30.599,4 25.9844,7.90625 C21.2969,11.8125 16.2813,13.7656 10.9375,13.7656 C7.8125,13.7656 5.17708,12.9531 3.03125,11.3281 C1.01042,9.56771 0,7.35417 0,4.6875 C0,0.197917 2.34375,-4 7.03125,-7.90625 C11.5938,-11.8125 16.5729,-13.7656 21.9688,-13.7656"/>
<path class="Clef" transform="matrix(0.566929,0,0,0.566929,28.5015,667.913)" d="M26.6563,42.4844 C26.6563,44.3073 25.224,45.2188 22.3594,45.2188 C20.0885,45.2188 18.1042,44.5365 16.4063,43.1719 C14.7813,41.7344 13.9688,39.9115 13.9688,37.7031 C13.9688,33.7969 16.3438,30.6719 21.0938,28.3281 C25.7188,25.9115 31.1563,24.7031 37.4063,24.7031 C39.8125,24.7031 42.3854,24.8698 45.125,25.2031 C47.1354,25.4635 49.3802,25.9844 51.8594,26.7656 C54.0677,27.474 55.7917,28.5443 57.0313,29.9766 C58.2708,31.4089 58.8906,33.0729 58.8906,34.9688 C58.8906,39.4583 56.5781,43.1354 51.9531,46 C58.724,47.2396 62.1406,50.2656 62.2031,55.0781 C62.2031,59.1198 60.3802,62.7682 56.7344,66.0234 C53.0885,69.2786 48.9583,70.9063 44.3438,70.9063 C42.3854,70.9063 40.3958,70.4479 38.375,69.5313 C36.4896,68.625 35.1563,67.7813 34.375,67 C33.5938,66.0833 33.2031,65.3958 33.2031,64.9375 C33.2031,64.2917 33.5313,63.7396 34.1875,63.2813 C34.7708,62.6979 35.3854,62.4063 36.0313,62.4063 C36.2917,62.4063 36.8464,62.8281 37.6953,63.6719 C38.5443,64.5156 39.7813,64.9375 41.4063,64.9375 C43.625,64.9375 45.776,63.9948 47.8594,62.1094 C49.8698,60.2865 50.875,58.1042 50.875,55.5625 C50.875,53.3542 49.9323,51.7604 48.0469,50.7813 C46.1615,49.8021 43.7552,49.3125 40.8281,49.3125 C40.3073,49.3125 40.0469,48.7604 40.0469,47.6563 C40.0469,46.0938 40.6302,45.3125 41.7969,45.3125 C43.6198,45.3125 45.25,44.5313 46.6875,42.9688 C48.0521,41.2813 48.7344,39.4896 48.7344,37.5938 C48.7344,37.0104 48.5729,36.1354 48.25,34.9688 C47.9896,34.1875 47.2083,33.2396 45.9063,32.125 C44.6667,31.0833 42.9375,30.3698 40.7188,29.9844 C40.1354,33.1719 39.4036,37.2396 38.5234,42.1875 C37.6432,47.1354 37.0417,50.3906 36.7188,51.9531 C35.6146,57.5573 33.599,62.276 30.6719,66.1094 C27.6094,70.151 24.3177,72.1719 20.7969,72.1719 C19.6927,72.1719 18.5573,71.9115 17.3906,71.3906 C16.474,70.9948 15.3021,70.1823 13.875,68.9531 C12.5729,67.9115 11.6927,67.224 11.2344,66.8906 C10.974,66.7031 10.8438,66.4115 10.8438,66.0156 C10.8438,65.3698 11.0729,64.7865 11.5313,64.2656 C12.0521,63.6719 12.6042,63.375 13.1875,63.375 C13.5729,63.375 14.4818,63.9948 15.9141,65.2344 C17.3464,66.474 18.8438,67.0938 20.4063,67.0938 C23.4063,67.0938 25.6563,65.1719 27.1563,61.3281 C28.5833,57.6198 29.2969,53.0313 29.2969,47.5625 L29.2969,46.7813 C29.2969,43.1354 29.8854,37.6979 31.0625,30.4688 C28.9792,31.125 27.3177,32.1042 26.0781,33.4063 C24.776,34.7083 24.125,36.0729 24.125,37.5 C24.125,38.6042 24.5469,39.5469 25.3906,40.3281 C26.2344,41.1094 26.6563,41.8281 26.6563,42.4844 M7.03125,11.9219 C7.35417,11.9219 8.13542,12.2448 9.375,12.8906 C10.6771,13.5469 11.7865,13.875 12.7031,13.875 C15.1719,13.875 18.1979,12.0833 21.7813,8.5 C32.1354,-2.05208 39.2656,-13.25 43.1719,-25.0938 C43.9531,-27.5729 45.8698,-28.8125 48.9219,-28.8125 C50.4844,-28.8125 51.8229,-28.4844 52.9375,-27.8281 C54.0417,-27.1198 54.5938,-26.4063 54.5938,-25.6875 L52.8281,10.8438 C52.8281,12.7917 53.5156,13.7656 54.8906,13.7656 C55.599,13.7656 56.6406,13.4427 58.0156,12.7969 C59.3177,12.1406 60.099,11.8125 60.3594,11.8125 C60.8802,11.8125 61.2031,12.3698 61.3281,13.4844 C61.3281,14.526 60.9063,15.1771 60.0625,15.4375 C59.4063,15.625 58.1042,16.2396 56.1563,17.2813 C54.1354,18.3229 52.5417,18.8438 51.375,18.8438 C48.8958,18.8438 47.1354,16.8906 46.0938,12.9844 C44.4688,6.86979 43.4271,0.520833 42.9688,-6.0625 C40.3646,-2.73958 37.4688,0.614583 34.2813,4 C35.4479,6.21875 37.5938,7.32813 40.7188,7.32813 C41.1771,7.32813 41.5365,7.29688 41.7969,7.23438 L41.8906,7.23438 C42.4115,7.23438 42.6719,7.71875 42.6719,8.6875 C42.6719,9.92708 42.25,10.6771 41.4063,10.9375 C40.0417,11.3958 38.6094,11.625 37.1094,11.625 C33.8594,11.625 31.5156,10.5156 30.0781,8.29688 L26.1719,11.8125 C20.7031,16.5 16.2448,18.8438 12.7969,18.8438 C11.8802,18.8438 10.9375,18.6823 9.96875,18.3594 C9.1875,18.0365 8.27604,17.5469 7.23438,16.8906 C6.83854,16.7031 6.39583,16.4609 5.90625,16.1641 C5.41667,15.8672 5.10938,15.6875 4.98438,15.625 C4.66146,15.5 4.5,15.2083 4.5,14.75 C4.5,14.2292 4.76042,13.6094 5.28125,12.8906 C5.72917,12.2448 6.3125,11.9219 7.03125,11.9219 M28.8125,-54 C28.8125,-52.375 27.4115,-51.5625 24.6094,-51.5625 C22.1406,-51.5625 19.9948,-52.375 18.1719,-54 C16.4115,-55.6354 15.5313,-57.625 15.5313,-59.9688 C15.5313,-62.2396 16.2448,-64.1927 17.6719,-65.8281 C19.1719,-67.5156 21.0938,-68.7813 23.4375,-69.625 C25.5833,-70.4063 27.9948,-71.026 30.6719,-71.4844 C33.4635,-71.8073 36.1302,-71.9688 38.6719,-71.9688 C40.1719,-71.9688 42.974,-71.2865 47.0781,-69.9219 C51.2448,-68.5573 54.1406,-67.875 55.7656,-67.875 C57.7865,-67.875 59.7083,-68.2344 61.5313,-68.9531 C63.0208,-69.599 64.4531,-70.3438 65.8281,-71.1875 C66.9323,-71.9063 67.5469,-72.2656 67.6719,-72.2656 C68.2656,-72.2656 68.7865,-72.0729 69.2344,-71.6875 C69.7552,-71.1667 70.0156,-70.7396 70.0156,-70.4063 C70.0156,-69.9583 69.401,-69.2135 68.1719,-68.1719 C66.8698,-66.9948 65.013,-65.8203 62.6016,-64.6484 C60.1901,-63.4766 57.651,-62.8906 54.9844,-62.8906 C53.8073,-62.8906 52.3438,-63.0885 50.5938,-63.4844 C49.4792,-56.2552 48.3073,-49.8385 47.0781,-44.2344 C46.0365,-39.2865 43.9531,-34.9583 40.8281,-31.25 C37.8281,-27.5417 34.474,-25.6875 30.7656,-25.6875 C29.2656,-25.6875 27.9323,-25.9792 26.7656,-26.5625 C25.4635,-27.2188 24.0938,-28.1979 22.6563,-29.5 C21.4896,-30.4688 20.3854,-31.3438 19.3438,-32.125 C19.0833,-32.3229 18.9531,-32.6198 18.9531,-33.0156 C18.9531,-33.4635 19.2135,-34.0469 19.7344,-34.7656 C20.2552,-35.349 20.7396,-35.6406 21.1875,-35.6406 C21.5833,-35.6406 22.6927,-34.8281 24.5156,-33.2031 C26.3385,-31.5781 27.9635,-30.7656 29.3906,-30.7656 C31.9948,-30.7656 34.0156,-32.2604 35.4531,-35.25 C36.8802,-38.1875 37.6927,-41.7031 37.8906,-45.7969 C38.2135,-52.5052 38.9635,-59.4427 40.1406,-66.6094 C38.7031,-66.9323 37.6302,-67.0938 36.9219,-67.0938 C33.7969,-67.0938 31.125,-66.4427 28.9063,-65.1406 C26.6979,-63.901 25.5938,-62.2083 25.5938,-60.0625 C25.5938,-58.5 26.1146,-57.2969 27.1563,-56.4531 C28.2604,-55.5365 28.8125,-54.7188 28.8125,-54"/>
<path class="Clef" transform="matrix(0.566929,0,0,0.566929,28.5015,490.748)" d="M21.2969,33.9844 C21.2969,35.4219 20.1875,36.1406 17.9688,36.1406 C16.1458,36.1406 14.5833,35.5833 13.2813,34.4688 C11.9167,33.3646 11.2344,31.9323 11.2344,30.1719 C11.2344,26.9844 13.0885,24.4792 16.7969,22.6563 C20.7031,20.7708 25.0677,19.8281 29.8906,19.8281 C34.5052,19.8281 38.6042,20.4479 42.1875,21.6875 C45.5104,23.0521 47.1719,25.1667 47.1719,28.0313 C47.1719,31.5417 45.3177,34.4688 41.6094,36.8125 C47.0781,37.9271 49.8125,40.3698 49.8125,44.1406 C49.8125,47.2656 48.3438,50.1615 45.4063,52.8281 C42.5417,55.4323 39.1927,56.7344 35.3594,56.7344 C33.7969,56.7344 32.2344,56.3802 30.6719,55.6719 C29.2344,55.0156 28.1927,54.2969 27.5469,53.5156 C26.8906,52.9323 26.5625,52.3802 26.5625,51.8594 C26.5625,51.3385 26.8229,50.9167 27.3438,50.5938 C27.8021,50.1354 28.2917,49.9063 28.8125,49.9063 C29.0729,49.9063 29.5599,50.2318 30.2734,50.8828 C30.987,51.5339 31.9635,51.8594 33.2031,51.8594 C35.0885,51.8594 36.849,51.1406 38.4844,49.7031 C40.0469,48.2135 40.8281,46.4896 40.8281,44.5313 C40.8281,42.8438 40.0469,41.5417 38.4844,40.625 C36.9844,39.7813 35.0625,39.3594 32.7188,39.3594 C32.2604,39.3594 32.0313,38.9688 32.0313,38.1875 C32.0313,36.8854 32.5208,36.2344 33.5,36.2344 C34.9271,36.2344 36.1979,35.6146 37.3125,34.375 C38.4167,32.9479 38.9688,31.4844 38.9688,29.9844 C38.9688,26.7969 36.8542,24.8125 32.625,24.0313 L29.3906,41.6094 C28.5469,45.9635 26.9531,49.7396 24.6094,52.9375 C22.2031,56.125 19.5677,57.7188 16.7031,57.7188 C15.724,57.7188 14.8125,57.5208 13.9688,57.125 C13.1875,56.8021 12.2083,56.151 11.0313,55.1719 C9.72917,54.1302 9.04688,53.5781 8.98438,53.5156 C8.72396,53.2552 8.59375,53.026 8.59375,52.8281 C8.59375,52.4427 8.79167,51.9583 9.1875,51.375 C9.63542,50.9167 10.0885,50.6875 10.5469,50.6875 C10.7448,50.6875 11.526,51.1771 12.8906,52.1563 C13.9948,53.1979 15.1667,53.7188 16.4063,53.7188 C18.8125,53.7188 20.6042,52.2188 21.7813,49.2188 C22.9479,46.0938 23.5313,42.3854 23.5313,38.0938 L23.5313,37.4063 C23.5313,34.7396 23.9896,30.4115 24.9063,24.4219 C23.2083,25.0052 21.875,25.7865 20.9063,26.7656 C19.8646,27.8073 19.3438,28.8802 19.3438,29.9844 C19.3438,30.8906 19.6667,31.6406 20.3125,32.2344 C20.9688,32.8802 21.2969,33.4635 21.2969,33.9844 M5.5625,9.46875 C5.82292,9.46875 6.47396,9.76563 7.51563,10.3594 C8.69271,10.8802 9.57292,11.1406 10.1563,11.1406 C13.0208,11.1406 17.1875,7.75521 22.6563,0.984375 C28.0625,-5.66146 32,-12.6979 34.4688,-20.125 C35.0625,-22.0729 36.5938,-23.0469 39.0625,-23.0469 C40.3021,-23.0469 41.3438,-22.7865 42.1875,-22.2656 C43.1042,-21.8802 43.5625,-21.3281 43.5625,-20.6094 L42.1875,8.59375 C42.1875,10.2917 42.776,11.1406 43.9531,11.1406 C44.3385,11.1406 45.151,10.8802 46.3906,10.3594 C47.5573,9.76563 48.2083,9.46875 48.3438,9.46875 C48.8021,9.46875 49.0313,9.92708 49.0313,10.8438 C49.0313,11.625 48.7344,12.1146 48.1406,12.3125 C47.4323,12.6354 46.3594,13.1563 44.9219,13.875 C43.2969,14.7188 42.026,15.1406 41.1094,15.1406 C40.1406,15.1406 39.2292,14.7188 38.375,13.875 C37.5313,12.8333 36.7865,10.8125 36.1406,7.8125 C35.3594,4.82292 34.7708,0.588542 34.375,-4.89063 C32.3542,-2.21354 30.0781,0.489583 27.5469,3.21875 C28.5156,4.91667 30.5,5.76563 33.5,5.76563 C33.8854,5.76563 34.0781,6.1875 34.0781,7.03125 C34.0781,8.53125 32.5833,9.28125 29.5938,9.28125 C27.0521,9.28125 25.2292,8.40104 24.125,6.64063 L21,9.375 C16.7708,13.0208 13.1563,14.9115 10.1563,15.0469 C9.11458,15.0469 7.75,14.5885 6.0625,13.6719 C4.42708,12.8281 3.60938,12.2083 3.60938,11.8125 C3.60938,11.3646 3.80729,10.8802 4.20313,10.3594 C4.58854,9.76563 5.04167,9.46875 5.5625,9.46875 M23.0469,-43.1719 C23.0469,-41.9323 21.9427,-41.3125 19.7344,-41.3125 C17.776,-41.3125 16.0469,-41.9635 14.5469,-43.2656 C13.1198,-44.5052 12.4063,-46.099 12.4063,-48.0469 C12.4063,-49.8698 12.9583,-51.4323 14.0625,-52.7344 C15.3646,-54.1719 16.9271,-55.151 18.75,-55.6719 C20.0521,-56.1927 22.0052,-56.7135 24.6094,-57.2344 C27.349,-57.4948 29.4635,-57.625 30.9531,-57.625 C32.0677,-57.625 34.2839,-57.0703 37.6016,-55.9609 C40.9193,-54.8516 43.2604,-54.2969 44.625,-54.2969 C46.2604,-54.2969 47.7917,-54.5573 49.2188,-55.0781 C50.5833,-55.6615 51.6927,-56.25 52.5469,-56.8438 C53.3906,-57.4896 53.9115,-57.8125 54.1094,-57.8125 C54.4948,-57.8125 54.9167,-57.651 55.375,-57.3281 C55.7604,-57.0052 55.9531,-56.6771 55.9531,-56.3438 C55.9531,-56.0833 55.4688,-55.4688 54.5,-54.5 C53.3229,-53.4583 51.8229,-52.5469 50,-51.7656 C48.0521,-50.7865 46.0677,-50.2969 44.0469,-50.2969 C43.0052,-50.2969 41.8333,-50.4583 40.5313,-50.7813 C39.6146,-44.4063 38.6719,-39.2292 37.7031,-35.25 C36.849,-31.2813 35.1875,-27.8333 32.7188,-24.9063 C30.3125,-21.9792 27.6406,-20.5156 24.7031,-20.5156 C23.401,-20.5156 22.3281,-20.776 21.4844,-21.2969 C20.3802,-21.8177 19.276,-22.5625 18.1719,-23.5313 C17.1302,-24.5104 16.25,-25.2292 15.5313,-25.6875 C15.2708,-25.9479 15.1406,-26.1771 15.1406,-26.375 C15.1406,-26.8229 15.3021,-27.276 15.625,-27.7344 C15.9479,-28.2552 16.3698,-28.5156 16.8906,-28.5156 C17.151,-28.5156 18.0313,-27.8646 19.5313,-26.5625 C21.0313,-25.2604 22.3646,-24.6094 23.5313,-24.6094 C25.0938,-24.6094 26.3021,-25.1302 27.1563,-26.1719 C28.0625,-27.2135 28.776,-28.776 29.2969,-30.8594 C29.7552,-32.7448 30.0833,-34.8594 30.2813,-37.2031 C30.5417,-39.1615 30.8333,-41.8333 31.1563,-45.2188 C31.3542,-47.1042 31.6771,-49.8073 32.125,-53.3281 C31.0208,-53.5885 30.1458,-53.7188 29.5,-53.7188 C27.1563,-53.7188 25.0365,-53.1979 23.1406,-52.1563 C21.3906,-50.9792 20.5156,-49.6406 20.5156,-48.1406 C20.5156,-47.0365 20.9375,-46.0625 21.7813,-45.2188 C22.625,-44.375 23.0469,-43.6927 23.0469,-43.1719"/>
<path class="Clef" transform="matrix(0.566929,0,0,0.566929,28.5015,333.071)" d="M57.1328,-8.89063 C56.1589,-9.86979 55.6719,-11.0755 55.6719,-12.5078 C55.6719,-13.9401 56.1589,-15.1432 57.1328,-16.1172 C58.1068,-17.0911 59.3099,-17.5781 60.7422,-17.5781 C62.1745,-17.5781 63.3802,-17.0911 64.3594,-16.1172 C65.3385,-15.1432 65.8281,-13.9401 65.8281,-12.5078 C65.8281,-11.0755 65.3385,-9.86979 64.3594,-8.89063 C63.3802,-7.91146 62.1745,-7.42188 60.7422,-7.42188 C59.3099,-7.42188 58.1068,-7.91146 57.1328,-8.89063 M57.1328,16.1172 C56.1589,15.1432 55.6719,13.9401 55.6719,12.5078 C55.6719,11.0755 56.1589,9.86979 57.1328,8.89063 C58.1068,7.91146 59.3099,7.42188 60.7422,7.42188 C62.1745,7.42188 63.3802,7.91146 64.3594,8.89063 C65.3385,9.86979 65.8281,11.0755 65.8281,12.5078 C65.8281,13.9401 65.3385,15.1432 64.3594,16.1172 C63.3802,17.0911 62.1745,17.5781 60.7422,17.5781 C59.3099,17.5781 58.1068,17.0911 57.1328,16.1172 M23.25,-26.2656 C31.9063,-26.2656 39,-24.0885 44.5313,-19.7344 C49.875,-15.1719 52.5469,-8.98438 52.5469,-1.17188 C52.5469,4.09896 51.5052,8.91667 49.4219,13.2813 C47.4635,17.8438 44.8906,21.8802 41.7031,25.3906 C38.4427,28.974 34.5052,32.3594 29.8906,35.5469 C25.3906,38.6719 20.7656,41.474 16.0156,43.9531 C6.31771,48.8281 0.979167,51.2656 0,51.2656 C-0.84375,51.2656 -1.26563,50.8438 -1.26563,50 C-1.26563,49.6771 -1.13542,49.3854 -0.875,49.125 C2.44792,47.1667 6.51563,44.6615 11.3281,41.6094 C14.4531,39.5885 18.099,36.7865 22.2656,33.2031 C26.3073,29.8177 29.4323,26.6302 31.6406,23.6406 C33.9219,20.7031 36.0052,17.0573 37.8906,12.7031 C39.5156,8.33854 40.3281,4.03646 40.3281,-0.203125 C40.3281,-6.51563 38.7656,-12.0156 35.6406,-16.7031 C32.5156,-21.3906 28.3854,-23.7344 23.25,-23.7344 C19.6042,-23.7344 16.4792,-22.5625 13.875,-20.2188 C11.0729,-17.8125 9.05208,-14.7865 7.8125,-11.1406 C9.05208,-11.6615 10.1927,-11.9219 11.2344,-11.9219 C13.9635,-11.9219 16.3073,-10.9427 18.2656,-8.98438 C20.2135,-6.90104 21.1875,-4.52604 21.1875,-1.85938 C21.1875,0.942708 20.2448,3.45313 18.3594,5.67188 C16.3385,7.68229 13.9635,8.6875 11.2344,8.6875 C8.30729,8.6875 5.67188,7.68229 3.32813,5.67188 C1.10938,3.45313 0,0.942708 0,-1.85938 C0,-8.56771 2.28125,-14.2969 6.84375,-19.0469 C11.3333,-23.8594 16.8021,-26.2656 23.25,-26.2656"/>
<path class="Clef" transform="matrix(0.566929,0,0,0.566929,28.5015,212.598)" d="M36.3281,-7.32813 C33.3385,-7.32813 31.8438,-4.88542 31.8438,0 C31.8438,4.88542 33.3385,7.32813 36.3281,7.32813 C37.3073,7.32813 38.7396,6.80729 40.625,5.76563 C42.4479,4.72396 43.9479,4.20313 45.125,4.20313 C51.3021,4.20313 56.6719,6.1875 61.2344,10.1563 C65.724,14.2604 67.9688,19.2083 67.9688,25 C67.9688,41.6667 59.1458,50 41.5,50 C37.2708,50 33.6615,48.6354 30.6719,45.9063 C27.7344,43.1667 26.2656,39.8125 26.2656,35.8438 C26.2656,33.6979 27.0156,31.875 28.5156,30.375 C30.0156,28.875 31.8073,28.125 33.8906,28.125 C35.974,28.125 37.763,28.875 39.2578,30.375 C40.7526,31.875 41.5,33.6979 41.5,35.8438 C41.5,37.1458 40.6875,38.4167 39.0625,39.6563 C37.4375,40.8229 36.625,42.0573 36.625,43.3594 C36.625,44.5365 37.1146,45.4479 38.0938,46.0938 C39,46.8125 40.1354,47.1719 41.5,47.1719 C46.9063,47.1719 50.5859,45.3151 52.5391,41.6016 C54.4922,37.888 55.4688,32.3542 55.4688,25 C55.4688,19.3333 54.8854,15.0365 53.7188,12.1094 C52.4792,8.72396 49.6146,7.03125 45.125,7.03125 C41.7396,7.03125 38.875,8.49479 36.5313,11.4219 C34.3125,14.4219 33.2031,17.9063 33.2031,21.875 C33.2031,22.8542 32.7474,23.3438 31.8359,23.3438 C30.9245,23.3438 30.4688,22.8542 30.4688,21.875 C30.4688,14.125 27.6719,7.45313 22.0781,1.85938 L22.0781,49.0313 C22.0781,49.6771 21.75,50 21.0938,50 L19.0469,50 C18.3281,50 17.9688,49.6771 17.9688,49.0313 L17.9688,-49.0313 C17.9688,-49.6771 18.3281,-50 19.0469,-50 L21.0938,-50 C21.75,-50 22.0781,-49.6771 22.0781,-49.0313 L22.0781,-1.85938 C27.6719,-7.45313 30.4688,-14.125 30.4688,-21.875 C30.4688,-22.8542 30.9245,-23.3438 31.8359,-23.3438 C32.7474,-23.3438 33.2031,-22.8542 33.2031,-21.875 C33.2031,-17.9063 34.3125,-14.4219 36.5313,-11.4219 C38.875,-8.49479 41.7396,-7.03125 45.125,-7.03125 C49.6146,-7.03125 52.4792,-8.72396 53.7188,-12.1094 C54.8854,-15.0365 55.4688,-19.3333 55.4688,-25 C55.4688,-32.3542 54.4922,-37.888 52.5391,-41.6016 C50.5859,-45.3151 46.9063,-47.1719 41.5,-47.1719 C40.1354,-47.1719 39,-46.8125 38.0938,-46.0938 C37.1146,-45.5104 36.625,-44.599 36.625,-43.3594 C36.625,-42.0573 37.4375,-40.8229 39.0625,-39.6563 C40.6875,-38.4167 41.5,-37.1458 41.5,-35.8438 C41.5,-33.6979 40.7526,-31.875 39.2578,-30.375 C37.763,-28.875 35.974,-28.125 33.8906,-28.125 C31.8073,-28.125 30.0156,-28.875 28.5156,-30.375 C27.0156,-31.875 26.2656,-33.6979 26.2656,-35.8438 C26.2656,-39.8125 27.7344,-43.1667 30.6719,-45.9063 C33.6615,-48.6354 37.2708,-50 41.5,-50 C59.1458,-50 67.9688,-41.6667 67.9688,-25 C67.9688,-19.2083 65.724,-14.2604 61.2344,-10.1563 C56.6719,-6.1875 51.3021,-4.20313 45.125,-4.20313 C44.0104,-4.20313 42.5104,-4.72396 40.625,-5.76563 C38.7396,-6.80729 37.3073,-7.32813 36.3281,-7.32813 M12.8906,50 L0.984375,50 C0.328125,50 0,49.6771 0,49.0313 L0,-49.0313 C0,-49.6771 0.328125,-50 0.984375,-50 L12.8906,-50 C13.5469,-50 13.875,-49.6771 13.875,-49.0313 L13.875,49.0313 C13.875,49.6771 13.5469,50 12.8906,50"/>
<path class="Clef" transform="matrix(0.566929,0,0,0.566929,28.5015,92.126)" d="M36.7188,-25.5938 C36.7188,-25.5938 36.9167,-25.5938 37.3125,-25.5938 C37.5729,-25.6563 37.7969,-25.6875 37.9844,-25.6875 C45.276,-25.6875 51.2656,-23.1146 55.9531,-17.9688 C60.6406,-12.8958 62.9844,-6.97396 62.9844,-0.203125 C62.9844,8.20313 59.5052,15.0417 52.5469,20.3125 C50.724,21.75 48.3438,22.9219 45.4063,23.8281 C45.7396,28.0573 45.9063,31.474 45.9063,34.0781 C45.9063,34.599 45.8385,36.4896 45.7031,39.75 C45.4427,45.8021 43.3594,51.0417 39.4531,55.4688 C35.6823,59.8333 30.9948,62.0156 25.3906,62.0156 C20.1198,62.0156 15.6302,60.1615 11.9219,56.4531 C8.20313,52.6719 6.34375,48.1146 6.34375,42.7813 C6.34375,39.9792 7.42188,37.599 9.57813,35.6406 C11.7865,33.6927 14.3542,32.7188 17.2813,32.7188 C19.8854,32.7188 22.0677,33.7292 23.8281,35.75 C25.651,37.6354 26.5625,39.9792 26.5625,42.7813 C26.5625,45.3125 25.651,47.4896 23.8281,49.3125 C22.0052,51.1354 19.8229,52.0469 17.2813,52.0469 C16.2396,52.0469 15.2344,51.8542 14.2656,51.4688 C17.1302,55.6979 20.9375,57.8125 25.6875,57.8125 C30.1771,57.8125 33.8542,55.9896 36.7188,52.3438 C39.7188,48.5729 41.349,44.1771 41.6094,39.1563 C41.7344,36.0313 41.7969,34.2448 41.7969,33.7969 C41.7969,30.151 41.6667,27.1563 41.4063,24.8125 C38.1563,25.3333 35.2604,25.5938 32.7188,25.5938 C23.6667,25.5938 15.9531,22.0104 9.57813,14.8438 C3.32813,7.61458 0.203125,-0.979167 0.203125,-10.9375 C0.203125,-13.0208 0.395833,-15.1354 0.78125,-17.2813 C1.17708,-19.0417 1.66667,-20.9635 2.25,-23.0469 C2.57292,-24.224 3.45313,-26.1146 4.89063,-28.7188 C5.41146,-29.5 5.9974,-30.4766 6.64844,-31.6484 C7.29948,-32.8203 7.75521,-33.599 8.01563,-33.9844 C8.66146,-35.2865 9.92708,-37.0469 11.8125,-39.2656 C12.3333,-39.849 12.8724,-40.4974 13.4297,-41.2109 C13.987,-41.9245 14.4609,-42.5104 14.8516,-42.9688 C15.2422,-43.4271 15.5339,-43.7865 15.7266,-44.0469 C15.9193,-44.3073 17.3854,-46.0313 20.125,-49.2188 C20.7708,-49.875 21.4036,-50.5755 22.0234,-51.3203 C22.6432,-52.0651 23.1484,-52.651 23.5391,-53.0781 C23.9297,-53.5052 24.224,-53.8125 24.4219,-54 C22.0781,-61.75 20.6094,-67.9375 20.0156,-72.5625 C19.5677,-76.2708 19.3438,-81.349 19.3438,-87.7969 C19.3438,-93.4635 20.6458,-98.7708 23.25,-103.719 C25.7813,-108.854 29.3281,-113.052 33.8906,-116.313 C34.151,-116.51 34.474,-116.609 34.8594,-116.609 C35.3177,-116.609 35.6458,-116.51 35.8438,-116.313 C39.3542,-112.083 42.3802,-106.583 44.9219,-99.8125 C47.526,-93.0417 48.8281,-86.8854 48.8281,-81.3438 C48.8281,-75.0938 47.3333,-69.2344 44.3438,-63.7656 C40.9583,-57.974 36.5938,-51.9844 31.25,-45.7969 C32.6146,-41.5052 34.4375,-34.7708 36.7188,-25.5938 M45.0156,19.8281 C48.401,18.5885 51.0417,16.474 52.9375,13.4844 C55.0208,10.6198 56.0625,7.39583 56.0625,3.8125 C56.0625,-0.8125 54.5,-4.91667 51.375,-8.5 C48.1771,-12.2083 44.1042,-14.2917 39.1563,-14.75 C41.9583,-1.01042 43.9115,10.5156 45.0156,19.8281 M7.23438,-2.73438 C7.23438,3.71354 9.83854,9.38021 15.0469,14.2656 C20.3802,19.0156 26.3698,21.3906 33.0156,21.3906 C35.7448,21.3906 38.4115,21.1927 41.0156,20.7969 C39.974,10.901 37.9219,-0.947917 34.8594,-14.75 C31.151,-14.3542 28.1927,-13.0521 25.9844,-10.8438 C23.8281,-8.5625 22.75,-5.98958 22.75,-3.125 C22.75,1.82292 25.3906,5.82813 30.6719,8.89063 C31.1198,9.34896 31.3438,9.83854 31.3438,10.3594 C31.3438,10.8802 31.1198,11.3646 30.6719,11.8125 C30.276,12.2708 29.7865,12.5 29.2031,12.5 C29.1406,12.5 28.849,12.4375 28.3281,12.3125 C24.6094,10.2917 21.7448,7.6875 19.7344,4.5 C17.8385,1.10417 16.8906,-2.31771 16.8906,-5.76563 C16.8906,-10.2552 18.2917,-14.3229 21.0938,-17.9688 C24.0208,-21.6146 27.8281,-23.9583 32.5156,-25 C30.6927,-32.2917 29.1979,-37.9896 28.0313,-42.0938 C26.9896,-40.9167 25.737,-39.5 24.2734,-37.8438 C22.8099,-36.1875 21.9479,-35.1927 21.6875,-34.8594 C19.3438,-31.8073 17.5521,-29.4323 16.3125,-27.7344 C14.0938,-24.6719 12.4635,-22.0365 11.4219,-19.8281 C10.3177,-17.349 9.34375,-14.6458 8.5,-11.7188 C7.65625,-8.91667 7.23438,-5.92188 7.23438,-2.73438 M39.8438,-102.047 C34.9583,-99.6406 31.1198,-96.1927 28.3281,-91.7031 C25.4635,-87.0781 24.0313,-82.099 24.0313,-76.7656 C24.0313,-72.0781 25.2031,-65.7604 27.5469,-57.8125 C32.2344,-63.4792 35.75,-68.7188 38.0938,-73.5313 C40.5625,-78.6146 41.7969,-83.9219 41.7969,-89.4531 C41.7969,-93.6198 41.1458,-97.8177 39.8438,-102.047"/>
</svg>
