<?xml version="1.0" encoding="UTF-8" standalone="no"?>
<svg width="637.794px" height="765.353px" viewBox="0 0 637.794 765.353"
 xmlns="http://www.w3.org/2000/svg" xmlns:xlink="http://www.w3.org/1999/xlink" version="1.2" baseProfile="tiny">
<title>melodicminor (66)</title>
<desc>Generated by MuseScore 3.4.2</desc>
<polyline class="StaffLines" fill="none" stroke="#000000" stroke-width="1.13" stroke-linejoin="bevel" points="14.1732,47.6221 623.621,47.6221"/>
<polyline class="StaffLines" fill="none" stroke="#000000" stroke-width="1.13" stroke-linejoin="bevel" points="14.1732,61.7953 623.621,61.7953"/>
<polyline class="StaffLines" fill="none" stroke="#000000" stroke-width="1.13" stroke-linejoin="bevel" points="14.1732,75.9685 623.621,75.9685"/>
<polyline class="StaffLines" fill="none" stroke="#000000" stroke-width="1.13" stroke-linejoin="bevel" points="14.1732,90.1417 623.621,90.1417"/>
<polyline class="StaffLines" fill="none" stroke="#000000" stroke-width="1.13" stroke-linejoin="bevel" points="14.1732,104.315 623.621,104.315"/>
<polyline class="StaffLines" fill="none" stroke="#000000" stroke-width="1.13" stroke-linejoin="bevel" points="14.1732,182.268 623.621,182.268"/>
<polyline class="StaffLines" fill="none" stroke="#000000" stroke-width="1.13" stroke-linejoin="bevel" points="14.1732,196.441 623.621,196.441"/>
<polyline class="StaffLines" fill="none" stroke="#000000" stroke-width="1.13" stroke-linejoin="bevel" points="14.1732,210.614 623.621,210.614"/>
<polyline class="StaffLines" fill="none" stroke="#000000" stroke-width="1.13" stroke-linejoin="bevel" points="14.1732,224.787 623.621,224.787"/>
<polyline class="StaffLines" fill="none" stroke="#000000" stroke-width="1.13" stroke-linejoin="bevel" points="14.1732,238.961 623.621,238.961"/>
<polyline class="StaffLines" fill="none" stroke="#000000" stroke-width="1.13" stroke-linejoin="bevel" points="14.1732,316.913 623.621,316.913"/>
<polyline class="StaffLines" fill="none" stroke="#000000" stroke-width="1.13" stroke-linejoin="bevel" points="14.1732,331.087 623.621,331.087"/>
<polyline class="StaffLines" fill="none" stroke="#000000" stroke-width="1.13" stroke-linejoin="bevel" points="14.1732,345.26 623.621,345.26"/>
<polyline class="StaffLines" fill="none" stroke="#000000" stroke-width="1.13" stroke-linejoin="bevel" points="14.1732,359.433 623.621,359.433"/>
<polyline class="StaffLines" fill="none" stroke="#000000" stroke-width="1.13" stroke-linejoin="bevel" points="14.1732,373.606 623.621,373.606"/>
<polyline class="StaffLines" fill="none" stroke="#000000" stroke-width="1.13" stroke-linejoin="bevel" points="14.1732,451.559 623.621,451.559"/>
<polyline class="StaffLines" fill="none" stroke="#000000" stroke-width="1.13" stroke-linejoin="bevel" points="14.1732,476.362 623.621,476.362"/>
<polyline class="StaffLines" fill="none" stroke="#000000" stroke-width="1.13" stroke-linejoin="bevel" points="14.1732,501.165 623.621,501.165"/>
<polyline class="StaffLines" fill="none" stroke="#000000" stroke-width="1.13" stroke-linejoin="bevel" points="14.1732,525.969 623.621,525.969"/>
<polyline class="StaffLines" fill="none" stroke="#000000" stroke-width="1.13" stroke-linejoin="bevel" points="14.1732,603.921 623.621,603.921"/>
<polyline class="StaffLines" fill="none" stroke="#000000" stroke-width="1.13" stroke-linejoin="bevel" points="14.1732,628.724 623.621,628.724"/>
<polyline class="StaffLines" fill="none" stroke="#000000" stroke-width="1.13" stroke-linejoin="bevel" points="14.1732,653.528 623.621,653.528"/>
<polyline class="StaffLines" fill="none" stroke="#000000" stroke-width="1.13" stroke-linejoin="bevel" points="14.1732,678.331 623.621,678.331"/>
<polyline class="StaffLines" fill="none" stroke="#000000" stroke-width="1.13" stroke-linejoin="bevel" points="14.1732,703.134 623.621,703.134"/>
<polyline class="StaffLines" fill="none" stroke="#000000" stroke-width="1.13" stroke-linejoin="bevel" points="14.1732,727.937 623.621,727.937"/>
<path class="Accidental" transform="matrix(0.566929,0,0,0.566929,102.818,373.606)" d="M4.59375,-4.10938 L4.59375,3.60938 C4.59375,6.34896 4.72396,8.53125 4.98438,10.1563 C7.13021,8.33333 8.66146,6.96875 9.57813,6.0625 C10.6198,5.02083 11.6615,3.58594 12.7031,1.75781 C13.7448,-0.0703125 14.2656,-1.89583 14.2656,-3.71875 C14.2656,-5.54167 13.875,-7.10417 13.0938,-8.40625 C12.3125,-9.70833 11.2708,-10.3594 9.96875,-10.3594 C8.40625,-10.3594 7.10417,-9.77083 6.0625,-8.59375 C5.08333,-7.29167 4.59375,-5.79688 4.59375,-4.10938 M0.484375,13.7656 L-0.78125,-45.7031 C0.135417,-46.224 1.04948,-46.4844 1.96094,-46.4844 C2.8724,-46.4844 3.78125,-46.224 4.6875,-45.7031 L3.90625,-11.2344 C6.57292,-13.5156 9.63542,-14.6563 13.0938,-14.6563 C15.625,-14.6563 17.737,-13.6146 19.4297,-11.5313 C21.1224,-9.44792 21.9688,-7.06771 21.9688,-4.39063 C21.9688,-2.70313 21.4167,-0.911458 20.3125,0.984375 C19.2708,2.73438 18.1667,4.09896 17,5.07813 C16.3438,5.59896 14.6823,6.90104 12.0156,8.98438 C11.2344,9.56771 10.3073,10.25 9.23438,11.0313 C8.16146,11.8125 7.49479,12.3021 7.23438,12.5 C6.77604,12.7604 6.34896,13.2813 5.95313,14.0625 C5.50521,14.7188 4.98438,15.2708 4.39063,15.7188 C3.94271,16.1146 3.39323,16.3125 2.74219,16.3125 C2.09115,16.3125 1.56771,16.0833 1.17188,15.625 C0.713542,15.1667 0.484375,14.5469 0.484375,13.7656"/>
<path class="Accidental" transform="matrix(0.566929,0,0,0.566929,156.528,366.52)" d="M21,-4.10938 L20.7969,3.60938 C20.7969,6.34896 20.9271,8.53125 21.1875,10.1563 C26.9896,5.27083 29.8906,0.645833 29.8906,-3.71875 C29.8906,-5.60417 29.5625,-7.16667 28.9063,-8.40625 C28.1875,-9.70833 27.1771,-10.3594 25.875,-10.3594 C24.3854,-10.3594 23.2135,-9.77083 22.3594,-8.59375 C21.5781,-7.42708 21.125,-5.93229 21,-4.10938 M16.7031,13.7656 L16.4063,3.21875 C14.9792,4.91667 13.1563,6.70833 10.9375,8.59375 C8.65625,10.6146 7.22396,11.9167 6.64063,12.5 C6.38021,12.7604 6.05729,13.2813 5.67188,14.0625 C5.01563,14.9792 4.55729,15.5313 4.29688,15.7188 C3.77604,16.1146 3.25521,16.3125 2.73438,16.3125 C2.08854,16.3125 1.56771,16.0833 1.17188,15.625 C0.713542,15.1667 0.484375,14.5469 0.484375,13.7656 L-0.78125,-45.7031 C0.135417,-46.224 1.04948,-46.4844 1.96094,-46.4844 C2.8724,-46.4844 3.78125,-46.224 4.6875,-45.7031 L3.90625,-11.2344 C5.79167,-13.5156 8.13542,-14.6563 10.9375,-14.6563 C12.9583,-14.6563 14.6823,-13.9375 16.1094,-12.5 L15.4375,-45.7031 C16.3438,-46.224 17.2526,-46.4844 18.1641,-46.4844 C19.0755,-46.4844 19.9896,-46.224 20.9063,-45.7031 L20.2188,-11.2344 C22.8854,-13.5156 25.7813,-14.6563 28.9063,-14.6563 C31.5104,-14.6563 33.724,-13.6458 35.5469,-11.625 C37.3073,-9.60417 38.1875,-7.22917 38.1875,-4.5 C38.1875,-2.67708 37.6354,-0.848958 36.5313,0.984375 C35.3542,2.73438 34.2448,4.06771 33.2031,4.98438 C32.099,5.89063 30.4063,7.19271 28.125,8.89063 C26.3021,10.2552 24.7396,11.4583 23.4375,12.5 C23.2396,12.6354 22.849,13.125 22.2656,13.9688 C21.8073,14.6146 21.2865,15.1667 20.7031,15.625 C20.2448,16.0833 19.6927,16.3125 19.0469,16.3125 C18.4635,16.3125 17.9115,16.0521 17.3906,15.5313 C16.9323,15.0729 16.7031,14.4844 16.7031,13.7656 M3.60938,3.60938 C3.60938,5.82813 3.77604,8.07813 4.10938,10.3594 C8.79688,5.79688 11.1406,1.10417 11.1406,-3.71875 C11.1406,-8.14583 10.0313,-10.3594 7.8125,-10.3594 C5.20833,-10.3594 3.875,-8.27604 3.8125,-4.10938 L3.60938,3.60938 "/>
<path class="Accidental" transform="matrix(0.566929,0,0,0.566929,219.384,359.433)" d="M21,-4.10938 L20.7969,3.60938 C20.7969,6.34896 20.9271,8.53125 21.1875,10.1563 C26.9896,5.27083 29.8906,0.645833 29.8906,-3.71875 C29.8906,-5.60417 29.5625,-7.16667 28.9063,-8.40625 C28.1875,-9.70833 27.1771,-10.3594 25.875,-10.3594 C24.3854,-10.3594 23.2135,-9.77083 22.3594,-8.59375 C21.5781,-7.42708 21.125,-5.93229 21,-4.10938 M16.7031,13.7656 L16.4063,3.21875 C14.9792,4.91667 13.1563,6.70833 10.9375,8.59375 C8.65625,10.6146 7.22396,11.9167 6.64063,12.5 C6.38021,12.7604 6.05729,13.2813 5.67188,14.0625 C5.01563,14.9792 4.55729,15.5313 4.29688,15.7188 C3.77604,16.1146 3.25521,16.3125 2.73438,16.3125 C2.08854,16.3125 1.56771,16.0833 1.17188,15.625 C0.713542,15.1667 0.484375,14.5469 0.484375,13.7656 L-0.78125,-45.7031 C0.135417,-46.224 1.04948,-46.4844 1.96094,-46.4844 C2.8724,-46.4844 3.78125,-46.224 4.6875,-45.7031 L3.90625,-11.2344 C5.79167,-13.5156 8.13542,-14.6563 10.9375,-14.6563 C12.9583,-14.6563 14.6823,-13.9375 16.1094,-12.5 L15.4375,-45.7031 C16.3438,-46.224 17.2526,-46.4844 18.1641,-46.4844 C19.0755,-46.4844 19.9896,-46.224 20.9063,-45.7031 L20.2188,-11.2344 C22.8854,-13.5156 25.7813,-14.6563 28.9063,-14.6563 C31.5104,-14.6563 33.724,-13.6458 35.5469,-11.625 C37.3073,-9.60417 38.1875,-7.22917 38.1875,-4.5 C38.1875,-2.67708 37.6354,-0.848958 36.5313,0.984375 C35.3542,2.73438 34.2448,4.06771 33.2031,4.98438 C32.099,5.89063 30.4063,7.19271 28.125,8.89063 C26.3021,10.2552 24.7396,11.4583 23.4375,12.5 C23.2396,12.6354 22.849,13.125 22.2656,13.9688 C21.8073,14.6146 21.2865,15.1667 20.7031,15.625 C20.2448,16.0833 19.6927,16.3125 19.0469,16.3125 C18.4635,16.3125 17.9115,16.0521 17.3906,15.5313 C16.9323,15.0729 16.7031,14.4844 16.7031,13.7656 M3.60938,3.60938 C3.60938,5.82813 3.77604,8.07813 4.10938,10.3594 C8.79688,5.79688 11.1406,1.10417 11.1406,-3.71875 C11.1406,-8.14583 10.0313,-10.3594 7.8125,-10.3594 C5.20833,-10.3594 3.875,-8.27604 3.8125,-4.10938 L3.60938,3.60938 "/>
<path class="Accidental" transform="matrix(0.566929,0,0,0.566929,291.386,352.346)" d="M4.59375,-4.10938 L4.59375,3.60938 C4.59375,6.34896 4.72396,8.53125 4.98438,10.1563 C7.13021,8.33333 8.66146,6.96875 9.57813,6.0625 C10.6198,5.02083 11.6615,3.58594 12.7031,1.75781 C13.7448,-0.0703125 14.2656,-1.89583 14.2656,-3.71875 C14.2656,-5.54167 13.875,-7.10417 13.0938,-8.40625 C12.3125,-9.70833 11.2708,-10.3594 9.96875,-10.3594 C8.40625,-10.3594 7.10417,-9.77083 6.0625,-8.59375 C5.08333,-7.29167 4.59375,-5.79688 4.59375,-4.10938 M0.484375,13.7656 L-0.78125,-45.7031 C0.135417,-46.224 1.04948,-46.4844 1.96094,-46.4844 C2.8724,-46.4844 3.78125,-46.224 4.6875,-45.7031 L3.90625,-11.2344 C6.57292,-13.5156 9.63542,-14.6563 13.0938,-14.6563 C15.625,-14.6563 17.737,-13.6146 19.4297,-11.5313 C21.1224,-9.44792 21.9688,-7.06771 21.9688,-4.39063 C21.9688,-2.70313 21.4167,-0.911458 20.3125,0.984375 C19.2708,2.73438 18.1667,4.09896 17,5.07813 C16.3438,5.59896 14.6823,6.90104 12.0156,8.98438 C11.2344,9.56771 10.3073,10.25 9.23438,11.0313 C8.16146,11.8125 7.49479,12.3021 7.23438,12.5 C6.77604,12.7604 6.34896,13.2813 5.95313,14.0625 C5.50521,14.7188 4.98438,15.2708 4.39063,15.7188 C3.94271,16.1146 3.39323,16.3125 2.74219,16.3125 C2.09115,16.3125 1.56771,16.0833 1.17188,15.625 C0.713542,15.1667 0.484375,14.5469 0.484375,13.7656"/>
<path class="Accidental" transform="matrix(0.566929,0,0,0.566929,354.242,345.26)" d="M4.59375,-4.10938 L4.59375,3.60938 C4.59375,6.34896 4.72396,8.53125 4.98438,10.1563 C7.13021,8.33333 8.66146,6.96875 9.57813,6.0625 C10.6198,5.02083 11.6615,3.58594 12.7031,1.75781 C13.7448,-0.0703125 14.2656,-1.89583 14.2656,-3.71875 C14.2656,-5.54167 13.875,-7.10417 13.0938,-8.40625 C12.3125,-9.70833 11.2708,-10.3594 9.96875,-10.3594 C8.40625,-10.3594 7.10417,-9.77083 6.0625,-8.59375 C5.08333,-7.29167 4.59375,-5.79688 4.59375,-4.10938 M0.484375,13.7656 L-0.78125,-45.7031 C0.135417,-46.224 1.04948,-46.4844 1.96094,-46.4844 C2.8724,-46.4844 3.78125,-46.224 4.6875,-45.7031 L3.90625,-11.2344 C6.57292,-13.5156 9.63542,-14.6563 13.0938,-14.6563 C15.625,-14.6563 17.737,-13.6146 19.4297,-11.5313 C21.1224,-9.44792 21.9688,-7.06771 21.9688,-4.39063 C21.9688,-2.70313 21.4167,-0.911458 20.3125,0.984375 C19.2708,2.73438 18.1667,4.09896 17,5.07813 C16.3438,5.59896 14.6823,6.90104 12.0156,8.98438 C11.2344,9.56771 10.3073,10.25 9.23438,11.0313 C8.16146,11.8125 7.49479,12.3021 7.23438,12.5 C6.77604,12.7604 6.34896,13.2813 5.95313,14.0625 C5.50521,14.7188 4.98438,15.2708 4.39063,15.7188 C3.94271,16.1146 3.39323,16.3125 2.74219,16.3125 C2.09115,16.3125 1.56771,16.0833 1.17188,15.625 C0.713542,15.1667 0.484375,14.5469 0.484375,13.7656"/>
<path class="Accidental" transform="matrix(0.566929,0,0,0.566929,417.097,338.173)" d="M4.59375,-4.10938 L4.59375,3.60938 C4.59375,6.34896 4.72396,8.53125 4.98438,10.1563 C7.13021,8.33333 8.66146,6.96875 9.57813,6.0625 C10.6198,5.02083 11.6615,3.58594 12.7031,1.75781 C13.7448,-0.0703125 14.2656,-1.89583 14.2656,-3.71875 C14.2656,-5.54167 13.875,-7.10417 13.0938,-8.40625 C12.3125,-9.70833 11.2708,-10.3594 9.96875,-10.3594 C8.40625,-10.3594 7.10417,-9.77083 6.0625,-8.59375 C5.08333,-7.29167 4.59375,-5.79688 4.59375,-4.10938 M0.484375,13.7656 L-0.78125,-45.7031 C0.135417,-46.224 1.04948,-46.4844 1.96094,-46.4844 C2.8724,-46.4844 3.78125,-46.224 4.6875,-45.7031 L3.90625,-11.2344 C6.57292,-13.5156 9.63542,-14.6563 13.0938,-14.6563 C15.625,-14.6563 17.737,-13.6146 19.4297,-11.5313 C21.1224,-9.44792 21.9688,-7.06771 21.9688,-4.39063 C21.9688,-2.70313 21.4167,-0.911458 20.3125,0.984375 C19.2708,2.73438 18.1667,4.09896 17,5.07813 C16.3438,5.59896 14.6823,6.90104 12.0156,8.98438 C11.2344,9.56771 10.3073,10.25 9.23438,11.0313 C8.16146,11.8125 7.49479,12.3021 7.23438,12.5 C6.77604,12.7604 6.34896,13.2813 5.95313,14.0625 C5.50521,14.7188 4.98438,15.2708 4.39063,15.7188 C3.94271,16.1146 3.39323,16.3125 2.74219,16.3125 C2.09115,16.3125 1.56771,16.0833 1.17188,15.625 C0.713542,15.1667 0.484375,14.5469 0.484375,13.7656"/>
<path class="Accidental" transform="matrix(0.566929,0,0,0.566929,479.953,331.087)" d="M4.59375,-4.10938 L4.59375,3.60938 C4.59375,6.34896 4.72396,8.53125 4.98438,10.1563 C7.13021,8.33333 8.66146,6.96875 9.57813,6.0625 C10.6198,5.02083 11.6615,3.58594 12.7031,1.75781 C13.7448,-0.0703125 14.2656,-1.89583 14.2656,-3.71875 C14.2656,-5.54167 13.875,-7.10417 13.0938,-8.40625 C12.3125,-9.70833 11.2708,-10.3594 9.96875,-10.3594 C8.40625,-10.3594 7.10417,-9.77083 6.0625,-8.59375 C5.08333,-7.29167 4.59375,-5.79688 4.59375,-4.10938 M0.484375,13.7656 L-0.78125,-45.7031 C0.135417,-46.224 1.04948,-46.4844 1.96094,-46.4844 C2.8724,-46.4844 3.78125,-46.224 4.6875,-45.7031 L3.90625,-11.2344 C6.57292,-13.5156 9.63542,-14.6563 13.0938,-14.6563 C15.625,-14.6563 17.737,-13.6146 19.4297,-11.5313 C21.1224,-9.44792 21.9688,-7.06771 21.9688,-4.39063 C21.9688,-2.70313 21.4167,-0.911458 20.3125,0.984375 C19.2708,2.73438 18.1667,4.09896 17,5.07813 C16.3438,5.59896 14.6823,6.90104 12.0156,8.98438 C11.2344,9.56771 10.3073,10.25 9.23438,11.0313 C8.16146,11.8125 7.49479,12.3021 7.23438,12.5 C6.77604,12.7604 6.34896,13.2813 5.95313,14.0625 C5.50521,14.7188 4.98438,15.2708 4.39063,15.7188 C3.94271,16.1146 3.39323,16.3125 2.74219,16.3125 C2.09115,16.3125 1.56771,16.0833 1.17188,15.625 C0.713542,15.1667 0.484375,14.5469 0.484375,13.7656"/>
<path class="Accidental" transform="matrix(0.566929,0,0,0.566929,542.809,324)" d="M4.59375,-4.10938 L4.59375,3.60938 C4.59375,6.34896 4.72396,8.53125 4.98438,10.1563 C7.13021,8.33333 8.66146,6.96875 9.57813,6.0625 C10.6198,5.02083 11.6615,3.58594 12.7031,1.75781 C13.7448,-0.0703125 14.2656,-1.89583 14.2656,-3.71875 C14.2656,-5.54167 13.875,-7.10417 13.0938,-8.40625 C12.3125,-9.70833 11.2708,-10.3594 9.96875,-10.3594 C8.40625,-10.3594 7.10417,-9.77083 6.0625,-8.59375 C5.08333,-7.29167 4.59375,-5.79688 4.59375,-4.10938 M0.484375,13.7656 L-0.78125,-45.7031 C0.135417,-46.224 1.04948,-46.4844 1.96094,-46.4844 C2.8724,-46.4844 3.78125,-46.224 4.6875,-45.7031 L3.90625,-11.2344 C6.57292,-13.5156 9.63542,-14.6563 13.0938,-14.6563 C15.625,-14.6563 17.737,-13.6146 19.4297,-11.5313 C21.1224,-9.44792 21.9688,-7.06771 21.9688,-4.39063 C21.9688,-2.70313 21.4167,-0.911458 20.3125,0.984375 C19.2708,2.73438 18.1667,4.09896 17,5.07813 C16.3438,5.59896 14.6823,6.90104 12.0156,8.98438 C11.2344,9.56771 10.3073,10.25 9.23438,11.0313 C8.16146,11.8125 7.49479,12.3021 7.23438,12.5 C6.77604,12.7604 6.34896,13.2813 5.95313,14.0625 C5.50521,14.7188 4.98438,15.2708 4.39063,15.7188 C3.94271,16.1146 3.39323,16.3125 2.74219,16.3125 C2.09115,16.3125 1.56771,16.0833 1.17188,15.625 C0.713542,15.1667 0.484375,14.5469 0.484375,13.7656"/>
<path class="Accidental" transform="matrix(0.566929,0,0,0.566929,102.818,231.874)" d="M4.59375,-4.10938 L4.59375,3.60938 C4.59375,6.34896 4.72396,8.53125 4.98438,10.1563 C7.13021,8.33333 8.66146,6.96875 9.57813,6.0625 C10.6198,5.02083 11.6615,3.58594 12.7031,1.75781 C13.7448,-0.0703125 14.2656,-1.89583 14.2656,-3.71875 C14.2656,-5.54167 13.875,-7.10417 13.0938,-8.40625 C12.3125,-9.70833 11.2708,-10.3594 9.96875,-10.3594 C8.40625,-10.3594 7.10417,-9.77083 6.0625,-8.59375 C5.08333,-7.29167 4.59375,-5.79688 4.59375,-4.10938 M0.484375,13.7656 L-0.78125,-45.7031 C0.135417,-46.224 1.04948,-46.4844 1.96094,-46.4844 C2.8724,-46.4844 3.78125,-46.224 4.6875,-45.7031 L3.90625,-11.2344 C6.57292,-13.5156 9.63542,-14.6563 13.0938,-14.6563 C15.625,-14.6563 17.737,-13.6146 19.4297,-11.5313 C21.1224,-9.44792 21.9688,-7.06771 21.9688,-4.39063 C21.9688,-2.70313 21.4167,-0.911458 20.3125,0.984375 C19.2708,2.73438 18.1667,4.09896 17,5.07813 C16.3438,5.59896 14.6823,6.90104 12.0156,8.98438 C11.2344,9.56771 10.3073,10.25 9.23438,11.0313 C8.16146,11.8125 7.49479,12.3021 7.23438,12.5 C6.77604,12.7604 6.34896,13.2813 5.95313,14.0625 C5.50521,14.7188 4.98438,15.2708 4.39063,15.7188 C3.94271,16.1146 3.39323,16.3125 2.74219,16.3125 C2.09115,16.3125 1.56771,16.0833 1.17188,15.625 C0.713542,15.1667 0.484375,14.5469 0.484375,13.7656"/>
<path class="Accidental" transform="matrix(0.566929,0,0,0.566929,156.528,224.787)" d="M21,-4.10938 L20.7969,3.60938 C20.7969,6.34896 20.9271,8.53125 21.1875,10.1563 C26.9896,5.27083 29.8906,0.645833 29.8906,-3.71875 C29.8906,-5.60417 29.5625,-7.16667 28.9063,-8.40625 C28.1875,-9.70833 27.1771,-10.3594 25.875,-10.3594 C24.3854,-10.3594 23.2135,-9.77083 22.3594,-8.59375 C21.5781,-7.42708 21.125,-5.93229 21,-4.10938 M16.7031,13.7656 L16.4063,3.21875 C14.9792,4.91667 13.1563,6.70833 10.9375,8.59375 C8.65625,10.6146 7.22396,11.9167 6.64063,12.5 C6.38021,12.7604 6.05729,13.2813 5.67188,14.0625 C5.01563,14.9792 4.55729,15.5313 4.29688,15.7188 C3.77604,16.1146 3.25521,16.3125 2.73438,16.3125 C2.08854,16.3125 1.56771,16.0833 1.17188,15.625 C0.713542,15.1667 0.484375,14.5469 0.484375,13.7656 L-0.78125,-45.7031 C0.135417,-46.224 1.04948,-46.4844 1.96094,-46.4844 C2.8724,-46.4844 3.78125,-46.224 4.6875,-45.7031 L3.90625,-11.2344 C5.79167,-13.5156 8.13542,-14.6563 10.9375,-14.6563 C12.9583,-14.6563 14.6823,-13.9375 16.1094,-12.5 L15.4375,-45.7031 C16.3438,-46.224 17.2526,-46.4844 18.1641,-46.4844 C19.0755,-46.4844 19.9896,-46.224 20.9063,-45.7031 L20.2188,-11.2344 C22.8854,-13.5156 25.7813,-14.6563 28.9063,-14.6563 C31.5104,-14.6563 33.724,-13.6458 35.5469,-11.625 C37.3073,-9.60417 38.1875,-7.22917 38.1875,-4.5 C38.1875,-2.67708 37.6354,-0.848958 36.5313,0.984375 C35.3542,2.73438 34.2448,4.06771 33.2031,4.98438 C32.099,5.89063 30.4063,7.19271 28.125,8.89063 C26.3021,10.2552 24.7396,11.4583 23.4375,12.5 C23.2396,12.6354 22.849,13.125 22.2656,13.9688 C21.8073,14.6146 21.2865,15.1667 20.7031,15.625 C20.2448,16.0833 19.6927,16.3125 19.0469,16.3125 C18.4635,16.3125 17.9115,16.0521 17.3906,15.5313 C16.9323,15.0729 16.7031,14.4844 16.7031,13.7656 M3.60938,3.60938 C3.60938,5.82813 3.77604,8.07813 4.10938,10.3594 C8.79688,5.79688 11.1406,1.10417 11.1406,-3.71875 C11.1406,-8.14583 10.0313,-10.3594 7.8125,-10.3594 C5.20833,-10.3594 3.875,-8.27604 3.8125,-4.10938 L3.60938,3.60938 "/>
<path class="Accidental" transform="matrix(0.566929,0,0,0.566929,219.384,217.701)" d="M21,-4.10938 L20.7969,3.60938 C20.7969,6.34896 20.9271,8.53125 21.1875,10.1563 C26.9896,5.27083 29.8906,0.645833 29.8906,-3.71875 C29.8906,-5.60417 29.5625,-7.16667 28.9063,-8.40625 C28.1875,-9.70833 27.1771,-10.3594 25.875,-10.3594 C24.3854,-10.3594 23.2135,-9.77083 22.3594,-8.59375 C21.5781,-7.42708 21.125,-5.93229 21,-4.10938 M16.7031,13.7656 L16.4063,3.21875 C14.9792,4.91667 13.1563,6.70833 10.9375,8.59375 C8.65625,10.6146 7.22396,11.9167 6.64063,12.5 C6.38021,12.7604 6.05729,13.2813 5.67188,14.0625 C5.01563,14.9792 4.55729,15.5313 4.29688,15.7188 C3.77604,16.1146 3.25521,16.3125 2.73438,16.3125 C2.08854,16.3125 1.56771,16.0833 1.17188,15.625 C0.713542,15.1667 0.484375,14.5469 0.484375,13.7656 L-0.78125,-45.7031 C0.135417,-46.224 1.04948,-46.4844 1.96094,-46.4844 C2.8724,-46.4844 3.78125,-46.224 4.6875,-45.7031 L3.90625,-11.2344 C5.79167,-13.5156 8.13542,-14.6563 10.9375,-14.6563 C12.9583,-14.6563 14.6823,-13.9375 16.1094,-12.5 L15.4375,-45.7031 C16.3438,-46.224 17.2526,-46.4844 18.1641,-46.4844 C19.0755,-46.4844 19.9896,-46.224 20.9063,-45.7031 L20.2188,-11.2344 C22.8854,-13.5156 25.7813,-14.6563 28.9063,-14.6563 C31.5104,-14.6563 33.724,-13.6458 35.5469,-11.625 C37.3073,-9.60417 38.1875,-7.22917 38.1875,-4.5 C38.1875,-2.67708 37.6354,-0.848958 36.5313,0.984375 C35.3542,2.73438 34.2448,4.06771 33.2031,4.98438 C32.099,5.89063 30.4063,7.19271 28.125,8.89063 C26.3021,10.2552 24.7396,11.4583 23.4375,12.5 C23.2396,12.6354 22.849,13.125 22.2656,13.9688 C21.8073,14.6146 21.2865,15.1667 20.7031,15.625 C20.2448,16.0833 19.6927,16.3125 19.0469,16.3125 C18.4635,16.3125 17.9115,16.0521 17.3906,15.5313 C16.9323,15.0729 16.7031,14.4844 16.7031,13.7656 M3.60938,3.60938 C3.60938,5.82813 3.77604,8.07813 4.10938,10.3594 C8.79688,5.79688 11.1406,1.10417 11.1406,-3.71875 C11.1406,-8.14583 10.0313,-10.3594 7.8125,-10.3594 C5.20833,-10.3594 3.875,-8.27604 3.8125,-4.10938 L3.60938,3.60938 "/>
<path class="Accidental" transform="matrix(0.566929,0,0,0.566929,291.386,210.614)" d="M4.59375,-4.10938 L4.59375,3.60938 C4.59375,6.34896 4.72396,8.53125 4.98438,10.1563 C7.13021,8.33333 8.66146,6.96875 9.57813,6.0625 C10.6198,5.02083 11.6615,3.58594 12.7031,1.75781 C13.7448,-0.0703125 14.2656,-1.89583 14.2656,-3.71875 C14.2656,-5.54167 13.875,-7.10417 13.0938,-8.40625 C12.3125,-9.70833 11.2708,-10.3594 9.96875,-10.3594 C8.40625,-10.3594 7.10417,-9.77083 6.0625,-8.59375 C5.08333,-7.29167 4.59375,-5.79688 4.59375,-4.10938 M0.484375,13.7656 L-0.78125,-45.7031 C0.135417,-46.224 1.04948,-46.4844 1.96094,-46.4844 C2.8724,-46.4844 3.78125,-46.224 4.6875,-45.7031 L3.90625,-11.2344 C6.57292,-13.5156 9.63542,-14.6563 13.0938,-14.6563 C15.625,-14.6563 17.737,-13.6146 19.4297,-11.5313 C21.1224,-9.44792 21.9688,-7.06771 21.9688,-4.39063 C21.9688,-2.70313 21.4167,-0.911458 20.3125,0.984375 C19.2708,2.73438 18.1667,4.09896 17,5.07813 C16.3438,5.59896 14.6823,6.90104 12.0156,8.98438 C11.2344,9.56771 10.3073,10.25 9.23438,11.0313 C8.16146,11.8125 7.49479,12.3021 7.23438,12.5 C6.77604,12.7604 6.34896,13.2813 5.95313,14.0625 C5.50521,14.7188 4.98438,15.2708 4.39063,15.7188 C3.94271,16.1146 3.39323,16.3125 2.74219,16.3125 C2.09115,16.3125 1.56771,16.0833 1.17188,15.625 C0.713542,15.1667 0.484375,14.5469 0.484375,13.7656"/>
<path class="Accidental" transform="matrix(0.566929,0,0,0.566929,354.242,203.528)" d="M4.59375,-4.10938 L4.59375,3.60938 C4.59375,6.34896 4.72396,8.53125 4.98438,10.1563 C7.13021,8.33333 8.66146,6.96875 9.57813,6.0625 C10.6198,5.02083 11.6615,3.58594 12.7031,1.75781 C13.7448,-0.0703125 14.2656,-1.89583 14.2656,-3.71875 C14.2656,-5.54167 13.875,-7.10417 13.0938,-8.40625 C12.3125,-9.70833 11.2708,-10.3594 9.96875,-10.3594 C8.40625,-10.3594 7.10417,-9.77083 6.0625,-8.59375 C5.08333,-7.29167 4.59375,-5.79688 4.59375,-4.10938 M0.484375,13.7656 L-0.78125,-45.7031 C0.135417,-46.224 1.04948,-46.4844 1.96094,-46.4844 C2.8724,-46.4844 3.78125,-46.224 4.6875,-45.7031 L3.90625,-11.2344 C6.57292,-13.5156 9.63542,-14.6563 13.0938,-14.6563 C15.625,-14.6563 17.737,-13.6146 19.4297,-11.5313 C21.1224,-9.44792 21.9688,-7.06771 21.9688,-4.39063 C21.9688,-2.70313 21.4167,-0.911458 20.3125,0.984375 C19.2708,2.73438 18.1667,4.09896 17,5.07813 C16.3438,5.59896 14.6823,6.90104 12.0156,8.98438 C11.2344,9.56771 10.3073,10.25 9.23438,11.0313 C8.16146,11.8125 7.49479,12.3021 7.23438,12.5 C6.77604,12.7604 6.34896,13.2813 5.95313,14.0625 C5.50521,14.7188 4.98438,15.2708 4.39063,15.7188 C3.94271,16.1146 3.39323,16.3125 2.74219,16.3125 C2.09115,16.3125 1.56771,16.0833 1.17188,15.625 C0.713542,15.1667 0.484375,14.5469 0.484375,13.7656"/>
<path class="Accidental" transform="matrix(0.566929,0,0,0.566929,417.097,196.441)" d="M4.59375,-4.10938 L4.59375,3.60938 C4.59375,6.34896 4.72396,8.53125 4.98438,10.1563 C7.13021,8.33333 8.66146,6.96875 9.57813,6.0625 C10.6198,5.02083 11.6615,3.58594 12.7031,1.75781 C13.7448,-0.0703125 14.2656,-1.89583 14.2656,-3.71875 C14.2656,-5.54167 13.875,-7.10417 13.0938,-8.40625 C12.3125,-9.70833 11.2708,-10.3594 9.96875,-10.3594 C8.40625,-10.3594 7.10417,-9.77083 6.0625,-8.59375 C5.08333,-7.29167 4.59375,-5.79688 4.59375,-4.10938 M0.484375,13.7656 L-0.78125,-45.7031 C0.135417,-46.224 1.04948,-46.4844 1.96094,-46.4844 C2.8724,-46.4844 3.78125,-46.224 4.6875,-45.7031 L3.90625,-11.2344 C6.57292,-13.5156 9.63542,-14.6563 13.0938,-14.6563 C15.625,-14.6563 17.737,-13.6146 19.4297,-11.5313 C21.1224,-9.44792 21.9688,-7.06771 21.9688,-4.39063 C21.9688,-2.70313 21.4167,-0.911458 20.3125,0.984375 C19.2708,2.73438 18.1667,4.09896 17,5.07813 C16.3438,5.59896 14.6823,6.90104 12.0156,8.98438 C11.2344,9.56771 10.3073,10.25 9.23438,11.0313 C8.16146,11.8125 7.49479,12.3021 7.23438,12.5 C6.77604,12.7604 6.34896,13.2813 5.95313,14.0625 C5.50521,14.7188 4.98438,15.2708 4.39063,15.7188 C3.94271,16.1146 3.39323,16.3125 2.74219,16.3125 C2.09115,16.3125 1.56771,16.0833 1.17188,15.625 C0.713542,15.1667 0.484375,14.5469 0.484375,13.7656"/>
<path class="Accidental" transform="matrix(0.566929,0,0,0.566929,479.953,189.354)" d="M4.59375,-4.10938 L4.59375,3.60938 C4.59375,6.34896 4.72396,8.53125 4.98438,10.1563 C7.13021,8.33333 8.66146,6.96875 9.57813,6.0625 C10.6198,5.02083 11.6615,3.58594 12.7031,1.75781 C13.7448,-0.0703125 14.2656,-1.89583 14.2656,-3.71875 C14.2656,-5.54167 13.875,-7.10417 13.0938,-8.40625 C12.3125,-9.70833 11.2708,-10.3594 9.96875,-10.3594 C8.40625,-10.3594 7.10417,-9.77083 6.0625,-8.59375 C5.08333,-7.29167 4.59375,-5.79688 4.59375,-4.10938 M0.484375,13.7656 L-0.78125,-45.7031 C0.135417,-46.224 1.04948,-46.4844 1.96094,-46.4844 C2.8724,-46.4844 3.78125,-46.224 4.6875,-45.7031 L3.90625,-11.2344 C6.57292,-13.5156 9.63542,-14.6563 13.0938,-14.6563 C15.625,-14.6563 17.737,-13.6146 19.4297,-11.5313 C21.1224,-9.44792 21.9688,-7.06771 21.9688,-4.39063 C21.9688,-2.70313 21.4167,-0.911458 20.3125,0.984375 C19.2708,2.73438 18.1667,4.09896 17,5.07813 C16.3438,5.59896 14.6823,6.90104 12.0156,8.98438 C11.2344,9.56771 10.3073,10.25 9.23438,11.0313 C8.16146,11.8125 7.49479,12.3021 7.23438,12.5 C6.77604,12.7604 6.34896,13.2813 5.95313,14.0625 C5.50521,14.7188 4.98438,15.2708 4.39063,15.7188 C3.94271,16.1146 3.39323,16.3125 2.74219,16.3125 C2.09115,16.3125 1.56771,16.0833 1.17188,15.625 C0.713542,15.1667 0.484375,14.5469 0.484375,13.7656"/>
<path class="Accidental" transform="matrix(0.566929,0,0,0.566929,542.809,182.268)" d="M4.59375,-4.10938 L4.59375,3.60938 C4.59375,6.34896 4.72396,8.53125 4.98438,10.1563 C7.13021,8.33333 8.66146,6.96875 9.57813,6.0625 C10.6198,5.02083 11.6615,3.58594 12.7031,1.75781 C13.7448,-0.0703125 14.2656,-1.89583 14.2656,-3.71875 C14.2656,-5.54167 13.875,-7.10417 13.0938,-8.40625 C12.3125,-9.70833 11.2708,-10.3594 9.96875,-10.3594 C8.40625,-10.3594 7.10417,-9.77083 6.0625,-8.59375 C5.08333,-7.29167 4.59375,-5.79688 4.59375,-4.10938 M0.484375,13.7656 L-0.78125,-45.7031 C0.135417,-46.224 1.04948,-46.4844 1.96094,-46.4844 C2.8724,-46.4844 3.78125,-46.224 4.6875,-45.7031 L3.90625,-11.2344 C6.57292,-13.5156 9.63542,-14.6563 13.0938,-14.6563 C15.625,-14.6563 17.737,-13.6146 19.4297,-11.5313 C21.1224,-9.44792 21.9688,-7.06771 21.9688,-4.39063 C21.9688,-2.70313 21.4167,-0.911458 20.3125,0.984375 C19.2708,2.73438 18.1667,4.09896 17,5.07813 C16.3438,5.59896 14.6823,6.90104 12.0156,8.98438 C11.2344,9.56771 10.3073,10.25 9.23438,11.0313 C8.16146,11.8125 7.49479,12.3021 7.23438,12.5 C6.77604,12.7604 6.34896,13.2813 5.95313,14.0625 C5.50521,14.7188 4.98438,15.2708 4.39063,15.7188 C3.94271,16.1146 3.39323,16.3125 2.74219,16.3125 C2.09115,16.3125 1.56771,16.0833 1.17188,15.625 C0.713542,15.1667 0.484375,14.5469 0.484375,13.7656"/>
<path class="Accidental" transform="matrix(0.566929,0,0,0.566929,102.818,90.1417)" d="M4.59375,-4.10938 L4.59375,3.60938 C4.59375,6.34896 4.72396,8.53125 4.98438,10.1563 C7.13021,8.33333 8.66146,6.96875 9.57813,6.0625 C10.6198,5.02083 11.6615,3.58594 12.7031,1.75781 C13.7448,-0.0703125 14.2656,-1.89583 14.2656,-3.71875 C14.2656,-5.54167 13.875,-7.10417 13.0938,-8.40625 C12.3125,-9.70833 11.2708,-10.3594 9.96875,-10.3594 C8.40625,-10.3594 7.10417,-9.77083 6.0625,-8.59375 C5.08333,-7.29167 4.59375,-5.79688 4.59375,-4.10938 M0.484375,13.7656 L-0.78125,-45.7031 C0.135417,-46.224 1.04948,-46.4844 1.96094,-46.4844 C2.8724,-46.4844 3.78125,-46.224 4.6875,-45.7031 L3.90625,-11.2344 C6.57292,-13.5156 9.63542,-14.6563 13.0938,-14.6563 C15.625,-14.6563 17.737,-13.6146 19.4297,-11.5313 C21.1224,-9.44792 21.9688,-7.06771 21.9688,-4.39063 C21.9688,-2.70313 21.4167,-0.911458 20.3125,0.984375 C19.2708,2.73438 18.1667,4.09896 17,5.07813 C16.3438,5.59896 14.6823,6.90104 12.0156,8.98438 C11.2344,9.56771 10.3073,10.25 9.23438,11.0313 C8.16146,11.8125 7.49479,12.3021 7.23438,12.5 C6.77604,12.7604 6.34896,13.2813 5.95313,14.0625 C5.50521,14.7188 4.98438,15.2708 4.39063,15.7188 C3.94271,16.1146 3.39323,16.3125 2.74219,16.3125 C2.09115,16.3125 1.56771,16.0833 1.17188,15.625 C0.713542,15.1667 0.484375,14.5469 0.484375,13.7656"/>
<path class="Accidental" transform="matrix(0.566929,0,0,0.566929,156.528,83.0551)" d="M21,-4.10938 L20.7969,3.60938 C20.7969,6.34896 20.9271,8.53125 21.1875,10.1563 C26.9896,5.27083 29.8906,0.645833 29.8906,-3.71875 C29.8906,-5.60417 29.5625,-7.16667 28.9063,-8.40625 C28.1875,-9.70833 27.1771,-10.3594 25.875,-10.3594 C24.3854,-10.3594 23.2135,-9.77083 22.3594,-8.59375 C21.5781,-7.42708 21.125,-5.93229 21,-4.10938 M16.7031,13.7656 L16.4063,3.21875 C14.9792,4.91667 13.1563,6.70833 10.9375,8.59375 C8.65625,10.6146 7.22396,11.9167 6.64063,12.5 C6.38021,12.7604 6.05729,13.2813 5.67188,14.0625 C5.01563,14.9792 4.55729,15.5313 4.29688,15.7188 C3.77604,16.1146 3.25521,16.3125 2.73438,16.3125 C2.08854,16.3125 1.56771,16.0833 1.17188,15.625 C0.713542,15.1667 0.484375,14.5469 0.484375,13.7656 L-0.78125,-45.7031 C0.135417,-46.224 1.04948,-46.4844 1.96094,-46.4844 C2.8724,-46.4844 3.78125,-46.224 4.6875,-45.7031 L3.90625,-11.2344 C5.79167,-13.5156 8.13542,-14.6563 10.9375,-14.6563 C12.9583,-14.6563 14.6823,-13.9375 16.1094,-12.5 L15.4375,-45.7031 C16.3438,-46.224 17.2526,-46.4844 18.1641,-46.4844 C19.0755,-46.4844 19.9896,-46.224 20.9063,-45.7031 L20.2188,-11.2344 C22.8854,-13.5156 25.7813,-14.6563 28.9063,-14.6563 C31.5104,-14.6563 33.724,-13.6458 35.5469,-11.625 C37.3073,-9.60417 38.1875,-7.22917 38.1875,-4.5 C38.1875,-2.67708 37.6354,-0.848958 36.5313,0.984375 C35.3542,2.73438 34.2448,4.06771 33.2031,4.98438 C32.099,5.89063 30.4063,7.19271 28.125,8.89063 C26.3021,10.2552 24.7396,11.4583 23.4375,12.5 C23.2396,12.6354 22.849,13.125 22.2656,13.9688 C21.8073,14.6146 21.2865,15.1667 20.7031,15.625 C20.2448,16.0833 19.6927,16.3125 19.0469,16.3125 C18.4635,16.3125 17.9115,16.0521 17.3906,15.5313 C16.9323,15.0729 16.7031,14.4844 16.7031,13.7656 M3.60938,3.60938 C3.60938,5.82813 3.77604,8.07813 4.10938,10.3594 C8.79688,5.79688 11.1406,1.10417 11.1406,-3.71875 C11.1406,-8.14583 10.0313,-10.3594 7.8125,-10.3594 C5.20833,-10.3594 3.875,-8.27604 3.8125,-4.10938 L3.60938,3.60938 "/>
<path class="Accidental" transform="matrix(0.566929,0,0,0.566929,219.384,75.9685)" d="M21,-4.10938 L20.7969,3.60938 C20.7969,6.34896 20.9271,8.53125 21.1875,10.1563 C26.9896,5.27083 29.8906,0.645833 29.8906,-3.71875 C29.8906,-5.60417 29.5625,-7.16667 28.9063,-8.40625 C28.1875,-9.70833 27.1771,-10.3594 25.875,-10.3594 C24.3854,-10.3594 23.2135,-9.77083 22.3594,-8.59375 C21.5781,-7.42708 21.125,-5.93229 21,-4.10938 M16.7031,13.7656 L16.4063,3.21875 C14.9792,4.91667 13.1563,6.70833 10.9375,8.59375 C8.65625,10.6146 7.22396,11.9167 6.64063,12.5 C6.38021,12.7604 6.05729,13.2813 5.67188,14.0625 C5.01563,14.9792 4.55729,15.5313 4.29688,15.7188 C3.77604,16.1146 3.25521,16.3125 2.73438,16.3125 C2.08854,16.3125 1.56771,16.0833 1.17188,15.625 C0.713542,15.1667 0.484375,14.5469 0.484375,13.7656 L-0.78125,-45.7031 C0.135417,-46.224 1.04948,-46.4844 1.96094,-46.4844 C2.8724,-46.4844 3.78125,-46.224 4.6875,-45.7031 L3.90625,-11.2344 C5.79167,-13.5156 8.13542,-14.6563 10.9375,-14.6563 C12.9583,-14.6563 14.6823,-13.9375 16.1094,-12.5 L15.4375,-45.7031 C16.3438,-46.224 17.2526,-46.4844 18.1641,-46.4844 C19.0755,-46.4844 19.9896,-46.224 20.9063,-45.7031 L20.2188,-11.2344 C22.8854,-13.5156 25.7813,-14.6563 28.9063,-14.6563 C31.5104,-14.6563 33.724,-13.6458 35.5469,-11.625 C37.3073,-9.60417 38.1875,-7.22917 38.1875,-4.5 C38.1875,-2.67708 37.6354,-0.848958 36.5313,0.984375 C35.3542,2.73438 34.2448,4.06771 33.2031,4.98438 C32.099,5.89063 30.4063,7.19271 28.125,8.89063 C26.3021,10.2552 24.7396,11.4583 23.4375,12.5 C23.2396,12.6354 22.849,13.125 22.2656,13.9688 C21.8073,14.6146 21.2865,15.1667 20.7031,15.625 C20.2448,16.0833 19.6927,16.3125 19.0469,16.3125 C18.4635,16.3125 17.9115,16.0521 17.3906,15.5313 C16.9323,15.0729 16.7031,14.4844 16.7031,13.7656 M3.60938,3.60938 C3.60938,5.82813 3.77604,8.07813 4.10938,10.3594 C8.79688,5.79688 11.1406,1.10417 11.1406,-3.71875 C11.1406,-8.14583 10.0313,-10.3594 7.8125,-10.3594 C5.20833,-10.3594 3.875,-8.27604 3.8125,-4.10938 L3.60938,3.60938 "/>
<path class="Accidental" transform="matrix(0.566929,0,0,0.566929,291.386,68.8819)" d="M4.59375,-4.10938 L4.59375,3.60938 C4.59375,6.34896 4.72396,8.53125 4.98438,10.1563 C7.13021,8.33333 8.66146,6.96875 9.57813,6.0625 C10.6198,5.02083 11.6615,3.58594 12.7031,1.75781 C13.7448,-0.0703125 14.2656,-1.89583 14.2656,-3.71875 C14.2656,-5.54167 13.875,-7.10417 13.0938,-8.40625 C12.3125,-9.70833 11.2708,-10.3594 9.96875,-10.3594 C8.40625,-10.3594 7.10417,-9.77083 6.0625,-8.59375 C5.08333,-7.29167 4.59375,-5.79688 4.59375,-4.10938 M0.484375,13.7656 L-0.78125,-45.7031 C0.135417,-46.224 1.04948,-46.4844 1.96094,-46.4844 C2.8724,-46.4844 3.78125,-46.224 4.6875,-45.7031 L3.90625,-11.2344 C6.57292,-13.5156 9.63542,-14.6563 13.0938,-14.6563 C15.625,-14.6563 17.737,-13.6146 19.4297,-11.5313 C21.1224,-9.44792 21.9688,-7.06771 21.9688,-4.39063 C21.9688,-2.70313 21.4167,-0.911458 20.3125,0.984375 C19.2708,2.73438 18.1667,4.09896 17,5.07813 C16.3438,5.59896 14.6823,6.90104 12.0156,8.98438 C11.2344,9.56771 10.3073,10.25 9.23438,11.0313 C8.16146,11.8125 7.49479,12.3021 7.23438,12.5 C6.77604,12.7604 6.34896,13.2813 5.95313,14.0625 C5.50521,14.7188 4.98438,15.2708 4.39063,15.7188 C3.94271,16.1146 3.39323,16.3125 2.74219,16.3125 C2.09115,16.3125 1.56771,16.0833 1.17188,15.625 C0.713542,15.1667 0.484375,14.5469 0.484375,13.7656"/>
<path class="Accidental" transform="matrix(0.566929,0,0,0.566929,354.242,61.7953)" d="M4.59375,-4.10938 L4.59375,3.60938 C4.59375,6.34896 4.72396,8.53125 4.98438,10.1563 C7.13021,8.33333 8.66146,6.96875 9.57813,6.0625 C10.6198,5.02083 11.6615,3.58594 12.7031,1.75781 C13.7448,-0.0703125 14.2656,-1.89583 14.2656,-3.71875 C14.2656,-5.54167 13.875,-7.10417 13.0938,-8.40625 C12.3125,-9.70833 11.2708,-10.3594 9.96875,-10.3594 C8.40625,-10.3594 7.10417,-9.77083 6.0625,-8.59375 C5.08333,-7.29167 4.59375,-5.79688 4.59375,-4.10938 M0.484375,13.7656 L-0.78125,-45.7031 C0.135417,-46.224 1.04948,-46.4844 1.96094,-46.4844 C2.8724,-46.4844 3.78125,-46.224 4.6875,-45.7031 L3.90625,-11.2344 C6.57292,-13.5156 9.63542,-14.6563 13.0938,-14.6563 C15.625,-14.6563 17.737,-13.6146 19.4297,-11.5313 C21.1224,-9.44792 21.9688,-7.06771 21.9688,-4.39063 C21.9688,-2.70313 21.4167,-0.911458 20.3125,0.984375 C19.2708,2.73438 18.1667,4.09896 17,5.07813 C16.3438,5.59896 14.6823,6.90104 12.0156,8.98438 C11.2344,9.56771 10.3073,10.25 9.23438,11.0313 C8.16146,11.8125 7.49479,12.3021 7.23438,12.5 C6.77604,12.7604 6.34896,13.2813 5.95313,14.0625 C5.50521,14.7188 4.98438,15.2708 4.39063,15.7188 C3.94271,16.1146 3.39323,16.3125 2.74219,16.3125 C2.09115,16.3125 1.56771,16.0833 1.17188,15.625 C0.713542,15.1667 0.484375,14.5469 0.484375,13.7656"/>
<path class="Accidental" transform="matrix(0.566929,0,0,0.566929,417.097,54.7087)" d="M4.59375,-4.10938 L4.59375,3.60938 C4.59375,6.34896 4.72396,8.53125 4.98438,10.1563 C7.13021,8.33333 8.66146,6.96875 9.57813,6.0625 C10.6198,5.02083 11.6615,3.58594 12.7031,1.75781 C13.7448,-0.0703125 14.2656,-1.89583 14.2656,-3.71875 C14.2656,-5.54167 13.875,-7.10417 13.0938,-8.40625 C12.3125,-9.70833 11.2708,-10.3594 9.96875,-10.3594 C8.40625,-10.3594 7.10417,-9.77083 6.0625,-8.59375 C5.08333,-7.29167 4.59375,-5.79688 4.59375,-4.10938 M0.484375,13.7656 L-0.78125,-45.7031 C0.135417,-46.224 1.04948,-46.4844 1.96094,-46.4844 C2.8724,-46.4844 3.78125,-46.224 4.6875,-45.7031 L3.90625,-11.2344 C6.57292,-13.5156 9.63542,-14.6563 13.0938,-14.6563 C15.625,-14.6563 17.737,-13.6146 19.4297,-11.5313 C21.1224,-9.44792 21.9688,-7.06771 21.9688,-4.39063 C21.9688,-2.70313 21.4167,-0.911458 20.3125,0.984375 C19.2708,2.73438 18.1667,4.09896 17,5.07813 C16.3438,5.59896 14.6823,6.90104 12.0156,8.98438 C11.2344,9.56771 10.3073,10.25 9.23438,11.0313 C8.16146,11.8125 7.49479,12.3021 7.23438,12.5 C6.77604,12.7604 6.34896,13.2813 5.95313,14.0625 C5.50521,14.7188 4.98438,15.2708 4.39063,15.7188 C3.94271,16.1146 3.39323,16.3125 2.74219,16.3125 C2.09115,16.3125 1.56771,16.0833 1.17188,15.625 C0.713542,15.1667 0.484375,14.5469 0.484375,13.7656"/>
<path class="Accidental" transform="matrix(0.566929,0,0,0.566929,479.953,47.6221)" d="M4.59375,-4.10938 L4.59375,3.60938 C4.59375,6.34896 4.72396,8.53125 4.98438,10.1563 C7.13021,8.33333 8.66146,6.96875 9.57813,6.0625 C10.6198,5.02083 11.6615,3.58594 12.7031,1.75781 C13.7448,-0.0703125 14.2656,-1.89583 14.2656,-3.71875 C14.2656,-5.54167 13.875,-7.10417 13.0938,-8.40625 C12.3125,-9.70833 11.2708,-10.3594 9.96875,-10.3594 C8.40625,-10.3594 7.10417,-9.77083 6.0625,-8.59375 C5.08333,-7.29167 4.59375,-5.79688 4.59375,-4.10938 M0.484375,13.7656 L-0.78125,-45.7031 C0.135417,-46.224 1.04948,-46.4844 1.96094,-46.4844 C2.8724,-46.4844 3.78125,-46.224 4.6875,-45.7031 L3.90625,-11.2344 C6.57292,-13.5156 9.63542,-14.6563 13.0938,-14.6563 C15.625,-14.6563 17.737,-13.6146 19.4297,-11.5313 C21.1224,-9.44792 21.9688,-7.06771 21.9688,-4.39063 C21.9688,-2.70313 21.4167,-0.911458 20.3125,0.984375 C19.2708,2.73438 18.1667,4.09896 17,5.07813 C16.3438,5.59896 14.6823,6.90104 12.0156,8.98438 C11.2344,9.56771 10.3073,10.25 9.23438,11.0313 C8.16146,11.8125 7.49479,12.3021 7.23438,12.5 C6.77604,12.7604 6.34896,13.2813 5.95313,14.0625 C5.50521,14.7188 4.98438,15.2708 4.39063,15.7188 C3.94271,16.1146 3.39323,16.3125 2.74219,16.3125 C2.09115,16.3125 1.56771,16.0833 1.17188,15.625 C0.713542,15.1667 0.484375,14.5469 0.484375,13.7656"/>
<path class="Accidental" transform="matrix(0.566929,0,0,0.566929,542.809,40.5354)" d="M4.59375,-4.10938 L4.59375,3.60938 C4.59375,6.34896 4.72396,8.53125 4.98438,10.1563 C7.13021,8.33333 8.66146,6.96875 9.57813,6.0625 C10.6198,5.02083 11.6615,3.58594 12.7031,1.75781 C13.7448,-0.0703125 14.2656,-1.89583 14.2656,-3.71875 C14.2656,-5.54167 13.875,-7.10417 13.0938,-8.40625 C12.3125,-9.70833 11.2708,-10.3594 9.96875,-10.3594 C8.40625,-10.3594 7.10417,-9.77083 6.0625,-8.59375 C5.08333,-7.29167 4.59375,-5.79688 4.59375,-4.10938 M0.484375,13.7656 L-0.78125,-45.7031 C0.135417,-46.224 1.04948,-46.4844 1.96094,-46.4844 C2.8724,-46.4844 3.78125,-46.224 4.6875,-45.7031 L3.90625,-11.2344 C6.57292,-13.5156 9.63542,-14.6563 13.0938,-14.6563 C15.625,-14.6563 17.737,-13.6146 19.4297,-11.5313 C21.1224,-9.44792 21.9688,-7.06771 21.9688,-4.39063 C21.9688,-2.70313 21.4167,-0.911458 20.3125,0.984375 C19.2708,2.73438 18.1667,4.09896 17,5.07813 C16.3438,5.59896 14.6823,6.90104 12.0156,8.98438 C11.2344,9.56771 10.3073,10.25 9.23438,11.0313 C8.16146,11.8125 7.49479,12.3021 7.23438,12.5 C6.77604,12.7604 6.34896,13.2813 5.95313,14.0625 C5.50521,14.7188 4.98438,15.2708 4.39063,15.7188 C3.94271,16.1146 3.39323,16.3125 2.74219,16.3125 C2.09115,16.3125 1.56771,16.0833 1.17188,15.625 C0.713542,15.1667 0.484375,14.5469 0.484375,13.7656"/>
<path class="Note" fill="#ffffff" fill-opacity="0.0" fill-rule="evenodd" d="M119.782,715.535 L138.49,715.535 L138.49,740.339 L119.782,740.339 L119.782,715.535 "/>
<path class="Note" d="M122.605,725.718 C122.73,721.125 124.912,718.828 129.152,718.828 C131.037,718.828 132.569,719.369 133.746,720.453 C134.923,721.536 135.511,722.937 135.511,724.656 C135.511,727.125 134.11,729.125 131.308,730.656 L128.511,732.156 C127.293,732.812 126.423,733.447 125.902,734.062 C125.381,734.677 125.053,735.406 124.918,736.25 L135.371,736.25 L135.371,738.687 L122.152,738.687 C122.267,736.5 122.707,734.815 123.472,733.632 C124.238,732.45 125.657,731.27 127.73,730.093 L130.293,728.64 C132.084,727.609 132.98,726.302 132.98,724.718 C132.98,723.656 132.608,722.768 131.863,722.054 C131.118,721.341 130.188,720.984 129.074,720.984 C126.584,720.984 125.246,722.562 125.058,725.718 L122.605,725.718 "/>
<path class="Note" fill="#ffffff" fill-opacity="0.0" fill-rule="evenodd" d="M119.782,665.929 L138.49,665.929 L138.49,690.732 L119.782,690.732 L119.782,665.929 "/>
<path class="Note" d="M130.355,684.315 L121.98,684.315 L121.98,681.721 L130.996,669.221 L132.824,669.221 L132.824,682.112 L135.761,682.112 L135.761,684.315 L132.824,684.315 L132.824,689.081 L130.355,689.081 L130.355,684.315 M130.355,682.112 L130.355,673.424 L124.136,682.112 L130.355,682.112 "/>
<path class="Note" fill="#ffffff" fill-opacity="0.0" fill-rule="evenodd" d="M182.637,715.535 L201.346,715.535 L201.346,740.339 L182.637,740.339 L182.637,715.535 "/>
<path class="Note" d="M191.617,720.984 C190.201,720.984 189.227,721.372 188.695,722.148 C188.164,722.924 187.878,723.958 187.836,725.25 L185.367,725.25 C185.461,720.968 187.534,718.828 191.586,718.828 C193.471,718.828 194.951,719.315 196.023,720.289 C197.096,721.263 197.633,722.598 197.633,724.296 C197.633,726.307 196.711,727.677 194.867,728.406 C196.055,728.822 196.911,729.398 197.438,730.132 C197.964,730.867 198.227,731.869 198.227,733.14 C198.227,735.026 197.615,736.528 196.391,737.648 C195.167,738.768 193.539,739.328 191.508,739.328 C187.435,739.328 185.247,737.192 184.945,732.921 L187.414,732.921 C187.508,734.359 187.891,735.421 188.563,736.109 C189.234,736.796 190.242,737.14 191.586,737.14 C192.878,737.14 193.885,736.791 194.609,736.093 C195.333,735.395 195.695,734.421 195.695,733.171 C195.695,730.765 194.326,729.562 191.586,729.562 L190.555,729.593 L190.242,729.593 L190.242,727.484 C192.013,727.453 193.268,727.231 194.008,726.82 C194.747,726.408 195.117,725.593 195.117,724.375 C195.117,723.333 194.805,722.507 194.18,721.898 C193.555,721.289 192.701,720.984 191.617,720.984"/>
<path class="Note" fill="#ffffff" fill-opacity="0.0" fill-rule="evenodd" d="M182.637,641.126 L201.346,641.126 L201.346,665.929 L182.637,665.929 L182.637,641.126 "/>
<path class="Note" d="M185.258,654.668 C185.258,653.012 185.398,651.548 185.68,650.278 C185.961,649.007 186.315,648.012 186.742,647.293 C187.169,646.574 187.682,645.991 188.281,645.543 C188.88,645.095 189.456,644.796 190.008,644.645 C190.56,644.494 191.143,644.418 191.758,644.418 C196.091,644.418 198.258,647.892 198.258,654.84 C198.258,658.111 197.701,660.608 196.586,662.332 C195.471,664.056 193.862,664.918 191.758,664.918 C189.633,664.918 188.018,664.046 186.914,662.301 C185.81,660.556 185.258,658.012 185.258,654.668 M195.727,654.621 C195.727,649.278 194.401,646.606 191.75,646.606 C189.099,646.606 187.773,649.304 187.773,654.699 C187.773,660.147 189.081,662.871 191.695,662.871 C193.081,662.871 194.099,662.199 194.75,660.856 C195.401,659.512 195.727,657.434 195.727,654.621"/>
<path class="Note" fill="#ffffff" fill-opacity="0.0" fill-rule="evenodd" d="M245.493,690.732 L264.202,690.732 L264.202,715.535 L245.493,715.535 L245.493,690.732 "/>
<path class="Note" d="M248.114,704.274 C248.114,702.618 248.254,701.155 248.536,699.884 C248.817,698.613 249.171,697.618 249.598,696.899 C250.025,696.181 250.538,695.597 251.137,695.149 C251.736,694.702 252.312,694.402 252.864,694.251 C253.416,694.1 253.999,694.024 254.614,694.024 C258.947,694.024 261.114,697.498 261.114,704.446 C261.114,707.717 260.556,710.215 259.442,711.939 C258.327,713.663 256.718,714.524 254.614,714.524 C252.489,714.524 250.874,713.652 249.77,711.907 C248.666,710.163 248.114,707.618 248.114,704.274 M258.583,704.228 C258.583,698.884 257.257,696.212 254.606,696.212 C251.955,696.212 250.629,698.91 250.629,704.306 C250.629,709.754 251.937,712.478 254.551,712.478 C255.937,712.478 256.955,711.806 257.606,710.462 C258.257,709.118 258.583,707.04 258.583,704.228"/>
<path class="Note" fill="#ffffff" fill-opacity="0.0" fill-rule="evenodd" d="M245.493,641.126 L264.202,641.126 L264.202,665.929 L245.493,665.929 L245.493,641.126 "/>
<path class="Note" d="M248.317,651.309 C248.442,646.715 250.624,644.418 254.864,644.418 C256.749,644.418 258.28,644.96 259.458,646.043 C260.635,647.127 261.223,648.528 261.223,650.246 C261.223,652.715 259.822,654.715 257.02,656.246 L254.223,657.746 C253.004,658.403 252.135,659.038 251.614,659.653 C251.093,660.267 250.765,660.996 250.629,661.84 L261.083,661.84 L261.083,664.278 L247.864,664.278 C247.978,662.09 248.418,660.405 249.184,659.223 C249.95,658.041 251.369,656.861 253.442,655.684 L256.004,654.231 C257.796,653.199 258.692,651.892 258.692,650.309 C258.692,649.246 258.319,648.358 257.575,647.645 C256.83,646.931 255.9,646.574 254.786,646.574 C252.296,646.574 250.958,648.153 250.77,651.309 L248.317,651.309 "/>
<path class="Note" fill="#ffffff" fill-opacity="0.0" fill-rule="evenodd" d="M308.349,690.732 L327.058,690.732 L327.058,715.535 L308.349,715.535 L308.349,690.732 "/>
<path class="Note" d="M311.173,700.915 C311.298,696.321 313.48,694.024 317.72,694.024 C319.605,694.024 321.136,694.566 322.313,695.649 C323.49,696.733 324.079,698.134 324.079,699.853 C324.079,702.321 322.678,704.321 319.876,705.853 L317.079,707.353 C315.86,708.009 314.99,708.644 314.47,709.259 C313.949,709.873 313.621,710.603 313.485,711.446 L323.938,711.446 L323.938,713.884 L310.72,713.884 C310.834,711.696 311.274,710.011 312.04,708.829 C312.806,707.647 314.225,706.467 316.298,705.29 L318.86,703.837 C320.652,702.806 321.548,701.498 321.548,699.915 C321.548,698.853 321.175,697.965 320.431,697.251 C319.686,696.538 318.756,696.181 317.642,696.181 C315.152,696.181 313.813,697.759 313.626,700.915 L311.173,700.915 "/>
<path class="Note" fill="#ffffff" fill-opacity="0.0" fill-rule="evenodd" d="M308.349,616.323 L327.058,616.323 L327.058,641.126 L308.349,641.126 L308.349,616.323 "/>
<path class="Note" d="M310.97,629.865 C310.97,628.209 311.11,626.745 311.392,625.474 C311.673,624.204 312.027,623.209 312.454,622.49 C312.881,621.771 313.394,621.188 313.993,620.74 C314.592,620.292 315.168,619.993 315.72,619.842 C316.272,619.691 316.855,619.615 317.47,619.615 C321.803,619.615 323.97,623.089 323.97,630.037 C323.97,633.308 323.412,635.805 322.298,637.529 C321.183,639.253 319.574,640.115 317.47,640.115 C315.345,640.115 313.73,639.243 312.626,637.498 C311.522,635.753 310.97,633.209 310.97,629.865 M321.438,629.818 C321.438,624.474 320.113,621.803 317.462,621.803 C314.811,621.803 313.485,624.5 313.485,629.896 C313.485,635.344 314.793,638.068 317.407,638.068 C318.793,638.068 319.811,637.396 320.462,636.053 C321.113,634.709 321.438,632.631 321.438,629.818"/>
<path class="Note" fill="#ffffff" fill-opacity="0.0" fill-rule="evenodd" d="M371.205,690.732 L389.914,690.732 L389.914,715.535 L371.205,715.535 L371.205,690.732 "/>
<path class="Note" d="M381.779,709.118 L373.404,709.118 L373.404,706.524 L382.419,694.024 L384.247,694.024 L384.247,706.915 L387.185,706.915 L387.185,709.118 L384.247,709.118 L384.247,713.884 L381.779,713.884 L381.779,709.118 M381.779,706.915 L381.779,698.228 L375.56,706.915 L381.779,706.915 "/>
<path class="Note" fill="#ffffff" fill-opacity="0.0" fill-rule="evenodd" d="M371.205,616.323 L389.914,616.323 L389.914,641.126 L371.205,641.126 L371.205,616.323 "/>
<path class="Note" d="M374.029,626.506 C374.154,621.912 376.336,619.615 380.576,619.615 C382.461,619.615 383.992,620.157 385.169,621.24 C386.346,622.323 386.935,623.724 386.935,625.443 C386.935,627.912 385.534,629.912 382.732,631.443 L379.935,632.943 C378.716,633.599 377.846,634.235 377.326,634.849 C376.805,635.464 376.477,636.193 376.341,637.037 L386.794,637.037 L386.794,639.474 L373.576,639.474 C373.69,637.287 374.13,635.602 374.896,634.42 C375.661,633.237 377.081,632.058 379.154,630.881 L381.716,629.428 C383.508,628.396 384.404,627.089 384.404,625.506 C384.404,624.443 384.031,623.555 383.286,622.842 C382.542,622.128 381.612,621.771 380.497,621.771 C378.008,621.771 376.669,623.349 376.482,626.506 L374.029,626.506 "/>
<path class="Note" fill="#ffffff" fill-opacity="0.0" fill-rule="evenodd" d="M434.061,665.929 L452.77,665.929 L452.77,690.732 L434.061,690.732 L434.061,665.929 "/>
<path class="Note" d="M442.728,674.94 L438.338,674.94 L438.338,673.174 C440.244,672.935 441.486,672.599 442.064,672.167 C442.642,671.734 443.145,670.753 443.572,669.221 L445.197,669.221 L445.197,689.081 L442.728,689.081 L442.728,674.94 "/>
<path class="Note" fill="#ffffff" fill-opacity="0.0" fill-rule="evenodd" d="M434.061,616.323 L452.77,616.323 L452.77,641.126 L434.061,641.126 L434.061,616.323 "/>
<path class="Note" d="M444.635,634.709 L436.26,634.709 L436.26,632.115 L445.275,619.615 L447.103,619.615 L447.103,632.506 L450.041,632.506 L450.041,634.709 L447.103,634.709 L447.103,639.474 L444.635,639.474 L444.635,634.709 M444.635,632.506 L444.635,623.818 L438.416,632.506 L444.635,632.506 "/>
<path class="Note" fill="#ffffff" fill-opacity="0.0" fill-rule="evenodd" d="M496.917,665.929 L515.626,665.929 L515.626,690.732 L496.917,690.732 L496.917,665.929 "/>
<path class="Note" d="M499.74,676.112 C499.865,671.518 502.048,669.221 506.287,669.221 C508.173,669.221 509.704,669.763 510.881,670.846 C512.058,671.93 512.647,673.331 512.647,675.049 C512.647,677.518 511.246,679.518 508.444,681.049 L505.647,682.549 C504.428,683.206 503.558,683.841 503.037,684.456 C502.517,685.07 502.188,685.799 502.053,686.643 L512.506,686.643 L512.506,689.081 L499.287,689.081 C499.402,686.893 499.842,685.208 500.608,684.026 C501.373,682.844 502.793,681.664 504.865,680.487 L507.428,679.034 C509.22,678.003 510.115,676.695 510.115,675.112 C510.115,674.049 509.743,673.161 508.998,672.448 C508.254,671.734 507.324,671.378 506.209,671.378 C503.72,671.378 502.381,672.956 502.194,676.112 L499.74,676.112 "/>
<path class="Note" fill="#ffffff" fill-opacity="0.0" fill-rule="evenodd" d="M496.917,591.52 L515.626,591.52 L515.626,616.323 L496.917,616.323 L496.917,591.52 "/>
<path class="Note" d="M499.537,605.062 C499.537,603.406 499.678,601.942 499.959,600.671 C500.24,599.4 500.595,598.406 501.022,597.687 C501.449,596.968 501.962,596.385 502.561,595.937 C503.16,595.489 503.735,595.189 504.287,595.038 C504.839,594.887 505.423,594.812 506.037,594.812 C510.371,594.812 512.537,598.286 512.537,605.234 C512.537,608.505 511.98,611.002 510.865,612.726 C509.751,614.45 508.142,615.312 506.037,615.312 C503.912,615.312 502.298,614.439 501.194,612.695 C500.089,610.95 499.537,608.406 499.537,605.062 M510.006,605.015 C510.006,599.671 508.681,596.999 506.03,596.999 C503.379,596.999 502.053,599.697 502.053,605.093 C502.053,610.541 503.36,613.265 505.975,613.265 C507.36,613.265 508.379,612.593 509.03,611.249 C509.681,609.906 510.006,607.828 510.006,605.015"/>
<path class="Note" fill="#ffffff" fill-opacity="0.0" fill-rule="evenodd" d="M559.773,665.929 L578.481,665.929 L578.481,690.732 L559.773,690.732 L559.773,665.929 "/>
<path class="Note" d="M570.346,684.315 L561.971,684.315 L561.971,681.721 L570.987,669.221 L572.815,669.221 L572.815,682.112 L575.753,682.112 L575.753,684.315 L572.815,684.315 L572.815,689.081 L570.346,689.081 L570.346,684.315 M570.346,682.112 L570.346,673.424 L564.128,682.112 L570.346,682.112 "/>
<path class="Note" fill="#ffffff" fill-opacity="0.0" fill-rule="evenodd" d="M559.773,591.52 L578.481,591.52 L578.481,616.323 L559.773,616.323 L559.773,591.52 "/>
<path class="Note" d="M562.596,601.703 C562.721,597.109 564.904,594.812 569.143,594.812 C571.029,594.812 572.56,595.354 573.737,596.437 C574.914,597.52 575.503,598.921 575.503,600.64 C575.503,603.109 574.102,605.109 571.3,606.64 L568.503,608.14 C567.284,608.796 566.414,609.432 565.893,610.046 C565.372,610.661 565.044,611.39 564.909,612.234 L575.362,612.234 L575.362,614.671 L562.143,614.671 C562.258,612.484 562.698,610.799 563.464,609.617 C564.229,608.434 565.648,607.255 567.721,606.078 L570.284,604.624 C572.076,603.593 572.971,602.286 572.971,600.703 C572.971,599.64 572.599,598.752 571.854,598.038 C571.109,597.325 570.18,596.968 569.065,596.968 C566.576,596.968 565.237,598.546 565.05,601.703 L562.596,601.703 "/>
<path class="Note" fill="#ffffff" fill-opacity="0.0" fill-rule="evenodd" d="M119.782,488.764 L138.49,488.764 L138.49,513.567 L119.782,513.567 L119.782,488.764 "/>
<path class="Note" d="M130.355,507.15 L121.98,507.15 L121.98,504.556 L130.996,492.056 L132.824,492.056 L132.824,504.947 L135.761,504.947 L135.761,507.15 L132.824,507.15 L132.824,511.915 L130.355,511.915 L130.355,507.15 M130.355,504.947 L130.355,496.259 L124.136,504.947 L130.355,504.947 "/>
<path class="Note" fill="#ffffff" fill-opacity="0.0" fill-rule="evenodd" d="M182.637,488.764 L201.346,488.764 L201.346,513.567 L182.637,513.567 L182.637,488.764 "/>
<path class="Note" d="M197.383,492.056 L197.383,494.493 L189.117,494.493 L188.336,500.04 C189.44,499.238 190.664,498.837 192.008,498.837 C193.914,498.837 195.458,499.449 196.641,500.673 C197.823,501.897 198.414,503.488 198.414,505.447 C198.414,507.54 197.781,509.249 196.516,510.572 C195.25,511.895 193.617,512.556 191.617,512.556 C190.846,512.556 190.141,512.473 189.5,512.306 C188.859,512.139 188.328,511.939 187.906,511.704 C187.484,511.47 187.102,511.163 186.758,510.783 C186.414,510.402 186.154,510.066 185.977,509.775 C185.8,509.483 185.63,509.118 185.469,508.681 C185.307,508.243 185.208,507.941 185.172,507.775 C185.135,507.608 185.091,507.363 185.039,507.04 L187.492,507.04 C188.076,509.259 189.43,510.368 191.555,510.368 C192.898,510.368 193.958,509.96 194.734,509.142 C195.51,508.324 195.898,507.207 195.898,505.79 C195.898,504.311 195.505,503.147 194.719,502.298 C193.932,501.449 192.878,501.025 191.555,501.025 C190.794,501.025 190.143,501.16 189.602,501.431 C189.06,501.702 188.497,502.181 187.914,502.868 L185.648,502.868 L187.133,492.056 L197.383,492.056 "/>
<path class="Note" fill="#ffffff" fill-opacity="0.0" fill-rule="evenodd" d="M245.493,463.961 L264.202,463.961 L264.202,488.764 L245.493,488.764 L245.493,463.961 "/>
<path class="Note" d="M248.114,477.503 C248.114,475.847 248.254,474.383 248.536,473.112 C248.817,471.841 249.171,470.847 249.598,470.128 C250.025,469.409 250.538,468.826 251.137,468.378 C251.736,467.93 252.312,467.63 252.864,467.479 C253.416,467.328 253.999,467.253 254.614,467.253 C258.947,467.253 261.114,470.727 261.114,477.675 C261.114,480.946 260.556,483.443 259.442,485.167 C258.327,486.891 256.718,487.753 254.614,487.753 C252.489,487.753 250.874,486.88 249.77,485.136 C248.666,483.391 248.114,480.847 248.114,477.503 M258.583,477.456 C258.583,472.112 257.257,469.44 254.606,469.44 C251.955,469.44 250.629,472.138 250.629,477.534 C250.629,482.982 251.937,485.706 254.551,485.706 C255.937,485.706 256.955,485.034 257.606,483.69 C258.257,482.347 258.583,480.268 258.583,477.456"/>
<path class="Note" fill="#ffffff" fill-opacity="0.0" fill-rule="evenodd" d="M308.349,463.961 L327.058,463.961 L327.058,488.764 L308.349,488.764 L308.349,463.961 "/>
<path class="Note" d="M311.173,474.143 C311.298,469.55 313.48,467.253 317.72,467.253 C319.605,467.253 321.136,467.795 322.313,468.878 C323.49,469.961 324.079,471.362 324.079,473.081 C324.079,475.55 322.678,477.55 319.876,479.081 L317.079,480.581 C315.86,481.237 314.99,481.873 314.47,482.487 C313.949,483.102 313.621,483.831 313.485,484.675 L323.938,484.675 L323.938,487.112 L310.72,487.112 C310.834,484.925 311.274,483.24 312.04,482.058 C312.806,480.875 314.225,479.696 316.298,478.518 L318.86,477.065 C320.652,476.034 321.548,474.727 321.548,473.143 C321.548,472.081 321.175,471.193 320.431,470.479 C319.686,469.766 318.756,469.409 317.642,469.409 C315.152,469.409 313.813,470.987 313.626,474.143 L311.173,474.143 "/>
<path class="Note" fill="#ffffff" fill-opacity="0.0" fill-rule="evenodd" d="M371.205,463.961 L389.914,463.961 L389.914,488.764 L371.205,488.764 L371.205,463.961 "/>
<path class="Note" d="M381.779,482.347 L373.404,482.347 L373.404,479.753 L382.419,467.253 L384.247,467.253 L384.247,480.143 L387.185,480.143 L387.185,482.347 L384.247,482.347 L384.247,487.112 L381.779,487.112 L381.779,482.347 M381.779,480.143 L381.779,471.456 L375.56,480.143 L381.779,480.143 "/>
<path class="Note" fill="#ffffff" fill-opacity="0.0" fill-rule="evenodd" d="M434.061,463.961 L452.77,463.961 L452.77,488.764 L434.061,488.764 L434.061,463.961 "/>
<path class="Note" d="M436.681,478.065 C436.681,476.315 436.84,474.771 437.158,473.433 C437.476,472.094 437.872,471.045 438.346,470.284 C438.819,469.524 439.39,468.904 440.056,468.425 C440.723,467.946 441.351,467.63 441.939,467.479 C442.528,467.328 443.145,467.253 443.791,467.253 C445.301,467.253 446.556,467.711 447.556,468.628 C448.556,469.545 449.176,470.815 449.416,472.44 L446.963,472.44 C446.754,471.492 446.361,470.755 445.783,470.229 C445.205,469.703 444.484,469.44 443.619,469.44 C442.202,469.44 441.116,470.089 440.361,471.386 C439.606,472.683 439.218,474.545 439.197,476.972 C440.28,475.503 441.801,474.768 443.76,474.768 C445.541,474.768 446.999,475.357 448.135,476.534 C449.27,477.711 449.838,479.222 449.838,481.065 C449.838,483.003 449.228,484.602 448.01,485.862 C446.791,487.123 445.239,487.753 443.353,487.753 C438.905,487.753 436.681,484.524 436.681,478.065 M443.463,476.956 C442.244,476.956 441.252,477.341 440.486,478.112 C439.721,478.883 439.338,479.888 439.338,481.128 C439.338,482.388 439.721,483.443 440.486,484.292 C441.252,485.141 442.213,485.565 443.369,485.565 C444.515,485.565 445.46,485.162 446.205,484.354 C446.95,483.547 447.322,482.513 447.322,481.253 C447.322,479.93 446.976,478.883 446.283,478.112 C445.59,477.341 444.65,476.956 443.463,476.956"/>
<path class="Note" fill="#ffffff" fill-opacity="0.0" fill-rule="evenodd" d="M496.917,439.157 L515.626,439.157 L515.626,463.961 L496.917,463.961 L496.917,439.157 "/>
<path class="Note" d="M499.537,452.7 C499.537,451.043 499.678,449.58 499.959,448.309 C500.24,447.038 500.595,446.043 501.022,445.325 C501.449,444.606 501.962,444.023 502.561,443.575 C503.16,443.127 503.735,442.827 504.287,442.676 C504.839,442.525 505.423,442.45 506.037,442.45 C510.371,442.45 512.537,445.924 512.537,452.872 C512.537,456.142 511.98,458.64 510.865,460.364 C509.751,462.088 508.142,462.95 506.037,462.95 C503.912,462.95 502.298,462.077 501.194,460.333 C500.089,458.588 499.537,456.043 499.537,452.7 M510.006,452.653 C510.006,447.309 508.681,444.637 506.03,444.637 C503.379,444.637 502.053,447.335 502.053,452.731 C502.053,458.179 503.36,460.903 505.975,460.903 C507.36,460.903 508.379,460.231 509.03,458.887 C509.681,457.543 510.006,455.465 510.006,452.653"/>
<path class="Note" fill="#ffffff" fill-opacity="0.0" fill-rule="evenodd" d="M559.773,439.157 L578.481,439.157 L578.481,463.961 L559.773,463.961 L559.773,439.157 "/>
<path class="Note" d="M562.596,449.34 C562.721,444.747 564.904,442.45 569.143,442.45 C571.029,442.45 572.56,442.991 573.737,444.075 C574.914,445.158 575.503,446.559 575.503,448.278 C575.503,450.747 574.102,452.747 571.3,454.278 L568.503,455.778 C567.284,456.434 566.414,457.069 565.893,457.684 C565.372,458.299 565.044,459.028 564.909,459.872 L575.362,459.872 L575.362,462.309 L562.143,462.309 C562.258,460.122 562.698,458.437 563.464,457.254 C564.229,456.072 565.648,454.892 567.721,453.715 L570.284,452.262 C572.076,451.231 572.971,449.924 572.971,448.34 C572.971,447.278 572.599,446.39 571.854,445.676 C571.109,444.963 570.18,444.606 569.065,444.606 C566.576,444.606 565.237,446.184 565.05,449.34 L562.596,449.34 "/>
<path class="Note" transform="matrix(0.566929,0,0,0.566929,118.506,373.606)" d="M21.9688,-13.7656 C25.0938,-13.7656 27.7344,-12.9531 29.8906,-11.3281 C31.901,-9.56771 32.9063,-7.35417 32.9063,-4.6875 C32.9063,-0.197917 30.599,4 25.9844,7.90625 C21.2969,11.8125 16.2813,13.7656 10.9375,13.7656 C7.8125,13.7656 5.17708,12.9531 3.03125,11.3281 C1.01042,9.56771 0,7.35417 0,4.6875 C0,0.197917 2.34375,-4 7.03125,-7.90625 C11.5938,-11.8125 16.5729,-13.7656 21.9688,-13.7656"/>
<path class="Note" transform="matrix(0.566929,0,0,0.566929,181.362,366.52)" d="M21.9688,-13.7656 C25.0938,-13.7656 27.7344,-12.9531 29.8906,-11.3281 C31.901,-9.56771 32.9063,-7.35417 32.9063,-4.6875 C32.9063,-0.197917 30.599,4 25.9844,7.90625 C21.2969,11.8125 16.2813,13.7656 10.9375,13.7656 C7.8125,13.7656 5.17708,12.9531 3.03125,11.3281 C1.01042,9.56771 0,7.35417 0,4.6875 C0,0.197917 2.34375,-4 7.03125,-7.90625 C11.5938,-11.8125 16.5729,-13.7656 21.9688,-13.7656"/>
<path class="Note" transform="matrix(0.566929,0,0,0.566929,244.218,359.433)" d="M21.9688,-13.7656 C25.0938,-13.7656 27.7344,-12.9531 29.8906,-11.3281 C31.901,-9.56771 32.9063,-7.35417 32.9063,-4.6875 C32.9063,-0.197917 30.599,4 25.9844,7.90625 C21.2969,11.8125 16.2813,13.7656 10.9375,13.7656 C7.8125,13.7656 5.17708,12.9531 3.03125,11.3281 C1.01042,9.56771 0,7.35417 0,4.6875 C0,0.197917 2.34375,-4 7.03125,-7.90625 C11.5938,-11.8125 16.5729,-13.7656 21.9688,-13.7656"/>
<path class="Note" transform="matrix(0.566929,0,0,0.566929,307.074,352.346)" d="M21.9688,-13.7656 C25.0938,-13.7656 27.7344,-12.9531 29.8906,-11.3281 C31.901,-9.56771 32.9063,-7.35417 32.9063,-4.6875 C32.9063,-0.197917 30.599,4 25.9844,7.90625 C21.2969,11.8125 16.2813,13.7656 10.9375,13.7656 C7.8125,13.7656 5.17708,12.9531 3.03125,11.3281 C1.01042,9.56771 0,7.35417 0,4.6875 C0,0.197917 2.34375,-4 7.03125,-7.90625 C11.5938,-11.8125 16.5729,-13.7656 21.9688,-13.7656"/>
<path class="Note" transform="matrix(0.566929,0,0,0.566929,369.93,345.26)" d="M21.9688,-13.7656 C25.0938,-13.7656 27.7344,-12.9531 29.8906,-11.3281 C31.901,-9.56771 32.9063,-7.35417 32.9063,-4.6875 C32.9063,-0.197917 30.599,4 25.9844,7.90625 C21.2969,11.8125 16.2813,13.7656 10.9375,13.7656 C7.8125,13.7656 5.17708,12.9531 3.03125,11.3281 C1.01042,9.56771 0,7.35417 0,4.6875 C0,0.197917 2.34375,-4 7.03125,-7.90625 C11.5938,-11.8125 16.5729,-13.7656 21.9688,-13.7656"/>
<path class="Note" transform="matrix(0.566929,0,0,0.566929,432.785,338.173)" d="M21.9688,-13.7656 C25.0938,-13.7656 27.7344,-12.9531 29.8906,-11.3281 C31.901,-9.56771 32.9063,-7.35417 32.9063,-4.6875 C32.9063,-0.197917 30.599,4 25.9844,7.90625 C21.2969,11.8125 16.2813,13.7656 10.9375,13.7656 C7.8125,13.7656 5.17708,12.9531 3.03125,11.3281 C1.01042,9.56771 0,7.35417 0,4.6875 C0,0.197917 2.34375,-4 7.03125,-7.90625 C11.5938,-11.8125 16.5729,-13.7656 21.9688,-13.7656"/>
<path class="Note" transform="matrix(0.566929,0,0,0.566929,495.641,331.087)" d="M21.9688,-13.7656 C25.0938,-13.7656 27.7344,-12.9531 29.8906,-11.3281 C31.901,-9.56771 32.9063,-7.35417 32.9063,-4.6875 C32.9063,-0.197917 30.599,4 25.9844,7.90625 C21.2969,11.8125 16.2813,13.7656 10.9375,13.7656 C7.8125,13.7656 5.17708,12.9531 3.03125,11.3281 C1.01042,9.56771 0,7.35417 0,4.6875 C0,0.197917 2.34375,-4 7.03125,-7.90625 C11.5938,-11.8125 16.5729,-13.7656 21.9688,-13.7656"/>
<path class="Note" transform="matrix(0.566929,0,0,0.566929,558.497,324)" d="M21.9688,-13.7656 C25.0938,-13.7656 27.7344,-12.9531 29.8906,-11.3281 C31.901,-9.56771 32.9063,-7.35417 32.9063,-4.6875 C32.9063,-0.197917 30.599,4 25.9844,7.90625 C21.2969,11.8125 16.2813,13.7656 10.9375,13.7656 C7.8125,13.7656 5.17708,12.9531 3.03125,11.3281 C1.01042,9.56771 0,7.35417 0,4.6875 C0,0.197917 2.34375,-4 7.03125,-7.90625 C11.5938,-11.8125 16.5729,-13.7656 21.9688,-13.7656"/>
<path class="Note" transform="matrix(0.566929,0,0,0.566929,118.506,231.874)" d="M21.9688,-13.7656 C25.0938,-13.7656 27.7344,-12.9531 29.8906,-11.3281 C31.901,-9.56771 32.9063,-7.35417 32.9063,-4.6875 C32.9063,-0.197917 30.599,4 25.9844,7.90625 C21.2969,11.8125 16.2813,13.7656 10.9375,13.7656 C7.8125,13.7656 5.17708,12.9531 3.03125,11.3281 C1.01042,9.56771 0,7.35417 0,4.6875 C0,0.197917 2.34375,-4 7.03125,-7.90625 C11.5938,-11.8125 16.5729,-13.7656 21.9688,-13.7656"/>
<path class="Note" transform="matrix(0.566929,0,0,0.566929,181.362,224.787)" d="M21.9688,-13.7656 C25.0938,-13.7656 27.7344,-12.9531 29.8906,-11.3281 C31.901,-9.56771 32.9063,-7.35417 32.9063,-4.6875 C32.9063,-0.197917 30.599,4 25.9844,7.90625 C21.2969,11.8125 16.2813,13.7656 10.9375,13.7656 C7.8125,13.7656 5.17708,12.9531 3.03125,11.3281 C1.01042,9.56771 0,7.35417 0,4.6875 C0,0.197917 2.34375,-4 7.03125,-7.90625 C11.5938,-11.8125 16.5729,-13.7656 21.9688,-13.7656"/>
<path class="Note" transform="matrix(0.566929,0,0,0.566929,244.218,217.701)" d="M21.9688,-13.7656 C25.0938,-13.7656 27.7344,-12.9531 29.8906,-11.3281 C31.901,-9.56771 32.9063,-7.35417 32.9063,-4.6875 C32.9063,-0.197917 30.599,4 25.9844,7.90625 C21.2969,11.8125 16.2813,13.7656 10.9375,13.7656 C7.8125,13.7656 5.17708,12.9531 3.03125,11.3281 C1.01042,9.56771 0,7.35417 0,4.6875 C0,0.197917 2.34375,-4 7.03125,-7.90625 C11.5938,-11.8125 16.5729,-13.7656 21.9688,-13.7656"/>
<path class="Note" transform="matrix(0.566929,0,0,0.566929,307.074,210.614)" d="M21.9688,-13.7656 C25.0938,-13.7656 27.7344,-12.9531 29.8906,-11.3281 C31.901,-9.56771 32.9063,-7.35417 32.9063,-4.6875 C32.9063,-0.197917 30.599,4 25.9844,7.90625 C21.2969,11.8125 16.2813,13.7656 10.9375,13.7656 C7.8125,13.7656 5.17708,12.9531 3.03125,11.3281 C1.01042,9.56771 0,7.35417 0,4.6875 C0,0.197917 2.34375,-4 7.03125,-7.90625 C11.5938,-11.8125 16.5729,-13.7656 21.9688,-13.7656"/>
<path class="Note" transform="matrix(0.566929,0,0,0.566929,369.93,203.528)" d="M21.9688,-13.7656 C25.0938,-13.7656 27.7344,-12.9531 29.8906,-11.3281 C31.901,-9.56771 32.9063,-7.35417 32.9063,-4.6875 C32.9063,-0.197917 30.599,4 25.9844,7.90625 C21.2969,11.8125 16.2813,13.7656 10.9375,13.7656 C7.8125,13.7656 5.17708,12.9531 3.03125,11.3281 C1.01042,9.56771 0,7.35417 0,4.6875 C0,0.197917 2.34375,-4 7.03125,-7.90625 C11.5938,-11.8125 16.5729,-13.7656 21.9688,-13.7656"/>
<path class="Note" transform="matrix(0.566929,0,0,0.566929,432.785,196.441)" d="M21.9688,-13.7656 C25.0938,-13.7656 27.7344,-12.9531 29.8906,-11.3281 C31.901,-9.56771 32.9063,-7.35417 32.9063,-4.6875 C32.9063,-0.197917 30.599,4 25.9844,7.90625 C21.2969,11.8125 16.2813,13.7656 10.9375,13.7656 C7.8125,13.7656 5.17708,12.9531 3.03125,11.3281 C1.01042,9.56771 0,7.35417 0,4.6875 C0,0.197917 2.34375,-4 7.03125,-7.90625 C11.5938,-11.8125 16.5729,-13.7656 21.9688,-13.7656"/>
<path class="Note" transform="matrix(0.566929,0,0,0.566929,495.641,189.354)" d="M21.9688,-13.7656 C25.0938,-13.7656 27.7344,-12.9531 29.8906,-11.3281 C31.901,-9.56771 32.9063,-7.35417 32.9063,-4.6875 C32.9063,-0.197917 30.599,4 25.9844,7.90625 C21.2969,11.8125 16.2813,13.7656 10.9375,13.7656 C7.8125,13.7656 5.17708,12.9531 3.03125,11.3281 C1.01042,9.56771 0,7.35417 0,4.6875 C0,0.197917 2.34375,-4 7.03125,-7.90625 C11.5938,-11.8125 16.5729,-13.7656 21.9688,-13.7656"/>
<path class="Note" transform="matrix(0.566929,0,0,0.566929,558.497,182.268)" d="M21.9688,-13.7656 C25.0938,-13.7656 27.7344,-12.9531 29.8906,-11.3281 C31.901,-9.56771 32.9063,-7.35417 32.9063,-4.6875 C32.9063,-0.197917 30.599,4 25.9844,7.90625 C21.2969,11.8125 16.2813,13.7656 10.9375,13.7656 C7.8125,13.7656 5.17708,12.9531 3.03125,11.3281 C1.01042,9.56771 0,7.35417 0,4.6875 C0,0.197917 2.34375,-4 7.03125,-7.90625 C11.5938,-11.8125 16.5729,-13.7656 21.9688,-13.7656"/>
<path class="Note" transform="matrix(0.566929,0,0,0.566929,118.506,90.1417)" d="M21.9688,-13.7656 C25.0938,-13.7656 27.7344,-12.9531 29.8906,-11.3281 C31.901,-9.56771 32.9063,-7.35417 32.9063,-4.6875 C32.9063,-0.197917 30.599,4 25.9844,7.90625 C21.2969,11.8125 16.2813,13.7656 10.9375,13.7656 C7.8125,13.7656 5.17708,12.9531 3.03125,11.3281 C1.01042,9.56771 0,7.35417 0,4.6875 C0,0.197917 2.34375,-4 7.03125,-7.90625 C11.5938,-11.8125 16.5729,-13.7656 21.9688,-13.7656"/>
<path class="Note" transform="matrix(0.566929,0,0,0.566929,181.362,83.0551)" d="M21.9688,-13.7656 C25.0938,-13.7656 27.7344,-12.9531 29.8906,-11.3281 C31.901,-9.56771 32.9063,-7.35417 32.9063,-4.6875 C32.9063,-0.197917 30.599,4 25.9844,7.90625 C21.2969,11.8125 16.2813,13.7656 10.9375,13.7656 C7.8125,13.7656 5.17708,12.9531 3.03125,11.3281 C1.01042,9.56771 0,7.35417 0,4.6875 C0,0.197917 2.34375,-4 7.03125,-7.90625 C11.5938,-11.8125 16.5729,-13.7656 21.9688,-13.7656"/>
<path class="Note" transform="matrix(0.566929,0,0,0.566929,244.218,75.9685)" d="M21.9688,-13.7656 C25.0938,-13.7656 27.7344,-12.9531 29.8906,-11.3281 C31.901,-9.56771 32.9063,-7.35417 32.9063,-4.6875 C32.9063,-0.197917 30.599,4 25.9844,7.90625 C21.2969,11.8125 16.2813,13.7656 10.9375,13.7656 C7.8125,13.7656 5.17708,12.9531 3.03125,11.3281 C1.01042,9.56771 0,7.35417 0,4.6875 C0,0.197917 2.34375,-4 7.03125,-7.90625 C11.5938,-11.8125 16.5729,-13.7656 21.9688,-13.7656"/>
<path class="Note" transform="matrix(0.566929,0,0,0.566929,307.074,68.8819)" d="M21.9688,-13.7656 C25.0938,-13.7656 27.7344,-12.9531 29.8906,-11.3281 C31.901,-9.56771 32.9063,-7.35417 32.9063,-4.6875 C32.9063,-0.197917 30.599,4 25.9844,7.90625 C21.2969,11.8125 16.2813,13.7656 10.9375,13.7656 C7.8125,13.7656 5.17708,12.9531 3.03125,11.3281 C1.01042,9.56771 0,7.35417 0,4.6875 C0,0.197917 2.34375,-4 7.03125,-7.90625 C11.5938,-11.8125 16.5729,-13.7656 21.9688,-13.7656"/>
<path class="Note" transform="matrix(0.566929,0,0,0.566929,369.93,61.7953)" d="M21.9688,-13.7656 C25.0938,-13.7656 27.7344,-12.9531 29.8906,-11.3281 C31.901,-9.56771 32.9063,-7.35417 32.9063,-4.6875 C32.9063,-0.197917 30.599,4 25.9844,7.90625 C21.2969,11.8125 16.2813,13.7656 10.9375,13.7656 C7.8125,13.7656 5.17708,12.9531 3.03125,11.3281 C1.01042,9.56771 0,7.35417 0,4.6875 C0,0.197917 2.34375,-4 7.03125,-7.90625 C11.5938,-11.8125 16.5729,-13.7656 21.9688,-13.7656"/>
<path class="Note" transform="matrix(0.566929,0,0,0.566929,432.785,54.7087)" d="M21.9688,-13.7656 C25.0938,-13.7656 27.7344,-12.9531 29.8906,-11.3281 C31.901,-9.56771 32.9063,-7.35417 32.9063,-4.6875 C32.9063,-0.197917 30.599,4 25.9844,7.90625 C21.2969,11.8125 16.2813,13.7656 10.9375,13.7656 C7.8125,13.7656 5.17708,12.9531 3.03125,11.3281 C1.01042,9.56771 0,7.35417 0,4.6875 C0,0.197917 2.34375,-4 7.03125,-7.90625 C11.5938,-11.8125 16.5729,-13.7656 21.9688,-13.7656"/>
<path class="Note" transform="matrix(0.566929,0,0,0.566929,495.641,47.6221)" d="M21.9688,-13.7656 C25.0938,-13.7656 27.7344,-12.9531 29.8906,-11.3281 C31.901,-9.56771 32.9063,-7.35417 32.9063,-4.6875 C32.9063,-0.197917 30.599,4 25.9844,7.90625 C21.2969,11.8125 16.2813,13.7656 10.9375,13.7656 C7.8125,13.7656 5.17708,12.9531 3.03125,11.3281 C1.01042,9.56771 0,7.35417 0,4.6875 C0,0.197917 2.34375,-4 7.03125,-7.90625 C11.5938,-11.8125 16.5729,-13.7656 21.9688,-13.7656"/>
<path class="Note" transform="matrix(0.566929,0,0,0.566929,558.497,40.5354)" d="M21.9688,-13.7656 C25.0938,-13.7656 27.7344,-12.9531 29.8906,-11.3281 C31.901,-9.56771 32.9063,-7.35417 32.9063,-4.6875 C32.9063,-0.197917 30.599,4 25.9844,7.90625 C21.2969,11.8125 16.2813,13.7656 10.9375,13.7656 C7.8125,13.7656 5.17708,12.9531 3.03125,11.3281 C1.01042,9.56771 0,7.35417 0,4.6875 C0,0.197917 2.34375,-4 7.03125,-7.90625 C11.5938,-11.8125 16.5729,-13.7656 21.9688,-13.7656"/>
<path class="Clef" transform="matrix(0.566929,0,0,0.566929,28.5015,665.929)" d="M26.6563,42.4844 C26.6563,44.3073 25.224,45.2188 22.3594,45.2188 C20.0885,45.2188 18.1042,44.5365 16.4063,43.1719 C14.7813,41.7344 13.9688,39.9115 13.9688,37.7031 C13.9688,33.7969 16.3438,30.6719 21.0938,28.3281 C25.7188,25.9115 31.1563,24.7031 37.4063,24.7031 C39.8125,24.7031 42.3854,24.8698 45.125,25.2031 C47.1354,25.4635 49.3802,25.9844 51.8594,26.7656 C54.0677,27.474 55.7917,28.5443 57.0313,29.9766 C58.2708,31.4089 58.8906,33.0729 58.8906,34.9688 C58.8906,39.4583 56.5781,43.1354 51.9531,46 C58.724,47.2396 62.1406,50.2656 62.2031,55.0781 C62.2031,59.1198 60.3802,62.7682 56.7344,66.0234 C53.0885,69.2786 48.9583,70.9063 44.3438,70.9063 C42.3854,70.9063 40.3958,70.4479 38.375,69.5313 C36.4896,68.625 35.1563,67.7813 34.375,67 C33.5938,66.0833 33.2031,65.3958 33.2031,64.9375 C33.2031,64.2917 33.5313,63.7396 34.1875,63.2813 C34.7708,62.6979 35.3854,62.4063 36.0313,62.4063 C36.2917,62.4063 36.8464,62.8281 37.6953,63.6719 C38.5443,64.5156 39.7813,64.9375 41.4063,64.9375 C43.625,64.9375 45.776,63.9948 47.8594,62.1094 C49.8698,60.2865 50.875,58.1042 50.875,55.5625 C50.875,53.3542 49.9323,51.7604 48.0469,50.7813 C46.1615,49.8021 43.7552,49.3125 40.8281,49.3125 C40.3073,49.3125 40.0469,48.7604 40.0469,47.6563 C40.0469,46.0938 40.6302,45.3125 41.7969,45.3125 C43.6198,45.3125 45.25,44.5313 46.6875,42.9688 C48.0521,41.2813 48.7344,39.4896 48.7344,37.5938 C48.7344,37.0104 48.5729,36.1354 48.25,34.9688 C47.9896,34.1875 47.2083,33.2396 45.9063,32.125 C44.6667,31.0833 42.9375,30.3698 40.7188,29.9844 C40.1354,33.1719 39.4036,37.2396 38.5234,42.1875 C37.6432,47.1354 37.0417,50.3906 36.7188,51.9531 C35.6146,57.5573 33.599,62.276 30.6719,66.1094 C27.6094,70.151 24.3177,72.1719 20.7969,72.1719 C19.6927,72.1719 18.5573,71.9115 17.3906,71.3906 C16.474,70.9948 15.3021,70.1823 13.875,68.9531 C12.5729,67.9115 11.6927,67.224 11.2344,66.8906 C10.974,66.7031 10.8438,66.4115 10.8438,66.0156 C10.8438,65.3698 11.0729,64.7865 11.5313,64.2656 C12.0521,63.6719 12.6042,63.375 13.1875,63.375 C13.5729,63.375 14.4818,63.9948 15.9141,65.2344 C17.3464,66.474 18.8438,67.0938 20.4063,67.0938 C23.4063,67.0938 25.6563,65.1719 27.1563,61.3281 C28.5833,57.6198 29.2969,53.0313 29.2969,47.5625 L29.2969,46.7813 C29.2969,43.1354 29.8854,37.6979 31.0625,30.4688 C28.9792,31.125 27.3177,32.1042 26.0781,33.4063 C24.776,34.7083 24.125,36.0729 24.125,37.5 C24.125,38.6042 24.5469,39.5469 25.3906,40.3281 C26.2344,41.1094 26.6563,41.8281 26.6563,42.4844 M7.03125,11.9219 C7.35417,11.9219 8.13542,12.2448 9.375,12.8906 C10.6771,13.5469 11.7865,13.875 12.7031,13.875 C15.1719,13.875 18.1979,12.0833 21.7813,8.5 C32.1354,-2.05208 39.2656,-13.25 43.1719,-25.0938 C43.9531,-27.5729 45.8698,-28.8125 48.9219,-28.8125 C50.4844,-28.8125 51.8229,-28.4844 52.9375,-27.8281 C54.0417,-27.1198 54.5938,-26.4063 54.5938,-25.6875 L52.8281,10.8438 C52.8281,12.7917 53.5156,13.7656 54.8906,13.7656 C55.599,13.7656 56.6406,13.4427 58.0156,12.7969 C59.3177,12.1406 60.099,11.8125 60.3594,11.8125 C60.8802,11.8125 61.2031,12.3698 61.3281,13.4844 C61.3281,14.526 60.9063,15.1771 60.0625,15.4375 C59.4063,15.625 58.1042,16.2396 56.1563,17.2813 C54.1354,18.3229 52.5417,18.8438 51.375,18.8438 C48.8958,18.8438 47.1354,16.8906 46.0938,12.9844 C44.4688,6.86979 43.4271,0.520833 42.9688,-6.0625 C40.3646,-2.73958 37.4688,0.614583 34.2813,4 C35.4479,6.21875 37.5938,7.32813 40.7188,7.32813 C41.1771,7.32813 41.5365,7.29688 41.7969,7.23438 L41.8906,7.23438 C42.4115,7.23438 42.6719,7.71875 42.6719,8.6875 C42.6719,9.92708 42.25,10.6771 41.4063,10.9375 C40.0417,11.3958 38.6094,11.625 37.1094,11.625 C33.8594,11.625 31.5156,10.5156 30.0781,8.29688 L26.1719,11.8125 C20.7031,16.5 16.2448,18.8438 12.7969,18.8438 C11.8802,18.8438 10.9375,18.6823 9.96875,18.3594 C9.1875,18.0365 8.27604,17.5469 7.23438,16.8906 C6.83854,16.7031 6.39583,16.4609 5.90625,16.1641 C5.41667,15.8672 5.10938,15.6875 4.98438,15.625 C4.66146,15.5 4.5,15.2083 4.5,14.75 C4.5,14.2292 4.76042,13.6094 5.28125,12.8906 C5.72917,12.2448 6.3125,11.9219 7.03125,11.9219 M28.8125,-54 C28.8125,-52.375 27.4115,-51.5625 24.6094,-51.5625 C22.1406,-51.5625 19.9948,-52.375 18.1719,-54 C16.4115,-55.6354 15.5313,-57.625 15.5313,-59.9688 C15.5313,-62.2396 16.2448,-64.1927 17.6719,-65.8281 C19.1719,-67.5156 21.0938,-68.7813 23.4375,-69.625 C25.5833,-70.4063 27.9948,-71.026 30.6719,-71.4844 C33.4635,-71.8073 36.1302,-71.9688 38.6719,-71.9688 C40.1719,-71.9688 42.974,-71.2865 47.0781,-69.9219 C51.2448,-68.5573 54.1406,-67.875 55.7656,-67.875 C57.7865,-67.875 59.7083,-68.2344 61.5313,-68.9531 C63.0208,-69.599 64.4531,-70.3438 65.8281,-71.1875 C66.9323,-71.9063 67.5469,-72.2656 67.6719,-72.2656 C68.2656,-72.2656 68.7865,-72.0729 69.2344,-71.6875 C69.7552,-71.1667 70.0156,-70.7396 70.0156,-70.4063 C70.0156,-69.9583 69.401,-69.2135 68.1719,-68.1719 C66.8698,-66.9948 65.013,-65.8203 62.6016,-64.6484 C60.1901,-63.4766 57.651,-62.8906 54.9844,-62.8906 C53.8073,-62.8906 52.3438,-63.0885 50.5938,-63.4844 C49.4792,-56.2552 48.3073,-49.8385 47.0781,-44.2344 C46.0365,-39.2865 43.9531,-34.9583 40.8281,-31.25 C37.8281,-27.5417 34.474,-25.6875 30.7656,-25.6875 C29.2656,-25.6875 27.9323,-25.9792 26.7656,-26.5625 C25.4635,-27.2188 24.0938,-28.1979 22.6563,-29.5 C21.4896,-30.4688 20.3854,-31.3438 19.3438,-32.125 C19.0833,-32.3229 18.9531,-32.6198 18.9531,-33.0156 C18.9531,-33.4635 19.2135,-34.0469 19.7344,-34.7656 C20.2552,-35.349 20.7396,-35.6406 21.1875,-35.6406 C21.5833,-35.6406 22.6927,-34.8281 24.5156,-33.2031 C26.3385,-31.5781 27.9635,-30.7656 29.3906,-30.7656 C31.9948,-30.7656 34.0156,-32.2604 35.4531,-35.25 C36.8802,-38.1875 37.6927,-41.7031 37.8906,-45.7969 C38.2135,-52.5052 38.9635,-59.4427 40.1406,-66.6094 C38.7031,-66.9323 37.6302,-67.0938 36.9219,-67.0938 C33.7969,-67.0938 31.125,-66.4427 28.9063,-65.1406 C26.6979,-63.901 25.5938,-62.2083 25.5938,-60.0625 C25.5938,-58.5 26.1146,-57.2969 27.1563,-56.4531 C28.2604,-55.5365 28.8125,-54.7188 28.8125,-54"/>
<path class="Clef" transform="matrix(0.566929,0,0,0.566929,28.5015,488.764)" d="M21.2969,33.9844 C21.2969,35.4219 20.1875,36.1406 17.9688,36.1406 C16.1458,36.1406 14.5833,35.5833 13.2813,34.4688 C11.9167,33.3646 11.2344,31.9323 11.2344,30.1719 C11.2344,26.9844 13.0885,24.4792 16.7969,22.6563 C20.7031,20.7708 25.0677,19.8281 29.8906,19.8281 C34.5052,19.8281 38.6042,20.4479 42.1875,21.6875 C45.5104,23.0521 47.1719,25.1667 47.1719,28.0313 C47.1719,31.5417 45.3177,34.4688 41.6094,36.8125 C47.0781,37.9271 49.8125,40.3698 49.8125,44.1406 C49.8125,47.2656 48.3438,50.1615 45.4063,52.8281 C42.5417,55.4323 39.1927,56.7344 35.3594,56.7344 C33.7969,56.7344 32.2344,56.3802 30.6719,55.6719 C29.2344,55.0156 28.1927,54.2969 27.5469,53.5156 C26.8906,52.9323 26.5625,52.3802 26.5625,51.8594 C26.5625,51.3385 26.8229,50.9167 27.3438,50.5938 C27.8021,50.1354 28.2917,49.9063 28.8125,49.9063 C29.0729,49.9063 29.5599,50.2318 30.2734,50.8828 C30.987,51.5339 31.9635,51.8594 33.2031,51.8594 C35.0885,51.8594 36.849,51.1406 38.4844,49.7031 C40.0469,48.2135 40.8281,46.4896 40.8281,44.5313 C40.8281,42.8438 40.0469,41.5417 38.4844,40.625 C36.9844,39.7813 35.0625,39.3594 32.7188,39.3594 C32.2604,39.3594 32.0313,38.9688 32.0313,38.1875 C32.0313,36.8854 32.5208,36.2344 33.5,36.2344 C34.9271,36.2344 36.1979,35.6146 37.3125,34.375 C38.4167,32.9479 38.9688,31.4844 38.9688,29.9844 C38.9688,26.7969 36.8542,24.8125 32.625,24.0313 L29.3906,41.6094 C28.5469,45.9635 26.9531,49.7396 24.6094,52.9375 C22.2031,56.125 19.5677,57.7188 16.7031,57.7188 C15.724,57.7188 14.8125,57.5208 13.9688,57.125 C13.1875,56.8021 12.2083,56.151 11.0313,55.1719 C9.72917,54.1302 9.04688,53.5781 8.98438,53.5156 C8.72396,53.2552 8.59375,53.026 8.59375,52.8281 C8.59375,52.4427 8.79167,51.9583 9.1875,51.375 C9.63542,50.9167 10.0885,50.6875 10.5469,50.6875 C10.7448,50.6875 11.526,51.1771 12.8906,52.1563 C13.9948,53.1979 15.1667,53.7188 16.4063,53.7188 C18.8125,53.7188 20.6042,52.2188 21.7813,49.2188 C22.9479,46.0938 23.5313,42.3854 23.5313,38.0938 L23.5313,37.4063 C23.5313,34.7396 23.9896,30.4115 24.9063,24.4219 C23.2083,25.0052 21.875,25.7865 20.9063,26.7656 C19.8646,27.8073 19.3438,28.8802 19.3438,29.9844 C19.3438,30.8906 19.6667,31.6406 20.3125,32.2344 C20.9688,32.8802 21.2969,33.4635 21.2969,33.9844 M5.5625,9.46875 C5.82292,9.46875 6.47396,9.76563 7.51563,10.3594 C8.69271,10.8802 9.57292,11.1406 10.1563,11.1406 C13.0208,11.1406 17.1875,7.75521 22.6563,0.984375 C28.0625,-5.66146 32,-12.6979 34.4688,-20.125 C35.0625,-22.0729 36.5938,-23.0469 39.0625,-23.0469 C40.3021,-23.0469 41.3438,-22.7865 42.1875,-22.2656 C43.1042,-21.8802 43.5625,-21.3281 43.5625,-20.6094 L42.1875,8.59375 C42.1875,10.2917 42.776,11.1406 43.9531,11.1406 C44.3385,11.1406 45.151,10.8802 46.3906,10.3594 C47.5573,9.76563 48.2083,9.46875 48.3438,9.46875 C48.8021,9.46875 49.0313,9.92708 49.0313,10.8438 C49.0313,11.625 48.7344,12.1146 48.1406,12.3125 C47.4323,12.6354 46.3594,13.1563 44.9219,13.875 C43.2969,14.7188 42.026,15.1406 41.1094,15.1406 C40.1406,15.1406 39.2292,14.7188 38.375,13.875 C37.5313,12.8333 36.7865,10.8125 36.1406,7.8125 C35.3594,4.82292 34.7708,0.588542 34.375,-4.89063 C32.3542,-2.21354 30.0781,0.489583 27.5469,3.21875 C28.5156,4.91667 30.5,5.76563 33.5,5.76563 C33.8854,5.76563 34.0781,6.1875 34.0781,7.03125 C34.0781,8.53125 32.5833,9.28125 29.5938,9.28125 C27.0521,9.28125 25.2292,8.40104 24.125,6.64063 L21,9.375 C16.7708,13.0208 13.1563,14.9115 10.1563,15.0469 C9.11458,15.0469 7.75,14.5885 6.0625,13.6719 C4.42708,12.8281 3.60938,12.2083 3.60938,11.8125 C3.60938,11.3646 3.80729,10.8802 4.20313,10.3594 C4.58854,9.76563 5.04167,9.46875 5.5625,9.46875 M23.0469,-43.1719 C23.0469,-41.9323 21.9427,-41.3125 19.7344,-41.3125 C17.776,-41.3125 16.0469,-41.9635 14.5469,-43.2656 C13.1198,-44.5052 12.4063,-46.099 12.4063,-48.0469 C12.4063,-49.8698 12.9583,-51.4323 14.0625,-52.7344 C15.3646,-54.1719 16.9271,-55.151 18.75,-55.6719 C20.0521,-56.1927 22.0052,-56.7135 24.6094,-57.2344 C27.349,-57.4948 29.4635,-57.625 30.9531,-57.625 C32.0677,-57.625 34.2839,-57.0703 37.6016,-55.9609 C40.9193,-54.8516 43.2604,-54.2969 44.625,-54.2969 C46.2604,-54.2969 47.7917,-54.5573 49.2188,-55.0781 C50.5833,-55.6615 51.6927,-56.25 52.5469,-56.8438 C53.3906,-57.4896 53.9115,-57.8125 54.1094,-57.8125 C54.4948,-57.8125 54.9167,-57.651 55.375,-57.3281 C55.7604,-57.0052 55.9531,-56.6771 55.9531,-56.3438 C55.9531,-56.0833 55.4688,-55.4688 54.5,-54.5 C53.3229,-53.4583 51.8229,-52.5469 50,-51.7656 C48.0521,-50.7865 46.0677,-50.2969 44.0469,-50.2969 C43.0052,-50.2969 41.8333,-50.4583 40.5313,-50.7813 C39.6146,-44.4063 38.6719,-39.2292 37.7031,-35.25 C36.849,-31.2813 35.1875,-27.8333 32.7188,-24.9063 C30.3125,-21.9792 27.6406,-20.5156 24.7031,-20.5156 C23.401,-20.5156 22.3281,-20.776 21.4844,-21.2969 C20.3802,-21.8177 19.276,-22.5625 18.1719,-23.5313 C17.1302,-24.5104 16.25,-25.2292 15.5313,-25.6875 C15.2708,-25.9479 15.1406,-26.1771 15.1406,-26.375 C15.1406,-26.8229 15.3021,-27.276 15.625,-27.7344 C15.9479,-28.2552 16.3698,-28.5156 16.8906,-28.5156 C17.151,-28.5156 18.0313,-27.8646 19.5313,-26.5625 C21.0313,-25.2604 22.3646,-24.6094 23.5313,-24.6094 C25.0938,-24.6094 26.3021,-25.1302 27.1563,-26.1719 C28.0625,-27.2135 28.776,-28.776 29.2969,-30.8594 C29.7552,-32.7448 30.0833,-34.8594 30.2813,-37.2031 C30.5417,-39.1615 30.8333,-41.8333 31.1563,-45.2188 C31.3542,-47.1042 31.6771,-49.8073 32.125,-53.3281 C31.0208,-53.5885 30.1458,-53.7188 29.5,-53.7188 C27.1563,-53.7188 25.0365,-53.1979 23.1406,-52.1563 C21.3906,-50.9792 20.5156,-49.6406 20.5156,-48.1406 C20.5156,-47.0365 20.9375,-46.0625 21.7813,-45.2188 C22.625,-44.375 23.0469,-43.6927 23.0469,-43.1719"/>
<path class="Clef" transform="matrix(0.566929,0,0,0.566929,28.5015,331.087)" d="M57.1328,-8.89063 C56.1589,-9.86979 55.6719,-11.0755 55.6719,-12.5078 C55.6719,-13.9401 56.1589,-15.1432 57.1328,-16.1172 C58.1068,-17.0911 59.3099,-17.5781 60.7422,-17.5781 C62.1745,-17.5781 63.3802,-17.0911 64.3594,-16.1172 C65.3385,-15.1432 65.8281,-13.9401 65.8281,-12.5078 C65.8281,-11.0755 65.3385,-9.86979 64.3594,-8.89063 C63.3802,-7.91146 62.1745,-7.42188 60.7422,-7.42188 C59.3099,-7.42188 58.1068,-7.91146 57.1328,-8.89063 M57.1328,16.1172 C56.1589,15.1432 55.6719,13.9401 55.6719,12.5078 C55.6719,11.0755 56.1589,9.86979 57.1328,8.89063 C58.1068,7.91146 59.3099,7.42188 60.7422,7.42188 C62.1745,7.42188 63.3802,7.91146 64.3594,8.89063 C65.3385,9.86979 65.8281,11.0755 65.8281,12.5078 C65.8281,13.9401 65.3385,15.1432 64.3594,16.1172 C63.3802,17.0911 62.1745,17.5781 60.7422,17.5781 C59.3099,17.5781 58.1068,17.0911 57.1328,16.1172 M23.25,-26.2656 C31.9063,-26.2656 39,-24.0885 44.5313,-19.7344 C49.875,-15.1719 52.5469,-8.98438 52.5469,-1.17188 C52.5469,4.09896 51.5052,8.91667 49.4219,13.2813 C47.4635,17.8438 44.8906,21.8802 41.7031,25.3906 C38.4427,28.974 34.5052,32.3594 29.8906,35.5469 C25.3906,38.6719 20.7656,41.474 16.0156,43.9531 C6.31771,48.8281 0.979167,51.2656 0,51.2656 C-0.84375,51.2656 -1.26563,50.8438 -1.26563,50 C-1.26563,49.6771 -1.13542,49.3854 -0.875,49.125 C2.44792,47.1667 6.51563,44.6615 11.3281,41.6094 C14.4531,39.5885 18.099,36.7865 22.2656,33.2031 C26.3073,29.8177 29.4323,26.6302 31.6406,23.6406 C33.9219,20.7031 36.0052,17.0573 37.8906,12.7031 C39.5156,8.33854 40.3281,4.03646 40.3281,-0.203125 C40.3281,-6.51563 38.7656,-12.0156 35.6406,-16.7031 C32.5156,-21.3906 28.3854,-23.7344 23.25,-23.7344 C19.6042,-23.7344 16.4792,-22.5625 13.875,-20.2188 C11.0729,-17.8125 9.05208,-14.7865 7.8125,-11.1406 C9.05208,-11.6615 10.1927,-11.9219 11.2344,-11.9219 C13.9635,-11.9219 16.3073,-10.9427 18.2656,-8.98438 C20.2135,-6.90104 21.1875,-4.52604 21.1875,-1.85938 C21.1875,0.942708 20.2448,3.45313 18.3594,5.67188 C16.3385,7.68229 13.9635,8.6875 11.2344,8.6875 C8.30729,8.6875 5.67188,7.68229 3.32813,5.67188 C1.10938,3.45313 0,0.942708 0,-1.85938 C0,-8.56771 2.28125,-14.2969 6.84375,-19.0469 C11.3333,-23.8594 16.8021,-26.2656 23.25,-26.2656"/>
<path class="Clef" transform="matrix(0.566929,0,0,0.566929,28.5015,210.614)" d="M36.3281,-7.32813 C33.3385,-7.32813 31.8438,-4.88542 31.8438,0 C31.8438,4.88542 33.3385,7.32813 36.3281,7.32813 C37.3073,7.32813 38.7396,6.80729 40.625,5.76563 C42.4479,4.72396 43.9479,4.20313 45.125,4.20313 C51.3021,4.20313 56.6719,6.1875 61.2344,10.1563 C65.724,14.2604 67.9688,19.2083 67.9688,25 C67.9688,41.6667 59.1458,50 41.5,50 C37.2708,50 33.6615,48.6354 30.6719,45.9063 C27.7344,43.1667 26.2656,39.8125 26.2656,35.8438 C26.2656,33.6979 27.0156,31.875 28.5156,30.375 C30.0156,28.875 31.8073,28.125 33.8906,28.125 C35.974,28.125 37.763,28.875 39.2578,30.375 C40.7526,31.875 41.5,33.6979 41.5,35.8438 C41.5,37.1458 40.6875,38.4167 39.0625,39.6563 C37.4375,40.8229 36.625,42.0573 36.625,43.3594 C36.625,44.5365 37.1146,45.4479 38.0938,46.0938 C39,46.8125 40.1354,47.1719 41.5,47.1719 C46.9063,47.1719 50.5859,45.3151 52.5391,41.6016 C54.4922,37.888 55.4688,32.3542 55.4688,25 C55.4688,19.3333 54.8854,15.0365 53.7188,12.1094 C52.4792,8.72396 49.6146,7.03125 45.125,7.03125 C41.7396,7.03125 38.875,8.49479 36.5313,11.4219 C34.3125,14.4219 33.2031,17.9063 33.2031,21.875 C33.2031,22.8542 32.7474,23.3438 31.8359,23.3438 C30.9245,23.3438 30.4688,22.8542 30.4688,21.875 C30.4688,14.125 27.6719,7.45313 22.0781,1.85938 L22.0781,49.0313 C22.0781,49.6771 21.75,50 21.0938,50 L19.0469,50 C18.3281,50 17.9688,49.6771 17.9688,49.0313 L17.9688,-49.0313 C17.9688,-49.6771 18.3281,-50 19.0469,-50 L21.0938,-50 C21.75,-50 22.0781,-49.6771 22.0781,-49.0313 L22.0781,-1.85938 C27.6719,-7.45313 30.4688,-14.125 30.4688,-21.875 C30.4688,-22.8542 30.9245,-23.3438 31.8359,-23.3438 C32.7474,-23.3438 33.2031,-22.8542 33.2031,-21.875 C33.2031,-17.9063 34.3125,-14.4219 36.5313,-11.4219 C38.875,-8.49479 41.7396,-7.03125 45.125,-7.03125 C49.6146,-7.03125 52.4792,-8.72396 53.7188,-12.1094 C54.8854,-15.0365 55.4688,-19.3333 55.4688,-25 C55.4688,-32.3542 54.4922,-37.888 52.5391,-41.6016 C50.5859,-45.3151 46.9063,-47.1719 41.5,-47.1719 C40.1354,-47.1719 39,-46.8125 38.0938,-46.0938 C37.1146,-45.5104 36.625,-44.599 36.625,-43.3594 C36.625,-42.0573 37.4375,-40.8229 39.0625,-39.6563 C40.6875,-38.4167 41.5,-37.1458 41.5,-35.8438 C41.5,-33.6979 40.7526,-31.875 39.2578,-30.375 C37.763,-28.875 35.974,-28.125 33.8906,-28.125 C31.8073,-28.125 30.0156,-28.875 28.5156,-30.375 C27.0156,-31.875 26.2656,-33.6979 26.2656,-35.8438 C26.2656,-39.8125 27.7344,-43.1667 30.6719,-45.9063 C33.6615,-48.6354 37.2708,-50 41.5,-50 C59.1458,-50 67.9688,-41.6667 67.9688,-25 C67.9688,-19.2083 65.724,-14.2604 61.2344,-10.1563 C56.6719,-6.1875 51.3021,-4.20313 45.125,-4.20313 C44.0104,-4.20313 42.5104,-4.72396 40.625,-5.76563 C38.7396,-6.80729 37.3073,-7.32813 36.3281,-7.32813 M12.8906,50 L0.984375,50 C0.328125,50 0,49.6771 0,49.0313 L0,-49.0313 C0,-49.6771 0.328125,-50 0.984375,-50 L12.8906,-50 C13.5469,-50 13.875,-49.6771 13.875,-49.0313 L13.875,49.0313 C13.875,49.6771 13.5469,50 12.8906,50"/>
<path class="Clef" transform="matrix(0.566929,0,0,0.566929,28.5015,90.1417)" d="M36.7188,-25.5938 C36.7188,-25.5938 36.9167,-25.5938 37.3125,-25.5938 C37.5729,-25.6563 37.7969,-25.6875 37.9844,-25.6875 C45.276,-25.6875 51.2656,-23.1146 55.9531,-17.9688 C60.6406,-12.8958 62.9844,-6.97396 62.9844,-0.203125 C62.9844,8.20313 59.5052,15.0417 52.5469,20.3125 C50.724,21.75 48.3438,22.9219 45.4063,23.8281 C45.7396,28.0573 45.9063,31.474 45.9063,34.0781 C45.9063,34.599 45.8385,36.4896 45.7031,39.75 C45.4427,45.8021 43.3594,51.0417 39.4531,55.4688 C35.6823,59.8333 30.9948,62.0156 25.3906,62.0156 C20.1198,62.0156 15.6302,60.1615 11.9219,56.4531 C8.20313,52.6719 6.34375,48.1146 6.34375,42.7813 C6.34375,39.9792 7.42188,37.599 9.57813,35.6406 C11.7865,33.6927 14.3542,32.7188 17.2813,32.7188 C19.8854,32.7188 22.0677,33.7292 23.8281,35.75 C25.651,37.6354 26.5625,39.9792 26.5625,42.7813 C26.5625,45.3125 25.651,47.4896 23.8281,49.3125 C22.0052,51.1354 19.8229,52.0469 17.2813,52.0469 C16.2396,52.0469 15.2344,51.8542 14.2656,51.4688 C17.1302,55.6979 20.9375,57.8125 25.6875,57.8125 C30.1771,57.8125 33.8542,55.9896 36.7188,52.3438 C39.7188,48.5729 41.349,44.1771 41.6094,39.1563 C41.7344,36.0313 41.7969,34.2448 41.7969,33.7969 C41.7969,30.151 41.6667,27.1563 41.4063,24.8125 C38.1563,25.3333 35.2604,25.5938 32.7188,25.5938 C23.6667,25.5938 15.9531,22.0104 9.57813,14.8438 C3.32813,7.61458 0.203125,-0.979167 0.203125,-10.9375 C0.203125,-13.0208 0.395833,-15.1354 0.78125,-17.2813 C1.17708,-19.0417 1.66667,-20.9635 2.25,-23.0469 C2.57292,-24.224 3.45313,-26.1146 4.89063,-28.7188 C5.41146,-29.5 5.9974,-30.4766 6.64844,-31.6484 C7.29948,-32.8203 7.75521,-33.599 8.01563,-33.9844 C8.66146,-35.2865 9.92708,-37.0469 11.8125,-39.2656 C12.3333,-39.849 12.8724,-40.4974 13.4297,-41.2109 C13.987,-41.9245 14.4609,-42.5104 14.8516,-42.9688 C15.2422,-43.4271 15.5339,-43.7865 15.7266,-44.0469 C15.9193,-44.3073 17.3854,-46.0313 20.125,-49.2188 C20.7708,-49.875 21.4036,-50.5755 22.0234,-51.3203 C22.6432,-52.0651 23.1484,-52.651 23.5391,-53.0781 C23.9297,-53.5052 24.224,-53.8125 24.4219,-54 C22.0781,-61.75 20.6094,-67.9375 20.0156,-72.5625 C19.5677,-76.2708 19.3438,-81.349 19.3438,-87.7969 C19.3438,-93.4635 20.6458,-98.7708 23.25,-103.719 C25.7813,-108.854 29.3281,-113.052 33.8906,-116.313 C34.151,-116.51 34.474,-116.609 34.8594,-116.609 C35.3177,-116.609 35.6458,-116.51 35.8438,-116.313 C39.3542,-112.083 42.3802,-106.583 44.9219,-99.8125 C47.526,-93.0417 48.8281,-86.8854 48.8281,-81.3438 C48.8281,-75.0938 47.3333,-69.2344 44.3438,-63.7656 C40.9583,-57.974 36.5938,-51.9844 31.25,-45.7969 C32.6146,-41.5052 34.4375,-34.7708 36.7188,-25.5938 M45.0156,19.8281 C48.401,18.5885 51.0417,16.474 52.9375,13.4844 C55.0208,10.6198 56.0625,7.39583 56.0625,3.8125 C56.0625,-0.8125 54.5,-4.91667 51.375,-8.5 C48.1771,-12.2083 44.1042,-14.2917 39.1563,-14.75 C41.9583,-1.01042 43.9115,10.5156 45.0156,19.8281 M7.23438,-2.73438 C7.23438,3.71354 9.83854,9.38021 15.0469,14.2656 C20.3802,19.0156 26.3698,21.3906 33.0156,21.3906 C35.7448,21.3906 38.4115,21.1927 41.0156,20.7969 C39.974,10.901 37.9219,-0.947917 34.8594,-14.75 C31.151,-14.3542 28.1927,-13.0521 25.9844,-10.8438 C23.8281,-8.5625 22.75,-5.98958 22.75,-3.125 C22.75,1.82292 25.3906,5.82813 30.6719,8.89063 C31.1198,9.34896 31.3438,9.83854 31.3438,10.3594 C31.3438,10.8802 31.1198,11.3646 30.6719,11.8125 C30.276,12.2708 29.7865,12.5 29.2031,12.5 C29.1406,12.5 28.849,12.4375 28.3281,12.3125 C24.6094,10.2917 21.7448,7.6875 19.7344,4.5 C17.8385,1.10417 16.8906,-2.31771 16.8906,-5.76563 C16.8906,-10.2552 18.2917,-14.3229 21.0938,-17.9688 C24.0208,-21.6146 27.8281,-23.9583 32.5156,-25 C30.6927,-32.2917 29.1979,-37.9896 28.0313,-42.0938 C26.9896,-40.9167 25.737,-39.5 24.2734,-37.8438 C22.8099,-36.1875 21.9479,-35.1927 21.6875,-34.8594 C19.3438,-31.8073 17.5521,-29.4323 16.3125,-27.7344 C14.0938,-24.6719 12.4635,-22.0365 11.4219,-19.8281 C10.3177,-17.349 9.34375,-14.6458 8.5,-11.7188 C7.65625,-8.91667 7.23438,-5.92188 7.23438,-2.73438 M39.8438,-102.047 C34.9583,-99.6406 31.1198,-96.1927 28.3281,-91.7031 C25.4635,-87.0781 24.0313,-82.099 24.0313,-76.7656 C24.0313,-72.0781 25.2031,-65.7604 27.5469,-57.8125 C32.2344,-63.4792 35.75,-68.7188 38.0938,-73.5313 C40.5625,-78.6146 41.7969,-83.9219 41.7969,-89.4531 C41.7969,-93.6198 41.1458,-97.8177 39.8438,-102.047"/>
</svg>
