  0
SECTION
  2
HEADER
  9
$ACADVER
  1
AC1024
  9
$ACADMAINTVER
 70
     6
  9
$DWGCODEPAGE
  3
ANSI_1252
  9
$INSBASE
 10
0.0
 20
0.0
 30
0.0
  9
$EXTMIN
 10
1.000000000000000E+20
 20
1.000000000000000E+20
 30
1.000000000000000E+20
  9
$EXTMAX
 10
-1.000000000000000E+20
 20
-1.000000000000000E+20
 30
-1.000000000000000E+20
  9
$LIMMIN
 10
0.0
 20
0.0
  9
$LIMMAX
 10
12.0
 20
9.0
  9
$ORTHOMODE
 70
     0
  9
$REGENMODE
 70
     1
  9
$FILLMODE
 70
     1
  9
$QTEXTMODE
 70
     0
  9
$MIRRTEXT
 70
     1
  9
$LTSCALE
 40
1.0
  9
$ATTMODE
 70
     1
  9
$TEXTSIZE
 40
0.2
  9
$TRACEWID
 40
0.05
  9
$TEXTSTYLE
  7
Standard
  9
$CLAYER
  8
0
  9
$CELTYPE
  6
ByLayer
  9
$CECOLOR
 62
   256
  9
$CELTSCALE
 40
1.0
  9
$DISPSILH
 70
     0
  9
$DIMSCALE
 40
1.0
  9
$DIMASZ
 40
0.18
  9
$DIMEXO
 40
0.0625
  9
$DIMDLI
 40
0.38
  9
$DIMRND
 40
0.0
  9
$DIMDLE
 40
0.0
  9
$DIMEXE
 40
0.18
  9
$DIMTP
 40
0.0
  9
$DIMTM
 40
0.0
  9
$DIMTXT
 40
0.18
  9
$DIMCEN
 40
0.09
  9
$DIMTSZ
 40
0.0
  9
$DIMTOL
 70
     0
  9
$DIMLIM
 70
     0
  9
$DIMTIH
 70
     1
  9
$DIMTOH
 70
     1
  9
$DIMSE1
 70
     0
  9
$DIMSE2
 70
     0
  9
$DIMTAD
 70
     0
  9
$DIMZIN
 70
     0
  9
$DIMBLK
  1

  9
$DIMASO
 70
     1
  9
$DIMSHO
 70
     1
  9
$DIMPOST
  1

  9
$DIMAPOST
  1

  9
$DIMALT
 70
     0
  9
$DIMALTD
 70
     2
  9
$DIMALTF
 40
25.4
  9
$DIMLFAC
 40
1.0
  9
$DIMTOFL
 70
     0
  9
$DIMTVP
 40
0.0
  9
$DIMTIX
 70
     0
  9
$DIMSOXD
 70
     0
  9
$DIMSAH
 70
     0
  9
$DIMBLK1
  1

  9
$DIMBLK2
  1

  9
$DIMSTYLE
  2
Standard
  9
$DIMCLRD
 70
     0
  9
$DIMCLRE
 70
     0
  9
$DIMCLRT
 70
     0
  9
$DIMTFAC
 40
1.0
  9
$DIMGAP
 40
0.09
  9
$DIMJUST
 70
     0
  9
$DIMSD1
 70
     0
  9
$DIMSD2
 70
     0
  9
$DIMTOLJ
 70
     1
  9
$DIMTZIN
 70
     0
  9
$DIMALTZ
 70
     0
  9
$DIMALTTZ
 70
     0
  9
$DIMUPT
 70
     0
  9
$DIMDEC
 70
     4
  9
$DIMTDEC
 70
     4
  9
$DIMALTU
 70
     2
  9
$DIMALTTD
 70
     2
  9
$DIMTXSTY
  7
Standard
  9
$DIMAUNIT
 70
     0
  9
$DIMADEC
 70
     0
  9
$DIMALTRND
 40
0.0
  9
$DIMAZIN
 70
     0
  9
$DIMDSEP
 70
    46
  9
$DIMATFIT
 70
     3
  9
$DIMFRAC
 70
     0
  9
$DIMLDRBLK
  1

  9
$DIMLUNIT
 70
     2
  9
$DIMLWD
 70
    -2
  9
$DIMLWE
 70
    -2
  9
$DIMTMOVE
 70
     0
  9
$DIMFXL
 40
1.0
  9
$DIMFXLON
 70
     0
  9
$DIMJOGANG
 40
0.7853981633974483
  9
$DIMTFILL
 70
     0
  9
$DIMTFILLCLR
 70
     0
  9
$DIMARCSYM
 70
     0
  9
$DIMLTYPE
  6

  9
$DIMLTEX1
  6

  9
$DIMLTEX2
  6

  9
$DIMTXTDIRECTION
 70
     0
  9
$LUNITS
 70
     2
  9
$LUPREC
 70
     4
  9
$SKETCHINC
 40
0.1
  9
$FILLETRAD
 40
0.5
  9
$AUNITS
 70
     0
  9
$AUPREC
 70
     0
  9
$MENU
  1
.
  9
$ELEVATION
 40
0.0
  9
$PELEVATION
 40
0.0
  9
$THICKNESS
 40
0.0
  9
$LIMCHECK
 70
     0
  9
$CHAMFERA
 40
0.5
  9
$CHAMFERB
 40
0.5
  9
$CHAMFERC
 40
1.0
  9
$CHAMFERD
 40
0.0
  9
$SKPOLY
 70
     0
  9
$TDCREATE
 40
2459908.416511898
  9
$TDUCREATE
 40
2459908.187345231
  9
$TDUPDATE
 40
2459908.416512442
  9
$TDUUPDATE
 40
2459908.187345775
  9
$TDINDWG
 40
0.0000000116
  9
$TDUSRTIMER
 40
0.0000000116
  9
$USRTIMER
 70
     1
  9
$ANGBASE
 50
0.0
  9
$ANGDIR
 70
     0
  9
$PDMODE
 70
     0
  9
$PDSIZE
 40
0.0
  9
$PLINEWID
 40
0.0
  9
$SPLFRAME
 70
     0
  9
$SPLINETYPE
 70
     6
  9
$SPLINESEGS
 70
     8
  9
$HANDSEED
  5
1A6
  9
$SURFTAB1
 70
     6
  9
$SURFTAB2
 70
     6
  9
$SURFTYPE
 70
     6
  9
$SURFU
 70
     6
  9
$SURFV
 70
     6
  9
$UCSBASE
  2

  9
$UCSNAME
  2

  9
$UCSORG
 10
0.0
 20
0.0
 30
0.0
  9
$UCSXDIR
 10
1.0
 20
0.0
 30
0.0
  9
$UCSYDIR
 10
0.0
 20
1.0
 30
0.0
  9
$UCSORTHOREF
  2

  9
$UCSORTHOVIEW
 70
     0
  9
$UCSORGTOP
 10
0.0
 20
0.0
 30
0.0
  9
$UCSORGBOTTOM
 10
0.0
 20
0.0
 30
0.0
  9
$UCSORGLEFT
 10
0.0
 20
0.0
 30
0.0
  9
$UCSORGRIGHT
 10
0.0
 20
0.0
 30
0.0
  9
$UCSORGFRONT
 10
0.0
 20
0.0
 30
0.0
  9
$UCSORGBACK
 10
0.0
 20
0.0
 30
0.0
  9
$PUCSBASE
  2

  9
$PUCSNAME
  2

  9
$PUCSORG
 10
0.0
 20
0.0
 30
0.0
  9
$PUCSXDIR
 10
1.0
 20
0.0
 30
0.0
  9
$PUCSYDIR
 10
0.0
 20
1.0
 30
0.0
  9
$PUCSORTHOREF
  2

  9
$PUCSORTHOVIEW
 70
     0
  9
$PUCSORGTOP
 10
0.0
 20
0.0
 30
0.0
  9
$PUCSORGBOTTOM
 10
0.0
 20
0.0
 30
0.0
  9
$PUCSORGLEFT
 10
0.0
 20
0.0
 30
0.0
  9
$PUCSORGRIGHT
 10
0.0
 20
0.0
 30
0.0
  9
$PUCSORGFRONT
 10
0.0
 20
0.0
 30
0.0
  9
$PUCSORGBACK
 10
0.0
 20
0.0
 30
0.0
  9
$USERI1
 70
     0
  9
$USERI2
 70
     0
  9
$USERI3
 70
     0
  9
$USERI4
 70
     0
  9
$USERI5
 70
     0
  9
$USERR1
 40
0.0
  9
$USERR2
 40
0.0
  9
$USERR3
 40
0.0
  9
$USERR4
 40
0.0
  9
$USERR5
 40
0.0
  9
$WORLDVIEW
 70
     1
  9
$SHADEDGE
 70
     3
  9
$SHADEDIF
 70
    70
  9
$TILEMODE
 70
     1
  9
$MAXACTVP
 70
    64
  9
$PINSBASE
 10
0.0
 20
0.0
 30
0.0
  9
$PLIMCHECK
 70
     0
  9
$PEXTMIN
 10
1.000000000000000E+20
 20
1.000000000000000E+20
 30
1.000000000000000E+20
  9
$PEXTMAX
 10
-1.000000000000000E+20
 20
-1.000000000000000E+20
 30
-1.000000000000000E+20
  9
$PLIMMIN
 10
0.0
 20
0.0
  9
$PLIMMAX
 10
12.0
 20
9.0
  9
$UNITMODE
 70
     0
  9
$VISRETAIN
 70
     1
  9
$PLINEGEN
 70
     0
  9
$PSLTSCALE
 70
     1
  9
$TREEDEPTH
 70
  3020
  9
$CMLSTYLE
  2
Standard
  9
$CMLJUST
 70
     0
  9
$CMLSCALE
 40
1.0
  9
$PROXYGRAPHICS
 70
     1
  9
$MEASUREMENT
 70
     0
  9
$CELWEIGHT
370
    -1
  9
$ENDCAPS
280
     0
  9
$JOINSTYLE
280
     0
  9
$LWDISPLAY
290
     1
  9
$INSUNITS
 70
     1
  9
$HYPERLINKBASE
  1

  9
$STYLESHEET
  1

  9
$XEDIT
290
     1
  9
$CEPSNTYPE
380
     0
  9
$PSTYLEMODE
290
     1
  9
$FINGERPRINTGUID
  2
{1C869C8E-3704-4489-A0AA-D64C392D671B}
  9
$VERSIONGUID
  2
{FAEB1C32-E019-11D5-929B-00C0DF256EC4}
  9
$EXTNAMES
290
     1
  9
$PSVPSCALE
 40
0.0
  9
$OLESTARTUP
290
     0
  9
$SORTENTS
280
   127
  9
$INDEXCTL
280
     0
  9
$HIDETEXT
280
     1
  9
$XCLIPFRAME
280
     2
  9
$HALOGAP
280
     0
  9
$OBSCOLOR
 70
   257
  9
$OBSLTYPE
280
     0
  9
$INTERSECTIONDISPLAY
280
     0
  9
$INTERSECTIONCOLOR
 70
   257
  9
$DIMASSOC
280
     2
  9
$PROJECTNAME
  1

  9
$CAMERADISPLAY
290
     0
  9
$LENSLENGTH
 40
50.0
  9
$CAMERAHEIGHT
 40
0.0
  9
$STEPSPERSEC
 40
2.0
  9
$STEPSIZE
 40
6.0
  9
$3DDWFPREC
 40
2.0
  9
$PSOLWIDTH
 40
0.25
  9
$PSOLHEIGHT
 40
4.0
  9
$LOFTANG1
 40
1.570796326794897
  9
$LOFTANG2
 40
1.570796326794897
  9
$LOFTMAG1
 40
0.0
  9
$LOFTMAG2
 40
0.0
  9
$LOFTPARAM
 70
     7
  9
$LOFTNORMALS
280
     1
  9
$LATITUDE
 40
37.795
  9
$LONGITUDE
 40
-122.394
  9
$NORTHDIRECTION
 40
0.0
  9
$TIMEZONE
 70
 -8000
  9
$LIGHTGLYPHDISPLAY
280
     1
  9
$TILEMODELIGHTSYNCH
280
     1
  9
$CMATERIAL
347
3C
  9
$SOLIDHIST
280
     1
  9
$SHOWHIST
280
     1
  9
$DWFFRAME
280
     2
  9
$DGNFRAME
280
     2
  9
$REALWORLDSCALE
290
     1
  9
$INTERFERECOLOR
 62
   256
  9
$CSHADOW
280
     0
  9
$SHADOWPLANELOCATION
 40
0.0
  0
ENDSEC
  0
SECTION
  2
CLASSES
  0
CLASS
  1
ACDBDICTIONARYWDFLT
  2
AcDbDictionaryWithDefault
  3
ObjectDBX Classes
 90
        0
 91
        4
280
     0
281
     0
  0
CLASS
  1
VISUALSTYLE
  2
AcDbVisualStyle
  3
ObjectDBX Classes
 90
     4095
 91
        4
280
     0
281
     0
  0
CLASS
  1
MATERIAL
  2
AcDbMaterial
  3
ObjectDBX Classes
 90
     1153
 91
        4
280
     0
281
     0
  0
CLASS
  1
SUN
  2
AcDbSun
  3
SCENEOE
 90
     1024
 91
        4
280
     0
281
     0
  0
ENDSEC
  0
SECTION
  2
TABLES
  0
TABLE
  2
VPORT
  5
8
330
0
100
AcDbSymbolTable
 70
     1
  0
VPORT
  5
29
330
8
100
AcDbSymbolTableRecord
100
AcDbViewportTableRecord
  2
*Active
 70
     0
 10
0.0
 20
0.0
 11
1.0
 21
1.0
 12
0.0
 22
0.0
 13
0.0
 23
0.0
 14
0.5
 24
0.5
 15
0.5
 25
0.5
 16
0.0
 26
0.0
 36
1.0
 17
4.0
 27
-4.0
 37
0.0
 40
8.0
 41
1.0
 42
50.0
 43
0.0
 44
0.0
 50
0.0
 51
0.0
 71
     0
 72
   100
 73
     1
 74
     3
 75
     0
 76
     0
 77
     0
 78
     0
281
     0
 65
     1
110
0.0
120
0.0
130
0.0
111
1.0
121
0.0
131
0.0
112
0.0
122
1.0
132
0.0
 79
     0
146
0.0
 60
     3
 61
     5
292
     1
282
     1
141
0.0
142
0.0
 63
   250
361
3F
  0
ENDTAB
  0
TABLE
  2
LTYPE
  5
5
330
0
100
AcDbSymbolTable
 70
     1
  0
LTYPE
  5
14
330
5
100
AcDbSymbolTableRecord
100
AcDbLinetypeTableRecord
  2
ByBlock
 70
     0
  3

 72
    65
 73
     0
 40
0.0
  0
LTYPE
  5
15
330
5
100
AcDbSymbolTableRecord
100
AcDbLinetypeTableRecord
  2
ByLayer
 70
     0
  3

 72
    65
 73
     0
 40
0.0
  0
LTYPE
  5
16
330
5
100
AcDbSymbolTableRecord
100
AcDbLinetypeTableRecord
  2
Continuous
 70
     0
  3
Solid line
 72
    65
 73
     0
 40
0.0
  0
ENDTAB
  0
TABLE
  2
LAYER
  5
2
330
0
100
AcDbSymbolTable
 70
     2
  0
LAYER
  5
10
330
2
100
AcDbSymbolTableRecord
100
AcDbLayerTableRecord
  2
0
 70
     0
 62
     7
  6
Continuous
370
    -3
390
F
347
3E
  0
LAYER
  5
40
330
2
100
AcDbSymbolTableRecord
100
AcDbLayerTableRecord
  2
Layer 1
 70
     0
 62
     7
  6
Continuous
370
    -3
390
F
347
3E
  0
ENDTAB
  0
TABLE
  2
STYLE
  5
3
330
0
100
AcDbSymbolTable
 70
     1
  0
STYLE
  5
11
330
3
100
AcDbSymbolTableRecord
100
AcDbTextStyleTableRecord
  2
Standard
 70
     0
 40
0.0
 41
1.0
 50
0.0
 71
     0
 42
0.2
  3
txt
  4

  0
ENDTAB
  0
TABLE
  2
VIEW
  5
6
330
0
100
AcDbSymbolTable
 70
     0
  0
ENDTAB
  0
TABLE
  2
UCS
  5
7
330
0
100
AcDbSymbolTable
 70
     0
  0
ENDTAB
  0
TABLE
  2
APPID
  5
9
330
0
100
AcDbSymbolTable
 70
     1
  0
APPID
  5
12
330
9
100
AcDbSymbolTableRecord
100
AcDbRegAppTableRecord
  2
ACAD
 70
     0
  0
ENDTAB
  0
TABLE
  2
DIMSTYLE
  5
A
330
0
100
AcDbSymbolTable
 70
     1
100
AcDbDimStyleTable
  0
DIMSTYLE
105
27
330
A
100
AcDbSymbolTableRecord
100
AcDbDimStyleTableRecord
  2
Standard
 70
     0
178
     0
340
11
  0
ENDTAB
  0
TABLE
  2
BLOCK_RECORD
  5
1
330
0
100
AcDbSymbolTable
 70
    18
  0
BLOCK_RECORD
  5
1F
330
1
100
AcDbSymbolTableRecord
100
AcDbBlockTableRecord
  2
*Model_Space
340
22
 70
     0
280
     1
281
     0
  0
BLOCK_RECORD
  5
1B
330
1
100
AcDbSymbolTableRecord
100
AcDbBlockTableRecord
  2
*Paper_Space
340
1E
 70
     0
280
     1
281
     0
  0
BLOCK_RECORD
  5
23
330
1
100
AcDbSymbolTableRecord
100
AcDbBlockTableRecord
  2
*Paper_Space0
340
26
 70
     0
280
     1
281
     0
  0
BLOCK_RECORD
  5
41
330
1
100
AcDbSymbolTableRecord
100
AcDbBlockTableRecord
  2
block 2
340
0
102
{BLKREFS
331
42
102
}
 70
     0
280
     1
281
     0
  0
BLOCK_RECORD
  5
45
330
1
100
AcDbSymbolTableRecord
100
AcDbBlockTableRecord
  2
block 3
340
0
102
{BLKREFS
331
46
102
}
 70
     0
280
     1
281
     0
  0
BLOCK_RECORD
  5
49
330
1
100
AcDbSymbolTableRecord
100
AcDbBlockTableRecord
  2
block 4
340
0
102
{BLKREFS
331
4A
102
}
 70
     0
280
     1
281
     0
  0
BLOCK_RECORD
  5
4F
330
1
100
AcDbSymbolTableRecord
100
AcDbBlockTableRecord
  2
block 5
340
0
102
{BLKREFS
331
50
102
}
 70
     0
280
     1
281
     0
  0
BLOCK_RECORD
  5
53
330
1
100
AcDbSymbolTableRecord
100
AcDbBlockTableRecord
  2
block 6
340
0
102
{BLKREFS
331
54
102
}
 70
     0
280
     1
281
     0
  0
BLOCK_RECORD
  5
57
330
1
100
AcDbSymbolTableRecord
100
AcDbBlockTableRecord
  2
block 7
340
0
102
{BLKREFS
331
58
102
}
 70
     0
280
     1
281
     0
  0
BLOCK_RECORD
  5
5B
330
1
100
AcDbSymbolTableRecord
100
AcDbBlockTableRecord
  2
block 8
340
0
102
{BLKREFS
331
5C
102
}
 70
     0
280
     1
281
     0
  0
BLOCK_RECORD
  5
62
330
1
100
AcDbSymbolTableRecord
100
AcDbBlockTableRecord
  2
block 9
340
0
102
{BLKREFS
331
63
102
}
 70
     0
280
     1
281
     0
  0
BLOCK_RECORD
  5
66
330
1
100
AcDbSymbolTableRecord
100
AcDbBlockTableRecord
  2
block 10
340
0
102
{BLKREFS
331
67
102
}
 70
     0
280
     1
281
     0
  0
BLOCK_RECORD
  5
72
330
1
100
AcDbSymbolTableRecord
100
AcDbBlockTableRecord
  2
block 11
340
0
102
{BLKREFS
331
73
102
}
 70
     0
280
     1
281
     0
  0
BLOCK_RECORD
  5
76
330
1
100
AcDbSymbolTableRecord
100
AcDbBlockTableRecord
  2
block 12
340
0
102
{BLKREFS
331
77
102
}
 70
     0
280
     1
281
     0
  0
BLOCK_RECORD
  5
7C
330
1
100
AcDbSymbolTableRecord
100
AcDbBlockTableRecord
  2
block 13
340
0
102
{BLKREFS
331
7D
102
}
 70
     0
280
     1
281
     0
  0
BLOCK_RECORD
  5
80
330
1
100
AcDbSymbolTableRecord
100
AcDbBlockTableRecord
  2
block 14
340
0
102
{BLKREFS
331
81
102
}
 70
     0
280
     1
281
     0
  0
BLOCK_RECORD
  5
8C
330
1
100
AcDbSymbolTableRecord
100
AcDbBlockTableRecord
  2
block 15
340
0
102
{BLKREFS
331
8D
102
}
 70
     0
280
     1
281
     0
  0
BLOCK_RECORD
  5
90
330
1
100
AcDbSymbolTableRecord
100
AcDbBlockTableRecord
  2
block 16
340
0
102
{BLKREFS
331
91
102
}
 70
     0
280
     1
281
     0
  0
BLOCK_RECORD
  5
96
330
1
100
AcDbSymbolTableRecord
100
AcDbBlockTableRecord
  2
block 17
340
0
102
{BLKREFS
331
97
102
}
 70
     0
280
     1
281
     0
  0
BLOCK_RECORD
  5
195
330
1
100
AcDbSymbolTableRecord
100
AcDbBlockTableRecord
  2
block 18
340
0
102
{BLKREFS
331
196
102
}
 70
     0
280
     1
281
     0
  0
ENDTAB
  0
ENDSEC
  0
SECTION
  2
BLOCKS
  0
BLOCK
  5
20
330
1F
100
AcDbEntity
  8
0
100
AcDbBlockBegin
  2
*Model_Space
 70
     0
 10
0.0
 20
0.0
 30
0.0
  3
*Model_Space
  1

  0
ENDBLK
  5
21
330
1F
100
AcDbEntity
  8
0
100
AcDbBlockEnd
  0
BLOCK
  5
1C
330
1B
100
AcDbEntity
 67
     1
  8
0
100
AcDbBlockBegin
  2
*Paper_Space
 70
     0
 10
0.0
 20
0.0
 30
0.0
  3
*Paper_Space
  1

  0
ENDBLK
  5
1D
330
1B
100
AcDbEntity
 67
     1
  8
0
100
AcDbBlockEnd
  0
BLOCK
  5
24
330
23
100
AcDbEntity
  8
0
100
AcDbBlockBegin
  2
*Paper_Space0
 70
     0
 10
0.0
 20
0.0
 30
0.0
  3
*Paper_Space0
  1

  0
ENDBLK
  5
25
330
23
100
AcDbEntity
  8
0
100
AcDbBlockEnd
  0
BLOCK
  5
43
330
41
100
AcDbEntity
  8
0
100
AcDbBlockBegin
  2
block 2
 70
     0
 10
0.0
 20
0.0
 30
0.0
  3
block 2
  1

  0
INSERT
  5
46
330
41
100
AcDbEntity
  8
Layer 1
100
AcDbBlockReference
  2
block 3
 10
0.0
 20
0.0
 30
0.0
  0
INSERT
  5
196
330
41
100
AcDbEntity
  8
Layer 1
100
AcDbBlockReference
  2
block 18
 10
0.0
 20
0.0
 30
0.0
  0
ENDBLK
  5
44
330
41
100
AcDbEntity
  8
0
100
AcDbBlockEnd
  0
BLOCK
  5
47
330
45
100
AcDbEntity
  8
0
100
AcDbBlockBegin
  2
block 3
 70
     0
 10
0.0
 20
0.0
 30
0.0
  3
block 3
  1

  0
INSERT
  5
4A
330
45
100
AcDbEntity
  8
Layer 1
100
AcDbBlockReference
  2
block 4
 10
0.0
 20
0.0
 30
0.0
  0
INSERT
  5
50
330
45
100
AcDbEntity
  8
Layer 1
100
AcDbBlockReference
  2
block 5
 10
0.0
 20
0.0
 30
0.0
  0
ENDBLK
  5
48
330
45
100
AcDbEntity
  8
0
100
AcDbBlockEnd
  0
BLOCK
  5
4B
330
49
100
AcDbEntity
  8
0
100
AcDbBlockBegin
  2
block 4
 70
     0
 10
0.0
 20
0.0
 30
0.0
  3
block 4
  1

  0
SPLINE
  5
4D
330
49
100
AcDbEntity
  8
Layer 1
370
     0
100
AcDbSpline
210
0.0
220
0.0
230
1.0
 70
    11
 71
     3
 72
    17
 73
    13
 74
     0
 42
0.0000000001
 43
0.0000000001
 12
1.0
 22
0.0
 32
0.0
 13
1.0
 23
0.0
 33
0.0
 40
0.0
 40
0.0
 40
0.0
 40
0.0
 40
1.0
 40
1.0
 40
1.0
 40
2.0
 40
2.0
 40
2.0
 40
3.0
 40
3.0
 40
3.0
 40
4.0
 40
4.0
 40
4.0
 40
4.0
 10
6.860224586288445
 20
-4.143546546385348
 30
0.0
 10
6.860224586288445
 20
-5.721131825442726
 30
0.0
 10
5.58133903281138
 20
-7.000017378919993
 30
0.0
 10
4.003753753753724
 20
-7.000017378919993
 30
0.0
 10
2.426168474696497
 20
-7.000017378919993
 30
0.0
 10
1.147282921219067
 20
-5.721131825442726
 30
0.0
 10
1.147282921219067
 20
-4.143546546385348
 30
0.0
 10
1.147282921219067
 20
-2.56596126732792
 30
0.0
 10
2.426168474696497
 20
-1.287075713850628
 30
0.0
 10
4.003753753753724
 20
-1.287075713850628
 30
0.0
 10
5.58133903281138
 20
-1.287075713850628
 30
0.0
 10
6.860224586288445
 20
-2.56596126732792
 30
0.0
 10
6.860224586288445
 20
-4.143546546385348
 30
0.0
  0
HATCH
  5
4E
330
49
100
AcDbEntity
  8
Layer 1
 62
   250
420
  3158063
100
AcDbHatch
 10
0.0
 20
0.0
 30
0.0
210
0.0
220
0.0
230
1.0
  2
SOLID
 70
     1
 71
     0
 91
        1
 92
        1
 93
        1
 72
     4
 94
        3
 73
     0
 74
     1
 95
       17
 96
       13
 40
0.0
 40
0.0
 40
0.0
 40
0.0
 40
1.0
 40
1.0
 40
1.0
 40
2.0
 40
2.0
 40
2.0
 40
3.0
 40
3.0
 40
3.0
 40
4.0
 40
4.0
 40
4.0
 40
4.0
 10
6.860224586288445
 20
-4.143546546385348
 10
6.860224586288445
 20
-5.721131825442726
 10
5.58133903281138
 20
-7.000017378919993
 10
4.003753753753724
 20
-7.000017378919993
 10
2.426168474696497
 20
-7.000017378919993
 10
1.147282921219067
 20
-5.721131825442726
 10
1.147282921219067
 20
-4.143546546385348
 10
1.147282921219067
 20
-2.56596126732792
 10
2.426168474696497
 20
-1.287075713850628
 10
4.003753753753724
 20
-1.287075713850628
 10
5.58133903281138
 20
-1.287075713850628
 10
6.860224586288445
 20
-2.56596126732792
 10
6.860224586288445
 20
-4.143546546385348
 97
        0
 97
        0
 75
     2
 76
     1
 98
        0
  0
ENDBLK
  5
4C
330
49
100
AcDbEntity
  8
0
100
AcDbBlockEnd
  0
BLOCK
  5
51
330
4F
100
AcDbEntity
  8
0
100
AcDbBlockBegin
  2
block 5
 70
     0
 10
0.0
 20
0.0
 30
0.0
  3
block 5
  1

  0
INSERT
  5
54
330
4F
100
AcDbEntity
  8
Layer 1
100
AcDbBlockReference
  2
block 6
 10
0.0
 20
0.0
 30
0.0
  0
INSERT
  5
8D
330
4F
100
AcDbEntity
  8
Layer 1
100
AcDbBlockReference
  2
block 15
 10
0.0
 20
0.0
 30
0.0
  0
INSERT
  5
97
330
4F
100
AcDbEntity
  8
Layer 1
100
AcDbBlockReference
  2
block 17
 10
0.0
 20
0.0
 30
0.0
  0
ENDBLK
  5
52
330
4F
100
AcDbEntity
  8
0
100
AcDbBlockEnd
  0
BLOCK
  5
55
330
53
100
AcDbEntity
  8
0
100
AcDbBlockBegin
  2
block 6
 70
     0
 10
0.0
 20
0.0
 30
0.0
  3
block 6
  1

  0
INSERT
  5
58
330
53
100
AcDbEntity
  8
Layer 1
100
AcDbBlockReference
  2
block 7
 10
0.0
 20
0.0
 30
0.0
  0
INSERT
  5
63
330
53
100
AcDbEntity
  8
Layer 1
100
AcDbBlockReference
  2
block 9
 10
0.0
 20
0.0
 30
0.0
  0
INSERT
  5
73
330
53
100
AcDbEntity
  8
Layer 1
100
AcDbBlockReference
  2
block 11
 10
0.0
 20
0.0
 30
0.0
  0
INSERT
  5
7D
330
53
100
AcDbEntity
  8
Layer 1
100
AcDbBlockReference
  2
block 13
 10
0.0
 20
0.0
 30
0.0
  0
ENDBLK
  5
56
330
53
100
AcDbEntity
  8
0
100
AcDbBlockEnd
  0
BLOCK
  5
59
330
57
100
AcDbEntity
  8
0
100
AcDbBlockBegin
  2
block 7
 70
     0
 10
0.0
 20
0.0
 30
0.0
  3
block 7
  1

  0
INSERT
  5
5C
330
57
100
AcDbEntity
  8
Layer 1
100
AcDbBlockReference
  2
block 8
 10
0.0
 20
0.0
 30
0.0
  0
ENDBLK
  5
5A
330
57
100
AcDbEntity
  8
0
100
AcDbBlockEnd
  0
BLOCK
  5
5D
330
5B
100
AcDbEntity
  8
0
100
AcDbBlockBegin
  2
block 8
 70
     0
 10
0.0
 20
0.0
 30
0.0
  3
block 8
  1

  0
POLYLINE
  5
5F
330
5B
100
AcDbEntity
  8
Layer 1
 62
     7
420
 16776959
370
   158
100
AcDb2dPolyline
 66
     1
 10
0.0
 20
0.0
 30
0.0
  0
VERTEX
  5
60
330
5F
100
AcDbEntity
  8
Layer 1
 62
     7
420
 16776959
370
   158
100
AcDbVertex
100
AcDb2dVertex
 10
3.979908496854528
 20
-4.06486567703554
 30
0.0
  0
VERTEX
  5
1A3
330
5F
100
AcDbEntity
  8
0
100
AcDbVertex
100
AcDb2dVertex
 10
3.979908496854528
 20
-4.06486567703554
 30
0.0
  0
SEQEND
  5
61
330
5F
100
AcDbEntity
  8
Layer 1
 62
     7
420
 16776959
370
   158
  0
ENDBLK
  5
5E
330
5B
100
AcDbEntity
  8
0
100
AcDbBlockEnd
  0
BLOCK
  5
64
330
62
100
AcDbEntity
  8
0
100
AcDbBlockBegin
  2
block 9
 70
     0
 10
0.0
 20
0.0
 30
0.0
  3
block 9
  1

  0
INSERT
  5
67
330
62
100
AcDbEntity
  8
Layer 1
100
AcDbBlockReference
  2
block 10
 10
0.0
 20
0.0
 30
0.0
  0
ENDBLK
  5
65
330
62
100
AcDbEntity
  8
0
100
AcDbBlockEnd
  0
BLOCK
  5
68
330
66
100
AcDbEntity
  8
0
100
AcDbBlockBegin
  2
block 10
 70
     0
 10
0.0
 20
0.0
 30
0.0
  3
block 10
  1

  0
POLYLINE
  5
6A
330
66
100
AcDbEntity
  8
Layer 1
370
     0
100
AcDb2dPolyline
 66
     1
 10
0.0
 20
0.0
 30
0.0
  0
VERTEX
  5
6B
330
6A
100
AcDbEntity
  8
Layer 1
370
     0
100
AcDbVertex
100
AcDb2dVertex
 10
5.186571193670994
 20
-3.607128742350243
 30
0.0
  0
VERTEX
  5
6C
330
6A
100
AcDbEntity
  8
Layer 1
370
     0
100
AcDbVertex
100
AcDb2dVertex
 10
4.71829964439371
 20
-3.739544227965325
 30
0.0
  0
VERTEX
  5
6D
330
6A
100
AcDbEntity
  8
Layer 1
370
     0
100
AcDbVertex
100
AcDb2dVertex
 10
4.462592257007018
 20
-4.17380915486961
 30
0.0
  0
VERTEX
  5
6E
330
6A
100
AcDbEntity
  8
Layer 1
370
     0
100
AcDbVertex
100
AcDb2dVertex
 10
5.097945235205947
 20
-3.892106087020895
 30
0.0
  0
VERTEX
  5
6F
330
6A
100
AcDbEntity
  8
Layer 1
370
     0
100
AcDbVertex
100
AcDb2dVertex
 10
5.186571193670994
 20
-3.607128742350243
 30
0.0
  0
SEQEND
  5
71
330
6A
100
AcDbEntity
  8
Layer 1
370
     0
  0
HATCH
  5
70
330
66
100
AcDbEntity
  8
Layer 1
 62
     7
420
 16776959
100
AcDbHatch
 10
0.0
 20
0.0
 30
0.0
210
0.0
220
0.0
230
1.0
  2
SOLID
 70
     1
 71
     0
 91
        1
 92
        1
 93
        4
 72
     1
 10
5.186571193670994
 20
-3.607128742350243
 11
4.71829964439371
 21
-3.739544227965325
 72
     1
 10
4.71829964439371
 20
-3.739544227965325
 11
4.462592257007018
 21
-4.17380915486961
 72
     1
 10
4.462592257007018
 20
-4.17380915486961
 11
5.097945235205947
 21
-3.892106087020895
 72
     1
 10
5.097945235205947
 20
-3.892106087020895
 11
5.186571193670994
 21
-3.607128742350243
 97
        0
 75
     2
 76
     1
 98
        0
  0
ENDBLK
  5
69
330
66
100
AcDbEntity
  8
0
100
AcDbBlockEnd
  0
BLOCK
  5
74
330
72
100
AcDbEntity
  8
0
100
AcDbBlockBegin
  2
block 11
 70
     0
 10
0.0
 20
0.0
 30
0.0
  3
block 11
  1

  0
INSERT
  5
77
330
72
100
AcDbEntity
  8
Layer 1
100
AcDbBlockReference
  2
block 12
 10
0.0
 20
0.0
 30
0.0
  0
ENDBLK
  5
75
330
72
100
AcDbEntity
  8
0
100
AcDbBlockEnd
  0
BLOCK
  5
78
330
76
100
AcDbEntity
  8
0
100
AcDbBlockBegin
  2
block 12
 70
     0
 10
0.0
 20
0.0
 30
0.0
  3
block 12
  1

  0
SPLINE
  5
7A
330
76
100
AcDbEntity
  8
Layer 1
370
     0
100
AcDbSpline
210
0.0
220
0.0
230
1.0
 70
    11
 71
     3
 72
    20
 73
    16
 74
     0
 42
0.0000000001
 43
0.0000000001
 12
1.0
 22
0.0
 32
0.0
 13
1.0
 23
0.0
 33
0.0
 40
0.0
 40
0.0
 40
0.0
 40
0.0
 40
1.0
 40
1.0
 40
1.0
 40
2.0
 40
2.0
 40
2.0
 40
3.0
 40
3.0
 40
3.0
 40
4.0
 40
4.0
 40
4.0
 40
5.0
 40
5.0
 40
5.0
 40
5.0
 10
3.263068539124371
 20
-2.962820863286272
 30
0.0
 10
3.300581733123989
 20
-2.932690687611663
 30
0.0
 10
3.397396523658232
 20
-2.815705869134338
 30
0.0
 10
3.397396523658232
 20
-2.815705869134338
 30
0.0
 10
3.397396523658232
 20
-2.815705869134338
 30
0.0
 10
2.896133034604443
 20
-2.349545669975062
 30
0.0
 10
2.605902028998786
 20
-2.203712113545091
 30
0.0
 10
2.597189383813543
 20
-2.338751486293063
 30
0.0
 10
2.552031421846209
 20
-2.916265084806418
 30
0.0
 10
2.659228023809305
 20
-3.047184610329496
 30
0.0
 10
2.606710042413435
 20
-2.933702702794183
 30
0.0
 10
2.646734374091453
 20
-2.492018226100527
 30
0.0
 10
2.653723530545019
 20
-2.342830301461302
 30
0.0
 10
2.653723530545019
 20
-2.342830301461302
 30
0.0
 10
2.996132064811604
 20
-2.572665833868389
 30
0.0
 10
3.263068539124371
 20
-2.962820863286272
 30
0.0
  0
HATCH
  5
7B
330
76
100
AcDbEntity
  8
Layer 1
 62
     7
420
 16776959
100
AcDbHatch
 10
0.0
 20
0.0
 30
0.0
210
0.0
220
0.0
230
1.0
  2
SOLID
 70
     1
 71
     0
 91
        1
 92
        1
 93
        1
 72
     4
 94
        3
 73
     0
 74
     1
 95
       20
 96
       16
 40
0.0
 40
0.0
 40
0.0
 40
0.0
 40
1.0
 40
1.0
 40
1.0
 40
2.0
 40
2.0
 40
2.0
 40
3.0
 40
3.0
 40
3.0
 40
4.0
 40
4.0
 40
4.0
 40
5.0
 40
5.0
 40
5.0
 40
5.0
 10
3.263068539124371
 20
-2.962820863286272
 10
3.300581733123989
 20
-2.932690687611663
 10
3.397396523658232
 20
-2.815705869134338
 10
3.397396523658232
 20
-2.815705869134338
 10
3.397396523658232
 20
-2.815705869134338
 10
2.896133034604443
 20
-2.349545669975062
 10
2.605902028998786
 20
-2.203712113545091
 10
2.597189383813543
 20
-2.338751486293063
 10
2.552031421846209
 20
-2.916265084806418
 10
2.659228023809305
 20
-3.047184610329496
 10
2.606710042413435
 20
-2.933702702794183
 10
2.646734374091453
 20
-2.492018226100527
 10
2.653723530545019
 20
-2.342830301461302
 10
2.653723530545019
 20
-2.342830301461302
 10
2.996132064811604
 20
-2.572665833868389
 10
3.263068539124371
 20
-2.962820863286272
 97
        0
 97
        0
 75
     2
 76
     1
 98
        0
  0
ENDBLK
  5
79
330
76
100
AcDbEntity
  8
0
100
AcDbBlockEnd
  0
BLOCK
  5
7E
330
7C
100
AcDbEntity
  8
0
100
AcDbBlockBegin
  2
block 13
 70
     0
 10
0.0
 20
0.0
 30
0.0
  3
block 13
  1

  0
INSERT
  5
81
330
7C
100
AcDbEntity
  8
Layer 1
100
AcDbBlockReference
  2
block 14
 10
0.0
 20
0.0
 30
0.0
  0
ENDBLK
  5
7F
330
7C
100
AcDbEntity
  8
0
100
AcDbBlockEnd
  0
BLOCK
  5
82
330
80
100
AcDbEntity
  8
0
100
AcDbBlockBegin
  2
block 14
 70
     0
 10
0.0
 20
0.0
 30
0.0
  3
block 14
  1

  0
POLYLINE
  5
84
330
80
100
AcDbEntity
  8
Layer 1
370
     0
100
AcDb2dPolyline
 66
     1
 10
0.0
 20
0.0
 30
0.0
  0
VERTEX
  5
85
330
84
100
AcDbEntity
  8
Layer 1
370
     0
100
AcDbVertex
100
AcDb2dVertex
 10
2.896033953536984
 20
-3.607128742333998
 30
0.0
  0
VERTEX
  5
86
330
84
100
AcDbEntity
  8
Layer 1
370
     0
100
AcDbVertex
100
AcDb2dVertex
 10
3.364305502808532
 20
-3.739544227970113
 30
0.0
  0
VERTEX
  5
87
330
84
100
AcDbEntity
  8
Layer 1
370
     0
100
AcDbVertex
100
AcDb2dVertex
 10
3.620012890175581
 20
-4.173809154885904
 30
0.0
  0
VERTEX
  5
88
330
84
100
AcDbEntity
  8
Layer 1
370
     0
100
AcDbVertex
100
AcDb2dVertex
 10
2.984659911989322
 20
-3.892106087008592
 30
0.0
  0
VERTEX
  5
89
330
84
100
AcDbEntity
  8
Layer 1
370
     0
100
AcDbVertex
100
AcDb2dVertex
 10
2.896033953536984
 20
-3.607128742333998
 30
0.0
  0
SEQEND
  5
8B
330
84
100
AcDbEntity
  8
Layer 1
370
     0
  0
HATCH
  5
8A
330
80
100
AcDbEntity
  8
Layer 1
 62
     7
420
 16776959
100
AcDbHatch
 10
0.0
 20
0.0
 30
0.0
210
0.0
220
0.0
230
1.0
  2
SOLID
 70
     1
 71
     0
 91
        1
 92
        1
 93
        4
 72
     1
 10
2.896033953536984
 20
-3.607128742333998
 11
3.364305502808532
 21
-3.739544227970113
 72
     1
 10
3.364305502808532
 20
-3.739544227970113
 11
3.620012890175581
 21
-4.173809154885904
 72
     1
 10
3.620012890175581
 20
-4.173809154885904
 11
2.984659911989322
 21
-3.892106087008592
 72
     1
 10
2.984659911989322
 20
-3.892106087008592
 11
2.896033953536984
 21
-3.607128742333998
 97
        0
 75
     2
 76
     1
 98
        0
  0
ENDBLK
  5
83
330
80
100
AcDbEntity
  8
0
100
AcDbBlockEnd
  0
BLOCK
  5
8E
330
8C
100
AcDbEntity
  8
0
100
AcDbBlockBegin
  2
block 15
 70
     0
 10
0.0
 20
0.0
 30
0.0
  3
block 15
  1

  0
INSERT
  5
91
330
8C
100
AcDbEntity
  8
Layer 1
100
AcDbBlockReference
  2
block 16
 10
0.0
 20
0.0
 30
0.0
  0
ENDBLK
  5
8F
330
8C
100
AcDbEntity
  8
0
100
AcDbBlockEnd
  0
BLOCK
  5
92
330
90
100
AcDbEntity
  8
0
100
AcDbBlockBegin
  2
block 16
 70
     0
 10
0.0
 20
0.0
 30
0.0
  3
block 16
  1

  0
SPLINE
  5
94
330
90
100
AcDbEntity
  8
Layer 1
370
     0
100
AcDbSpline
210
0.0
220
0.0
230
1.0
 70
    11
 71
     3
 72
    20
 73
    16
 74
     0
 42
0.0000000001
 43
0.0000000001
 12
1.0
 22
0.0
 32
0.0
 13
1.0
 23
0.0
 33
0.0
 40
0.0
 40
0.0
 40
0.0
 40
0.0
 40
1.0
 40
1.0
 40
1.0
 40
2.0
 40
2.0
 40
2.0
 40
3.0
 40
3.0
 40
3.0
 40
4.0
 40
4.0
 40
4.0
 40
5.0
 40
5.0
 40
5.0
 40
5.0
 10
4.804854868579747
 20
-2.962820863274171
 30
0.0
 10
4.767341674581656
 20
-2.932690687597869
 30
0.0
 10
4.670526884052379
 20
-2.815705869116199
 30
0.0
 10
4.670526884052379
 20
-2.815705869116199
 30
0.0
 10
4.670526884052379
 20
-2.815705869116199
 30
0.0
 10
5.171790373126947
 20
-2.349545669979433
 30
0.0
 10
5.462021378739437
 20
-2.203712113562536
 30
0.0
 10
5.470734023918541
 20
-2.338751486310811
 30
0.0
 10
5.515891985859803
 20
-2.9162650848262
 30
0.0
 10
5.408695383890896
 20
-3.047184610344452
 30
0.0
 10
5.461213365292148
 20
-2.933702702811552
 30
0.0
 10
5.42118903363376
 20
-2.492018226116089
 30
0.0
 10
5.414199877187102
 20
-2.342830301476511
 30
0.0
 10
5.414199877187102
 20
-2.342830301476511
 30
0.0
 10
5.071791342910122
 20
-2.57266583386825
 30
0.0
 10
4.804854868579747
 20
-2.962820863274171
 30
0.0
  0
HATCH
  5
95
330
90
100
AcDbEntity
  8
Layer 1
 62
     7
420
 16776959
100
AcDbHatch
 10
0.0
 20
0.0
 30
0.0
210
0.0
220
0.0
230
1.0
  2
SOLID
 70
     1
 71
     0
 91
        1
 92
        1
 93
        1
 72
     4
 94
        3
 73
     0
 74
     1
 95
       20
 96
       16
 40
0.0
 40
0.0
 40
0.0
 40
0.0
 40
1.0
 40
1.0
 40
1.0
 40
2.0
 40
2.0
 40
2.0
 40
3.0
 40
3.0
 40
3.0
 40
4.0
 40
4.0
 40
4.0
 40
5.0
 40
5.0
 40
5.0
 40
5.0
 10
4.804854868579747
 20
-2.962820863274171
 10
4.767341674581656
 20
-2.932690687597869
 10
4.670526884052379
 20
-2.815705869116199
 10
4.670526884052379
 20
-2.815705869116199
 10
4.670526884052379
 20
-2.815705869116199
 10
5.171790373126947
 20
-2.349545669979433
 10
5.462021378739437
 20
-2.203712113562536
 10
5.470734023918541
 20
-2.338751486310811
 10
5.515891985859803
 20
-2.9162650848262
 10
5.408695383890896
 20
-3.047184610344452
 10
5.461213365292148
 20
-2.933702702811552
 10
5.42118903363376
 20
-2.492018226116089
 10
5.414199877187102
 20
-2.342830301476511
 10
5.414199877187102
 20
-2.342830301476511
 10
5.071791342910122
 20
-2.57266583386825
 10
4.804854868579747
 20
-2.962820863274171
 97
        0
 97
        0
 75
     2
 76
     1
 98
        0
  0
ENDBLK
  5
93
330
90
100
AcDbEntity
  8
0
100
AcDbBlockEnd
  0
BLOCK
  5
98
330
96
100
AcDbEntity
  8
0
100
AcDbBlockBegin
  2
block 17
 70
     0
 10
0.0
 20
0.0
 30
0.0
  3
block 17
  1

  0
POLYLINE
  5
9A
330
96
100
AcDbEntity
  8
Layer 1
370
     0
100
AcDb2dPolyline
 66
     1
 10
0.0
 20
0.0
 30
0.0
  0
VERTEX
  5
9B
330
9A
100
AcDbEntity
  8
Layer 1
370
     0
100
AcDbVertex
100
AcDb2dVertex
 10
4.035424738902444
 20
-6.443928306088916
 30
0.0
  0
VERTEX
  5
9C
330
9A
100
AcDbEntity
  8
Layer 1
370
     0
100
AcDbVertex
100
AcDb2dVertex
 10
4.034837047412617
 20
-6.443479964127542
 30
0.0
  0
VERTEX
  5
9D
330
9A
100
AcDbEntity
  8
Layer 1
370
     0
100
AcDbVertex
100
AcDb2dVertex
 10
4.034249355922459
 20
-6.443928306088916
 30
0.0
  0
VERTEX
  5
9E
330
9A
100
AcDbEntity
  8
Layer 1
370
     0
100
AcDbVertex
100
AcDb2dVertex
 10
4.034837047412617
 20
-6.443928306088916
 30
0.0
  0
VERTEX
  5
9F
330
9A
100
AcDbEntity
  8
Layer 1
370
     0
100
AcDbVertex
100
AcDb2dVertex
 10
4.035424738902444
 20
-6.443928306088916
 30
0.0
  0
SEQEND
  5
A1
330
9A
100
AcDbEntity
  8
Layer 1
370
     0
  0
HATCH
  5
A0
330
96
100
AcDbEntity
  8
Layer 1
 62
     7
420
 16776959
100
AcDbHatch
 10
0.0
 20
0.0
 30
0.0
210
0.0
220
0.0
230
1.0
  2
SOLID
 70
     1
 71
     0
 91
        1
 92
        1
 93
        4
 72
     1
 10
4.035424738902444
 20
-6.443928306088916
 11
4.034837047412617
 21
-6.443479964127542
 72
     1
 10
4.034837047412617
 20
-6.443479964127542
 11
4.034249355922459
 21
-6.443928306088916
 72
     1
 10
4.034249355922459
 20
-6.443928306088916
 11
4.034837047412617
 21
-6.443928306088916
 72
     1
 10
4.034837047412617
 20
-6.443928306088916
 11
4.035424738902444
 21
-6.443928306088916
 97
        0
 75
     2
 76
     1
 98
        0
  0
POLYLINE
  5
A2
330
96
100
AcDbEntity
  8
Layer 1
370
     0
100
AcDb2dPolyline
 66
     1
 10
0.0
 20
0.0
 30
0.0
  0
VERTEX
  5
A3
330
A2
100
AcDbEntity
  8
Layer 1
370
     0
100
AcDbVertex
100
AcDb2dVertex
 10
3.167707342118206
 20
-4.947759682338098
 30
0.0
  0
VERTEX
  5
A4
330
A2
100
AcDbEntity
  8
Layer 1
370
     0
100
AcDbVertex
100
AcDb2dVertex
 10
3.172354345960811
 20
-4.960364755994684
 30
0.0
  0
VERTEX
  5
A5
330
A2
100
AcDbEntity
  8
Layer 1
370
     0
100
AcDbVertex
100
AcDb2dVertex
 10
3.185404732241093
 20
-4.962373206808049
 30
0.0
  0
VERTEX
  5
A6
330
A2
100
AcDbEntity
  8
Layer 1
370
     0
100
AcDbVertex
100
AcDb2dVertex
 10
3.167707342118206
 20
-4.947759682338098
 30
0.0
  0
SEQEND
  5
A8
330
A2
100
AcDbEntity
  8
Layer 1
370
     0
  0
HATCH
  5
A7
330
96
100
AcDbEntity
  8
Layer 1
 62
     7
420
 16776959
100
AcDbHatch
 10
0.0
 20
0.0
 30
0.0
210
0.0
220
0.0
230
1.0
  2
SOLID
 70
     1
 71
     0
 91
        1
 92
        1
 93
        3
 72
     1
 10
3.167707342118206
 20
-4.947759682338098
 11
3.172354345960811
 21
-4.960364755994684
 72
     1
 10
3.172354345960811
 20
-4.960364755994684
 11
3.185404732241093
 21
-4.962373206808049
 72
     1
 10
3.185404732241093
 20
-4.962373206808049
 11
3.167707342118206
 21
-4.947759682338098
 97
        0
 75
     2
 76
     1
 98
        0
  0
POLYLINE
  5
A9
330
96
100
AcDbEntity
  8
Layer 1
370
     0
100
AcDb2dPolyline
 66
     1
 10
0.0
 20
0.0
 30
0.0
  0
VERTEX
  5
AA
330
A9
100
AcDbEntity
  8
Layer 1
370
     0
100
AcDbVertex
100
AcDb2dVertex
 10
3.407831711090567
 20
-6.018170056376776
 30
0.0
  0
VERTEX
  5
AB
330
A9
100
AcDbEntity
  8
Layer 1
370
     0
100
AcDbVertex
100
AcDb2dVertex
 10
3.406098929996422
 20
-6.013314028241464
 30
0.0
  0
VERTEX
  5
AC
330
A9
100
AcDbEntity
  8
Layer 1
370
     0
100
AcDbVertex
100
AcDb2dVertex
 10
3.401869974739636
 20
-6.010048402333723
 30
0.0
  0
VERTEX
  5
AD
330
A9
100
AcDbEntity
  8
Layer 1
370
     0
100
AcDbVertex
100
AcDb2dVertex
 10
3.407831711090567
 20
-6.018170056376776
 30
0.0
  0
SEQEND
  5
AF
330
A9
100
AcDbEntity
  8
Layer 1
370
     0
  0
HATCH
  5
AE
330
96
100
AcDbEntity
  8
Layer 1
 62
     7
420
 16776959
100
AcDbHatch
 10
0.0
 20
0.0
 30
0.0
210
0.0
220
0.0
230
1.0
  2
SOLID
 70
     1
 71
     0
 91
        1
 92
        1
 93
        3
 72
     1
 10
3.407831711090567
 20
-6.018170056376776
 11
3.406098929996422
 21
-6.013314028241464
 72
     1
 10
3.406098929996422
 20
-6.013314028241464
 11
3.401869974739636
 21
-6.010048402333723
 72
     1
 10
3.401869974739636
 20
-6.010048402333723
 11
3.407831711090567
 21
-6.018170056376776
 97
        0
 75
     2
 76
     1
 98
        0
  0
POLYLINE
  5
B0
330
96
100
AcDbEntity
  8
Layer 1
370
     0
100
AcDb2dPolyline
 66
     1
 10
0.0
 20
0.0
 30
0.0
  0
VERTEX
  5
B1
330
B0
100
AcDbEntity
  8
Layer 1
370
     0
100
AcDbVertex
100
AcDb2dVertex
 10
3.172354345960811
 20
-4.960364755994684
 30
0.0
  0
VERTEX
  5
B2
330
B0
100
AcDbEntity
  8
Layer 1
370
     0
100
AcDbVertex
100
AcDb2dVertex
 10
3.167707342118206
 20
-4.947759682338098
 30
0.0
  0
VERTEX
  5
B3
330
B0
100
AcDbEntity
  8
Layer 1
370
     0
100
AcDbVertex
100
AcDb2dVertex
 10
3.185404732241093
 20
-4.962373206808049
 30
0.0
  0
VERTEX
  5
B4
330
B0
100
AcDbEntity
  8
Layer 1
370
     0
100
AcDbVertex
100
AcDb2dVertex
 10
3.172354345960811
 20
-4.960364755994684
 30
0.0
  0
VERTEX
  5
B5
330
B0
100
AcDbEntity
  8
Layer 1
370
     0
100
AcDbVertex
100
AcDb2dVertex
 10
3.374169711938521
 20
-6.030402521511405
 30
0.0
  0
VERTEX
  5
B6
330
B0
100
AcDbEntity
  8
Layer 1
370
     0
100
AcDbVertex
100
AcDb2dVertex
 10
3.376017607860363
 20
-6.035419104538303
 30
0.0
  0
VERTEX
  5
B7
330
B0
100
AcDbEntity
  8
Layer 1
370
     0
100
AcDbVertex
100
AcDb2dVertex
 10
3.380143565639577
 20
-6.038527204892034
 30
0.0
  0
VERTEX
  5
B8
330
B0
100
AcDbEntity
  8
Layer 1
370
     0
100
AcDbVertex
100
AcDb2dVertex
 10
4.033328437299234
 20
-6.46536692811896
 30
0.0
  0
VERTEX
  5
B9
330
B0
100
AcDbEntity
  8
Layer 1
370
     0
100
AcDbVertex
100
AcDb2dVertex
 10
4.033328437299234
 20
-6.44392527675129
 30
0.0
  0
VERTEX
  5
BA
330
B0
100
AcDbEntity
  8
Layer 1
370
     0
100
AcDbVertex
100
AcDb2dVertex
 10
4.034249355922459
 20
-6.443928306088916
 30
0.0
  0
VERTEX
  5
BB
330
B0
100
AcDbEntity
  8
Layer 1
370
     0
100
AcDbVertex
100
AcDb2dVertex
 10
4.034837047412617
 20
-6.443479964127542
 30
0.0
  0
VERTEX
  5
BC
330
B0
100
AcDbEntity
  8
Layer 1
370
     0
100
AcDbVertex
100
AcDb2dVertex
 10
4.033328437299234
 20
-6.44233184518594
 30
0.0
  0
VERTEX
  5
BD
330
B0
100
AcDbEntity
  8
Layer 1
370
     0
100
AcDbVertex
100
AcDb2dVertex
 10
4.033328437299234
 20
-6.432419852635197
 30
0.0
  0
VERTEX
  5
BE
330
B0
100
AcDbEntity
  8
Layer 1
370
     0
100
AcDbVertex
100
AcDb2dVertex
 10
4.034837047412617
 20
-6.431353525808163
 30
0.0
  0
VERTEX
  5
BF
330
B0
100
AcDbEntity
  8
Layer 1
370
     0
100
AcDbVertex
100
AcDb2dVertex
 10
3.406098929996422
 20
-6.013314028241464
 30
0.0
  0
VERTEX
  5
C0
330
B0
100
AcDbEntity
  8
Layer 1
370
     0
100
AcDbVertex
100
AcDb2dVertex
 10
3.407831711090567
 20
-6.018170056376776
 30
0.0
  0
VERTEX
  5
C1
330
B0
100
AcDbEntity
  8
Layer 1
370
     0
100
AcDbVertex
100
AcDb2dVertex
 10
3.401869974739636
 20
-6.010048402333723
 30
0.0
  0
VERTEX
  5
C2
330
B0
100
AcDbEntity
  8
Layer 1
370
     0
100
AcDbVertex
100
AcDb2dVertex
 10
3.406098929996422
 20
-6.013314028241464
 30
0.0
  0
VERTEX
  5
C3
330
B0
100
AcDbEntity
  8
Layer 1
370
     0
100
AcDbVertex
100
AcDb2dVertex
 10
3.210227124344151
 20
-4.932313090034793
 30
0.0
  0
VERTEX
  5
C4
330
B0
100
AcDbEntity
  8
Layer 1
370
     0
100
AcDbVertex
100
AcDb2dVertex
 10
3.205773998106603
 20
-4.91987765928262
 30
0.0
  0
VERTEX
  5
C5
330
B0
100
AcDbEntity
  8
Layer 1
370
     0
100
AcDbVertex
100
AcDb2dVertex
 10
3.192517616871138
 20
-4.917696536227317
 30
0.0
  0
VERTEX
  5
C6
330
B0
100
AcDbEntity
  8
Layer 1
370
     0
100
AcDbVertex
100
AcDb2dVertex
 10
2.487760405686104
 20
-4.76492098356112
 30
0.0
  0
VERTEX
  5
C7
330
B0
100
AcDbEntity
  8
Layer 1
370
     0
100
AcDbVertex
100
AcDb2dVertex
 10
2.541076747035251
 20
-4.829718514325855
 30
0.0
  0
VERTEX
  5
C8
330
B0
100
AcDbEntity
  8
Layer 1
370
     0
100
AcDbVertex
100
AcDb2dVertex
 10
3.172354345960811
 20
-4.960364755994684
 30
0.0
  0
SEQEND
  5
CA
330
B0
100
AcDbEntity
  8
Layer 1
370
     0
  0
HATCH
  5
C9
330
96
100
AcDbEntity
  8
Layer 1
 62
     7
420
 16776959
100
AcDbHatch
 10
0.0
 20
0.0
 30
0.0
210
0.0
220
0.0
230
1.0
  2
SOLID
 70
     1
 71
     0
 91
        1
 92
        1
 93
       23
 72
     1
 10
3.172354345960811
 20
-4.960364755994684
 11
3.167707342118206
 21
-4.947759682338098
 72
     1
 10
3.167707342118206
 20
-4.947759682338098
 11
3.185404732241093
 21
-4.962373206808049
 72
     1
 10
3.185404732241093
 20
-4.962373206808049
 11
3.172354345960811
 21
-4.960364755994684
 72
     1
 10
3.172354345960811
 20
-4.960364755994684
 11
3.374169711938521
 21
-6.030402521511405
 72
     1
 10
3.374169711938521
 20
-6.030402521511405
 11
3.376017607860363
 21
-6.035419104538303
 72
     1
 10
3.376017607860363
 20
-6.035419104538303
 11
3.380143565639577
 21
-6.038527204892034
 72
     1
 10
3.380143565639577
 20
-6.038527204892034
 11
4.033328437299234
 21
-6.46536692811896
 72
     1
 10
4.033328437299234
 20
-6.46536692811896
 11
4.033328437299234
 21
-6.44392527675129
 72
     1
 10
4.033328437299234
 20
-6.44392527675129
 11
4.034249355922459
 21
-6.443928306088916
 72
     1
 10
4.034249355922459
 20
-6.443928306088916
 11
4.034837047412617
 21
-6.443479964127542
 72
     1
 10
4.034837047412617
 20
-6.443479964127542
 11
4.033328437299234
 21
-6.44233184518594
 72
     1
 10
4.033328437299234
 20
-6.44233184518594
 11
4.033328437299234
 21
-6.432419852635197
 72
     1
 10
4.033328437299234
 20
-6.432419852635197
 11
4.034837047412617
 21
-6.431353525808163
 72
     1
 10
4.034837047412617
 20
-6.431353525808163
 11
3.406098929996422
 21
-6.013314028241464
 72
     1
 10
3.406098929996422
 20
-6.013314028241464
 11
3.407831711090567
 21
-6.018170056376776
 72
     1
 10
3.407831711090567
 20
-6.018170056376776
 11
3.401869974739636
 21
-6.010048402333723
 72
     1
 10
3.401869974739636
 20
-6.010048402333723
 11
3.406098929996422
 21
-6.013314028241464
 72
     1
 10
3.406098929996422
 20
-6.013314028241464
 11
3.210227124344151
 21
-4.932313090034793
 72
     1
 10
3.210227124344151
 20
-4.932313090034793
 11
3.205773998106603
 21
-4.91987765928262
 72
     1
 10
3.205773998106603
 20
-4.91987765928262
 11
3.192517616871138
 21
-4.917696536227317
 72
     1
 10
3.192517616871138
 20
-4.917696536227317
 11
2.487760405686104
 21
-4.76492098356112
 72
     1
 10
2.487760405686104
 20
-4.76492098356112
 11
2.541076747035251
 21
-4.829718514325855
 72
     1
 10
2.541076747035251
 20
-4.829718514325855
 11
3.172354345960811
 21
-4.960364755994684
 97
        0
 75
     2
 76
     1
 98
        0
  0
POLYLINE
  5
CB
330
96
100
AcDbEntity
  8
Layer 1
370
     0
100
AcDb2dPolyline
 66
     1
 10
0.0
 20
0.0
 30
0.0
  0
VERTEX
  5
CC
330
CB
100
AcDbEntity
  8
Layer 1
370
     0
100
AcDbVertex
100
AcDb2dVertex
 10
4.035430797577495
 20
-6.443931335426491
 30
0.0
  0
VERTEX
  5
CD
330
CB
100
AcDbEntity
  8
Layer 1
370
     0
100
AcDbVertex
100
AcDb2dVertex
 10
4.035424738902444
 20
-6.443928306088916
 30
0.0
  0
VERTEX
  5
CE
330
CB
100
AcDbEntity
  8
Layer 1
370
     0
100
AcDbVertex
100
AcDb2dVertex
 10
4.034837047412617
 20
-6.443928306088916
 30
0.0
  0
VERTEX
  5
CF
330
CB
100
AcDbEntity
  8
Layer 1
370
     0
100
AcDbVertex
100
AcDb2dVertex
 10
4.035430797577495
 20
-6.443931335426491
 30
0.0
  0
SEQEND
  5
D1
330
CB
100
AcDbEntity
  8
Layer 1
370
     0
  0
HATCH
  5
D0
330
96
100
AcDbEntity
  8
Layer 1
 62
     7
420
 16776959
100
AcDbHatch
 10
0.0
 20
0.0
 30
0.0
210
0.0
220
0.0
230
1.0
  2
SOLID
 70
     1
 71
     0
 91
        1
 92
        1
 93
        3
 72
     1
 10
4.035430797577495
 20
-6.443931335426491
 11
4.035424738902444
 21
-6.443928306088916
 72
     1
 10
4.035424738902444
 20
-6.443928306088916
 11
4.034837047412617
 21
-6.443928306088916
 72
     1
 10
4.034837047412617
 20
-6.443928306088916
 11
4.035430797577495
 21
-6.443931335426491
 97
        0
 75
     2
 76
     1
 98
        0
  0
POLYLINE
  5
D2
330
96
100
AcDbEntity
  8
Layer 1
370
     0
100
AcDb2dPolyline
 66
     1
 10
0.0
 20
0.0
 30
0.0
  0
VERTEX
  5
D3
330
D2
100
AcDbEntity
  8
Layer 1
370
     0
100
AcDbVertex
100
AcDb2dVertex
 10
4.034843106087666
 20
-6.466445372296246
 30
0.0
  0
VERTEX
  5
D4
330
D2
100
AcDbEntity
  8
Layer 1
370
     0
100
AcDbVertex
100
AcDb2dVertex
 10
4.03634565752567
 20
-6.467584403225045
 30
0.0
  0
VERTEX
  5
D5
330
D2
100
AcDbEntity
  8
Layer 1
370
     0
100
AcDbVertex
100
AcDb2dVertex
 10
4.03634565752567
 20
-6.465369957456535
 30
0.0
  0
VERTEX
  5
D6
330
D2
100
AcDbEntity
  8
Layer 1
370
     0
100
AcDbVertex
100
AcDb2dVertex
 10
4.035376269501183
 20
-6.466042470398507
 30
0.0
  0
VERTEX
  5
D7
330
D2
100
AcDbEntity
  8
Layer 1
370
     0
100
AcDbVertex
100
AcDb2dVertex
 10
4.034843106087666
 20
-6.466445372296246
 30
0.0
  0
SEQEND
  5
D9
330
D2
100
AcDbEntity
  8
Layer 1
370
     0
  0
HATCH
  5
D8
330
96
100
AcDbEntity
  8
Layer 1
 62
     7
420
 16776959
100
AcDbHatch
 10
0.0
 20
0.0
 30
0.0
210
0.0
220
0.0
230
1.0
  2
SOLID
 70
     1
 71
     0
 91
        1
 92
        1
 93
        4
 72
     1
 10
4.034843106087666
 20
-6.466445372296246
 11
4.03634565752567
 21
-6.467584403225045
 72
     1
 10
4.03634565752567
 20
-6.467584403225045
 11
4.03634565752567
 21
-6.465369957456535
 72
     1
 10
4.03634565752567
 20
-6.465369957456535
 11
4.035376269501183
 21
-6.466042470398507
 72
     1
 10
4.035376269501183
 20
-6.466042470398507
 11
4.034843106087666
 21
-6.466445372296246
 97
        0
 75
     2
 76
     1
 98
        0
  0
SPLINE
  5
DB
330
96
100
AcDbEntity
  8
Layer 1
370
     0
100
AcDbSpline
210
0.0
220
0.0
230
1.0
 70
    11
 71
     3
 72
    17
 73
    13
 74
     0
 42
0.0000000001
 43
0.0000000001
 12
1.0
 22
0.0
 32
0.0
 13
1.0
 23
0.0
 33
0.0
 40
0.0
 40
0.0
 40
0.0
 40
0.0
 40
1.0
 40
1.0
 40
1.0
 40
2.0
 40
2.0
 40
2.0
 40
3.0
 40
3.0
 40
3.0
 40
4.0
 40
4.0
 40
4.0
 40
4.0
 10
3.384395858976909
 20
-4.739526046655909
 30
0.0
 10
3.384395858976909
 20
-4.739526046655909
 30
0.0
 10
3.372169452517659
 20
-4.697730276110733
 30
0.0
 10
3.372169452517659
 20
-4.697730276110733
 30
0.0
 10
3.372169452517659
 20
-4.697730276110733
 30
0.0
 10
3.384395858976909
 20
-4.739526046655909
 30
0.0
 10
3.384395858976909
 20
-4.739526046655909
 30
0.0
 10
3.384395858976909
 20
-4.739526046655909
 30
0.0
 10
3.425594850019454
 20
-4.74533328679038
 30
0.0
 10
3.425594850019454
 20
-4.74533328679038
 30
0.0
 10
3.425594850019454
 20
-4.74533328679038
 30
0.0
 10
3.384395858976909
 20
-4.739526046655909
 30
0.0
 10
3.384395858976909
 20
-4.739526046655909
 30
0.0
  0
POLYLINE
  5
DC
330
96
100
AcDbEntity
  8
Layer 1
370
     0
100
AcDb2dPolyline
 66
     1
 10
0.0
 20
0.0
 30
0.0
  0
VERTEX
  5
DD
330
DC
100
AcDbEntity
  8
Layer 1
370
     0
100
AcDbVertex
100
AcDb2dVertex
 10
3.425594850019454
 20
-4.74533328679038
 30
0.0
  0
VERTEX
  5
DE
330
DC
100
AcDbEntity
  8
Layer 1
370
     0
100
AcDbVertex
100
AcDb2dVertex
 10
3.372169452517659
 20
-4.697730276110733
 30
0.0
  0
VERTEX
  5
DF
330
DC
100
AcDbEntity
  8
Layer 1
370
     0
100
AcDbVertex
100
AcDb2dVertex
 10
3.384395858976909
 20
-4.739526046655909
 30
0.0
  0
VERTEX
  5
E0
330
DC
100
AcDbEntity
  8
Layer 1
370
     0
100
AcDbVertex
100
AcDb2dVertex
 10
3.425594850019454
 20
-4.74533328679038
 30
0.0
  0
SEQEND
  5
E2
330
DC
100
AcDbEntity
  8
Layer 1
370
     0
  0
HATCH
  5
E1
330
96
100
AcDbEntity
  8
Layer 1
 62
     7
420
 16776959
100
AcDbHatch
 10
0.0
 20
0.0
 30
0.0
210
0.0
220
0.0
230
1.0
  2
SOLID
 70
     1
 71
     0
 91
        1
 92
        1
 93
        3
 72
     1
 10
3.425594850019454
 20
-4.74533328679038
 11
3.372169452517659
 21
-4.697730276110733
 72
     1
 10
3.372169452517659
 20
-4.697730276110733
 11
3.384395858976909
 21
-4.739526046655909
 72
     1
 10
3.384395858976909
 20
-4.739526046655909
 11
3.425594850019454
 21
-4.74533328679038
 97
        0
 75
     2
 76
     1
 98
        0
  0
POLYLINE
  5
E3
330
96
100
AcDbEntity
  8
Layer 1
370
     0
100
AcDb2dPolyline
 66
     1
 10
0.0
 20
0.0
 30
0.0
  0
VERTEX
  5
E4
330
E3
100
AcDbEntity
  8
Layer 1
370
     0
100
AcDbVertex
100
AcDb2dVertex
 10
4.036272953423778
 20
-6.179673130601436
 30
0.0
  0
VERTEX
  5
E5
330
E3
100
AcDbEntity
  8
Layer 1
370
     0
100
AcDbVertex
100
AcDb2dVertex
 10
4.034837047412617
 20
-6.179703423977116
 30
0.0
  0
VERTEX
  5
E6
330
E3
100
AcDbEntity
  8
Layer 1
370
     0
100
AcDbVertex
100
AcDb2dVertex
 10
4.036272953423778
 20
-6.17967615993896
 30
0.0
  0
VERTEX
  5
E7
330
E3
100
AcDbEntity
  8
Layer 1
370
     0
100
AcDbVertex
100
AcDb2dVertex
 10
4.036272953423778
 20
-6.179673130601436
 30
0.0
  0
SEQEND
  5
E8
330
E3
100
AcDbEntity
  8
Layer 1
370
     0
  0
POLYLINE
  5
E9
330
96
100
AcDbEntity
  8
Layer 1
370
     0
100
AcDb2dPolyline
 66
     1
 10
0.0
 20
0.0
 30
0.0
  0
VERTEX
  5
EA
330
E9
100
AcDbEntity
  8
Layer 1
370
     0
100
AcDbVertex
100
AcDb2dVertex
 10
4.034837047412617
 20
-6.179703423977116
 30
0.0
  0
VERTEX
  5
EB
330
E9
100
AcDbEntity
  8
Layer 1
370
     0
100
AcDbVertex
100
AcDb2dVertex
 10
4.036272953423778
 20
-6.179673130601436
 30
0.0
  0
VERTEX
  5
EC
330
E9
100
AcDbEntity
  8
Layer 1
370
     0
100
AcDbVertex
100
AcDb2dVertex
 10
4.034837047412617
 20
-6.178509864972057
 30
0.0
  0
VERTEX
  5
ED
330
E9
100
AcDbEntity
  8
Layer 1
370
     0
100
AcDbVertex
100
AcDb2dVertex
 10
4.0334011414011
 20
-6.17967615993896
 30
0.0
  0
VERTEX
  5
EE
330
E9
100
AcDbEntity
  8
Layer 1
370
     0
100
AcDbVertex
100
AcDb2dVertex
 10
4.034837047412617
 20
-6.179703423977116
 30
0.0
  0
SEQEND
  5
F0
330
E9
100
AcDbEntity
  8
Layer 1
370
     0
  0
HATCH
  5
EF
330
96
100
AcDbEntity
  8
Layer 1
 62
     7
420
 16776959
100
AcDbHatch
 10
0.0
 20
0.0
 30
0.0
210
0.0
220
0.0
230
1.0
  2
SOLID
 70
     1
 71
     0
 91
        1
 92
        1
 93
        4
 72
     1
 10
4.034837047412617
 20
-6.179703423977116
 11
4.036272953423778
 21
-6.179673130601436
 72
     1
 10
4.036272953423778
 20
-6.179673130601436
 11
4.034837047412617
 21
-6.178509864972057
 72
     1
 10
4.034837047412617
 20
-6.178509864972057
 11
4.0334011414011
 21
-6.17967615993896
 72
     1
 10
4.0334011414011
 20
-6.17967615993896
 11
4.034837047412617
 21
-6.179703423977116
 97
        0
 75
     2
 76
     1
 98
        0
  0
SPLINE
  5
F1
330
96
100
AcDbEntity
  8
Layer 1
370
     0
100
AcDbSpline
210
0.0
220
0.0
230
1.0
 70
    11
 71
     3
 72
    17
 73
    13
 74
     0
 42
0.0000000001
 43
0.0000000001
 12
1.0
 22
0.0
 32
0.0
 13
1.0
 23
0.0
 33
0.0
 40
0.0
 40
0.0
 40
0.0
 40
0.0
 40
1.0
 40
1.0
 40
1.0
 40
2.0
 40
2.0
 40
2.0
 40
3.0
 40
3.0
 40
3.0
 40
4.0
 40
4.0
 40
4.0
 40
4.0
 10
4.663575164828418
 20
-6.013314028241464
 30
0.0
 10
4.663575164828418
 20
-6.013314028241464
 30
0.0
 10
4.667810178760647
 20
-6.010048402333723
 30
0.0
 10
4.667810178760647
 20
-6.010048402333723
 30
0.0
 10
4.667810178760647
 20
-6.010048402333723
 30
0.0
 10
4.663575164828418
 20
-6.013314028241464
 30
0.0
 10
4.663575164828418
 20
-6.013314028241464
 30
0.0
 10
4.663575164828418
 20
-6.013314028241464
 30
0.0
 10
4.66184238373464
 20
-6.018170056376776
 30
0.0
 10
4.66184238373464
 20
-6.018170056376776
 30
0.0
 10
4.66184238373464
 20
-6.018170056376776
 30
0.0
 10
4.663575164828418
 20
-6.013314028241464
 30
0.0
 10
4.663575164828418
 20
-6.013314028241464
 30
0.0
  0
POLYLINE
  5
F2
330
96
100
AcDbEntity
  8
Layer 1
370
     0
100
AcDb2dPolyline
 66
     1
 10
0.0
 20
0.0
 30
0.0
  0
VERTEX
  5
F3
330
F2
100
AcDbEntity
  8
Layer 1
370
     0
100
AcDbVertex
100
AcDb2dVertex
 10
4.66184238373464
 20
-6.018170056376776
 30
0.0
  0
VERTEX
  5
F4
330
F2
100
AcDbEntity
  8
Layer 1
370
     0
100
AcDbVertex
100
AcDb2dVertex
 10
4.667810178760647
 20
-6.010048402333723
 30
0.0
  0
VERTEX
  5
F5
330
F2
100
AcDbEntity
  8
Layer 1
370
     0
100
AcDbVertex
100
AcDb2dVertex
 10
4.663575164828418
 20
-6.013314028241464
 30
0.0
  0
VERTEX
  5
F6
330
F2
100
AcDbEntity
  8
Layer 1
370
     0
100
AcDbVertex
100
AcDb2dVertex
 10
4.66184238373464
 20
-6.018170056376776
 30
0.0
  0
SEQEND
  5
F7
330
F2
100
AcDbEntity
  8
Layer 1
370
     0
  0
SPLINE
  5
F8
330
96
100
AcDbEntity
  8
Layer 1
370
     0
100
AcDbSpline
210
0.0
220
0.0
230
1.0
 70
    11
 71
     3
 72
    20
 73
    16
 74
     0
 42
0.0000000001
 43
0.0000000001
 12
1.0
 22
0.0
 32
0.0
 13
1.0
 23
0.0
 33
0.0
 40
0.0
 40
0.0
 40
0.0
 40
0.0
 40
1.0
 40
1.0
 40
1.0
 40
2.0
 40
2.0
 40
2.0
 40
3.0
 40
3.0
 40
3.0
 40
4.0
 40
4.0
 40
4.0
 40
5.0
 40
5.0
 40
5.0
 40
5.0
 10
3.63146952834994
 20
-5.884103692584049
 30
0.0
 10
3.63146952834994
 20
-5.884103692584049
 30
0.0
 10
3.644883435139301
 20
-5.894866928993957
 30
0.0
 10
3.644883435139301
 20
-5.894866928993957
 30
0.0
 10
3.644883435139301
 20
-5.894866928993957
 30
0.0
 10
3.648833691339443
 20
-5.910004528864369
 30
0.0
 10
3.648833691339443
 20
-5.910004528864369
 30
0.0
 10
3.648833691339443
 20
-5.910004528864369
 30
0.0
 10
3.644883435139301
 20
-5.894866928993957
 30
0.0
 10
3.644883435139301
 20
-5.894866928993957
 30
0.0
 10
3.644883435139301
 20
-5.894866928993957
 30
0.0
 10
3.63146952834994
 20
-5.884097633908848
 30
0.0
 10
3.63146952834994
 20
-5.884097633908848
 30
0.0
 10
3.63146952834994
 20
-5.884097633908848
 30
0.0
 10
3.63146952834994
 20
-5.884103692584049
 30
0.0
 10
3.63146952834994
 20
-5.884103692584049
 30
0.0
  0
POLYLINE
  5
F9
330
96
100
AcDbEntity
  8
Layer 1
370
     0
100
AcDb2dPolyline
 66
     1
 10
0.0
 20
0.0
 30
0.0
  0
VERTEX
  5
FA
330
F9
100
AcDbEntity
  8
Layer 1
370
     0
100
AcDbVertex
100
AcDb2dVertex
 10
3.63146952834994
 20
-5.884103692584049
 30
0.0
  0
VERTEX
  5
FB
330
F9
100
AcDbEntity
  8
Layer 1
370
     0
100
AcDbVertex
100
AcDb2dVertex
 10
3.648833691339443
 20
-5.910004528864369
 30
0.0
  0
VERTEX
  5
FC
330
F9
100
AcDbEntity
  8
Layer 1
370
     0
100
AcDbVertex
100
AcDb2dVertex
 10
3.644883435139301
 20
-5.894866928993957
 30
0.0
  0
VERTEX
  5
FD
330
F9
100
AcDbEntity
  8
Layer 1
370
     0
100
AcDbVertex
100
AcDb2dVertex
 10
3.63146952834994
 20
-5.884103692584049
 30
0.0
  0
SEQEND
  5
FF
330
F9
100
AcDbEntity
  8
Layer 1
370
     0
  0
HATCH
  5
FE
330
96
100
AcDbEntity
  8
Layer 1
 62
     7
420
 16776959
100
AcDbHatch
 10
0.0
 20
0.0
 30
0.0
210
0.0
220
0.0
230
1.0
  2
SOLID
 70
     1
 71
     0
 91
        1
 92
        1
 93
        3
 72
     1
 10
3.63146952834994
 20
-5.884103692584049
 11
3.648833691339443
 21
-5.910004528864369
 72
     1
 10
3.648833691339443
 20
-5.910004528864369
 11
3.644883435139301
 21
-5.894866928993957
 72
     1
 10
3.644883435139301
 20
-5.894866928993957
 11
3.63146952834994
 21
-5.884103692584049
 97
        0
 75
     2
 76
     1
 98
        0
  0
SPLINE
  5
100
330
96
100
AcDbEntity
  8
Layer 1
370
     0
100
AcDbSpline
210
0.0
220
0.0
230
1.0
 70
    27
 71
     3
 72
    14
 73
    10
 74
     0
 42
0.0000000001
 43
0.0000000001
 12
1.0
 22
0.0
 32
0.0
 13
1.0
 23
0.0
 33
0.0
 40
0.0
 40
0.0
 40
0.0
 40
0.0
 40
1.0
 40
1.0
 40
1.0
 40
2.0
 40
2.0
 40
2.0
 40
3.0
 40
3.0
 40
3.0
 40
3.0
 10
4.884269362583709
 20
-4.962373206808049
 30
0.0
 10
4.884269362583709
 20
-4.962373206808049
 30
0.0
 10
4.884269362583709
 20
-4.962373206808049
 30
0.0
 10
4.884269362583709
 20
-4.962373206808049
 30
0.0
 10
4.884269362583709
 20
-4.962373206808049
 30
0.0
 10
4.8931210869829
 20
-4.955066444573074
 30
0.0
 10
4.8931210869829
 20
-4.955066444573074
 30
0.0
 10
4.8931210869829
 20
-4.955066444573074
 30
0.0
 10
4.884269362583709
 20
-4.962373206808049
 30
0.0
 10
4.884269362583709
 20
-4.962373206808049
 30
0.0
  0
POLYLINE
  5
101
330
96
100
AcDbEntity
  8
Layer 1
370
     0
100
AcDb2dPolyline
 66
     1
 10
0.0
 20
0.0
 30
0.0
  0
VERTEX
  5
102
330
101
100
AcDbEntity
  8
Layer 1
370
     0
100
AcDbVertex
100
AcDb2dVertex
 10
4.901972811382089
 20
-4.947759682338098
 30
0.0
  0
VERTEX
  5
103
330
101
100
AcDbEntity
  8
Layer 1
370
     0
100
AcDbVertex
100
AcDb2dVertex
 10
4.901972811382089
 20
-4.947762711675775
 30
0.0
  0
VERTEX
  5
104
330
101
100
AcDbEntity
  8
Layer 1
370
     0
100
AcDbVertex
100
AcDb2dVertex
 10
4.899646280123104
 20
-4.954060704497603
 30
0.0
  0
VERTEX
  5
105
330
101
100
AcDbEntity
  8
Layer 1
370
     0
100
AcDbVertex
100
AcDb2dVertex
 10
4.901972811382089
 20
-4.947759682338098
 30
0.0
  0
SEQEND
  5
106
330
101
100
AcDbEntity
  8
Layer 1
370
     0
  0
POLYLINE
  5
107
330
96
100
AcDbEntity
  8
Layer 1
370
     0
100
AcDb2dPolyline
 66
     1
 10
0.0
 20
0.0
 30
0.0
  0
VERTEX
  5
108
330
107
100
AcDbEntity
  8
Layer 1
370
     0
100
AcDbVertex
100
AcDb2dVertex
 10
4.899646280123104
 20
-4.954060704497603
 30
0.0
  0
VERTEX
  5
109
330
107
100
AcDbEntity
  8
Layer 1
370
     0
100
AcDbVertex
100
AcDb2dVertex
 10
4.901972811382089
 20
-4.947762711675775
 30
0.0
  0
VERTEX
  5
10A
330
107
100
AcDbEntity
  8
Layer 1
370
     0
100
AcDbVertex
100
AcDb2dVertex
 10
4.8931210869829
 20
-4.955066444573074
 30
0.0
  0
VERTEX
  5
10B
330
107
100
AcDbEntity
  8
Layer 1
370
     0
100
AcDbVertex
100
AcDb2dVertex
 10
4.884269362583709
 20
-4.962373206808049
 30
0.0
  0
VERTEX
  5
10C
330
107
100
AcDbEntity
  8
Layer 1
370
     0
100
AcDbVertex
100
AcDb2dVertex
 10
4.897319748864068
 20
-4.960364755994684
 30
0.0
  0
VERTEX
  5
10D
330
107
100
AcDbEntity
  8
Layer 1
370
     0
100
AcDbVertex
100
AcDb2dVertex
 10
4.899646280123104
 20
-4.954060704497603
 30
0.0
  0
SEQEND
  5
10E
330
107
100
AcDbEntity
  8
Layer 1
370
     0
  0
SPLINE
  5
10F
330
96
100
AcDbEntity
  8
Layer 1
370
     0
100
AcDbSpline
210
0.0
220
0.0
230
1.0
 70
    11
 71
     3
 72
   107
 73
   103
 74
     0
 42
0.0000000001
 43
0.0000000001
 12
1.0
 22
0.0
 32
0.0
 13
1.0
 23
0.0
 33
0.0
 40
0.0
 40
0.0
 40
0.0
 40
0.0
 40
1.0
 40
1.0
 40
1.0
 40
2.0
 40
2.0
 40
2.0
 40
3.0
 40
3.0
 40
3.0
 40
4.0
 40
4.0
 40
4.0
 40
5.0
 40
5.0
 40
5.0
 40
6.0
 40
6.0
 40
6.0
 40
7.0
 40
7.0
 40
7.0
 40
8.0
 40
8.0
 40
8.0
 40
9.0
 40
9.0
 40
9.0
 40
10.0
 40
10.0
 40
10.0
 40
11.0
 40
11.0
 40
11.0
 40
12.0
 40
12.0
 40
12.0
 40
13.0
 40
13.0
 40
13.0
 40
14.0
 40
14.0
 40
14.0
 40
15.0
 40
15.0
 40
15.0
 40
16.0
 40
16.0
 40
16.0
 40
17.0
 40
17.0
 40
17.0
 40
18.0
 40
18.0
 40
18.0
 40
19.0
 40
19.0
 40
19.0
 40
20.0
 40
20.0
 40
20.0
 40
21.0
 40
21.0
 40
21.0
 40
22.0
 40
22.0
 40
22.0
 40
23.0
 40
23.0
 40
23.0
 40
24.0
 40
24.0
 40
24.0
 40
25.0
 40
25.0
 40
25.0
 40
26.0
 40
26.0
 40
26.0
 40
27.0
 40
27.0
 40
27.0
 40
28.0
 40
28.0
 40
28.0
 40
29.0
 40
29.0
 40
29.0
 40
30.0
 40
30.0
 40
30.0
 40
31.0
 40
31.0
 40
31.0
 40
32.0
 40
32.0
 40
32.0
 40
33.0
 40
33.0
 40
33.0
 40
34.0
 40
34.0
 40
34.0
 40
34.0
 10
4.034837047412617
 20
-6.244646362945685
 30
0.0
 10
4.034837047412617
 20
-6.244646362945685
 30
0.0
 10
4.03634565752567
 20
-6.245776305861884
 30
0.0
 10
4.03634565752567
 20
-6.245776305861884
 30
0.0
 10
4.03634565752567
 20
-6.245776305861884
 30
0.0
 10
4.03634565752567
 20
-6.243516420029588
 30
0.0
 10
4.03634565752567
 20
-6.243516420029588
 30
0.0
 10
4.03634565752567
 20
-6.243516420029588
 30
0.0
 10
4.498900374160964
 20
-5.962333306163777
 30
0.0
 10
4.498900374160964
 20
-5.962333306163777
 30
0.0
 10
4.498900374160964
 20
-5.962333306163777
 30
0.0
 10
4.511429714377906
 20
-5.952939330338469
 30
0.0
 10
4.511429714377906
 20
-5.952939330338469
 30
0.0
 10
4.511429714377906
 20
-5.952939330338469
 30
0.0
 10
4.516264537150517
 20
-5.936423381870554
 30
0.0
 10
4.516264537150517
 20
-5.936423381870554
 30
0.0
 10
4.516264537150517
 20
-5.936423381870554
 30
0.0
 10
4.685278235847918
 20
-4.739526046655909
 30
0.0
 10
4.685278235847918
 20
-4.739526046655909
 30
0.0
 10
4.685278235847918
 20
-4.739526046655909
 30
0.0
 10
5.769974965898099
 20
-4.527593589792584
 30
0.0
 10
5.769974965898099
 20
-4.527593589792584
 30
0.0
 10
5.769974965898099
 20
-4.527593589792584
 30
0.0
 10
5.937345867008641
 20
-4.324206894233081
 30
0.0
 10
5.937345867008641
 20
-4.324206894233081
 30
0.0
 10
5.937345867008641
 20
-4.324206894233081
 30
0.0
 10
4.62369786158941
 20
-4.614896069414398
 30
0.0
 10
4.62369786158941
 20
-4.614896069414398
 30
0.0
 10
4.62369786158941
 20
-4.614896069414398
 30
0.0
 10
4.580790324153768
 20
-4.62226038906331
 30
0.0
 10
4.580790324153768
 20
-4.62226038906331
 30
0.0
 10
4.580790324153768
 20
-4.62226038906331
 30
0.0
 10
4.570272464087616
 20
-4.662505138769246
 30
0.0
 10
4.570272464087616
 20
-4.662505138769246
 30
0.0
 10
4.570272464087616
 20
-4.662505138769246
 30
0.0
 10
4.424796718360565
 20
-5.894866928993957
 30
0.0
 10
4.424796718360565
 20
-5.894866928993957
 30
0.0
 10
4.424796718360565
 20
-5.894866928993957
 30
0.0
 10
4.034837047412617
 20
-6.137980357533706
 30
0.0
 10
4.034837047412617
 20
-6.137980357533706
 30
0.0
 10
4.034837047412617
 20
-6.137980357533706
 30
0.0
 10
3.644883435139301
 20
-5.894866928993957
 30
0.0
 10
3.644883435139301
 20
-5.894866928993957
 30
0.0
 10
3.644883435139301
 20
-5.894866928993957
 30
0.0
 10
3.648833691339443
 20
-5.910004528864369
 30
0.0
 10
3.648833691339443
 20
-5.910004528864369
 30
0.0
 10
3.648833691339443
 20
-5.910004528864369
 30
0.0
 10
3.63146952834994
 20
-5.884097633908848
 30
0.0
 10
3.63146952834994
 20
-5.884097633908848
 30
0.0
 10
3.63146952834994
 20
-5.884097633908848
 30
0.0
 10
3.63146952834994
 20
-5.884103692584049
 30
0.0
 10
3.63146952834994
 20
-5.884103692584049
 30
0.0
 10
3.63146952834994
 20
-5.884103692584049
 30
0.0
 10
3.63146952834994
 20
-5.884097633908848
 30
0.0
 10
3.63146952834994
 20
-5.884097633908848
 30
0.0
 10
3.63146952834994
 20
-5.884097633908848
 30
0.0
 10
3.644883435139301
 20
-5.894866928993957
 30
0.0
 10
3.644883435139301
 20
-5.894866928993957
 30
0.0
 10
3.644883435139301
 20
-5.894866928993957
 30
0.0
 10
3.4994016307372
 20
-4.662505138769246
 30
0.0
 10
3.4994016307372
 20
-4.662505138769246
 30
0.0
 10
3.4994016307372
 20
-4.662505138769246
 30
0.0
 10
3.488889829346526
 20
-4.62226038906331
 30
0.0
 10
3.488889829346526
 20
-4.62226038906331
 30
0.0
 10
3.488889829346526
 20
-4.62226038906331
 30
0.0
 10
3.445976233235405
 20
-4.614896069414398
 30
0.0
 10
3.445976233235405
 20
-4.614896069414398
 30
0.0
 10
3.445976233235405
 20
-4.614896069414398
 30
0.0
 10
2.123397740640042
 20
-4.322153003355981
 30
0.0
 10
2.123397740640042
 20
-4.322153003355981
 30
0.0
 10
2.123397740640042
 20
-4.322153003355981
 30
0.0
 10
2.290986754056285
 20
-4.525809309959944
 30
0.0
 10
2.290986754056285
 20
-4.525809309959944
 30
0.0
 10
2.290986754056285
 20
-4.525809309959944
 30
0.0
 10
3.384395858976909
 20
-4.739526046655909
 30
0.0
 10
3.384395858976909
 20
-4.739526046655909
 30
0.0
 10
3.384395858976909
 20
-4.739526046655909
 30
0.0
 10
3.372169452517659
 20
-4.697730276110733
 30
0.0
 10
3.372169452517659
 20
-4.697730276110733
 30
0.0
 10
3.372169452517659
 20
-4.697730276110733
 30
0.0
 10
3.425594850019454
 20
-4.74533328679038
 30
0.0
 10
3.425594850019454
 20
-4.74533328679038
 30
0.0
 10
3.425594850019454
 20
-4.74533328679038
 30
0.0
 10
3.384395858976909
 20
-4.739526046655909
 30
0.0
 10
3.384395858976909
 20
-4.739526046655909
 30
0.0
 10
3.384395858976909
 20
-4.739526046655909
 30
0.0
 10
3.55340955767469
 20
-5.936423381870554
 30
0.0
 10
3.55340955767469
 20
-5.936423381870554
 30
0.0
 10
3.55340955767469
 20
-5.936423381870554
 30
0.0
 10
3.558244380446897
 20
-5.952939330338469
 30
0.0
 10
3.558244380446897
 20
-5.952939330338469
 30
0.0
 10
3.558244380446897
 20
-5.952939330338469
 30
0.0
 10
3.570779779338901
 20
-5.962333306163777
 30
0.0
 10
3.570779779338901
 20
-5.962333306163777
 30
0.0
 10
3.570779779338901
 20
-5.962333306163777
 30
0.0
 10
4.033328437299234
 20
-6.243516420029588
 30
0.0
 10
4.033328437299234
 20
-6.243516420029588
 30
0.0
 10
4.033328437299234
 20
-6.243516420029588
 30
0.0
 10
4.033328437299234
 20
-6.245776305861884
 30
0.0
 10
4.033328437299234
 20
-6.245776305861884
 30
0.0
 10
4.033328437299234
 20
-6.245776305861884
 30
0.0
 10
4.034837047412617
 20
-6.244646362945685
 30
0.0
 10
4.034837047412617
 20
-6.244646362945685
 30
0.0
  0
POLYLINE
  5
110
330
96
100
AcDbEntity
  8
Layer 1
370
     0
100
AcDb2dPolyline
 66
     1
 10
0.0
 20
0.0
 30
0.0
  0
VERTEX
  5
111
330
110
100
AcDbEntity
  8
Layer 1
370
     0
100
AcDbVertex
100
AcDb2dVertex
 10
4.623794800391932
 20
-4.683007695488135
 30
0.0
  0
VERTEX
  5
112
330
110
100
AcDbEntity
  8
Layer 1
370
     0
100
AcDbVertex
100
AcDb2dVertex
 10
4.622007491221893
 20
-4.694667615820713
 30
0.0
  0
VERTEX
  5
113
330
110
100
AcDbEntity
  8
Layer 1
370
     0
100
AcDbVertex
100
AcDb2dVertex
 10
4.609974962367308
 20
-4.697233464748074
 30
0.0
  0
VERTEX
  5
114
330
110
100
AcDbEntity
  8
Layer 1
370
     0
100
AcDbVertex
100
AcDb2dVertex
 10
4.623794800391932
 20
-4.683007695488135
 30
0.0
  0
SEQEND
  5
115
330
110
100
AcDbEntity
  8
Layer 1
370
     0
  0
POLYLINE
  5
116
330
96
100
AcDbEntity
  8
Layer 1
370
     0
100
AcDb2dPolyline
 66
     1
 10
0.0
 20
0.0
 30
0.0
  0
VERTEX
  5
117
330
116
100
AcDbEntity
  8
Layer 1
370
     0
100
AcDbVertex
100
AcDb2dVertex
 10
4.034837047412617
 20
-6.178509864972057
 30
0.0
  0
VERTEX
  5
118
330
116
100
AcDbEntity
  8
Layer 1
370
     0
100
AcDbVertex
100
AcDb2dVertex
 10
4.03634565752567
 20
-6.177286012591114
 30
0.0
  0
VERTEX
  5
119
330
116
100
AcDbEntity
  8
Layer 1
370
     0
100
AcDbVertex
100
AcDb2dVertex
 10
4.03634565752567
 20
-6.179673130601436
 30
0.0
  0
VERTEX
  5
11A
330
116
100
AcDbEntity
  8
Layer 1
370
     0
100
AcDbVertex
100
AcDb2dVertex
 10
4.036272953423778
 20
-6.179673130601436
 30
0.0
  0
VERTEX
  5
11B
330
116
100
AcDbEntity
  8
Layer 1
370
     0
100
AcDbVertex
100
AcDb2dVertex
 10
4.036272953423778
 20
-6.17967615993896
 30
0.0
  0
VERTEX
  5
11C
330
116
100
AcDbEntity
  8
Layer 1
370
     0
100
AcDbVertex
100
AcDb2dVertex
 10
4.034837047412617
 20
-6.179703423977116
 30
0.0
  0
VERTEX
  5
11D
330
116
100
AcDbEntity
  8
Layer 1
370
     0
100
AcDbVertex
100
AcDb2dVertex
 10
4.033328437299234
 20
-6.179733717352948
 30
0.0
  0
VERTEX
  5
11E
330
116
100
AcDbEntity
  8
Layer 1
370
     0
100
AcDbVertex
100
AcDb2dVertex
 10
4.034837047412617
 20
-6.178509864972057
 30
0.0
  0
SEQEND
  5
11F
330
116
100
AcDbEntity
  8
Layer 1
370
     0
  0
HATCH
  5
120
330
96
100
AcDbEntity
  8
Layer 1
 62
     7
420
 16776959
100
AcDbHatch
 10
0.0
 20
0.0
 30
0.0
210
0.0
220
0.0
230
1.0
  2
SOLID
 70
     1
 71
     0
 91
        3
 92
        1
 93
        1
 72
     4
 94
        3
 73
     0
 74
     1
 95
      107
 96
      103
 40
0.0
 40
0.0
 40
0.0
 40
0.0
 40
1.0
 40
1.0
 40
1.0
 40
2.0
 40
2.0
 40
2.0
 40
3.0
 40
3.0
 40
3.0
 40
4.0
 40
4.0
 40
4.0
 40
5.0
 40
5.0
 40
5.0
 40
6.0
 40
6.0
 40
6.0
 40
7.0
 40
7.0
 40
7.0
 40
8.0
 40
8.0
 40
8.0
 40
9.0
 40
9.0
 40
9.0
 40
10.0
 40
10.0
 40
10.0
 40
11.0
 40
11.0
 40
11.0
 40
12.0
 40
12.0
 40
12.0
 40
13.0
 40
13.0
 40
13.0
 40
14.0
 40
14.0
 40
14.0
 40
15.0
 40
15.0
 40
15.0
 40
16.0
 40
16.0
 40
16.0
 40
17.0
 40
17.0
 40
17.0
 40
18.0
 40
18.0
 40
18.0
 40
19.0
 40
19.0
 40
19.0
 40
20.0
 40
20.0
 40
20.0
 40
21.0
 40
21.0
 40
21.0
 40
22.0
 40
22.0
 40
22.0
 40
23.0
 40
23.0
 40
23.0
 40
24.0
 40
24.0
 40
24.0
 40
25.0
 40
25.0
 40
25.0
 40
26.0
 40
26.0
 40
26.0
 40
27.0
 40
27.0
 40
27.0
 40
28.0
 40
28.0
 40
28.0
 40
29.0
 40
29.0
 40
29.0
 40
30.0
 40
30.0
 40
30.0
 40
31.0
 40
31.0
 40
31.0
 40
32.0
 40
32.0
 40
32.0
 40
33.0
 40
33.0
 40
33.0
 40
34.0
 40
34.0
 40
34.0
 40
34.0
 10
4.034837047412617
 20
-6.244646362945685
 10
4.034837047412617
 20
-6.244646362945685
 10
4.03634565752567
 20
-6.245776305861884
 10
4.03634565752567
 20
-6.245776305861884
 10
4.03634565752567
 20
-6.245776305861884
 10
4.03634565752567
 20
-6.243516420029588
 10
4.03634565752567
 20
-6.243516420029588
 10
4.03634565752567
 20
-6.243516420029588
 10
4.498900374160964
 20
-5.962333306163777
 10
4.498900374160964
 20
-5.962333306163777
 10
4.498900374160964
 20
-5.962333306163777
 10
4.511429714377906
 20
-5.952939330338469
 10
4.511429714377906
 20
-5.952939330338469
 10
4.511429714377906
 20
-5.952939330338469
 10
4.516264537150517
 20
-5.936423381870554
 10
4.516264537150517
 20
-5.936423381870554
 10
4.516264537150517
 20
-5.936423381870554
 10
4.685278235847918
 20
-4.739526046655909
 10
4.685278235847918
 20
-4.739526046655909
 10
4.685278235847918
 20
-4.739526046655909
 10
5.769974965898099
 20
-4.527593589792584
 10
5.769974965898099
 20
-4.527593589792584
 10
5.769974965898099
 20
-4.527593589792584
 10
5.937345867008641
 20
-4.324206894233081
 10
5.937345867008641
 20
-4.324206894233081
 10
5.937345867008641
 20
-4.324206894233081
 10
4.62369786158941
 20
-4.614896069414398
 10
4.62369786158941
 20
-4.614896069414398
 10
4.62369786158941
 20
-4.614896069414398
 10
4.580790324153768
 20
-4.62226038906331
 10
4.580790324153768
 20
-4.62226038906331
 10
4.580790324153768
 20
-4.62226038906331
 10
4.570272464087616
 20
-4.662505138769246
 10
4.570272464087616
 20
-4.662505138769246
 10
4.570272464087616
 20
-4.662505138769246
 10
4.424796718360565
 20
-5.894866928993957
 10
4.424796718360565
 20
-5.894866928993957
 10
4.424796718360565
 20
-5.894866928993957
 10
4.034837047412617
 20
-6.137980357533706
 10
4.034837047412617
 20
-6.137980357533706
 10
4.034837047412617
 20
-6.137980357533706
 10
3.644883435139301
 20
-5.894866928993957
 10
3.644883435139301
 20
-5.894866928993957
 10
3.644883435139301
 20
-5.894866928993957
 10
3.648833691339443
 20
-5.910004528864369
 10
3.648833691339443
 20
-5.910004528864369
 10
3.648833691339443
 20
-5.910004528864369
 10
3.63146952834994
 20
-5.884097633908848
 10
3.63146952834994
 20
-5.884097633908848
 10
3.63146952834994
 20
-5.884097633908848
 10
3.63146952834994
 20
-5.884103692584049
 10
3.63146952834994
 20
-5.884103692584049
 10
3.63146952834994
 20
-5.884103692584049
 10
3.63146952834994
 20
-5.884097633908848
 10
3.63146952834994
 20
-5.884097633908848
 10
3.63146952834994
 20
-5.884097633908848
 10
3.644883435139301
 20
-5.894866928993957
 10
3.644883435139301
 20
-5.894866928993957
 10
3.644883435139301
 20
-5.894866928993957
 10
3.4994016307372
 20
-4.662505138769246
 10
3.4994016307372
 20
-4.662505138769246
 10
3.4994016307372
 20
-4.662505138769246
 10
3.488889829346526
 20
-4.62226038906331
 10
3.488889829346526
 20
-4.62226038906331
 10
3.488889829346526
 20
-4.62226038906331
 10
3.445976233235405
 20
-4.614896069414398
 10
3.445976233235405
 20
-4.614896069414398
 10
3.445976233235405
 20
-4.614896069414398
 10
2.123397740640042
 20
-4.322153003355981
 10
2.123397740640042
 20
-4.322153003355981
 10
2.123397740640042
 20
-4.322153003355981
 10
2.290986754056285
 20
-4.525809309959944
 10
2.290986754056285
 20
-4.525809309959944
 10
2.290986754056285
 20
-4.525809309959944
 10
3.384395858976909
 20
-4.739526046655909
 10
3.384395858976909
 20
-4.739526046655909
 10
3.384395858976909
 20
-4.739526046655909
 10
3.372169452517659
 20
-4.697730276110733
 10
3.372169452517659
 20
-4.697730276110733
 10
3.372169452517659
 20
-4.697730276110733
 10
3.425594850019454
 20
-4.74533328679038
 10
3.425594850019454
 20
-4.74533328679038
 10
3.425594850019454
 20
-4.74533328679038
 10
3.384395858976909
 20
-4.739526046655909
 10
3.384395858976909
 20
-4.739526046655909
 10
3.384395858976909
 20
-4.739526046655909
 10
3.55340955767469
 20
-5.936423381870554
 10
3.55340955767469
 20
-5.936423381870554
 10
3.55340955767469
 20
-5.936423381870554
 10
3.558244380446897
 20
-5.952939330338469
 10
3.558244380446897
 20
-5.952939330338469
 10
3.558244380446897
 20
-5.952939330338469
 10
3.570779779338901
 20
-5.962333306163777
 10
3.570779779338901
 20
-5.962333306163777
 10
3.570779779338901
 20
-5.962333306163777
 10
4.033328437299234
 20
-6.243516420029588
 10
4.033328437299234
 20
-6.243516420029588
 10
4.033328437299234
 20
-6.243516420029588
 10
4.033328437299234
 20
-6.245776305861884
 10
4.033328437299234
 20
-6.245776305861884
 10
4.033328437299234
 20
-6.245776305861884
 10
4.034837047412617
 20
-6.244646362945685
 10
4.034837047412617
 20
-6.244646362945685
 97
        0
 97
        0
 92
        1
 93
        3
 72
     1
 10
4.623794800391932
 20
-4.683007695488135
 11
4.622007491221893
 21
-4.694667615820713
 72
     1
 10
4.622007491221893
 20
-4.694667615820713
 11
4.609974962367308
 21
-4.697233464748074
 72
     1
 10
4.609974962367308
 20
-4.697233464748074
 11
4.623794800391932
 21
-4.683007695488135
 97
        0
 92
        1
 93
        7
 72
     1
 10
4.034837047412617
 20
-6.178509864972057
 11
4.03634565752567
 21
-6.177286012591114
 72
     1
 10
4.03634565752567
 20
-6.177286012591114
 11
4.03634565752567
 21
-6.179673130601436
 72
     1
 10
4.03634565752567
 20
-6.179673130601436
 11
4.036272953423778
 21
-6.179673130601436
 72
     1
 10
4.036272953423778
 20
-6.179673130601436
 11
4.036272953423778
 21
-6.17967615993896
 72
     1
 10
4.036272953423778
 20
-6.17967615993896
 11
4.034837047412617
 21
-6.179703423977116
 72
     1
 10
4.034837047412617
 20
-6.179703423977116
 11
4.033328437299234
 21
-6.179733717352948
 72
     1
 10
4.033328437299234
 20
-6.179733717352948
 11
4.034837047412617
 21
-6.178509864972057
 97
        0
 75
     2
 76
     1
 98
        0
  0
POLYLINE
  5
121
330
96
100
AcDbEntity
  8
Layer 1
370
     0
100
AcDb2dPolyline
 66
     1
 10
0.0
 20
0.0
 30
0.0
  0
VERTEX
  5
122
330
121
100
AcDbEntity
  8
Layer 1
370
     0
100
AcDbVertex
100
AcDb2dVertex
 10
4.0334011414011
 20
-6.17967615993896
 30
0.0
  0
VERTEX
  5
123
330
121
100
AcDbEntity
  8
Layer 1
370
     0
100
AcDbVertex
100
AcDb2dVertex
 10
4.034837047412617
 20
-6.178509864972057
 30
0.0
  0
VERTEX
  5
124
330
121
100
AcDbEntity
  8
Layer 1
370
     0
100
AcDbVertex
100
AcDb2dVertex
 10
4.033328437299234
 20
-6.179733717352948
 30
0.0
  0
VERTEX
  5
125
330
121
100
AcDbEntity
  8
Layer 1
370
     0
100
AcDbVertex
100
AcDb2dVertex
 10
4.034837047412617
 20
-6.179703423977116
 30
0.0
  0
VERTEX
  5
126
330
121
100
AcDbEntity
  8
Layer 1
370
     0
100
AcDbVertex
100
AcDb2dVertex
 10
4.0334011414011
 20
-6.17967615993896
 30
0.0
  0
SEQEND
  5
128
330
121
100
AcDbEntity
  8
Layer 1
370
     0
  0
HATCH
  5
127
330
96
100
AcDbEntity
  8
Layer 1
 62
     7
420
 16776959
100
AcDbHatch
 10
0.0
 20
0.0
 30
0.0
210
0.0
220
0.0
230
1.0
  2
SOLID
 70
     1
 71
     0
 91
        1
 92
        1
 93
        4
 72
     1
 10
4.0334011414011
 20
-6.17967615993896
 11
4.034837047412617
 21
-6.178509864972057
 72
     1
 10
4.034837047412617
 20
-6.178509864972057
 11
4.033328437299234
 21
-6.179733717352948
 72
     1
 10
4.033328437299234
 20
-6.179733717352948
 11
4.034837047412617
 21
-6.179703423977116
 72
     1
 10
4.034837047412617
 20
-6.179703423977116
 11
4.0334011414011
 21
-6.17967615993896
 97
        0
 75
     2
 76
     1
 98
        0
  0
POLYLINE
  5
129
330
96
100
AcDbEntity
  8
Layer 1
370
     0
100
AcDb2dPolyline
 66
     1
 10
0.0
 20
0.0
 30
0.0
  0
VERTEX
  5
12A
330
129
100
AcDbEntity
  8
Layer 1
370
     0
100
AcDbVertex
100
AcDb2dVertex
 10
4.03634565752567
 20
-6.179673130601436
 30
0.0
  0
VERTEX
  5
12B
330
129
100
AcDbEntity
  8
Layer 1
370
     0
100
AcDbVertex
100
AcDb2dVertex
 10
4.03634565752567
 20
-6.177286012591114
 30
0.0
  0
VERTEX
  5
12C
330
129
100
AcDbEntity
  8
Layer 1
370
     0
100
AcDbVertex
100
AcDb2dVertex
 10
4.034837047412617
 20
-6.178509864972057
 30
0.0
  0
VERTEX
  5
12D
330
129
100
AcDbEntity
  8
Layer 1
370
     0
100
AcDbVertex
100
AcDb2dVertex
 10
4.036272953423778
 20
-6.179673130601436
 30
0.0
  0
VERTEX
  5
12E
330
129
100
AcDbEntity
  8
Layer 1
370
     0
100
AcDbVertex
100
AcDb2dVertex
 10
4.03634565752567
 20
-6.179673130601436
 30
0.0
  0
SEQEND
  5
130
330
129
100
AcDbEntity
  8
Layer 1
370
     0
  0
HATCH
  5
12F
330
96
100
AcDbEntity
  8
Layer 1
 62
     7
420
 16776959
100
AcDbHatch
 10
0.0
 20
0.0
 30
0.0
210
0.0
220
0.0
230
1.0
  2
SOLID
 70
     1
 71
     0
 91
        1
 92
        1
 93
        4
 72
     1
 10
4.03634565752567
 20
-6.179673130601436
 11
4.03634565752567
 21
-6.177286012591114
 72
     1
 10
4.03634565752567
 20
-6.177286012591114
 11
4.034837047412617
 21
-6.178509864972057
 72
     1
 10
4.034837047412617
 20
-6.178509864972057
 11
4.036272953423778
 21
-6.179673130601436
 72
     1
 10
4.036272953423778
 20
-6.179673130601436
 11
4.03634565752567
 21
-6.179673130601436
 97
        0
 75
     2
 76
     1
 98
        0
  0
SPLINE
  5
131
330
96
100
AcDbEntity
  8
Layer 1
370
     0
100
AcDbSpline
210
0.0
220
0.0
230
1.0
 70
    11
 71
     3
 72
    20
 73
    16
 74
     0
 42
0.0000000001
 43
0.0000000001
 12
1.0
 22
0.0
 32
0.0
 13
1.0
 23
0.0
 33
0.0
 40
0.0
 40
0.0
 40
0.0
 40
0.0
 40
1.0
 40
1.0
 40
1.0
 40
2.0
 40
2.0
 40
2.0
 40
3.0
 40
3.0
 40
3.0
 40
4.0
 40
4.0
 40
4.0
 40
5.0
 40
5.0
 40
5.0
 40
5.0
 10
4.036272953423778
 20
-6.17967615993896
 30
0.0
 10
4.036272953423778
 20
-6.17967615993896
 30
0.0
 10
4.034837047412617
 20
-6.179703423977116
 30
0.0
 10
4.034837047412617
 20
-6.179703423977116
 30
0.0
 10
4.034837047412617
 20
-6.179703423977116
 30
0.0
 10
4.036272953423778
 20
-6.17967615993896
 30
0.0
 10
4.036272953423778
 20
-6.17967615993896
 30
0.0
 10
4.036272953423778
 20
-6.17967615993896
 30
0.0
 10
4.036272953423778
 20
-6.179673130601436
 30
0.0
 10
4.036272953423778
 20
-6.179673130601436
 30
0.0
 10
4.036272953423778
 20
-6.179673130601436
 30
0.0
 10
4.036272953423778
 20
-6.179673130601436
 30
0.0
 10
4.036272953423778
 20
-6.179673130601436
 30
0.0
 10
4.036272953423778
 20
-6.179673130601436
 30
0.0
 10
4.036272953423778
 20
-6.17967615993896
 30
0.0
 10
4.036272953423778
 20
-6.17967615993896
 30
0.0
  0
HATCH
  5
132
330
96
100
AcDbEntity
  8
Layer 1
 62
     7
420
 16776959
100
AcDbHatch
 10
0.0
 20
0.0
 30
0.0
210
0.0
220
0.0
230
1.0
  2
SOLID
 70
     1
 71
     0
 91
        1
 92
        1
 93
        1
 72
     4
 94
        3
 73
     0
 74
     1
 95
       20
 96
       16
 40
0.0
 40
0.0
 40
0.0
 40
0.0
 40
1.0
 40
1.0
 40
1.0
 40
2.0
 40
2.0
 40
2.0
 40
3.0
 40
3.0
 40
3.0
 40
4.0
 40
4.0
 40
4.0
 40
5.0
 40
5.0
 40
5.0
 40
5.0
 10
4.036272953423778
 20
-6.17967615993896
 10
4.036272953423778
 20
-6.17967615993896
 10
4.034837047412617
 20
-6.179703423977116
 10
4.034837047412617
 20
-6.179703423977116
 10
4.034837047412617
 20
-6.179703423977116
 10
4.036272953423778
 20
-6.17967615993896
 10
4.036272953423778
 20
-6.17967615993896
 10
4.036272953423778
 20
-6.17967615993896
 10
4.036272953423778
 20
-6.179673130601436
 10
4.036272953423778
 20
-6.179673130601436
 10
4.036272953423778
 20
-6.179673130601436
 10
4.036272953423778
 20
-6.179673130601436
 10
4.036272953423778
 20
-6.179673130601436
 10
4.036272953423778
 20
-6.179673130601436
 10
4.036272953423778
 20
-6.17967615993896
 10
4.036272953423778
 20
-6.17967615993896
 97
        0
 97
        0
 75
     2
 76
     1
 98
        0
  0
SPLINE
  5
133
330
96
100
AcDbEntity
  8
Layer 1
370
     0
100
AcDbSpline
210
0.0
220
0.0
230
1.0
 70
    27
 71
     3
 72
    14
 73
    10
 74
     0
 42
0.0000000001
 43
0.0000000001
 12
1.0
 22
0.0
 32
0.0
 13
1.0
 23
0.0
 33
0.0
 40
0.0
 40
0.0
 40
0.0
 40
0.0
 40
1.0
 40
1.0
 40
1.0
 40
2.0
 40
2.0
 40
2.0
 40
3.0
 40
3.0
 40
3.0
 40
3.0
 10
4.036272953423778
 20
-6.179673130601436
 30
0.0
 10
4.036272953423778
 20
-6.179673130601436
 30
0.0
 10
4.034837047412617
 20
-6.178509864972057
 30
0.0
 10
4.034837047412617
 20
-6.178509864972057
 30
0.0
 10
4.034837047412617
 20
-6.178509864972057
 30
0.0
 10
4.036272953423778
 20
-6.179673130601436
 30
0.0
 10
4.036272953423778
 20
-6.179673130601436
 30
0.0
 10
4.036272953423778
 20
-6.179673130601436
 30
0.0
 10
4.036272953423778
 20
-6.179673130601436
 30
0.0
 10
4.036272953423778
 20
-6.179673130601436
 30
0.0
  0
HATCH
  5
134
330
96
100
AcDbEntity
  8
Layer 1
 62
     7
420
 16776959
100
AcDbHatch
 10
0.0
 20
0.0
 30
0.0
210
0.0
220
0.0
230
1.0
  2
SOLID
 70
     1
 71
     0
 91
        1
 92
        1
 93
        1
 72
     4
 94
        3
 73
     0
 74
     1
 95
       14
 96
       10
 40
0.0
 40
0.0
 40
0.0
 40
0.0
 40
1.0
 40
1.0
 40
1.0
 40
2.0
 40
2.0
 40
2.0
 40
3.0
 40
3.0
 40
3.0
 40
3.0
 10
4.036272953423778
 20
-6.179673130601436
 10
4.036272953423778
 20
-6.179673130601436
 10
4.034837047412617
 20
-6.178509864972057
 10
4.034837047412617
 20
-6.178509864972057
 10
4.034837047412617
 20
-6.178509864972057
 10
4.036272953423778
 20
-6.179673130601436
 10
4.036272953423778
 20
-6.179673130601436
 10
4.036272953423778
 20
-6.179673130601436
 10
4.036272953423778
 20
-6.179673130601436
 10
4.036272953423778
 20
-6.179673130601436
 97
        0
 97
        0
 75
     2
 76
     1
 98
        0
  0
POLYLINE
  5
135
330
96
100
AcDbEntity
  8
Layer 1
370
     0
100
AcDb2dPolyline
 66
     1
 10
0.0
 20
0.0
 30
0.0
  0
VERTEX
  5
136
330
135
100
AcDbEntity
  8
Layer 1
370
     0
100
AcDbVertex
100
AcDb2dVertex
 10
3.63146952834994
 20
-5.884097633908848
 30
0.0
  0
VERTEX
  5
137
330
135
100
AcDbEntity
  8
Layer 1
370
     0
100
AcDbVertex
100
AcDb2dVertex
 10
3.648833691339443
 20
-5.910004528864369
 30
0.0
  0
VERTEX
  5
138
330
135
100
AcDbEntity
  8
Layer 1
370
     0
100
AcDbVertex
100
AcDb2dVertex
 10
3.63146952834994
 20
-5.884103692584049
 30
0.0
  0
VERTEX
  5
139
330
135
100
AcDbEntity
  8
Layer 1
370
     0
100
AcDbVertex
100
AcDb2dVertex
 10
3.63146952834994
 20
-5.884097633908848
 30
0.0
  0
SEQEND
  5
13B
330
135
100
AcDbEntity
  8
Layer 1
370
     0
  0
HATCH
  5
13A
330
96
100
AcDbEntity
  8
Layer 1
 62
     7
420
 16776959
100
AcDbHatch
 10
0.0
 20
0.0
 30
0.0
210
0.0
220
0.0
230
1.0
  2
SOLID
 70
     1
 71
     0
 91
        1
 92
        1
 93
        3
 72
     1
 10
3.63146952834994
 20
-5.884097633908848
 11
3.648833691339443
 21
-5.910004528864369
 72
     1
 10
3.648833691339443
 20
-5.910004528864369
 11
3.63146952834994
 21
-5.884103692584049
 72
     1
 10
3.63146952834994
 20
-5.884103692584049
 11
3.63146952834994
 21
-5.884097633908848
 97
        0
 75
     2
 76
     1
 98
        0
  0
POLYLINE
  5
13C
330
96
100
AcDbEntity
  8
Layer 1
370
     0
100
AcDb2dPolyline
 66
     1
 10
0.0
 20
0.0
 30
0.0
  0
VERTEX
  5
13D
330
13C
100
AcDbEntity
  8
Layer 1
370
     0
100
AcDbVertex
100
AcDb2dVertex
 10
4.623794800391932
 20
-4.683007695488135
 30
0.0
  0
VERTEX
  5
13E
330
13C
100
AcDbEntity
  8
Layer 1
370
     0
100
AcDbVertex
100
AcDb2dVertex
 10
4.609974962367308
 20
-4.697233464748074
 30
0.0
  0
VERTEX
  5
13F
330
13C
100
AcDbEntity
  8
Layer 1
370
     0
100
AcDbVertex
100
AcDb2dVertex
 10
4.622007491221893
 20
-4.694667615820713
 30
0.0
  0
VERTEX
  5
140
330
13C
100
AcDbEntity
  8
Layer 1
370
     0
100
AcDbVertex
100
AcDb2dVertex
 10
4.623794800391932
 20
-4.683007695488135
 30
0.0
  0
SEQEND
  5
142
330
13C
100
AcDbEntity
  8
Layer 1
370
     0
  0
HATCH
  5
141
330
96
100
AcDbEntity
  8
Layer 1
 62
     7
420
 16776959
100
AcDbHatch
 10
0.0
 20
0.0
 30
0.0
210
0.0
220
0.0
230
1.0
  2
SOLID
 70
     1
 71
     0
 91
        1
 92
        1
 93
        3
 72
     1
 10
4.623794800391932
 20
-4.683007695488135
 11
4.609974962367308
 21
-4.697233464748074
 72
     1
 10
4.609974962367308
 20
-4.697233464748074
 11
4.622007491221893
 21
-4.694667615820713
 72
     1
 10
4.622007491221893
 20
-4.694667615820713
 11
4.623794800391932
 21
-4.683007695488135
 97
        0
 75
     2
 76
     1
 98
        0
  0
POLYLINE
  5
143
330
96
100
AcDbEntity
  8
Layer 1
370
     0
100
AcDb2dPolyline
 66
     1
 10
0.0
 20
0.0
 30
0.0
  0
VERTEX
  5
144
330
143
100
AcDbEntity
  8
Layer 1
370
     0
100
AcDbVertex
100
AcDb2dVertex
 10
4.033328437299234
 20
-6.46536692811896
 30
0.0
  0
VERTEX
  5
145
330
143
100
AcDbEntity
  8
Layer 1
370
     0
100
AcDbVertex
100
AcDb2dVertex
 10
4.033328437299234
 20
-6.467584403225045
 30
0.0
  0
VERTEX
  5
146
330
143
100
AcDbEntity
  8
Layer 1
370
     0
100
AcDbVertex
100
AcDb2dVertex
 10
4.034843106087666
 20
-6.466445372296246
 30
0.0
  0
VERTEX
  5
147
330
143
100
AcDbEntity
  8
Layer 1
370
     0
100
AcDbVertex
100
AcDb2dVertex
 10
4.034303883999099
 20
-6.466042470398507
 30
0.0
  0
VERTEX
  5
148
330
143
100
AcDbEntity
  8
Layer 1
370
     0
100
AcDbVertex
100
AcDb2dVertex
 10
4.033328437299234
 20
-6.46536692811896
 30
0.0
  0
SEQEND
  5
14A
330
143
100
AcDbEntity
  8
Layer 1
370
     0
  0
HATCH
  5
149
330
96
100
AcDbEntity
  8
Layer 1
 62
     7
420
 16776959
100
AcDbHatch
 10
0.0
 20
0.0
 30
0.0
210
0.0
220
0.0
230
1.0
  2
SOLID
 70
     1
 71
     0
 91
        1
 92
        1
 93
        4
 72
     1
 10
4.033328437299234
 20
-6.46536692811896
 11
4.033328437299234
 21
-6.467584403225045
 72
     1
 10
4.033328437299234
 20
-6.467584403225045
 11
4.034843106087666
 21
-6.466445372296246
 72
     1
 10
4.034843106087666
 20
-6.466445372296246
 11
4.034303883999099
 21
-6.466042470398507
 72
     1
 10
4.034303883999099
 20
-6.466042470398507
 11
4.033328437299234
 21
-6.46536692811896
 97
        0
 75
     2
 76
     1
 98
        0
  0
SPLINE
  5
14B
330
96
100
AcDbEntity
  8
Layer 1
370
     0
100
AcDbSpline
210
0.0
220
0.0
230
1.0
 70
    11
 71
     3
 72
    89
 73
    85
 74
     0
 42
0.0000000001
 43
0.0000000001
 12
1.0
 22
0.0
 32
0.0
 13
1.0
 23
0.0
 33
0.0
 40
0.0
 40
0.0
 40
0.0
 40
0.0
 40
1.0
 40
1.0
 40
1.0
 40
2.0
 40
2.0
 40
2.0
 40
3.0
 40
3.0
 40
3.0
 40
4.0
 40
4.0
 40
4.0
 40
5.0
 40
5.0
 40
5.0
 40
6.0
 40
6.0
 40
6.0
 40
7.0
 40
7.0
 40
7.0
 40
8.0
 40
8.0
 40
8.0
 40
9.0
 40
9.0
 40
9.0
 40
10.0
 40
10.0
 40
10.0
 40
11.0
 40
11.0
 40
11.0
 40
12.0
 40
12.0
 40
12.0
 40
13.0
 40
13.0
 40
13.0
 40
14.0
 40
14.0
 40
14.0
 40
15.0
 40
15.0
 40
15.0
 40
16.0
 40
16.0
 40
16.0
 40
17.0
 40
17.0
 40
17.0
 40
18.0
 40
18.0
 40
18.0
 40
19.0
 40
19.0
 40
19.0
 40
20.0
 40
20.0
 40
20.0
 40
21.0
 40
21.0
 40
21.0
 40
22.0
 40
22.0
 40
22.0
 40
23.0
 40
23.0
 40
23.0
 40
24.0
 40
24.0
 40
24.0
 40
25.0
 40
25.0
 40
25.0
 40
26.0
 40
26.0
 40
26.0
 40
27.0
 40
27.0
 40
27.0
 40
28.0
 40
28.0
 40
28.0
 40
28.0
 10
4.042804205238958
 20
-6.437406142286413
 30
0.0
 10
4.042804205238958
 20
-6.437406142286413
 30
0.0
 10
4.051201529001597
 20
-6.443888924700381
 30
0.0
 10
4.051201529001597
 20
-6.443888924700381
 30
0.0
 10
4.051201529001597
 20
-6.443888924700381
 30
0.0
 10
4.03634565752567
 20
-6.44392527675129
 30
0.0
 10
4.03634565752567
 20
-6.44392527675129
 30
0.0
 10
4.03634565752567
 20
-6.44392527675129
 30
0.0
 10
4.03634565752567
 20
-6.465369957456535
 30
0.0
 10
4.03634565752567
 20
-6.465369957456535
 30
0.0
 10
4.03634565752567
 20
-6.465369957456535
 30
0.0
 10
4.689536587860377
 20
-6.038527204892034
 30
0.0
 10
4.689536587860377
 20
-6.038527204892034
 30
0.0
 10
4.689536587860377
 20
-6.038527204892034
 30
0.0
 10
4.693662545639982
 20
-6.035419104538303
 30
0.0
 10
4.693662545639982
 20
-6.035419104538303
 30
0.0
 10
4.693662545639982
 20
-6.035419104538303
 30
0.0
 10
4.695510441561408
 20
-6.030402521511405
 30
0.0
 10
4.695510441561408
 20
-6.030402521511405
 30
0.0
 10
4.695510441561408
 20
-6.030402521511405
 30
0.0
 10
4.897319748864068
 20
-4.960364755994684
 30
0.0
 10
4.897319748864068
 20
-4.960364755994684
 30
0.0
 10
4.897319748864068
 20
-4.960364755994684
 30
0.0
 10
4.884269362583709
 20
-4.962373206808049
 30
0.0
 10
4.884269362583709
 20
-4.962373206808049
 30
0.0
 10
4.884269362583709
 20
-4.962373206808049
 30
0.0
 10
4.884269362583709
 20
-4.962373206808049
 30
0.0
 10
4.884269362583709
 20
-4.962373206808049
 30
0.0
 10
4.884269362583709
 20
-4.962373206808049
 30
0.0
 10
4.884269362583709
 20
-4.962373206808049
 30
0.0
 10
4.884269362583709
 20
-4.962373206808049
 30
0.0
 10
4.884269362583709
 20
-4.962373206808049
 30
0.0
 10
4.8931210869829
 20
-4.955066444573074
 30
0.0
 10
4.8931210869829
 20
-4.955066444573074
 30
0.0
 10
4.8931210869829
 20
-4.955066444573074
 30
0.0
 10
4.901972811382089
 20
-4.947759682338098
 30
0.0
 10
4.901972811382089
 20
-4.947759682338098
 30
0.0
 10
4.901972811382089
 20
-4.947759682338098
 30
0.0
 10
4.901972811382089
 20
-4.947762711675775
 30
0.0
 10
4.901972811382089
 20
-4.947762711675775
 30
0.0
 10
4.901972811382089
 20
-4.947762711675775
 30
0.0
 10
4.901972811382089
 20
-4.947759682338098
 30
0.0
 10
4.901972811382089
 20
-4.947759682338098
 30
0.0
 10
4.901972811382089
 20
-4.947759682338098
 30
0.0
 10
4.899646280123104
 20
-4.954060704497603
 30
0.0
 10
4.899646280123104
 20
-4.954060704497603
 30
0.0
 10
4.899646280123104
 20
-4.954060704497603
 30
0.0
 10
4.897319748864068
 20
-4.960364755994684
 30
0.0
 10
4.897319748864068
 20
-4.960364755994684
 30
0.0
 10
4.897319748864068
 20
-4.960364755994684
 30
0.0
 10
5.519715330015111
 20
-4.831714847788943
 30
0.0
 10
5.519715330015111
 20
-4.831714847788943
 30
0.0
 10
5.519715330015111
 20
-4.831714847788943
 30
0.0
 10
5.572958967262366
 20
-4.767011226489128
 30
0.0
 10
5.572958967262366
 20
-4.767011226489128
 30
0.0
 10
5.572958967262366
 20
-4.767011226489128
 30
0.0
 10
4.877156477953753
 20
-4.917696536227317
 30
0.0
 10
4.877156477953753
 20
-4.917696536227317
 30
0.0
 10
4.877156477953753
 20
-4.917696536227317
 30
0.0
 10
4.8639000967182
 20
-4.91987765928262
 30
0.0
 10
4.8639000967182
 20
-4.91987765928262
 30
0.0
 10
4.8639000967182
 20
-4.91987765928262
 30
0.0
 10
4.859453029155727
 20
-4.932313090034793
 30
0.0
 10
4.859453029155727
 20
-4.932313090034793
 30
0.0
 10
4.859453029155727
 20
-4.932313090034793
 30
0.0
 10
4.663575164828418
 20
-6.013314028241464
 30
0.0
 10
4.663575164828418
 20
-6.013314028241464
 30
0.0
 10
4.663575164828418
 20
-6.013314028241464
 30
0.0
 10
4.667810178760647
 20
-6.010048402333723
 30
0.0
 10
4.667810178760647
 20
-6.010048402333723
 30
0.0
 10
4.667810178760647
 20
-6.010048402333723
 30
0.0
 10
4.66184238373464
 20
-6.018170056376776
 30
0.0
 10
4.66184238373464
 20
-6.018170056376776
 30
0.0
 10
4.66184238373464
 20
-6.018170056376776
 30
0.0
 10
4.663575164828418
 20
-6.013314028241464
 30
0.0
 10
4.663575164828418
 20
-6.013314028241464
 30
0.0
 10
4.663575164828418
 20
-6.013314028241464
 30
0.0
 10
4.034837047412617
 20
-6.431353525808163
 30
0.0
 10
4.034837047412617
 20
-6.431353525808163
 30
0.0
 10
4.034837047412617
 20
-6.431353525808163
 30
0.0
 10
4.03634565752567
 20
-6.432419852635197
 30
0.0
 10
4.03634565752567
 20
-6.432419852635197
 30
0.0
 10
4.03634565752567
 20
-6.432419852635197
 30
0.0
 10
4.042804205238958
 20
-6.437406142286413
 30
0.0
 10
4.042804205238958
 20
-6.437406142286413
 30
0.0
  0
HATCH
  5
14C
330
96
100
AcDbEntity
  8
Layer 1
 62
     7
420
 16776959
100
AcDbHatch
 10
0.0
 20
0.0
 30
0.0
210
0.0
220
0.0
230
1.0
  2
SOLID
 70
     1
 71
     0
 91
        1
 92
        1
 93
        1
 72
     4
 94
        3
 73
     0
 74
     1
 95
       89
 96
       85
 40
0.0
 40
0.0
 40
0.0
 40
0.0
 40
1.0
 40
1.0
 40
1.0
 40
2.0
 40
2.0
 40
2.0
 40
3.0
 40
3.0
 40
3.0
 40
4.0
 40
4.0
 40
4.0
 40
5.0
 40
5.0
 40
5.0
 40
6.0
 40
6.0
 40
6.0
 40
7.0
 40
7.0
 40
7.0
 40
8.0
 40
8.0
 40
8.0
 40
9.0
 40
9.0
 40
9.0
 40
10.0
 40
10.0
 40
10.0
 40
11.0
 40
11.0
 40
11.0
 40
12.0
 40
12.0
 40
12.0
 40
13.0
 40
13.0
 40
13.0
 40
14.0
 40
14.0
 40
14.0
 40
15.0
 40
15.0
 40
15.0
 40
16.0
 40
16.0
 40
16.0
 40
17.0
 40
17.0
 40
17.0
 40
18.0
 40
18.0
 40
18.0
 40
19.0
 40
19.0
 40
19.0
 40
20.0
 40
20.0
 40
20.0
 40
21.0
 40
21.0
 40
21.0
 40
22.0
 40
22.0
 40
22.0
 40
23.0
 40
23.0
 40
23.0
 40
24.0
 40
24.0
 40
24.0
 40
25.0
 40
25.0
 40
25.0
 40
26.0
 40
26.0
 40
26.0
 40
27.0
 40
27.0
 40
27.0
 40
28.0
 40
28.0
 40
28.0
 40
28.0
 10
4.042804205238958
 20
-6.437406142286413
 10
4.042804205238958
 20
-6.437406142286413
 10
4.051201529001597
 20
-6.443888924700381
 10
4.051201529001597
 20
-6.443888924700381
 10
4.051201529001597
 20
-6.443888924700381
 10
4.03634565752567
 20
-6.44392527675129
 10
4.03634565752567
 20
-6.44392527675129
 10
4.03634565752567
 20
-6.44392527675129
 10
4.03634565752567
 20
-6.465369957456535
 10
4.03634565752567
 20
-6.465369957456535
 10
4.03634565752567
 20
-6.465369957456535
 10
4.689536587860377
 20
-6.038527204892034
 10
4.689536587860377
 20
-6.038527204892034
 10
4.689536587860377
 20
-6.038527204892034
 10
4.693662545639982
 20
-6.035419104538303
 10
4.693662545639982
 20
-6.035419104538303
 10
4.693662545639982
 20
-6.035419104538303
 10
4.695510441561408
 20
-6.030402521511405
 10
4.695510441561408
 20
-6.030402521511405
 10
4.695510441561408
 20
-6.030402521511405
 10
4.897319748864068
 20
-4.960364755994684
 10
4.897319748864068
 20
-4.960364755994684
 10
4.897319748864068
 20
-4.960364755994684
 10
4.884269362583709
 20
-4.962373206808049
 10
4.884269362583709
 20
-4.962373206808049
 10
4.884269362583709
 20
-4.962373206808049
 10
4.884269362583709
 20
-4.962373206808049
 10
4.884269362583709
 20
-4.962373206808049
 10
4.884269362583709
 20
-4.962373206808049
 10
4.884269362583709
 20
-4.962373206808049
 10
4.884269362583709
 20
-4.962373206808049
 10
4.884269362583709
 20
-4.962373206808049
 10
4.8931210869829
 20
-4.955066444573074
 10
4.8931210869829
 20
-4.955066444573074
 10
4.8931210869829
 20
-4.955066444573074
 10
4.901972811382089
 20
-4.947759682338098
 10
4.901972811382089
 20
-4.947759682338098
 10
4.901972811382089
 20
-4.947759682338098
 10
4.901972811382089
 20
-4.947762711675775
 10
4.901972811382089
 20
-4.947762711675775
 10
4.901972811382089
 20
-4.947762711675775
 10
4.901972811382089
 20
-4.947759682338098
 10
4.901972811382089
 20
-4.947759682338098
 10
4.901972811382089
 20
-4.947759682338098
 10
4.899646280123104
 20
-4.954060704497603
 10
4.899646280123104
 20
-4.954060704497603
 10
4.899646280123104
 20
-4.954060704497603
 10
4.897319748864068
 20
-4.960364755994684
 10
4.897319748864068
 20
-4.960364755994684
 10
4.897319748864068
 20
-4.960364755994684
 10
5.519715330015111
 20
-4.831714847788943
 10
5.519715330015111
 20
-4.831714847788943
 10
5.519715330015111
 20
-4.831714847788943
 10
5.572958967262366
 20
-4.767011226489128
 10
5.572958967262366
 20
-4.767011226489128
 10
5.572958967262366
 20
-4.767011226489128
 10
4.877156477953753
 20
-4.917696536227317
 10
4.877156477953753
 20
-4.917696536227317
 10
4.877156477953753
 20
-4.917696536227317
 10
4.8639000967182
 20
-4.91987765928262
 10
4.8639000967182
 20
-4.91987765928262
 10
4.8639000967182
 20
-4.91987765928262
 10
4.859453029155727
 20
-4.932313090034793
 10
4.859453029155727
 20
-4.932313090034793
 10
4.859453029155727
 20
-4.932313090034793
 10
4.663575164828418
 20
-6.013314028241464
 10
4.663575164828418
 20
-6.013314028241464
 10
4.663575164828418
 20
-6.013314028241464
 10
4.667810178760647
 20
-6.010048402333723
 10
4.667810178760647
 20
-6.010048402333723
 10
4.667810178760647
 20
-6.010048402333723
 10
4.66184238373464
 20
-6.018170056376776
 10
4.66184238373464
 20
-6.018170056376776
 10
4.66184238373464
 20
-6.018170056376776
 10
4.663575164828418
 20
-6.013314028241464
 10
4.663575164828418
 20
-6.013314028241464
 10
4.663575164828418
 20
-6.013314028241464
 10
4.034837047412617
 20
-6.431353525808163
 10
4.034837047412617
 20
-6.431353525808163
 10
4.034837047412617
 20
-6.431353525808163
 10
4.03634565752567
 20
-6.432419852635197
 10
4.03634565752567
 20
-6.432419852635197
 10
4.03634565752567
 20
-6.432419852635197
 10
4.042804205238958
 20
-6.437406142286413
 10
4.042804205238958
 20
-6.437406142286413
 97
        0
 97
        0
 75
     2
 76
     1
 98
        0
  0
POLYLINE
  5
14D
330
96
100
AcDbEntity
  8
Layer 1
370
     0
100
AcDb2dPolyline
 66
     1
 10
0.0
 20
0.0
 30
0.0
  0
VERTEX
  5
14E
330
14D
100
AcDbEntity
  8
Layer 1
370
     0
100
AcDbVertex
100
AcDb2dVertex
 10
4.03634565752567
 20
-6.44392527675129
 30
0.0
  0
VERTEX
  5
14F
330
14D
100
AcDbEntity
  8
Layer 1
370
     0
100
AcDbVertex
100
AcDb2dVertex
 10
4.03634565752567
 20
-6.44233184518594
 30
0.0
  0
VERTEX
  5
150
330
14D
100
AcDbEntity
  8
Layer 1
370
     0
100
AcDbVertex
100
AcDb2dVertex
 10
4.034837047412617
 20
-6.443479964127542
 30
0.0
  0
VERTEX
  5
151
330
14D
100
AcDbEntity
  8
Layer 1
370
     0
100
AcDbVertex
100
AcDb2dVertex
 10
4.035424738902444
 20
-6.443928306088916
 30
0.0
  0
VERTEX
  5
152
330
14D
100
AcDbEntity
  8
Layer 1
370
     0
100
AcDbVertex
100
AcDb2dVertex
 10
4.03634565752567
 20
-6.44392527675129
 30
0.0
  0
SEQEND
  5
154
330
14D
100
AcDbEntity
  8
Layer 1
370
     0
  0
HATCH
  5
153
330
96
100
AcDbEntity
  8
Layer 1
 62
     7
420
 16776959
100
AcDbHatch
 10
0.0
 20
0.0
 30
0.0
210
0.0
220
0.0
230
1.0
  2
SOLID
 70
     1
 71
     0
 91
        1
 92
        1
 93
        4
 72
     1
 10
4.03634565752567
 20
-6.44392527675129
 11
4.03634565752567
 21
-6.44233184518594
 72
     1
 10
4.03634565752567
 20
-6.44233184518594
 11
4.034837047412617
 21
-6.443479964127542
 72
     1
 10
4.034837047412617
 20
-6.443479964127542
 11
4.035424738902444
 21
-6.443928306088916
 72
     1
 10
4.035424738902444
 20
-6.443928306088916
 11
4.03634565752567
 21
-6.44392527675129
 97
        0
 75
     2
 76
     1
 98
        0
  0
POLYLINE
  5
155
330
96
100
AcDbEntity
  8
Layer 1
370
     0
100
AcDb2dPolyline
 66
     1
 10
0.0
 20
0.0
 30
0.0
  0
VERTEX
  5
156
330
155
100
AcDbEntity
  8
Layer 1
370
     0
100
AcDbVertex
100
AcDb2dVertex
 10
4.034837047412617
 20
-6.443928306088916
 30
0.0
  0
VERTEX
  5
157
330
155
100
AcDbEntity
  8
Layer 1
370
     0
100
AcDbVertex
100
AcDb2dVertex
 10
4.034249355922459
 20
-6.443928306088916
 30
0.0
  0
VERTEX
  5
158
330
155
100
AcDbEntity
  8
Layer 1
370
     0
100
AcDbVertex
100
AcDb2dVertex
 10
4.034249355922459
 20
-6.443931335426491
 30
0.0
  0
VERTEX
  5
159
330
155
100
AcDbEntity
  8
Layer 1
370
     0
100
AcDbVertex
100
AcDb2dVertex
 10
4.034837047412617
 20
-6.443928306088916
 30
0.0
  0
SEQEND
  5
15B
330
155
100
AcDbEntity
  8
Layer 1
370
     0
  0
HATCH
  5
15A
330
96
100
AcDbEntity
  8
Layer 1
 62
     7
420
 16776959
100
AcDbHatch
 10
0.0
 20
0.0
 30
0.0
210
0.0
220
0.0
230
1.0
  2
SOLID
 70
     1
 71
     0
 91
        1
 92
        1
 93
        3
 72
     1
 10
4.034837047412617
 20
-6.443928306088916
 11
4.034249355922459
 21
-6.443928306088916
 72
     1
 10
4.034249355922459
 20
-6.443928306088916
 11
4.034249355922459
 21
-6.443931335426491
 72
     1
 10
4.034249355922459
 20
-6.443931335426491
 11
4.034837047412617
 21
-6.443928306088916
 97
        0
 75
     2
 76
     1
 98
        0
  0
POLYLINE
  5
15C
330
96
100
AcDbEntity
  8
Layer 1
370
     0
100
AcDb2dPolyline
 66
     1
 10
0.0
 20
0.0
 30
0.0
  0
VERTEX
  5
15D
330
15C
100
AcDbEntity
  8
Layer 1
370
     0
100
AcDbVertex
100
AcDb2dVertex
 10
4.035424738902444
 20
-6.443928306088916
 30
0.0
  0
VERTEX
  5
15E
330
15C
100
AcDbEntity
  8
Layer 1
370
     0
100
AcDbVertex
100
AcDb2dVertex
 10
4.035430797577495
 20
-6.443931335426491
 30
0.0
  0
VERTEX
  5
15F
330
15C
100
AcDbEntity
  8
Layer 1
370
     0
100
AcDbVertex
100
AcDb2dVertex
 10
4.034837047412617
 20
-6.443928306088916
 30
0.0
  0
VERTEX
  5
160
330
15C
100
AcDbEntity
  8
Layer 1
370
     0
100
AcDbVertex
100
AcDb2dVertex
 10
4.034249355922459
 20
-6.443931335426491
 30
0.0
  0
VERTEX
  5
161
330
15C
100
AcDbEntity
  8
Layer 1
370
     0
100
AcDbVertex
100
AcDb2dVertex
 10
4.034249355922459
 20
-6.443928306088916
 30
0.0
  0
VERTEX
  5
162
330
15C
100
AcDbEntity
  8
Layer 1
370
     0
100
AcDbVertex
100
AcDb2dVertex
 10
4.033328437299234
 20
-6.44392527675129
 30
0.0
  0
VERTEX
  5
163
330
15C
100
AcDbEntity
  8
Layer 1
370
     0
100
AcDbVertex
100
AcDb2dVertex
 10
4.033328437299234
 20
-6.46536692811896
 30
0.0
  0
VERTEX
  5
164
330
15C
100
AcDbEntity
  8
Layer 1
370
     0
100
AcDbVertex
100
AcDb2dVertex
 10
4.034303883999099
 20
-6.466042470398507
 30
0.0
  0
VERTEX
  5
165
330
15C
100
AcDbEntity
  8
Layer 1
370
     0
100
AcDbVertex
100
AcDb2dVertex
 10
4.034843106087666
 20
-6.466445372296246
 30
0.0
  0
VERTEX
  5
166
330
15C
100
AcDbEntity
  8
Layer 1
370
     0
100
AcDbVertex
100
AcDb2dVertex
 10
4.035376269501183
 20
-6.466042470398507
 30
0.0
  0
VERTEX
  5
167
330
15C
100
AcDbEntity
  8
Layer 1
370
     0
100
AcDbVertex
100
AcDb2dVertex
 10
4.03634565752567
 20
-6.465369957456535
 30
0.0
  0
VERTEX
  5
168
330
15C
100
AcDbEntity
  8
Layer 1
370
     0
100
AcDbVertex
100
AcDb2dVertex
 10
4.03634565752567
 20
-6.44392527675129
 30
0.0
  0
VERTEX
  5
169
330
15C
100
AcDbEntity
  8
Layer 1
370
     0
100
AcDbVertex
100
AcDb2dVertex
 10
4.035424738902444
 20
-6.443928306088916
 30
0.0
  0
SEQEND
  5
16B
330
15C
100
AcDbEntity
  8
Layer 1
370
     0
  0
HATCH
  5
16A
330
96
100
AcDbEntity
  8
Layer 1
 62
     7
420
 16776959
100
AcDbHatch
 10
0.0
 20
0.0
 30
0.0
210
0.0
220
0.0
230
1.0
  2
SOLID
 70
     1
 71
     0
 91
        1
 92
        1
 93
       12
 72
     1
 10
4.035424738902444
 20
-6.443928306088916
 11
4.035430797577495
 21
-6.443931335426491
 72
     1
 10
4.035430797577495
 20
-6.443931335426491
 11
4.034837047412617
 21
-6.443928306088916
 72
     1
 10
4.034837047412617
 20
-6.443928306088916
 11
4.034249355922459
 21
-6.443931335426491
 72
     1
 10
4.034249355922459
 20
-6.443931335426491
 11
4.034249355922459
 21
-6.443928306088916
 72
     1
 10
4.034249355922459
 20
-6.443928306088916
 11
4.033328437299234
 21
-6.44392527675129
 72
     1
 10
4.033328437299234
 20
-6.44392527675129
 11
4.033328437299234
 21
-6.46536692811896
 72
     1
 10
4.033328437299234
 20
-6.46536692811896
 11
4.034303883999099
 21
-6.466042470398507
 72
     1
 10
4.034303883999099
 20
-6.466042470398507
 11
4.034843106087666
 21
-6.466445372296246
 72
     1
 10
4.034843106087666
 20
-6.466445372296246
 11
4.035376269501183
 21
-6.466042470398507
 72
     1
 10
4.035376269501183
 20
-6.466042470398507
 11
4.03634565752567
 21
-6.465369957456535
 72
     1
 10
4.03634565752567
 20
-6.465369957456535
 11
4.03634565752567
 21
-6.44392527675129
 72
     1
 10
4.03634565752567
 20
-6.44392527675129
 11
4.035424738902444
 21
-6.443928306088916
 97
        0
 75
     2
 76
     1
 98
        0
  0
POLYLINE
  5
16C
330
96
100
AcDbEntity
  8
Layer 1
370
     0
100
AcDb2dPolyline
 66
     1
 10
0.0
 20
0.0
 30
0.0
  0
VERTEX
  5
16D
330
16C
100
AcDbEntity
  8
Layer 1
370
     0
100
AcDbVertex
100
AcDb2dVertex
 10
4.033328437299234
 20
-6.44233184518594
 30
0.0
  0
VERTEX
  5
16E
330
16C
100
AcDbEntity
  8
Layer 1
370
     0
100
AcDbVertex
100
AcDb2dVertex
 10
4.034837047412617
 20
-6.443479964127542
 30
0.0
  0
VERTEX
  5
16F
330
16C
100
AcDbEntity
  8
Layer 1
370
     0
100
AcDbVertex
100
AcDb2dVertex
 10
4.03634565752567
 20
-6.44233184518594
 30
0.0
  0
VERTEX
  5
170
330
16C
100
AcDbEntity
  8
Layer 1
370
     0
100
AcDbVertex
100
AcDb2dVertex
 10
4.03634565752567
 20
-6.432419852635197
 30
0.0
  0
VERTEX
  5
171
330
16C
100
AcDbEntity
  8
Layer 1
370
     0
100
AcDbVertex
100
AcDb2dVertex
 10
4.034837047412617
 20
-6.431353525808163
 30
0.0
  0
VERTEX
  5
172
330
16C
100
AcDbEntity
  8
Layer 1
370
     0
100
AcDbVertex
100
AcDb2dVertex
 10
4.033328437299234
 20
-6.432419852635197
 30
0.0
  0
VERTEX
  5
173
330
16C
100
AcDbEntity
  8
Layer 1
370
     0
100
AcDbVertex
100
AcDb2dVertex
 10
4.033328437299234
 20
-6.44233184518594
 30
0.0
  0
SEQEND
  5
175
330
16C
100
AcDbEntity
  8
Layer 1
370
     0
  0
HATCH
  5
174
330
96
100
AcDbEntity
  8
Layer 1
 62
     7
420
 16776959
100
AcDbHatch
 10
0.0
 20
0.0
 30
0.0
210
0.0
220
0.0
230
1.0
  2
SOLID
 70
     1
 71
     0
 91
        1
 92
        1
 93
        6
 72
     1
 10
4.033328437299234
 20
-6.44233184518594
 11
4.034837047412617
 21
-6.443479964127542
 72
     1
 10
4.034837047412617
 20
-6.443479964127542
 11
4.03634565752567
 21
-6.44233184518594
 72
     1
 10
4.03634565752567
 20
-6.44233184518594
 11
4.03634565752567
 21
-6.432419852635197
 72
     1
 10
4.03634565752567
 20
-6.432419852635197
 11
4.034837047412617
 21
-6.431353525808163
 72
     1
 10
4.034837047412617
 20
-6.431353525808163
 11
4.033328437299234
 21
-6.432419852635197
 72
     1
 10
4.033328437299234
 20
-6.432419852635197
 11
4.033328437299234
 21
-6.44233184518594
 97
        0
 75
     2
 76
     1
 98
        0
  0
POLYLINE
  5
176
330
96
100
AcDbEntity
  8
Layer 1
370
     0
100
AcDb2dPolyline
 66
     1
 10
0.0
 20
0.0
 30
0.0
  0
VERTEX
  5
177
330
176
100
AcDbEntity
  8
Layer 1
370
     0
100
AcDbVertex
100
AcDb2dVertex
 10
4.901972811382089
 20
-4.947759682338098
 30
0.0
  0
VERTEX
  5
178
330
176
100
AcDbEntity
  8
Layer 1
370
     0
100
AcDbVertex
100
AcDb2dVertex
 10
4.8931210869829
 20
-4.955066444573074
 30
0.0
  0
VERTEX
  5
179
330
176
100
AcDbEntity
  8
Layer 1
370
     0
100
AcDbVertex
100
AcDb2dVertex
 10
4.901972811382089
 20
-4.947762711675775
 30
0.0
  0
VERTEX
  5
17A
330
176
100
AcDbEntity
  8
Layer 1
370
     0
100
AcDbVertex
100
AcDb2dVertex
 10
4.901972811382089
 20
-4.947759682338098
 30
0.0
  0
SEQEND
  5
17C
330
176
100
AcDbEntity
  8
Layer 1
370
     0
  0
HATCH
  5
17B
330
96
100
AcDbEntity
  8
Layer 1
 62
     7
420
 16776959
100
AcDbHatch
 10
0.0
 20
0.0
 30
0.0
210
0.0
220
0.0
230
1.0
  2
SOLID
 70
     1
 71
     0
 91
        1
 92
        1
 93
        3
 72
     1
 10
4.901972811382089
 20
-4.947759682338098
 11
4.8931210869829
 21
-4.955066444573074
 72
     1
 10
4.8931210869829
 20
-4.955066444573074
 11
4.901972811382089
 21
-4.947762711675775
 72
     1
 10
4.901972811382089
 20
-4.947762711675775
 11
4.901972811382089
 21
-4.947759682338098
 97
        0
 75
     2
 76
     1
 98
        0
  0
SPLINE
  5
17D
330
96
100
AcDbEntity
  8
Layer 1
370
     0
100
AcDbSpline
210
0.0
220
0.0
230
1.0
 70
    27
 71
     3
 72
    14
 73
    10
 74
     0
 42
0.0000000001
 43
0.0000000001
 12
1.0
 22
0.0
 32
0.0
 13
1.0
 23
0.0
 33
0.0
 40
0.0
 40
0.0
 40
0.0
 40
0.0
 40
1.0
 40
1.0
 40
1.0
 40
2.0
 40
2.0
 40
2.0
 40
3.0
 40
3.0
 40
3.0
 40
3.0
 10
4.897319748864068
 20
-4.960364755994684
 30
0.0
 10
4.897319748864068
 20
-4.960364755994684
 30
0.0
 10
4.897319748864068
 20
-4.960364755994684
 30
0.0
 10
4.897319748864068
 20
-4.960364755994684
 30
0.0
 10
4.897319748864068
 20
-4.960364755994684
 30
0.0
 10
4.899646280123104
 20
-4.954060704497603
 30
0.0
 10
4.899646280123104
 20
-4.954060704497603
 30
0.0
 10
4.899646280123104
 20
-4.954060704497603
 30
0.0
 10
4.897319748864068
 20
-4.960364755994684
 30
0.0
 10
4.897319748864068
 20
-4.960364755994684
 30
0.0
  0
HATCH
  5
17E
330
96
100
AcDbEntity
  8
Layer 1
 62
     7
420
 16776959
100
AcDbHatch
 10
0.0
 20
0.0
 30
0.0
210
0.0
220
0.0
230
1.0
  2
SOLID
 70
     1
 71
     0
 91
        1
 92
        1
 93
        1
 72
     4
 94
        3
 73
     0
 74
     1
 95
       14
 96
       10
 40
0.0
 40
0.0
 40
0.0
 40
0.0
 40
1.0
 40
1.0
 40
1.0
 40
2.0
 40
2.0
 40
2.0
 40
3.0
 40
3.0
 40
3.0
 40
3.0
 10
4.897319748864068
 20
-4.960364755994684
 10
4.897319748864068
 20
-4.960364755994684
 10
4.897319748864068
 20
-4.960364755994684
 10
4.897319748864068
 20
-4.960364755994684
 10
4.897319748864068
 20
-4.960364755994684
 10
4.899646280123104
 20
-4.954060704497603
 10
4.899646280123104
 20
-4.954060704497603
 10
4.899646280123104
 20
-4.954060704497603
 10
4.897319748864068
 20
-4.960364755994684
 10
4.897319748864068
 20
-4.960364755994684
 97
        0
 97
        0
 75
     2
 76
     1
 98
        0
  0
POLYLINE
  5
17F
330
96
100
AcDbEntity
  8
Layer 1
370
     0
100
AcDb2dPolyline
 66
     1
 10
0.0
 20
0.0
 30
0.0
  0
VERTEX
  5
180
330
17F
100
AcDbEntity
  8
Layer 1
370
     0
100
AcDbVertex
100
AcDb2dVertex
 10
4.884269362583709
 20
-4.962373206808049
 30
0.0
  0
VERTEX
  5
181
330
17F
100
AcDbEntity
  8
Layer 1
370
     0
100
AcDbVertex
100
AcDb2dVertex
 10
4.884269362583709
 20
-4.962373206808049
 30
0.0
  0
VERTEX
  5
182
330
17F
100
AcDbEntity
  8
Layer 1
370
     0
100
AcDbVertex
100
AcDb2dVertex
 10
4.897319748864068
 20
-4.960364755994684
 30
0.0
  0
VERTEX
  5
183
330
17F
100
AcDbEntity
  8
Layer 1
370
     0
100
AcDbVertex
100
AcDb2dVertex
 10
4.897319748864068
 20
-4.960364755994684
 30
0.0
  0
VERTEX
  5
184
330
17F
100
AcDbEntity
  8
Layer 1
370
     0
100
AcDbVertex
100
AcDb2dVertex
 10
4.884269362583709
 20
-4.962373206808049
 30
0.0
  0
SEQEND
  5
185
330
17F
100
AcDbEntity
  8
Layer 1
370
     0
  0
POLYLINE
  5
186
330
96
100
AcDbEntity
  8
Layer 1
370
     0
100
AcDb2dPolyline
 66
     1
 10
0.0
 20
0.0
 30
0.0
  0
VERTEX
  5
187
330
186
100
AcDbEntity
  8
Layer 1
370
     0
100
AcDbVertex
100
AcDb2dVertex
 10
4.03634565752567
 20
-6.432419852635197
 30
0.0
  0
VERTEX
  5
188
330
186
100
AcDbEntity
  8
Layer 1
370
     0
100
AcDbVertex
100
AcDb2dVertex
 10
4.03634565752567
 20
-6.44233184518594
 30
0.0
  0
VERTEX
  5
189
330
186
100
AcDbEntity
  8
Layer 1
370
     0
100
AcDbVertex
100
AcDb2dVertex
 10
4.042804205238958
 20
-6.437406142286413
 30
0.0
  0
VERTEX
  5
18A
330
186
100
AcDbEntity
  8
Layer 1
370
     0
100
AcDbVertex
100
AcDb2dVertex
 10
4.03634565752567
 20
-6.432419852635197
 30
0.0
  0
SEQEND
  5
18C
330
186
100
AcDbEntity
  8
Layer 1
370
     0
  0
HATCH
  5
18B
330
96
100
AcDbEntity
  8
Layer 1
 62
     7
420
 16776959
100
AcDbHatch
 10
0.0
 20
0.0
 30
0.0
210
0.0
220
0.0
230
1.0
  2
SOLID
 70
     1
 71
     0
 91
        1
 92
        1
 93
        3
 72
     1
 10
4.03634565752567
 20
-6.432419852635197
 11
4.03634565752567
 21
-6.44233184518594
 72
     1
 10
4.03634565752567
 20
-6.44233184518594
 11
4.042804205238958
 21
-6.437406142286413
 72
     1
 10
4.042804205238958
 20
-6.437406142286413
 11
4.03634565752567
 21
-6.432419852635197
 97
        0
 75
     2
 76
     1
 98
        0
  0
POLYLINE
  5
18D
330
96
100
AcDbEntity
  8
Layer 1
370
     0
100
AcDb2dPolyline
 66
     1
 10
0.0
 20
0.0
 30
0.0
  0
VERTEX
  5
18E
330
18D
100
AcDbEntity
  8
Layer 1
370
     0
100
AcDbVertex
100
AcDb2dVertex
 10
4.051201529001597
 20
-6.443888924700381
 30
0.0
  0
VERTEX
  5
18F
330
18D
100
AcDbEntity
  8
Layer 1
370
     0
100
AcDbVertex
100
AcDb2dVertex
 10
4.042804205238958
 20
-6.437406142286413
 30
0.0
  0
VERTEX
  5
190
330
18D
100
AcDbEntity
  8
Layer 1
370
     0
100
AcDbVertex
100
AcDb2dVertex
 10
4.03634565752567
 20
-6.44233184518594
 30
0.0
  0
VERTEX
  5
191
330
18D
100
AcDbEntity
  8
Layer 1
370
     0
100
AcDbVertex
100
AcDb2dVertex
 10
4.03634565752567
 20
-6.44392527675129
 30
0.0
  0
VERTEX
  5
192
330
18D
100
AcDbEntity
  8
Layer 1
370
     0
100
AcDbVertex
100
AcDb2dVertex
 10
4.051201529001597
 20
-6.443888924700381
 30
0.0
  0
SEQEND
  5
194
330
18D
100
AcDbEntity
  8
Layer 1
370
     0
  0
HATCH
  5
193
330
96
100
AcDbEntity
  8
Layer 1
 62
     7
420
 16776959
100
AcDbHatch
 10
0.0
 20
0.0
 30
0.0
210
0.0
220
0.0
230
1.0
  2
SOLID
 70
     1
 71
     0
 91
        1
 92
        1
 93
        4
 72
     1
 10
4.051201529001597
 20
-6.443888924700381
 11
4.042804205238958
 21
-6.437406142286413
 72
     1
 10
4.042804205238958
 20
-6.437406142286413
 11
4.03634565752567
 21
-6.44233184518594
 72
     1
 10
4.03634565752567
 20
-6.44233184518594
 11
4.03634565752567
 21
-6.44392527675129
 72
     1
 10
4.03634565752567
 20
-6.44392527675129
 11
4.051201529001597
 21
-6.443888924700381
 97
        0
 75
     2
 76
     1
 98
        0
  0
ENDBLK
  5
99
330
96
100
AcDbEntity
  8
0
100
AcDbBlockEnd
  0
BLOCK
  5
197
330
195
100
AcDbEntity
  8
0
100
AcDbBlockBegin
  2
block 18
 70
     0
 10
0.0
 20
0.0
 30
0.0
  3
block 18
  1

  0
POLYLINE
  5
199
330
195
100
AcDbEntity
  8
Layer 1
370
     0
100
AcDb2dPolyline
 66
     1
 10
0.0
 20
0.0
 30
0.0
  0
VERTEX
  5
19A
330
199
100
AcDbEntity
  8
Layer 1
370
     0
100
AcDbVertex
100
AcDb2dVertex
 10
4.178761431828408
 20
-5.775022978290104
 30
0.0
  0
VERTEX
  5
19B
330
199
100
AcDbEntity
  8
Layer 1
370
     0
100
AcDbVertex
100
AcDb2dVertex
 10
4.042045554916032
 20
-5.663344885190554
 30
0.0
  0
VERTEX
  5
19C
330
199
100
AcDbEntity
  8
Layer 1
370
     0
100
AcDbVertex
100
AcDb2dVertex
 10
3.913077025044092
 20
-5.77430468121348
 30
0.0
  0
VERTEX
  5
19D
330
199
100
AcDbEntity
  8
Layer 1
370
     0
100
AcDbVertex
100
AcDb2dVertex
 10
3.777982469284072
 20
-5.775022978290104
 30
0.0
  0
VERTEX
  5
19E
330
199
100
AcDbEntity
  8
Layer 1
370
     0
100
AcDbVertex
100
AcDb2dVertex
 10
4.040608960762862
 20
-5.549101445388891
 30
0.0
  0
VERTEX
  5
19F
330
199
100
AcDbEntity
  8
Layer 1
370
     0
100
AcDbVertex
100
AcDb2dVertex
 10
4.31715880462179
 20
-5.775022978290104
 30
0.0
  0
VERTEX
  5
1A0
330
199
100
AcDbEntity
  8
Layer 1
370
     0
100
AcDbVertex
100
AcDb2dVertex
 10
4.178761431828408
 20
-5.775022978290104
 30
0.0
  0
SEQEND
  5
1A2
330
199
100
AcDbEntity
  8
Layer 1
370
     0
  0
HATCH
  5
1A1
330
195
100
AcDbEntity
  8
Layer 1
 62
     7
420
 16776959
100
AcDbHatch
 10
0.0
 20
0.0
 30
0.0
210
0.0
220
0.0
230
1.0
  2
SOLID
 70
     1
 71
     0
 91
        1
 92
        1
 93
        6
 72
     1
 10
4.178761431828408
 20
-5.775022978290104
 11
4.042045554916032
 21
-5.663344885190554
 72
     1
 10
4.042045554916032
 20
-5.663344885190554
 11
3.913077025044092
 21
-5.77430468121348
 72
     1
 10
3.913077025044092
 20
-5.77430468121348
 11
3.777982469284072
 21
-5.775022978290104
 72
     1
 10
3.777982469284072
 20
-5.775022978290104
 11
4.040608960762862
 21
-5.549101445388891
 72
     1
 10
4.040608960762862
 20
-5.549101445388891
 11
4.31715880462179
 21
-5.775022978290104
 72
     1
 10
4.31715880462179
 20
-5.775022978290104
 11
4.178761431828408
 21
-5.775022978290104
 97
        0
 75
     2
 76
     1
 98
        0
  0
ENDBLK
  5
198
330
195
100
AcDbEntity
  8
0
100
AcDbBlockEnd
  0
ENDSEC
  0
SECTION
  2
ENTITIES
  0
INSERT
  5
42
330
1F
100
AcDbEntity
  8
Layer 1
100
AcDbBlockReference
  2
block 2
 10
0.0
 20
0.0
 30
0.0
  0
ENDSEC
  0
SECTION
  2
OBJECTS
  0
DICTIONARY
  5
C
330
0
100
AcDbDictionary
281
     1
  3
ACAD_GROUP
350
D
  3
ACAD_LAYOUT
350
1A
  3
ACAD_MATERIAL
350
3B
  3
ACAD_MLEADERSTYLE
350
1A5
  3
ACAD_MLINESTYLE
350
17
  3
ACAD_PLOTSETTINGS
350
19
  3
ACAD_PLOTSTYLENAME
350
E
  3
ACAD_TABLESTYLE
350
1A4
  3
ACAD_VISUALSTYLE
350
2A
  0
SUN
  5
3F
330
29
100
AcDbSun
 90
        1
290
     0
 63
     7
421
 16777215
 40
1.0
291
     1
 91
  2455826
 92
 54000000
292
     0
 70
     2
 71
   256
280
     1
  0
DICTIONARY
  5
D
102
{ACAD_REACTORS
330
C
102
}
330
C
100
AcDbDictionary
281
     1
  0
DICTIONARY
  5
1A
102
{ACAD_REACTORS
330
C
102
}
330
C
100
AcDbDictionary
281
     1
  3
Layout1
350
1E
  3
Layout2
350
26
  3
Model
350
22
  0
DICTIONARY
  5
3B
102
{ACAD_REACTORS
330
C
102
}
330
C
100
AcDbDictionary
281
     1
  3
ByBlock
350
3D
  3
ByLayer
350
3C
  3
Global
350
3E
  0
DICTIONARY
  5
1A5
102
{ACAD_REACTORS
330
C
102
}
330
C
100
AcDbDictionary
281
     1
  0
DICTIONARY
  5
17
102
{ACAD_REACTORS
330
C
102
}
330
C
100
AcDbDictionary
281
     1
  3
Standard
350
18
  0
DICTIONARY
  5
19
102
{ACAD_REACTORS
330
C
102
}
330
C
100
AcDbDictionary
281
     1
  0
ACDBDICTIONARYWDFLT
  5
E
102
{ACAD_REACTORS
330
C
102
}
330
C
100
AcDbDictionary
281
     1
  3
Normal
350
F
100
AcDbDictionaryWithDefault
340
F
  0
DICTIONARY
  5
1A4
102
{ACAD_REACTORS
330
C
102
}
330
C
100
AcDbDictionary
281
     1
  0
DICTIONARY
  5
2A
102
{ACAD_REACTORS
330
C
102
}
330
C
100
AcDbDictionary
281
     1
  3
2dWireframe
350
2F
  3
3D Hidden
350
31
  3
3dWireframe
350
30
  3
Basic
350
32
  3
Brighten
350
36
  3
ColorChange
350
3A
  3
Conceptual
350
34
  3
Dim
350
35
  3
Facepattern
350
39
  3
Flat
350
2B
  3
FlatWithEdges
350
2C
  3
Gouraud
350
2D
  3
GouraudWithEdges
350
2E
  3
Linepattern
350
38
  3
Realistic
350
33
  3
Thicken
350
37
  0
LAYOUT
  5
1E
102
{ACAD_REACTORS
330
1A
102
}
330
1A
100
AcDbPlotSettings
  1

  2
none_device
  4

  6

 40
0.0
 41
0.0
 42
0.0
 43
0.0
 44
0.0
 45
0.0
 46
0.0
 47
0.0
 48
0.0
 49
0.0
140
0.0
141
0.0
142
1.0
143
1.0
 70
   688
 72
     0
 73
     0
 74
     5
  7

 75
    16
 76
     0
 77
     2
 78
   300
147
1.0
148
0.0
149
0.0
100
AcDbLayout
  1
Layout1
 70
     1
 71
     1
 10
0.0
 20
0.0
 11
12.0
 21
9.0
 12
0.0
 22
0.0
 32
0.0
 14
1.000000000000000E+20
 24
1.000000000000000E+20
 34
1.000000000000000E+20
 15
-1.000000000000000E+20
 25
-1.000000000000000E+20
 35
-1.000000000000000E+20
146
0.0
 13
0.0
 23
0.0
 33
0.0
 16
1.0
 26
0.0
 36
0.0
 17
0.0
 27
1.0
 37
0.0
 76
     0
330
1B
  0
LAYOUT
  5
26
102
{ACAD_REACTORS
330
1A
102
}
330
1A
100
AcDbPlotSettings
  1

  2
none_device
  4

  6

 40
0.0
 41
0.0
 42
0.0
 43
0.0
 44
0.0
 45
0.0
 46
0.0
 47
0.0
 48
0.0
 49
0.0
140
0.0
141
0.0
142
1.0
143
1.0
 70
   688
 72
     0
 73
     0
 74
     5
  7

 75
    16
 76
     0
 77
     2
 78
   300
147
1.0
148
0.0
149
0.0
100
AcDbLayout
  1
Layout2
 70
     1
 71
     2
 10
0.0
 20
0.0
 11
0.0
 21
0.0
 12
0.0
 22
0.0
 32
0.0
 14
0.0
 24
0.0
 34
0.0
 15
0.0
 25
0.0
 35
0.0
146
0.0
 13
0.0
 23
0.0
 33
0.0
 16
1.0
 26
0.0
 36
0.0
 17
0.0
 27
1.0
 37
0.0
 76
     0
330
23
  0
LAYOUT
  5
22
102
{ACAD_REACTORS
330
1A
102
}
330
1A
100
AcDbPlotSettings
  1

  2
none_device
  4

  6

 40
0.0
 41
0.0
 42
0.0
 43
0.0
 44
0.0
 45
0.0
 46
0.0
 47
0.0
 48
0.0
 49
0.0
140
0.0
141
0.0
142
1.0
143
1.0
 70
  1712
 72
     0
 73
     0
 74
     0
  7

 75
     0
 76
     0
 77
     2
 78
   300
147
1.0
148
0.0
149
0.0
100
AcDbLayout
  1
Model
 70
     1
 71
     0
 10
0.0
 20
0.0
 11
12.0
 21
9.0
 12
0.0
 22
0.0
 32
0.0
 14
1.000000000000000E+20
 24
1.000000000000000E+20
 34
1.000000000000000E+20
 15
-1.000000000000000E+20
 25
-1.000000000000000E+20
 35
-1.000000000000000E+20
146
0.0
 13
0.0
 23
0.0
 33
0.0
 16
1.0
 26
0.0
 36
0.0
 17
0.0
 27
1.0
 37
0.0
 76
     0
330
1F
331
29
  0
MATERIAL
  5
3D
102
{ACAD_REACTORS
330
3B
102
}
330
3B
100
AcDbMaterial
  1
ByBlock
 72
     1
 94
      127
  0
MATERIAL
  5
3C
102
{ACAD_REACTORS
330
3B
102
}
330
3B
100
AcDbMaterial
  1
ByLayer
 72
     1
 94
      127
  0
MATERIAL
  5
3E
102
{ACAD_REACTORS
330
3B
102
}
330
3B
100
AcDbMaterial
  1
Global
 72
     1
 94
      127
  0
MLINESTYLE
  5
18
102
{ACAD_REACTORS
330
17
102
}
330
17
100
AcDbMlineStyle
  2
Standard
 70
     0
  3

 62
   256
 51
90.0
 52
90.0
 71
     2
 49
0.5
 62
   256
  6
BYLAYER
 49
-0.5
 62
   256
  6
BYLAYER
  0
ACDBPLACEHOLDER
  5
F
102
{ACAD_REACTORS
330
E
102
}
330
E
  0
VISUALSTYLE
  5
2F
102
{ACAD_REACTORS
330
2A
102
}
330
2A
100
AcDbVisualStyle
  2
2dWireframe
 70
     4
177
     2
291
     0
 71
     0
176
     1
 72
     2
176
     1
 73
     0
176
     1
 90
        0
176
     1
 40
-0.6
176
     1
 41
-30.0
176
     1
 62
     5
 63
     7
421
 16777215
176
     1
 74
     1
176
     1
 91
        4
176
     1
 64
     7
176
     1
 65
   257
176
     1
 75
     1
176
     1
175
     1
176
     1
 42
1.0
176
     1
 92
        0
176
     1
 66
   257
176
     1
 43
1.0
176
     1
 76
     1
176
     1
 77
     6
176
     1
 78
     2
176
     1
 67
     7
176
     1
 79
     5
176
     1
170
     0
176
     1
171
     0
176
     1
290
     0
176
     1
 93
        1
176
     1
 44
0.0
176
     1
173
     0
176
     1
  0
VISUALSTYLE
  5
31
102
{ACAD_REACTORS
330
2A
102
}
330
2A
100
AcDbVisualStyle
  2
3D Hidden
 70
     6
177
     2
291
     0
 71
     1
176
     1
 72
     2
176
     1
 73
     2
176
     1
 90
        0
176
     1
 40
-0.6
176
     1
 41
-30.0
176
     1
 62
     5
 63
     7
421
 16777215
176
     1
 74
     2
176
     1
 91
        2
176
     1
 64
     7
176
     1
 65
   257
176
     1
 75
     2
176
     1
175
     1
176
     1
 42
40.0
176
     1
 92
        0
176
     1
 66
   257
176
     1
 43
1.0
176
     1
 76
     1
176
     1
 77
     6
176
     1
 78
     2
176
     1
 67
     7
176
     1
 79
     3
176
     1
170
     0
176
     1
171
     0
176
     1
290
     0
176
     1
 93
        1
176
     1
 44
0.0
176
     1
173
     0
176
     1
  0
VISUALSTYLE
  5
30
102
{ACAD_REACTORS
330
2A
102
}
330
2A
100
AcDbVisualStyle
  2
3dWireframe
 70
     5
177
     2
291
     0
 71
     0
176
     1
 72
     2
176
     1
 73
     0
176
     1
 90
        0
176
     1
 40
-0.6
176
     1
 41
-30.0
176
     1
 62
     5
 63
     7
421
 16777215
176
     1
 74
     1
176
     1
 91
        4
176
     1
 64
     7
176
     1
 65
   257
176
     1
 75
     1
176
     1
175
     1
176
     1
 42
1.0
176
     1
 92
        0
176
     1
 66
   257
176
     1
 43
1.0
176
     1
 76
     1
176
     1
 77
     6
176
     1
 78
     2
176
     1
 67
     7
176
     1
 79
     5
176
     1
170
     0
176
     1
171
     0
176
     1
290
     0
176
     1
 93
        1
176
     1
 44
0.0
176
     1
173
     0
176
     1
  0
VISUALSTYLE
  5
32
102
{ACAD_REACTORS
330
2A
102
}
330
2A
100
AcDbVisualStyle
  2
Basic
 70
     7
177
     2
291
     1
 71
     1
176
     1
 72
     0
176
     1
 73
     1
176
     1
 90
        0
176
     1
 40
-0.6
176
     1
 41
-30.0
176
     1
 62
     5
 63
     7
421
 16777215
176
     1
 74
     0
176
     1
 91
        4
176
     1
 64
     7
176
     1
 65
   257
176
     1
 75
     1
176
     1
175
     1
176
     1
 42
1.0
176
     1
 92
        8
176
     1
 66
     7
176
     1
 43
1.0
176
     1
 76
     1
176
     1
 77
     6
176
     1
 78
     2
176
     1
 67
     7
176
     1
 79
     5
176
     1
170
     0
176
     1
171
     0
176
     1
290
     0
176
     1
 93
        1
176
     1
 44
0.0
176
     1
173
     0
176
     1
  0
VISUALSTYLE
  5
36
102
{ACAD_REACTORS
330
2A
102
}
330
2A
100
AcDbVisualStyle
  2
Brighten
 70
    12
177
     2
291
     1
 71
     2
176
     1
 72
     2
176
     1
 73
     0
176
     1
 90
        0
176
     1
 40
-0.6
176
     1
 41
-30.0
176
     1
 62
     5
 63
     7
421
 16777215
176
     1
 74
     1
176
     1
 91
        4
176
     1
 64
     7
176
     1
 65
   257
176
     1
 75
     1
176
     1
175
     1
176
     1
 42
1.0
176
     1
 92
        8
176
     1
 66
     7
176
     1
 43
1.0
176
     1
 76
     1
176
     1
 77
     6
176
     1
 78
     2
176
     1
 67
     7
176
     1
 79
     5
176
     1
170
     0
176
     1
171
     0
176
     1
290
     0
176
     1
 93
        1
176
     1
 44
50.0
176
     1
173
     0
176
     1
  0
VISUALSTYLE
  5
3A
102
{ACAD_REACTORS
330
2A
102
}
330
2A
100
AcDbVisualStyle
  2
ColorChange
 70
    16
177
     2
291
     1
 71
     2
176
     1
 72
     2
176
     1
 73
     3
176
     1
 90
        0
176
     1
 40
-0.6
176
     1
 41
-30.0
176
     1
 62
     5
 63
     8
421
  8421504
176
     1
 74
     1
176
     1
 91
        4
176
     1
 64
     7
176
     1
 65
   257
176
     1
 75
     1
176
     1
175
     1
176
     1
 42
1.0
176
     1
 92
        8
176
     1
 66
     8
424
  8421504
176
     1
 43
1.0
176
     1
 76
     1
176
     1
 77
     6
176
     1
 78
     2
176
     1
 67
     7
176
     1
 79
     5
176
     1
170
     0
176
     1
171
     0
176
     1
290
     0
176
     1
 93
        1
176
     1
 44
0.0
176
     1
173
     0
176
     1
  0
VISUALSTYLE
  5
34
102
{ACAD_REACTORS
330
2A
102
}
330
2A
100
AcDbVisualStyle
  2
Conceptual
 70
     9
177
     2
291
     0
 71
     3
176
     1
 72
     2
176
     1
 73
     0
176
     1
 90
        0
176
     1
 40
-0.6
176
     1
 41
-30.0
176
     1
 62
     5
 63
     7
421
 16777215
176
     1
 74
     2
176
     1
 91
        2
176
     1
 64
     7
176
     1
 65
   257
176
     1
 75
     1
176
     1
175
     1
176
     1
 42
40.0
176
     1
 92
        8
176
     1
 66
     7
176
     1
 43
1.0
176
     1
 76
     1
176
     1
 77
     6
176
     1
 78
     2
176
     1
 67
     7
176
     1
 79
     3
176
     1
170
     0
176
     1
171
     0
176
     1
290
     0
176
     1
 93
        1
176
     1
 44
0.0
176
     1
173
     0
176
     1
  0
VISUALSTYLE
  5
35
102
{ACAD_REACTORS
330
2A
102
}
330
2A
100
AcDbVisualStyle
  2
Dim
 70
    11
177
     2
291
     1
 71
     2
176
     1
 72
     2
176
     1
 73
     0
176
     1
 90
        0
176
     1
 40
-0.6
176
     1
 41
-30.0
176
     1
 62
     5
 63
     7
421
 16777215
176
     1
 74
     1
176
     1
 91
        4
176
     1
 64
     7
176
     1
 65
   257
176
     1
 75
     1
176
     1
175
     1
176
     1
 42
1.0
176
     1
 92
        8
176
     1
 66
     7
176
     1
 43
1.0
176
     1
 76
     1
176
     1
 77
     6
176
     1
 78
     2
176
     1
 67
     7
176
     1
 79
     5
176
     1
170
     0
176
     1
171
     0
176
     1
290
     0
176
     1
 93
        1
176
     1
 44
-50.0
176
     1
173
     0
176
     1
  0
VISUALSTYLE
  5
39
102
{ACAD_REACTORS
330
2A
102
}
330
2A
100
AcDbVisualStyle
  2
Facepattern
 70
    15
177
     2
291
     1
 71
     2
176
     1
 72
     2
176
     1
 73
     0
176
     1
 90
        0
176
     1
 40
-0.6
176
     1
 41
-30.0
176
     1
 62
     5
 63
     7
421
 16777215
176
     1
 74
     1
176
     1
 91
        4
176
     1
 64
     7
176
     1
 65
   257
176
     1
 75
     1
176
     1
175
     1
176
     1
 42
1.0
176
     1
 92
        8
176
     1
 66
     7
176
     1
 43
1.0
176
     1
 76
     1
176
     1
 77
     6
176
     1
 78
     2
176
     1
 67
     7
176
     1
 79
     5
176
     1
170
     0
176
     1
171
     0
176
     1
290
     0
176
     1
 93
        1
176
     1
 44
0.0
176
     1
173
     0
176
     1
  0
VISUALSTYLE
  5
2B
102
{ACAD_REACTORS
330
2A
102
}
330
2A
100
AcDbVisualStyle
  2
Flat
 70
     0
177
     2
291
     1
 71
     2
176
     1
 72
     1
176
     1
 73
     1
176
     1
 90
        2
176
     1
 40
-0.6
176
     1
 41
30.0
176
     1
 62
     5
 63
     7
421
 16777215
176
     1
 74
     0
176
     1
 91
        4
176
     1
 64
     7
176
     1
 65
   257
176
     1
 75
     1
176
     1
175
     1
176
     1
 42
1.0
176
     1
 92
        8
176
     1
 66
     7
176
     1
 43
1.0
176
     1
 76
     1
176
     1
 77
     6
176
     1
 78
     2
176
     1
 67
     7
176
     1
 79
     5
176
     1
170
     0
176
     1
171
     0
176
     1
290
     0
176
     1
 93
       13
176
     1
 44
0.0
176
     1
173
     0
176
     1
  0
VISUALSTYLE
  5
2C
102
{ACAD_REACTORS
330
2A
102
}
330
2A
100
AcDbVisualStyle
  2
FlatWithEdges
 70
     1
177
     2
291
     1
 71
     2
176
     1
 72
     1
176
     1
 73
     1
176
     1
 90
        2
176
     1
 40
-0.6
176
     1
 41
30.0
176
     1
 62
     5
 63
     7
421
 16777215
176
     1
 74
     1
176
     1
 91
        4
176
     1
 64
     7
176
     1
 65
   257
176
     1
 75
     1
176
     1
175
     1
176
     1
 42
1.0
176
     1
 92
        0
176
     1
 66
   257
176
     1
 43
1.0
176
     1
 76
     1
176
     1
 77
     6
176
     1
 78
     2
176
     1
 67
     7
176
     1
 79
     5
176
     1
170
     0
176
     1
171
     0
176
     1
290
     0
176
     1
 93
       13
176
     1
 44
0.0
176
     1
173
     0
176
     1
  0
VISUALSTYLE
  5
2D
102
{ACAD_REACTORS
330
2A
102
}
330
2A
100
AcDbVisualStyle
  2
Gouraud
 70
     2
177
     2
291
     1
 71
     2
176
     1
 72
     2
176
     1
 73
     1
176
     1
 90
        2
176
     1
 40
-0.6
176
     1
 41
30.0
176
     1
 62
     5
 63
     7
421
 16777215
176
     1
 74
     0
176
     1
 91
        4
176
     1
 64
     7
176
     1
 65
   257
176
     1
 75
     1
176
     1
175
     1
176
     1
 42
1.0
176
     1
 92
        0
176
     1
 66
     7
176
     1
 43
1.0
176
     1
 76
     1
176
     1
 77
     6
176
     1
 78
     2
176
     1
 67
     7
176
     1
 79
     5
176
     1
170
     0
176
     1
171
     0
176
     1
290
     0
176
     1
 93
       13
176
     1
 44
0.0
176
     1
173
     0
176
     1
  0
VISUALSTYLE
  5
2E
102
{ACAD_REACTORS
330
2A
102
}
330
2A
100
AcDbVisualStyle
  2
GouraudWithEdges
 70
     3
177
     2
291
     1
 71
     2
176
     1
 72
     2
176
     1
 73
     1
176
     1
 90
        2
176
     1
 40
-0.6
176
     1
 41
30.0
176
     1
 62
     5
 63
     7
421
 16777215
176
     1
 74
     1
176
     1
 91
        4
176
     1
 64
     7
176
     1
 65
   257
176
     1
 75
     1
176
     1
175
     1
176
     1
 42
1.0
176
     1
 92
        0
176
     1
 66
   257
176
     1
 43
1.0
176
     1
 76
     1
176
     1
 77
     6
176
     1
 78
     2
176
     1
 67
     7
176
     1
 79
     5
176
     1
170
     0
176
     1
171
     0
176
     1
290
     0
176
     1
 93
       13
176
     1
 44
0.0
176
     1
173
     0
176
     1
  0
VISUALSTYLE
  5
38
102
{ACAD_REACTORS
330
2A
102
}
330
2A
100
AcDbVisualStyle
  2
Linepattern
 70
    14
177
     2
291
     1
 71
     2
176
     1
 72
     2
176
     1
 73
     0
176
     1
 90
        0
176
     1
 40
-0.6
176
     1
 41
-30.0
176
     1
 62
     5
 63
     7
421
 16777215
176
     1
 74
     1
176
     1
 91
        4
176
     1
 64
     7
176
     1
 65
   257
176
     1
 75
     7
176
     1
175
     7
176
     1
 42
1.0
176
     1
 92
        8
176
     1
 66
     7
176
     1
 43
1.0
176
     1
 76
     1
176
     1
 77
     6
176
     1
 78
     2
176
     1
 67
     7
176
     1
 79
     5
176
     1
170
     0
176
     1
171
     0
176
     1
290
     0
176
     1
 93
        1
176
     1
 44
0.0
176
     1
173
     0
176
     1
  0
VISUALSTYLE
  5
33
102
{ACAD_REACTORS
330
2A
102
}
330
2A
100
AcDbVisualStyle
  2
Realistic
 70
     8
177
     2
291
     0
 71
     2
176
     1
 72
     2
176
     1
 73
     0
176
     1
 90
        0
176
     1
 40
-0.6
176
     1
 41
-30.0
176
     1
 62
     5
 63
     7
421
 16777215
176
     1
 74
     1
176
     1
 91
        0
176
     1
 64
     7
176
     1
 65
   257
176
     1
 75
     1
176
     1
175
     1
176
     1
 42
1.0
176
     1
 92
        8
176
     1
 66
     8
424
  7895160
176
     1
 43
1.0
176
     1
 76
     1
176
     1
 77
     6
176
     1
 78
     2
176
     1
 67
     7
176
     1
 79
     5
176
     1
170
     0
176
     1
171
     0
176
     1
290
     0
176
     1
 93
       13
176
     1
 44
0.0
176
     1
173
     0
176
     1
  0
VISUALSTYLE
  5
37
102
{ACAD_REACTORS
330
2A
102
}
330
2A
100
AcDbVisualStyle
  2
Thicken
 70
    13
177
     2
291
     1
 71
     2
176
     1
 72
     2
176
     1
 73
     0
176
     1
 90
        0
176
     1
 40
-0.6
176
     1
 41
-30.0
176
     1
 62
     5
 63
     7
421
 16777215
176
     1
 74
     1
176
     1
 91
        4
176
     1
 64
     7
176
     1
 65
   257
176
     1
 75
     1
176
     1
175
     1
176
     1
 42
1.0
176
     1
 92
       12
176
     1
 66
     7
176
     1
 43
1.0
176
     1
 76
     1
176
     1
 77
     6
176
     1
 78
     2
176
     1
 67
     7
176
     1
 79
     5
176
     1
170
     0
176
     1
171
     0
176
     1
290
     0
176
     1
 93
        1
176
     1
 44
0.0
176
     1
173
     0
176
     1
  0
ENDSEC
  0
EOF
