999
"DXF R12 Output" (www.mydxf.blogspot.com)
 0 
SECTION
 2 
HEADER
 9 
$ACADVER
 1 
AC1009
 9 
$EXTMIN
 10 
 0 
 20 
 0 
 9 
$EXTMAX
 10 
 8.5 
 20 
 11 
 0 
ENDSEC
 0 
SECTION
 2 
ENTITIES
0
LINE
8
Layer 1
10
110.990111
20
55.562570
11
110.718884
21
50.084225
0
LINE
8
Layer 1
10
110.718884
20
50.084225
11
109.915242
21
44.698670
0
LINE
8
Layer 1
10
109.915242
20
44.698670
11
108.594239
21
39.442252
0
LINE
8
Layer 1
10
108.594239
20
39.442252
11
106.770930
21
34.351315
0
LINE
8
Layer 1
10
106.770930
20
34.351315
11
104.460368
21
29.462204
0
LINE
8
Layer 1
10
104.460368
20
29.462204
11
101.677609
21
24.811265
0
LINE
8
Layer 1
10
101.677609
20
24.811265
11
98.437708
21
20.434842
0
LINE
8
Layer 1
10
98.437708
20
20.434842
11
94.755719
21
16.369281
0
LINE
8
Layer 1
10
94.755719
20
16.369281
11
90.690158
21
12.687292
0
LINE
8
Layer 1
10
90.690158
20
12.687292
11
86.313735
21
9.447391
0
LINE
8
Layer 1
10
86.313735
20
9.447391
11
81.662796
21
6.664632
0
LINE
8
Layer 1
10
81.662796
20
6.664632
11
76.773685
21
4.354070
0
LINE
8
Layer 1
10
76.773685
20
4.354070
11
71.682748
21
2.530761
0
LINE
8
Layer 1
10
71.682748
20
2.530761
11
66.426330
21
1.209758
0
LINE
8
Layer 1
10
66.426330
20
1.209758
11
61.040775
21
0.406116
0
LINE
8
Layer 1
10
61.040775
20
0.406116
11
55.562430
21
0.134889
0
LINE
8
Layer 1
10
55.562430
20
0.134889
11
49.895272
21
0.421056
0
LINE
8
Layer 1
10
49.895272
20
0.421056
11
44.391819
21
1.260983
0
LINE
8
Layer 1
10
44.391819
20
1.260983
11
39.079933
21
2.626808
0
LINE
8
Layer 1
10
39.079933
20
2.626808
11
33.987476
21
4.490672
0
LINE
8
Layer 1
10
33.987476
20
4.490672
11
29.142306
21
6.824711
0
LINE
8
Layer 1
10
29.142306
20
6.824711
11
24.572287
21
9.601067
0
LINE
8
Layer 1
10
24.572287
20
9.601067
11
20.305278
21
12.791877
0
LINE
8
Layer 1
10
20.305278
20
12.791877
11
16.369142
21
16.369281
0
LINE
8
Layer 1
10
16.369142
20
16.369281
11
12.791738
21
20.305418
0
LINE
8
Layer 1
10
12.791738
20
20.305418
11
9.600927
21
24.572427
0
LINE
8
Layer 1
10
9.600927
20
24.572427
11
6.824572
21
29.142446
0
LINE
8
Layer 1
10
6.824572
20
29.142446
11
4.490532
21
33.987616
0
LINE
8
Layer 1
10
4.490532
20
33.987616
11
2.626669
21
39.080073
0
LINE
8
Layer 1
10
2.626669
20
39.080073
11
1.260844
21
44.391959
0
LINE
8
Layer 1
10
1.260844
20
44.391959
11
0.420917
21
49.895412
0
LINE
8
Layer 1
10
0.420917
20
49.895412
11
0.134750
21
55.562570
0
LINE
8
Layer 1
10
0.134750
20
55.562570
11
0.420917
21
61.229728
0
LINE
8
Layer 1
10
0.420917
20
61.229728
11
1.260844
21
66.733181
0
LINE
8
Layer 1
10
1.260844
20
66.733181
11
2.626669
21
72.045066
0
LINE
8
Layer 1
10
2.626669
20
72.045066
11
4.490532
21
77.137524
0
LINE
8
Layer 1
10
4.490532
20
77.137524
11
6.824572
21
81.982693
0
LINE
8
Layer 1
10
6.824572
20
81.982693
11
9.600927
21
86.552713
0
LINE
8
Layer 1
10
9.600927
20
86.552713
11
12.791738
21
90.819721
0
LINE
8
Layer 1
10
12.791738
20
90.819721
11
16.369142
21
94.755858
0
LINE
8
Layer 1
10
16.369142
20
94.755858
11
20.305278
21
98.333262
0
LINE
8
Layer 1
10
20.305278
20
98.333262
11
24.572287
21
101.524072
0
LINE
8
Layer 1
10
24.572287
20
101.524072
11
29.142306
21
104.300428
0
LINE
8
Layer 1
10
29.142306
20
104.300428
11
33.987476
21
106.634468
0
LINE
8
Layer 1
10
33.987476
20
106.634468
11
39.079933
21
108.498331
0
LINE
8
Layer 1
10
39.079933
20
108.498331
11
44.391819
21
109.864156
0
LINE
8
Layer 1
10
44.391819
20
109.864156
11
49.895272
21
110.704083
0
LINE
8
Layer 1
10
49.895272
20
110.704083
11
55.562430
21
110.990250
0
LINE
8
Layer 1
10
55.562430
20
110.990250
11
61.040775
21
110.719024
0
LINE
8
Layer 1
10
61.040775
20
110.719024
11
66.426330
21
109.915382
0
LINE
8
Layer 1
10
66.426330
20
109.915382
11
71.682748
21
108.594379
0
LINE
8
Layer 1
10
71.682748
20
108.594379
11
76.773685
21
106.771069
0
LINE
8
Layer 1
10
76.773685
20
106.771069
11
81.662796
21
104.460507
0
LINE
8
Layer 1
10
81.662796
20
104.460507
11
86.313735
21
101.677749
0
LINE
8
Layer 1
10
86.313735
20
101.677749
11
90.690158
21
98.437847
0
LINE
8
Layer 1
10
90.690158
20
98.437847
11
94.755719
21
94.755858
0
LINE
8
Layer 1
10
94.755719
20
94.755858
11
98.437708
21
90.690297
0
LINE
8
Layer 1
10
98.437708
20
90.690297
11
101.677609
21
86.313875
0
LINE
8
Layer 1
10
101.677609
20
86.313875
11
104.460368
21
81.662935
0
LINE
8
Layer 1
10
104.460368
20
81.662935
11
106.770930
21
76.773824
0
LINE
8
Layer 1
10
106.770930
20
76.773824
11
108.594239
21
71.682887
0
LINE
8
Layer 1
10
108.594239
20
71.682887
11
109.915242
21
66.426469
0
LINE
8
Layer 1
10
109.915242
20
66.426469
11
110.718884
21
61.040915
0
LINE
8
Layer 1
10
110.718884
20
61.040915
11
110.990111
21
55.562569
0
LINE
8
Layer 1
10
110.990111
20
55.562569
11
110.990111
21
55.562570
0
LINE
8
Anand
10
44.387239
20
14.743095
11
39.555681
21
42.215271
0
LINE
8
Anand
10
39.555681
20
42.215271
11
18.460706
21
46.079813
0
LINE
8
Anand
10
18.460706
20
46.079813
11
12.099382
21
52.634441
0
LINE
8
Anand
10
12.099382
20
52.634441
11
43.321004
21
45.780911
0
LINE
8
Anand
10
43.321004
20
45.780911
11
46.888739
21
16.713161
0
LINE
8
Anand
10
46.888739
20
16.713161
11
56.009428
21
11.441030
0
LINE
8
Anand
10
56.009428
20
11.441030
11
65.083342
21
16.680088
0
LINE
8
Anand
10
65.083342
20
16.680088
11
68.642809
21
45.780911
0
LINE
8
Anand
10
68.642809
20
45.780911
11
99.864431
21
52.634441
0
LINE
8
Anand
10
99.864431
20
52.634441
11
93.503107
21
46.079813
0
LINE
8
Anand
10
93.503107
20
46.079813
11
72.408132
21
42.215271
0
LINE
8
Anand
10
72.408132
20
42.215271
11
67.576574
21
14.743095
0
LINE
8
Anand
10
67.576574
20
14.743095
11
56.021829
21
11.150439
0
LINE
8
Anand
10
56.021829
20
11.150439
11
44.387239
21
14.743095
0
LINE
8
Anand
10
63.248090
20
20.522045
11
55.982194
21
23.573020
0
LINE
8
Anand
10
55.982194
20
23.573020
11
48.716297
21
20.522045
0
LINE
8
Anand
10
48.716297
20
20.522045
11
55.982194
21
26.738589
0
LINE
8
Anand
10
55.982194
20
26.738589
11
63.248090
21
20.522045
0
LINE
8
Anand
10
76.972997
20
62.537095
11
68.410430
21
60.117156
0
LINE
8
Anand
10
68.410430
20
60.117156
11
63.732272
21
52.173713
0
LINE
8
Anand
10
63.732272
20
52.173713
11
75.353749
21
57.328123
0
LINE
8
Anand
10
75.353749
20
57.328123
11
76.972997
21
62.537095
0
LINE
8
Anand
10
34.991103
20
62.537095
11
43.553670
21
60.117156
0
LINE
8
Anand
10
43.553670
20
60.117156
11
48.231828
21
52.173713
0
LINE
8
Anand
10
48.231828
20
52.173713
11
36.610351
21
57.328123
0
LINE
8
Anand
10
36.610351
20
57.328123
11
34.991103
21
62.537095
0
LINE
8
Anand
10
73.854333
20
73.715140
11
72.306432
21
75.307222
0
LINE
8
Anand
10
72.306432
20
75.307222
11
70.716461
21
77.109655
0
LINE
8
Anand
10
70.716461
20
77.109655
11
75.197798
21
81.045339
0
LINE
8
Anand
10
75.197798
20
81.045339
11
79.812654
21
84.879842
0
LINE
8
Anand
10
79.812654
20
84.879842
11
84.413307
21
88.339889
0
LINE
8
Anand
10
84.413307
20
88.339889
11
88.852038
21
91.152207
0
LINE
8
Anand
10
88.852038
20
91.152207
11
89.119581
21
85.727707
0
LINE
8
Anand
10
89.119581
20
85.727707
11
89.201211
21
80.092095
0
LINE
8
Anand
10
89.201211
20
80.092095
11
89.082985
21
77.479634
0
LINE
8
Anand
10
89.082985
20
77.479634
11
88.811092
21
75.155809
0
LINE
8
Anand
10
88.811092
20
75.155809
11
88.349802
21
73.234426
0
LINE
8
Anand
10
88.349802
20
73.234426
11
87.663386
21
71.829287
0
LINE
8
Anand
10
87.663386
20
71.829287
11
87.968217
21
72.996831
0
LINE
8
Anand
10
87.968217
20
72.996831
11
88.150130
21
74.554524
0
LINE
8
Anand
10
88.150130
20
74.554524
11
88.222444
21
78.535946
0
LINE
8
Anand
10
88.222444
20
78.535946
11
87.741697
21
87.832069
0
LINE
8
Anand
10
87.741697
20
87.832069
11
84.764040
21
85.620112
0
LINE
8
Anand
10
84.764040
20
85.620112
11
81.396153
21
82.619687
0
LINE
8
Anand
10
81.396153
20
82.619687
11
77.729197
21
78.696220
0
LINE
8
Anand
10
77.729197
20
78.696220
11
73.854333
21
73.715140
0
LINE
8
Anand
10
73.854333
20
73.715140
11
73.854333
21
73.715140
0
LINE
8
Anand
10
38.109767
20
73.715140
11
39.657668
21
75.307222
0
LINE
8
Anand
10
39.657668
20
75.307222
11
41.247639
21
77.109655
0
LINE
8
Anand
10
41.247639
20
77.109655
11
36.766302
21
81.045339
0
LINE
8
Anand
10
36.766302
20
81.045339
11
32.151446
21
84.879842
0
LINE
8
Anand
10
32.151446
20
84.879842
11
27.550793
21
88.339889
0
LINE
8
Anand
10
27.550793
20
88.339889
11
23.112062
21
91.152207
0
LINE
8
Anand
10
23.112062
20
91.152207
11
22.844519
21
85.727707
0
LINE
8
Anand
10
22.844519
20
85.727707
11
22.762889
21
80.092095
0
LINE
8
Anand
10
22.762889
20
80.092095
11
22.881115
21
77.479634
0
LINE
8
Anand
10
22.881115
20
77.479634
11
23.153008
21
75.155809
0
LINE
8
Anand
10
23.153008
20
75.155809
11
23.614298
21
73.234426
0
LINE
8
Anand
10
23.614298
20
73.234426
11
24.300714
21
71.829287
0
LINE
8
Anand
10
24.300714
20
71.829287
11
23.995883
21
72.996831
0
LINE
8
Anand
10
23.995883
20
72.996831
11
23.813970
21
74.554524
0
LINE
8
Anand
10
23.813970
20
74.554524
11
23.741656
21
78.535946
0
LINE
8
Anand
10
23.741656
20
78.535946
11
24.222403
21
87.832069
0
LINE
8
Anand
10
24.222403
20
87.832069
11
27.200060
21
85.620112
0
LINE
8
Anand
10
27.200060
20
85.620112
11
30.567947
21
82.619687
0
LINE
8
Anand
10
30.567947
20
82.619687
11
34.234903
21
78.696220
0
LINE
8
Anand
10
34.234903
20
78.696220
11
38.109767
21
73.715140
0
LINE
8
Anand
10
38.109767
20
73.715140
11
38.109767
21
73.715140
 0 
ENDSEC
 0 
EOF