<svg id="Layer_1" data-name="Layer 1" xmlns="http://www.w3.org/2000/svg" viewBox="0 0 576 576"><defs><style>.cls-1{fill:#30302f;}.cls-2{fill:#fff;}.cls-3{fill:none;}</style></defs><circle class="cls-1" cx="288.27" cy="298.34" r="205.67"/><polygon class="cls-2" points="373.43 259.71 339.72 269.25 321.31 300.51 367.05 280.23 373.43 259.71"/><path class="cls-2" d="M234.94,213.32c2.7-2.17,9.67-10.59,9.67-10.59s-36.09-33.56-57-44.06c-.62,9.72-3.87,51.3,3.84,60.73-3.78-8.17-.9-40-.39-50.72A184.68,184.68,0,0,1,234.94,213.32Z"/><polygon class="cls-2" points="208.51 259.71 242.23 269.25 260.64 300.51 214.9 280.23 208.51 259.71"/><path class="cls-2" d="M346,213.32c-2.7-2.17-9.67-10.59-9.67-10.59s36.09-33.56,57-44.06c.62,9.72,3.87,51.3-3.84,60.73,3.78-8.17.9-40,.39-50.72A184.68,184.68,0,0,0,346,213.32Z"/><polygon class="cls-2" points="290.55 463.96 290.51 463.93 290.47 463.96 290.51 463.96 290.55 463.96"/><polygon class="cls-2" points="228.07 356.24 228.41 357.15 229.35 357.29 228.07 356.24"/><polygon class="cls-2" points="245.36 433.31 245.24 432.96 244.94 432.72 245.36 433.31"/><polygon class="cls-2" points="228.41 357.15 228.07 356.24 229.35 357.29 228.41 357.15 242.94 434.19 243.07 434.55 243.37 434.77 290.4 465.51 290.4 463.96 290.47 463.96 290.51 463.93 290.4 463.85 290.4 463.13 290.51 463.06 245.24 432.96 245.36 433.31 244.94 432.72 245.24 432.96 231.14 355.13 230.82 354.23 229.86 354.07 179.12 343.07 182.96 347.74 228.41 357.15"/><polygon class="cls-2" points="290.55 463.96 290.55 463.96 290.51 463.96 290.55 463.96"/><polygon class="cls-2" points="290.51 465.58 290.62 465.67 290.62 465.51 290.55 465.56 290.51 465.58"/><polygon class="cls-3" points="243.68 341.25 242.8 338.24 243.68 341.25 246.64 341.66 243.68 341.25"/><polygon class="cls-2" points="246.64 341.66 242.8 338.24 243.68 341.25 246.64 341.66"/><polygon class="cls-3" points="290.61 444.94 290.51 444.94 290.61 444.94 290.61 444.94"/><polygon class="cls-2" points="290.51 444.94 290.61 444.94 290.51 444.85 290.4 444.94 290.51 444.94"/><polygon class="cls-3" points="335.78 432.96 336.08 432.72 335.78 432.96 335.65 433.31 335.78 432.96"/><polygon class="cls-3" points="335.65 433.31 336.08 432.72 335.78 432.96 335.65 433.31"/><polygon class="cls-3" points="261.47 423.65 262.43 424.43 262.72 425.52 262.43 424.43 261.47 423.65 261.47 423.65"/><polygon class="cls-2" points="261.47 423.65 262.72 425.52 262.43 424.43 261.47 423.65"/><polygon class="cls-3" points="351.67 357.29 351.67 357.29 352.31 356.76 351.67 357.29"/><polygon class="cls-3" points="352.94 356.24 352.94 356.24 352.77 356.69 352.94 356.24"/><polygon class="cls-3" points="352.77 356.69 352.94 356.24 352.31 356.76 351.67 357.29 352.61 357.15 352.77 356.69"/><path class="cls-2" d="M290.51,449.61l.11.09v-.17l33.3-20.24.9-.68.35-1.19,12.17-86.17L415.44,326l12.05-14.65-94.58,20.93-3.09.53-.76,2.9-10.47,88.73-28.08,17.5-28.08-17.5.29,1.09-1.25-1.86h0l1,.77L252,335.7l-.76-2.9-3.09-.53L152.88,311.2,165,325.86l78.73,15.39-.88-3,3.84,3.42-3-.41,12.17,86.17.34,1.19.91.68,33.3,20.24v.17Zm42.4-112.43-.13.84-.86.18Zm-42.4,107.67.11-.09v.18h-.22Z"/><polygon class="cls-2" points="290.4 444.94 290.51 444.85 290.4 444.94 290.51 444.94 290.4 444.94"/><polygon class="cls-2" points="290.62 444.94 290.62 444.76 290.51 444.85 290.61 444.94 290.62 444.94"/><polygon class="cls-2" points="290.61 444.94 290.51 444.94 290.61 444.94 290.61 444.94 290.61 444.94 290.61 444.94"/><polygon class="cls-2" points="290.61 444.94 290.51 444.85 290.61 444.94 290.61 444.94"/><polygon class="cls-2" points="261.47 423.65 262.72 425.52 261.47 423.65 261.47 423.65"/><polygon class="cls-2" points="332.91 337.18 331.92 338.2 332.79 338.02 332.91 337.18"/><polygon class="cls-2" points="290.4 465.51 290.4 465.67 290.51 465.58 290.47 465.56 290.4 465.51"/><polygon class="cls-2" points="291.08 463.49 291.69 463.96 290.62 463.96 290.62 465.51 337.65 434.77 337.94 434.55 338.08 434.19 352.61 357.15 351.67 357.29 351.67 357.29 351.67 357.29 352.31 356.76 352.94 356.24 352.94 356.24 352.94 356.24 352.77 356.69 352.61 357.15 397.42 347.88 401.25 343.23 351.15 354.07 350.2 354.23 349.88 355.13 335.78 432.96 336.08 432.72 335.65 433.31 335.78 432.96 290.51 463.06 290.62 463.13 291.08 463.49"/><polygon class="cls-2" points="290.62 463.96 290.62 463.85 290.51 463.93 290.55 463.96 290.62 463.96"/><polygon class="cls-2" points="290.51 463.96 290.47 463.96 290.47 463.96 290.51 463.96"/><polygon class="cls-2" points="290.55 463.96 290.55 463.96 290.51 463.96 290.47 463.96 290.47 463.96 290.4 463.96 290.4 465.51 290.47 465.56 290.51 465.58 290.55 465.56 290.62 465.51 290.62 463.96 290.55 463.96"/><polygon class="cls-2" points="290.4 463.85 290.51 463.93 290.62 463.85 290.62 463.13 290.51 463.06 290.4 463.13 290.4 463.85"/><polygon class="cls-2" points="352.94 356.24 352.31 356.76 352.94 356.24 352.94 356.24"/><polygon class="cls-2" points="352.61 357.15 352.61 357.15 352.77 356.69 352.61 357.15"/><polygon class="cls-2" points="351.67 357.29 351.67 357.29 352.61 357.15 352.61 357.15 351.67 357.29"/><polygon class="cls-2" points="290.62 463.13 290.62 463.85 291.08 463.49 290.62 463.13"/><polygon class="cls-2" points="291.69 463.96 291.08 463.49 290.62 463.85 290.62 463.96 291.69 463.96"/><polygon class="cls-2" points="300.87 415.8 291.03 407.76 281.74 415.75 272.01 415.8 290.92 399.54 310.83 415.8 300.87 415.8"/></svg>